<svg width="99" height="39" viewBox="0 0 99 39" fill="none" xmlns="http://www.w3.org/2000/svg">
<path d="M65.7569 0H52.8114C52.2809 0 51.8477 0.420988 51.8477 0.943935V13.6229C51.8477 14.1426 52.2775 14.5669 52.8114 14.5669H65.7569C66.2875 14.5669 66.7207 14.1459 66.7207 13.6229V0.943935C66.7207 0.424277 66.2908 0 65.7569 0ZM62.8353 12.8401H55.7363V1.72342H57.8519V11.1726H62.8353V12.8401Z" fill="#F5F5F5"/>
<path d="M81.8975 0H68.9521C68.4215 0 67.9883 0.420988 67.9883 0.943935V13.6229C67.9883 14.1426 68.4181 14.5669 68.9521 14.5669H81.8975C82.4281 14.5669 82.8613 14.1459 82.8613 13.6229V0.943935C82.8613 0.424277 82.4314 0 81.8975 0ZM76.4809 12.8401H74.3653V1.72342H76.4809V12.8401Z" fill="#F5F5F5"/>
<path d="M98.0381 0H85.0927C84.5621 0 84.1289 0.420988 84.1289 0.943935V13.6229C84.1289 14.1426 84.5587 14.5669 85.0927 14.5669H98.0381C98.5687 14.5669 99.0019 14.1459 99.0019 13.6229V0.943935C99.0019 0.424277 98.5721 0 98.0381 0ZM91.5805 12.9914C88.8504 12.9914 87.1176 11.5048 86.9027 8.94929H88.9881C89.1257 10.4524 90.0929 11.3371 91.6242 11.3371C93.1555 11.3371 94.0789 10.7056 94.0789 9.65642C94.0789 8.36386 92.729 8.16981 91.2414 7.94287C89.3709 7.68633 87.2083 7.37059 87.2083 4.90715C87.2083 2.743 88.8336 1.57213 91.5805 1.57213C94.0789 1.57213 95.7076 3.0127 95.9192 5.44654H93.817C93.7263 4.04872 92.8499 3.22319 91.4697 3.22319C90.0895 3.22319 89.3541 3.79547 89.3541 4.75585C89.3541 5.85108 90.61 6.04842 92.0238 6.25891C93.9413 6.52861 96.2248 6.87395 96.2248 9.44264C96.2248 11.666 94.5054 12.9882 91.5772 12.9882L91.5805 12.9914Z" fill="#F5F5F5"/>
<path d="M59.7242 23.6475H56.9336V27.0121H59.7242C60.876 27.0121 61.5644 26.3806 61.5644 25.3314C61.5644 24.2822 60.8726 23.6508 59.7242 23.6508V23.6475Z" fill="#F5F5F5"/>
<path d="M65.7569 15.7806H52.8114C52.2809 15.7806 51.8477 16.2016 51.8477 16.7246V29.4036C51.8477 29.9232 52.2775 30.3475 52.8114 30.3475H65.7569C66.2875 30.3475 66.7207 29.9265 66.7207 29.4036V16.7213C66.7207 16.2016 66.2908 15.7773 65.7569 15.7773V15.7806ZM59.6149 28.6208H54.8162V17.5041H59.7392C61.7473 17.5041 62.9294 18.4052 62.9294 19.9379C62.9294 21.3489 61.6869 22.2073 59.6015 22.2073V22.2369H59.8298C62.298 22.2369 63.7555 23.3782 63.7555 25.3318C63.7555 27.4039 62.2208 28.6208 59.6149 28.6208Z" fill="#F5F5F5"/>
<path d="M60.735 20.6581C60.735 19.6977 60.107 19.1123 59.0492 19.1123H56.9336V22.2072H59.0492C60.107 22.2072 60.735 21.6218 60.735 20.6614V20.6581Z" fill="#F5F5F5"/>
<path d="M75.4382 19.0078C73.4905 19.0078 72.3555 20.524 72.3555 23.0631C72.3555 25.6022 73.4905 27.1184 75.4382 27.1184C77.3859 27.1184 78.4907 25.6022 78.4907 23.0631C78.4907 20.524 77.3557 19.0078 75.4382 19.0078Z" fill="#F5F5F5"/>
<path d="M81.8936 15.7806H68.9481C68.4176 15.7806 67.9844 16.2016 67.9844 16.7246V29.4036C67.9844 29.9232 68.4142 30.3475 68.9481 30.3475H81.8936C82.4242 30.3475 82.8574 29.9265 82.8574 29.4036V16.7213C82.8574 16.2016 82.4275 15.7773 81.8936 15.7773V15.7806ZM75.436 28.7688C72.1249 28.7688 70.1604 26.6507 70.1604 23.0624C70.1604 19.4741 72.1249 17.356 75.436 17.356C78.7471 17.356 80.6813 19.4741 80.6813 23.0624C80.6813 26.6507 78.7168 28.7688 75.436 28.7688Z" fill="#F5F5F5"/>
<path d="M10.3396 12.1396V14.1919H0V0H10.1247V2.05232H2.70327V5.88726H9.4396V7.93958H2.70327V12.1396H10.3396Z" fill="#F5F5F5"/>
<path d="M24.3608 0L20.2672 14.1919H15.4316L11.375 0H14.2529L17.9132 13.9617H17.9535L21.6373 0H24.3608Z" fill="#F5F5F5"/>
<path d="M36.5622 12.1396V14.1919H26.2227V0H36.3473V2.05232H28.9259V5.88726H35.6623V7.93958H28.9259V12.1396H36.5622Z" fill="#F5F5F5"/>
<path d="M48.2355 14.1916H45.277L42.9465 9.26147H42.9062L40.5555 14.1916H37.6172L40.2802 9.14635L37.9496 4.56152H40.7906L42.9062 9.08715H42.9465L45.0621 4.56152H47.903L45.5725 9.14635L48.2355 14.1916Z" fill="#F5F5F5"/>
<path d="M10.7325 28.4339V30.4862H0V28.5293C4.68454 26.9374 7.43146 24.099 7.43146 20.8199C7.43146 19.2083 6.60201 18.2117 5.23863 18.2117C3.87524 18.2117 2.90475 19.3826 2.78722 21.3198H0.15783C0.376107 18.0407 2.27343 16.1035 5.31586 16.1035C8.3583 16.1035 10.3765 17.8861 10.3765 20.8988C10.3765 24.9837 6.80014 27.7465 0.728707 28.3977V28.4372H10.7325V28.4339Z" fill="#F5F5F5"/>
<path d="M12.4336 23.3914C12.4336 18.8066 14.529 16.103 18.0886 16.103C21.6482 16.103 23.7604 18.8066 23.7604 23.3914C23.7604 27.9762 21.6448 30.6798 18.0886 30.6798C14.5324 30.6798 12.4336 27.9762 12.4336 23.3914ZM20.9329 23.3914C20.9329 20.1485 19.8852 18.2113 18.0853 18.2113C16.2853 18.2113 15.2376 20.1485 15.2376 23.3914C15.2376 26.6343 16.3055 28.5682 18.0853 28.5682C19.8651 28.5682 20.9329 26.631 20.9329 23.3914Z" fill="#F5F5F5"/>
<path d="M36.1348 28.4334V30.4857H25.4023V28.5288C30.0869 26.9369 32.8338 24.0985 32.8338 20.8194C32.8338 19.2078 32.0044 18.2113 30.641 18.2113C29.2776 18.2113 28.3071 19.3821 28.1896 21.3193H25.5602C25.7785 18.0402 27.6758 16.103 30.7182 16.103C33.7606 16.103 35.7789 17.8857 35.7789 20.8983C35.7789 24.9833 32.2025 27.746 26.131 28.3972V28.4367H36.1315L36.1348 28.4334Z" fill="#F5F5F5"/>
<path d="M48.2321 26.3643C48.2321 29.0678 46.2173 30.6794 42.7752 30.6794C39.7328 30.6794 37.8321 28.9329 37.6172 25.963H40.2466C40.3272 27.6108 41.2742 28.5712 42.8155 28.5712C44.4576 28.5712 45.4046 27.7654 45.4046 26.3643C45.4046 24.9632 44.377 24.1409 42.6577 24.1409H42.2816V22.2991C43.9808 22.1445 44.9882 21.3387 44.9882 20.1317C44.9882 18.9246 44.1789 18.2142 42.7752 18.2142C41.3715 18.2142 40.5824 19.191 40.4816 20.8421H37.9127C38.131 17.8688 40.0082 16.106 43.0136 16.106C46.0191 16.106 47.8157 17.3722 47.8157 19.2699C47.8157 21.1677 45.9956 22.2991 42.9129 22.2991V22.3386H43.0909C46.3113 22.3386 48.2288 23.835 48.2288 26.3675L48.2321 26.3643Z" fill="#F5F5F5"/>
<path d="M91.4907 17.6855L89.543 24.326H93.4551L91.5209 17.6855H91.4907Z" fill="#F5F5F5"/>
<path d="M98.0381 15.7806H85.0927C84.5621 15.7806 84.1289 16.2016 84.1289 16.7246V29.4036C84.1289 29.9232 84.5587 30.3475 85.0927 30.3475H98.0381C98.5687 30.3475 99.0019 29.9265 99.0019 29.4036V16.7213C99.0019 16.2016 98.5721 15.7773 98.0381 15.7773V15.7806ZM94.7002 28.6208L93.9178 25.9337H89.072L88.2896 28.6208H86.174L89.7 17.5073H93.4409L96.9535 28.6208H94.7002Z" fill="#F5F5F5"/>
<path d="M3.45884 38.4353V38.9286H0V33.7222H3.3816V34.2155H0.604457V35.9948H3.1331V36.4882H0.604457V38.4353H3.45884Z" fill="#F5F5F5"/>
<path d="M8.1336 33.7217V38.9281H7.06909L4.84603 33.7776H4.83259L4.85274 38.9281H4.26172V33.7217H5.33967L7.55601 38.8722H7.56944L7.55601 33.7217H8.13024H8.1336Z" fill="#F5F5F5"/>
<path d="M12.7635 38.4348V38.9281H9.30469V33.7217H12.6863V34.215H9.90914V35.9944H12.4378V36.4877H9.90914V38.4348H12.7635Z" fill="#F5F5F5"/>
<path d="M17.4013 38.9281H16.7197L15.4066 36.7048H14.1709V38.9281H13.5664V33.7217H15.4402C16.5685 33.7217 17.2435 34.2578 17.2435 35.1557C17.2435 36.1193 16.5887 36.6883 15.4738 36.6883V36.7015C15.8298 36.7015 16.2126 36.9416 16.4611 37.3692L17.398 38.9248L17.4013 38.9281ZM15.4839 36.2345C16.2025 36.2345 16.6189 35.8464 16.6189 35.2017C16.6189 34.5571 16.1924 34.2183 15.4839 34.2183H14.1709V36.2377H15.4839V36.2345Z" fill="#F5F5F5"/>
<path d="M22.2239 36.2342V38.9279H21.6496V37.0367H21.6362C21.6362 38.2668 20.9545 39.0002 19.8027 39.0002C18.5938 39.0002 17.8281 38.0069 17.8281 36.3263C17.8281 34.6456 18.6744 33.6523 20.1016 33.6523C21.2232 33.6523 21.9888 34.3562 22.1836 35.5303H21.5925C21.4213 34.6719 20.8605 34.1654 20.1016 34.1654C19.0639 34.1654 18.4527 34.9679 18.4527 36.3263C18.4527 37.6846 19.0438 38.4871 20.0445 38.4871C21.0452 38.4871 21.6127 37.8195 21.6362 36.6848H19.9739V36.2342H22.2239Z" fill="#F5F5F5"/>
<path d="M27.0443 33.7217L24.388 38.9281H23.713L24.6936 36.9811H24.1026L22.4336 33.725H23.1522L24.7574 36.9251H24.7708L26.3693 33.725H27.0443V33.7217Z" fill="#F5F5F5"/>
<path d="M32.4432 33.7217L30.8044 38.9281H29.6828L28.0508 33.7217H28.7123L30.2537 38.8722H30.2671L31.8152 33.7217H32.4465H32.4432Z" fill="#F5F5F5"/>
<path d="M33.0703 33.7217H33.6748V38.9281H33.0703V33.7217Z" fill="#F5F5F5"/>
<path d="M38.6826 38.9281H38.0009L36.6879 36.7048H35.4521V38.9281H34.8477V33.7217H36.7215C37.8498 33.7217 38.5248 34.2578 38.5248 35.1557C38.5248 36.1193 37.8699 36.6883 36.7551 36.6883V36.7015C37.111 36.7015 37.4938 36.9416 37.7423 37.3692L38.6792 38.9248L38.6826 38.9281ZM36.7651 36.2345C37.4838 36.2345 37.9002 35.8464 37.9002 35.2017C37.9002 34.5571 37.4737 34.2183 36.7651 34.2183H35.4521V36.2377H36.7651V36.2345Z" fill="#F5F5F5"/>
<path d="M42.6687 34.215H41.0501V38.9281H40.4389V34.215H38.8203V33.7217H42.6687V34.215Z" fill="#F5F5F5"/>
<path d="M46.5057 33.7217H47.0799V37.1323C47.0799 38.2999 46.3613 38.9972 45.1558 38.9972C43.9502 38.9972 43.2383 38.2999 43.2383 37.1323V33.7217H43.8495V37.1751C43.8495 37.9973 44.3397 38.4841 45.1692 38.4841C45.9986 38.4841 46.5057 37.9973 46.5057 37.1751V33.7217Z" fill="#F5F5F5"/>
<path d="M51.111 37.5899H48.5958L48.1559 38.9252H47.5312L49.3346 33.7188H50.4125L52.2091 38.9252H51.5475L51.1076 37.5899H51.111ZM50.9565 37.0965L49.8685 33.7747H49.8551L48.7603 37.0965H50.9531H50.9565Z" fill="#F5F5F5"/>
<path d="M55.8264 38.4221V38.9286H52.8008V33.7222H53.4052V38.4221H55.8264Z" fill="#F5F5F5"/>
<path d="M61.2245 38.4348V38.9281H57.7656V33.7217H61.1472V34.215H58.3701V35.9944H60.8987V36.4877H58.3701V38.4348H61.2245Z" fill="#F5F5F5"/>
<path d="M65.8494 38.9281H65.0905L63.6633 36.2476H63.6499L62.216 38.9281H61.457L62.9984 36.2114L61.6283 33.7217H62.3301L63.6499 36.1917H63.6633L64.9763 33.7217H65.6849L64.3081 36.2114L65.8494 38.9281Z" fill="#F5F5F5"/>
<path d="M70.0116 35.2905C70.0116 36.2739 69.3568 36.8659 68.2419 36.8659H67.0498V38.9281H66.4453V33.7217H68.2486C69.3568 33.7217 70.0083 34.3071 70.0083 35.2905H70.0116ZM69.387 35.2905C69.387 34.6163 68.9807 34.215 68.2855 34.215H67.0498V36.3759H68.2788C68.974 36.3759 69.387 35.968 69.387 35.2938V35.2905Z" fill="#F5F5F5"/>
<path d="M74.2088 38.4353V38.9286H70.75V33.7222H74.1316V34.2155H71.3545V35.9948H73.8831V36.4882H71.3545V38.4353H74.2088Z" fill="#F5F5F5"/>
<path d="M78.8467 38.9281H78.165L76.852 36.7048H75.6162V38.9281H75.0117V33.7217H76.8855C78.0139 33.7217 78.6888 34.2578 78.6888 35.1557C78.6888 36.1193 78.034 36.6883 76.9191 36.6883V36.7015C77.2751 36.7015 77.6579 36.9416 77.9064 37.3692L78.8433 38.9248L78.8467 38.9281ZM76.9292 36.2345C77.6478 36.2345 78.0642 35.8464 78.0642 35.2017C78.0642 34.5571 77.6378 34.2183 76.9292 34.2183H75.6162V36.2377H76.9292V36.2345Z" fill="#F5F5F5"/>
<path d="M79.582 33.7217H80.1865V38.9281H79.582V33.7217Z" fill="#F5F5F5"/>
<path d="M84.8143 38.4348V38.9281H81.3555V33.7217H84.7371V34.215H81.9599V35.9944H84.4886V36.4877H81.9599V38.4348H84.8143Z" fill="#F5F5F5"/>
<path d="M89.4852 33.7217V38.9281H88.4206L86.1976 33.7776H86.1842L86.2043 38.9281H85.6133V33.7217H86.6912L88.9076 38.8722H88.921L88.9076 33.7217H89.4818H89.4852Z" fill="#F5F5F5"/>
<path d="M92.6261 38.9973C91.2056 38.9973 90.3594 38.004 90.3594 36.3233C90.3594 34.6427 91.2056 33.6494 92.6261 33.6494C93.7779 33.6494 94.557 34.3664 94.7484 35.5768H94.1574C93.9861 34.6822 93.4119 34.1625 92.6227 34.1625C91.5918 34.1625 90.9907 34.965 90.9907 36.3233C90.9907 37.6817 91.5952 38.4842 92.6227 38.4842C93.4186 38.4842 93.9861 37.9415 94.1574 37.0206H94.7484C94.557 38.2573 93.7678 38.9973 92.6261 38.9973Z" fill="#F5F5F5"/>
<path d="M98.9979 38.4348V38.9281H95.5391V33.7217H98.9207V34.215H96.1435V35.9944H98.6722V36.4877H96.1435V38.4348H98.9979Z" fill="#F5F5F5"/>
</svg>
