<svg width="160" height="65" viewBox="0 0 160 65" fill="none" xmlns="http://www.w3.org/2000/svg">
<path d="M106.272 0H85.3506C84.4931 0 83.793 0.694675 83.793 1.55759V22.4792C83.793 23.3367 84.4876 24.0368 85.3506 24.0368H106.272C107.13 24.0368 107.83 23.3422 107.83 22.4792V1.55759C107.83 0.700102 107.135 0 106.272 0ZM101.551 21.1876H90.0776V2.84383H93.4967V18.436H101.551V21.1876Z" fill="#1E1E1C"/>
<path d="M132.358 0H111.436C110.579 0 109.879 0.694675 109.879 1.55759V22.4792C109.879 23.3367 110.574 24.0368 111.436 24.0368H132.358C133.216 24.0368 133.916 23.3422 133.916 22.4792V1.55759C133.916 0.700102 133.221 0 132.358 0ZM123.604 21.1876H120.185V2.84383H123.604V21.1876Z" fill="#1E1E1C"/>
<path d="M158.44 0H137.519C136.661 0 135.961 0.694675 135.961 1.55759V22.4792C135.961 23.3367 136.656 24.0368 137.519 24.0368H158.44C159.298 24.0368 159.998 23.3422 159.998 22.4792V1.55759C159.998 0.700102 159.303 0 158.44 0ZM148.004 21.4372C143.591 21.4372 140.791 18.9842 140.444 14.7673H143.814C144.037 17.2475 145.6 18.7074 148.074 18.7074C150.549 18.7074 152.042 17.6654 152.042 15.9341C152.042 13.8012 149.86 13.481 147.456 13.1066C144.433 12.6832 140.938 12.1622 140.938 8.0973C140.938 4.52624 143.564 2.59418 148.004 2.59418C152.042 2.59418 154.674 4.97127 155.016 8.98736H151.618C151.472 6.68082 150.055 5.3186 147.825 5.3186C145.594 5.3186 144.406 6.26293 144.406 7.84766C144.406 9.6549 146.435 9.98053 148.72 10.3279C151.819 10.7729 155.51 11.3427 155.51 15.5813C155.51 19.2501 152.731 21.4318 147.998 21.4318L148.004 21.4372Z" fill="#1E1E1C"/>
<path d="M96.5178 39.0215H92.0078V44.5735H96.5178C98.3793 44.5735 99.4919 43.5314 99.4919 41.8002C99.4919 40.0689 98.3739 39.0269 96.5178 39.0269V39.0215Z" fill="#1E1E1C"/>
<path d="M106.268 26.0406H85.3467C84.4892 26.0406 83.7891 26.7353 83.7891 27.5982V48.5198C83.7891 49.3773 84.4837 50.0774 85.3467 50.0774H106.268C107.126 50.0774 107.826 49.3827 107.826 48.5198V27.5927C107.826 26.7353 107.131 26.0352 106.268 26.0352V26.0406ZM96.3421 47.2282H88.5867V28.8844H96.5429C99.7883 28.8844 101.699 30.3714 101.699 32.9005C101.699 35.2287 99.6906 36.6452 96.3204 36.6452V36.6941H96.6894C100.678 36.6941 103.034 38.5773 103.034 41.801C103.034 45.2201 100.554 47.2282 96.3421 47.2282Z" fill="#1E1E1C"/>
<path d="M98.1513 34.0898C98.1513 32.5051 97.1365 31.5391 95.4269 31.5391H92.0078V36.646H95.4269C97.1365 36.646 98.1513 35.68 98.1513 34.0952V34.0898Z" fill="#1E1E1C"/>
<path d="M121.916 31.3652C118.768 31.3652 116.934 33.8672 116.934 38.0569C116.934 42.2467 118.768 44.7486 121.916 44.7486C125.063 44.7486 126.849 42.2467 126.849 38.0569C126.849 33.8672 125.015 31.3652 121.916 31.3652Z" fill="#1E1E1C"/>
<path d="M132.35 26.0406H111.429C110.571 26.0406 109.871 26.7353 109.871 27.5982V48.5198C109.871 49.3773 110.566 50.0774 111.429 50.0774H132.35C133.208 50.0774 133.908 49.3827 133.908 48.5198V27.5927C133.908 26.7353 133.213 26.0352 132.35 26.0352V26.0406ZM121.914 47.4724C116.563 47.4724 113.388 43.9773 113.388 38.0563C113.388 32.1353 116.563 28.6402 121.914 28.6402C127.265 28.6402 130.391 32.1353 130.391 38.0563C130.391 43.9773 127.216 47.4724 121.914 47.4724Z" fill="#1E1E1C"/>
<path d="M16.7102 20.0316V23.4181H0V0H16.3629V3.38654H4.36885V9.71459H15.2557V13.1011H4.36885V20.0316H16.7102Z" fill="#1E1E1C"/>
<path d="M39.3696 0L32.7539 23.4181H24.9388L18.3828 0H23.0339L28.9495 23.0382H29.0146L34.9682 0H39.3696Z" fill="#1E1E1C"/>
<path d="M59.0891 20.0316V23.4181H42.3789V0H58.7418V3.38654H46.7478V9.71459H57.6346V13.1011H46.7478V20.0316H59.0891Z" fill="#1E1E1C"/>
<path d="M77.9536 23.418H73.1723L69.4059 15.2827H69.3407L65.5417 23.418H60.793L65.0967 15.0928L61.3303 7.52734H65.9216L69.3407 14.9951H69.4059L72.825 7.52734H77.4163L73.6499 15.0928L77.9536 23.418Z" fill="#1E1E1C"/>
<path d="M17.3452 46.9186V50.3052H0V47.076C7.57087 44.4493 12.0103 39.7657 12.0103 34.3548C12.0103 31.6955 10.6698 30.0511 8.46635 30.0511C6.26293 30.0511 4.69448 31.9831 4.50453 35.1797H0.255076C0.607841 29.7689 3.67418 26.5723 8.59118 26.5723C13.5082 26.5723 16.7699 29.5138 16.7699 34.485C16.7699 41.2256 10.99 45.7844 1.17769 46.8589V46.9241H17.3452V46.9186Z" fill="#1E1E1C"/>
<path d="M20.0977 38.5988C20.0977 31.0334 23.4842 26.5723 29.237 26.5723C34.9897 26.5723 38.4034 31.0334 38.4034 38.5988C38.4034 46.1643 34.9843 50.6254 29.237 50.6254C23.4896 50.6254 20.0977 46.1643 20.0977 38.5988ZM33.8338 38.5988C33.8338 33.2477 32.1405 30.0511 29.2315 30.0511C26.3226 30.0511 24.6293 33.2477 24.6293 38.5988C24.6293 43.95 26.3552 47.1412 29.2315 47.1412C32.1079 47.1412 33.8338 43.9446 33.8338 38.5988Z" fill="#1E1E1C"/>
<path d="M58.3999 46.9186V50.3052H41.0547V47.076C48.6256 44.4493 53.065 39.7657 53.065 34.3548C53.065 31.6955 51.7245 30.0511 49.521 30.0511C47.3176 30.0511 45.7492 31.9831 45.5592 35.1797H41.3098C41.6625 29.7689 44.7289 26.5723 49.6459 26.5723C54.5629 26.5723 57.8246 29.5138 57.8246 34.485C57.8246 41.2256 52.0447 45.7844 42.2324 46.8589V46.9241H58.3944L58.3999 46.9186Z" fill="#1E1E1C"/>
<path d="M77.9521 43.5054C77.9521 47.9665 74.6958 50.6258 69.133 50.6258C64.216 50.6258 61.1442 47.744 60.7969 42.8433H65.0463C65.1766 45.5623 66.707 47.147 69.1981 47.147C71.852 47.147 73.3824 45.8174 73.3824 43.5054C73.3824 41.1934 71.7217 39.8366 68.943 39.8366H68.3352V36.7974C71.0813 36.5424 72.7095 35.2127 72.7095 33.221C72.7095 31.2292 71.4015 30.0569 69.133 30.0569C66.8644 30.0569 65.589 31.6688 65.4262 34.3932H61.2745C61.6272 29.4871 64.661 26.5781 69.5183 26.5781C74.3756 26.5781 77.2791 28.6676 77.2791 31.799C77.2791 34.9305 74.3376 36.7974 69.3555 36.7974V36.8626H69.6431C74.8478 36.8626 77.9467 39.3319 77.9467 43.5108L77.9521 43.5054Z" fill="#1E1E1C"/>
<path d="M147.859 29.1816L144.711 40.139H151.034L147.908 29.1816H147.859Z" fill="#1E1E1C"/>
<path d="M158.44 26.0386H137.519C136.661 26.0386 135.961 26.7333 135.961 27.5962V48.5179C135.961 49.3754 136.656 50.0755 137.519 50.0755H158.44C159.298 50.0755 159.998 49.3808 159.998 48.5179V27.5908C159.998 26.7333 159.303 26.0332 158.44 26.0332V26.0386ZM153.046 47.2262L151.781 42.7922H143.95L142.685 47.2262H139.266L144.965 28.8879H151.01L156.687 47.2262H153.046Z" fill="#1E1E1C"/>
<path d="M5.58996 63.4216V64.2357H0V55.6445H5.46514V56.4586H0.976886V59.3947H5.06353V60.2088H0.976886V63.4216H5.58996Z" fill="#1E1E1C"/>
<path d="M13.1442 55.6445V64.2357H11.4238L7.83104 55.7368H7.80933L7.8419 64.2357H6.88672V55.6445H8.62883L12.2108 64.1434H12.2325L12.2108 55.6445H13.1388H13.1442Z" fill="#1E1E1C"/>
<path d="M20.629 63.4216V64.2357H15.0391V55.6445H20.5042V56.4586H16.0159V59.3947H20.1026V60.2088H16.0159V63.4216H20.629Z" fill="#1E1E1C"/>
<path d="M28.1197 64.2357H27.018L24.896 60.567H22.8988V64.2357H21.9219V55.6445H24.9502C26.7737 55.6445 27.8646 56.5292 27.8646 58.0108C27.8646 59.6009 26.8063 60.5398 25.0045 60.5398V60.5615C25.5798 60.5615 26.1985 60.9577 26.6001 61.6632L28.1142 64.2303L28.1197 64.2357ZM25.0208 59.7909C26.1822 59.7909 26.8552 59.1505 26.8552 58.0867C26.8552 57.023 26.1659 56.464 25.0208 56.464H22.8988V59.7963H25.0208V59.7909Z" fill="#1E1E1C"/>
<path d="M35.9127 59.7877V64.2325H34.9847V61.1119H34.963C34.963 63.1416 33.8613 64.3519 31.9998 64.3519C30.046 64.3519 28.8086 62.7129 28.8086 59.9396C28.8086 57.1663 30.1762 55.5273 32.4828 55.5273C34.2954 55.5273 35.5328 56.6888 35.8476 58.6262H34.8924C34.6156 57.2098 33.7093 56.374 32.4828 56.374C30.8058 56.374 29.818 57.6982 29.818 59.9396C29.818 62.181 30.7732 63.5052 32.3905 63.5052C34.0078 63.5052 34.925 62.4035 34.963 60.5312H32.2765V59.7877H35.9127Z" fill="#1E1E1C"/>
<path d="M43.7093 55.6445L39.4164 64.2357H38.3256L39.9103 61.0228H38.9551L36.2578 55.65H37.4192L40.0134 60.9306H40.0351L42.6184 55.65H43.7093V55.6445Z" fill="#1E1E1C"/>
<path d="M52.4346 55.6445L49.7862 64.2357H47.9735L45.3359 55.6445H46.4051L48.8961 64.1434H48.9179L51.4198 55.6445H52.4401H52.4346Z" fill="#1E1E1C"/>
<path d="M53.4453 55.6445H54.4222V64.2357H53.4453V55.6445Z" fill="#1E1E1C"/>
<path d="M62.5181 64.2357H61.4164L59.2944 60.567H57.2972V64.2357H56.3203V55.6445H59.3487C61.1722 55.6445 62.263 56.5292 62.263 58.0108C62.263 59.6009 61.2047 60.5398 59.4029 60.5398V60.5615C59.9782 60.5615 60.5969 60.9577 60.9985 61.6632L62.5127 64.2303L62.5181 64.2357ZM59.4192 59.7909C60.5806 59.7909 61.2536 59.1505 61.2536 58.0867C61.2536 57.023 60.5643 56.464 59.4192 56.464H57.2972V59.7963H59.4192V59.7909Z" fill="#1E1E1C"/>
<path d="M68.9578 56.4586H66.3419V64.2357H65.3542V56.4586H62.7383V55.6445H68.9578V56.4586Z" fill="#1E1E1C"/>
<path d="M75.1595 55.6445H76.0876V61.2725C76.0876 63.1991 74.9262 64.3497 72.9778 64.3497C71.0295 64.3497 69.8789 63.1991 69.8789 61.2725V55.6445H70.8667V61.343C70.8667 62.6998 71.659 63.503 72.9995 63.503C74.34 63.503 75.1595 62.6998 75.1595 61.343V55.6445Z" fill="#1E1E1C"/>
<path d="M82.6057 62.0245H78.5407L77.8298 64.2279H76.8203L79.7347 55.6367H81.4768L84.3803 64.2279H83.3112L82.6002 62.0245H82.6057ZM82.356 61.2104L80.5976 55.729H80.5759L78.8067 61.2104H82.3506H82.356Z" fill="#1E1E1C"/>
<path d="M90.2219 63.3999V64.2357H85.332V55.6445H86.3089V63.3999H90.2219Z" fill="#1E1E1C"/>
<path d="M98.9493 63.4216V64.2357H93.3594V55.6445H98.8245V56.4586H94.3363V59.3947H98.4229V60.2088H94.3363V63.4216H98.9493Z" fill="#1E1E1C"/>
<path d="M106.423 64.2357H105.196L102.89 59.8126H102.868L100.551 64.2357H99.3242L101.815 59.7529L99.601 55.6445H100.735L102.868 59.7203H102.89L105.012 55.6445H106.157L103.932 59.7529L106.423 64.2357Z" fill="#1E1E1C"/>
<path d="M113.146 58.2333C113.146 59.856 112.088 60.8329 110.286 60.8329H108.36V64.2357H107.383V55.6445H110.297C112.088 55.6445 113.141 56.6106 113.141 58.2333H113.146ZM112.137 58.2333C112.137 57.1207 111.48 56.4586 110.357 56.4586H108.36V60.0242H110.346C111.469 60.0242 112.137 59.3513 112.137 58.2387V58.2333Z" fill="#1E1E1C"/>
<path d="M119.934 63.4216V64.2357H114.344V55.6445H119.809V56.4586H115.321V59.3947H119.407V60.2088H115.321V63.4216H119.934Z" fill="#1E1E1C"/>
<path d="M127.428 64.2357H126.327L124.205 60.567H122.207V64.2357H121.23V55.6445H124.259C126.082 55.6445 127.173 56.5292 127.173 58.0108C127.173 59.6009 126.115 60.5398 124.313 60.5398V60.5615C124.888 60.5615 125.507 60.9577 125.909 61.6632L127.423 64.2303L127.428 64.2357ZM124.329 59.7909C125.491 59.7909 126.164 59.1505 126.164 58.0867C126.164 57.023 125.475 56.464 124.329 56.464H122.207V59.7963H124.329V59.7909Z" fill="#1E1E1C"/>
<path d="M128.613 55.6445H129.59V64.2357H128.613V55.6445Z" fill="#1E1E1C"/>
<path d="M137.07 63.4216V64.2357H131.48V55.6445H136.946V56.4586H132.457V59.3947H136.544V60.2088H132.457V63.4216H137.07Z" fill="#1E1E1C"/>
<path d="M144.625 55.6445V64.2357H142.904L139.312 55.7368H139.29L139.322 64.2357H138.367V55.6445H140.109L143.691 64.1434H143.713L143.691 55.6445H144.619H144.625Z" fill="#1E1E1C"/>
<path d="M149.698 64.348C147.403 64.348 146.035 62.709 146.035 59.9357C146.035 57.1624 147.403 55.5234 149.698 55.5234C151.56 55.5234 152.819 56.7066 153.128 58.7037H152.173C151.896 57.2276 150.968 56.3701 149.693 56.3701C148.027 56.3701 147.055 57.6943 147.055 59.9357C147.055 62.1771 148.032 63.5013 149.693 63.5013C150.979 63.5013 151.896 62.6059 152.173 61.0863H153.128C152.819 63.1269 151.544 64.348 149.698 64.348Z" fill="#1E1E1C"/>
<path d="M159.996 63.4216V64.2357H154.406V55.6445H159.871V56.4586H155.383V59.3947H159.47V60.2088H155.383V63.4216H159.996Z" fill="#1E1E1C"/>
</svg>
