<svg width="140" height="45" viewBox="0 0 140 45" fill="none" xmlns="http://www.w3.org/2000/svg">
<g clip-path="url(#clip0_938_2219)">
<path d="M92.9945 0H74.6872C73.9368 0 73.3242 0.608546 73.3242 1.36448V19.6922C73.3242 20.4434 73.9321 21.0567 74.6872 21.0567H92.9945C93.7449 21.0567 94.3575 20.4481 94.3575 19.6922V1.36448C94.3575 0.613301 93.7496 0 92.9945 0ZM88.8629 18.5607H78.8235V2.49124H81.8154V16.1503H88.8629V18.5607Z" fill="#1E1E1C"/>
<path d="M115.819 0H97.5114C96.7611 0 96.1484 0.608546 96.1484 1.36448V19.6922C96.1484 20.4434 96.7563 21.0567 97.5114 21.0567H115.819C116.569 21.0567 117.182 20.4481 117.182 19.6922V1.36448C117.182 0.613301 116.574 0 115.819 0ZM108.159 18.5607H105.167V2.49124H108.159V18.5607Z" fill="#1E1E1C"/>
<path d="M138.643 0H120.336C119.585 0 118.973 0.608546 118.973 1.36448V19.6922C118.973 20.4434 119.581 21.0567 120.336 21.0567H138.643C139.393 21.0567 140.006 20.4481 140.006 19.6922V1.36448C140.006 0.613301 139.398 0 138.643 0ZM129.511 18.7794C125.65 18.7794 123.199 16.6304 122.895 12.9364H125.844C126.039 15.1091 127.407 16.388 129.572 16.388C131.738 16.388 133.044 15.4751 133.044 13.9585C133.044 12.0901 131.135 11.8096 129.031 11.4816C126.386 11.1107 123.327 10.6543 123.327 7.09337C123.327 3.96506 125.626 2.27254 129.511 2.27254C133.044 2.27254 135.347 4.35491 135.646 7.87307H132.673C132.545 5.85251 131.306 4.65918 129.354 4.65918C127.402 4.65918 126.362 5.48643 126.362 6.87467C126.362 8.45785 128.138 8.7431 130.138 9.04737C132.849 9.43723 136.078 9.93642 136.078 13.6495C136.078 16.8634 133.647 18.7746 129.506 18.7746L129.511 18.7794Z" fill="#1E1E1C"/>
<path d="M84.462 34.1836H80.5156V39.0472H84.462C86.0909 39.0472 87.0645 38.1344 87.0645 36.6178C87.0645 35.1012 86.0862 34.1883 84.462 34.1883V34.1836Z" fill="#1E1E1C"/>
<path d="M92.9945 22.8114H74.6872C73.9368 22.8114 73.3242 23.4199 73.3242 24.1759V42.5036C73.3242 43.2548 73.9321 43.8681 74.6872 43.8681H92.9945C93.7449 43.8681 94.3575 43.2595 94.3575 42.5036V24.1711C94.3575 23.4199 93.7496 22.8066 92.9945 22.8066V22.8114ZM84.3086 41.3721H77.5223V25.3026H84.4843C87.3242 25.3026 88.9959 26.6053 88.9959 28.8208C88.9959 30.8604 87.2387 32.1012 84.2896 32.1012V32.144H84.6126C88.1031 32.144 90.1641 33.7938 90.1641 36.6178C90.1641 39.613 87.9938 41.3721 84.3086 41.3721Z" fill="#1E1E1C"/>
<path d="M85.8915 29.8624C85.8915 28.4742 85.0034 27.6279 83.5075 27.6279H80.5156V32.1017H83.5075C85.0034 32.1017 85.8915 31.2554 85.8915 29.8672V29.8624Z" fill="#1E1E1C"/>
<path d="M106.688 27.4756C103.933 27.4756 102.328 29.6673 102.328 33.3376C102.328 37.0079 103.933 39.1996 106.688 39.1996C109.442 39.1996 111.005 37.0079 111.005 33.3376C111.005 29.6673 109.399 27.4756 106.688 27.4756Z" fill="#1E1E1C"/>
<path d="M115.819 22.8114H97.5114C96.7611 22.8114 96.1484 23.4199 96.1484 24.1759V42.5036C96.1484 43.2548 96.7563 43.8681 97.5114 43.8681H115.819C116.569 43.8681 117.182 43.2595 117.182 42.5036V24.1711C117.182 23.4199 116.574 22.8066 115.819 22.8066V22.8114ZM106.686 41.586C102.004 41.586 99.2258 38.5243 99.2258 33.3373C99.2258 28.1504 102.004 25.0887 106.686 25.0887C111.369 25.0887 114.104 28.1504 114.104 33.3373C114.104 38.5243 111.326 41.586 106.686 41.586Z" fill="#1E1E1C"/>
<path d="M138.643 22.8114H120.336C119.585 22.8114 118.973 23.4199 118.973 24.1759V42.5036C118.973 43.2548 119.581 43.8681 120.336 43.8681H138.643C139.393 43.8681 140.006 43.2595 140.006 42.5036V24.1711C140.006 23.4199 139.398 22.8066 138.643 22.8066V22.8114ZM135.917 41.3721H130.973L125.854 25.5641H125.811L125.92 41.3721H123.057V25.3026H128.043L133.163 41.1106H133.205L133.077 25.3026H135.917V41.3673V41.3721Z" fill="#1E1E1C"/>
<path d="M14.6221 17.548V20.5147H0V0H14.3182V2.96666H3.82293V8.51014H13.3494V11.4768H3.82293V17.548H14.6221Z" fill="#1E1E1C"/>
<path d="M34.4542 0L28.6651 20.5147H21.8266L16.0898 0H20.1597L25.3361 20.1819H25.3931L30.6027 0H34.4542Z" fill="#1E1E1C"/>
<path d="M51.7081 17.548V20.5147H37.0859V0H51.4041V2.96666H40.9089V8.51014H50.4353V11.4768H40.9089V17.548H51.7081Z" fill="#1E1E1C"/>
<path d="M68.2155 20.5143H64.0317L60.7359 13.3876H60.6789L57.3546 20.5143H53.1992L56.9652 13.2212L53.6694 6.59375H57.687L60.6789 13.1356H60.7359L63.7277 6.59375H67.7454L64.4496 13.2212L68.2155 20.5143Z" fill="#1E1E1C"/>
<path d="M15.1777 41.1011V44.0678H0V41.239C6.62483 38.9379 10.5095 34.835 10.5095 30.095C10.5095 27.7654 9.3365 26.3248 7.40841 26.3248C5.48033 26.3248 4.10787 28.0174 3.94166 30.8176H0.223202C0.531886 26.0776 3.21506 23.2773 7.51764 23.2773C11.8202 23.2773 14.6744 25.8542 14.6744 30.2091C14.6744 36.1139 9.61669 40.1075 1.03053 41.0488V41.1059H15.1777V41.1011Z" fill="#1E1E1C"/>
<path d="M17.5859 33.8128C17.5859 27.1854 20.5493 23.2773 25.5832 23.2773C30.6171 23.2773 33.6043 27.1854 33.6043 33.8128C33.6043 40.4403 30.6124 44.3483 25.5832 44.3483C20.5541 44.3483 17.5859 40.4403 17.5859 33.8128ZM29.6056 33.8128C29.6056 29.1251 28.1239 26.3248 25.5785 26.3248C23.033 26.3248 21.5513 29.1251 21.5513 33.8128C21.5513 38.5005 23.0615 41.296 25.5785 41.296C28.0954 41.296 29.6056 38.4958 29.6056 33.8128Z" fill="#1E1E1C"/>
<path d="M51.1035 41.1011V44.0678H35.9258V41.239C42.5506 38.9379 46.4353 34.835 46.4353 30.095C46.4353 27.7654 45.2623 26.3248 43.3342 26.3248C41.4061 26.3248 40.0336 28.0174 39.8674 30.8176H36.149C36.4577 26.0776 39.1408 23.2773 43.4434 23.2773C47.746 23.2773 50.6001 25.8542 50.6001 30.2091C50.6001 36.1139 45.5425 40.1075 36.9563 41.0488V41.1059H51.0988L51.1035 41.1011Z" fill="#1E1E1C"/>
<path d="M68.2147 38.1108C68.2147 42.0188 65.3653 44.3484 60.4976 44.3484C56.195 44.3484 53.5071 41.8239 53.2031 37.5308H56.9216C57.0356 39.9127 58.3748 41.3009 60.5546 41.3009C62.8768 41.3009 64.216 40.1361 64.216 38.1108C64.216 36.0855 62.7628 34.8969 60.3313 34.8969H59.7995V32.2345C62.2024 32.0111 63.6271 30.8463 63.6271 29.1015C63.6271 27.3566 62.4826 26.3297 60.4976 26.3297C58.5125 26.3297 57.3965 27.7417 57.254 30.1284H53.621C53.9297 25.8305 56.5844 23.2822 60.8347 23.2822C65.0851 23.2822 67.6258 25.1126 67.6258 27.8558C67.6258 30.599 65.0518 32.2345 60.6923 32.2345V32.2916H60.944C65.4982 32.2916 68.2099 34.4548 68.2099 38.1155L68.2147 38.1108Z" fill="#1E1E1C"/>
</g>
<defs>
<clipPath id="clip0_938_2219">
<rect width="140" height="44.3478" fill="white"/>
</clipPath>
</defs>
</svg>
