<?xml version="1.0" encoding="UTF-8"?><svg id="Camada_2" xmlns="http://www.w3.org/2000/svg" viewBox="0 0 428.47 98.11"><defs><style>.cls-1{fill:#005eb8;}.cls-2{fill:#d5ac00;}.cls-3{fill:#e39700;}.cls-4{fill:#2e7b9e;}.cls-5{fill:#aab317;}.cls-6{fill:#f29100;}.cls-7{fill:#67ac2f;}.cls-8{fill:#2ca366;}</style></defs><g id="Camada_1-2"><g><g><path class="cls-1" d="M93.43,68.23c-.37,0-.75-.06-1.12-.2L4.96,36.24c-1.7-.62-2.58-2.5-1.96-4.2,.62-1.7,2.5-2.58,4.2-1.96l87.35,31.79c1.7,.62,2.58,2.5,1.96,4.2-.48,1.33-1.74,2.16-3.08,2.16Z"/><path class="cls-4" d="M96.24,52.33H3.28c-1.81,0-3.28-1.47-3.28-3.28s1.47-3.28,3.28-3.28H96.24c1.81,0,3.28,1.47,3.28,3.28s-1.47,3.28-3.28,3.28Z"/><path class="cls-8" d="M6.08,68.23c-1.34,0-2.6-.83-3.08-2.16-.62-1.7,.26-3.58,1.96-4.2L92.31,30.07c1.7-.62,3.58,.26,4.2,1.96,.62,1.7-.26,3.58-1.96,4.2L7.2,68.03c-.37,.13-.75,.2-1.12,.2Z"/><path class="cls-7" d="M14.15,82.21c-.94,0-1.87-.4-2.51-1.17-1.16-1.39-.98-3.46,.4-4.62L83.25,16.67c1.39-1.16,3.46-.98,4.62,.4,1.16,1.39,.98,3.46-.4,4.62L16.26,81.44c-.61,.52-1.36,.77-2.11,.77Z"/><path class="cls-5" d="M26.52,92.58c-.56,0-1.12-.14-1.64-.44-1.57-.91-2.11-2.91-1.2-4.48L70.16,7.16c.91-1.57,2.91-2.11,4.48-1.2,1.57,.91,2.11,2.91,1.2,4.48L29.36,90.94c-.61,1.05-1.71,1.64-2.84,1.64Z"/><path class="cls-2" d="M41.69,98.11c-.19,0-.38-.02-.57-.05-1.78-.31-2.97-2.02-2.66-3.8L54.6,2.71c.31-1.78,2.02-2.98,3.8-2.66,1.78,.31,2.97,2.02,2.66,3.8l-16.14,91.54c-.28,1.59-1.66,2.71-3.23,2.71Z"/><path class="cls-3" d="M57.82,98.11c-1.56,0-2.94-1.12-3.23-2.71L38.46,3.85c-.31-1.78,.88-3.48,2.66-3.8,1.78-.32,3.48,.88,3.8,2.66l16.14,91.54c.31,1.78-.88,3.48-2.66,3.8-.19,.03-.38,.05-.57,.05Z"/><path class="cls-6" d="M73,92.58c-1.13,0-2.24-.59-2.84-1.64L23.68,10.44c-.91-1.57-.37-3.57,1.2-4.48,1.57-.91,3.57-.37,4.48,1.2l46.48,80.5c.91,1.57,.37,3.57-1.2,4.48-.52,.3-1.08,.44-1.64,.44Z"/></g><g><path class="cls-1" d="M121.72,18.95h6.44c3,0,5.49,.2,6.76,2.28,.84,1.33,.69,2.83,.46,3.9-.52,2.43-1.96,4.48-3.84,5.55-1.73,.98-3.84,.98-4.94,.98h-3.03l-1.73,8.12h-4.54l4.42-20.83Zm2.43,9.39h1.79c1.44,0,4.13,0,4.82-3.18,.58-2.83-1.82-2.83-3.09-2.83h-2.25l-1.27,6.01Z"/><path class="cls-1" d="M143.85,24.85c5.29,0,6.82,3.58,5.95,7.65-.9,4.1-4.04,7.8-9.33,7.8-4.16,0-6.9-2.57-5.81-7.68,.75-3.52,3.44-7.77,9.19-7.77Zm-2.6,12.48c1.88,0,3.38-1.13,4.22-5,.4-1.94,.61-4.62-2.22-4.62-3.12,0-3.93,3.61-4.19,4.94-.72,3.26,.09,4.68,2.19,4.68Z"/><path class="cls-1" d="M155.9,18.9h4.27l-4.45,20.88h-4.27l4.45-20.88Z"/><path class="cls-1" d="M169.53,24.85c5.29,0,6.82,3.58,5.95,7.65-.9,4.1-4.04,7.8-9.33,7.8-4.16,0-6.9-2.57-5.81-7.68,.75-3.52,3.44-7.77,9.19-7.77Zm-2.6,12.48c1.88,0,3.38-1.13,4.22-5,.4-1.94,.61-4.62-2.22-4.62-3.12,0-3.93,3.61-4.19,4.94-.72,3.26,.09,4.68,2.19,4.68Z"/><path class="cls-1" d="M191.72,33.14c-.14,.84-.61,3.23,2.83,3.23,.49,0,3.09,0,3.61-2.37,.2-.98-.06-1.65-1.39-2.02l-4.82-1.33c-1.36-.38-4.88-1.36-3.96-5.72,.72-3.38,3.93-6.53,10.17-6.53,8.15,0,7.57,4.42,7.11,6.64h-5.86c.14-.64,.66-2.89-2.11-2.89-1.68,0-2.95,.95-3.21,2.2-.35,1.53,.84,1.91,1.65,2.14l3.67,1.01c2.63,.72,5.75,1.59,4.79,6.01-.98,4.65-5.4,6.73-10.63,6.73-2.17,0-5.6-.35-7.05-2.48-1.18-1.68-.78-3.73-.61-4.62h5.81Z"/><path class="cls-1" d="M210.55,18.98h15.66l-.84,3.99h-9.94l-.92,4.33h9.36l-.87,3.99h-9.36l-.92,4.45h10.17l-.87,4.04h-15.89l4.42-20.8Z"/><path class="cls-1" d="M229.59,18.93h8.35c2.63,0,5.31,0,6.87,1.7,.52,.61,1.21,1.73,.84,3.58-.81,3.7-4.36,4.48-5.46,4.74l-.03,.06c1.27,.23,4.85,.9,3.93,5.17-.35,1.62-1.36,3.52-3.9,4.74-1.82,.87-3.93,.87-5.81,.87h-9.21l4.42-20.85Zm2.02,17.04h3.21c.66,0,2.98,0,3.5-2.43,.52-2.51-1.85-2.51-2.63-2.51h-3.03l-1.04,4.94Zm1.82-8.64h2.72c.92,0,1.53,0,2.08-.26,.72-.38,1.33-1.13,1.5-2.02,.14-.64,.09-1.39-.4-1.85-.52-.49-1.16-.49-1.76-.49h-3.15l-.98,4.62Z"/><path class="cls-1" d="M250.56,18.93h9.65c3.76,0,5.14,.23,6.09,1.5,.52,.64,1.07,1.79,.61,4.04-.49,2.28-1.62,3.26-2.74,3.87-1.5,.84-2.8,.98-3.41,1.07l-.03,.12c4.04,.12,3.87,1.91,3.67,5.11-.12,1.42-.29,3.67-.12,5.14h-6.27c-.09-1.27,.12-2.86,.32-4.71,.26-2.51,.38-3.44-2.22-3.44h-2.43l-1.73,8.15h-5.81l4.42-20.85Zm3.93,8.95h2.17c1.27,0,1.91,0,2.43-.17,1.36-.4,1.88-1.7,2.02-2.37,.55-2.57-1.7-2.57-3.38-2.57h-2.17l-1.07,5.11Z"/><path class="cls-1" d="M278,18.93h7.05l3.81,20.85h-6.53l-.55-4.19h-8.35l-2.31,4.19h-5.78l12.65-20.85Zm3.26,12.83l-.84-8.75h-.09l-4.74,8.75h5.66Z"/><path class="cls-1" d="M295.6,18.98h15.66l-.84,3.99h-9.94l-.92,4.33h9.36l-.87,3.99h-9.36l-.92,4.45h10.17l-.87,4.04h-15.89l4.42-20.8Z"/><path class="cls-1" d="M332.43,18.93h4.3l-3.93,18.49c-.17,.87-.32,1.82-.38,2.37h-4.33l.35-2.11c-.4,.52-.81,1.07-1.85,1.65-1.21,.69-2.34,.75-2.98,.75-3.9,0-5.63-2.69-4.68-7.25,1.04-4.82,4.3-7.83,8.12-7.83,2.63,0,3.41,1.47,3.67,1.99l1.7-8.06Zm-7.16,18.37c1.24,0,2.43-.75,3.06-1.65,.9-1.21,1.27-2.72,1.44-3.44,.61-2.86-.32-4.42-2.25-4.42-2.86,0-3.9,3.44-4.22,4.91-.52,2.43-.17,4.59,1.96,4.59Z"/><path class="cls-1" d="M340.78,33.57c-.2,.95-.84,3.9,2.14,3.9,1.07,0,2.22-.4,2.98-2.02h3.9c-.2,.69-.61,1.94-2.05,3.18-1.33,1.13-3.35,1.7-5.49,1.7-1.24,0-3.55-.23-4.77-1.82-1.01-1.39-1.16-3.35-.66-5.69,.52-2.37,1.68-5.2,4.51-6.9,1.3-.75,2.77-1.21,4.36-1.21,2.08,0,4.39,.81,5.14,3.52,.55,1.99,.06,4.13-.26,5.34h-9.79Zm5.98-2.69c.14-.66,.64-3.26-1.85-3.26-1.88,0-2.98,1.56-3.44,3.26h5.29Z"/><path class="cls-1" d="M121.84,53.65h15.66l-.84,3.99h-9.94l-.92,4.33h9.36l-.87,3.99h-9.36l-.92,4.45h10.17l-.87,4.04h-15.89l4.42-20.8Z"/><path class="cls-1" d="M138.97,63.04l.52-3.09h5.43l-.43,2.22c.9-1.1,2.37-2.54,5.37-2.54,5.31,0,4.45,4.04,4.04,6.04l-1.88,8.78h-5.43l1.76-8.32c.23-1.01,.66-3.06-1.56-3.06-2.43,0-2.98,2.54-3.09,3.06l-1.76,8.32h-5.4l2.43-11.41Z"/><path class="cls-1" d="M161.36,68.29c-.14,.78-.75,3.52,2.02,3.52,1.44,0,2.51-.75,2.95-2.11h5.05c-1.18,3.64-4.88,5.05-8.64,5.05-5.06,0-7.25-2.54-6.21-7.34,1.01-4.85,4.07-8,9.42-8,4.04,0,5.55,1.65,6.09,3.7,.38,1.24,.26,2.63-.29,5.17h-10.4Zm5.92-2.95c.12-.84,.4-3.03-1.96-3.03s-3.06,2.34-3.26,3.03h5.23Z"/><path class="cls-1" d="M175.97,63.04l.52-3.09h5.29l-.55,3c1.91-3.24,4.54-3.15,5.78-3.12l-1.01,4.65c-.61-.06-.75-.09-1.13-.09-3.32,0-4.27,2.34-4.62,3.9l-1.3,6.15h-5.4l2.43-11.41Z"/><path class="cls-1" d="M205,59.86l-2.86,13.52c-.38,1.73-1.16,3.78-3.41,5.17-1.44,.9-3.35,1.62-6.33,1.62-1.65,0-4.33-.23-5.69-1.7-1.01-1.13-.75-2.48-.64-3.23h5.11c-.09,.55,0,1.01,.35,1.33,.32,.32,.87,.52,1.65,.52,2.72,0,3.29-1.96,3.64-3.52l.4-1.91c-1.96,2.2-4.36,2.34-5.2,2.34-3.06,0-6.04-1.91-4.91-7.19,.84-3.93,3.61-7.19,8.03-7.19,2.8,0,3.81,1.3,4.27,2.46l.46-2.2h5.11Zm-8.58,2.77c-1.82,0-3.15,1.68-3.67,4.1-.35,1.53-.52,4.04,1.88,4.04,2.6,0,3.35-3.06,3.55-4.1,.17-.75,.87-4.04-1.76-4.04Z"/><path class="cls-1" d="M208.79,59.95h5.43l-3.09,14.5h-5.43l3.09-14.5Zm1.27-6.3h5.55l-.81,3.87h-5.55l.81-3.87Z"/><path class="cls-1" d="M224.3,74.45c0-.52,.09-1.16,.26-2.08-.87,.98-2.28,2.37-5.26,2.37-3.55,0-4.71-1.94-4.16-4.51,.84-3.96,4.82-5.4,11-5.14,.35-1.56,.46-3-1.18-3-1.01,0-2.08,.55-2.4,2.2h-5.2c.17-.66,.43-1.91,1.76-3.03,1.39-1.16,3.78-1.82,6.41-1.82,1.3,0,4.02,.17,5.23,1.68,.75,.9,.81,2.25,.46,3.81l-1.44,6.76c-.2,1.04-.23,1.33-.29,2.77h-5.2Zm-3.7-4.71c-.23,1.07,.26,1.96,1.56,1.96,.58,0,1.65-.23,2.43-1.39,.64-.92,.9-2.11,.98-2.71-2.31,.03-4.53,.06-4.97,2.14Z"/><path class="cls-1" d="M238.2,69.74c-.06,.26-.17,.81-.06,1.3,.12,.46,.46,.9,1.39,.9,1.24,0,1.85-.84,1.96-1.47,.23-1.01-.55-1.3-1.7-1.62l-2.77-.84c-.84-.23-3.32-.95-2.69-3.93,.32-1.44,1.36-2.66,2.46-3.29,1.44-.9,3.26-1.24,5.4-1.24,3.12,0,6.21,.84,5.57,4.88h-5.14c.09-.43,.2-.98,.09-1.42-.12-.46-.46-.78-1.33-.78s-1.7,.38-1.88,1.27c-.2,.84,.35,1.16,1.16,1.39l3.64,1.07c1.33,.38,3.18,1.16,2.57,3.99-1.04,4.91-6.73,4.91-8,4.91-2.95,0-7.11-.43-6.04-5.11h5.37Z"/><path class="cls-1" d="M262.95,53.59h9.65c3.76,0,5.14,.23,6.09,1.5,.52,.64,1.07,1.79,.61,4.04-.49,2.28-1.62,3.26-2.74,3.87-1.5,.84-2.8,.98-3.41,1.07l-.03,.12c4.04,.12,3.87,1.91,3.67,5.11-.12,1.42-.29,3.67-.12,5.14h-6.27c-.09-1.27,.12-2.86,.32-4.71,.26-2.51,.38-3.44-2.22-3.44h-2.43l-1.73,8.15h-5.81l4.42-20.85Zm3.93,8.95h2.17c1.27,0,1.91,0,2.43-.17,1.36-.4,1.88-1.7,2.02-2.37,.55-2.57-1.7-2.57-3.38-2.57h-2.17l-1.07,5.11Z"/><path class="cls-1" d="M284.91,68.29c-.14,.78-.75,3.52,2.02,3.52,1.44,0,2.51-.75,2.95-2.11h5.05c-1.18,3.64-4.88,5.05-8.64,5.05-5.05,0-7.25-2.54-6.21-7.34,1.01-4.85,4.07-8,9.42-8,4.04,0,5.55,1.65,6.09,3.7,.38,1.24,.26,2.63-.29,5.17h-10.4Zm5.92-2.95c.12-.84,.4-3.03-1.96-3.03s-3.06,2.34-3.26,3.03h5.23Z"/><path class="cls-1" d="M299.44,63.04l.52-3.09h5.43l-.43,2.22c.9-1.1,2.37-2.54,5.37-2.54,5.31,0,4.45,4.04,4.04,6.04l-1.88,8.78h-5.43l1.76-8.32c.23-1.01,.66-3.06-1.56-3.06-2.43,0-2.98,2.54-3.09,3.06l-1.76,8.32h-5.4l2.43-11.41Z"/><path class="cls-1" d="M327.2,59.45c4.71,0,7.89,2.37,6.79,7.51-.43,2.11-1.5,4.25-3.32,5.75-1.47,1.18-3.47,2.08-6.44,2.08-3.21,0-5.11-.78-6.24-2.14-1.33-1.59-1.27-3.75-.9-5.52,.95-4.45,4.36-7.68,10.11-7.68Zm-4.53,11.15c.4,1.1,1.39,1.16,1.88,1.16,2.37,0,3.38-2.57,3.81-4.59,.52-2.51,.38-4.62-1.79-4.62-2.4,0-3.38,2.46-3.84,4.62-.2,.95-.43,2.37-.06,3.44Z"/><path class="cls-1" d="M336.47,59.95h5.83l.72,10.17,5.26-10.17h5.11l-8.58,14.5h-5.92l-2.43-14.5Z"/><path class="cls-1" d="M361.17,74.45c0-.52,.09-1.16,.26-2.08-.87,.98-2.28,2.37-5.26,2.37-3.55,0-4.71-1.94-4.16-4.51,.84-3.96,4.82-5.4,11-5.14,.35-1.56,.46-3-1.18-3-1.01,0-2.08,.55-2.4,2.2h-5.2c.17-.66,.43-1.91,1.76-3.03,1.39-1.16,3.78-1.82,6.41-1.82,1.3,0,4.02,.17,5.23,1.68,.75,.9,.81,2.25,.46,3.81l-1.44,6.76c-.2,1.04-.23,1.33-.29,2.77h-5.2Zm-3.7-4.71c-.23,1.07,.26,1.96,1.56,1.96,.58,0,1.65-.23,2.43-1.39,.64-.92,.9-2.11,.98-2.71-2.31,.03-4.53,.06-4.97,2.14Zm5.4-12.07h-3.81l4.1-4.19h5.89l-6.18,4.19Z"/><path class="cls-1" d="M370.62,59.95h5.83l.72,10.17,5.26-10.17h5.11l-8.58,14.5h-5.92l-2.43-14.5Z"/><path class="cls-1" d="M391.73,68.29c-.14,.78-.75,3.52,2.02,3.52,1.44,0,2.51-.75,2.95-2.11h5.05c-1.18,3.64-4.88,5.05-8.64,5.05-5.05,0-7.25-2.54-6.21-7.34,1.01-4.85,4.07-8,9.42-8,4.04,0,5.55,1.65,6.09,3.7,.38,1.24,.26,2.63-.29,5.17h-10.4Zm5.92-2.95c.12-.84,.4-3.03-1.96-3.03s-3.06,2.34-3.26,3.03h5.23Z"/><path class="cls-1" d="M407.07,59.95h5.43l-3.09,14.5h-5.43l3.09-14.5Zm1.27-6.3h5.55l-.81,3.87h-5.55l.81-3.87Z"/><path class="cls-1" d="M418.83,69.74c-.06,.26-.17,.81-.06,1.3,.12,.46,.46,.9,1.39,.9,1.24,0,1.85-.84,1.96-1.47,.23-1.01-.55-1.3-1.7-1.62l-2.77-.84c-.84-.23-3.32-.95-2.69-3.93,.32-1.44,1.36-2.66,2.46-3.29,1.44-.9,3.26-1.24,5.4-1.24,3.12,0,6.21,.84,5.57,4.88h-5.14c.09-.43,.2-.98,.09-1.42-.12-.46-.46-.78-1.33-.78s-1.7,.38-1.88,1.27c-.2,.84,.35,1.16,1.16,1.39l3.64,1.07c1.33,.38,3.18,1.16,2.57,3.99-1.04,4.91-6.73,4.91-8,4.91-2.95,0-7.11-.43-6.04-5.11h5.37Z"/></g></g></g></svg>