<svg width="398" height="262" viewBox="0 0 398 262" fill="none" xmlns="http://www.w3.org/2000/svg">
<path d="M43.0698 88.9148C23.7355 103.732 5.20222 97.8636 1.59752 75.8584C-1.97077 53.8531 10.8095 23.9993 30.1438 9.18247C49.4417 -5.6344 68.0114 0.233671 71.5797 22.2389C75.148 44.2442 62.3677 74.098 43.0698 88.9148Z" stroke="#686868" stroke-width="0.5" stroke-miterlimit="10"/>
<path d="M367.893 252.817C348.559 267.634 330.025 261.766 326.457 239.761C322.889 217.755 335.669 187.902 354.967 173.085C374.301 158.268 392.834 164.136 396.403 186.141C399.971 208.147 387.191 238 367.893 252.817Z" stroke="#686868" stroke-width="0.5" stroke-miterlimit="10"/>
<mask id="mask0_915_887" style="mask-type:luminance" maskUnits="userSpaceOnUse" x="1" y="1" width="384" height="258">
<path d="M30.1427 9.18252C41.0297 0.857203 51.6617 -0.939892 59.5265 3.02105L384.35 166.923C376.485 162.963 365.853 164.76 354.966 173.085C335.632 187.902 322.888 217.719 326.456 239.761C328.022 249.37 332.428 255.898 338.509 258.979L13.6849 95.0763C7.60424 91.9956 3.16208 85.4674 1.63281 75.8584" fill="white"/>
</mask>
<g mask="url(#mask0_915_887)">
<path d="M326.536 239.76V239.907L326.426 239.834L1.56641 75.8948M30.1127 9.14551H30.1491L355.118 173.085L355.046 173.158" stroke="#686868" stroke-width="0.5" stroke-miterlimit="10"/>
<path d="M3.13281 52.166L327.993 215.922" stroke="#686868" stroke-width="0.5" stroke-miterlimit="10"/>
<path d="M13.3984 28.1074L338.222 192.01" stroke="#686868" stroke-width="0.5" stroke-miterlimit="10"/>
</g>
<path d="M30.1427 9.18252C41.0297 0.857203 51.6617 -0.939892 59.5265 3.02105L384.35 166.923C376.485 162.963 365.853 164.76 354.966 173.085C335.632 187.902 322.888 217.719 326.456 239.761C328.022 249.37 332.428 255.898 338.509 258.979L13.6849 95.0763C7.60424 91.9956 3.16208 85.4674 1.63281 75.8584" stroke="#686868" stroke-width="0.5" stroke-miterlimit="10"/>
</svg>
