<svg width="614" height="294" viewBox="0 0 614 294" fill="none" xmlns="http://www.w3.org/2000/svg">
<path d="M195.38 140.48C195.38 110.182 170.805 85.6473 140.529 85.6473C110.252 85.6473 85.6771 110.214 85.6771 140.48H1C1 63.431 63.453 1 140.529 1C217.605 1 280.058 63.431 280.058 140.48" stroke="#686868" stroke-width="0.5" stroke-miterlimit="10"/>
<path d="M85.6771 268.883C85.6771 238.585 110.252 214.051 140.529 214.051C170.805 214.051 195.38 238.617 195.38 268.883H280.058C280.058 191.866 217.605 129.403 140.529 129.403C63.453 129.403 1 191.834 1 268.883" stroke="#686868" stroke-width="0.5" stroke-miterlimit="10"/>
<path d="M613.001 268.884H280.059V293H613.001V268.884Z" stroke="#686868" stroke-width="0.5" stroke-miterlimit="10"/>
</svg>
