<svg width="616" height="615" viewBox="0 0 616 615" fill="none" xmlns="http://www.w3.org/2000/svg">
<path d="M522.97 522.97C641.89 404.05 641.89 211.243 522.97 92.323C404.051 -26.5969 211.243 -26.5969 92.3235 92.323C-26.5964 211.243 -26.5964 404.05 92.3235 522.97C211.243 641.89 404.051 641.89 522.97 522.97Z" stroke="#686868" stroke-width="0.5" stroke-miterlimit="10"/>
<path d="M604.369 368.674C638.068 232.707 555.163 95.1645 419.195 61.4655C283.227 27.7665 145.685 110.672 111.986 246.64C78.2872 382.607 161.192 520.149 297.16 553.849C433.128 587.548 570.67 504.642 604.369 368.674Z" stroke="#686868" stroke-width="0.5" stroke-miterlimit="10"/>
<path d="M605.588 355.998C632.281 247.241 565.755 137.436 456.997 110.743C348.24 84.0499 238.436 150.576 211.743 259.333C185.049 368.091 251.575 477.895 360.333 504.588C469.09 531.281 578.894 464.755 605.588 355.998Z" stroke="#686868" stroke-width="0.5" stroke-miterlimit="10"/>
<path d="M606.781 343.541C626.592 262.026 576.571 179.884 495.055 160.073C413.539 140.261 331.397 190.283 311.586 271.799C291.775 353.315 341.797 435.457 423.312 455.268C504.828 475.079 586.97 425.057 606.781 343.541Z" stroke="#686868" stroke-width="0.5" stroke-miterlimit="10"/>
<path d="M608.078 330.45C620.667 276.097 586.809 221.83 532.456 209.241C478.102 196.653 423.835 230.51 411.247 284.863C398.658 339.217 432.515 393.484 486.869 406.073C541.223 418.661 595.49 384.804 608.078 330.45Z" stroke="#686868" stroke-width="0.5" stroke-miterlimit="10"/>
</svg>
