<svg width="340" height="249" viewBox="0 0 340 249" fill="none" xmlns="http://www.w3.org/2000/svg">
<path d="M292.883 80.6572C309.453 91.3068 324.087 85.4193 325.558 67.508C327.044 49.6221 314.83 26.4894 298.26 15.8398C281.706 5.2155 267.082 11.0626 265.586 28.9889C264.1 46.8748 276.314 70.0076 292.883 80.6572Z" stroke="#686868" stroke-width="0.5" stroke-miterlimit="10"/>
<path d="M40.8014 233.04C57.3713 243.69 72.0049 237.802 73.4759 219.891C74.962 202.005 62.7483 178.872 46.1784 168.223C29.6236 157.598 15.0003 163.445 13.5039 181.372C12.0178 199.258 24.2315 222.39 40.8014 233.04Z" stroke="#686868" stroke-width="0.5" stroke-miterlimit="10"/>
<mask id="mask0_915_983" style="mask-type:luminance" maskUnits="userSpaceOnUse" x="22" y="10" width="304" height="227">
<path d="M298.263 15.8426C288.93 9.85305 280.23 9.08561 274.121 12.7883L22.0366 165.166C28.1209 161.479 36.8461 162.231 46.179 168.221C62.7489 178.87 74.9626 202.003 73.4765 219.889C72.8289 227.693 69.6588 233.22 64.9445 236.092L317.029 83.7142C321.758 80.8669 324.913 75.315 325.561 67.5108" fill="white"/>
</mask>
<g mask="url(#mask0_915_983)">
<path d="M73.4028 219.89L73.3973 219.997L73.4988 219.936L325.608 67.5431M298.306 15.809L298.291 15.7836L298.24 15.8138L46.0799 168.237L46.1252 168.313" stroke="#686868" stroke-width="0.5" stroke-miterlimit="10"/>
<path d="M322.825 48.595L70.7058 200.857" stroke="#686868" stroke-width="0.5" stroke-miterlimit="10"/>
<path d="M313.003 29.9467L60.9187 182.325" stroke="#686868" stroke-width="0.5" stroke-miterlimit="10"/>
</g>
<path d="M298.263 15.8426C288.93 9.85305 280.23 9.08561 274.121 12.7883L22.0365 165.166C28.1209 161.479 36.8461 162.231 46.179 168.221C62.7489 178.87 74.9626 202.003 73.4765 219.889C72.829 227.693 69.6588 233.22 64.9445 236.092L317.029 83.7142C321.758 80.8669 324.913 75.315 325.561 67.5108" stroke="#686868" stroke-width="0.5" stroke-miterlimit="10"/>
</svg>
