<svg width="521" height="17" viewBox="0 0 521 17" fill="none" xmlns="http://www.w3.org/2000/svg">
<path d="M521 8.46582L23.4357 8.46578" stroke="#686868" stroke-width="0.5" stroke-miterlimit="10"/>
<path d="M38.3901 0.999943C42.521 0.999943 45.875 4.35393 45.875 8.48484C45.875 12.6157 42.521 15.9697 38.3901 15.9697C34.2592 15.9697 30.9052 12.6157 30.9052 8.48483C30.9052 4.35393 34.2592 0.999942 38.3901 0.999943Z" stroke="#686868" stroke-width="0.5" stroke-miterlimit="10"/>
<path d="M23.437 0.999943C27.5679 0.999943 30.9219 4.35393 30.9219 8.48484C30.9219 12.6157 27.5679 15.9697 23.437 15.9697C19.3061 15.9697 15.9521 12.6157 15.9521 8.48483C15.9521 4.35393 19.3061 0.999942 23.437 0.999943Z" stroke="#686868" stroke-width="0.5" stroke-miterlimit="10"/>
<path d="M8.48385 0.999943C12.6147 0.999943 15.9688 4.35393 15.9688 8.48484C15.9688 12.6157 12.6147 15.9697 8.48385 15.9697C4.35295 15.9697 0.998947 12.6157 0.998948 8.48483C0.998948 4.35393 4.35295 0.999942 8.48385 0.999943Z" stroke="#686868" stroke-width="0.5" stroke-miterlimit="10"/>
</svg>
