<svg width="642" height="639" viewBox="0 0 642 639" fill="none" xmlns="http://www.w3.org/2000/svg">
<mask id="mask0_915_886" style="mask-type:luminance" maskUnits="userSpaceOnUse" x="76" y="77" width="491" height="483">
<path d="M507.831 404.012C505.555 397.538 502.166 389.04 499.182 382.87C496.198 376.648 492.405 368.303 489.218 362.183C485.981 355.961 481.429 347.767 477.888 341.698C458.719 309.074 436.919 283.228 436.919 283.228C432.215 277.715 426.145 270.178 421.189 264.969C416.232 259.708 409.707 252.577 404.598 247.418C399.49 242.258 392.662 235.43 387.199 230.676C381.787 225.921 374.655 219.447 369.092 214.794C363.578 210.191 356.093 204.223 350.377 199.873C332.523 186.317 320.384 178.731 311.482 173.217C305.614 169.576 297.572 164.973 291.503 161.635C285.484 158.347 277.29 154.402 271.22 151.266C265.201 148.18 256.856 144.691 250.634 142.162C238.698 137.356 222.36 132.197 210.019 128.556C203.949 126.735 195.705 124.914 189.433 123.902C180.379 122.436 168.24 120.564 159.085 120.058C149.425 119.552 136.476 119.552 126.917 120.564C118.318 121.424 106.988 123.599 98.6933 126.027C86.3519 129.668 79.0684 133.968 76.6406 135.384C76.6406 135.384 76.6912 135.384 76.7418 135.333C78.6132 133.968 81.1422 131.944 81.1422 131.894C84.2781 129.264 84.7839 128.809 88.1728 125.774C92.0168 122.334 96.2655 118.035 98.7945 115.456C126.36 87.131 169.049 73.0699 223.119 78.8865C352.249 92.8465 498.424 215.047 548.953 351.359C578.339 430.566 569.033 497.382 530.744 536.682C522.398 545.281 515.317 553.576 511.321 559.493C512.535 557.622 515.418 551.856 517.644 545.483C519.465 540.273 521.286 533.142 522.499 527.73C524.573 518.676 525.838 502.642 525.686 496.269C525.433 485.799 524.32 471.89 523.106 461.521C522.449 455.907 520.628 448.573 519.566 443.009C517.239 430.971 511.878 415.493 507.831 403.961V404.012Z" fill="white"/>
</mask>
<g mask="url(#mask0_915_886)">
<path d="M359.849 636.778C357.522 630.557 378.412 602.131 406.483 573.301C535.613 587.261 599.545 487.72 549.016 351.408C520.945 380.239 502.989 404.112 508.907 404.77C561.762 547.303 494.947 651.345 359.899 636.778H359.849Z" stroke="#686868" stroke-width="0.5" stroke-miterlimit="10"/>
<path d="M364.719 623.927C496.782 638.191 562.131 536.425 510.438 397.027" stroke="#686868" stroke-width="0.5" stroke-miterlimit="10"/>
<path d="M381.398 601.169C511.337 615.18 575.674 515.032 524.791 377.911" stroke="#686868" stroke-width="0.5" stroke-miterlimit="10"/>
<path d="M523.716 531.474C517.444 527.782 535.147 501.379 563.219 472.549" stroke="#686868" stroke-width="0.5" stroke-miterlimit="10"/>
<path d="M508.891 404.716C502.973 404.059 520.929 380.185 549.001 351.355C498.472 215.043 352.297 92.8428 223.167 78.8828C195.096 107.713 170.463 126.023 168.137 119.802C303.184 134.419 455.985 262.183 508.891 404.716Z" stroke="#686868" stroke-width="0.5" stroke-miterlimit="10"/>
<path d="M510.398 397.026C458.705 257.628 309.243 132.646 177.18 118.383" stroke="#686868" stroke-width="0.5" stroke-miterlimit="10"/>
<path d="M524.822 377.86C473.939 240.688 326.904 117.729 196.965 103.719" stroke="#686868" stroke-width="0.5" stroke-miterlimit="10"/>
<path d="M427.056 270.732C423.111 273.311 442.685 252.068 470.757 223.237" stroke="#686868" stroke-width="0.5" stroke-miterlimit="10"/>
<path d="M304.756 168.511C303.745 173.569 325.747 154.298 353.818 125.468" stroke="#686868" stroke-width="0.5" stroke-miterlimit="10"/>
<path d="M168.146 119.801C170.472 126.022 195.105 107.713 223.176 78.8822C94.0466 64.9728 30.1141 164.513 80.6431 300.775C52.5714 329.605 25.0055 352.467 19.0877 351.81C-33.7679 209.276 33.0982 105.234 168.146 119.801Z" stroke="#686868" stroke-width="0.5" stroke-miterlimit="10"/>
<path d="M177.208 118.384C45.1447 104.12 -20.2041 205.886 31.4376 345.284" stroke="#686868" stroke-width="0.5" stroke-miterlimit="10"/>
<path d="M196.916 103.718C66.9773 89.7077 2.64012 189.855 53.5232 326.976" stroke="#686868" stroke-width="0.5" stroke-miterlimit="10"/>
<path d="M507.827 404.014C505.551 397.54 502.163 389.042 499.178 382.872C496.194 376.65 492.401 368.305 489.214 362.185C485.977 355.963 481.425 347.769 477.884 341.7C458.715 309.076 436.915 283.23 436.915 283.23C432.211 277.717 426.141 270.18 421.185 264.971C416.228 259.71 409.703 252.579 404.595 247.42C399.486 242.26 392.658 235.432 387.195 230.678C381.783 225.923 374.651 219.449 369.088 214.796C363.575 210.193 356.089 204.225 350.373 199.875C332.519 186.319 320.38 178.732 311.478 173.219C305.61 169.578 297.568 164.975 291.499 161.637C285.48 158.349 277.286 154.404 271.216 151.268C265.197 148.182 256.852 144.692 250.63 142.163C238.694 137.358 222.356 132.199 210.015 128.558C203.945 126.737 195.701 124.916 189.429 123.904C180.375 122.437 168.236 120.566 159.081 120.06C149.421 119.554 136.472 119.554 126.913 120.566C118.314 121.426 106.984 123.601 98.6894 126.029C86.348 129.67 79.0645 133.97 76.6367 135.386C76.6367 135.386 76.6873 135.386 76.7379 135.335C78.6093 133.97 81.1383 131.946 81.1383 131.896C84.2742 129.266 84.78 128.81 88.1689 125.776C92.0129 122.336 96.2616 118.037 98.7906 115.457C126.356 87.1329 169.046 73.0718 223.115 78.8885C352.245 92.8484 498.42 215.049 548.949 351.361C578.335 430.568 569.029 497.384 530.74 536.684C522.394 545.283 515.313 553.578 511.317 559.495C512.531 557.624 515.414 551.858 517.64 545.485C519.461 540.275 521.282 533.143 522.496 527.731C524.569 518.678 525.834 502.644 525.682 496.271C525.429 485.801 524.316 471.892 523.102 461.523C522.445 455.908 520.624 448.574 519.562 443.011C517.235 430.973 511.874 415.495 507.827 403.963V404.014Z" stroke="#686868" stroke-width="0.5" stroke-miterlimit="10"/>
</g>
<path d="M19.0859 351.862C25.0037 352.519 52.5696 329.657 80.6413 300.827C131.17 437.139 277.345 559.339 406.475 573.299C378.403 602.13 357.514 630.555 359.84 636.777C224.793 622.159 71.9922 494.395 19.0859 351.862Z" stroke="#686868" stroke-width="0.5" stroke-miterlimit="10"/>
<path d="M31.4297 345.286C83.122 484.683 232.585 609.665 364.648 623.929" stroke="#686868" stroke-width="0.5" stroke-miterlimit="10"/>
<path d="M53.5195 326.976C104.403 464.147 251.437 587.106 381.376 601.117" stroke="#686868" stroke-width="0.5" stroke-miterlimit="10"/>
<path d="M100.914 485.798C104.859 483.218 130.807 457.726 158.878 428.896" stroke="#686868" stroke-width="0.5" stroke-miterlimit="10"/>
<path d="M223.223 588.07C224.234 583.012 247.754 555.547 275.825 526.717" stroke="#686868" stroke-width="0.5" stroke-miterlimit="10"/>
<path d="M359.861 636.781C357.534 630.56 378.423 602.134 406.495 573.304C535.625 587.264 599.557 487.723 549.028 351.411C520.956 380.241 503.001 404.115 508.919 404.773C561.774 547.306 494.959 651.348 359.911 636.781H359.861Z" stroke="#686868" stroke-width="0.5" stroke-miterlimit="10"/>
<path d="M364.715 623.93C496.778 638.194 562.127 536.428 510.435 397.03" stroke="#686868" stroke-width="0.5" stroke-miterlimit="10"/>
<path d="M381.41 601.172C511.349 615.183 575.686 515.035 524.803 377.914" stroke="#686868" stroke-width="0.5" stroke-miterlimit="10"/>
<path d="M470.281 614.777C465.274 609.062 484.039 581.091 512.111 552.261" stroke="#686868" stroke-width="0.5" stroke-miterlimit="10"/>
<path d="M523.728 531.477C517.456 527.785 535.159 501.382 563.23 472.552" stroke="#686868" stroke-width="0.5" stroke-miterlimit="10"/>
<path d="M510.429 397.03C458.737 257.633 309.274 132.651 177.211 118.388" stroke="#686868" stroke-width="0.5" stroke-miterlimit="10"/>
<path d="M524.849 377.861C473.966 240.689 326.931 117.73 196.992 103.72" stroke="#686868" stroke-width="0.5" stroke-miterlimit="10"/>
<path d="M427.084 270.732C423.138 273.312 442.713 252.069 470.784 223.238" stroke="#686868" stroke-width="0.5" stroke-miterlimit="10"/>
<path d="M304.772 168.513C303.76 173.571 325.762 154.3 353.834 125.47" stroke="#686868" stroke-width="0.5" stroke-miterlimit="10"/>
<path d="M168.157 119.804C170.484 126.025 195.116 107.715 223.188 78.8851C94.0583 64.9758 30.1258 164.516 80.6548 300.778C52.5831 329.608 25.0173 352.47 19.0994 351.812C-33.7562 209.279 33.11 105.237 168.157 119.804Z" stroke="#686868" stroke-width="0.5" stroke-miterlimit="10"/>
<path d="M177.22 118.387C45.1564 104.123 -20.1924 205.889 31.4493 345.286" stroke="#686868" stroke-width="0.5" stroke-miterlimit="10"/>
<path d="M196.928 103.72C66.989 89.7096 2.65184 189.857 53.5349 326.978" stroke="#686868" stroke-width="0.5" stroke-miterlimit="10"/>
<mask id="mask1_915_886" style="mask-type:luminance" maskUnits="userSpaceOnUse" x="98" y="64" width="482" height="473">
<path d="M530.821 536.735C569.109 497.434 578.416 430.619 549.029 351.411C498.5 215.099 352.325 92.8989 223.196 78.939C169.126 73.1223 126.488 87.1834 98.8711 115.508L111.567 102.458C139.132 74.1339 181.822 60.0728 235.891 65.8894C365.021 79.8494 511.196 202.05 561.725 338.362C591.111 417.569 581.805 484.385 543.516 523.685C539.723 527.58 534.614 532.84 530.821 536.735Z" fill="white"/>
</mask>
<g mask="url(#mask1_915_886)">
<path d="M406.48 573.256L419.176 560.206C548.306 574.166 612.238 474.625 561.709 338.313L549.014 351.363C599.543 487.675 535.61 587.165 406.48 573.256Z" stroke="#686868" stroke-width="0.5" stroke-miterlimit="10"/>
<path d="M563.219 472.602L575.914 459.553" stroke="#686868" stroke-width="0.5" stroke-miterlimit="10"/>
<path d="M549.021 351.415L561.716 338.366C511.188 202.054 365.013 79.8029 235.883 65.8936L223.188 78.9431C352.317 92.903 498.492 215.103 549.021 351.415Z" stroke="#686868" stroke-width="0.5" stroke-miterlimit="10"/>
<path d="M470.77 223.298L483.465 210.248" stroke="#686868" stroke-width="0.5" stroke-miterlimit="10"/>
<path d="M353.824 125.477L366.52 112.428" stroke="#686868" stroke-width="0.5" stroke-miterlimit="10"/>
<path d="M223.178 78.9446L235.873 65.895C106.744 51.9351 42.8113 151.476 93.3403 287.788L80.6448 300.837C30.1158 164.525 94.0484 64.9846 223.178 78.9446Z" stroke="#686868" stroke-width="0.5" stroke-miterlimit="10"/>
<path d="M117.621 99.9851L130.317 86.9355" stroke="#686868" stroke-width="0.5" stroke-miterlimit="10"/>
<path d="M530.809 536.738C569.098 497.438 578.404 430.623 549.017 351.415C498.488 215.103 352.314 92.9028 223.184 78.9429C169.114 73.1262 126.476 87.1873 98.8594 115.512L111.555 102.462C139.121 74.1378 181.81 60.0767 235.879 65.8933C365.009 79.8533 511.184 202.053 561.713 338.365C591.1 417.573 581.793 484.389 543.504 523.689C539.711 527.584 534.602 532.844 530.809 536.738Z" stroke="#686868" stroke-width="0.5" stroke-miterlimit="10"/>
</g>
<mask id="mask2_915_886" style="mask-type:luminance" maskUnits="userSpaceOnUse" x="80" y="287" width="464" height="288">
<path d="M543.521 523.686L530.826 536.736C503.26 565.06 460.571 579.121 406.501 573.305C277.372 559.345 131.197 437.145 80.668 300.833L93.3634 287.783C143.892 424.095 290.067 546.295 419.197 560.255C473.266 566.072 515.905 552.011 543.521 523.686Z" fill="white"/>
</mask>
<g mask="url(#mask2_915_886)">
<path d="M80.6719 300.784L93.3673 287.734C143.896 424.046 290.071 546.246 419.201 560.206L406.505 573.256C277.376 559.296 131.201 437.096 80.6719 300.784Z" stroke="#686868" stroke-width="0.5" stroke-miterlimit="10"/>
<path d="M158.91 428.901L171.606 415.852" stroke="#686868" stroke-width="0.5" stroke-miterlimit="10"/>
<path d="M275.863 526.722L288.609 513.673" stroke="#686868" stroke-width="0.5" stroke-miterlimit="10"/>
<path d="M406.504 573.254L419.199 560.204C548.329 574.164 612.262 474.623 561.733 338.312L549.037 351.361C599.566 487.673 535.634 587.163 406.504 573.254Z" stroke="#686868" stroke-width="0.5" stroke-miterlimit="10"/>
<path d="M512.105 552.211L524.801 539.161" stroke="#686868" stroke-width="0.5" stroke-miterlimit="10"/>
<path d="M543.521 523.685L530.826 536.735C503.26 565.059 460.571 579.12 406.501 573.304C277.372 559.344 131.197 437.144 80.668 300.832L93.3634 287.782C143.892 424.094 290.067 546.294 419.197 560.254C473.266 566.071 515.905 552.01 543.521 523.685Z" stroke="#686868" stroke-width="0.5" stroke-miterlimit="10"/>
</g>
<mask id="mask3_915_886" style="mask-type:luminance" maskUnits="userSpaceOnUse" x="93" y="235" width="473" height="327">
<path d="M134.504 235.133C137.084 241.405 140.118 250.003 143.052 256.123C146.036 262.395 149.88 270.842 153.067 277.013C156.304 283.234 160.805 291.377 164.346 297.447C182.909 329.059 203.95 354.248 205.366 355.967C210.07 361.481 216.139 369.017 221.096 374.227C226.053 379.487 232.578 386.619 237.686 391.778C242.795 396.937 249.623 403.765 255.086 408.52C260.498 413.274 267.629 419.748 273.193 424.402C278.706 429.004 286.192 434.973 291.908 439.322C309.813 452.928 321.901 460.465 330.753 465.978C336.62 469.67 344.662 474.273 350.782 477.561C356.751 480.798 364.894 484.793 370.963 487.879C376.932 490.914 385.176 494.404 391.398 496.933C403.334 501.738 419.672 506.897 432.013 510.589C437.931 512.359 446.074 514.18 452.194 515.192C458.112 516.153 465.952 517.468 471.92 518.176C477.332 518.783 484.565 519.289 490.028 519.491C499.587 519.845 512.434 518.834 521.943 517.872C523.006 517.771 532.869 516.659 547.183 512.056C554.213 509.78 562.66 505.885 565.796 503.761C557.096 510.083 546.525 520.654 543.541 523.79C515.975 552.115 473.286 566.176 419.216 560.359C290.087 546.399 143.912 424.199 93.3828 287.887C118.925 261.636 136.123 239.483 134.555 235.234L134.504 235.133Z" fill="white"/>
</mask>
<g mask="url(#mask3_915_886)">
<path d="M93.3594 287.783C121.431 258.953 139.387 235.079 133.469 234.422C186.325 376.955 339.125 504.719 474.223 519.337C471.897 513.115 447.265 531.425 419.193 560.255C290.063 546.295 143.888 424.095 93.3594 287.783Z" stroke="#686868" stroke-width="0.5" stroke-miterlimit="10"/>
<path d="M117.582 261.276C168.465 398.448 315.5 521.407 445.439 535.418" stroke="#686868" stroke-width="0.5" stroke-miterlimit="10"/>
<path d="M171.598 415.854C199.669 387.023 219.244 365.78 215.298 368.36" stroke="#686868" stroke-width="0.5" stroke-miterlimit="10"/>
<path d="M288.602 513.674C316.673 484.844 338.625 465.573 337.664 470.631" stroke="#686868" stroke-width="0.5" stroke-miterlimit="10"/>
<path d="M419.25 560.202C447.321 531.372 471.954 513.062 474.28 519.283C609.328 533.85 676.143 429.808 623.288 287.275C617.37 286.617 589.804 309.479 561.732 338.309C612.261 474.621 548.329 574.111 419.199 560.202H419.25Z" stroke="#686868" stroke-width="0.5" stroke-miterlimit="10"/>
<path d="M445.465 535.417C575.404 549.428 639.741 449.28 588.858 312.159" stroke="#686868" stroke-width="0.5" stroke-miterlimit="10"/>
<path d="M465.18 520.75C597.243 535.014 662.592 433.248 610.899 293.851" stroke="#686868" stroke-width="0.5" stroke-miterlimit="10"/>
<path d="M524.801 539.164C552.872 510.334 579.68 491.619 584.636 497.284" stroke="#686868" stroke-width="0.5" stroke-miterlimit="10"/>
<path d="M134.516 235.131C137.095 241.403 140.13 250.001 143.064 256.121C146.048 262.393 149.892 270.84 153.078 277.011C156.316 283.232 160.817 291.375 164.358 297.445C182.92 329.057 203.961 354.246 205.378 355.965C210.082 361.479 216.151 369.015 221.108 374.225C226.065 379.485 232.589 386.617 237.698 391.776C242.807 396.935 249.635 403.763 255.097 408.518C260.509 413.272 267.641 419.746 273.205 424.4C278.718 429.002 286.204 434.971 291.919 439.321C309.824 452.926 321.913 460.463 330.764 465.976C336.632 469.668 344.674 474.271 350.794 477.559C356.762 480.796 364.906 484.792 370.975 487.877C376.944 490.912 385.188 494.402 391.409 496.931C403.346 501.736 419.683 506.895 432.025 510.587C437.942 512.357 446.086 514.178 452.206 515.19C458.124 516.151 465.964 517.466 471.932 518.174C477.344 518.781 484.577 519.287 490.039 519.489C499.599 519.843 512.446 518.832 521.955 517.871C523.017 517.769 532.88 516.657 547.194 512.054C554.225 509.778 562.672 505.883 565.808 503.759C557.108 510.081 546.537 520.652 543.553 523.788C515.987 552.113 473.298 566.174 419.228 560.357C290.098 546.397 143.924 424.197 93.3945 287.885C118.937 261.635 136.134 239.481 134.566 235.232L134.516 235.131Z" stroke="#686868" stroke-width="0.5" stroke-miterlimit="10"/>
</g>
<mask id="mask4_915_886" style="mask-type:luminance" maskUnits="userSpaceOnUse" x="111" y="1" width="531" height="523">
<path d="M472.576 518.121C478.645 518.879 486.839 519.537 493.01 519.436C502.519 519.284 515.214 518.829 524.572 517.362C547.434 513.822 560.989 506.589 565.794 503.655C562.81 505.779 555.88 511.141 543.539 523.685C581.828 484.384 591.134 417.569 561.748 338.361C511.168 202.049 364.993 79.7982 235.864 65.8888C181.794 60.0722 139.155 74.1333 111.539 102.458C114.574 99.3725 124.841 88.5991 130.911 79.7477C129.748 81.5685 127.067 87.0817 125.55 91.2292C123.779 95.9837 121.857 102.508 120.643 107.415C114.473 133.109 117.153 159.916 117.153 160.22C118.317 171.094 120.289 185.611 122.717 196.283C125.448 208.119 130.557 223.596 134.401 235.128C134.249 234.723 133.895 234.471 133.389 234.42C80.635 91.8362 147.451 -12.206 282.498 2.36091C417.545 16.9784 570.346 144.742 623.252 287.276C676.108 429.809 609.292 533.851 474.245 519.284C339.198 504.667 186.397 376.903 133.491 234.369C133.996 234.42 134.35 234.673 134.502 235.077C143.252 258.597 153.014 276.806 153.115 277.008C156.504 283.128 160.702 291.474 164.445 297.442C168.188 303.461 173.094 311.554 176.989 317.472C180.934 323.44 186.447 331.229 190.696 336.995C204.707 356.114 221.044 374.07 221.145 374.222C226.102 379.482 232.525 386.766 237.735 391.773C248.154 401.788 262.114 415.09 273.242 424.397C278.755 429 286.241 434.968 291.956 439.318C297.621 443.617 305.41 449.029 311.177 453.177C316.892 457.274 324.934 462.129 330.852 465.973C331.004 466.074 350.477 478.214 371.113 487.925C377.233 490.808 385.478 494.45 391.699 497.029C397.718 499.457 405.912 502.289 412.032 504.565C418.001 506.791 426.245 508.814 432.315 510.635C437.777 512.254 450.27 515.389 472.576 518.171V518.121Z" fill="white"/>
</mask>
<g mask="url(#mask4_915_886)">
<path d="M93.375 287.782C121.447 258.952 139.402 235.078 133.485 234.421C186.34 376.954 339.141 504.718 474.239 519.336C471.912 513.114 447.28 531.424 419.209 560.254C290.079 546.294 143.904 424.094 93.375 287.782Z" stroke="#686868" stroke-width="0.5" stroke-miterlimit="10"/>
<path d="M117.598 261.275C168.481 398.447 315.515 521.406 445.454 535.417" stroke="#686868" stroke-width="0.5" stroke-miterlimit="10"/>
<path d="M131.965 242.107C183.657 381.505 333.12 506.487 465.183 520.75" stroke="#686868" stroke-width="0.5" stroke-miterlimit="10"/>
<path d="M171.613 415.853C199.685 387.022 219.259 365.779 215.314 368.359" stroke="#686868" stroke-width="0.5" stroke-miterlimit="10"/>
<path d="M288.617 513.674C316.689 484.843 338.64 465.572 337.679 470.63" stroke="#686868" stroke-width="0.5" stroke-miterlimit="10"/>
<path d="M419.246 560.202C447.318 531.372 471.95 513.062 474.276 519.283C609.324 533.85 676.139 429.808 623.284 287.275C617.366 286.617 589.8 309.479 561.728 338.309C612.257 474.621 548.325 574.111 419.195 560.202H419.246Z" stroke="#686868" stroke-width="0.5" stroke-miterlimit="10"/>
<path d="M445.461 535.417C575.4 549.428 639.737 449.28 588.854 312.159" stroke="#686868" stroke-width="0.5" stroke-miterlimit="10"/>
<path d="M465.176 520.75C597.239 535.014 662.588 433.248 610.895 293.851" stroke="#686868" stroke-width="0.5" stroke-miterlimit="10"/>
<path d="M524.797 539.164C552.869 510.334 579.676 491.619 584.633 497.284" stroke="#686868" stroke-width="0.5" stroke-miterlimit="10"/>
<path d="M575.934 459.549C604.005 430.719 631.875 410.335 638.146 414.078" stroke="#686868" stroke-width="0.5" stroke-miterlimit="10"/>
<path d="M561.744 338.362C589.815 309.532 617.381 286.67 623.299 287.328C570.393 144.744 417.642 16.9798 282.544 2.3623C284.871 8.58359 263.982 37.0093 235.91 65.8396C365.04 79.7996 511.215 202 561.744 338.312V338.362Z" stroke="#686868" stroke-width="0.5" stroke-miterlimit="10"/>
<path d="M588.853 312.163C538.02 174.992 390.935 52.0328 260.996 37.9717" stroke="#686868" stroke-width="0.5" stroke-miterlimit="10"/>
<path d="M610.956 293.852C559.264 154.455 409.802 29.4724 277.738 15.209" stroke="#686868" stroke-width="0.5" stroke-miterlimit="10"/>
<path d="M483.492 210.241C511.564 181.411 537.511 155.918 541.456 153.339" stroke="#686868" stroke-width="0.5" stroke-miterlimit="10"/>
<path d="M366.547 112.422C394.619 83.592 418.189 56.1273 419.15 51.0693" stroke="#686868" stroke-width="0.5" stroke-miterlimit="10"/>
<path d="M235.897 65.8888C263.969 37.0585 284.858 8.63278 282.532 2.36091C147.484 -12.206 80.6686 91.8361 133.524 234.42C139.442 235.077 121.486 258.951 93.4147 287.781C42.8351 151.469 106.768 51.9289 235.897 65.8888Z" stroke="#686868" stroke-width="0.5" stroke-miterlimit="10"/>
<path d="M260.994 37.9711C131.055 23.9606 66.7182 124.108 117.601 261.28" stroke="#686868" stroke-width="0.5" stroke-miterlimit="10"/>
<path d="M277.733 15.2059C145.669 0.942479 80.27 102.709 131.962 242.106" stroke="#686868" stroke-width="0.5" stroke-miterlimit="10"/>
<path d="M130.336 86.9284C158.408 58.0981 177.122 30.077 172.165 24.4121" stroke="#686868" stroke-width="0.5" stroke-miterlimit="10"/>
</g>
<path d="M235.893 65.8888C263.965 37.0585 284.854 8.63278 282.528 2.36091C147.48 -12.206 80.6647 91.8361 133.52 234.42C139.438 235.077 121.482 258.951 93.4108 287.781C42.8312 151.469 106.764 51.9289 235.893 65.8888Z" stroke="#686868" stroke-width="0.5" stroke-miterlimit="10"/>
<path d="M260.99 37.9711C131.052 23.9606 66.7143 124.108 117.597 261.28" stroke="#686868" stroke-width="0.5" stroke-miterlimit="10"/>
</svg>
