<svg width="19" height="558" viewBox="0 0 19 558" fill="none" xmlns="http://www.w3.org/2000/svg">
<path d="M9.51953 558L9.51951 25.0323" stroke="#686868" stroke-width="0.5" stroke-miterlimit="10"/>
<path d="M18 41.0519C18 45.4767 14.1911 49.0693 9.49999 49.0693C4.80885 49.0693 1 45.4767 1 41.0519C0.999999 36.6271 4.80885 33.0344 9.49998 33.0344C14.1911 33.0344 18 36.6271 18 41.0519Z" stroke="#686868" stroke-width="0.5" stroke-miterlimit="10"/>
<path d="M18 25.0343C18 29.4592 14.1911 33.0518 9.49999 33.0518C4.80885 33.0518 1 29.4592 1 25.0343C0.999999 20.6095 4.80885 17.0169 9.49998 17.0169C14.1911 17.0169 18 20.6095 18 25.0343Z" stroke="#686868" stroke-width="0.5" stroke-miterlimit="10"/>
<path d="M18 9.01768C18 13.4425 14.1911 17.0352 9.49999 17.0352C4.80885 17.0352 1 13.4425 1 9.01768C0.999999 4.59286 4.80885 1.0002 9.49998 1.0002C14.1911 1.0002 18 4.59285 18 9.01768Z" stroke="#686868" stroke-width="0.5" stroke-miterlimit="10"/>
</svg>
