<svg width="138" height="290" viewBox="0 0 138 290" fill="none" xmlns="http://www.w3.org/2000/svg">
<g clip-path="url(#clip0_938_2832)">
<path d="M65.9185 92.1084C51.5996 92.1084 40.0045 80.4632 40.0045 66.1166C40.0045 51.7699 51.6148 40.1248 65.9185 40.1248L65.9185 2.88139e-06C29.5051 1.28971e-06 -1.29358e-06 29.5937 -2.89005e-06 66.1166C-4.48651e-06 102.639 29.5051 132.233 65.9185 132.233" stroke="#686868" stroke-width="0.5" stroke-miterlimit="10"/>
<path d="M126.602 40.1248C112.283 40.1248 100.688 51.7699 100.688 66.1166C100.688 80.4632 112.298 92.1084 126.602 92.1084L126.602 132.233C90.2039 132.233 60.6836 102.639 60.6836 66.1166C60.6836 29.5937 90.1886 1.28971e-06 126.602 2.88139e-06" stroke="#686868" stroke-width="0.5" stroke-miterlimit="10"/>
<path d="M126.602 290.001L126.602 132.234L137.999 132.234L137.999 290.001L126.602 290.001Z" stroke="#686868" stroke-width="0.5" stroke-miterlimit="10"/>
</g>
<defs>
<clipPath id="clip0_938_2832">
<rect width="290" height="138" fill="white" transform="matrix(-4.37114e-08 1 1 4.37114e-08 0 0)"/>
</clipPath>
</defs>
</svg>
