<svg width="86" height="114" viewBox="0 0 86 114" fill="none" xmlns="http://www.w3.org/2000/svg">
<path d="M53.4 41.25C73.95 41.25 85.8 53.55 85.8 74.7C85.8 99.3 69.45 114 43.35 114C15.75 114 0.900024 94.65 0.900024 58.95C0.900024 21.9 17.4 0 45.6 0C67.5 0 81.45 12.3 83.25 33.15H63.15C61.95 22.8 55.5 16.5 45.6 16.5C30.6 16.5 21.75 32.1 21.75 58.35V69.45H22.05C22.05 51.75 33.75 41.25 53.4 41.25ZM43.05 97.5C56.4 97.5 64.5 89.55 64.5 76.35C64.5 63.9 56.4 56.7 43.05 56.7C29.85 56.7 21.9 63.75 21.9 75.75C21.9 89.25 30.45 97.5 43.05 97.5Z" fill="white"/>
</svg>
