<svg width="525" height="115" viewBox="0 0 525 115" fill="none" xmlns="http://www.w3.org/2000/svg">
<path d="M52.2414 114.5C19.8414 114.5 0.641357 93.35 0.641357 57.5C0.641357 21.65 19.8414 0.5 52.2414 0.5C84.3414 0.5 103.541 21.65 103.541 57.5C103.541 93.35 84.3414 114.5 52.2414 114.5ZM52.2414 98C70.9914 98 82.0914 82.85 82.0914 57.5C82.0914 32.15 70.9914 17 52.2414 17C33.1914 17 22.0914 32.15 22.0914 57.5C22.0914 82.85 33.1914 98 52.2414 98Z" fill="white"/>
<path d="M175.58 96.95H234.08V113H154.88V2.00001H232.43V18.05H175.58V48.05H227.18V64.1H175.58V96.95Z" fill="white"/>
<path d="M320.692 2.00001H341.542L310.192 113H273.142L242.092 2.00001H264.142L292.192 111.2H292.492L320.692 2.00001Z" fill="white"/>
<path d="M376.557 96.95H435.057V113H355.857V2.00001H433.407V18.05H376.557V48.05H428.157V64.1H376.557V96.95Z" fill="white"/>
<path d="M504.119 73.55L524.519 113H501.869L484.019 74.45H483.719L465.719 113H443.219L463.619 73.55L445.769 37.7H467.519L483.719 73.1H484.019L500.219 37.7H521.969L504.119 73.55Z" fill="white"/>
</svg>
