<svg xmlns="http://www.w3.org/2000/svg" xmlns:xlink="http://www.w3.org/1999/xlink" width="729.745" height="218.279"><defs><path id="a" d="M0 0h729.745v218.279H0z"/></defs><clipPath id="b"><use xlink:href="#a" overflow="visible"/></clipPath><path clip-path="url(#b)" fill="#1A459C" d="M75.335 204.838l-4.926-12.946H28.472l-4.925 13.228c-1.924 5.162-3.566 8.645-4.926 10.45-1.361 1.805-3.589 2.709-6.685 2.709-2.628 0-4.949-.962-6.966-2.885-2.017-1.924-3.025-4.104-3.025-6.546 0-1.406.234-2.859.703-4.361.469-1.501 1.243-3.588 2.322-6.263l26.387-66.987c.75-1.923 1.653-4.233 2.709-6.932 1.055-2.696 2.181-4.936 3.377-6.72 1.197-1.782 2.768-3.224 4.715-4.328 1.946-1.101 4.351-1.652 7.213-1.652 2.907 0 5.335.552 7.282 1.652 1.946 1.104 3.518 2.523 4.715 4.258a29.91 29.91 0 013.026 5.595 338.567 338.567 0 013.13 7.986l26.95 66.565c2.112 5.066 3.166 8.749 3.166 11.048 0 2.392-.997 4.585-2.99 6.578-1.994 1.994-4.398 2.991-7.212 2.991-1.643 0-3.05-.294-4.222-.88a8.619 8.619 0 01-2.955-2.393c-.799-1.008-1.655-2.556-2.569-4.644-.915-2.085-1.7-3.927-2.357-5.523M33.96 176.201h30.821L49.23 133.628l-15.27 42.573zm123.069 40.319h-31.523c-4.551 0-7.8-1.021-9.746-3.062-1.947-2.041-2.92-5.288-2.92-9.746v-77.543c0-4.549.997-7.82 2.99-9.814 1.994-1.993 5.218-2.99 9.676-2.99h33.424c4.925 0 9.193.305 12.805.913 3.613.611 6.849 1.784 9.711 3.519 2.438 1.454 4.597 3.297 6.473 5.524s3.308 4.691 4.292 7.388c.986 2.698 1.478 5.548 1.478 8.551 0 10.319-5.161 17.871-15.48 22.656 13.557 4.317 20.336 12.713 20.336 25.191 0 5.77-1.478 10.966-4.433 15.586-2.956 4.621-6.943 8.034-11.963 10.238-3.143 1.313-6.755 2.24-10.835 2.779-4.083.54-8.844.81-14.285.81m-23.29-87.465v26.669h19.139c5.207 0 9.228-.492 12.067-1.479 2.838-.983 5.007-2.859 6.509-5.628 1.172-1.97 1.759-4.175 1.759-6.615 0-5.207-1.854-8.666-5.558-10.38-3.707-1.71-9.36-2.567-16.958-2.567h-16.958zm21.741 41.656h-21.742v30.116h22.446c14.119 0 21.18-5.089 21.18-15.269 0-5.207-1.83-8.982-5.489-11.329-3.658-2.344-9.124-3.518-16.395-3.518m129.12-41.233h-47.075v25.332h43.346c3.189 0 5.569.716 7.142 2.146 1.571 1.432 2.357 3.319 2.357 5.664 0 2.346-.774 4.258-2.322 5.735-1.549 1.478-3.941 2.216-7.177 2.216h-43.346v29.342h48.693c3.283 0 5.757.763 7.424 2.288 1.664 1.525 2.497 3.553 2.497 6.086 0 2.44-.833 4.422-2.497 5.946-1.667 1.524-4.141 2.287-7.424 2.287h-56.785c-4.55 0-7.822-1.01-9.815-3.026-1.995-2.017-2.99-5.278-2.99-9.781V126.17c0-3.001.444-5.453 1.336-7.352.89-1.901 2.287-3.283 4.187-4.152 1.9-.868 4.327-1.301 7.282-1.301H284.6c3.329 0 5.804.738 7.423 2.216 1.619 1.477 2.427 3.412 2.427 5.805 0 2.439-.808 4.397-2.427 5.875-1.619 1.478-4.094 2.217-7.423 2.217m96.119 0h-47.075v25.332h43.346c3.189 0 5.569.716 7.143 2.146 1.57 1.432 2.356 3.319 2.356 5.664 0 2.346-.773 4.258-2.322 5.735s-3.94 2.216-7.177 2.216h-43.346v29.342h48.693c3.282 0 5.757.763 7.424 2.288 1.664 1.525 2.497 3.553 2.497 6.086 0 2.44-.833 4.422-2.497 5.946-1.667 1.524-4.142 2.287-7.424 2.287h-56.786c-4.55 0-7.822-1.01-9.815-3.026-1.995-2.017-2.99-5.278-2.99-9.781V126.17c0-3.001.444-5.453 1.336-7.352.89-1.901 2.287-3.283 4.187-4.152 1.9-.868 4.327-1.301 7.282-1.301h55.167c3.329 0 5.804.738 7.423 2.216 1.619 1.477 2.427 3.412 2.427 5.805 0 2.439-.808 4.397-2.427 5.875-1.619 1.478-4.093 2.217-7.422 2.217m98.721 49.748c0 5.723-.892 11.001-2.674 15.832-1.783 4.832-4.363 8.984-7.741 12.454-3.377 3.473-7.412 6.134-12.102 7.987-4.692 1.853-9.97 2.779-15.832 2.779-5.818 0-11.048-.939-15.692-2.815-4.643-1.875-8.666-4.562-12.067-8.057-3.401-3.493-5.98-7.622-7.739-12.384-1.76-4.761-2.64-10.026-2.64-15.797 0-5.815.892-11.141 2.675-15.973 1.781-4.831 4.339-8.959 7.67-12.384 3.33-3.425 7.362-6.063 12.102-7.916 4.738-1.854 9.968-2.78 15.692-2.78 5.815 0 11.094.939 15.832 2.814 4.737 1.877 8.796 4.551 12.173 8.022 3.378 3.471 5.946 7.598 7.705 12.384 1.759 4.786 2.638 10.065 2.638 15.834m-19.281 0c0-7.834-1.723-13.933-5.171-18.295-3.448-4.363-8.081-6.544-13.896-6.544-3.753 0-7.062.974-9.921 2.92-2.862 1.947-5.067 4.82-6.615 8.62-1.548 3.799-2.322 8.232-2.322 13.299 0 5.021.762 9.405 2.287 13.158 1.524 3.753 3.705 6.626 6.544 8.62 2.838 1.994 6.18 2.99 10.027 2.99 5.815 0 10.448-2.192 13.896-6.579s5.171-10.449 5.171-18.189m-16.887-66.636h9.499c2.393 0 3.589.351 3.589 1.055 0 .376-1.313 1.9-3.939 4.574a203.054 203.054 0 01-7.951 7.67c-2.675 2.439-4.528 3.917-5.561 4.433-2.673 1.361-5.535 2.04-8.584 2.04-2.017 0-3.024-.586-3.024-1.759 0-.797.608-2.181 1.829-4.15l3.166-5.911c1.829-3.424 3.424-5.605 4.785-6.544 1.359-.939 3.423-1.408 6.191-1.408m51.297 94.007v-83.312c0-3.847.854-6.755 2.567-8.726 1.712-1.97 4.021-2.956 6.932-2.956 2.907 0 5.253.976 7.035 2.922s2.676 4.866 2.676 8.76v83.312c0 3.896-.904 6.815-2.71 8.762-1.808 1.945-4.142 2.92-7.001 2.92-2.814 0-5.103-1.01-6.861-3.025-1.759-2.017-2.638-4.903-2.638-8.657m48.762-75.359c-2.674 0-4.96-.821-6.86-2.464-1.899-1.642-2.85-3.964-2.85-6.967 0-2.72.973-4.96 2.92-6.719 1.945-1.76 4.21-2.639 6.79-2.639 2.485 0 4.69.798 6.614 2.393 1.923 1.594 2.886 3.916 2.886 6.965 0 2.955-.94 5.268-2.815 6.932-1.877 1.666-4.105 2.499-6.685 2.499m9.5 19.843v55.517c0 3.849-.915 6.755-2.745 8.727-1.829 1.97-4.151 2.955-6.966 2.955s-5.102-1.01-6.861-3.025c-1.758-2.017-2.638-4.902-2.638-8.656v-54.954c0-3.8.88-6.661 2.638-8.584 1.76-1.924 4.047-2.886 6.861-2.886s5.137.962 6.966 2.886c1.83 1.921 2.745 4.596 2.745 8.02m88.73 43.415c0 2.393-.717 4.949-2.146 7.669-1.432 2.721-3.613 5.313-6.543 7.775-2.933 2.463-6.627 4.445-11.083 5.946-4.457 1.5-9.477 2.252-15.059 2.252-11.868 0-21.134-3.46-27.794-10.38-6.661-6.919-9.991-16.195-9.991-27.828 0-7.882 1.522-14.847 4.573-20.898 3.05-6.052 7.459-10.731 13.229-14.038 5.77-3.308 12.665-4.96 20.688-4.96 4.972 0 9.534.727 13.686 2.181 4.152 1.454 7.67 3.332 10.555 5.629 2.885 2.299 5.09 4.75 6.614 7.354 1.524 2.603 2.288 5.029 2.288 7.281 0 2.299-.857 4.246-2.569 5.84-1.714 1.597-3.789 2.393-6.227 2.393-1.597 0-2.921-.409-3.977-1.231-1.055-.819-2.239-2.146-3.553-3.976-2.347-3.564-4.797-6.238-7.354-8.021-2.558-1.781-5.805-2.674-9.745-2.674-5.676 0-10.25 2.216-13.723 6.649-3.471 4.433-5.205 10.497-5.205 18.189 0 3.612.444 6.932 1.337 9.957.89 3.025 2.181 5.606 3.868 7.739 1.689 2.136 3.73 3.754 6.122 4.856 2.394 1.102 5.021 1.652 7.882 1.652 3.846 0 7.142-.89 9.887-2.673 2.744-1.783 5.171-4.504 7.282-8.163 1.172-2.157 2.438-3.846 3.8-5.065 1.36-1.22 3.025-1.83 4.996-1.83 2.345 0 4.293.892 5.84 2.675 1.547 1.784 2.322 3.682 2.322 5.7m65.297 12.946c-4.644 3.613-9.137 6.322-13.474 8.127-4.34 1.807-9.208 2.71-14.601 2.71-4.926 0-9.253-.975-12.983-2.921-3.729-1.945-6.604-4.585-8.62-7.916-2.017-3.33-3.024-6.941-3.024-10.836 0-5.254 1.664-9.732 4.994-13.439 3.331-3.705 7.905-6.191 13.723-7.459 1.219-.281 4.244-.914 9.077-1.899 4.831-.986 8.972-1.888 12.419-2.709 3.448-.82 7.188-1.817 11.224-2.99-.236-5.067-1.256-8.783-3.062-11.153-1.807-2.368-5.548-3.555-11.223-3.555-4.88 0-8.55.682-11.013 2.042-2.462 1.36-4.574 3.402-6.332 6.121-1.76 2.722-3.003 4.517-3.73 5.383-.728.869-2.286 1.302-4.679 1.302-2.158 0-4.023-.69-5.594-2.075-1.572-1.383-2.357-3.154-2.357-5.313 0-3.377 1.196-6.659 3.589-9.85 2.392-3.19 6.121-5.817 11.188-7.882 5.066-2.063 11.376-3.095 18.929-3.095 8.443 0 15.081.995 19.913 2.989 4.831 1.995 8.244 5.148 10.238 9.464 1.993 4.316 2.99 10.039 2.99 17.169 0 4.504-.013 8.328-.034 11.471-.025 3.143-.061 6.638-.107 10.483 0 3.612.6 7.378 1.795 11.294 1.196 3.917 1.794 6.438 1.794 7.564 0 1.97-.927 3.765-2.778 5.382-1.854 1.619-3.952 2.429-6.298 2.429-1.971 0-3.918-.927-5.841-2.779-1.924-1.855-3.965-4.54-6.123-8.059m-1.265-27.794c-2.815 1.032-6.908 2.123-12.279 3.272-5.372 1.149-9.089 1.995-11.152 2.533-2.064.54-4.035 1.595-5.911 3.166-1.876 1.572-2.814 3.765-2.814 6.579 0 2.908 1.102 5.383 3.308 7.424 2.203 2.041 5.089 3.061 8.654 3.061 3.8 0 7.307-.832 10.52-2.498 3.213-1.665 5.57-3.81 7.071-6.438 1.735-2.909 2.604-7.693 2.604-14.355v-2.744z"/><path clip-path="url(#b)" fill="none" stroke="#8AC640" stroke-width="2.774" stroke-miterlimit="10" d="M1.658 31.996c-5.472 12.354 73.264 71.723 122.768 52.42 39.119-15.253 29.715-67.827 66.738-80.468 49.161-16.786 130.444 53.826 121.886 70.043-3.275 6.206-18.937 2.988-110.158-12.761C9.582 27.856 2.976 29.021 1.658 31.996z"/><path clip-path="url(#b)" fill="none" stroke="#2FC2DF" stroke-width="2.774" stroke-miterlimit="10" d="M3.397 49.072c-5.472 12.354 73.264 71.723 122.768 52.42 39.119-15.253 29.715-67.827 66.738-80.468C242.064 4.238 323.348 74.85 314.79 91.067c-3.275 6.206-18.937 2.988-110.158-12.761C11.322 44.932 4.716 46.097 3.397 49.072z"/><path clip-path="url(#b)" fill="#2FC2DF" d="M708.563 85.077h-160.06c-11.699 0-21.183-9.484-21.183-21.182v-.24c0-11.698 9.483-21.182 21.183-21.182h160.06c11.699 0 21.183 9.484 21.183 21.182v.24c-.001 11.697-9.484 21.182-21.183 21.182"/><path clip-path="url(#b)" fill="#8AC640" d="M545.015 85.077h-138.7c-11.699 0-21.184-9.484-21.184-21.182v-.24c0-11.698 9.484-21.182 21.184-21.182h138.7c11.698 0 21.182 9.484 21.182 21.182v.24c-.001 11.697-9.484 21.182-21.182 21.182"/><path clip-path="url(#b)" fill="#FFF" d="M413.243 64.888c0-2.992.803-5.333 2.409-7.025s3.68-2.539 6.219-2.539c1.664 0 3.164.398 4.499 1.192 1.336.796 2.354 1.904 3.056 3.326.7 1.421 1.051 3.033 1.051 4.836 0 1.828-.369 3.462-1.106 4.905-.738 1.442-1.783 2.534-3.134 3.275a8.96 8.96 0 01-4.376 1.113c-1.696 0-3.213-.41-4.548-1.23-1.336-.819-2.35-1.937-3.037-3.355s-1.033-2.917-1.033-4.498m2.458.036c0 2.171.584 3.882 1.752 5.132s2.632 1.874 4.395 1.874c1.795 0 3.271-.63 4.431-1.892 1.16-1.262 1.739-3.053 1.739-5.372 0-1.467-.247-2.747-.743-3.841-.496-1.094-1.222-1.943-2.175-2.545-.955-.602-2.027-.903-3.216-.903-1.688 0-3.141.58-4.356 1.739-1.217 1.16-1.827 3.095-1.827 5.808m17.824 8.739V55.644h2.445l9.466 14.148V55.644h2.286v18.019h-2.446l-9.466-14.161v14.161zm17.392-5.789l2.25-.196c.105.901.354 1.641.743 2.218.389.578.993 1.045 1.813 1.402.82.356 1.742.534 2.766.534.91 0 1.713-.136 2.41-.406.696-.27 1.214-.641 1.555-1.113.34-.47.51-.985.51-1.541a2.35 2.35 0 00-.491-1.482c-.328-.422-.869-.776-1.623-1.063-.483-.189-1.553-.481-3.208-.879-1.655-.398-2.814-.772-3.478-1.124-.861-.451-1.502-1.011-1.925-1.679a4.112 4.112 0 01-.634-2.243c0-.909.259-1.76.775-2.55.517-.791 1.27-1.391 2.262-1.801.991-.41 2.094-.614 3.307-.614 1.335 0 2.514.215 3.533.645 1.021.43 1.806 1.063 2.354 1.898.549.836.844 1.783.885 2.841l-2.286.171c-.123-1.139-.539-1.999-1.247-2.582-.709-.581-1.756-.872-3.141-.872-1.443 0-2.494.265-3.154.793-.659.528-.989 1.166-.989 1.911 0 .648.234 1.181.701 1.598.459.418 1.657.846 3.595 1.284 1.938.439 3.268.822 3.989 1.15 1.049.484 1.823 1.096 2.323 1.838.5.741.75 1.596.75 2.562 0 .96-.275 1.863-.824 2.711-.549.848-1.337 1.508-2.366 1.979-1.027.471-2.186.707-3.472.707-1.631 0-2.997-.238-4.099-.713-1.103-.476-1.968-1.191-2.595-2.145-.627-.955-.957-2.034-.989-3.239m17.676 5.789V55.644h2.385v7.399h9.366v-7.399h2.385v18.019h-2.385v-8.494h-9.366v8.494zm17.382-8.775c0-2.992.803-5.333 2.408-7.025 1.607-1.692 3.681-2.539 6.22-2.539 1.664 0 3.164.398 4.499 1.192 1.336.796 2.354 1.904 3.056 3.326.7 1.421 1.05 3.033 1.05 4.836 0 1.828-.369 3.462-1.105 4.905-.738 1.442-1.783 2.534-3.135 3.275a8.955 8.955 0 01-4.376 1.113c-1.695 0-3.213-.41-4.548-1.23a7.902 7.902 0 01-3.037-3.355 10.173 10.173 0 01-1.032-4.498m2.458.036c0 2.171.584 3.882 1.752 5.132s2.632 1.874 4.394 1.874c1.795 0 3.272-.63 4.431-1.892 1.16-1.262 1.739-3.053 1.739-5.372 0-1.467-.247-2.747-.743-3.841-.496-1.094-1.221-1.943-2.175-2.545-.955-.602-2.027-.903-3.215-.903-1.688 0-3.141.58-4.357 1.739-1.218 1.16-1.826 3.095-1.826 5.808m17.884 8.739v-18.02h7.99c1.604 0 2.825.162 3.661.486.837.324 1.504.896 2.004 1.715.5.819.751 1.724.751 2.716 0 1.279-.415 2.356-1.242 3.233-.828.877-2.106 1.434-3.835 1.672.631.303 1.109.602 1.438.897.696.639 1.356 1.438 1.979 2.397l3.135 4.904h-3l-2.384-3.748c-.696-1.083-1.271-1.91-1.721-2.484-.45-.574-.854-.975-1.212-1.204a3.533 3.533 0 00-1.088-.479c-.27-.058-.713-.087-1.327-.087H508.7v8.002h-2.383zm2.384-10.067h5.125c1.091 0 1.943-.112 2.559-.338.614-.225 1.08-.585 1.4-1.081.319-.496.48-1.035.48-1.617 0-.852-.311-1.552-.93-2.101-.617-.549-1.595-.824-2.931-.824H508.7v5.961zm15.808 10.067V55.644h13.029v2.127h-10.645v5.517h9.969v2.115h-9.969v6.134h11.063v2.126zm49.715-8.773c0-2.992.804-5.333 2.409-7.025 1.607-1.692 3.68-2.539 6.219-2.539 1.664 0 3.164.398 4.499 1.192 1.336.796 2.354 1.904 3.057 3.326.699 1.421 1.05 3.033 1.05 4.836 0 1.828-.369 3.462-1.106 4.905-.737 1.442-1.782 2.534-3.134 3.275a8.955 8.955 0 01-4.376 1.113c-1.696 0-3.213-.41-4.548-1.23-1.336-.819-2.35-1.937-3.037-3.355s-1.033-2.917-1.033-4.498m2.458.036c0 2.171.584 3.882 1.752 5.132s2.632 1.874 4.395 1.874c1.795 0 3.271-.63 4.431-1.892 1.16-1.262 1.739-3.053 1.739-5.372 0-1.467-.247-2.747-.743-3.841-.496-1.094-1.221-1.943-2.175-2.545-.955-.602-2.027-.903-3.215-.903-1.688 0-3.142.58-4.357 1.739-1.218 1.16-1.827 3.095-1.827 5.808m17.971 8.739v-18.02h12.156v2.127h-9.771v5.58h8.456v2.126h-8.456v8.187zm15.377 0v-18.02h12.157v2.127h-9.773v5.58h8.457v2.126h-8.457v8.187zm14.442-5.789l2.25-.196c.106.901.354 1.641.743 2.218.389.578.994 1.045 1.813 1.402.819.356 1.741.534 2.766.534.91 0 1.713-.136 2.41-.406.696-.27 1.214-.641 1.554-1.113.34-.47.51-.985.51-1.541 0-.566-.164-1.06-.49-1.482-.328-.422-.869-.776-1.623-1.063-.483-.189-1.554-.481-3.208-.879-1.655-.398-2.814-.772-3.479-1.124-.861-.451-1.502-1.011-1.924-1.679s-.634-1.415-.634-2.243c0-.909.259-1.76.774-2.55.518-.791 1.271-1.391 2.263-1.801.99-.41 2.094-.614 3.307-.614 1.335 0 2.513.215 3.533.645s1.805 1.063 2.354 1.898c.549.836.844 1.783.885 2.841l-2.285.171c-.123-1.139-.539-1.999-1.247-2.581-.709-.582-1.756-.873-3.142-.873-1.442 0-2.494.265-3.153.793-.658.528-.989 1.166-.989 1.911 0 .648.234 1.181.701 1.598.459.418 1.656.846 3.595 1.284 1.938.439 3.268.822 3.989 1.151 1.049.483 1.822 1.096 2.322 1.837.5.741.75 1.596.75 2.562 0 .96-.274 1.863-.823 2.711-.549.848-1.337 1.508-2.366 1.979-1.028.471-2.186.707-3.472.707-1.632 0-2.997-.238-4.1-.713-1.102-.476-1.967-1.191-2.594-2.145-.627-.955-.957-2.034-.99-3.239m17.676 5.789v-18.02h2.384v7.4h9.367v-7.4h2.384v18.02h-2.384v-8.494h-9.367v8.494zm17.381-8.775c0-2.992.803-5.333 2.409-7.025s3.68-2.539 6.219-2.539c1.664 0 3.164.398 4.499 1.192 1.336.796 2.354 1.904 3.057 3.326.699 1.421 1.05 3.033 1.05 4.836 0 1.828-.369 3.462-1.106 4.905-.738 1.442-1.783 2.534-3.134 3.275a8.96 8.96 0 01-4.376 1.113c-1.696 0-3.213-.41-4.548-1.23-1.336-.819-2.35-1.937-3.037-3.355s-1.033-2.917-1.033-4.498m2.458.036c0 2.171.584 3.882 1.752 5.132s2.632 1.874 4.395 1.874c1.795 0 3.271-.63 4.431-1.892 1.16-1.262 1.739-3.053 1.739-5.372 0-1.467-.247-2.747-.743-3.841-.496-1.094-1.221-1.943-2.175-2.545-.955-.602-2.027-.903-3.216-.903-1.688 0-3.141.58-4.356 1.739-1.217 1.16-1.827 3.095-1.827 5.808m17.884 8.739v-18.02h7.991c1.605 0 2.826.162 3.662.486.836.324 1.503.896 2.003 1.715.5.819.751 1.724.751 2.716 0 1.279-.415 2.356-1.242 3.233s-2.105 1.434-3.835 1.672c.632.303 1.11.602 1.438.897.696.639 1.355 1.438 1.979 2.397l3.136 4.904h-3l-2.385-3.748c-.695-1.083-1.271-1.91-1.721-2.484-.45-.574-.854-.975-1.211-1.204a3.533 3.533 0 00-1.088-.479c-.27-.058-.713-.087-1.327-.087h-2.766v8.002h-2.385zm2.386-10.067h5.125c1.091 0 1.942-.112 2.558-.338.615-.225 1.081-.585 1.401-1.081a2.94 2.94 0 00.479-1.617c0-.852-.309-1.552-.928-2.101-.618-.549-1.595-.824-2.931-.824h-5.704v5.961zm15.807 10.067v-18.02h13.029v2.127h-10.644v5.518h9.968v2.115h-9.968v6.134h11.062v2.126z"/></svg>