<?xml version="1.0" encoding="UTF-8"?>
<svg id="Camada_2" data-name="Camada 2" xmlns="http://www.w3.org/2000/svg" viewBox="0 0 102.44 49.22">
  <defs>
    <style>
      .cls-1 {
        fill: #91d8f7;
      }

      .cls-2 {
        fill: #2ba859;
      }

      .cls-3 {
        fill: #35363a;
      }

      .cls-4 {
        fill: #fff;
      }

      .cls-5 {
        fill: #9dd3af;
      }

      .cls-6 {
        fill: #3e3f95;
      }

      .cls-7 {
        fill: #1d98da;
      }
    </style>
  </defs>
  <g id="Camada_1-2" data-name="Camada 1">
    <g>
      <path class="cls-3" d="M77.56,24.76c0-2.05,0-4.09,0-6.14,0-.29,0-.29-.28-.29-.73,0-1.47,0-2.2,0-.27,0-.28,0-.28.3,0,.5,0,1.01,0,1.53-.05-.02-.06-.02-.06-.02-.03-.05-.07-.11-.1-.17-.35-.67-.87-1.17-1.54-1.52-.52-.27-1.07-.43-1.66-.49-1.34-.14-2.6.05-3.72.85-.97.68-1.65,1.6-2.02,2.72-.67,2.03-.63,4.07.08,6.08.31.87.81,1.63,1.54,2.2,1.49,1.18,3.18,1.37,4.97.94.94-.22,1.65-.82,2.26-1.55.06-.08.1-.19.19-.2,0,.67.01,1.32,0,1.98-.01.44-.11.87-.26,1.28-.26.73-.76,1.21-1.51,1.43-.77.23-1.55.25-2.34.15-.37-.05-.72-.16-1.05-.34-.4-.22-.64-.56-.73-1-.05-.24-.05-.25-.31-.24-.81.01-1.62.02-2.43.04-.3,0-.3,0-.27.29.07.78.37,1.45.91,2.02.59.62,1.32,1.01,2.13,1.24,1.77.49,3.55.44,5.32-.03,1.59-.43,2.57-1.45,3-3.04.26-.96.35-1.93.36-2.92.01-1.7,0-3.39,0-5.09M74.49,26.35c-.18.44-.44.83-.76,1.18-.73.78-1.65,1.03-2.68.93-.83-.08-1.54-.41-2.07-1.07-.38-.47-.59-1.02-.69-1.61-.19-1.01-.19-2.02.1-3.02.32-1.1.98-1.9,2.11-2.23.71-.21,1.43-.21,2.13,0,.92.27,1.5.91,1.87,1.76.28.64.35,1.33.37,2.03-.01.69-.09,1.38-.37,2.04"/>
      <path class="cls-3" d="M51.14,23.46c-.06-.74-.21-1.47-.49-2.17-.56-1.39-1.47-2.46-2.88-3.02-1.27-.5-2.57-.5-3.85-.08-.81.27-1.45.79-1.93,1.5-.1.14-.18.3-.27.45-.02,0-.04,0-.05-.01v-2.29c0-2.31,0-4.62,0-6.92,0-.32.03-.3-.3-.3-.7,0-1.4,0-2.1,0q-.39,0-.4.41c0,6.28,0,12.56,0,18.83,0,.18-.08.42.04.54.13.13.37.05.57.05.66,0,1.31,0,1.97,0,.17,0,.23-.05.22-.22-.01-.24,0-.48,0-.72v-.61c.14.17.22.27.31.37.68.8,1.5,1.36,2.55,1.56.8.15,1.61.15,2.41-.01,1.77-.37,2.96-1.44,3.65-3.08.58-1.37.67-2.82.56-4.28M48.02,26.28c-.36,1.14-1.11,1.9-2.31,2.12-1.29.24-2.41-.09-3.25-1.15-.53-.67-.79-1.45-.87-2.3-.02-.22,0-.44,0-.65-.03-.54.03-1.07.18-1.59.46-1.54,1.6-2.45,3.38-2.34,1.42.09,2.44.89,2.87,2.25.38,1.21.38,2.44,0,3.65"/>
      <path class="cls-7" d="M4.94,31.9c-1.35-.71-2.44-1.72-3.47-2.82-.66-.7-.94-1.57-1.18-2.45-.49-1.81-.33-3.59.22-5.36.47-1.52,1.16-2.95,1.9-4.35.92-1.74,1.92-3.44,2.82-5.18,1.06-2.04,1.99-4.14,2.62-6.35.43-1.52.74-3.06.84-4.63.02-.25.04-.5.07-.75.09.02.09.11.11.17.62,1.93,1.12,3.88,1.44,5.88.28,1.8.38,3.61.27,5.42-.05.82-.17,1.63-.32,2.43-.05.06,0,.15-.06.2h0c-.14.01-.15-.11-.18-.19-.1-.29-.21-.58-.28-.87-.06.48-.06.96-.16,1.44-.11.48-.26.95-.44,1.41-.18.47-.42.92-.66,1.36-.24.43-.52.84-.8,1.24-.88,1.22-1.9,2.31-2.87,3.46-.83.99-1.65,1.99-2.16,3.2-.59,1.41-.44,2.75.29,4.06.48.86,1.14,1.57,1.84,2.25.1.1.22.19.27.32.04.1.03.18-.12.11"/>
      <path class="cls-3" d="M36.33,18.71c0-.05,0-.11,0-.16.02-.17-.05-.23-.22-.22-.77,0-1.53,0-2.3,0-.23,0-.24,0-.24.23,0,.52,0,1.05,0,1.6-.11-.05-.13-.14-.16-.2-.44-.83-1.12-1.4-1.99-1.72-1.27-.46-2.56-.48-3.82-.02-1.53.55-2.52,1.67-3.08,3.16-.7,1.88-.67,3.79-.14,5.7.29,1.03.81,1.93,1.64,2.64,1.27,1.09,2.77,1.33,4.37,1.15,1.22-.14,2.17-.76,2.94-1.69.06-.08.11-.18.25-.24,0,.43,0,.82,0,1.21,0,.29,0,.29.28.29.7,0,1.4,0,2.1,0,.43,0,.38.05.38-.39,0-3.78,0-7.57,0-11.35M33.38,26.01c-.17.55-.45,1.04-.84,1.47-.73.82-1.67,1.08-2.73.97-.27-.03-.54-.08-.8-.18-.79-.29-1.35-.83-1.68-1.6-.31-.72-.4-1.47-.4-2.24,0-.6.06-1.2.25-1.78.49-1.53,1.73-2.38,3.34-2.28,1.44.09,2.42.84,2.85,2.21.35,1.13.35,2.28,0,3.42"/>
      <path class="cls-3" d="M91.3,18.32c-.78,0-1.55,0-2.33,0-.18,0-.22.07-.22.23,0,.43,0,.85,0,1.28,0,.09,0,.18-.01.28-.09-.03-.11-.1-.13-.16-.43-.81-1.08-1.38-1.93-1.7-1.41-.53-2.83-.52-4.22.09-1.38.62-2.27,1.72-2.79,3.12-.47,1.26-.53,2.56-.43,3.88.07.82.23,1.62.56,2.38.55,1.3,1.44,2.29,2.77,2.82.81.32,1.65.4,2.51.37,1.4-.05,2.52-.64,3.41-1.71.07-.08.13-.16.2-.25.09.08.05.16.05.23,0,.33,0,.66,0,.98,0,.26,0,.26.25.26.75,0,1.51,0,2.26,0,.25,0,.25,0,.26-.25,0-.07,0-.13,0-.2v-11.25c0-.07,0-.13,0-.2.02-.17-.04-.23-.22-.23M88.61,25.93c-.17.58-.46,1.09-.85,1.54-.73.82-1.66,1.09-2.72.99-.84-.08-1.56-.41-2.09-1.09-.4-.5-.6-1.09-.71-1.71-.07-.4-.08-.8-.1-1.16,0-.68.06-1.31.27-1.92.48-1.39,1.54-2.17,3-2.21.38,0,.77.02,1.14.13.88.25,1.46.84,1.86,1.64.21.43.33.88.37,1.35.09.82.08,1.64-.16,2.44"/>
      <path class="cls-3" d="M64.3,22.18c-.54-2.08-1.82-3.44-3.9-4.02-1-.28-2.03-.33-3.06-.19-2.54.35-4.24,1.77-5.05,4.19-.55,1.62-.49,3.29.09,4.89.67,1.87,2,3.1,3.93,3.64,1.06.29,2.14.32,3.22.16,2.23-.31,3.79-1.57,4.85-3.51-.07-.09-.16-.12-.25-.17-.57-.32-1.14-.64-1.71-.97q-.34-.19-.54.15c-.6,1.03-1.43,1.76-2.64,1.96-.4.07-.8.11-1.21.08-1.35-.09-2.3-.75-2.84-1.99-.17-.39-.25-.81-.32-1.23-.05-.37-.05-.37.34-.37h8.89c.08,0,.15,0,.23,0,.14.01.19-.04.19-.18,0-.82-.02-1.64-.22-2.44M61.39,22.92c-.94,0-1.88,0-2.82,0-1.06,0-2.12,0-3.18,0-.11,0-.22.02-.34-.03.2-1.31,1.22-2.35,2.5-2.55.73-.11,1.46-.1,2.17.12,1.12.34,1.69,1.14,1.88,2.25.03.2.02.21-.21.21"/>
      <path class="cls-2" d="M18.62,24.63c.04.47.11.93.07,1.4-.06.61-.21,1.18-.45,1.74-.31.73-.73,1.39-1.28,1.97-.72.76-1.47,1.47-2.36,2.01-.29.18-.59.33-.92.42-.22.04-.21-.13-.19-.24.14-.74.08-1.47-.03-2.2-.02-.12-.01-.24.08-.34.05-1.27-.16-2.5-.49-3.72-.33-1.22-.7-2.43-1.04-3.66-.36-1.3-.6-2.62-.64-3.97-.06-2,.35-3.91,1.11-5.75.1-.23.22-.45.28-.7-.01-.26.15-.45.26-.66.03-.07.09-.14.18-.12.09.02.1.11.12.18.08.38.12.78.19,1.16.34,1.86.91,3.64,1.72,5.35.66,1.4,1.47,2.71,2.21,4.05.46.84.92,1.69,1.17,2.63.04.14.08.27.03.42"/>
      <path class="cls-1" d="M4.94,31.9s.14.01.08-.08c-.04-.07-.12-.12-.18-.18-.74-.7-1.43-1.45-1.94-2.34-.45-.77-.72-1.6-.7-2.49.01-.68.2-1.33.49-1.95.38-.82.89-1.55,1.47-2.24.85-1.02,1.72-2.01,2.56-3.03.85-1.02,1.62-2.09,2.17-3.31.41-.91.7-1.86.73-2.87,0-.21.04-.41.07-.66.15.3.21.59.31.85.07.17.07.36.2.51.02.33.14.64.22.95.4,1.52.6,3.06.49,4.63-.09,1.36-.51,2.62-1.24,3.78-.5.8-1.11,1.51-1.72,2.23-.44.53-.87,1.06-1.21,1.67-.34.61-.53,1.26-.56,1.96-.04.93.21,1.79.54,2.64.22.55.48,1.08.78,1.59.04.06.09.12.08.23-.27-.13-.49-.32-.72-.49-.48-.35-.95-.7-1.38-1.1-.16-.15-.39-.14-.53-.3"/>
      <path class="cls-6" d="M18.62,24.63c-.34-1.43-1.08-2.68-1.81-3.94-.8-1.39-1.59-2.79-2.19-4.28-.56-1.39-.99-2.82-1.22-4.3-.06-.41-.14-.81-.21-1.25-.22.22-.27.53-.44.75-.29-.74-.48-1.52-.65-2.29-.17-.74-.27-1.48-.3-2.24-.07-1.52.2-2.98.83-4.37.02-.04.03-.08.1-.09.06.42.12.85.19,1.27.33,1.79,1.03,3.45,1.95,5.01.78,1.33,1.7,2.57,2.6,3.82.72.99,1.43,1.99,2.02,3.06.53.98.94,2,1.09,3.1.16,1.13.03,2.24-.29,3.34-.2.67-.49,1.28-1.02,1.76-.22.21-.41.45-.66.64"/>
      <path class="cls-3" d="M99.92,21.19c-.09-.03-.1-.09-.12-.14-.17-.36-.44-.63-.79-.81-.73-.37-1.47-.37-2.21-.03-.35.16-.56.44-.66.81-.1.37-.01.69.23.97.18.21.4.37.64.51.42.25.88.44,1.34.6.64.22,1.27.47,1.88.77.33.16.65.36.95.58.97.73,1.34,1.73,1.25,2.91-.12,1.58-.97,2.65-2.45,3.17-1.64.57-3.31.58-4.95-.03-1.09-.4-1.83-1.2-2.33-2.23.06-.1.16-.13.24-.18.61-.34,1.23-.67,1.84-1,.12-.07.19-.1.26.08.41,1.11,1.25,1.61,2.4,1.64.36.01.72.01,1.08-.08.74-.2,1.18-.75,1.18-1.46,0-.32-.13-.57-.33-.8-.24-.27-.53-.45-.84-.61-.31-.16-.64-.28-.97-.4-.83-.31-1.64-.67-2.4-1.12-.22-.13-.43-.27-.63-.42-.96-.71-1.3-1.7-1.17-2.85.16-1.37,1.01-2.22,2.2-2.76.87-.4,1.81-.48,2.76-.44.76.03,1.49.19,2.17.56.53.29.96.69,1.25,1.22.11.2.11.21-.08.34-.58.4-1.17.8-1.74,1.19"/>
      <path class="cls-5" d="M13.54,29.4c0,.37.07.73.11,1.1.05.48,0,.96-.08,1.43-.02.1-.07.22.1.24-.12.06-.19.14-.23.29-.06.24-.15.48-.25.71-.2.45-.44.87-.83,1.2-.64.54-1.26,1.12-1.97,1.58-.11.07-.22.14-.35.18-.22.08-.35-.02-.3-.25.04-.23.12-.44.23-.65.26-.5.53-1.01.79-1.51.14-.27.25-.56.34-.85.19-.62.18-1.25.05-1.88-.14-.64-.3-1.27-.43-1.91-.2-1.02-.3-2.05-.28-3.09,0-.19,0-.37,0-.61-.08.12-.1.21-.11.31-.11,1.09-.37,2.15-.79,3.16-.41.99-.6,2.01-.52,3.07.04.44.05.89.16,1.33.05.18.04.37.03.56-.01.19-.1.24-.29.15-.1-.05-.18-.13-.25-.2-.42-.42-.74-.92-1.05-1.42-.16-.26-.3-.53-.44-.8-.42-.8-.48-1.64-.31-2.51.17-.84.57-1.58,1.04-2.28.53-.79,1.09-1.56,1.62-2.35.71-1.04,1.25-2.15,1.54-3.38.05-.2.09-.4.15-.67.03.55.02,1.02.07,1.49.1.84.27,1.65.51,2.46.38,1.35.94,2.63,1.36,3.96.09.28.17.56.25.85.03.1.04.21.12.3"/>
      <path class="cls-3" d="M89.37,13.05c0,.1-.09.14-.15.19-1.11,1.04-2.22,2.07-3.34,3.1-.08.07-.15.16-.27.16-.47,0-.94,0-1.4,0-.03-.13.05-.18.1-.25.7-1,1.4-2,2.1-3.01.11-.16.22-.24.42-.23.79.01,1.57,0,2.36,0,.06,0,.13-.03.18.03"/>
      <path class="cls-3" d="M38.8,41.35c-.03-.28-.14-.51-.45-.62.3-.27.34-.35.35-.71,0-.16,0-.33-.01-.49-.04-.4-.2-.56-.6-.61-.07,0-.13-.02-.2-.02-.59,0-1.18,0-1.77,0-.16,0-.2.05-.2.21,0,1.14,0,2.27,0,3.41,0,.16.06.2.21.2.51,0,1.03,0,1.54,0,.21,0,.41-.03.61-.08.26-.07.41-.24.47-.5.06-.26.07-.52.04-.78M36.34,39.47c0-.13.05-.18.17-.18.23,0,.46,0,.69,0v.02c.24,0,.48-.01.72,0,.23.02.3.09.34.32.01.06.02.13.02.19,0,.65-.13.7-.67.71-.36,0-.72,0-1.08,0-.14,0-.2-.04-.19-.19,0-.3,0-.59,0-.89M38.36,41.93c-.03.24-.11.31-.36.36-.28.06-.57.02-.79.03-.28,0-.5,0-.72,0-.11,0-.16-.05-.16-.16,0-.36,0-.72,0-1.08,0-.1.04-.14.14-.14.5,0,1.01-.03,1.5.03.25.03.35.13.38.38.03.2.02.39,0,.59"/>
      <path class="cls-3" d="M55.9,47.24c0,.31-.01.61,0,.92.02.37.2.57.56.62.42.06.85.06,1.28,0,.35-.05.5-.21.53-.56q.05-.57-.52-.57c-.11,0-.22,0-.33,0-.22,0-.22,0-.22-.22,0-.12.02-.18.16-.18.39,0,.79,0,1.18,0,.1,0,.17.02.16.14-.01.32.02.63-.04.95-.1.48-.32.72-.79.8-.53.08-1.07.09-1.6,0-.47-.08-.69-.32-.79-.8-.06-.28-.05-.57-.04-.85,0-.45-.04-.9.04-1.34.1-.55.35-.81.91-.87.46-.05.92-.05,1.38,0,.6.07.93.41.94.95,0,.12-.01.22-.17.21-.12,0-.27.04-.27-.17,0-.38-.24-.57-.64-.6-.36-.02-.72-.03-1.08,0-.43.04-.63.24-.65.67-.01.29,0,.59,0,.89"/>
      <path class="cls-3" d="M12.82,46.44c-.02-.7-.33-1.01-1.02-1.08-.04,0-.09,0-.13,0-.59,0-1.18,0-1.77,0-.22,0-.22,0-.22.25,0,.55,0,1.09,0,1.64s0,1.11,0,1.67c0,.24,0,.25.25.25.58,0,1.16,0,1.74,0,.18,0,.35-.03.52-.08.28-.09.47-.27.56-.55.05-.15.08-.3.08-.45,0-.55.01-1.09,0-1.64M12.38,48.18c-.05.4-.21.54-.63.58-.31.02-.63.02-.95.01-.22,0-.5.09-.63-.04-.15-.14-.05-.43-.05-.66,0-.27,0-.55,0-.82,0-.44,0-.87,0-1.31,0-.16.05-.2.21-.2.43,0,.85,0,1.28,0,.04,0,.09,0,.13,0,.47.06.63.18.66.65.05.59.06,1.18-.01,1.76"/>
      <path class="cls-3" d="M72.83,40.79c0-.56,0-1.12,0-1.67,0-.17.05-.23.22-.22.75,0,1.51,0,2.26,0,.14,0,.22.03.22.2,0,.17-.07.2-.22.2-.59,0-1.18,0-1.77,0-.29,0-.29,0-.29.28,0,.24,0,.48,0,.72,0,.23,0,.24.23.24.51,0,1.03,0,1.54,0,.08,0,.15,0,.23,0,.15-.01.21.04.21.2,0,.17-.09.19-.23.19-.57,0-1.14,0-1.71,0-.28,0-.28,0-.28.29,0,.28,0,.57,0,.85,0,.23,0,.23.24.23.56,0,1.12,0,1.67,0,.08,0,.15,0,.23,0,.12,0,.14.08.13.18,0,.1.02.21-.13.21-.04,0-.09,0-.13,0-.72,0-1.44,0-2.17,0-.26,0-.26,0-.27-.27,0-.55,0-1.09,0-1.64"/>
      <path class="cls-3" d="M76.6,40.21c.57-.45,1.18-.41,1.65.09.28-.41.7-.43,1.14-.36.39.07.56.26.61.66,0,.04,0,.09,0,.13,0,.59,0,1.18,0,1.77,0,.15-.03.22-.2.21-.17,0-.2-.07-.2-.22,0-.51,0-1.03,0-1.54,0-.59-.23-.76-.81-.65-.23.04-.38.17-.44.39-.05.16-.07.32-.06.49,0,.44,0,.87,0,1.31,0,.22-.04.24-.25.22-.12-.01-.15-.07-.14-.17,0-.15,0-.31,0-.46,0-.45,0-.9,0-1.35,0-.32-.12-.42-.44-.45-.57-.05-.85.19-.86.76-.02.48,0,.96,0,1.44,0,.21-.03.22-.22.22-.12,0-.17-.05-.17-.18,0-.78,0-1.55,0-2.33,0-.09,0-.19.12-.18.12,0,.28-.05.27.19"/>
      <path class="cls-3" d="M67.58,47.24c0,.27,0,.55,0,.82-.01.52.27.73.68.74.31.01.61.03.92-.02.36-.05.49-.19.52-.56,0-.04,0-.09,0-.13.02-.25.08-.3.31-.26.08.01.12.05.12.13,0,.29-.01.57-.15.83-.12.23-.33.33-.56.37-.51.09-1.02.09-1.53,0-.38-.07-.62-.31-.7-.69-.04-.18-.06-.37-.06-.55,0-.45,0-.9,0-1.35,0-.16.02-.33.05-.49.09-.49.33-.73.83-.78.42-.05.85-.05,1.28,0,.58.07.91.5.84,1.08-.02.15-.11.14-.21.14-.1,0-.21.03-.24-.14-.09-.61-.18-.69-.79-.71-.25,0-.5,0-.75.02-.35.03-.54.22-.56.57-.02.33,0,.66,0,.98h0"/>
      <path class="cls-3" d="M8.26,42.41c-.38-1.03-.77-2.07-1.15-3.1-.18-.48-.05-.39-.59-.41-.2,0-.28.07-.35.25-.4,1.11-.82,2.21-1.22,3.32-.03.07-.08.13-.04.22q.38.05.5-.28c.06-.16.13-.32.18-.49.04-.13.11-.17.24-.17.52,0,1.05,0,1.58,0,.13,0,.2.04.24.17.07.22.17.43.24.64.04.11.1.16.22.15.08,0,.15,0,.27-.01-.05-.13-.07-.21-.1-.29M5.82,41.35c.02-.2.11-.36.17-.53.16-.46.34-.92.51-1.38.02-.05.03-.11.1-.12.07,0,.1.03.12.09.24.64.47,1.28.72,1.94h-1.61Z"/>
      <path class="cls-3" d="M64.12,39.15s0-.09,0-.13c0-.08-.03-.11-.11-.12-.21-.03-.28.02-.28.23,0,.36,0,.71,0,1.05-.05.03-.07.02-.08,0-.37-.31-.99-.37-1.41-.15-.19.1-.31.26-.34.46-.11.55-.11,1.11,0,1.66.05.24.19.43.43.49.49.14.97.18,1.38-.21.1.07,0,.22.13.27.19.06.29-.02.29-.24,0-1.1,0-2.21,0-3.31M63.72,41.65c-.02.45-.2.65-.64.71-.06,0-.13.02-.19.02-.46,0-.6-.14-.62-.61,0-.15,0-.31,0-.46h.01c0-.2-.02-.39,0-.59.03-.3.14-.4.43-.43.08,0,.15-.01.23-.01.54,0,.77.24.78.78,0,.2,0,.39,0,.59"/>
      <path class="cls-3" d="M90.12,48.95c0-1.13,0-2.25,0-3.38,0-.14-.02-.22-.19-.22-.16,0-.21.05-.21.21,0,.37,0,.74,0,1.17-.43-.43-.88-.38-1.34-.28-.28.06-.46.26-.51.54-.1.53-.1,1.07,0,1.6.05.31.26.51.56.57.45.09.89.12,1.25-.25.02.03.04.04.04.06.05.2.09.22.27.21.17-.02.11-.14.11-.22M89.72,48.2c-.03.37-.23.57-.59.63-.01,0-.02,0-.03,0-.74.05-.82-.15-.83-.72,0-.11,0-.22,0-.33h.02c0-.21-.02-.42,0-.62.03-.27.13-.36.39-.41.16-.03.33-.03.49,0,.35.07.53.26.56.62.02.27.02.55,0,.82"/>
      <path class="cls-3" d="M49.75,45.36c-.11,0-.23-.01-.21.16,0,.09,0,.17,0,.26,0,.3,0,.6,0,.95-.42-.44-.87-.38-1.33-.29-.3.06-.47.27-.52.57-.09.51-.09,1.02,0,1.53.07.38.27.56.66.63.43.07.84.06,1.18-.27q.06.28.38.25s.02-.02.02-.03c0-1.2,0-2.4.01-3.6,0-.14-.07-.16-.18-.16M49.53,48.21c-.03.36-.22.55-.57.61-.04,0-.09.01-.13.01-.59.04-.74-.11-.75-.7,0-.12,0-.24,0-.36h.01c0-.2-.02-.39,0-.59.03-.29.14-.4.43-.44.14-.02.28-.02.42,0,.37.07.56.26.58.64.02.27.02.54,0,.82"/>
      <path class="cls-3" d="M33.65,45.52c0-.13-.05-.17-.17-.17-.21,0-.22,0-.22.22,0,.37,0,.73,0,1.15-.41-.43-.86-.38-1.32-.29-.29.06-.48.26-.53.56-.09.52-.09,1.04,0,1.56.06.34.28.54.61.6.44.08.87.09,1.22-.27q.07.28.41.26c0-1.23,0-2.43,0-3.63M33.24,48.2c-.02.37-.23.57-.59.63-.01,0-.02,0-.03,0-.74.05-.82-.15-.83-.72,0-.12,0-.24,0-.36,0,0,0,0,0,0,0-.2,0-.39.03-.59.03-.27.13-.36.39-.41.16-.03.33-.03.49,0,.35.07.53.26.56.62.02.27.02.54,0,.82"/>
      <path class="cls-3" d="M26.47,47.08c-.04-.35-.23-.6-.59-.66-.44-.07-.9-.13-1.29.32,0-.45,0-.82,0-1.19,0-.12,0-.21-.17-.2-.13,0-.23,0-.23.18,0,1.15,0,2.29,0,3.44,0,.14.04.2.19.19.12,0,.22,0,.2-.16,0-.04-.02-.08.04-.13.31.35.71.36,1.14.3.44-.07.66-.26.71-.69.05-.47.05-.94,0-1.41M26.03,48.47c-.04.22-.17.32-.37.36-.15.03-.31.03-.46,0-.35-.05-.53-.21-.59-.56-.06-.33-.06-.67,0-1.01.05-.26.21-.42.47-.48.05-.01.11-.03.16-.03.58-.07.78.1.81.68,0,.13,0,.26,0,.34,0,.27,0,.48-.04.7"/>
      <path class="cls-3" d="M83.08,40.65c-.04-.42-.24-.62-.66-.71-.44-.09-.87-.07-1.24.34.04-.25-.07-.28-.24-.28-.17,0-.15.13-.15.23,0,1.09,0,2.19,0,3.28,0,.17.08.19.22.2.15,0,.19-.05.18-.19,0-.36,0-.72,0-1.16.36.41.78.4,1.19.34.43-.06.65-.29.69-.71.04-.45.04-.9,0-1.34M82.63,42.02c-.04.18-.14.28-.32.32-.22.05-.43.04-.65-.02-.22-.06-.37-.2-.42-.42-.09-.39-.09-.78,0-1.17.05-.24.22-.37.45-.43.2-.05.41-.05.62,0,.18.03.29.14.32.32.05.24.05.48.05.72,0,.23,0,.46-.05.68"/>
      <path class="cls-3" d="M52.59,41.85c-.16,0-.27,0-.3.2-.03.18-.17.27-.35.29-.11.01-.22.03-.33.03-.64,0-.8-.16-.78-.79,0-.17.07-.2.22-.2.25,0,.5,0,.75,0h.33q.71,0,.63-.72s-.01-.09-.02-.13c-.07-.32-.26-.52-.59-.58-.38-.08-.76-.08-1.14,0-.3.06-.49.24-.55.54-.1.54-.1,1.09,0,1.63.05.28.23.47.51.54.4.1.8.1,1.2,0,.33-.08.49-.3.56-.61.03-.12.02-.21-.15-.21M51.35,40.29c.18-.01.37,0,.55,0,.31.03.51.34.44.64-.02.09-.08.08-.15.09-.21,0-.41,0-.62,0-.2,0-.39,0-.59,0-.11,0-.15-.03-.15-.15-.01-.4.13-.57.52-.59"/>
      <path class="cls-3" d="M86.76,41.39c.34,0,.68,0,1.02,0,.2,0,.39,0,.59,0,.08,0,.15-.02.16-.12,0-.3.01-.59-.09-.87-.08-.22-.24-.36-.47-.42-.38-.1-.76-.1-1.14-.03-.4.08-.6.28-.64.68-.05.46-.05.92,0,1.37.05.42.26.62.67.7.31.06.63.06.95,0,.47-.08.64-.3.69-.82-.03-.01-.06-.03-.09-.03-.26-.02-.26-.02-.37.23-.06.14-.16.23-.31.25-.13.02-.26.04-.39.04-.59,0-.74-.1-.76-.79,0-.14.04-.2.19-.2M87.12,40.29c.18-.01.37,0,.55.01.31.04.5.35.41.65-.02.07-.07.08-.12.08-.21,0-.41,0-.62,0s-.41,0-.62,0c-.11,0-.15-.05-.15-.16,0-.4.15-.56.54-.58"/>
      <path class="cls-3" d="M24.37,42.47c0-.59,0-1.18,0-1.77,0-.12-.02-.24-.05-.36-.04-.19-.17-.31-.35-.36-.48-.11-.95-.12-1.43,0-.23.06-.38.26-.38.48,0,.06,0,.11.07.13.12.05.29,0,.35-.13.06-.15.18-.19.31-.21.26-.03.52-.03.78.02.16.03.25.12.28.28.05.21.02.42.02.66-.48-.25-.95-.22-1.43-.15-.26.04-.4.21-.45.46-.04.23-.04.46,0,.68.04.2.15.38.36.43.52.13,1.03.18,1.51-.13.07.18.15.22.3.19.15-.03.1-.15.1-.24M23.72,42.3c-.32.11-.64.11-.97.02-.18-.05-.27-.22-.26-.48,0-.26.08-.39.29-.45.04-.01.08-.03.13-.03.1,0,.2-.01.29-.02.17,0,.33.02.48.07.22.07.28.16.29.41,0,.29-.04.39-.26.47"/>
      <path class="cls-3" d="M59.37,42.47c0-.59,0-1.18,0-1.77,0-.12-.02-.24-.05-.36-.04-.17-.15-.3-.32-.34-.5-.12-1-.14-1.49,0-.23.06-.32.25-.35.47,0,.06,0,.11.07.13.12.05.29,0,.35-.13.06-.15.18-.19.31-.21.26-.03.52-.03.78.02.16.03.24.12.28.28.05.21.02.42.02.66-.48-.26-.95-.22-1.43-.15-.26.04-.4.21-.45.46-.04.23-.04.46,0,.68.04.2.15.38.36.43.52.12,1.03.18,1.53-.15-.03.21.1.21.25.21.18,0,.14-.14.14-.24M58.72,42.3c-.32.11-.65.11-.97.02-.18-.05-.27-.22-.26-.48,0-.26.08-.38.29-.45.14-.04.28-.04.44-.04.14,0,.3.02.46.06.22.07.28.16.29.41,0,.29-.04.39-.26.47"/>
      <path class="cls-3" d="M44.2,42.47c0-.59,0-1.18,0-1.77,0-.12-.02-.24-.05-.36-.04-.17-.15-.3-.32-.34-.5-.12-1-.14-1.49,0-.21.06-.35.26-.35.47,0,.06,0,.11.07.13.12.05.29,0,.35-.13.06-.13.15-.18.28-.2.27-.04.54-.04.81.01.16.03.25.12.28.28.05.21.02.42.02.65-.4-.17-.49-.18-.94-.18-.82,0-1.03.24-.95,1.06,0,.1.04.19.07.28.05.12.13.21.25.25.53.16,1.05.2,1.59-.11-.04.22.1.2.24.2.18,0,.14-.14.14-.24M43.56,42.29c-.33.12-.66.12-1,.02-.17-.05-.25-.24-.25-.49,0-.25.08-.36.28-.43.14-.05.28-.05.44-.04.16,0,.33.02.5.07.2.06.26.16.27.39.01.29-.03.4-.24.47"/>
      <path class="cls-3" d="M51.46,47.85c.46,0,.92,0,1.38,0,.08,0,.19.03.19-.11,0-.24.02-.48-.03-.72-.07-.35-.29-.56-.64-.61-.34-.05-.68-.05-1.01,0-.37.06-.57.25-.63.61-.09.5-.08,1,0,1.5.07.4.27.58.68.64.3.05.61.05.91,0,.47-.08.68-.33.7-.83-.03,0-.06-.02-.09-.02-.26-.01-.26-.01-.36.24-.07.17-.21.25-.38.27-.15.02-.31.02-.46.01-.45,0-.58-.14-.61-.58q-.02-.4.36-.4M51.6,46.75c.23-.02.46-.04.68.04.22.07.4.43.32.64-.03.08-.1.08-.16.08-.2,0-.39,0-.59,0-.2,0-.39,0-.59,0-.13,0-.17-.05-.17-.18,0-.37.14-.55.5-.58"/>
      <path class="cls-3" d="M67.14,42.48c0-.34,0-.68,0-1.02,0-.32,0-.63,0-.95,0-.24-.1-.44-.34-.51-.49-.13-1-.14-1.49,0-.22.06-.35.26-.35.47,0,.06,0,.11.06.14.1.05.29-.01.34-.13.06-.14.18-.19.31-.21.26-.04.52-.03.78.02.18.03.27.14.28.31.01.2,0,.4,0,.63-.47-.25-.95-.21-1.43-.14-.2.03-.34.15-.4.34-.09.3-.09.6,0,.9.05.15.15.28.31.32.52.13,1.03.19,1.56-.15-.03.23.11.23.25.21.15-.02.1-.14.11-.23M66.39,42.33c-.26.05-.52.07-.78,0-.25-.05-.33-.17-.33-.48,0-.31.06-.42.33-.48.25-.05.5-.05.75,0,.33.07.4.15.39.49,0,.29-.08.4-.35.46"/>
      <path class="cls-3" d="M30.3,42.5c0-.64,0-1.29,0-1.93,0-.26-.09-.5-.35-.57-.49-.13-1-.14-1.49,0-.19.05-.31.2-.34.4-.02.13,0,.21.16.2.11,0,.22,0,.25-.15.03-.14.15-.18.27-.2.15-.02.31-.03.46-.02.57.01.65.09.65.65,0,.1,0,.2-.02.32-.49-.25-.98-.21-1.46-.12-.2.04-.32.18-.37.37-.07.27-.07.54,0,.81.05.19.17.34.36.39.51.11,1.01.17,1.53-.16-.02.21.08.22.22.22.16,0,.13-.12.13-.21M29.67,42.3c-.32.1-.64.1-.97.03-.14-.03-.23-.13-.25-.28-.01-.11-.02-.22-.01-.32.02-.21.09-.28.3-.34.13-.04.26-.03.42-.04.14,0,.32.02.48.07.2.06.25.16.26.4,0,.21,0,.4-.24.48"/>
      <path class="cls-3" d="M94.52,42.5c0-.11,0-.22,0-.33,0-.54,0-1.07,0-1.61,0-.26-.09-.5-.35-.57-.49-.13-1-.14-1.49,0-.17.05-.28.17-.32.34-.02.09-.07.22.05.25.11.02.27.09.33-.1.05-.17.18-.22.32-.23.15-.02.31-.02.46-.02.53.02.61.1.61.62,0,.11,0,.22,0,.36-.51-.26-.99-.22-1.48-.13-.2.04-.32.18-.37.37-.07.27-.07.54,0,.81.05.2.17.34.36.38.51.11,1.01.17,1.53-.16-.03.22.09.22.22.22.16,0,.13-.12.13-.21M93.89,42.3c-.32.11-.64.1-.97.03-.12-.03-.2-.12-.23-.25-.03-.13-.03-.26-.01-.39.02-.16.11-.25.27-.29.14-.04.28-.04.45-.04.13,0,.3.02.45.06.21.06.27.15.28.38.01.33-.02.42-.24.5"/>
      <path class="cls-3" d="M25.5,41.36c0,.2-.02.39,0,.59.03.28.12.35.39.4.2.04.39.04.59.02.35-.04.42-.11.5-.45.02-.09.01-.19.16-.19.25,0,.29.02.26.27-.04.38-.22.59-.59.7-.15.04-.3.05-.45.05-.1,0-.14.04-.13.14,0,.08.03.12.11.12.01,0,.02,0,.03,0,.14,0,.3-.02.37.14.09.2.07.41,0,.61-.03.08-.1.11-.18.12-.24.04-.48.02-.72.02-.09,0-.1-.06-.1-.13,0-.09.06-.1.13-.1.12,0,.24,0,.36,0,.15,0,.22-.06.23-.21,0-.13,0-.29-.19-.27-.19.01-.23-.08-.21-.24.02-.16-.05-.19-.2-.21-.56-.07-.77-.27-.81-.81-.04-.44-.05-.89.03-1.34.06-.34.25-.55.59-.62.38-.08.76-.08,1.14.01.35.09.56.34.58.7,0,.08.03.2-.11.19-.11,0-.25.07-.31-.1-.01-.04-.02-.08-.03-.13-.04-.23-.19-.33-.41-.35-.21-.02-.42-.02-.62,0-.28.03-.39.13-.42.41-.02.22,0,.44,0,.65"/>
      <path class="cls-3" d="M79,48.95c0-.48,0-.96,0-1.44,0-.2,0-.39-.02-.59-.02-.27-.18-.45-.45-.49-.41-.07-.83-.08-1.24,0-.35.06-.48.24-.47.63.18.02.36.08.44-.19.03-.11.16-.13.28-.14.23-.02.46-.02.69,0,.26.03.34.1.37.37.02.18,0,.37,0,.58-.39-.18-1.03-.24-1.43-.15-.25.06-.4.22-.44.47-.04.22-.04.44,0,.65.04.26.2.44.46.49.45.08.91.14,1.33-.13.06-.04.09-.04.11.04.04.19.19.11.29.1.13,0,.08-.13.08-.21M78.35,48.77c-.31.1-.62.11-.93.03-.22-.05-.31-.24-.29-.52.01-.27.11-.39.36-.43.12-.02.24-.02.34-.03.19.02.37,0,.54.07.2.08.25.17.26.44,0,.26-.05.36-.26.43"/>
      <path class="cls-3" d="M42.11,46.97c0-.25-.12-.45-.38-.51-.47-.11-.95-.13-1.42,0-.3.08-.39.26-.34.6.16,0,.35.08.4-.19.02-.1.14-.13.24-.14.26-.03.52-.03.78,0,.2.03.29.11.31.32.02.2,0,.41,0,.62-.47-.26-.95-.19-1.43-.14-.22.02-.36.18-.42.41-.06.25-.06.49,0,.75.06.26.21.41.46.45.45.08.91.14,1.33-.13.03-.02.09-.05.1,0,.04.24.21.11.36.15,0-.77,0-1.49,0-2.21M41.47,48.77c-.3.1-.6.1-.9.03-.25-.05-.33-.23-.3-.57.02-.25.11-.35.36-.38.11-.02.22-.02.31-.02.19.02.37,0,.53.06.22.08.26.15.27.42,0,.31-.03.38-.26.46"/>
      <path class="cls-3" d="M61.56,49.02c0-.69,0-1.38,0-2.06,0-.3-.15-.47-.44-.53-.42-.08-.85-.09-1.27,0-.34.07-.45.24-.45.62.17.01.36.09.43-.18.03-.11.16-.13.28-.14.24-.03.48-.02.72,0,.23.03.32.11.34.33.02.2,0,.4,0,.61-.49-.26-.98-.19-1.47-.13-.05,0-.11.03-.15.06-.29.21-.28.53-.27.83.01.26.05.55.35.65.48.16.96.19,1.43-.04.08-.04.14-.11.17.05.03.13.16.06.25.07.09,0,.09-.07.09-.14M60.92,48.77c-.31.1-.62.11-.93.03-.23-.06-.3-.22-.28-.55.02-.25.1-.36.34-.4.12-.02.24-.02.34-.03.19.02.37,0,.54.07.21.09.25.15.25.44,0,.28-.04.36-.25.43"/>
      <path class="cls-3" d="M72.98,48.98c0-.25,0-.5,0-.75,0-.42,0-.83,0-1.24,0-.3-.13-.47-.39-.53-.46-.1-.93-.12-1.39,0-.31.08-.39.24-.37.61.13-.02.3.09.37-.08.08-.21.22-.24.41-.26.21-.02.42-.01.62.01.26.03.35.12.37.37.01.18,0,.37,0,.58-.45-.25-.89-.2-1.32-.16-.37.03-.51.2-.57.6-.07.51.07.86.38.99.02,0,.04.02.06.02.47.08.93.15,1.37-.11.07-.04.11-.06.13.05.04.17.17.09.27.09.11,0,.08-.11.08-.18M72.36,48.76c-.32.11-.64.11-.96.03-.22-.06-.3-.23-.27-.56.02-.25.11-.35.36-.38.12-.02.24-.02.33-.02.2.02.37.01.54.07.22.08.24.25.24.45,0,.19-.03.35-.23.41"/>
      <path class="cls-3" d="M87.17,48.98c0-.25,0-.5,0-.75,0-.42,0-.83,0-1.24,0-.3-.13-.47-.4-.53-.46-.1-.93-.12-1.39,0-.31.08-.39.24-.36.61.13-.03.3.09.37-.09.08-.21.22-.24.41-.26.22-.02.44-.01.65.02.22.03.31.12.33.34.02.19,0,.39,0,.61-.45-.25-.92-.19-1.38-.15-.25.02-.41.18-.47.43-.06.25-.06.5,0,.75.05.23.19.38.41.42.46.09.93.15,1.37-.11.07-.04.11-.05.13.05.04.17.18.09.27.08.11,0,.08-.11.08-.18M86.78,48.33c0,.28-.04.36-.25.43-.31.1-.62.11-.93.03-.23-.06-.3-.22-.28-.55.02-.25.1-.36.35-.39.12-.02.24-.02.33-.03.2.02.37.01.54.07.22.08.25.24.25.44"/>
      <path class="cls-3" d="M33.31,40.53c-.06-.31-.25-.5-.57-.56-.35-.08-.7-.08-1.04-.02-.46.09-.65.31-.69.78-.01.2,0,.39,0,.59h0c0,.21-.02.42,0,.62.04.45.24.68.68.76.36.06.72.06,1.08-.02.3-.07.49-.26.54-.55.09-.53.1-1.07,0-1.6M32.9,41.96c-.03.25-.12.34-.37.39-.25.05-.5.04-.75,0-.18-.03-.29-.14-.32-.32-.07-.47-.07-.93,0-1.4.03-.2.16-.3.35-.32.23-.03.46-.03.68,0,.26.03.37.13.4.39.02.22,0,.43,0,.65,0,0,.02,0,.03,0,0,.21,0,.41-.03.62"/>
      <path class="cls-3" d="M17.22,41.33h0c0-.22.02-.44,0-.66-.04-.43-.24-.64-.67-.73-.36-.07-.72-.07-1.07.02-.31.07-.5.27-.55.58-.09.52-.09,1.05,0,1.57.06.31.25.5.56.57.35.08.7.08,1.04.02.45-.07.66-.31.69-.78.02-.2,0-.39,0-.59M16.77,41.99c-.03.21-.15.33-.36.36-.24.04-.48.05-.71,0-.25-.05-.34-.13-.37-.38-.02-.22,0-.44,0-.65h0c0-.2-.01-.39,0-.59.03-.3.13-.4.43-.43.21-.02.41-.02.62,0,.26.03.35.11.39.36.08.44.07.89,0,1.33"/>
      <path class="cls-3" d="M36.72,47.82h0c0-.23.02-.46,0-.69-.05-.42-.26-.65-.65-.71-.34-.05-.68-.05-1.01,0-.35.05-.58.26-.63.62-.08.51-.08,1.02,0,1.53.06.34.28.54.61.6.32.06.65.06.98,0,.44-.07.66-.28.7-.73.02-.21,0-.41,0-.62M36.28,48.46c-.03.22-.16.33-.37.36-.23.04-.46.03-.69,0-.26-.03-.35-.14-.4-.4,0-.03,0-.07,0-.1,0-.19,0-.37,0-.56,0,0-.01,0-.02,0,0-.21,0-.42.03-.62.03-.25.12-.34.37-.39.24-.04.48-.04.72,0,.21.03.33.15.36.36.06.45.06.89,0,1.34"/>
      <path class="cls-3" d="M93.2,47.81h0c0-.23.02-.46,0-.69-.05-.42-.26-.64-.65-.71-.34-.05-.68-.05-1.01,0-.35.06-.57.26-.63.62-.08.5-.08,1,0,1.5.06.38.27.56.65.63.3.05.61.06.91,0,.48-.07.69-.29.74-.78.02-.2,0-.39,0-.59M92.75,48.46c-.04.22-.17.33-.37.36-.24.03-.48.03-.72,0-.21-.03-.34-.16-.36-.37-.04-.45-.05-.89,0-1.34.02-.19.14-.31.34-.35.25-.04.5-.04.75,0,.21.03.32.15.36.36.04.23.04.46.04.71,0,.19,0,.41-.04.62"/>
      <path class="cls-3" d="M70.13,40.55c-.18.04-.36.07-.45-.16-.02-.06-.1-.08-.17-.09-.33-.07-.65-.08-.98,0-.21.05-.27.16-.27.42,0,.24.06.32.29.36.17.03.35.03.52.03.22,0,.44.02.65.06.24.04.39.18.44.42.04.18.05.37.02.55-.06.33-.24.54-.58.58-.43.05-.87.07-1.31-.04-.31-.08-.46-.28-.46-.59,0-.08,0-.17.11-.15.1,0,.25-.07.27.09.04.33.27.36.52.38.24.02.48.03.72-.02.25-.05.35-.18.34-.47,0-.28-.08-.39-.33-.45-.19-.05-.39-.03-.59-.04-.2,0-.39-.01-.59-.04-.22-.04-.35-.16-.4-.37-.05-.17-.05-.35-.02-.52.06-.32.19-.45.51-.51.41-.08.83-.09,1.24,0,.36.07.45.18.49.59"/>
      <path class="cls-3" d="M11.03,40.55c-.2.02-.37.08-.45-.16-.03-.07-.12-.09-.19-.11-.31-.06-.63-.07-.94,0-.22.05-.29.18-.28.44,0,.23.07.31.31.34.14.02.28.02.43.03.21,0,.41.02.62.04.4.04.55.26.59.62.01.14,0,.28-.02.42-.06.27-.22.46-.49.51-.48.08-.96.08-1.43-.03-.24-.06-.36-.23-.4-.47-.04-.24.02-.3.25-.27.09.01.13.05.14.15.02.2.16.28.33.31.3.05.61.05.91,0,.24-.04.32-.17.32-.45,0-.28-.08-.4-.31-.46-.13-.03-.26-.04-.39-.04-.25,0-.5,0-.75-.04-.08-.02-.17-.02-.25-.08-.27-.21-.26-.51-.23-.81.03-.26.16-.45.44-.51.43-.09.87-.11,1.3-.03.37.07.45.17.51.59"/>
      <path class="cls-3" d="M14.12,40.55c-.2.02-.37.08-.45-.16-.03-.07-.12-.09-.19-.11-.31-.06-.63-.07-.94,0-.22.05-.3.18-.28.44,0,.23.07.31.31.34.14.02.28.02.43.03.21,0,.41.02.62.04.39.04.55.25.59.62.01.14,0,.28-.02.42-.06.27-.22.46-.49.51-.48.08-.96.08-1.43-.03-.24-.06-.37-.23-.4-.47-.04-.24.02-.3.25-.27.09.01.13.05.14.15.02.2.16.28.33.31.3.05.61.05.91,0,.24-.04.32-.17.32-.45,0-.28-.08-.4-.31-.46-.13-.03-.26-.04-.39-.04-.25,0-.5,0-.75-.04-.09-.02-.17-.02-.25-.08-.27-.21-.26-.51-.23-.81.03-.26.16-.45.44-.51.43-.09.87-.11,1.3-.03.37.07.45.17.51.59"/>
      <path class="cls-3" d="M15.98,49.21c-.31-.01-.58-.01-.83-.08-.29-.08-.43-.27-.44-.58,0-.07-.03-.18.09-.17.1,0,.27-.08.29.1.03.29.22.34.45.37.25.03.5.03.75,0,.28-.04.38-.17.38-.47,0-.31-.09-.43-.39-.46-.31-.03-.63-.04-.95-.06-.41-.03-.57-.18-.6-.58-.01-.14,0-.28.04-.42.05-.21.18-.35.39-.39.46-.1.93-.1,1.4-.02.21.04.36.15.41.37.02.07.08.16-.01.2-.11.05-.27.08-.33-.03-.13-.27-.36-.25-.58-.27-.21-.01-.42-.01-.62.02-.22.04-.31.16-.3.43,0,.26.07.34.32.36.3.03.61.04.92.06.27.02.54.06.64.36.12.34.13.69-.1,1-.1.13-.25.21-.42.23-.18.01-.37.03-.5.04"/>
      <path class="cls-3" d="M97.46,40.55c-.18.04-.35.06-.44-.17-.03-.07-.12-.08-.2-.1-.29-.06-.59-.06-.88-.01-.26.04-.32.14-.32.44,0,.26.05.32.32.36.09.01.17.01.26.02.17,0,.35,0,.52.02.71.06.96.39.8,1.1-.06.24-.2.42-.45.47-.5.1-1,.1-1.49-.02-.26-.07-.42-.34-.4-.61,0-.06.03-.11.09-.11.1,0,.26-.08.29.06.08.43.4.4.7.41.15,0,.31,0,.46-.01.34-.03.43-.14.43-.49,0-.03,0-.07,0-.1-.02-.23-.07-.28-.28-.34-.14-.04-.28-.04-.42-.05-.24,0-.48,0-.72-.04-.09-.02-.17-.02-.25-.07-.3-.2-.25-.51-.24-.8.01-.25.13-.45.39-.51.48-.12.98-.13,1.46-.02.28.07.37.22.38.57"/>
      <path class="cls-3" d="M63.43,46.38c.28.01.52,0,.75.07.18.06.3.17.34.36.02.07.08.16-.02.2-.11.04-.27.08-.33-.03-.13-.27-.36-.25-.58-.26-.21-.01-.42-.01-.62.02-.22.04-.31.16-.3.43,0,.25.07.33.32.36.29.03.59.04.88.06.56.04.74.23.74.78,0,.5-.24.8-.76.83-.35.02-.7.02-1.05-.03-.38-.06-.56-.26-.56-.61,0-.07-.02-.18.1-.16.1,0,.27-.08.29.1.03.29.22.34.46.37.24.03.48.03.72,0,.31-.05.41-.16.41-.48,0-.32-.1-.43-.43-.46-.3-.03-.61-.04-.92-.06-.4-.03-.57-.18-.6-.58-.01-.12,0-.24.02-.36.05-.25.18-.41.44-.46.05-.01.11-.03.16-.03.19-.01.37-.02.52-.03"/>
      <path class="cls-3" d="M91.42,40.56c-.16,0-.34.09-.42-.15-.02-.07-.11-.1-.19-.11-.31-.07-.63-.07-.94-.01-.24.05-.3.16-.29.47.01.23.06.29.32.32.16.02.33.02.49.02.22,0,.44.03.65.06.14.02.26.08.33.19.2.31.18.65.06.98-.1.28-.35.39-.62.4-.39.02-.79.04-1.18-.04-.28-.06-.44-.23-.48-.51-.01-.08-.08-.2.07-.24.16-.04.27,0,.31.16.05.19.18.27.35.29.29.04.59.05.88,0,.26-.04.32-.15.33-.44,0-.33-.05-.41-.32-.48-.14-.03-.28-.03-.42-.04-.23-.01-.46-.02-.69-.04-.09,0-.17-.02-.25-.07-.31-.21-.25-.53-.23-.84.02-.25.16-.43.41-.49.46-.1.93-.12,1.4-.01.31.07.4.22.41.58"/>
      <path class="cls-3" d="M43.95,46.38c.25,0,.45,0,.66.04.2.04.37.14.43.35.02.08.08.19-.02.24-.1.05-.28.08-.32-.03-.11-.27-.33-.24-.55-.26-.21-.02-.42-.01-.62.02-.25.04-.32.14-.32.44,0,.27.05.33.32.35.31.03.61.04.92.06.51.04.68.22.68.72,0,.1,0,.2-.01.29-.04.29-.24.51-.52.55-.44.07-.87.07-1.31-.01-.33-.06-.47-.23-.51-.55,0-.08-.06-.18.08-.21.15-.04.29,0,.31.12.05.23.19.32.41.35.27.03.55.04.82,0,.24-.04.32-.12.34-.36,0-.07,0-.13,0-.2-.02-.24-.09-.34-.34-.36-.33-.03-.65-.05-.98-.07-.43-.03-.59-.19-.6-.61,0-.11,0-.22.01-.33.04-.24.16-.39.4-.46.25-.07.5-.06.71-.07"/>
      <path class="cls-3" d="M47.17,40.55c-.2.03-.37.06-.45-.16-.02-.07-.12-.09-.2-.1-.3-.06-.61-.07-.91,0-.24.05-.31.15-.29.46,0,.24.05.3.31.33.21.03.41.02.62.03.17.01.35.04.52.05.13.01.24.07.31.16.23.29.18.62.12.94-.06.27-.27.42-.55.45-.42.04-.85.07-1.27-.03-.33-.07-.47-.24-.5-.56,0-.07-.04-.17.08-.18.11,0,.27-.08.3.08.06.33.3.38.56.39.22,0,.44,0,.65-.01.28-.03.36-.14.37-.44,0-.34-.06-.43-.34-.49-.18-.04-.37-.02-.56-.04-.19-.01-.37-.02-.56-.04-.08,0-.15-.02-.22-.06-.31-.21-.26-.53-.24-.83.02-.25.15-.44.41-.49.45-.1.91-.12,1.37-.02.34.07.44.2.46.58"/>
      <path class="cls-3" d="M17.88,41.32c0-.21-.02-.42,0-.62.04-.45.24-.66.68-.75.36-.07.72-.07,1.07.03.36.09.6.41.59.77,0,.06-.02.11-.08.12-.09,0-.18.01-.26,0-.12-.02-.09-.13-.11-.21-.05-.22-.18-.34-.41-.36-.23-.02-.46-.02-.69,0-.2.03-.32.13-.35.33-.07.46-.07.91,0,1.37.03.22.15.32.37.35.23.03.46.04.68,0,.27-.05.36-.13.41-.39.04-.22.13-.28.34-.24.08.02.11.06.1.14-.03.35-.11.71-.61.82-.37.08-.74.08-1.1.01-.41-.08-.6-.3-.64-.72-.02-.22,0-.44,0-.65"/>
      <path class="cls-3" d="M29.02,48.9c-.36.31-.76.34-1.17.28-.44-.07-.63-.27-.66-.72-.02-.25,0-.5,0-.75,0-.34,0-.68,0-1.02,0-.13,0-.23.19-.22.2.02.21,0,.21.23,0,.48,0,.96,0,1.44,0,.59.16.74.75.69.45-.04.67-.27.69-.75.01-.32,0-.63,0-.95,0-.15,0-.31,0-.46-.01-.16.05-.2.2-.2.17,0,.2.07.2.22,0,.75,0,1.51,0,2.26,0,.11.03.22-.15.22-.2,0-.21,0-.25-.27"/>
      <path class="cls-3" d="M73.82,46.49c.2-.02.38-.07.41.19.37-.36.81-.32,1.25-.25.28.04.47.23.52.52.02.12.05.24.05.36,0,.56,0,1.11,0,1.67,0,.16-.05.2-.21.21-.17,0-.2-.07-.2-.21,0-.44,0-.87,0-1.31,0-.09,0-.17,0-.26-.02-.49-.15-.64-.58-.65-.52-.01-.82.2-.85.65-.02.42,0,.85-.01,1.28,0,.1,0,.2,0,.29,0,.18-.15.27-.33.2-.1-.04-.06-.13-.06-.2,0-.49,0-.98,0-1.47v-1"/>
      <path class="cls-3" d="M82.61,48.81h.96c.19,0,.37,0,.56,0,.13,0,.2.03.2.18,0,.16-.07.18-.2.18-.64,0-1.29,0-1.94,0-.07-.28-.01-.48.18-.69.44-.46.85-.94,1.27-1.42.04-.05.1-.09.11-.16-.05-.09-.13-.05-.2-.05-.37,0-.74,0-1.12,0-.14,0-.19-.04-.19-.19,0-.15.05-.19.19-.18.55,0,1.09,0,1.64,0,.25,0,.35.17.23.39-.04.07-.1.12-.15.18-.44.5-.89,1-1.33,1.5-.06.07-.12.15-.21.27"/>
      <path class="cls-3" d="M17.95,47.72c0-.23,0-.42,0-.6,0-.25,0-.26-.25-.31-.11-.02-.1-.1-.1-.17,0-.08,0-.14.11-.16.24-.04.24-.05.24-.29,0-.04,0-.09,0-.13-.02-.17.07-.2.21-.2.15,0,.18.05.19.19.01.43.02.43.46.43.22,0,.44,0,.66,0,.13,0,.2.03.2.18,0,.14-.07.15-.18.15-.32,0-.63,0-.95,0-.15,0-.19.05-.19.19,0,.45,0,.9,0,1.34.01.44.37.65.78.46.17-.08.2-.22.2-.38,0-.14.04-.2.19-.19.2,0,.22.01.21.22-.02.51-.18.69-.67.75-.19.02-.37.02-.55-.01-.28-.05-.44-.21-.5-.49-.08-.34-.03-.67-.05-.97"/>
      <path class="cls-3" d="M55.12,40.24c.28-.33.6-.36.94-.32.41.05.7.49.61.89-.02.11-.1.1-.18.09-.08,0-.18.05-.21-.09,0-.03,0-.07,0-.1-.07-.36-.14-.43-.45-.44-.37-.02-.57.11-.65.41-.04.16-.06.32-.06.49,0,.44,0,.87,0,1.31,0,.21-.04.24-.25.22-.09,0-.14-.04-.14-.14,0-.02,0-.04,0-.07,0-.76,0-1.53,0-2.29,0-.08-.02-.19.11-.19.12,0,.28-.06.28.22"/>
      <path class="cls-3" d="M39.56,41.35c0-.38,0-.76,0-1.15,0-.07-.02-.17.09-.18.1,0,.24-.08.28.07.04.16.08.07.14.02.3-.26.64-.25.99-.15.3.09.53.57.44.86-.03.08-.09.09-.15.08-.08,0-.18.05-.23-.07-.01-.03,0-.07-.01-.1-.07-.38-.14-.45-.46-.46-.38-.01-.57.12-.65.46-.04.15-.05.3-.05.45,0,.44,0,.87,0,1.31,0,.15-.04.21-.2.21-.17,0-.2-.07-.2-.22,0-.38,0-.76,0-1.15"/>
      <path class="cls-3" d="M84.22,40.22c.35-.35.72-.37,1.1-.25.29.09.53.58.44.86-.03.1-.12.08-.19.08-.07,0-.16.03-.19-.07,0-.03,0-.07-.01-.1-.07-.38-.14-.45-.47-.46-.37,0-.56.11-.64.43-.04.15-.05.3-.05.45,0,.44,0,.87,0,1.31,0,.12.02.24-.17.24-.2,0-.22-.02-.22-.22,0-.75,0-1.51,0-2.26,0-.08-.03-.19.1-.21.13-.01.29-.06.31.2"/>
      <path class="cls-3" d="M20.92,46.68c.26-.3.57-.32.89-.29.36.03.53.18.6.53.02.07.03.15.04.23,0,.07.04.16-.04.21-.09.05-.19.03-.29.01-.08-.02-.05-.11-.06-.17-.07-.41-.29-.55-.69-.45-.21.05-.35.17-.41.38-.04.16-.06.32-.06.49,0,.45,0,.9,0,1.34,0,.15-.04.21-.2.21-.16,0-.2-.06-.2-.21,0-.75,0-1.51,0-2.26,0-.09-.05-.22.11-.22.13,0,.29-.05.29.2"/>
      <path class="cls-3" d="M37.5,46.48c.18.02.35-.08.41.18.27-.28.59-.31.93-.26.4.05.69.52.58.91-.03.09-.09.08-.15.08-.08,0-.18.04-.23-.07-.01-.03,0-.06-.01-.1-.05-.37-.12-.45-.42-.47-.35-.03-.57.1-.67.39-.05.14-.05.28-.05.42,0,.48,0,.96,0,1.44,0,.06.02.14-.07.16-.09.02-.2.04-.29-.01-.06-.03-.04-.12-.04-.18,0-.47,0-.94,0-1.41v-1.08"/>
      <path class="cls-3" d="M80.21,47.29c0,.56,0,1.11,0,1.67,0,.07.04.17-.06.19-.09.02-.2.02-.29-.01-.08-.03-.04-.14-.04-.21,0-.68,0-1.35,0-2.03,0-.44,0-.87,0-1.31,0-.24.02-.24.23-.24.17,0,.17.09.17.21,0,.53,0,1.07,0,1.6v.13"/>
      <path class="cls-3" d="M49.32,40.79c0-.56,0-1.11,0-1.67,0-.22,0-.23.25-.22.11,0,.15.05.15.16,0,.21,0,.41,0,.62,0,.93,0,1.86,0,2.78,0,.12.02.24-.17.25-.2,0-.23,0-.23-.21,0-.57,0-1.14,0-1.7"/>
      <path class="cls-3" d="M81.04,47.82c0-.39,0-.78,0-1.18,0-.16.07-.17.2-.17.13,0,.2.02.2.18,0,.78,0,1.57,0,2.35,0,.16-.08.17-.2.17-.13,0-.2-.02-.2-.17,0-.39,0-.78,0-1.18"/>
      <path class="cls-3" d="M13.99,47.85c0,.38,0,.76,0,1.14,0,.16-.07.18-.2.18-.12,0-.2,0-.2-.17,0-.78,0-1.57,0-2.35,0-.15.06-.18.19-.18.12,0,.21,0,.21.17,0,.4,0,.81,0,1.21"/>
      <path class="cls-3" d="M22.99,47.78c0-.37,0-.74,0-1.11,0-.16.05-.2.2-.2.17,0,.2.07.2.21,0,.76,0,1.52,0,2.29,0,.16-.06.2-.21.2-.17,0-.2-.07-.19-.21,0-.39,0-.78,0-1.18"/>
      <path class="cls-3" d="M30.63,47.85c0,.38,0,.76,0,1.14,0,.15-.07.18-.2.17-.12,0-.21,0-.2-.17,0-.78,0-1.57,0-2.35,0-.16.07-.18.2-.18.13,0,.2.02.2.17,0,.4,0,.81,0,1.21"/>
      <path class="cls-3" d="M53.92,41.37c0,.38,0,.76,0,1.15,0,.17-.07.2-.22.2-.15,0-.18-.06-.18-.2,0-.77,0-1.55,0-2.32,0-.15.06-.18.2-.18.12,0,.21.02.21.18,0,.39,0,.79,0,1.18"/>
      <path class="cls-3" d="M48.47,41.37c0,.38,0,.76,0,1.15,0,.17-.07.2-.22.2-.15,0-.19-.06-.18-.19,0-.77,0-1.55,0-2.32,0-.15.06-.19.19-.18.12,0,.21.02.21.17,0,.39,0,.79,0,1.18"/>
      <path class="cls-3" d="M20.95,41.35c0-.38,0-.76,0-1.15,0-.13.03-.2.18-.19.14,0,.22.03.22.2,0,.77,0,1.55,0,2.32,0,.15-.08.18-.2.18-.14,0-.2-.03-.2-.18,0-.39,0-.79,0-1.18"/>
      <path class="cls-3" d="M29.89,39.07c-.16.4-.32.49-.7.38-.2-.06-.4-.15-.55.09-.03.04-.1.05-.15,0-.05-.05-.01-.1,0-.15.11-.23.28-.32.53-.28.09.01.17.05.25.07.14.05.28.06.38-.08.05-.07.12-.09.23-.04"/>
      <path class="cls-3" d="M60.14,46.11c.15-.25.3-.51.45-.75.1-.16.24-.09.42-.07-.22.29-.42.54-.62.8-.06.08-.15.07-.26.02"/>
      <path class="cls-3" d="M20.95,39.06c-.03-.17.09-.17.22-.17.18,0,.19.04.19.29,0,.18-.09.19-.23.19-.18,0-.2-.04-.18-.31"/>
      <path class="cls-3" d="M48.47,39.12c0,.23-.01.24-.2.24-.19,0-.21-.01-.21-.23,0-.23,0-.24.2-.24.2,0,.21.02.21.23"/>
      <path class="cls-3" d="M13.6,45.59c0-.23,0-.23.19-.23.2,0,.2,0,.2.23,0,.23,0,.23-.2.23-.2,0-.2,0-.2-.23"/>
      <path class="cls-3" d="M23.38,45.58c0,.23,0,.23-.19.24-.2,0-.2,0-.2-.22q0-.24.19-.24c.2,0,.21,0,.21.22"/>
      <path class="cls-3" d="M30.63,45.6c0,.22,0,.23-.2.22-.19,0-.2,0-.19-.24,0-.22,0-.23.21-.22q.19,0,.19.24"/>
      <path class="cls-3" d="M81.44,45.6c0,.22,0,.22-.21.22q-.19,0-.19-.24c0-.22,0-.23.2-.22.19,0,.19,0,.19.24"/>
      <path class="cls-3" d="M53.93,39.11c0,.23,0,.25-.19.25-.19,0-.21-.01-.22-.22,0-.23,0-.25.18-.25.2,0,.22.02.22.22"/>
      <path class="cls-4" d="M10.19,14.11c-.01-.08,0-.14.06-.2.02.08.02.15-.06.2"/>
    </g>
  </g>
</svg>