<?xml version="1.0" encoding="UTF-8"?>
<svg id="Camada_2" data-name="Camada 2" xmlns="http://www.w3.org/2000/svg" viewBox="0 0 88.09 47.91">
  <defs>
    <style>
      .cls-1 {
        fill: #003cd2;
      }

      .cls-2 {
        fill: #3a3230;
      }
    </style>
  </defs>
  <g id="Camada_1-2" data-name="Camada 1">
    <g id="TgXNF1.tif">
      <g>
        <path class="cls-2" d="M0,.44c3.63,0,7.26,0,10.88-.02.28,0,.33.1.33.35-.01.93-.02,1.86,0,2.79,0,.32-.12.37-.4.37-2.15,0-4.3,0-6.45-.01-.41,0-.54.09-.52.52.03.93.02,1.86,0,2.79,0,.32.08.42.41.41,1.75-.02,3.5,0,5.25-.02.36,0,.46.09.45.45-.03.87-.03,1.75,0,2.62.01.35-.11.42-.43.42-1.75-.01-3.5,0-5.25-.02-.35,0-.43.1-.42.43.02,1.69,0,3.38.01,5.07,0,.29-.07.4-.38.39-1.16-.04-2.32.04-3.48-.04V.44Z"/>
        <path class="cls-1" d="M61.63,38.26c0,.5-.02,1,0,1.51.02.34-.09.43-.43.43-2.75,0-5.46.33-8.12,1.01-2.72.69-5.3,1.75-7.89,2.81-3.19,1.31-6.42,2.47-9.82,3.1-2.39.44-4.79.7-7.22.75-.42,0-.83,0-1.25.04-.31.02-.42-.07-.42-.4.02-1.02.02-2.04,0-3.05,0-.37.12-.45.46-.45,2.83,0,5.64-.27,8.41-.85,3.11-.65,6.07-1.77,9-2.99,3.18-1.32,6.39-2.56,9.79-3.19,2.33-.44,4.68-.65,7.06-.66.31,0,.44.07.42.4-.03.51,0,1.03,0,1.55Z"/>
        <path class="cls-1" d="M26.51,38.24c0-.52.02-1.03,0-1.55-.02-.33.1-.4.41-.4,2.74,0,5.46-.25,8.16-.8,3.02-.61,5.89-1.65,8.73-2.82,3.02-1.24,6.05-2.48,9.25-3.19,2.71-.61,5.46-.86,8.23-.91.26,0,.35.07.35.34-.01,1.07-.01,2.15,0,3.23,0,.23-.04.33-.3.33-5.12-.03-9.94,1.24-14.62,3.21-3.13,1.32-6.29,2.58-9.61,3.35-2.76.64-5.55,1-8.38,1.1-.62.02-1.23.03-1.85.06-.27.01-.38-.06-.37-.36.02-.53,0-1.06,0-1.59Z"/>
        <path class="cls-1" d="M26.51,30.5c0-.52.02-1.03,0-1.55-.01-.3.09-.39.39-.39,1.94.02,3.87-.13,5.79-.38,3.52-.47,6.87-1.51,10.15-2.83,2.66-1.07,5.29-2.21,8.05-3.02,3.38-.99,6.83-1.45,10.35-1.45.31,0,.42.07.42.4-.02,1.03-.01,2.06,0,3.1,0,.24-.03.36-.32.36-4.93,0-9.61,1.14-14.14,3.04-2.71,1.13-5.43,2.26-8.26,3.07-3.13.89-6.32,1.4-9.57,1.54-.8.04-1.6.03-2.41.08-.37.02-.46-.11-.44-.46.03-.5,0-1,0-1.5Z"/>
        <path class="cls-2" d="M47.34,14c-.68.09-.97-.18-1.07-.86-.03-.24-.04-.49-.04-.73,0-2.11-.01-4.21,0-6.32,0-.37-.06-.52-.48-.5-.74.04-1.49.01-2.24.01q-.93,0-.97.95s-.01.08-.03.23c-.38-.39-.73-.7-1.14-.92-1.86-.99-4.45-.41-5.86,1.35-1.22,1.53-1.52,3.3-1.27,5.19.21,1.6.88,2.95,2.23,3.91,1.69,1.2,4.95,1.53,6.47-.79.42.81,1.02,1.38,1.93,1.58.85.19,1.71.16,2.56.03.27-.04.34-.18.33-.44-.01-.76-.02-1.52,0-2.28,0-.33-.05-.45-.42-.4ZM39.4,14.02c-1.02-.31-1.69-1.27-1.77-2.55-.09-1.4.74-2.64,1.97-2.92,1.57-.35,2.95.74,3.09,2.46,0,.1,0,.2.01.3,0,1.95-1.56,3.24-3.31,2.71Z"/>
        <path class="cls-2" d="M52.92,6.93c1.42-1.46,3.03-1.84,4.83-1.39,1.58.39,2.34,1.55,2.6,3.09.21,1.25.08,2.52.12,3.78,0,.26,0,.52.04.77.08.58.25.74.84.75.25,0,.32.08.31.32-.01.82-.01,1.63,0,2.45,0,.22-.06.34-.3.38-.84.11-1.69.16-2.52-.06-1.2-.33-1.92-1.25-2-2.65-.06-1.07-.03-2.15-.04-3.22,0-.46-.03-.92-.17-1.36-.2-.64-.57-1.13-1.28-1.25-.73-.12-1.37.09-1.84.67-.45.56-.59,1.23-.59,1.93,0,1.81,0,3.61,0,5.42,0,.34-.07.47-.44.46-.96-.03-1.92-.02-2.88,0-.26,0-.38-.04-.38-.35.01-3.58,0-7.17,0-10.75,0-.25.08-.32.32-.31,1.02.01,2.04.01,3.06,0,.28,0,.35.09.33.35-.02.29,0,.59,0,1Z"/>
        <path class="cls-2" d="M32.4,12c0,1.98,0,3.95,0,5.93,0,.44-.09.88-.21,1.31-.43,1.47-1.46,2.25-2.92,2.5-.81.14-1.63.11-2.44.03-.23-.02-.32-.11-.32-.35.01-.86.01-1.72,0-2.58,0-.26.1-.3.33-.3,1.58.06,1.92-.27,1.92-1.86,0-3.55,0-7.11,0-10.66,0-.35.07-.46.44-.45.95.03,1.89.02,2.84,0,.32,0,.41.07.41.4-.02,2.01,0,4.01,0,6.02h-.03Z"/>
        <path class="cls-2" d="M22.82,7c1.06-1.47,2.53-1.77,4.18-1.65.26.02.34.12.33.37-.01.93-.01,1.86,0,2.8,0,.26-.08.32-.33.27-.54-.1-1.09-.11-1.63-.02-1.59.26-2.54,1.35-2.55,2.96-.01,1.61-.02,3.21,0,4.82,0,.4-.12.47-.48.46-.95-.02-1.89-.01-2.84,0-.25,0-.38-.03-.38-.34.01-3.58,0-7.17,0-10.75,0-.24.07-.32.31-.31,1.02.01,2.04.02,3.05,0,.28,0,.34.09.32.35-.02.35,0,.71,0,1.06Z"/>
        <path class="cls-2" d="M13,10.12c0-1.38.01-2.75,0-4.13,0-.33.09-.41.41-.4.95.02,1.89.02,2.84,0,.32,0,.41.07.41.4-.02,2.21,0,4.42,0,6.63,0,.2,0,.4.04.6.09.59.34.82.92.77.29-.03.3.09.3.31,0,.82-.01,1.64,0,2.45,0,.22-.06.35-.29.39-.86.13-1.71.19-2.56-.03-1.27-.34-2-1.33-2.04-2.85-.03-1.38,0-2.75,0-4.13h0Z"/>
        <path class="cls-1" d="M78.76,14.58c0-.95.02-1.91,0-2.86,0-.35.08-.46.45-.46.93.02.93,0,.93.91,0,1.48,0,2.95,0,4.43,0,.33-.1.38-.41.41-.74.09-1.21-.16-1.56-.84-.44-.84-1-1.62-1.61-2.4,0,.33,0,.67,0,1,0,.62-.02,1.23,0,1.85.01.31-.1.38-.39.38-.98,0-.98.01-.98-.95,0-1.46,0-2.92,0-4.38,0-.32.1-.37.4-.42.74-.1,1.17.18,1.52.84.46.87,1.03,1.68,1.55,2.52.04,0,.07-.02.11-.03Z"/>
        <path class="cls-1" d="M77.51,38.51c-.12-.17-.18-.28.06-.44.71-.46.97-1.29.73-2.2-.22-.84-.79-1.31-1.72-1.35-.74-.03-1.49,0-2.24-.02-.2,0-.28.06-.27.27,0,1.74,0,3.47,0,5.21,0,.1-.02.24.11.25.39.02.77.02,1.16-.01.14-.01.09-.19.1-.29,0-.37,0-.75,0-1.12,0-.14-.09-.34.15-.39.21-.05.34.05.45.23.27.45.56.9.85,1.35.08.12.14.25.32.25.45,0,.91,0,1.46,0-.42-.64-.79-1.19-1.16-1.73ZM75.88,37.21c-.71.04-.36-.47-.46-.76.12-.27-.26-.79.45-.75.71.04,1.09.26,1.09.75,0,.48-.39.71-1.08.76Z"/>
        <path class="cls-1" d="M68.37,29.63c0-.83,0-1.66,0-2.49,0-.26.03-.38.34-.38,1.03.02,2.06.01,3.1,0,.24,0,.32.06.32.31.02.9.03.9-.86.9-.42,0-.83,0-1.25,0-.21,0-.3.05-.31.28-.04.81-.05.81.77.81.19,0,.37,0,.56,0,.69.01.59-.09.59.6,0,.68.1.6-.62.61-.33,0-.66,0-.99,0-.22,0-.32.07-.3.3.01.13.01.26,0,.39-.03.28.1.34.35.33.62-.01,1.23.01,1.85-.01.31-.01.39.1.38.39,0,.84.01.84-.83.84-.92,0-1.83,0-2.75,0-.26,0-.35-.08-.34-.34.01-.85,0-1.69,0-2.54Z"/>
        <path class="cls-1" d="M85.97,16.49c-.53-1.45-1.06-2.9-1.6-4.35-.32-.87-.32-.85-1.23-.87-.32,0-.44.11-.54.39-.56,1.56-1.14,3.12-1.71,4.67q-.25.67.47.67c.72,0,.74,0,.93-.65.09-.29.23-.38.52-.36.4.02.8.03,1.2,0,.3-.02.43.09.52.37.2.65.21.64.9.64h.21q.52,0,.34-.51ZM83.88,14.8c-.33.01-.65.02-.98,0-.12,0-.07-.13-.04-.21.16-.5.32-1,.49-1.5.03,0,.07,0,.1,0l.49,1.49s0,.03.01.04c.01.07.02.17-.07.17Z"/>
        <path class="cls-1" d="M70.5,21.86c0-.85,0-1.69,0-2.54,0-.24.06-.32.31-.32,1.05.01,2.09,0,3.14,0,.22,0,.29.05.3.29.04.94.04.94-.89.94-.39,0-.77.02-1.16,0-.27-.01-.38.06-.37.36.03.91-.09.72.71.74.11,0,.23,0,.34,0,.9,0,.89,0,.86.89,0,.26-.11.31-.34.31-.34-.01-.69,0-1.03,0-.54,0-.52,0-.55.56-.02.36.09.47.45.45.6-.03,1.2,0,1.81-.01.26,0,.34.08.34.34.01.9.02.9-.9.9-.87,0-1.75-.01-2.62,0-.33,0-.41-.1-.41-.42.02-.83,0-1.66,0-2.49Z"/>
        <path class="cls-1" d="M70.5,14.14c0-.84,0-1.69,0-2.53,0-.26.07-.35.34-.34,1.03.01,2.06.01,3.09,0,.24,0,.32.06.32.31.02.92.03.92-.87.92-.42,0-.83,0-1.25,0-.21,0-.3.05-.31.28-.04.8-.05.8.74.8.1,0,.2,0,.3,0,.92,0,.91,0,.87.92-.01.23-.09.29-.31.29-.42-.01-.83.01-1.25,0-.29-.02-.39.09-.35.37.01.08.01.17,0,.26-.06.34.11.41.42.4.62-.02,1.23,0,1.85,0,.23,0,.32.06.33.31.03.9.04.9-.85.9-.9,0-1.81-.01-2.71,0-.29,0-.37-.09-.36-.37.02-.83,0-1.66,0-2.49Z"/>
        <path class="cls-1" d="M65.73,37.36c.02-1.2.48-2.17,1.61-2.66,1.21-.52,2.35-.35,3.37.52.25.21.32.39,0,.59-.02.01-.04.04-.06.06-.19.15-.35.38-.57.45-.25.08-.38-.24-.59-.35-.68-.37-1.48-.26-1.95.31-.51.62-.49,1.67.04,2.26.51.56,1.41.68,2.03.16.4-.34.6-.2.9.08.56.52.58.53-.04.97-1.03.73-2.15.78-3.25.23-1.06-.52-1.49-1.45-1.48-2.61Z"/>
        <path class="cls-1" d="M76.9,24.83c-.69,0-1.28-.25-1.82-.66-.2-.16-.3-.3-.06-.5.03-.03.05-.07.08-.1.16-.19.28-.45.48-.54.25-.12.36.24.58.34.33.15.66.29,1.03.23.19-.03.36-.12.4-.33.05-.22-.04-.41-.24-.5-.34-.15-.69-.28-1.03-.42-.6-.25-1.11-.6-1.25-1.3-.2-.99.41-1.86,1.47-2.05.8-.14,1.53.09,2.18.56.03.03.09.05.1.08.04.43-.38.59-.54.9-.09.17-.21.15-.35.04-.25-.19-.53-.34-.85-.39-.26-.04-.5.01-.6.29-.1.28.08.43.3.54.36.17.74.31,1.11.47.94.41,1.27.94,1.14,1.83-.12.81-.76,1.4-1.65,1.51-.16.02-.31.02-.47.03Z"/>
        <path class="cls-1" d="M67.72,17.08c-.73,0-1.37-.24-1.93-.71-.16-.13-.23-.25-.05-.41.02-.02.04-.04.05-.07.17-.21.31-.5.53-.61.27-.13.42.26.66.36.3.12.58.25.91.2.22-.03.42-.11.47-.37.05-.25-.09-.42-.3-.51-.34-.15-.69-.27-1.04-.41-.7-.3-1.22-.75-1.24-1.58-.02-.92.64-1.65,1.6-1.76.76-.09,1.44.12,2.07.56.18.13.23.24.06.4-.02.02-.03.05-.05.07-.17.21-.29.51-.51.62-.26.13-.44-.23-.7-.31-.21-.07-.4-.16-.62-.13-.19.03-.36.11-.41.32-.05.22.05.37.23.46.32.15.65.29.98.43,1.17.49,1.53,1.04,1.33,2.03-.18.87-.97,1.42-2.04,1.43Z"/>
        <path class="cls-1" d="M67.68,24.83c-.69,0-1.28-.24-1.83-.65-.22-.17-.31-.31-.07-.54.19-.19.31-.5.53-.61.27-.13.41.26.65.35.28.11.56.23.87.21.24-.02.46-.09.52-.36.06-.27-.1-.44-.33-.54-.36-.15-.72-.27-1.08-.43-.64-.28-1.11-.71-1.16-1.46-.06-.98.65-1.77,1.68-1.86.73-.06,1.38.15,1.98.56.18.12.24.23.07.4-.02.02-.03.05-.05.07-.17.21-.29.51-.51.62-.26.13-.45-.22-.7-.3-.23-.07-.45-.19-.7-.12-.18.05-.3.15-.33.35-.03.18.05.31.2.39.2.11.41.2.62.3.21.09.43.17.64.26.92.41,1.24.92,1.11,1.8-.12.82-.74,1.4-1.63,1.52-.16.02-.31.02-.47.03Z"/>
        <path class="cls-2" d="M14.84,4.14c-1.29,0-2.18-.82-2.18-2.02,0-1.18.89-2.01,2.16-2.01,1.28,0,2.2.85,2.19,2.03,0,1.17-.92,2.01-2.17,2.01Z"/>
        <path class="cls-2" d="M30.54,4.06c-1.25,0-2.15-.86-2.15-2.03C28.38.86,29.33-.01,30.58,0c1.25.01,2.16.88,2.15,2.03,0,1.19-.92,2.03-2.2,2.02Z"/>
        <path class="cls-1" d="M73.06,29.63c0-.83.01-1.66,0-2.49,0-.31.09-.38.39-.37,1.01,0,1.01,0,1.01.99,0,1.06,0,2.12,0,3.18,0,.28.07.37.36.36.56-.02,1.12,0,1.68-.01.25,0,.35.07.35.34.02.89.03.89-.87.89-.8,0-1.6-.02-2.41,0-.38.01-.53-.07-.51-.49.04-.8.01-1.6.01-2.4Z"/>
        <path class="cls-1" d="M82.28,36.75c-.03.62.06,1.36-.06,2.1-.11.69-.44,1.22-1.15,1.4-.78.19-1.5.08-2.11-.51-.13-.13-.13-.23,0-.36.1-.1.19-.21.27-.33.2-.29.35-.48.74-.16.4.33.81.12.91-.4.05-.26.04-.54.04-.81,0-.94.01-1.89,0-2.83,0-.26.06-.34.33-.34,1.04,0,1.04-.02,1.04,1.01v1.24Z"/>
        <path class="cls-1" d="M65.96,29.61c0-.84,0-1.69,0-2.53,0-.24.07-.31.31-.32,1.08-.02,1.08-.03,1.08,1.04,0,1.43,0,2.86,0,4.29,0,.31-.07.42-.4.42-.99,0-.99,0-.99-.97,0-.64,0-1.29,0-1.93Z"/>
        <path class="cls-1" d="M79.78,21.86c0-.85,0-1.69,0-2.54,0-.24.07-.31.31-.32,1.08-.03,1.08-.04,1.08,1.05,0,1.45,0,2.9,0,4.34,0,.27-.07.37-.36.38-1.04.01-1.04.02-1.04-1.02,0-.63,0-1.26,0-1.89Z"/>
        <path class="cls-1" d="M73.08,37.4c0,.83-.01,1.66,0,2.49,0,.3-.1.36-.37.36-1.03,0-1.03.02-1.03-.99,0-1.46,0-2.93,0-4.39,0-.27.06-.37.35-.37,1.04,0,1.04-.02,1.04,1,0,.63,0,1.26,0,1.89Z"/>
        <path class="cls-1" d="M88.09,14.14c0,.85,0,1.69,0,2.54,0,.23-.05.32-.3.33-1.08.03-1.08.04-1.08-1.05,0-1.43,0-2.87,0-4.3,0-.29.06-.39.37-.39,1.01,0,1.01,0,1.01.99,0,.63,0,1.26,0,1.89Z"/>
      </g>
    </g>
  </g>
</svg>