<?xml version="1.0" encoding="UTF-8"?>
<svg id="Camada_2" data-name="Camada 2" xmlns="http://www.w3.org/2000/svg" viewBox="0 0 133.76 27.76">
  <defs>
    <style>
      .cls-1 {
        fill: #d85347;
      }

      .cls-2 {
        fill: #fba93a;
      }

      .cls-3 {
        isolation: isolate;
      }

      .cls-3, .cls-4 {
        fill: #005172;
      }

      .cls-4 {
        fill-rule: evenodd;
      }
    </style>
  </defs>
  <g id="Camada_1-2" data-name="Camada 1">
    <g>
      <g id="Raster">
        <path id="TRAÇO" class="cls-4" d="M94.69,0h.99v27.76h-.99V0h0Z"/>
        <path id="Organização_Nacional_da_Indústria_do_Petróleo" data-name="Organização Nacional da Indústria do Petróleo" class="cls-4" d="M102.42,1.78c-.32-.35-.77-.53-1.35-.53-.59,0-1.04.17-1.36.52-.32.35-.48.84-.48,1.49,0,.65.16,1.14.47,1.49.32.35.77.53,1.36.53.58,0,1.03-.18,1.35-.53.32-.35.48-.85.48-1.48s-.16-1.13-.48-1.48ZM100.21,2.17c.2-.25.48-.37.87-.37s.67.12.86.37c.19.25.29.61.29,1.09,0,.49-.1.85-.29,1.1s-.48.37-.86.37c-.38,0-.67-.12-.86-.37-.19-.25-.29-.61-.29-1.1,0-.48.1-.84.29-1.09ZM104.88,2.36c-.16.11-.29.25-.38.42h-.03l-.08-.52h-.49v2.96h.63v-1.55c-.01-.24.07-.47.23-.64.16-.17.38-.26.61-.25.09,0,.19.01.28.03l.06-.59c-.1-.02-.21-.03-.31-.03-.18,0-.36.05-.51.16ZM107.94,2.26c-.07-.02-.14-.03-.21-.04-.09-.01-.18-.02-.26-.02-.37,0-.66.09-.86.26-.2.18-.3.43-.3.75,0,.18.05.37.14.52.09.14.22.26.37.32-.1.06-.2.14-.28.23-.06.08-.1.18-.09.28,0,.09.03.18.08.25.05.08.12.14.21.17-.18.04-.35.13-.48.26-.12.12-.18.29-.17.46,0,.25.11.48.32.61.21.14.52.21.92.21.52,0,.92-.09,1.2-.27.27-.17.43-.46.41-.78,0-.26-.08-.46-.25-.6s-.42-.21-.74-.21h-.52c-.12,0-.24,0-.35-.05-.06-.03-.1-.09-.1-.15,0-.11.07-.21.2-.29.08.02.17.02.26.02.37,0,.66-.09.87-.26.21-.18.33-.44.32-.72,0-.1-.01-.2-.05-.29-.03-.08-.06-.16-.11-.23l.51-.09v-.35h-1.02ZM106.8,5.34c.12-.09.28-.14.43-.13h.48c.25,0,.42.03.51.08.09.06.15.16.14.27,0,.16-.08.29-.25.39-.17.1-.42.15-.77.15-.18,0-.36-.03-.51-.11-.11-.06-.19-.18-.18-.31,0-.13.05-.26.16-.34ZM107.05,2.77c.11-.11.26-.17.41-.16.15-.01.3.05.41.16.1.13.15.29.14.45,0,.39-.18.58-.55.58-.15,0-.3-.04-.41-.15-.1-.12-.15-.27-.14-.43-.01-.16.04-.32.14-.45ZM112.04,5.22v-1.99c0-.35-.1-.61-.29-.77-.19-.16-.48-.25-.85-.25-.18,0-.36.02-.54.07-.18.04-.36.11-.53.19l.2.45c.13-.06.26-.11.4-.16.14-.04.29-.07.44-.07.19,0,.32.05.41.14.09.09.13.23.13.42v.16l-.51.02c-.46.01-.81.1-1.03.25-.23.16-.34.39-.34.69,0,.29.08.51.24.67.16.16.39.24.68.24.19,0,.38-.03.56-.1.17-.09.32-.21.43-.37h.02l.13.41h.45,0ZM110.3,4.68c-.08-.08-.13-.19-.12-.31-.01-.16.07-.32.2-.41.13-.09.35-.14.65-.15l.38-.02v.26c.01.2-.06.4-.21.54-.15.13-.35.2-.55.19-.13,0-.25-.03-.35-.11h0ZM115.73,3.29c0-.72-.35-1.08-1.06-1.08-.19,0-.37.04-.55.12-.16.07-.29.18-.38.33h-.03l-.09-.39h-.49v2.96h.63v-1.47c0-.37.06-.63.18-.79.12-.16.32-.24.58-.24.2,0,.35.06.44.17s.14.28.14.51v1.82h.63v-1.93h0ZM117.46,2.26h-.63v2.96h.63v-2.96h0ZM116.88,1.73c.07.07.17.1.26.09.09,0,.19-.03.26-.09.06-.07.1-.16.09-.25,0-.1-.03-.19-.09-.26-.07-.06-.16-.1-.26-.09-.1,0-.19.03-.26.09-.07.07-.1.16-.09.26,0,.09.03.18.09.25h0ZM120.55,4.74h-1.51l1.46-2.04v-.44h-2.11v.48h1.4l-1.49,2.09v.39h2.24v-.48h0ZM123.71,5.22v-1.99c0-.35-.1-.61-.29-.77-.19-.16-.48-.25-.85-.25-.18,0-.36.02-.54.07-.18.04-.36.11-.53.19l.2.45c.13-.06.26-.11.4-.16.14-.04.29-.07.44-.07.19,0,.32.05.41.14.09.09.13.23.13.42v.16l-.51.02c-.46.01-.81.1-1.03.25-.23.16-.34.39-.34.69,0,.29.08.51.24.67.16.16.39.24.68.24.19,0,.38-.03.56-.1.17-.09.32-.21.43-.37h.02l.13.41h.45,0ZM121.97,4.68c-.08-.08-.12-.19-.12-.31-.01-.16.07-.32.2-.41.13-.09.35-.14.65-.15l.38-.02v.26c.01.2-.06.4-.21.54-.15.13-.35.2-.55.19-.13,0-.25-.03-.35-.11h0ZM126.46,5.23c.13-.03.25-.08.36-.14v-.55c-.24.14-.52.21-.79.21-.22.01-.43-.08-.56-.25-.13-.17-.19-.42-.19-.75,0-.68.26-1.02.77-1.02.23.01.45.06.66.16l.19-.51c-.26-.12-.55-.18-.84-.17-.46,0-.81.13-1.06.4s-.36.65-.37,1.15c0,.49.12.86.35,1.12.23.26.57.39,1.02.39.16,0,.31-.01.46-.04h0ZM126.33,5.64c-.09-.09-.21-.15-.33-.18l.11-.24h-.41l-.23.44c.32.04.48.14.48.29,0,.07-.03.13-.08.16-.07.03-.15.05-.23.04-.11,0-.22-.01-.33-.04v.37c.11.03.21.04.32.04.54,0,.82-.2.82-.59,0-.11-.04-.22-.12-.3h0ZM130.04,5.22v-1.99c0-.35-.1-.61-.29-.77s-.48-.25-.85-.25c-.18,0-.36.02-.54.07-.18.04-.36.11-.53.19l.2.45c.13-.06.26-.11.4-.16.14-.04.29-.07.44-.07.19,0,.32.05.41.14.09.09.13.23.13.42v.16l-.51.02c-.46.01-.81.1-1.04.25s-.34.39-.34.69c0,.29.08.51.24.67.16.16.39.24.68.24.19,0,.38-.03.56-.1.17-.09.32-.21.43-.37h.02l.13.41h.45,0ZM128.3,4.68c-.08-.08-.12-.19-.12-.31-.01-.16.07-.32.2-.41.13-.09.35-.14.65-.15l.38-.02v.26c.01.2-.06.4-.21.54-.15.13-.35.2-.55.19-.13,0-.25-.03-.35-.11h0ZM129.74,1.7c.13-.16.2-.36.21-.56h-.33c-.05.2-.14.31-.28.31-.07,0-.13-.02-.19-.05-.07-.03-.13-.07-.2-.1-.07-.04-.14-.07-.21-.1-.07-.03-.15-.05-.22-.05-.17,0-.34.07-.45.2-.12.13-.19.32-.21.57h.33c.05-.21.15-.31.29-.31.07,0,.13.02.19.05.07.03.13.07.2.1.07.04.14.07.21.1.07.03.14.05.22.05.17,0,.34-.07.45-.2h0ZM133.38,2.62c-.25-.28-.59-.41-1.02-.41-.45,0-.79.13-1.04.4s-.37.64-.37,1.12c0,.28.05.56.17.81.11.22.28.41.49.54.22.13.48.19.73.19.44,0,.79-.14,1.04-.41.25-.27.37-.65.37-1.13,0-.47-.12-.84-.37-1.11h0ZM131.78,2.98c.12-.17.31-.26.57-.26.5,0,.75.34.75,1.01,0,.68-.25,1.02-.75,1.02-.5,0-.76-.34-.76-1.02,0-.33.06-.58.18-.75h0ZM102.68,8.54h-.58v2.05c0,.14,0,.35.02.6.01.26.02.41.02.45h-.02l-1.92-3.1h-.78v3.91h.58v-2.03c0-.27-.01-.58-.04-.91v-.17s0,0,0,0l1.92,3.12h.78v-3.91h0ZM106.17,12.45v-1.99c0-.35-.1-.61-.29-.77s-.48-.25-.85-.25c-.18,0-.36.02-.54.07-.18.04-.36.11-.53.19l.2.45c.13-.06.26-.11.4-.16.14-.04.29-.07.44-.07.19,0,.32.05.41.14.09.09.13.23.13.42v.16l-.51.02c-.46.01-.81.1-1.03.25s-.34.39-.34.69c0,.29.08.51.24.67s.39.24.68.24c.19,0,.38-.03.56-.1.17-.09.32-.21.43-.37h.02l.13.41h.45,0ZM104.43,11.91c-.08-.08-.12-.19-.12-.31-.01-.16.07-.32.2-.41.13-.09.35-.14.65-.15l.38-.02v.26c.01.2-.06.4-.21.54-.15.13-.35.2-.55.19-.13,0-.25-.03-.35-.11h0ZM108.92,12.46c.13-.03.25-.08.36-.14v-.55c-.24.14-.52.21-.79.21-.22.01-.43-.08-.56-.25-.13-.17-.19-.42-.19-.75,0-.68.26-1.02.77-1.02.23.01.45.06.66.16l.19-.51c-.26-.12-.55-.18-.84-.17-.46,0-.81.13-1.06.4-.24.27-.36.65-.37,1.15,0,.49.12.86.35,1.12s.57.39,1.02.39c.16,0,.31-.01.46-.04h0ZM110.82,9.49h-.63v2.96h.63v-2.96h0ZM110.25,8.96c.07.07.17.1.26.09.1,0,.19-.03.26-.09.06-.07.1-.16.09-.25,0-.1-.03-.19-.09-.26-.07-.06-.16-.1-.26-.09-.1,0-.19.03-.26.09-.07.07-.1.16-.09.26,0,.09.03.18.09.25h0ZM114.19,9.85c-.25-.28-.59-.41-1.02-.41-.45,0-.79.13-1.04.4-.25.27-.37.64-.37,1.12,0,.28.05.56.17.81.11.22.28.41.49.54.22.13.48.19.73.19.44,0,.79-.14,1.04-.41.25-.27.37-.65.37-1.13,0-.47-.12-.84-.37-1.11h0ZM112.59,10.21c.12-.17.31-.26.57-.26.5,0,.75.34.75,1.01,0,.68-.25,1.02-.75,1.02-.5,0-.76-.34-.76-1.02,0-.33.06-.58.18-.75h0ZM118.11,10.52c0-.72-.35-1.08-1.06-1.08-.19,0-.37.04-.55.12-.16.07-.29.18-.38.33h-.03l-.09-.39h-.49v2.96h.63v-1.47c0-.37.06-.63.18-.79.12-.16.32-.24.58-.24.2,0,.35.06.44.17s.14.28.14.51v1.82h.63v-1.93h0ZM121.5,12.45v-1.99c0-.35-.1-.61-.29-.77s-.48-.25-.85-.25c-.18,0-.36.02-.54.07-.18.04-.36.11-.53.19l.2.45c.13-.06.26-.11.4-.16.14-.04.29-.07.44-.07.19,0,.32.05.41.14.09.09.13.23.13.42v.16l-.51.02c-.46.01-.81.1-1.04.25s-.34.39-.34.69c0,.29.08.51.24.67.16.16.39.24.68.24.19,0,.38-.03.56-.1.17-.09.32-.21.43-.37h.02l.13.41h.45,0ZM119.76,11.91c-.08-.08-.12-.19-.12-.31-.01-.16.07-.32.2-.41.13-.09.35-.14.65-.15l.38-.02v.26c.01.2-.06.4-.21.54-.15.13-.35.2-.55.19-.13,0-.25-.03-.35-.11h0ZM123.23,8.29h-.63v4.16h.63v-4.16ZM127.87,12.06h.03l.11.39h.49v-4.16h-.63v1.08c0,.17.02.34.05.5h-.03c-.2-.29-.5-.43-.89-.43-.34-.01-.66.14-.87.41-.21.27-.31.65-.31,1.13,0,.48.1.86.31,1.13.21.27.49.4.86.4.39,0,.68-.15.89-.44h0ZM126.63,11.73c-.12-.17-.17-.42-.17-.75s.06-.59.18-.77c.11-.17.31-.28.51-.27.26,0,.45.08.57.24s.18.42.18.79v.09c0,.33-.06.56-.18.71-.12.15-.31.22-.56.22-.21.01-.41-.09-.52-.26h0ZM131.92,12.45v-1.99c0-.35-.1-.61-.29-.77-.19-.16-.48-.25-.85-.25-.18,0-.36.02-.54.07-.18.04-.36.11-.53.19l.2.45c.13-.06.26-.11.4-.16.14-.04.29-.07.44-.07.18,0,.32.05.41.14.09.09.13.23.13.42v.16l-.51.02c-.46.01-.81.1-1.04.25-.23.16-.34.39-.34.69,0,.29.08.51.24.67.16.16.39.24.68.24.19,0,.38-.03.56-.1.17-.09.32-.21.43-.37h.02l.13.41h.45,0ZM130.18,11.91c-.08-.08-.12-.19-.12-.31-.01-.16.07-.32.2-.41.13-.09.35-.14.65-.15l.38-.02v.26c.01.2-.06.4-.21.54-.15.13-.35.2-.55.19-.13,0-.25-.03-.35-.11h0ZM100.07,19.67v-3.91h-.64v3.91h.64ZM103.85,17.74c0-.72-.35-1.08-1.06-1.08-.19,0-.37.04-.55.12-.16.07-.29.18-.38.33h-.03l-.09-.39h-.49v2.96h.63v-1.47c0-.37.06-.63.18-.79.12-.16.32-.24.58-.24.2,0,.35.06.44.17.09.11.14.28.14.51v1.82h.63v-1.93h0ZM106.83,19.28h.03l.11.39h.49v-4.16h-.63v1.08c0,.17.02.34.05.5h-.03c-.2-.29-.5-.43-.89-.43-.34-.01-.66.14-.87.41-.21.27-.31.65-.31,1.13,0,.48.1.86.31,1.13s.49.4.86.4c.39,0,.68-.15.89-.44h0ZM105.59,18.96c-.12-.17-.17-.42-.17-.75s.06-.59.18-.77c.11-.17.31-.28.51-.27.26,0,.45.08.57.24s.18.42.18.79v.09c0,.33-.06.56-.18.71-.12.15-.31.22-.56.22-.21.01-.41-.09-.52-.26h0ZM111.16,19.67v-2.96h-.63v1.47c0,.37-.06.64-.19.79-.12.16-.32.24-.58.24-.2,0-.34-.06-.44-.17s-.14-.28-.14-.51v-1.82h-.63v1.93c0,.36.09.63.26.81s.44.27.8.27c.19,0,.38-.04.55-.12.15-.07.28-.18.37-.32h.03l.09.39h.5,0ZM109.89,16.35c.16-.12.32-.26.47-.4.15-.13.28-.27.42-.42v-.06h-.73c-.06.11-.15.24-.26.39-.11.15-.21.29-.31.42v.07h.42ZM114.18,18.46c-.06-.11-.14-.2-.25-.27-.17-.11-.35-.19-.53-.26-.2-.07-.39-.16-.57-.26-.08-.05-.13-.14-.13-.24,0-.19.17-.28.5-.28.28.01.55.08.8.2l.2-.47c-.31-.14-.65-.21-.99-.21-.35,0-.63.07-.83.21-.2.13-.32.35-.31.59,0,.19.06.37.18.51.12.13.35.26.69.4.14.05.28.11.41.18.08.04.15.09.21.16.04.05.07.12.06.19,0,.23-.19.35-.58.35-.34,0-.67-.09-.97-.24v.54c.24.12.56.18.95.18s.69-.08.9-.23c.21-.15.33-.4.32-.66,0-.13-.02-.25-.08-.37h0ZM115.96,19.11c-.08-.09-.12-.21-.11-.34v-1.58h.84v-.48h-.84v-.66h-.39l-.21.63-.43.23v.28h.4v1.59c0,.63.3.94.89.94.11,0,.23,0,.34-.03.09-.02.18-.04.27-.08v-.47c-.15.05-.3.07-.46.07-.11,0-.22-.03-.3-.11h0ZM118.52,16.82c-.16.11-.29.25-.38.42h-.03l-.08-.52h-.49v2.96h.63v-1.55c0-.24.07-.47.23-.64.16-.17.38-.26.61-.25.09,0,.19.01.28.03l.06-.59c-.1-.02-.21-.03-.31-.03-.18,0-.36.05-.51.16h0ZM120.74,16.71h-.63v2.96h.63v-2.96h0ZM120.17,16.18c.07.07.17.1.26.09.09,0,.19-.03.26-.09.06-.07.1-.16.09-.25.02-.18-.11-.33-.29-.35-.02,0-.04,0-.07,0-.1,0-.19.03-.26.09-.07.07-.1.16-.09.26,0,.09.03.18.09.25h0ZM124.16,19.67v-1.99c0-.35-.1-.61-.29-.77s-.48-.25-.85-.25c-.18,0-.36.02-.54.07-.18.04-.36.11-.53.19l.2.45c.13-.06.26-.11.4-.16.14-.04.29-.07.44-.07.19,0,.32.05.41.14.09.09.13.23.13.42v.16l-.51.02c-.46.01-.81.1-1.03.25-.23.16-.34.39-.34.69,0,.29.08.51.24.67.16.16.39.24.68.24.19,0,.38-.03.56-.1.17-.09.32-.21.43-.37h.02l.13.41h.45,0ZM122.42,19.14c-.08-.08-.13-.19-.12-.31-.01-.16.07-.32.2-.41.13-.09.35-.14.65-.15l.38-.02v.26c.01.2-.06.4-.21.54-.15.13-.35.2-.55.19-.13,0-.25-.03-.35-.11h0ZM128.78,19.28h.03l.11.39h.49v-4.16h-.63v1.08c0,.17.02.34.05.5h-.03c-.2-.29-.5-.43-.89-.43-.34-.01-.66.14-.87.41-.21.27-.31.65-.31,1.13,0,.48.1.86.31,1.13.21.27.49.4.86.4.39,0,.68-.15.89-.44h0ZM127.54,18.96c-.12-.17-.17-.42-.17-.75s.06-.59.18-.77c.11-.17.31-.28.51-.27.26,0,.45.08.57.24s.18.42.18.79v.09c0,.33-.06.56-.18.71-.12.15-.31.22-.56.22-.21.01-.41-.09-.52-.26h0ZM132.77,17.07c-.25-.28-.59-.41-1.02-.41s-.79.13-1.04.4c-.25.27-.37.64-.37,1.12,0,.28.05.56.17.81.11.22.28.41.49.54.22.13.48.19.73.19.44,0,.79-.14,1.03-.41.25-.27.37-.65.37-1.13,0-.47-.12-.84-.37-1.11h0ZM131.17,17.44c.12-.17.31-.26.57-.26.5,0,.75.34.75,1.01,0,.68-.25,1.02-.75,1.02s-.76-.34-.76-1.02c0-.33.06-.58.18-.75h0ZM101.65,23.29c-.24-.2-.61-.3-1.1-.3h-1.13v3.91h.64v-1.46h.41c.49,0,.87-.11,1.14-.33.27-.22.4-.53.4-.94,0-.39-.12-.68-.37-.88ZM100.07,23.52h.44c.29,0,.51.06.64.17s.21.28.21.5c0,.24-.08.42-.23.53-.15.11-.39.17-.72.17h-.34v-1.37h0ZM104.78,26.91c.16-.03.32-.08.47-.16v-.51c-.16.07-.32.13-.49.16-.16.03-.32.05-.49.05-.27,0-.47-.08-.62-.23s-.22-.37-.23-.66h1.97v-.34c0-.42-.11-.74-.34-.98-.23-.24-.53-.36-.93-.36-.42,0-.75.14-.99.41s-.36.66-.36,1.14c0,.47.13.84.39,1.11.26.27.62.4,1.08.4.18,0,.36-.01.54-.05ZM104.6,24.55c.11.13.17.31.18.55h-1.34c.02-.24.1-.43.22-.55.13-.13.3-.2.48-.19.18,0,.35.06.47.19ZM107.13,26.34c-.08-.09-.12-.21-.11-.34v-1.58h.84v-.48h-.84v-.66h-.39l-.21.63-.43.23v.28h.4v1.59c0,.63.3.94.89.94.11,0,.23,0,.34-.03.09-.02.18-.04.27-.08v-.47c-.15.05-.3.07-.46.07-.11,0-.22-.03-.3-.11h0ZM109.69,24.04c-.16.11-.29.25-.38.42h-.03l-.08-.52h-.49v2.96h.63v-1.55c-.01-.24.07-.47.23-.64.16-.17.38-.26.61-.25.09,0,.19.01.28.03l.06-.59c-.1-.02-.21-.03-.31-.03-.18,0-.36.05-.51.16ZM113.53,24.3c-.25-.28-.59-.41-1.02-.41s-.79.13-1.04.4c-.25.27-.37.64-.37,1.12,0,.28.05.56.17.81.11.22.28.41.49.54.22.13.48.19.73.19.44,0,.79-.14,1.03-.41.25-.27.37-.65.37-1.13,0-.47-.12-.84-.37-1.11ZM111.92,24.66c.12-.17.31-.26.57-.26.5,0,.75.34.75,1.01,0,.68-.25,1.02-.75,1.02s-.76-.34-.76-1.02c0-.33.06-.58.18-.75h0ZM112.51,23.58c.16-.12.32-.26.47-.4.15-.13.29-.27.42-.42v-.06h-.73c-.06.11-.15.24-.26.39-.11.15-.21.29-.31.42v.07h.42ZM115.47,22.74h-.63v4.16h.63v-4.16ZM118.42,26.91c.16-.03.32-.08.47-.16v-.51c-.16.07-.32.13-.49.16-.16.03-.32.05-.49.05-.27,0-.47-.08-.62-.23s-.22-.37-.23-.66h1.97v-.34c0-.42-.11-.74-.34-.98s-.53-.36-.93-.36c-.42,0-.75.14-.99.41-.24.28-.36.66-.36,1.14s.13.84.39,1.11c.26.27.62.4,1.08.4.18,0,.36-.01.54-.05ZM118.23,24.55c.11.13.17.31.18.55h-1.34c.02-.24.1-.43.22-.55.13-.13.3-.2.48-.19.18,0,.35.06.47.19ZM122.21,24.3c-.25-.28-.59-.41-1.02-.41s-.79.13-1.04.4-.37.64-.37,1.12c0,.28.05.56.17.81.11.22.28.41.49.54.22.13.48.19.73.19.44,0,.79-.14,1.03-.41s.37-.65.37-1.13c0-.47-.12-.84-.37-1.11ZM120.61,24.66c.12-.17.31-.26.57-.26.5,0,.75.34.75,1.01,0,.68-.25,1.02-.75,1.02s-.76-.34-.76-1.02c0-.33.06-.58.18-.75h0Z"/>
      </g>
      <path class="cls-3" d="M63.24,24.68h-4.14l-7.44-12.03s0,2.1,0,3.26v8.77s-4.35,0-4.35,0V4.73s4.27,0,4.27,0l7.55,12.73s-.03-2.21-.04-3.54l-.04-9.19h4.24l-.05,19.95Z"/>
      <path class="cls-3" d="M68.9,24.68V4.73s4.14,0,4.14,0v19.95h-4.14Z"/>
      <path class="cls-3" d="M91.26,11.17c.25,2.17-.44,4.23-2.07,5.88-1.31,1.33-2.98,2.11-5.35,2.11h-2.44v5.52h-4.33V4.73h6.78c2.47,0,3.87.79,5.06,1.91,1.3,1.22,2.1,2.38,2.35,4.53ZM81.39,14.86h1.94c.79,0,2.32.24,3.25-1.32.58-.96.61-2.18.13-2.99-.54-.91-1.41-1.56-2.98-1.56h-2.34v5.87Z"/>
      <path class="cls-3" d="M35.48,4.73c-5.5,0-9.95,4.46-9.95,9.95s4.46,9.95,9.95,9.95,9.95-4.46,9.95-9.95-4.46-9.95-9.95-9.95ZM35.25,20.54c-3.14-.06-5.64-2.66-5.58-5.8.06-3.14,2.66-5.64,5.8-5.58,3.14.06,5.64,2.66,5.58,5.8-.06,3.14-2.66,5.64-5.8,5.58Z"/>
      <path class="cls-1" d="M16.14,10.27c0-3.24-2.63-5.87-5.87-5.87V0c5.67,0,10.27,4.6,10.27,10.27,0,5.67-4.6,10.27-10.27,10.27v-4.4c3.24,0,5.87-2.63,5.87-5.87Z"/>
      <path class="cls-2" d="M4.4,17.42c0-3.24,2.63-5.87,5.87-5.87v-4.4C4.6,7.15,0,11.75,0,17.42s4.6,10.27,10.27,10.27v-4.4c-3.24,0-5.87-2.63-5.87-5.87Z"/>
    </g>
  </g>
</svg>