<?xml version="1.0" encoding="UTF-8"?>
<svg id="Camada_2" data-name="Camada 2" xmlns="http://www.w3.org/2000/svg" viewBox="0 0 124.16 47.17">
  <defs>
    <style>
      .cls-1 {
        fill: #d9d9d9;
      }

      .cls-2, .cls-3 {
        fill: #1d1d1b;
      }

      .cls-2, .cls-4, .cls-5 {
        fill-rule: evenodd;
      }

      .cls-6 {
        fill: #9c9b9b;
      }

      .cls-7 {
        stroke: #9c9b9b;
        stroke-miterlimit: 10;
        stroke-width: .76px;
      }

      .cls-7, .cls-8 {
        fill: none;
      }

      .cls-9 {
        fill: #c8a256;
      }

      .cls-10 {
        fill: #e20613;
      }

      .cls-11 {
        fill: #fff;
      }

      .cls-8 {
        stroke: #1d1d1b;
        stroke-miterlimit: 3.86;
        stroke-width: .05px;
      }

      .cls-12, .cls-4 {
        fill: #525556;
      }

      .cls-13 {
        fill: #312782;
      }

      .cls-5 {
        fill: #524d42;
      }
    </style>
  </defs>
  <g id="Camada_1-2" data-name="Camada 1">
    <g>
      <path class="cls-11" d="M.02,19.79C.02,9.06,7.2.37,16.06.37s16.04,8.7,16.04,19.42-7.18,19.43-16.04,19.43S.02,30.52.02,19.79"/>
      <path class="cls-8" d="M.02,19.79C.02,9.06,7.2.37,16.06.37s16.04,8.7,16.04,19.42-7.18,19.43-16.04,19.43S.02,30.52.02,19.79Z"/>
      <path class="cls-6" d="M3.6,19.77c0-8.8,5.6-15.93,12.5-15.93s12.5,7.13,12.5,15.93-5.6,15.93-12.5,15.93S3.6,28.57,3.6,19.77"/>
      <path class="cls-8" d="M3.6,19.77c0-8.8,5.6-15.93,12.5-15.93s12.5,7.13,12.5,15.93-5.6,15.93-12.5,15.93S3.6,28.57,3.6,19.77Z"/>
      <path class="cls-3" d="M25,26.97c-.06,0-.14,0-.28.22-.06.06-.03-.05-.02-.08.03-.06.06-.1.1-.13-.09.01-.15.05-.21.18-.11.42.41.81-.05,1.06.13.03.19-.03.2-.15.06.1.03.18-.08.23.16.03.24-.04.26-.2.05.05.04.13-.01.23.02,0,.23-.1.12-.52.06.05.15.2.12.38-.04.19-.23.29-.46.24-.12-.04-.21-.12-.28-.23-.22-.31-.34-.65-.31-1.04.13-.67.6-1.23,1.1-1.67l.64-.56.85-.69c.26-.2.58-.49.84-.92.15-.21.31-.49.39-.97.06-.41.01-.81-.08-1.26-.15-.54-.45-.82-.74-.9-.22-.06-.48-.03-.63.26-.11.28-.26.38-.46.52.11.53.37.83.76.91.07-.03.11-.1.12-.21.05.06.04.14,0,.29.15-.09.21-.25.13-.52.15.13.19.31.07.5.22-.08.28-.25.18-.5.46.56-.38.64-.42.63-.27-.04-.79-.17-.95-1.03-.22-.4-.16-.88-.03-1.3.28-.83.53-1.51.63-2.09.13-.62.15-1.31-.01-2.13-.25-.91-.61-1.71-1.08-2.23l-.53.84-.22.4-.09.16-.02.04c.2.26.42.69.5,1.19.09.69.05,1.27-.09,1.84-.15.58-.33,1.04-.46,1.41-.08.22-.22.59-.21.86-.02.41.09.86.38,1.17.19.06,1.44.66,1.7.86.39.15.7.2.95-.04.3-.36.08-.68-.44-.94-.4-.22-.2-.7-.11-.79.09-.12.38-.07.44-.04.19.11.31.26.37.44-.13-.13-.28-.29-.37-.33-.05-.02-.12-.02-.21,0,.1,0,.31.22.31.28-.46-.35-.5-.08-.51-.03.14-.02.25.01.3.11-.23-.05-.32-.03-.29.06.05.13.44.37.59.53.23.24.27.54.04.78-.46.44-.87.12-1.01.18-.01.3-.2.75-.28.88-.22.35-.51.63-.8.92-.11.11-.37.38-.8.75-.71.7-.81.87-1.06,1.47-.25.5-.25,1.02-.02,1.53.02.06.26.27.34.29.31.11.76.5,1.07.48.35,0,.4-.34.4-.64-.06-.13-.19-.31-.18-.45,0-.31.23-.35.31-.34.11,0,.19.03.24.06.06.03.14.07.17.21,0,.14-.08.22-.11.28.04-.25-.07-.36-.13-.38.01.07.02.12,0,.14-.05-.11-.14-.22-.14-.18.03.06.02.18,0,.22,0-.14-.06-.18-.1-.2-.07,0-.11.06-.1.14,0,.14.04.24.11.31.14.11.31.21.47.24-.04-.18.02-.34.08-.5.02-.05.03-.08.03-.1.03-.17-.38-.3-.67-.36,0,.04,0,.05-.01.06-.05-.02-.14-.04-.3.25-.07.08-.03-.07-.02-.1.05-.13.12-.2.21-.24M23.73,28.2s-.36-.19-.42-.35c-.23-.5-.25-1.05.02-1.61.26-.62.37-.81,1.09-1.51.42-.36.68-.63.8-.75.28-.29.57-.56.78-.9.13-.2.32-.81.25-.95-.28-.2-1.42-.76-1.68-.85-.33-.33-.46-.81-.43-1.26-.02-.24.08-.53.21-.9.13-.37.31-.82.46-1.4.13-.56.17-1.13.09-1.8-.06-.42-.24-.84-.5-1.17-.32.22-.57.06-.74-.25l-.05-.13v9.32c-.07,1.33-.38,2.45-.89,3.4-.27.55-.69,1.15-1.04,1.47-.17.16-.33.32-.5.47-3.01,2.81-7.6,2.68-10.37,0-.19-.16-.36-.33-.53-.51-.41-.39-.65-.8-.87-1.28-.47-.93-.78-2.08-.91-3.51v-9.47c-.04.08-.08.17-.11.27-.17.32-.44.48-.78.22-.24.32-.36.78-.42,1.15-.08.68-.08,1.29.05,1.85.15.58.35,1.02.51,1.38.16.35.29.64.27.88.02.46-.15.94-.47,1.26-.5.16-1.27.56-1.7.91-.07.14.07.73.2.93.24.38.49.71.77.99.11.11.38.35.8.71.52.51.84.77,1.14,1.47.27.55.29,1.05.06,1.56-.05.16-.34.36-.39.38-.35.12-.77.51-1.14.5-.45.01-.55-.4-.55-.77-.18.11-.33.15-.55.14.1-.24.06-.35-.03-.58l-.02-.07s-.01-.04-.01-.06c-.05-.36.85-.51,1.03-.53.24,0,.36,0,.48.26.07.24-.03.44-.1.66-.05.16-.06.27.12.35.18-.26.27-.58.24-.95-.08-.41-.3-.9-1.03-1.54l-.62-.53-.87-.71c-.27-.21-.6-.53-.88-.98-.16-.23-.29-.55-.37-1.05-.06-.43-.01-.85.08-1.3.15-.58.48-.88.82-.98.31-.09.6.02.76.32.08.2.17.32.33.44l.07.05c.09-.2.14-.56-.03-1.11-.28-.83-.49-1.53-.6-2.12-.13-.63-.2-1.35-.03-2.19.23-.83.56-1.6,1.15-2.24-.04-.62.22-1.13.77-1.59,4.95-4.49,12.91-3.88,17.21.04.48.44.8.82.74,1.47.58.64.93,1.52,1.15,2.33.17.84.15,1.54.01,2.18-.11.59-.36,1.27-.64,2.1-.17.55-.12.92-.03,1.12l.08-.05c.17-.12.28-.23.36-.44.16-.3.45-.41.76-.32.34.1.66.41.82.98.1.46.14.88.08,1.3-.08.5-.25.79-.4,1.01-.27.45-.6.74-.86.95l-.85.69-.64.56c-.73.64-.99,1.19-1.07,1.6-.03.36.1.69.29.96.29-.13.08-.41.02-.65-.03-.12-.04-.24,0-.36.12-.26.24-.25.48-.26.19.02,1.09.17,1.03.53,0,.02,0,.04-.01.06l-.02.07c-.08.22-.12.34-.03.58-.24,0-.41-.08-.61-.2,0,.34-.04.8-.51.79-.36.02-.76-.37-1.1-.48M24.44,14.62l.09-.16c.07-.13.16-.3.26-.48.11-.2.33-.61.51-.83.06-.62-.23-.97-.71-1.41-4.27-3.89-12.17-4.49-17.08-.04-.54.46-.78.95-.74,1.54.57.58.57.61.84,1.43.26.13.36.09.49-.05.11-.13.22-.31.32-.55.02-.04.04-.08.07-.12v-.03c.2-.27.52-.56.84-.79.32-.21.74-.36,1.34-.44.41-.06.88-.05,1.18.13.11.07.17.16.19.27.01.16-.03.3-.13.41-.18.2-.48.24-.89.11.47,0,.75-.08.84-.23-.28.08-.5.1-.68.05.44-.05.69-.12.72-.32-.25.13-.48.19-.68.13.36-.03.56-.12.59-.29-.21.09-.38.11-.47.08.15-.04.26-.09.33-.15-.2-.08-.59-.1-1.02-.07-.52.06-1.19.38-1.23.43.48-.14,1.21.5,1.94.54.83-.01,1.03-.81.37-1.2-.09-.08-.84-.26-.97-.58-.92.5-1.77,1.14-2.52,1.92l-.35.48c-.06.1.02.1.09.05.09-.07.19-.22.33-.42,0,0-.33.8-.57.57-.06-.06-.02-.3.06-.39,3.93-4.56,11.59-5.22,16.39-.21.23.26.27.46.12.61-.08.07-.19.07-.27,0-.13-.14-.16-.26-.22-.45.2.31.35.42.45.32.04-.13-.03-.25-.18-.39-.7-.69-1.46-1.28-2.25-1.75-.24-.06-.44-.07-.59-.05l-.02-.09c.11-.03.26,0,.44.05-.13-.08-.27-.15-.4-.22-.16.3-.87.47-.95.55-.66.39-.47,1.18.37,1.2.73-.04,1.47-.68,1.94-.54-.04-.04-.71-.36-1.23-.42-.43-.03-.82,0-1.02.07.07.06.18.11.33.15-.1.03-.27,0-.47-.08.03.16.23.26.59.29-.2.06-.43,0-.68-.13.04.21.28.27.72.32-.18.05-.4.04-.68-.04.08.15.36.23.84.23-.41.12-.7.09-.89-.11-.1-.11-.14-.25-.13-.41.02-.11.09-.19.19-.27.3-.18.77-.19,1.18-.13.59.08,1.01.23,1.34.44.34.25.7.54.87.81l.03.05.02.04c.1.24.2.46.31.59.13.14.24.18.5.04M23.5,14.13s-.04-.07-.06-.11h-14.83s-.01,1.58-.01,1.58c.05-.07.13-.13.21-.13h.09c-.23.43-.13.55.12.87.02.02.04.05.05.07.08-.29-.22-.88.4-.95h.09c-.16.37-.18.43.06.71.08.09.11.18.1.3.13-.1.11-.33.11-.47,0-.37.08-.51.49-.55-.19.54.23.65.17.96.23-.16-.24-1.01.58-.93-.14.27-.06.38.05.63.03.08.06.17.06.25.18-.17-.09-.92.44-.9h.06c-.1.57.33.55.29.98.27-.16-.07-.86.33-.98v-.63h7.7v1.33c.1.03.15.1.18.23.38-.18-.4-.89.55-1-.44.68.05.47.19.9.18-.39-.25-.89.54-.9-.41.59.09.57.11.97.27-.23-.23-.93.55-.93-.35.71.17.48.27.9.31-.24-.34-.78.53-.96-.06.2-.16.46.03.62.12.1.2.15.22.34.25-.32-.11-.65.33-.87v-1.34ZM23.38,13.91c-.23-.38-.47-.49-.64-.57-.79-.09-1.37.59-2.11.51-.98-.03-1.18-.96-.37-1.41.31-.16.63-.26.97-.47-3.39-1.77-7.33-1.69-10.46,0,.36.22.69.32,1,.49.82.45.61,1.38-.37,1.41-.73.08-1.32-.6-2.11-.51-.17.07-.4.18-.63.54h14.71ZM8.6,18s.13-.02.17-.03c-.08.3-.06.44.1.7l.07.12c.04.07.08.14.08.22.29-.27-.37-.89.42-1.02-.11.35.02.45.16.73.05.11.09.23.07.36.33-.15-.13-.88.44-1.06l.1-.03c-.17.61.25.61.26,1.03.33-.24-.37-.86.45-1.05-.11.28-.09.34.09.56.1.13.21.27.15.5.36-.12-.26-.96.4-1.03h.07c-.12.53.24.56.29.92.16-.38-.17-.87.51-.94-.24.6.2.64.18,1.01.2-.24-.09-.92.41-1l.09-.02c-.1.29-.08.35.1.56.11.12.22.26.15.5.26-.17-.11-1.09.47-1.05h.08c-.08.18-.08.23.02.39.11.19.27.36.23.6.22-.22-.06-1.02.4-.98h.09c-.11.17-.13.22-.02.38.13.19.32.36.28.62.17-.2-.02-.87.37-.94v-1.52h-2.98s0-.93,0-.93c-.25.08.07.88-.4.96l-.08.02c.07-.26.05-.31-.1-.51-.09-.12-.19-.26-.17-.51-.36.05,0,.89-.45.93h-.09c.08-.15.08-.19,0-.35-.08-.18-.19-.37-.12-.58-.51.02.03.96-.51.96h-.1c.14-.21.1-.24-.01-.44-.07-.14-.16-.3-.12-.52-.21.05-.22.21-.22.42,0,.35.02.53-.38.66.09-.29.07-.3-.1-.5-.1-.12-.18-.26-.07-.57-.44.13-.01.78-.3.99l-.1.07c.01-.13.03-.14-.05-.24-.19-.23-.35-.41-.24-.75-.02.03-.08.06-.1.1v2.25ZM17.21,18.93c.14-.26-.11-.95.51-.98h.16c-.26.21-.35.3-.14.62.07.11.18.25.18.38.2-.35-.14-1.01.62-.97-.32.44,0,.47.12.81.02.06.03.13.01.2.34-.24-.16-1.04.49-1h.09c-.14.24-.2.37-.02.59l.08.1c.06.07.11.15.12.25.21-.3-.28-.84.59-.95-.38.72.12.5.19.98.1-.29-.11-.92.5-.97h.08c-.07.22-.14.39.01.59l.06.09c.07.09.11.18.12.3.12-.28-.29-.96.53-1.04-.13.37-.09.42.09.72.05.08.08.17.08.27.17-.22-.06-.95.47-.95h.07c-.15.47.09.39.2.71.02.06.03.12.03.2.2-.33-.19-.97.59-.93-.34.55.22.55.24.9.11-.22-.02-.7.21-.83v-2.42c-.29.17.08.57-.35.93l-.1.09c.03-.31.05-.34-.16-.51-.11-.09-.19-.22-.11-.56-.5.16.11.72-.4.95l-.07.03c0-.28-.08-.27-.26-.43-.13-.11-.2-.25-.09-.53-.41.08.05.8-.43.96l-.09.03c.07-.28,0-.3-.14-.5-.09-.14-.15-.3-.03-.53-.39.07,0,.62-.33.96l-.09.1c0-.35-.06-.32-.27-.53-.12-.11-.19-.25-.06-.5-.43.14.2.83-.36.98l-.06.02v-.06c-.03-.08-.08-.13-.1-.16v.22h-1.08s-1.55,0-1.55,0c-.06.79-.11,1.59-.16,2.38M17.29,21.08c.11-.06.22-.11.36-.1.63.02.81.67,1.38.68.59-.02.88-.71,1.59-.71.64,0,.96.67,1.42.66.79-.03.63-.6,1.47-.69v-2.77c-.03.05-.04.12-.04.2-.01.28.02.59-.3.74l-.06-.09c.31-.33-.46-.45-.24-.96-.43.05-.02.81-.45,1.01l-.1.05c.07-.26.09-.36-.08-.58-.12-.14-.18-.25-.13-.45-.37.08-.05.91-.47.99l-.09.02c.09-.26.06-.29-.07-.49-.08-.13-.16-.29-.09-.54-.54.13,0,.99-.41,1.07h-.07c.02-.16.02-.26-.09-.4l-.07-.09c-.09-.12-.15-.26-.08-.54-.49.11-.11.92-.46,1.03l-.07.02c.02-.3-.04-.32-.21-.51-.11-.12-.17-.26-.06-.53-.51.13,0,.75-.45.99l-.13.06c.08-.2.11-.26-.03-.43l-.08-.1c-.11-.13-.2-.29-.08-.55-.24.03-.15.4-.15.57-.01.33-.14.42-.44.51.15-.29.13-.34-.04-.58-.1-.14-.19-.3-.09-.51-.42.07-.03.96-.54,1.08l-.05-.09c.26-.24-.44-.57-.18-.98-.35.16,0,.88-.38,1.03l-.14,2.11c.08-.05.16-.1.24-.14M17.34,21.17c-.1.05-.19.12-.29.18l-.14,1.96c.16-.09.32-.17.52-.17.63,0,.95.61,1.61.61.67.04.79-.64,1.57-.59.57-.06,1.08.67,1.56.61.37,0,.67-.69,1.33-.67v-2.06c-.75.06-.62.66-1.46.69-.52.01-.83-.65-1.42-.66-.66,0-.94.69-1.58.71-.63,0-.81-.66-1.39-.68-.1,0-.2.03-.3.08M15.4,21.52v2c0,2.34,0,4.69-.02,7.04.48-.06.92-.3.96-.81.34-4.41.62-8.82.93-13.23,0-.05.02-.07.08-.07h2.55v-1.49h-7.47s0,1.49,0,1.49h2.91c.06,0,.08.02.08.08,0,1.67-.01,3.33-.02,5M9.31,21.28c.24.2.42.33.76.37.53.05.87-.65,1.46-.63.73-.05.68.67,1.41.66.52.05.88-.72,1.5-.64.31,0,.54.08.75.29l.07.08.03.03c0-1.09,0-2.18,0-3.27-.07.01-.12.05-.15.13-.09.23.05.81-.3.86l-.1.02c.19-.47-.14-.53-.27-.85-.02-.06-.03-.13-.01-.19-.21.12.08.91-.38,1.02l-.11.03c.21-.46-.08-.53-.21-.86-.03-.07-.04-.14-.02-.21-.36.06.06,1.03-.47,1.07h-.09c.22-.52-.09-.46-.22-.8-.03-.07-.04-.15-.02-.25-.29.16.04.9-.41,1.04l-.12.04c.13-.27.09-.3-.05-.53-.08-.14-.17-.32-.11-.55-.37.11-.02.75-.38,1.01l-.12.09c.08-.31.06-.34-.1-.58-.09-.14-.19-.29-.17-.52-.42.11.24.97-.41,1.03h-.09c.2-.48-.1-.47-.22-.79-.03-.07-.04-.15-.02-.23-.39.18.22.83-.33,1.03l-.09.03c.05-.27,0-.33-.14-.54-.08-.13-.17-.28-.14-.49-.35.22.12.95-.45,1.04h-.09c.19-.49-.28-.63-.22-1.08-.41.14.23.82-.34,1.05l-.17.06c.13-.18.18-.2.06-.39l-.07-.12c-.09-.15-.19-.34-.15-.6,0,0-.02,0-.03,0v2.85c.31,0,.47.1.71.3M9.24,21.36c-.18-.15-.35-.28-.62-.28v2.08c.44.05.78.6,1.43.6.68.03.82-.59,1.47-.57.62-.02.77.52,1.54.56.42.05,1.02-.61,1.53-.63.28,0,.51.08.71.19v-1.74s-.07-.06-.1-.09l-.07-.08c-.19-.19-.39-.27-.68-.26-.58-.07-.93.69-1.5.64-.78.01-.73-.71-1.4-.66-.55-.02-.88.68-1.47.62-.36-.04-.56-.18-.82-.39M16.66,26.87l.42-.68.55.7.62-1.26.49,1.27.49-.75.52.72.61-1.33.51,1.35.54-.74.47.72.63-1.32.39.91c.34-.8.55-1.72.6-2.78v-.48c-.67,0-.87.67-1.32.67-.54.06-1.04-.67-1.57-.61-.73-.04-.85.64-1.58.59-.69,0-1.02-.6-1.6-.61-.2,0-.37.09-.53.2-.08,1.14-.16,2.29-.24,3.43M15.28,28.57h-4.8c.13.14.26.26.4.38,2.73,2.64,7.26,2.77,10.23,0,.14-.13.28-.26.41-.39h-4.98s-.09,1.19-.09,1.19c-.05.65-.65.87-1.18.92v-2.1ZM9.65,25.65l.52,1.24.47-.64.56.76.59-1.38.52,1.24.56-.69.47.71.51-1.23.57,1.28.56-.74.3.42v-3.18c-.21-.12-.42-.22-.7-.21-.49.02-1.07.69-1.54.63-.47-.03-.66-.18-1.02-.41-.16-.1-.31-.15-.51-.15-.6-.02-.74.6-1.47.57-.66,0-1.07-.56-1.44-.6v.45c.11,1.13.33,2.09.64,2.89l.4-.96ZM7.26,26.97c.06.03.11.08.15.17,0,.02.04.14-.02.08-.14-.22-.22-.21-.26-.19-.01-.01-.02-.02-.01-.05-.2.03-.93.17-.89.4,0,0,0,.02,0,.04l.02.06s.04.1.06.16c.03.1.05.22.02.34.17-.02.32-.11.46-.21.09-.07.12-.21.12-.35,0-.08-.03-.14-.1-.14-.04.02-.1.06-.09.19-.03-.04-.04-.15,0-.22,0-.04-.1.07-.13.18-.02-.02-.02-.07,0-.14-.06.02-.16.13-.12.38-.04-.05-.13-.13-.12-.27.02-.14.11-.18.17-.21.05-.03.13-.05.24-.06.08,0,.32.04.31.35,0,.17-.16.35-.23.47,0,.3.06.67.45.66.31.01.78-.38,1.1-.49.08-.02.31-.26.33-.31.23-.51.19-.98-.05-1.48-.28-.68-.6-.94-1.11-1.43-.43-.37-.7-.61-.81-.72-.28-.29-.54-.62-.78-1.01-.09-.14-.26-.64-.23-.93-.17,0-.55.23-.96-.17-.24-.24-.19-.54.04-.78.15-.16.54-.4.59-.53.03-.09-.06-.12-.29-.06.05-.1.15-.13.3-.11-.01-.04-.04-.32-.51.03,0-.07.21-.27.31-.28-.08-.03-.16-.03-.21,0-.09.03-.24.19-.37.33.06-.18.18-.32.37-.44.06-.04.35-.08.44.04.09.1.28.58-.11.79-.52.26-.74.58-.43.94.25.24.56.22.96.06.44-.34,1.17-.72,1.65-.87.3-.3.45-.76.42-1.17.02-.26-.17-.63-.26-.84-.16-.36-.37-.81-.52-1.39-.14-.57-.14-1.21-.05-1.89.08-.5.23-.94.43-1.2-.04-.13-.08-.23-.11-.32-.19-.38-.38-.65-.56-.9l-.12-.12c-.47.52-.84,1.23-1.09,2.15-.17.82-.1,1.52.03,2.14.11.59.31,1.28.59,2.11.1.33.17.7.08,1.04-.12,1.04-.68,1.24-.97,1.28-.04,0-.88-.07-.42-.63-.11.26-.05.42.17.5-.12-.19-.08-.37.07-.5-.08.28-.03.44.13.52-.04-.15-.05-.23,0-.29,0,.1.05.17.12.21.38-.07.62-.36.74-.86-.22-.17-.37-.26-.49-.57-.16-.29-.42-.33-.64-.26-.29.09-.6.36-.74.9-.1.45-.14.85-.08,1.26.08.49.21.8.35,1.01.27.44.59.76.85.96l.87.71.63.53c.5.44.94.94,1.07,1.61.03.41-.06.76-.31,1.09-.06.08-.18.12-.28.15-.23.05-.42-.05-.46-.24-.03-.18.05-.33.12-.38-.12.42.1.52.12.52-.06-.1-.06-.18-.02-.23.02.17.1.23.26.2-.11-.05-.14-.13-.08-.23,0,.12.07.18.21.15-.4-.25.09-.63-.02-1.04-.08-.16-.15-.18-.27-.19"/>
      <path class="cls-1" d="M23.5,14.13s-.04-.08-.06-.11h-14.83s-.01,1.58-.01,1.58c.05-.07.13-.13.21-.13h.09c-.23.43-.13.55.13.87.02.02.03.05.05.07.08-.29-.22-.88.4-.95h.09c-.16.37-.18.43.06.71.08.09.11.18.1.3.13-.1.11-.33.11-.47,0-.37.08-.51.49-.55-.19.54.23.65.17.96.23-.16-.25-1.01.58-.93-.14.27-.06.38.05.63.03.08.06.17.06.25.18-.17-.08-.92.44-.89h.06c-.1.57.33.55.29.97.27-.15-.07-.86.33-.97v-.63h7.69v1.33c.11.03.15.1.18.23.38-.18-.4-.89.55-1-.44.68.05.47.19.9.18-.39-.25-.89.54-.9-.41.59.09.57.11.97.27-.23-.23-.93.55-.94-.34.71.17.48.27.9.31-.24-.34-.78.53-.96-.06.2-.16.47.03.63.12.1.2.15.22.33.25-.32-.11-.65.33-.87"/>
      <path class="cls-10" d="M8.6,18s.13-.02.18-.03c-.08.3-.06.44.1.7l.07.12c.04.07.08.14.08.22.29-.27-.37-.89.42-1.02-.11.35.02.45.16.73.05.11.09.23.07.36.33-.15-.13-.88.44-1.06l.1-.03c-.17.61.25.61.26,1.03.33-.24-.37-.86.45-1.05-.11.28-.09.34.09.56.1.13.21.27.15.5.36-.13-.26-.96.4-1.03h.07c-.12.53.24.56.29.92.16-.38-.17-.87.51-.93-.24.6.2.64.18,1.01.2-.24-.09-.92.41-1h.09c-.1.27-.08.33.1.54.11.12.22.26.15.5.26-.17-.11-1.09.47-1.05h.08c-.08.18-.08.23.02.39.11.19.27.36.23.6.22-.22-.06-1.02.4-.98h.09c-.11.17-.13.22-.02.38.13.19.32.36.28.62.17-.2-.01-.87.37-.94v-1.51h-2.98s0-.93,0-.93c-.25.08.07.88-.4.96l-.08.02c.07-.26.05-.31-.1-.51-.09-.12-.19-.26-.17-.51-.36.05,0,.89-.45.93h-.09c.08-.15.08-.19,0-.35-.08-.18-.19-.37-.12-.58-.51.02.03.96-.51.96h-.1c.14-.21.1-.24-.01-.44-.07-.14-.16-.3-.12-.52-.21.05-.22.21-.22.42,0,.35.02.53-.38.66.09-.29.07-.3-.1-.5-.1-.12-.18-.26-.07-.57-.44.13-.01.78-.3.99l-.1.07c.02-.13.03-.14-.05-.24-.19-.23-.35-.41-.24-.75-.02.03-.08.06-.1.1"/>
      <path class="cls-10" d="M17.21,18.93c.14-.26-.11-.95.51-.99h.16c-.26.21-.35.3-.14.62.07.11.18.25.18.38.2-.35-.14-1.01.62-.97-.32.44,0,.47.12.81.02.06.03.13.01.2.34-.24-.16-1.04.49-1h.09c-.14.24-.2.37-.01.59l.08.1c.06.07.11.15.12.25.21-.3-.28-.84.59-.95-.37.72.12.5.19.98.1-.29-.11-.92.5-.97h.08c-.07.22-.14.39.01.59l.06.09c.07.09.11.18.12.3.12-.28-.29-.96.53-1.04-.13.37-.09.42.09.72.05.08.08.17.08.27.17-.22-.06-.95.47-.95h.07c-.15.47.09.39.2.71.02.06.03.12.03.2.2-.33-.19-.97.59-.93-.34.55.22.55.24.9.11-.22-.02-.7.21-.83v-2.42c-.29.17.08.57-.35.93l-.1.09c.03-.31.05-.34-.16-.51-.11-.09-.19-.22-.11-.56-.5.16.11.72-.4.95l-.08.03c0-.28-.08-.27-.26-.43-.13-.11-.2-.25-.09-.53-.41.08.05.8-.43.96l-.09.03c.07-.27-.01-.3-.14-.5-.09-.14-.15-.3-.03-.53-.39.07,0,.62-.33.96l-.09.1c0-.35-.06-.32-.27-.53-.12-.11-.19-.25-.06-.5-.43.14.2.83-.36.98l-.06.02v-.06c-.03-.08-.08-.13-.1-.16v.22h-1.08s-1.55,0-1.55,0c-.06.79-.11,1.59-.16,2.38"/>
      <path class="cls-13" d="M9.24,21.36c-.18-.15-.35-.28-.62-.28v2.08c.44.05.78.6,1.43.6.68.03.82-.59,1.47-.57.62-.02.77.51,1.54.56.42.06,1.01-.61,1.53-.63.28,0,.51.08.71.19v-1.74s-.07-.06-.1-.09l-.07-.08c-.19-.19-.39-.27-.68-.26-.58-.08-.93.69-1.5.64-.78.01-.73-.71-1.4-.66-.55-.02-.88.68-1.47.62-.36-.04-.56-.18-.82-.39"/>
      <path class="cls-13" d="M17.34,21.17c-.09.05-.19.12-.29.18l-.14,1.96c.16-.09.32-.17.52-.17.63,0,.95.61,1.61.61.67.04.8-.64,1.57-.59.57-.06,1.08.67,1.56.61.37,0,.67-.69,1.33-.67v-2.07c-.75.06-.62.66-1.46.69-.52.01-.83-.65-1.42-.66-.66,0-.94.69-1.58.71-.63,0-.81-.66-1.39-.68-.11,0-.2.03-.3.08"/>
      <path class="cls-1" d="M9.31,21.28c.24.2.42.33.76.37.53.05.87-.65,1.46-.62.73-.05.68.67,1.41.66.52.05.88-.72,1.5-.64.31,0,.54.08.75.29l.07.08.03.03c0-1.09,0-2.18,0-3.27-.07.01-.12.05-.15.13-.09.23.05.81-.3.86l-.1.02c.19-.47-.14-.53-.27-.85-.02-.06-.03-.13-.01-.2-.21.12.08.91-.38,1.02l-.11.02c.21-.46-.08-.53-.21-.86-.03-.07-.04-.14-.02-.21-.36.06.06,1.03-.47,1.07h-.09c.22-.52-.09-.46-.22-.8-.03-.07-.04-.15-.02-.25-.29.16.04.9-.41,1.04l-.12.04c.13-.27.09-.3-.05-.53-.08-.14-.17-.32-.11-.55-.37.11-.02.75-.38,1.01l-.12.09c.08-.31.06-.34-.1-.58-.09-.14-.19-.29-.17-.52-.42.11.24.97-.41,1.03h-.09c.2-.48-.1-.47-.22-.79-.03-.07-.04-.15-.02-.23-.39.18.22.83-.33,1.03l-.09.03c.05-.27,0-.33-.14-.54-.08-.13-.17-.28-.14-.49-.35.22.12.95-.45,1.04h-.09c.19-.49-.28-.63-.22-1.08-.41.14.23.82-.34,1.05l-.17.06c.13-.18.18-.2.06-.39l-.07-.12c-.09-.15-.19-.34-.15-.6,0,0-.02,0-.03,0v2.85c.31,0,.47.1.71.3"/>
      <path class="cls-1" d="M17.29,21.08c.11-.06.22-.11.36-.1.63.02.81.67,1.38.68.59-.02.88-.71,1.59-.71.64,0,.96.67,1.42.66.79-.03.63-.6,1.47-.69v-2.77c-.03.05-.04.12-.04.2-.01.27.02.59-.3.74l-.06-.09c.31-.33-.46-.45-.24-.96-.43.05-.02.81-.45,1.01l-.1.05c.07-.26.09-.36-.08-.58-.12-.14-.18-.25-.13-.45-.37.08-.05.91-.47.99l-.09.02c.09-.26.06-.29-.07-.49-.08-.13-.16-.29-.09-.54-.54.13,0,.99-.41,1.07h-.07c.02-.16.02-.26-.09-.4l-.07-.09c-.09-.12-.15-.26-.08-.54-.49.11-.11.92-.46,1.03l-.07.02c.02-.3-.04-.32-.21-.51-.11-.12-.17-.26-.06-.53-.51.13,0,.75-.45.99l-.12.07c.08-.2.11-.26-.03-.43l-.08-.1c-.11-.13-.2-.29-.08-.55-.23.03-.15.4-.15.57-.01.33-.14.42-.44.51.15-.29.13-.34-.04-.58-.1-.14-.19-.3-.09-.51-.42.07-.03.96-.54,1.08l-.05-.09c.26-.24-.44-.57-.18-.98-.35.16,0,.88-.38,1.03l-.14,2.11c.08-.05.16-.1.24-.14"/>
      <path class="cls-1" d="M9.65,25.65l.52,1.24.47-.64.56.76.59-1.38.52,1.24.56-.7.47.71.51-1.23.57,1.28.56-.74.3.43v-3.18c-.21-.12-.42-.22-.7-.21-.49.02-1.07.69-1.54.63-.47-.03-.66-.18-1.02-.41-.16-.1-.31-.15-.51-.15-.6-.02-.74.6-1.47.57-.66,0-1.07-.56-1.44-.6v.45c.11,1.13.33,2.09.64,2.89"/>
      <path class="cls-1" d="M16.66,26.87l.42-.68.55.7.62-1.26.49,1.27.49-.75.52.72.61-1.33.51,1.35.54-.74.47.71.63-1.32.39.91c.34-.81.55-1.72.6-2.78v-.48c-.67,0-.87.67-1.32.67-.54.06-1.04-.66-1.57-.61-.73-.04-.85.64-1.58.59-.69,0-1.02-.6-1.6-.61-.2,0-.37.09-.53.2-.08,1.14-.16,2.29-.24,3.43"/>
      <path class="cls-1" d="M15.28,28.57h-4.8c.13.14.26.26.4.38,2.73,2.64,7.26,2.77,10.23,0,.14-.13.28-.26.41-.39h-4.98s-.09,1.2-.09,1.2c-.05.65-.65.87-1.18.92"/>
      <path class="cls-8" d="M.02,19.79C.02,9.06,7.2.37,16.06.37s16.04,8.7,16.04,19.42-7.18,19.43-16.04,19.43S.02,30.52.02,19.79Z"/>
      <path class="cls-11" d="M7.26,26.97c.06.03.11.08.15.17,0,.02.04.14-.02.08-.14-.22-.22-.21-.26-.19-.01-.01-.02-.02-.01-.05-.2.03-.93.17-.89.4,0,0,0,.02,0,.04l.02.06s.04.1.06.16c.03.1.05.22.02.34.17-.02.32-.11.46-.21.09-.07.12-.21.12-.35,0-.08-.03-.14-.1-.14-.04.02-.1.06-.09.19-.03-.04-.04-.15,0-.22,0-.04-.1.07-.13.18-.02-.02-.02-.07,0-.14-.06.02-.16.13-.12.38-.04-.05-.13-.13-.12-.27.02-.14.11-.18.17-.21.05-.03.13-.05.24-.06.08,0,.32.04.31.35,0,.17-.16.35-.23.47,0,.3.06.67.45.66.31.01.78-.38,1.1-.49.08-.02.31-.26.33-.31.23-.51.19-.98-.05-1.48-.28-.68-.6-.94-1.11-1.43-.43-.37-.7-.61-.81-.72-.28-.29-.54-.62-.78-1.01-.09-.14-.26-.64-.23-.93-.17,0-.55.23-.96-.17-.24-.24-.19-.54.04-.78.15-.16.54-.4.59-.53.03-.09-.06-.12-.29-.06.05-.1.15-.13.3-.11-.01-.04-.04-.32-.51.03,0-.07.21-.27.31-.28-.08-.03-.16-.03-.21,0-.09.03-.24.19-.37.33.06-.18.18-.32.37-.44.06-.04.35-.08.44.04.09.1.28.58-.11.79-.52.26-.74.58-.43.94.25.24.56.22.96.06.44-.34,1.17-.72,1.65-.87.3-.3.45-.76.42-1.17.02-.26-.17-.63-.26-.84-.16-.36-.37-.81-.52-1.39-.14-.57-.14-1.21-.05-1.89.08-.5.23-.94.43-1.2-.04-.13-.08-.23-.11-.32-.19-.38-.38-.65-.56-.9l-.12-.12c-.47.52-.84,1.23-1.09,2.15-.17.82-.1,1.52.03,2.14.11.59.31,1.28.59,2.11.1.33.17.7.08,1.04-.12,1.04-.68,1.24-.97,1.28-.04,0-.88-.07-.42-.63-.11.26-.05.42.17.5-.12-.19-.08-.37.07-.5-.08.28-.03.44.13.52-.04-.15-.05-.23,0-.29,0,.1.05.17.12.21.38-.07.62-.36.74-.86-.22-.17-.37-.26-.49-.57-.16-.29-.42-.33-.64-.26-.29.09-.6.36-.74.9-.1.45-.14.85-.08,1.26.08.49.21.8.35,1.01.27.44.59.76.85.96l.87.71.63.53c.5.44.94.94,1.07,1.61.03.41-.06.76-.31,1.09-.06.08-.18.12-.28.15-.23.05-.42-.05-.46-.24-.03-.18.05-.33.12-.38-.12.42.1.52.12.52-.06-.1-.06-.18-.02-.23.02.17.1.23.26.2-.11-.05-.14-.13-.08-.23,0,.12.07.18.21.15-.4-.25.09-.63-.02-1.04-.08-.16-.15-.18-.27-.19"/>
      <path class="cls-11" d="M24.44,14.62l.09-.16c.07-.13.16-.3.26-.48.11-.2.33-.61.51-.83.06-.62-.23-.97-.71-1.41-4.27-3.89-12.17-4.49-17.08-.04-.54.46-.78.95-.74,1.54.57.58.57.61.84,1.43.26.13.36.09.49-.05.11-.13.22-.31.32-.55.02-.04.04-.08.07-.12v-.03c.2-.27.53-.56.84-.79.33-.22.74-.36,1.33-.44.41-.06.88-.05,1.18.13.11.07.17.16.19.27.01.16-.03.3-.13.41-.18.2-.48.24-.89.11.47,0,.75-.08.84-.23-.28.08-.5.1-.68.05.44-.05.69-.12.72-.32-.25.13-.48.19-.68.13.36-.03.56-.12.59-.29-.2.09-.38.11-.47.08.15-.04.26-.09.33-.15-.2-.08-.59-.1-1.02-.07-.52.06-1.19.38-1.23.42.48-.14,1.21.5,1.94.54.83-.01,1.03-.81.37-1.2-.09-.08-.84-.26-.97-.58-.92.5-1.77,1.14-2.52,1.92l-.35.48c-.06.1.02.1.09.05.09-.07.19-.22.33-.42,0,0-.33.8-.57.57-.06-.06-.02-.3.06-.39,3.93-4.56,11.59-5.22,16.39-.21.23.26.27.46.12.61-.08.07-.19.07-.27,0-.13-.14-.16-.26-.22-.45.2.31.35.42.45.32.04-.13-.03-.25-.18-.39-.7-.69-1.46-1.28-2.25-1.76-.24-.06-.44-.07-.59-.05l-.02-.09c.11-.03.26-.01.44.05-.13-.08-.27-.15-.4-.22-.16.3-.87.47-.95.55-.66.39-.47,1.18.37,1.2.73-.04,1.47-.68,1.94-.54-.04-.04-.71-.36-1.23-.42-.43-.03-.82,0-1.02.07.07.06.18.11.33.15-.1.03-.27,0-.47-.08.03.16.23.26.59.29-.2.06-.43,0-.68-.13.04.21.28.27.72.32-.18.05-.4.04-.68-.05.08.15.36.23.84.23-.41.12-.7.09-.88-.11-.1-.11-.14-.24-.13-.41.02-.1.09-.19.19-.27.3-.18.77-.19,1.18-.13.59.08,1.01.23,1.33.44.34.25.7.54.87.81l.03.05.02.04c.1.24.2.46.31.59.13.14.24.18.5.03"/>
      <path class="cls-11" d="M25,26.97c-.06,0-.14,0-.28.22-.06.06-.03-.06-.02-.08.03-.06.06-.1.1-.13-.09.01-.14.05-.21.18-.11.42.41.81-.05,1.06.13.03.19-.03.2-.15.06.1.03.18-.08.23.16.03.24-.04.26-.2.05.05.04.12-.02.23.02,0,.23-.1.12-.52.06.05.15.2.12.38-.04.19-.23.29-.46.24-.12-.04-.21-.12-.28-.23-.22-.31-.34-.65-.31-1.04.13-.67.6-1.23,1.1-1.67l.64-.56.85-.69c.26-.2.58-.49.84-.92.15-.21.31-.49.39-.97.06-.41.01-.81-.08-1.26-.15-.55-.45-.82-.74-.9-.22-.06-.48-.03-.63.26-.11.28-.26.38-.46.52.11.53.37.83.76.91.07-.03.11-.1.12-.21.05.06.04.14,0,.29.15-.09.21-.25.13-.52.15.13.19.31.07.5.22-.08.28-.25.17-.5.46.56-.38.64-.42.63-.27-.04-.79-.17-.95-1.03-.22-.4-.16-.88-.03-1.3.28-.83.53-1.51.63-2.09.13-.62.15-1.31-.01-2.13-.25-.91-.61-1.71-1.08-2.23l-.53.84-.22.4-.09.16-.02.04c.2.26.42.69.5,1.19.09.69.05,1.27-.09,1.84-.15.58-.33,1.04-.46,1.41-.08.22-.22.59-.21.86-.02.41.09.86.38,1.17.19.06,1.44.66,1.7.86.39.15.7.2.95-.04.3-.36.08-.68-.44-.94-.4-.22-.2-.7-.11-.79.09-.12.38-.07.44-.04.19.11.31.26.37.44-.13-.14-.28-.29-.37-.33-.05-.02-.13-.02-.21,0,.1,0,.31.22.31.28-.46-.35-.5-.08-.51-.04.15-.02.25.01.3.11-.23-.05-.32-.03-.29.07.05.13.44.37.59.53.23.23.27.54.04.78-.46.44-.87.12-1.01.18-.01.3-.2.75-.28.88-.22.35-.51.63-.8.92-.11.11-.37.38-.8.75-.71.7-.81.87-1.06,1.48-.25.5-.25,1.02-.02,1.53.02.06.26.27.34.29.31.11.76.49,1.07.48.35,0,.4-.34.4-.64-.06-.13-.19-.31-.18-.45,0-.31.23-.35.31-.35.11,0,.19.03.24.06.06.03.15.07.17.21,0,.14-.08.22-.11.28.04-.25-.07-.36-.13-.38.01.07.02.12,0,.14-.05-.12-.14-.22-.14-.18.03.06.02.18,0,.22,0-.14-.06-.18-.1-.2-.07,0-.11.06-.1.14,0,.14.04.24.11.31.14.11.31.22.48.24-.04-.18.02-.34.08-.5.02-.05.03-.08.03-.1.03-.17-.38-.3-.67-.36,0,.04,0,.05-.01.06-.05-.02-.14-.04-.3.25-.07.08-.03-.07-.02-.1.05-.13.12-.2.21-.24"/>
      <path class="cls-2" d="M8.73,11.42s.28.65.64.59c0,.07-.13.31-.13.3-.21-.08-.44-.35-.6-.65l-.3.03s-.04.07-.04.08c.07.1.26.35.44.52l.27-.05-.03.29h-.34c-.15-.17-.43-.49-.47-.55-.01-.02.05-.37.1-.51"/>
      <path class="cls-2" d="M9.44,10.76c.13.19.37.6.55.79.08,0,.13,0,.17-.01-.02.04-.06.2-.11.27-.13-.03-.14-.03-.24-.06-.01.05-.01.08-.02.16-.14.03-.26.06-.31.06,0,0-.31-.37-.51-.63-.04.01-.07.03-.12.04.01-.11.03-.21.05-.33.05,0,.14,0,.2,0,.08.19.2.43.41.66h.21s.06-.09.06-.09c-.18-.21-.44-.59-.52-.72"/>
      <path class="cls-2" d="M9.72,10.25c.1.14.51.92.65,1.09.05,0,.15-.01.22-.03l-.06.26s-.23,0-.24,0c-.07-.1-.69-1.09-.69-1.11"/>
      <path class="cls-2" d="M12.29,9.45c.07.05.22.13.22.13,0,0,.15-.25.15-.25,0,0,.3.13.3.13,0,.02.17.66.18.72,0,0,.25.08.25.08,0,0-.17.18-.18.21,0,0-.21-.11-.21-.11-.07-.16-.22-.73-.22-.73-.03,0-.21-.03-.21-.03,0,.01-.02.06-.03.08.07.23.23.69.3.86l-.23.04c-.06-.22-.12-.52-.27-.8-.05,0-.11-.02-.18-.03-.01.02-.03.1-.03.1.09.26.22.53.3.81,0,0-.21.08-.21.07-.03-.07-.22-.58-.33-.83-.07,0-.14,0-.22,0,.04-.08.07-.14.16-.28.12.04.16.07.28.1,0,0,.13-.19.19-.25"/>
      <path class="cls-2" d="M15.86,8.87s.16.14.2.19c.03,0,.06,0,.06,0,.05-.08.04-.07.07-.14h.37s0,.07,0,.09c-.05.05-.09.11-.14.18-.05,0-.14-.05-.22-.08-.03,0-.1,0-.14,0,0,.27,0,.63,0,.94h-.25c0-.12,0-.61,0-.88,0,0-.12-.08-.15-.11.01-.01.2-.2.2-.2"/>
      <path class="cls-2" d="M18.89,9.17c.13.09.24.19.4.3-.06.07-.04.04-.15.14,0,0-.23-.19-.31-.24-.03,0-.07,0-.12,0-.05.16-.1.45-.12.59,0,0,.14.17.26.25.03,0,.07-.02.1-.04.05,0,.1,0,.1,0,0,0,0,.03,0,.05-.07.06-.29.17-.29.17-.15-.11-.4-.32-.39-.33.01-.13.06-.49.1-.69.14-.07.3-.14.44-.21"/>
      <path class="cls-2" d="M20.53,9.73c.04.08.1.2.11.2.12-.03.21-.08.21-.07.07.09.28.34.28.35,0,.01-.27.44-.24.56.02.11.06.14.09.21h-.24c-.04-.06-.1-.14-.09-.17.05-.11.27-.61.26-.62-.08-.08-.17-.13-.25-.18-.11.24-.23.56-.31.81-.06-.01-.2-.06-.19-.07.04-.11.26-.67.26-.79s-.05-.08-.1-.1c.05-.02.15-.07.21-.12"/>
      <polyline class="cls-2" points="14.21 9.21 14.4 9.02 14.62 9.16 14.75 10.13 14.37 10.43 14.23 10.28 14.33 10.08 14.39 10.22 14.55 10.2 14.45 9.38"/>
      <polyline class="cls-2" points="14.68 8.68 14.84 8.68 14.84 8.77 14.62 9.06 14.57 9.06 14.57 8.96"/>
      <path class="cls-2" d="M20.15,9.79s-.38.77-.12.78c-.02.02-.09.09-.17.12,0,0-.22-.25-.22-.25.05-.17.1-.33.25-.64l-.22-.2s-.08.03-.08.03c-.04.11-.12.36-.15.61l.21.2-.16.15-.29-.3c.05-.22.1-.52.13-.6,0-.02.32-.21.47-.26"/>
      <path class="cls-2" d="M22.04,10.61s-.48.71-.23.76c-.03.02-.1.07-.18.1,0,0-.19-.28-.19-.28.08-.16.15-.32.33-.6l-.19-.23s-.08.02-.08.02c-.06.11-.17.34-.23.58l.18.23-.18.12-.25-.34c.08-.21.18-.5.21-.57,0-.02.34-.17.5-.19"/>
      <path class="cls-2" d="M22.76,10.75c.03.08.12.3.12.3,0,0,.3-.03.3-.03,0,0,.04.24.06.27,0,.01-.36.55-.39.59,0,0,.09.16.09.16,0,0-.21.06-.24.06,0,0-.12-.22-.12-.22.09-.15.39-.6.39-.6-.02-.02-.04-.18-.04-.19-.01,0-.1,0-.12,0-.14.19-.36.59-.46.75l-.19-.13c.14-.18.31-.44.45-.73-.02-.04-.03-.06-.06-.12-.03,0-.09,0-.09,0-.16.22-.27.53-.45.77,0,0-.18-.13-.18-.13.04-.06.27-.48.42-.72-.02-.06-.04-.1-.07-.17.09-.03.09-.03.24-.07.05.11.06.12.11.23,0,0,.18-.03.25-.04"/>
      <path class="cls-2" d="M24.12,11.78c-.13.18-.43.51-.55.73.03.08.02.11.04.15-.04,0-.15.02-.24,0-.01-.13-.04-.15-.05-.25-.05,0-.11.02-.19.04-.08-.12-.09-.31-.12-.36,0,0,.23-.25.4-.52,0-.05-.05-.17-.08-.21.1,0,.2,0,.31,0,0,.06.01.2,0,.27-.15.14-.26.22-.4.49l.06.2.12.03c.14-.24.42-.59.5-.7"/>
      <path class="cls-2" d="M24.55,12.5l.26-.1c-.06-.12-.16-.22-.29-.29-.09-.06-.27-.03-.35-.02-.17.04-.26.12-.27.25,0,.06.02.12.06.16.05.06.2.2.29.28.04.1,0,.18-.01.2-.02.05-.1.03-.16-.02-.1-.08-.17-.17-.25-.31l-.19.1c.09.16.16.3.29.37.16.06.34.02.44-.07.05-.05.08-.13.08-.23,0-.06-.04-.16-.12-.24s-.17-.11-.2-.16c-.04-.06-.03-.14.03-.2.04-.04.15-.03.19,0,.05.02.13.13.2.29"/>
      <path class="cls-2" d="M6.89,27.02s.05,0,.1,0c.09.03.16.11.22.24,0,.03.04.18-.02.1-.16-.29-.25-.28-.3-.25-.02-.02-.02-.03,0-.09"/>
      <path class="cls-2" d="M8.12,26.83c.08.7-.15,1.11-.17,1.19.08-.02.15-.09.2-.23.07-.41.06-.73-.03-.96"/>
      <path class="cls-2" d="M8.4,26.84c.08.7-.16.98-.18,1.05.08-.02.15-.09.2-.23.11-.39.07-.6-.02-.83"/>
      <path class="cls-2" d="M8.64,26.64c.08.7-.11,1.02-.13,1.1.08-.02.15-.09.2-.23.11-.39.02-.65-.06-.87"/>
      <path class="cls-2" d="M5.65,20.56c0,.3-.16.62-.22.71.14-.09.21-.14.27-.33.04-.19.02-.33-.05-.39"/>
      <path class="cls-2" d="M5.83,20.77c0,.3-.16.61-.22.71.14-.09.18-.15.24-.34.04-.19.05-.32-.02-.38"/>
      <path class="cls-2" d="M5.94,20.96c.12.19-.09.51-.09.51.1-.04.19-.15.21-.25.02-.19-.02-.28-.12-.26"/>
      <path class="cls-2" d="M6.59,20.22c0,.49-.1.93-.32,1.32.07-.06.13-.1.17-.09.22-.31.27-.72.15-1.23"/>
      <path class="cls-2" d="M6.89,19.98c.01.49-.05.93-.27,1.31.07-.07.13-.1.17-.09.22-.31.23-.71.09-1.22"/>
      <path class="cls-2" d="M7.15,19.87c.01.49,0,.91-.21,1.3.07-.07.13-.1.17-.09.22-.31.16-.7.03-1.21"/>
      <path class="cls-2" d="M7.42,19.81c0,.49,0,.83-.22,1.21.08-.06.09-.01.14,0,.16-.22.15-.91.08-1.21"/>
      <path class="cls-2" d="M7.68,19.65c.03.51-.01.9-.23,1.28.07-.06.09,0,.13,0,.16-.22.23-1.25.1-1.27"/>
      <path class="cls-2" d="M11.27,12.37s.04.08.11.11c-.26-.02-.56-.01-.89.02.26-.11.52-.15.78-.13"/>
      <path class="cls-2" d="M10.17,12.41c.33-.17.63-.24.81-.2l-.02.09c-.19-.02-.45,0-.79.1"/>
      <path class="cls-2" d="M20.94,12.32s-.04.08-.11.11c.26-.02.56-.01.89.02-.26-.11-.52-.15-.78-.13"/>
      <path class="cls-2" d="M26.52,20.56c0,.3.16.61.22.71-.14-.09-.21-.14-.27-.33-.04-.19-.02-.33.05-.39"/>
      <path class="cls-2" d="M26.35,20.77c0,.3.16.61.22.71-.14-.09-.18-.15-.24-.34-.04-.19-.05-.32.02-.38"/>
      <path class="cls-2" d="M26.24,20.96c-.12.19.09.51.09.51-.1-.04-.19-.15-.21-.25-.02-.19.02-.28.12-.26"/>
      <path class="cls-2" d="M25.59,20.22c0,.49.11.93.33,1.32-.07-.06-.13-.1-.17-.09-.22-.31-.27-.72-.15-1.23"/>
      <path class="cls-2" d="M25.28,19.98c-.01.49.05.93.27,1.31-.07-.07-.13-.1-.17-.09-.22-.31-.23-.71-.09-1.22"/>
      <path class="cls-2" d="M25.02,19.87c-.01.49,0,.91.21,1.3-.07-.07-.13-.1-.17-.09-.22-.31-.16-.7-.03-1.21"/>
      <path class="cls-2" d="M24.75,19.81c0,.49,0,.83.22,1.21-.08-.06-.09-.01-.13,0-.16-.22-.15-.91-.08-1.21"/>
      <path class="cls-2" d="M24.49,19.65c-.03.51.01.9.23,1.28-.07-.06-.09-.01-.13,0-.16-.22-.23-1.25-.1-1.27"/>
      <path class="cls-2" d="M23.99,26.8c-.08.7.15,1.11.17,1.19-.08-.02-.15-.09-.2-.23-.07-.41-.06-.73.03-.96"/>
      <path class="cls-2" d="M23.71,26.81c-.09.7.16.98.18,1.05-.08-.02-.15-.09-.2-.23-.11-.39-.07-.6.02-.83"/>
      <path class="cls-2" d="M23.47,26.62c-.08.7.11,1.02.13,1.1-.08-.02-.15-.09-.2-.23-.11-.39-.02-.65.06-.87"/>
      <path class="cls-3" d="M6.77,13.57s-.08.06-.12.11c-.04.06-.13-.01-.08-.07.05-.06.1-.11.15-.14.06-.04.12.06.06.09"/>
      <path class="cls-3" d="M6.89,13.65c-.09.1-.15.2-.2.31-.03.07-.13.02-.1-.04.05-.12.13-.23.22-.33.05-.06.13.02.08.07"/>
      <path class="cls-3" d="M7.03,13.84c-.07.05-.15.15-.2.25-.03.07-.13.03-.1-.04.05-.12.15-.24.23-.3.06-.04.12.05.06.09"/>
      <path class="cls-3" d="M7.18,14.08c-.07.06-.13.13-.18.21-.04.06-.13,0-.09-.06.06-.08.13-.16.2-.22.05-.05.13.03.07.08"/>
      <path class="cls-3" d="M7.31,14.35c-.11.12-.19.24-.25.36-.03.06-.13.02-.1-.05.06-.13.15-.26.27-.39.05-.05.13.02.08.07"/>
      <path class="cls-3" d="M7.43,14.57c-.09.11-.16.24-.22.39-.03.07-.13.03-.1-.04.06-.16.14-.3.24-.42.05-.06.13.01.08.07"/>
      <path class="cls-2" d="M7,12.71c-.06,0-.11.12-.14.36.02.05.06.07.12.04-.02-.17-.02-.29.02-.4"/>
      <path class="cls-2" d="M7.21,12.89c-.08.07-.14.24-.17.43l.1.04c-.01-.19,0-.35.07-.47"/>
      <path class="cls-2" d="M7.46,13.09c-.11.1-.19.29-.23.49l.1.04c-.02-.21.11-.5.13-.53"/>
      <path class="cls-2" d="M7.7,13.33c-.11.1-.25.32-.29.53l.08.1c-.02-.21.18-.59.2-.63"/>
      <path class="cls-2" d="M7.87,13.56c-.11.1-.29.44-.33.65l.08.1c-.02-.21.22-.71.24-.75"/>
      <path class="cls-3" d="M25.39,13.43c.05.03.1.08.15.14.04.06-.04.12-.09.07-.04-.05-.08-.09-.12-.11-.06-.04,0-.13.06-.09"/>
      <path class="cls-3" d="M25.31,13.55c.09.1.16.22.22.33.03.07-.07.11-.1.05-.05-.11-.11-.21-.2-.31-.05-.05.03-.13.08-.07"/>
      <path class="cls-3" d="M25.16,13.75c.09.06.18.18.23.3.03.07-.07.11-.1.04-.04-.1-.13-.21-.19-.25-.06-.04,0-.13.06-.09"/>
      <path class="cls-3" d="M25.05,13.98c.07.07.14.14.2.22.04.06-.05.12-.09.06-.06-.08-.12-.14-.18-.21-.05-.05.02-.13.07-.08"/>
      <path class="cls-3" d="M24.93,14.26c.12.13.21.26.27.39.03.06-.07.11-.1.05-.06-.12-.14-.24-.25-.36-.05-.05.03-.13.08-.07"/>
      <path class="cls-3" d="M24.82,14.49c.1.12.18.26.24.42.03.07-.08.11-.1.04-.06-.15-.13-.28-.22-.39-.05-.06.04-.12.08-.07"/>
      <path class="cls-2" d="M25.12,12.63c.06,0,.11.12.14.36-.02.05-.06.07-.12.04.02-.17.02-.29-.02-.4"/>
      <path class="cls-2" d="M24.92,12.82c.08.07.13.24.17.43l-.1.04c.02-.19,0-.35-.07-.47"/>
      <path class="cls-2" d="M24.66,13.01c.11.1.19.29.23.49l-.1.04c.02-.21-.11-.49-.13-.53"/>
      <path class="cls-2" d="M24.42,13.25c.11.1.25.32.29.53l-.09.1c.02-.21-.18-.59-.2-.63"/>
      <path class="cls-2" d="M24.25,13.49c.11.1.29.44.33.65l-.08.1c.02-.21-.23-.71-.24-.75"/>
      <path class="cls-2" d="M17.05,8.88s.41.23.39.24c0,0-.03.61-.01.79.05,0,.07.02.15.04v.08c-.07.04-.09.06-.17.11,0,0-.16-.13-.21-.16-.02.02-.09.06-.2.14-.04-.01-.33-.21-.35-.23-.01-.04,0-.57,0-.73.14-.13.38-.28.4-.27M17.21,9.24l-.34-.14c0,.28,0,.53-.01.65l.3.15c.01-.08.05-.57.06-.66"/>
      <path class="cls-2" d="M15.24,8.92c.14.09.34.2.34.21,0,.13.05.83.05.83,0,0-.18.06-.31.15-.11-.04-.43-.18-.43-.18-.02-.2-.04-.57-.05-.69,0-.01.25-.22.4-.32M15.1,9.11l-.06.15c.03.16.05.31.07.51l.25.15c0-.1.01-.46,0-.62l-.27-.19Z"/>
      <path class="cls-2" d="M13.53,9.14s.39.09.39.1c0,0,.1.54.17.7.05.02.1.04.17.06,0,.02,0,.03,0,.06-.04.06-.06.08-.12.15,0,0-.16-.07-.2-.1-.02.02-.08.09-.17.2-.04,0-.32-.06-.35-.08-.02-.04-.17-.58-.21-.74.1-.16.3-.34.32-.34M13.75,9.46l-.32-.06c.06.27.12.49.15.61l.28.04c-.02-.08-.09-.51-.11-.59"/>
      <path class="cls-2" d="M10.52,10.11c.16.03.44.09.45.1.06.12.3.57.31.57,0,0-.14.29-.22.43-.12,0-.39,0-.39,0-.09-.17-.35-.55-.41-.65,0,0,.19-.3.27-.46M10.49,10.35l-.03.16c.09.13.18.3.29.46h.33c-.04-.09-.23-.47-.31-.61l-.27-.02Z"/>
      <path class="cls-2" d="M7.87,11.97s.56.57.56.59c-.01.11-.02.32-.03.44h-.25s.01.1.01.1l.09.09s0,.32,0,.32c-.25-.3-.67-.74-.9-.97l-.17-.02.03-.26s.19.05.28.07c.03-.08.04-.14.07-.22.14-.06.32-.14.32-.14M7.85,12.24c-.08,0-.13.01-.29.03,0,.07,0,.13.01.19.18.19.33.36.42.46,0-.07.01-.08.02-.14.04,0,.19,0,.28,0v-.06c-.2-.21-.32-.35-.44-.47"/>
      <path class="cls-9" d="M15.4,21.52v2c0,2.34,0,4.69-.02,7.04.48-.06.92-.3.96-.81.34-4.41.62-8.82.93-13.23,0-.05.02-.07.08-.07h2.55v-1.49h-7.47v1.49h2.91c.06,0,.08.02.08.08,0,1.67-.01,3.33-.02,5"/>
      <path class="cls-5" d="M16.17,15.33c0-.11.09-.2.2-.2s.2.09.2.2-.09.2-.2.2-.2-.09-.2-.2"/>
      <path class="cls-5" d="M15.68,15.95c0-.11.09-.2.2-.2s.2.09.2.2-.09.2-.2.2-.2-.09-.2-.2"/>
      <path class="cls-5" d="M16.7,15.95c0-.11.09-.2.2-.2s.2.09.2.2-.09.2-.2.2-.2-.09-.2-.2"/>
      <path class="cls-4" d="M31.14,23.17s-.03.38-.03.38c0,0-2.2-.29-2.2-.29,0,0,.05-.34.05-.34,0,0,1.46.19,2.18.25"/>
      <path class="cls-4" d="M28.49,30.98c-.04.3-.45.64-.96.8,0,0-.1-.33-.09-.33.03-.01.67-.04.79-.39.07-.21.05-.51-.25-.5-.49.03-.51.5-1.2.46-.2-.01-.44-.27-.48-.59-.07-.56.62-.88.93-.89.02.07,0,.28,0,.28-.37.03-.82.28-.76.65.05.29.28.29.39.27.38-.07.68-.5,1.05-.48.3.02.62.29.57.73"/>
      <path class="cls-4" d="M28.76,26s-.08.08-.08.07c-.33-.4-.33-.7-.18-.98.36-.65,1.17-.53,1.57-.29.29.18.45.47.49.59.15.4-.05.98-.55,1.2,0,0-.15-.27-.15-.27.16-.04,1.17-.51.2-1.16-.35-.24-1.15-.36-1.4-.02-.16.22-.18.4.09.85"/>
      <path class="cls-4" d="M31.37,20.22s-.03.26-.03.27c0,0-1.75,1.01-1.75,1.01,0,0,1.13.1,1.62.13,0,0-.05.31-.05.32,0,0-2.28-.45-2.28-.45l2.16-1.22c-.4-.07-1.43-.03-1.87-.04l.03-.27s1.65.13,2.17.26"/>
      <path class="cls-4" d="M29.71,18.82s-.06.09-.06.09c-.49-.3-.56-.73-.46-1.03.22-.71,1.06-.76,1.5-.6.32.12.51.38.58.5.23.36.22.88-.22,1.2,0,0-.23-.26-.23-.26.37-.12.82-.78-.06-1.08-.44-.15-.93-.06-1.15.09-.38.27-.39.66.11,1.09"/>
      <path class="cls-4" d="M30.81,16.33c.13.04.29.11.44.14l.04.29c-.1-.06-.51-.37-.51-.37,0,0,.03-.06.03-.06"/>
      <path class="cls-4" d="M30.82,14.63l.3,1.18s-.33.22-.34.22c.02-.07.08-.27.06-.4l-.1-.62-.67.15s.05.28.06.36c0,0-.22.14-.22.14l-.05-.45s-.92.21-.92.2c.07.31.17.9.34,1.05-.07,0-.29-.06-.35-.08l-.22-1.24,2.1-.5"/>
      <path class="cls-4" d="M30.54,13.65s-.26.16-.26.16c-.02-.07.07-.5-.04-.75-.12.02-1.41.41-1.93.6-.02-.06-.09-.31-.11-.37.52-.16,1.93-.58,1.93-.58-.01-.1-.31-.6-.4-.69,0,0,.35.05.35.04.07.14.55,1.5.47,1.59"/>
      <path class="cls-4" d="M29.54,27.93c.26.39.21.98-.23,1.24-.53.31-1.34.14-1.72-.52-.1-.18-.14-.36-.09-.66.05-.25.28-.46.39-.53.63-.37,1.38.05,1.65.46M29.22,29c.67-.26.09-.9.09-.9-.17-.21-.74-.57-1.23-.45-.51.12-.59.48-.41.82.2.37,1.04.73,1.55.53"/>
      <path class="cls-4" d="M14.92,1.06s.16-.01.17-.02c0,0,1.24,1.65,1.24,1.65,0,0,.06-1.13.02-1.62,0,0,.28.01.28.02,0,0-.13,2.34-.13,2.34l-1.45-1.99c0,.41.13,1.34.19,1.79h-.27s-.04-1.64-.04-2.16"/>
      <path class="cls-4" d="M23.1,3s.32.21.32.21c-.4.54-.82,1.18-1.22,1.83,0,0-.31-.17-.31-.17.37-.57,1.21-1.87,1.21-1.87"/>
      <path class="cls-4" d="M20.62,1.76c.39.12.77.28,1.15.41,0,.08.03.25,0,.34-.13-.13-.79-.53-.88-.44-.09.08-.14.39-.23.64.11.03.34.14.34.14,0,0,.04.22.03.22-.19-.03-.45-.15-.45-.15,0,0-.22.56-.31.88.28.07.63.31,1.01.28-.08.09-.21.2-.3.25-.31-.17-.72-.38-1.07-.48.23-.62.49-1.37.71-2.09"/>
      <path class="cls-4" d="M17.91,1.08c.08,0,.23.03.35.07-.1.39-.1.88-.2,1.31.12.04.91.19.92.17.01-.02.24-1.19.27-1.28.09,0,.19.04.27.06-.16.61-.41,1.66-.44,2.19-.03,0-.27-.06-.27-.06.02-.27.09-.49.16-.74-.32-.06-.55-.14-.91-.18-.06.19-.06.49-.07.71-.08,0-.22-.06-.38-.06.1-.74.23-1.42.31-2.19"/>
      <path class="cls-4" d="M10.12,2.5c.07-.1.27-.24.4-.28.41-.11.54-.05.92.15l-.18.25c-.26-.32-.61-.33-.75-.26-.39.15-.34.89-.18,1.25.08.18.24.36.39.48.25.19.51.22.66-.05.12-.2.06-.25-.03-.64.04-.04.17-.07.25-.08.05.13.25.43-.06.83-.36.45-.89.2-1.12.03-.62-.45-.67-1.2-.3-1.68"/>
      <path class="cls-4" d="M27.99,8.06c.49.26.58,1,.46,1.16,0,0-.24-.05-.24-.06,0-.03.12-.7-.19-.9-.19-.12-.48-.17-.53.12-.08.5.36.6.17,1.25-.06.2-.29.4-.61.38-.62-.04-.85-1.01-.7-1.15.07,0,.26.07.25.07-.06.41-.02.88.48.91.21.01.33-.32.33-.36,0-.39-.31-.76-.21-1.13.08-.3.39-.51.78-.31"/>
      <path class="cls-4" d="M12.21,1.59c.38-.13.72-.21,1.1-.33.05.07.23.17.27.25-.18-.02-.94.04-.97.16-.02.12.11.4.19.65.1-.04.35-.09.35-.09,0,0,.16.15.16.16-.18.09-.45.15-.45.15,0,0,.15.58.26.9.25-.05.73-.16,1.02-.41,0,.12-.05.28-.09.37-.34.04-.85.16-1.2.29-.17-.64-.4-1.4-.65-2.11"/>
      <path class="cls-4" d="M7.21,4.39s.23-.17.23-.18c0,0,1.91.63,1.91.63,0,0-.68-.92-1.01-1.29,0,0,.23-.15.23-.15.02.03.45.69,1.28,1.98l-2.28-.75c.24.33.93,1.05,1.24,1.37l-.23.17s-1.05-1.36-1.36-1.78"/>
      <path class="cls-4" d="M5.28,6.34c.26-.32.47-.52.73-.83.1,0,.29.02.38.06-.17.08-.75.55-.72.61.01.03.3.28.49.45.06-.09.18-.25.19-.25,0,0,.29.07.3.07-.17.12-.34.31-.34.31,0,0,.52.49.78.7.17-.23.51-.52.62-.88.06.11.11.24.12.34-.27.22-.62.61-.84.9-.49-.45-1.13-1-1.72-1.48"/>
      <path class="cls-4" d="M2.67,10.63c.01-.56.61-.93.81-.9,0,0,.06.21.06.22-.02.02-.61.12-.68.53-.04.23.09.6.36.5.5-.19.42-.52.97-.68.19-.06.49.1.6.34.31.67-.44,1.2-.65,1.17-.04-.06-.09-.25-.09-.25.38-.15.82-.42.6-.88-.09-.19-.38-.19-.47-.11-.3.25-.48.52-.85.66-.14.05-.69.02-.68-.61"/>
      <path class="cls-4" d="M26.04,6.02c.55-.14.98.19,1.04.7.07.62-.37,1.3-1.11,1.39-.2.03-.38,0-.62-.16-.2-.14-.33-.46-.34-.58-.07-.73.56-1.23,1.04-1.35M26.89,6.71c-.1-.67-.61-.47-.78-.43-.26.08-.8.46-.88.96-.08.51.21.69.58.66.44-.04,1.15-.69,1.08-1.19"/>
      <path class="cls-4" d="M24.39,3.86s.53.37.75.66c.23.29.21.73-.12.98-.33.24-.57.18-.95-.02-.08.22-.2.48.13,1.14l-.02.02c-.55-.51-.39-1.31-.39-1.31l-.03-.04c-.1.16-.23.37-.39.6l-.31-.24c.46-.54.86-1.19,1.34-1.78M24.64,4.16c-.06.09-.78,1.03-.78,1.03.3.24.54.35.79.16.29-.21.54-.53.22-.98-.07-.1-.23-.22-.23-.22"/>
      <path class="cls-4" d="M1.94,13.42c-.35-.45-.22-.97.21-1.23.39-.24,1.33-.22,1.69.45.11.19.18.35.13.64-.05.25-.26.47-.38.53-.63.36-1.35,0-1.66-.39M2.18,12.37c-.4.21-.42.59-.07.91.18.2.77.47,1.26.39.55-.09.58-.6.35-.84-.3-.32-1.1-.69-1.55-.46"/>
      <path class="cls-4" d="M1.09,15.19c.06-.19.54-.95,1.56-.54.84.34.68,1.11.54,1.68-.76-.09-1.45-.16-2.21-.26.03-.32.07-.78.11-.89M1.18,15.31c-.04.11-.08.33-.06.45.7.11,1.36.14,2,.24.16-.37-.06-.83-.56-1.03-.51-.2-1.22-.06-1.37.34"/>
      <path class="cls-12" d="M.74,21.85s-.02-.28-.03-.29c0,0,.34-.29.7-.6-.4-.25-.78-.49-.78-.49,0,0-.01-.29-.01-.29.52-.03,2.23-.09,2.23-.09l.02.29c-.44-.03-1.43-.1-1.83-.07l.98.62-.89.75c.4-.03,1.37-.24,1.8-.33l.02.29s-1.7.18-2.22.22"/>
      <path class="cls-4" d="M2.99,29.76s-.32-.56-.4-.91c-.08-.36.12-.75.52-.83.4-.08.59.08.85.43.17-.17.38-.35.37-1.09h.02c.29.69-.2,1.34-.2,1.34v.05c.17-.11.37-.23.61-.38l.18.35c-.65.29-1.27.71-1.96,1.04M2.89,29.38c.09-.05,1.14-.6,1.14-.6-.17-.35-.34-.55-.65-.49-.35.07-.71.25-.61.79.02.12.11.29.11.29"/>
      <path class="cls-4" d="M1.66,26.48c-.03-.19.06-1.1,1.15-1.2.9-.08,1.1.68,1.24,1.25-.71.27-1.37.53-2.09.78-.11-.3-.28-.73-.3-.84M1.79,26.55c.01.12.08.33.14.43.68-.22,1.27-.5,1.89-.71-.02-.41-.42-.71-.96-.66-.55.06-1.12.51-1.07.93"/>
      <path class="cls-4" d="M4.77,31.99c-.57.02-.9-.4-.84-.91.05-.46.63-1.2,1.38-1.1.22.03.38.06.58.28.17.18.21.5.19.62-.1.73-.82,1.09-1.31,1.11M4.09,31.16c-.08.45.21.69.68.6.27-.02.84-.34,1.07-.79.26-.5-.12-.83-.45-.79-.43.05-1.21.47-1.3.98"/>
      <path class="cls-4" d="M1.07,24.41c-.09-.4-.12-.7-.2-1.09.06-.08.19-.22.28-.26-.04.18-.03.93.03.95.03,0,.4-.07.65-.12-.03-.11-.08-.3-.08-.3,0,0,.23-.19.24-.19-.01.21.03.46.03.46,0,0,.7-.11,1.02-.19-.08-.28-.09-.73-.3-1.04.12.02.25.06.34.11,0,.35.1.86.18,1.22-.65.11-1.48.29-2.21.46"/>
      <path class="cls-4" d="M15.27,36.44c.4-.02.75,0,1.15,0,.03.08.17.23.18.32-.17-.07-.92-.22-.98-.11-.06.11,0,.42,0,.68.11-.01.36,0,.36.01,0,0,.11.19.11.2-.19.04-.47.02-.47.02,0,0-.02.6,0,.93.25.02.75.05,1.09-.11-.04.11-.12.26-.19.33-.34-.05-.87-.08-1.23-.05,0-.67,0-1.45-.04-2.21"/>
      <path class="cls-4" d="M12.67,36.33c.41-.4.94-.32,1.25.09.37.5.33,1.31-.27,1.76-.16.12-.33.2-.62.17-.25-.02-.51-.23-.59-.33-.43-.6-.13-1.35.22-1.69M13.75,36.5c-.42-.53-.76-.1-.89.02-.18.19-.46.8-.28,1.27.19.49.53.49.83.28.36-.25.65-1.17.34-1.57"/>
      <path class="cls-4" d="M19.12,36.15s.13.28.14.28c-.07,0-.49-.12-.75-.04.01.12.25,1.45.39,1.98-.07.01-.32.06-.38.07-.1-.54-.37-1.98-.38-1.98-.1,0-.63.25-.73.33,0,0,.08-.34.08-.34.15-.06,1.55-.39,1.63-.3"/>
      <path class="cls-6" d="M55.07,14.17c-2.24,0-3.64-1.71-3.64-4.01s1.53-4.13,3.75-4.13,3.65,1.74,3.65,3.99c0,2.64-1.6,4.15-3.76,4.15h-.01ZM55.14,13.01c1.39,0,2.18-1.29,2.18-2.94,0-1.49-.74-2.89-2.18-2.89s-2.19,1.37-2.19,2.94.8,2.89,2.18,2.89h.01Z"/>
      <path class="cls-6" d="M60.08,6.27c.55-.1,1.35-.18,2.18-.18,1.13,0,1.89.19,2.43.63.43.36.68.91.68,1.59,0,1.02-.69,1.71-1.44,1.97v.03c.57.21.91.76,1.1,1.52.26.98.47,1.9.62,2.2h-1.47c-.12-.23-.32-.88-.53-1.86-.23-1.03-.6-1.36-1.42-1.38h-.73v3.24h-1.43v-7.77ZM61.5,9.75h.85c.97,0,1.57-.51,1.57-1.3,0-.85-.6-1.26-1.53-1.26-.46,0-.75.03-.89.07v2.49Z"/>
      <path class="cls-6" d="M66.73,6.27c.64-.11,1.44-.18,2.29-.18,1.47,0,2.48.3,3.21.91.77.62,1.24,1.57,1.24,2.9,0,1.42-.48,2.46-1.23,3.14-.78.71-2.04,1.08-3.57,1.08-.83,0-1.46-.05-1.94-.11v-7.75ZM68.17,12.95c.2.04.5.04.8.04,1.87.01,2.98-1.03,2.98-3.03.01-1.73-.99-2.74-2.8-2.74-.46,0-.77.04-.98.08v5.65Z"/>
      <polygon class="cls-6" points="79.14 10.54 76.17 10.54 76.17 12.86 79.49 12.86 79.49 14.04 74.73 14.04 74.73 6.15 79.31 6.15 79.31 7.34 76.17 7.34 76.17 9.37 79.14 9.37 79.14 10.54"/>
      <path class="cls-6" d="M87.41,10.82c-.05-1.02-.1-2.23-.09-3.31h-.03c-.26.96-.59,2.02-.94,3.02l-1.16,3.42h-1.1l-1.05-3.37c-.3-1.01-.59-2.08-.8-3.07h-.02c-.04,1.03-.08,2.28-.14,3.36l-.18,3.17h-1.35l.53-7.89h1.9l1.03,3.17c.28.92.53,1.86.73,2.74h.03c.21-.85.48-1.82.78-2.75l1.09-3.16h1.87l.46,7.89h-1.4l-.15-3.22Z"/>
      <path class="cls-6" d="M92.97,6.27c.61-.11,1.28-.18,2.02-.18,1.44,0,2.53.39,3.18,1.08.63.66.98,1.54.98,2.74s-.32,2.2-1.03,2.98c-.69.76-1.88,1.2-3.41,1.2-.61,0-1.18-.01-1.76-.06v-7.77ZM93.53,13.57c.32.05.77.06,1.28.06,2.53,0,3.78-1.42,3.78-3.7.02-2-1.09-3.37-3.63-3.37-.61,0-1.09.06-1.43.13v6.88Z"/>
      <path class="cls-6" d="M103.48,14.17c-1.94,0-3.45-1.53-3.45-3.99,0-2.59,1.57-4.15,3.55-4.15s3.44,1.56,3.44,3.99c0,2.79-1.71,4.15-3.52,4.15h-.01ZM103.52,13.7c1.87,0,2.91-1.7,2.91-3.65,0-1.66-.91-3.56-2.89-3.56s-2.93,1.82-2.93,3.66,1.03,3.54,2.89,3.54h.01Z"/>
      <path class="cls-6" d="M108.15,13.17c.44.3,1.06.51,1.72.51,1.18,0,1.91-.67,1.91-1.64,0-.88-.46-1.4-1.6-1.84-1.26-.46-2.02-1.11-2.02-2.18,0-1.16.95-2,2.29-2,.74,0,1.3.19,1.57.36l-.21.48c-.21-.15-.71-.37-1.39-.37-1.28,0-1.71.82-1.71,1.44,0,.87.5,1.31,1.64,1.75,1.3.53,1.99,1.12,1.99,2.29s-.82,2.16-2.5,2.16c-.68,0-1.47-.22-1.88-.53l.21-.46Z"/>
      <polygon class="cls-6" points="56.25 23.58 53.28 23.58 53.28 25.9 56.6 25.9 56.6 27.08 51.84 27.08 51.84 19.2 56.42 19.2 56.42 20.38 53.28 20.38 53.28 22.41 56.25 22.41 56.25 23.58"/>
      <path class="cls-6" d="M57.85,27.08v-7.89h1.65l2.04,3.38c.52.88.98,1.79,1.35,2.64h.02c-.1-1.05-.13-2.07-.13-3.28v-2.75h1.33v7.89h-1.5l-2.06-3.47c-.5-.87-1.02-1.83-1.4-2.71h-.05c.06,1.03.08,2.07.08,3.37v2.82h-1.33Z"/>
      <path class="cls-6" d="M72.09,26.72c-.5.19-1.49.44-2.53.44-1.33,0-2.35-.34-3.1-1.05-.7-.67-1.1-1.71-1.1-2.9.01-2.5,1.78-4.1,4.39-4.1.97,0,1.73.2,2.09.38l-.32,1.16c-.43-.2-.96-.34-1.79-.34-1.68,0-2.87.99-2.87,2.83s1.1,2.85,2.74,2.85c.53,0,.9-.07,1.09-.15v-1.98h-1.39v-1.14h2.79v3.99Z"/>
      <polygon class="cls-6" points="77.98 23.58 75.01 23.58 75.01 25.9 78.33 25.9 78.33 27.08 73.57 27.08 73.57 19.2 78.16 19.2 78.16 20.38 75.01 20.38 75.01 22.41 77.98 22.41 77.98 23.58"/>
      <path class="cls-6" d="M79.58,27.08v-7.89h1.65l2.04,3.38c.51.88.98,1.79,1.35,2.64h.02c-.11-1.05-.13-2.07-.13-3.28v-2.75h1.33v7.89h-1.5l-2.06-3.47c-.5-.87-1.02-1.83-1.4-2.71h-.05c.06,1.03.08,2.07.08,3.37v2.82h-1.33Z"/>
      <polygon class="cls-6" points="88.95 19.2 88.95 22.35 92.28 22.35 92.28 19.2 93.72 19.2 93.72 27.08 92.28 27.08 92.28 23.61 88.95 23.61 88.95 27.08 87.51 27.08 87.51 19.2 88.95 19.2"/>
      <polygon class="cls-6" points="99.78 23.58 96.81 23.58 96.81 25.9 100.13 25.9 100.13 27.08 95.37 27.08 95.37 19.2 99.96 19.2 99.96 20.38 96.81 20.38 96.81 22.41 99.78 22.41 99.78 23.58"/>
      <rect class="cls-6" x="101.4" y="19.2" width="1.44" height="7.89"/>
      <path class="cls-6" d="M104.49,19.31c.55-.1,1.35-.18,2.18-.18,1.13,0,1.89.19,2.43.63.43.36.68.91.68,1.59,0,1.02-.69,1.71-1.44,1.97v.03c.57.21.91.76,1.1,1.52.26.98.47,1.9.62,2.2h-1.47c-.12-.23-.32-.88-.53-1.86-.23-1.03-.6-1.36-1.42-1.38h-.73v3.24h-1.43v-7.77ZM105.92,22.79h.85c.97,0,1.57-.51,1.57-1.3,0-.85-.6-1.26-1.53-1.26-.46,0-.75.03-.89.07v2.49Z"/>
      <path class="cls-6" d="M114.38,27.21c-2.23,0-3.64-1.71-3.64-4.01s1.53-4.13,3.76-4.13,3.65,1.74,3.65,3.99c0,2.64-1.6,4.15-3.76,4.15h-.01ZM114.45,26.05c1.39,0,2.18-1.29,2.18-2.94,0-1.49-.74-2.89-2.18-2.89s-2.19,1.37-2.19,2.94.79,2.89,2.18,2.89h.01Z"/>
      <path class="cls-6" d="M119.36,25.51c.46.27,1.17.5,1.91.5.91,0,1.43-.43,1.43-1.08,0-.6-.4-.95-1.39-1.31-1.31-.46-2.14-1.16-2.14-2.28,0-1.3,1.08-2.27,2.8-2.27.85,0,1.47.19,1.88.39l-.34,1.17c-.29-.15-.84-.38-1.58-.38-.91,0-1.3.48-1.3.95,0,.61.46.89,1.51,1.29,1.37.53,2.02,1.22,2.02,2.34,0,1.28-.96,2.36-2.98,2.36-.84,0-1.71-.23-2.14-.49l.33-1.19Z"/>
      <polygon class="cls-6" points="53.35 33.44 51.1 33.44 51.1 32.24 57.06 32.24 57.06 33.44 54.78 33.44 54.78 40.12 53.35 40.12 53.35 33.44"/>
      <path class="cls-6" d="M62.39,36.62h-2.97v2.32h3.32v1.18h-4.76v-7.89h4.59v1.18h-3.15v2.04h2.97v1.17ZM62.19,30.41l-1.46,1.4h-1.16l1.03-1.4h1.59Z"/>
      <path class="cls-6" d="M69.66,39.89c-.34.16-1.09.35-2.05.35-2.5,0-4.03-1.57-4.03-3.97,0-2.6,1.81-4.15,4.22-4.15.95,0,1.61.19,1.91.34l-.3,1.15c-.37-.16-.9-.3-1.54-.3-1.6,0-2.76,1.01-2.76,2.9,0,1.73,1.01,2.83,2.75,2.83.57,0,1.18-.12,1.57-.28l.23,1.13Z"/>
      <path class="cls-6" d="M70.88,40.12v-7.89h1.65l2.04,3.38c.51.88.98,1.79,1.35,2.64h.02c-.11-1.05-.13-2.07-.13-3.28v-2.75h1.33v7.89h-1.5l-2.06-3.48c-.5-.87-1.02-1.82-1.4-2.71h-.05c.06,1.03.08,2.07.08,3.37v2.82h-1.33Z"/>
      <rect class="cls-6" x="78.8" y="32.24" width="1.44" height="7.89"/>
      <path class="cls-6" d="M87.54,39.89c-.34.16-1.09.35-2.05.35-2.5,0-4.03-1.57-4.03-3.97,0-2.6,1.81-4.15,4.22-4.15.95,0,1.61.19,1.91.34l-.3,1.15c-.37-.16-.9-.3-1.54-.3-1.6,0-2.76,1.01-2.76,2.9,0,1.73,1.01,2.83,2.75,2.83.57,0,1.18-.12,1.57-.28l.23,1.13Z"/>
      <path class="cls-6" d="M91.7,40.25c-2.24,0-3.64-1.71-3.64-4.01s1.53-4.13,3.76-4.13,3.65,1.74,3.65,3.99c0,2.64-1.6,4.15-3.76,4.15h-.01ZM91.77,39.09c1.39,0,2.18-1.29,2.18-2.94,0-1.49-.74-2.89-2.18-2.89s-2.19,1.37-2.19,2.94.79,2.89,2.18,2.89h.01Z"/>
      <path class="cls-6" d="M96.68,38.56c.46.27,1.17.5,1.91.5.91,0,1.43-.43,1.43-1.08,0-.6-.4-.95-1.39-1.31-1.31-.46-2.14-1.16-2.14-2.28,0-1.3,1.08-2.27,2.8-2.27.85,0,1.47.19,1.88.39l-.34,1.17c-.29-.15-.84-.37-1.58-.37-.91,0-1.3.48-1.3.95,0,.61.46.89,1.51,1.29,1.37.53,2.02,1.22,2.02,2.34,0,1.28-.96,2.36-2.98,2.36-.84,0-1.71-.23-2.14-.49l.33-1.19Z"/>
      <line class="cls-7" x1="43.48" x2="43.48" y2="47.17"/>
      <path class="cls-6" d="M1.99,43.9c.12.03.27.04.46.04.67,0,1.08-.33,1.08-.91s-.4-.84-1.01-.84c-.24,0-.43.02-.52.04v1.67ZM1.43,41.83c.27-.05.62-.09,1.07-.09.55,0,.95.13,1.21.36.24.2.38.52.38.89s-.12.7-.34.92c-.29.31-.77.47-1.32.47-.17,0-.32,0-.45-.04v1.73h-.56v-4.24Z"/>
      <path class="cls-6" d="M6.53,45.69c.88,0,1.38-.81,1.38-1.79,0-.86-.45-1.75-1.37-1.75s-1.38.86-1.38,1.79.5,1.74,1.37,1.74h0ZM6.5,46.15c-1.14,0-1.93-.88-1.93-2.18,0-1.37.84-2.26,1.99-2.26s1.94.9,1.94,2.18c0,1.47-.9,2.26-1.99,2.26h0Z"/>
      <path class="cls-6" d="M9.78,43.79h.57c.59,0,.97-.33.97-.82,0-.55-.4-.8-.99-.8-.27,0-.45.03-.55.05v1.56ZM9.22,41.84c.28-.06.69-.1,1.07-.1.59,0,.98.11,1.25.36.21.18.34.48.34.82,0,.56-.36.94-.81,1.09v.02c.32.11.52.42.63.87.14.6.24,1.01.33,1.18h-.57c-.07-.13-.17-.49-.28-1.03-.13-.59-.36-.82-.87-.84h-.52v1.86h-.55v-4.24Z"/>
      <polygon class="cls-6" points="12.22 41.78 12.22 42.25 13.53 42.25 13.53 46.08 14.09 46.08 14.09 42.25 15.4 42.25 15.4 41.78 12.22 41.78"/>
      <path class="cls-6" d="M16.44,41.78v2.55c0,.96.43,1.37,1,1.37.63,0,1.05-.42,1.05-1.37v-2.55h.56v2.51c0,1.32-.7,1.86-1.63,1.86-.88,0-1.54-.5-1.54-1.84v-2.53h.56Z"/>
      <path class="cls-6" d="M23.29,45.89c-.25.1-.75.24-1.33.24-.65,0-1.19-.17-1.61-.57-.37-.36-.6-.93-.6-1.6,0-1.28.89-2.22,2.33-2.22.5,0,.89.11,1.08.2l-.14.45c-.23-.11-.52-.18-.95-.18-1.05,0-1.73.65-1.73,1.73s.65,1.74,1.66,1.74c.36,0,.61-.05.74-.12v-1.28h-.87v-.45h1.42v2.07Z"/>
      <path class="cls-6" d="M26.24,44.29l-.43-1.24c-.09-.28-.15-.54-.22-.79h-.02c-.06.25-.13.52-.21.78l-.42,1.24h1.3ZM24.83,44.72l-.45,1.35h-.58l1.46-4.3h.67l1.47,4.3h-.59l-.46-1.35h-1.53Z"/>
      <polygon class="cls-6" points="28.03 41.78 28.03 46.08 30.43 46.08 30.43 45.61 28.59 45.61 28.59 41.78 28.03 41.78"/>
    </g>
  </g>
</svg>