<?xml version="1.0" encoding="UTF-8"?>
<svg id="Camada_2" data-name="Camada 2" xmlns="http://www.w3.org/2000/svg" viewBox="0 0 1421.79 182.96">
  <defs>
    <style>
      .cls-1 {
        fill: #e82127;
      }
    </style>
  </defs>
  <g id="Camada_1-2" data-name="Camada 1">
    <g>
      <path class="cls-1" d="M627.92,182.96c6.15-12.16,17.49-22.95,29.58-29.17,1.91-.98,12.78-5.81,13.92-5.81h131.42v-38.56h-165.95V0h202.73c-3.7,13.12-13.21,23.58-24.84,30.32-1.87,1.08-13.03,6.45-14.18,6.45h-127.83v35.87h164.61l1.35,110.31h-210.8Z"/>
      <path class="cls-1" d="M0,0h233.23c-3.64,15.41-20.97,35.01-37.22,36.78-17.3,1.88-37.92-1.26-55.65-.04-1.95.13-3.81.62-5.7,1.03l-.1,145.19h-35.88l-.44-144.4c-1.2-1.33-2.8-1.61-4.48-1.8-17.54-1.99-38.73,1.65-56.57.05C21.04,35.36,4.74,16.53,0,1.79V0Z"/>
      <path class="cls-1" d="M1417.31,73.54v109.42h-35.88l.04-69.56c.2-.91-.65-3.09-1.39-3.09h-129.62v72.64h-35.88v-109.42h202.73Z"/>
      <path class="cls-1" d="M940.99,182.96V0h35.88v148.88h160.57c-2.86,15.12-13.17,26.48-26.01,34.08h-170.44Z"/>
      <path class="cls-1" d="M350.74,182.96c-14.37-6.97-25.72-19.23-29.6-34.98h212.6c-3.88,15.67-15.04,28.33-29.6,34.98h-153.39Z"/>
      <path class="cls-1" d="M533.73,72.64c-4.44,18.1-19.07,33.43-37.46,37.44-43.65-2.05-91.14,3.52-134.36.27-19.22-1.45-36.56-19.48-40.78-37.71h212.6Z"/>
      <path class="cls-1" d="M1421.79,0c-4.16,17.27-17.75,31.6-34.75,36.56-45.04-2.26-94.31,3.74-138.87.25-18.14-1.42-34.89-19.65-38.98-36.81h212.6Z"/>
      <path class="cls-1" d="M533.73,0c-4.12,17.11-20.87,35.39-38.98,36.81-44.26,3.47-93.22-2.49-137.97-.25-17.41-4.9-31-19.16-35.65-36.56h212.6Z"/>
    </g>
  </g>
</svg>