<?xml version="1.0" encoding="UTF-8" standalone="no"?>
<!DOCTYPE svg PUBLIC "-//W3C//DTD SVG 1.1//EN" "http://www.w3.org/Graphics/SVG/1.1/DTD/svg11.dtd">
<svg width="100%" height="100%" viewBox="0 0 936 393" version="1.1" xmlns="http://www.w3.org/2000/svg" xmlns:xlink="http://www.w3.org/1999/xlink" xml:space="preserve" xmlns:serif="http://www.serif.com/" style="fill-rule:evenodd;clip-rule:evenodd;stroke-linejoin:round;stroke-miterlimit:2;">
    <g transform="matrix(1,0,0,1,-256.29,-527.953)">
        <g transform="matrix(1,0,0,1,5.71028,0.365468)">
            <path d="M309.19,587.94C347.237,549.993 392.923,529.93 446.25,527.75C473.81,526.623 501.143,531.373 528.25,542C556.283,552.987 581.003,570.1 602.41,593.34C624.503,617.32 639.847,644.727 648.44,675.56C649.393,678.98 648.85,681.727 646.81,683.8C644.937,685.693 642.64,686.507 639.92,686.24C637.807,686.033 636.07,685.09 634.71,683.41C633.943,682.463 633.197,680.757 632.47,678.29C624.75,652.263 612.197,629.147 594.81,608.94C576.197,587.307 553.763,570.753 527.51,559.28C521.45,556.627 515.2,554.31 508.76,552.33C470.94,540.683 433.187,540.907 395.5,553C366.967,562.16 341.85,577.793 320.15,599.9C297.897,622.587 282.41,649.1 273.69,679.44C273.237,681 272.543,682.343 271.61,683.47C270.677,684.583 269.467,685.4 267.98,685.92C264.733,687.04 261.887,686.253 259.44,683.56C258.32,682.333 257.697,680.883 257.57,679.21C257.497,678.197 257.74,676.707 258.3,674.74C267.913,641.12 284.877,612.187 309.19,587.94Z" style="fill:rgb(79,119,45);fill-rule:nonzero;"/>
            <path d="M846.94,642.81C841.56,638.017 837.68,632.323 835.3,625.73C830.987,613.81 830.803,601.817 834.75,589.75C838.03,579.71 844.087,572.093 852.92,566.9C858.573,563.58 864.877,561.633 871.83,561.06C884.523,560.013 895.42,563.82 904.52,572.48C908.773,576.533 912.01,581.13 914.23,586.27C916.463,591.423 917.803,597 918.25,603C919.103,614.433 916.77,624.603 911.25,633.51C907.57,639.45 902.91,644.113 897.27,647.5C890.177,651.767 882.167,653.74 873.24,653.42C863.227,653.06 854.46,649.523 846.94,642.81ZM854.21,635.03C859.617,640.157 866.297,642.813 874.25,643C883.757,643.227 891.563,640.037 897.67,633.43C903.317,627.33 906.51,619.52 907.25,610C907.77,603.313 906.833,597 904.44,591.06C902.473,586.187 899.587,582.08 895.78,578.74C892.113,575.513 887.793,573.267 882.82,572C875.867,570.22 869.113,570.74 862.56,573.56C853.627,577.413 847.677,584.457 844.71,594.69C843.243,599.77 842.757,605.373 843.25,611.5C844.017,620.993 847.67,628.837 854.21,635.03Z" style="fill:rgb(236,243,158);fill-rule:nonzero;"/>
            <path d="M789.97,632.97C797.617,610.497 805.227,588.013 812.8,565.52C813.307,564.02 814.19,562.967 815.45,562.36C816.583,561.813 817.847,561.697 819.24,562.01C821.027,562.417 822.263,563.44 822.95,565.08C823.423,566.213 823.37,567.647 822.79,569.38C814.083,595.593 805.173,621.737 796.06,647.81C795.293,650.003 793.99,651.32 792.15,651.76C790.483,652.16 789.077,651.947 787.93,651.12C787.203,650.6 786.49,649.513 785.79,647.86C778.937,631.587 772.093,615.31 765.26,599.03C765.127,598.717 764.997,598.713 764.87,599.02C758.05,615.333 751.287,631.67 744.58,648.03C743.093,651.67 740.587,652.89 737.06,651.69C735.667,651.21 734.71,650.08 734.19,648.3C733.903,647.307 733.75,646.78 733.73,646.72C724.85,621 716.023,595.26 707.25,569.5C706.63,567.673 706.68,566.09 707.4,564.75C708.047,563.55 709.19,562.697 710.83,562.19C714.13,561.177 716.457,562.677 717.81,566.69C725.183,588.47 732.66,610.47 740.24,632.69C740.467,633.357 740.71,633.363 740.97,632.71C747.263,616.937 753.533,601.397 759.78,586.09C760.62,584.03 761.657,582.597 762.89,581.79C765.157,580.31 767.17,580.567 768.93,582.56C769.677,583.4 770.51,584.99 771.43,587.33C777.45,602.563 783.513,617.777 789.62,632.97C789.747,633.283 789.863,633.283 789.97,632.97Z" style="fill:rgb(236,243,158);fill-rule:nonzero;"/>
            <path d="M945.85,582.56C945.45,581.947 945.25,582.003 945.25,582.73L945.25,646.75C945.25,650.117 943.717,651.873 940.65,652.02C939.263,652.087 938.11,651.763 937.19,651.05C936.083,650.19 935.52,649.007 935.5,647.5C935.28,630.433 935.277,604.757 935.49,570.47C935.49,570.403 935.453,569.597 935.38,568.05C935.213,564.517 936.857,562.52 940.31,562.06C941.57,561.893 942.763,562.233 943.89,563.08C944.53,563.56 945.29,564.467 946.17,565.8C956.377,581.193 966.573,596.6 976.76,612.02C976.774,612.042 976.79,612.061 976.808,612.08C976.952,612.223 977.188,612.223 977.332,612.08C977.35,612.061 977.366,612.042 977.38,612.02C987.66,596.653 997.967,581.347 1008.3,566.1C1009.71,564.027 1011.11,562.77 1012.51,562.33C1014.44,561.73 1016.1,562.263 1017.48,563.93C1018.29,564.903 1018.69,566.277 1018.69,568.05C1018.76,593.643 1018.78,619.237 1018.75,644.83C1018.75,647.277 1018.44,649 1017.83,650C1016.7,651.847 1014.77,652.493 1012.06,651.94C1010.58,651.633 1009.51,650.833 1008.85,649.54C1008.45,648.76 1008.25,647.533 1008.25,645.86L1008.25,583.59C1008.25,582.843 1008.04,582.78 1007.63,583.4C999.063,596.253 990.623,609.05 982.31,621.79C978.537,627.583 974.77,627.543 971.01,621.67C962.597,608.53 954.21,595.493 945.85,582.56Z" style="fill:rgb(236,243,158);fill-rule:nonzero;"/>
            <path d="M1052.06,611.56L1052,641.58C1052,641.948 1052.3,642.25 1052.67,642.25L1090.75,642.25C1092.39,642.25 1093.75,642.53 1094.84,643.09C1096.01,643.69 1096.78,644.727 1097.14,646.2C1097.62,648.14 1097.13,649.7 1095.68,650.88C1094.77,651.62 1093.37,652.003 1091.5,652.03C1069.43,652.283 1054.41,652.293 1046.44,652.06C1043.67,651.98 1042.01,650.777 1041.44,648.45C1041.31,647.917 1041.25,646.11 1041.25,643.03L1041.25,567.25C1041.25,564.083 1043,562.49 1046.5,562.47C1069.67,562.357 1084.31,562.22 1090.44,562.06C1092.27,562.013 1093.79,562.353 1095.01,563.08C1096.31,563.86 1097.07,565.073 1097.29,566.72C1097.54,568.58 1096.9,570.013 1095.38,571.02C1094.47,571.627 1093.1,571.937 1091.27,571.95C1078.66,572.01 1065.85,572.027 1052.85,572C1052.38,572 1052,572.384 1052,572.85L1052,600.5C1052,600.774 1052.23,601 1052.5,601L1083.79,601C1086.36,601 1088.13,601.227 1089.11,601.68C1091.24,602.667 1092.02,604.587 1091.44,607.44C1091.19,608.627 1090.48,609.533 1089.29,610.16C1088.57,610.54 1087.51,610.763 1086.1,610.83C1080.21,611.083 1074.93,611.14 1070.25,611C1063.65,610.807 1057.75,610.82 1052.56,611.04C1052.28,611.051 1052.06,611.282 1052.06,611.56Z" style="fill:rgb(236,243,158);fill-rule:nonzero;"/>
            <path d="M1175.9,632.96C1176.3,633.5 1176.5,633.433 1176.5,632.76C1176.5,611.007 1176.51,589.253 1176.52,567.5C1176.52,565.78 1177.05,564.42 1178.11,563.42C1179.12,562.473 1180.36,562.067 1181.85,562.2C1183.42,562.333 1184.58,563.08 1185.33,564.44C1185.78,565.253 1186,566.503 1186,568.19L1186,644.03C1186,646.923 1185.56,648.977 1184.69,650.19C1183.44,651.937 1181.61,652.47 1179.21,651.79C1177.94,651.43 1176.75,650.53 1175.66,649.09C1158.87,627.01 1141.94,604.667 1124.87,582.06C1124.29,581.293 1124,581.39 1124,582.35L1124,643.17C1124,646.417 1123.93,648.293 1123.8,648.8C1123.16,651.173 1121.23,652.24 1118,652C1115.89,651.847 1114.8,650.763 1114.75,648.75C1114.58,642.057 1114.52,635.363 1114.58,628.67C1114.64,622.67 1114.62,616.393 1114.51,609.84C1114.41,603.56 1114.43,597.28 1114.57,591C1114.66,586.88 1114.66,582.713 1114.55,578.5C1114.38,571.973 1114.45,567.807 1114.75,566C1115.1,563.907 1116.52,562.683 1119.01,562.33C1120.72,562.09 1122.14,562.437 1123.26,563.37C1123.45,563.537 1124.3,564.6 1125.8,566.56C1142.67,588.68 1159.37,610.813 1175.9,632.96Z" style="fill:rgb(236,243,158);fill-rule:nonzero;"/>
            <path d="M323.98,836.27C345.173,857.077 366.43,878.197 387.75,899.63C388.091,899.968 388.649,899.968 388.99,899.63L441.32,847.3C441.322,847.298 441.324,847.296 441.326,847.294C441.556,847.067 441.555,846.687 441.323,846.453C441.322,846.452 441.321,846.451 441.32,846.45C434.4,839.523 427.58,832.67 420.86,825.89C399.033,803.87 385.947,777.723 381.6,747.45C380.66,740.883 380.23,734.233 380.31,727.5C380.69,696.42 390.243,668.683 408.97,644.29C413.09,638.923 417.517,633.95 422.25,629.37C430.763,621.123 439.95,614.27 449.81,608.81C451.277,608.003 452.847,607.763 454.52,608.09C455.507,608.283 456.887,608.91 458.66,609.97C478.293,621.723 493.97,637.087 505.69,656.06C516.057,672.847 522.513,691.173 525.06,711.04C525.9,717.6 526.24,724.25 526.08,730.99C525.4,759.217 517.02,784.787 500.94,807.7C497.827,812.14 493.567,817.253 488.16,823.04C480.647,831.08 472.96,838.953 465.1,846.66C465.099,846.661 465.098,846.662 465.097,846.663C464.909,846.848 464.91,847.158 465.099,847.349C465.099,847.349 465.1,847.35 465.1,847.35L517.72,899.84C517.908,900.032 518.224,900.032 518.42,899.84C545.84,872.66 573.13,845.353 600.29,817.92C606.483,811.66 610.98,806.747 613.78,803.18C629.94,782.573 638.57,758.84 639.67,731.98C639.77,729.5 640.087,727.73 640.62,726.67C641.22,725.503 642.053,724.523 643.12,723.73C644.067,723.03 645.24,722.613 646.64,722.48C652.933,721.893 655.97,725.067 655.75,732C654.723,764.673 643.787,793.19 622.94,817.55C620.42,820.497 615.81,825.317 609.11,832.01C581.37,859.757 553.63,887.497 525.89,915.23C523.497,917.623 521.433,919.03 519.7,919.45C517.4,919.997 515.247,919.573 513.24,918.18C512.82,917.887 511.313,916.44 508.72,913.84C490.413,895.54 472.073,877.203 453.7,858.83C453.582,858.709 453.419,858.641 453.25,858.641C453.081,858.641 452.918,858.709 452.8,858.83C433.907,877.743 415.113,896.46 396.42,914.98C393.807,917.573 391.623,919.05 389.87,919.41C386.917,920.01 384.063,918.937 381.31,916.19C351.143,886.023 320.977,855.857 290.81,825.69C265.657,800.53 252.257,769.66 250.61,733.08C250.49,730.42 250.723,728.4 251.31,727.02C252.257,724.793 253.87,723.343 256.15,722.67C258.91,721.857 261.343,722.3 263.45,724C265.55,725.693 266.65,728.277 266.75,731.75C267.543,759.697 277.023,784.633 295.19,806.56C299.49,811.753 309.087,821.657 323.98,836.27ZM408.82,675.8L444.54,701.21C444.847,701.423 445,701.343 445,700.97L445.18,631.88C445.187,631.267 444.947,631.147 444.46,631.52C429.173,643.513 417.23,658.023 408.63,675.05C408.5,675.308 408.581,675.629 408.82,675.8ZM461.44,631.83L461.26,700.6C461.253,701.307 461.54,701.453 462.12,701.04L497.49,675.93C497.73,675.763 497.812,675.441 497.68,675.18C489.06,657.813 477.153,643.28 461.96,631.58C461.613,631.313 461.44,631.397 461.44,631.83ZM397.04,726.79L444.32,764.51C444.773,764.87 445,764.76 445,764.18L445,722C444.999,721.686 444.846,721.391 444.59,721.21L402.69,691.47C402.673,691.458 402.656,691.447 402.637,691.438C402.455,691.348 402.232,691.424 402.142,691.606C402.133,691.623 402.126,691.641 402.12,691.66C398.713,702.34 396.833,713.643 396.48,725.57C396.461,726.041 396.669,726.495 397.04,726.79ZM461.68,764.75L509.55,726.5C509.796,726.304 509.936,726.004 509.93,725.69C509.67,714.07 507.747,702.75 504.16,691.73C504.154,691.714 504.148,691.698 504.14,691.683C504.046,691.497 503.82,691.419 503.638,691.511C503.622,691.519 503.605,691.529 503.59,691.54L461.67,721.17C461.407,721.351 461.25,721.651 461.25,721.97L461.25,764.54C461.25,764.913 461.393,764.983 461.68,764.75ZM440.35,822.65C441.73,823.937 443.02,825.25 444.22,826.59C444.74,827.163 445,827.063 445,826.29L445,786.5C445,786.184 444.856,785.885 444.61,785.69L398.83,749.06C398.277,748.613 398.063,748.743 398.19,749.45C402.71,773.643 413.3,794.59 429.96,812.29C433.313,815.85 436.777,819.303 440.35,822.65ZM476.81,811.56C493.477,793.88 503.943,773.103 508.21,749.23C508.31,748.677 508.14,748.577 507.7,748.93L461.76,785.64C461.438,785.899 461.251,786.289 461.25,786.7L461.25,826.85C461.25,827.19 461.373,827.24 461.62,827C466.893,821.853 471.957,816.707 476.81,811.56Z" style="fill:rgb(79,119,45);fill-rule:nonzero;"/>
            <path d="M956.71,731.53C952.597,728.343 950.063,724.177 949.11,719.03C947.717,711.503 949.243,705.057 953.69,699.69C957.723,694.817 963.233,691.703 970.22,690.35C981.953,688.07 992.663,690.267 1002.35,696.94C1004.39,698.353 1005.99,700.123 1007.15,702.25C1007.84,703.523 1007.8,704.767 1007.01,705.98C1004.72,709.507 1002.07,709.97 999.05,707.37C998.237,706.67 997.82,706.313 997.8,706.3C988.333,698.887 978.003,697.473 966.81,702.06C963.043,703.607 960.587,706.483 959.44,710.69C958.48,714.19 958.927,717.34 960.78,720.14C962.1,722.133 964.403,723.99 967.69,725.71C971.617,727.763 975.97,729.36 980.75,730.5C984.19,731.32 988.38,732.707 993.32,734.66C1004.78,739.2 1009.92,747.647 1008.75,760C1008.19,765.913 1005.42,770.893 1000.44,774.94C996.233,778.36 991.41,780.54 985.97,781.48C981.11,782.32 975.96,782.34 970.52,781.54C962.947,780.427 956.18,777.337 950.22,772.27C948.147,770.503 946.847,769.007 946.32,767.78C945.327,765.44 946.163,763.28 948.83,761.3C950.483,760.073 952.043,760.183 953.51,761.63C959.197,767.257 966.027,770.713 974,772C978.707,772.76 983.353,772.257 987.94,770.49C991.74,769.017 994.55,766.997 996.37,764.43C998.763,761.037 999.14,757.257 997.5,753.09C996.567,750.71 994.97,748.653 992.71,746.92C990.557,745.267 988.217,743.98 985.69,743.06C981.93,741.693 977.52,740.387 972.46,739.14C966.66,737.713 961.41,735.177 956.71,731.53Z" style="fill:rgb(236,243,158);fill-rule:nonzero;"/>
            <path d="M1086.94,744.81C1081.62,744.837 1076.31,744.763 1071,744.59C1068.83,744.517 1067.25,744.107 1066.28,743.36C1064.68,742.127 1064.17,740.34 1064.75,738C1065.33,735.673 1067,734.51 1069.75,734.51C1076.14,734.503 1082.52,734.5 1088.91,734.5C1092.34,734.5 1094.23,734.537 1094.57,734.61C1097.02,735.137 1098.25,736.933 1098.25,740L1098.25,761.85C1098.25,766.93 1098.24,769.52 1098.22,769.62C1097.81,771.72 1096.7,773.37 1094.88,774.57C1094.53,774.803 1092.83,775.643 1089.77,777.09C1078.73,782.33 1067.55,783.483 1056.23,780.55C1049.6,778.837 1043.67,775.9 1038.45,771.74C1028.82,764.067 1023.33,753.737 1022,740.75C1020.73,728.443 1023.6,717.597 1030.61,708.21C1034.58,702.883 1039.59,698.58 1045.64,695.3C1058.86,688.127 1073.14,687.63 1088.47,693.81C1089.69,694.303 1090.83,694.913 1091.9,695.64C1093.17,696.5 1093.97,697.46 1094.3,698.52C1094.76,699.967 1094.51,701.397 1093.56,702.81C1092.6,704.237 1091.35,704.963 1089.8,704.99C1089,705.003 1087.73,704.607 1086,703.8C1078.13,700.14 1070.17,699.023 1062.11,700.45C1055.24,701.67 1049.31,704.49 1044.3,708.91C1037.56,714.857 1033.79,722.72 1033,732.5C1032.09,743.773 1035.13,753.13 1042.14,760.57C1046.78,765.49 1052.44,768.82 1059.12,770.56C1068.09,772.9 1077.21,771.96 1086.47,767.74C1086.95,767.522 1087.26,767.029 1087.27,766.48L1087.42,745.31C1087.42,745.036 1087.2,744.81 1086.94,744.81Z" style="fill:rgb(236,243,158);fill-rule:nonzero;"/>
            <path d="M889.32,740.31L889.44,770.31C889.445,770.588 889.663,770.814 889.93,770.82C902.797,771.02 915.663,771.083 928.53,771.01C930.397,771.003 931.797,771.327 932.73,771.98C934.23,773.02 934.88,774.483 934.68,776.37C934.513,777.963 933.813,779.107 932.58,779.8C931.447,780.433 930.003,780.75 928.25,780.75C913.583,780.75 898.917,780.763 884.25,780.79C882.017,780.797 880.443,780.023 879.53,778.47C879.01,777.59 878.75,776.057 878.75,773.87L878.75,698.18C878.75,695.713 879.097,694.003 879.79,693.05C880.89,691.537 882.71,690.77 885.25,690.75C900.503,690.623 915.707,690.707 930.86,691C932.753,691.033 933.943,691.967 934.43,693.8C935.17,696.547 934.653,698.513 932.88,699.7C931.9,700.353 930.2,700.687 927.78,700.7C915.48,700.76 902.943,700.777 890.17,700.75C889.802,700.75 889.5,701.057 889.5,701.43L889.31,728.99C889.31,728.992 889.31,728.993 889.31,728.995C889.307,729.406 889.643,729.747 890.055,729.75C890.056,729.75 890.058,729.75 890.06,729.75C901.24,729.723 912.22,729.74 923,729.8C924.84,729.807 926.213,730.147 927.12,730.82C928.56,731.88 929.167,733.343 928.94,735.21C928.747,736.757 928.083,737.883 926.95,738.59C925.857,739.263 924.457,739.567 922.75,739.5C915.577,739.22 904.6,739.32 889.82,739.8C889.544,739.805 889.32,740.034 889.32,740.31Z" style="fill:rgb(236,243,158);fill-rule:nonzero;"/>
            <g transform="matrix(0.999998,-0.00174533,0.00174533,0.999998,720.05,735.86)">
                <path d="M5.3,-39.85C5.3,-42.604 3.064,-44.84 0.31,-44.84L-0.31,-44.84C-3.064,-44.84 -5.3,-42.604 -5.3,-39.85L-5.3,39.85C-5.3,42.604 -3.064,44.84 -0.31,44.84L0.31,44.84C3.064,44.84 5.3,42.604 5.3,39.85L5.3,-39.85Z" style="fill:rgb(236,243,158);"/>
            </g>
            <path d="M758.31,711.01C758.237,732.357 758.24,753.937 758.32,775.75C758.327,777.457 757.777,778.773 756.67,779.7C755.683,780.533 754.443,780.877 752.95,780.73C750.177,780.47 748.787,778.643 748.78,775.25C748.76,748.997 748.76,722.747 748.78,696.5C748.78,694.673 749.35,693.24 750.49,692.2C751.583,691.207 752.903,690.78 754.45,690.92C756.063,691.067 757.407,691.85 758.48,693.27C775.713,716.03 793.003,738.867 810.35,761.78C810.617,762.133 810.75,762.087 810.75,761.64L810.75,695.25C810.75,693.83 811.327,692.707 812.48,691.88C813.42,691.207 814.537,690.907 815.83,690.98C818.757,691.147 820.227,692.987 820.24,696.5C820.367,722.507 820.297,748.513 820.03,774.52C820.003,776.567 819.56,778.093 818.7,779.1C817.34,780.693 815.6,781.183 813.48,780.57C812.173,780.19 810.903,779.187 809.67,777.56C792.823,755.393 775.953,733.123 759.06,710.75C758.56,710.09 758.31,710.177 758.31,711.01Z" style="fill:rgb(236,243,158);fill-rule:nonzero;"/>
            <path d="M759.44,889.06C757.207,887.727 755.583,885.52 754.57,882.44C753.27,878.48 752.453,874.42 752.12,870.26C751.413,861.413 751.563,852.58 752.57,843.76C752.937,840.52 753.67,837.367 754.77,834.3C755.71,831.693 757.167,829.553 759.14,827.88C760.967,826.34 763.237,825.307 765.95,824.78C769.363,824.12 772.713,824.36 776,825.5C778.007,826.2 779.737,827.553 781.19,829.56C783.077,832.18 784.297,835.85 784.85,840.57C785.617,847.11 785.923,853.66 785.77,860.22C785.637,865.86 785.413,869.873 785.1,872.26C784.54,876.48 783.403,880.373 781.69,883.94C779.89,887.673 776.77,889.993 772.33,890.9C767.457,891.9 763.16,891.287 759.44,889.06ZM768.62,880.46C770.133,880.76 771.323,880.087 772.19,878.44C773.317,876.287 773.977,873.643 774.17,870.51C774.717,861.417 774.66,852.33 774,843.25C773.773,840.07 773.337,838.09 772.69,837.31C770.81,835.05 769.027,834.57 767.34,835.87C766.353,836.63 765.617,837.923 765.13,839.75C764.503,842.13 764.127,844.797 764,847.75C763.58,857.65 763.677,866.483 764.29,874.25C764.417,875.837 764.903,877.237 765.75,878.45C766.53,879.57 767.487,880.24 768.62,880.46Z" style="fill:rgb(79,119,45);fill-rule:nonzero;"/>
            <path d="M973.19,859.53L970.15,859.52C969.881,859.52 969.66,859.294 969.66,859.02L969.74,852.79C969.751,851.805 970.537,851 971.49,851L982.84,851C983.202,851 983.5,851.298 983.5,851.66L983.5,887.43C983.499,888.122 983.074,888.746 982.43,889C976.497,891.3 970.58,891.827 964.68,890.58C960.333,889.66 957.357,887.133 955.75,883C954.403,879.527 953.607,875.197 953.36,870.01C953.06,863.67 953.03,857.33 953.27,850.99C953.543,843.843 955.057,837.533 957.81,832.06C959.483,828.747 962.35,826.507 966.41,825.34C970.45,824.18 974.447,824.103 978.4,825.11C980.373,825.61 981.737,826.363 982.49,827.37C983.477,828.683 983.73,830.393 983.25,832.5C982.897,834.053 982.62,835.143 982.42,835.77C982.419,835.774 982.417,835.779 982.416,835.783C982.329,836.026 982.054,836.154 981.806,836.066C981.801,836.064 981.795,836.062 981.79,836.06C975.217,833.42 970.48,834.263 967.58,838.59C966.047,840.877 965.077,844.803 964.67,850.37C964.117,857.903 964.173,865.45 964.84,873.01C965.113,876.123 965.75,878.203 966.75,879.25C968.277,880.85 970.32,881.38 972.88,880.84C973.356,880.741 973.7,880.338 973.7,879.88L973.71,860.06C973.71,859.769 973.475,859.53 973.19,859.53Z" style="fill:rgb(79,119,45);fill-rule:nonzero;"/>
            <path d="M706.67,890.31C706.473,890.31 706.31,890.157 706.31,889.97L706.31,826.29C706.31,825.875 706.64,825.526 707.06,825.5C712.173,825.14 717.287,825.323 722.4,826.05C729.353,827.03 733.323,831.077 734.31,838.19C734.777,841.51 734.893,844.707 734.66,847.78C734.38,851.44 733.59,854.493 732.29,856.94C729.437,862.327 724.407,865.1 717.2,865.26C716.847,865.265 716.56,865.557 716.56,865.91L716.44,888.5C716.434,889.464 715.63,890.255 714.65,890.26L706.67,890.31ZM720.5,834.78C719.753,834.413 718.67,834.347 717.25,834.58C716.962,834.633 716.75,834.887 716.75,835.18L716.69,854.81C716.689,855.12 716.88,855.392 717.16,855.48C718.487,855.887 719.617,855.73 720.55,855.01C721.257,854.463 721.797,853.46 722.17,852C723.357,847.333 723.45,842.447 722.45,837.34C722.217,836.167 721.567,835.313 720.5,834.78Z" style="fill:rgb(79,119,45);fill-rule:nonzero;"/>
            <path d="M815.29,865.82L814.98,888.22C814.967,889.587 814.333,890.26 813.08,890.24L805.19,890.1C804.914,890.095 804.69,889.857 804.69,889.57L804.75,826.73C804.752,826.118 805.221,825.601 805.83,825.54C810.183,825.087 814.557,825.14 818.95,825.7C823.017,826.213 826.03,827.26 827.99,828.84C830.63,830.98 832.217,834.033 832.75,838C833.323,842.3 833.387,846.213 832.94,849.74C832.353,854.34 830.49,858.307 827.35,861.64C827.146,861.849 827.112,862.174 827.27,862.42C832.39,870.553 834.867,879.233 834.7,888.46C834.68,889.82 833.987,890.5 832.62,890.5L824.35,890.5C824.348,890.5 824.346,890.5 824.344,890.5C823.741,890.497 823.247,890.002 823.25,889.404C823.25,889.403 823.25,889.401 823.25,889.4C823.277,880.953 821.507,873.173 817.94,866.06C817.547,865.28 816.83,864.99 815.79,865.19C815.504,865.247 815.295,865.511 815.29,865.82ZM819.31,834.94C818.45,834.387 817.24,834.197 815.68,834.37C815.39,834.405 815.169,834.647 815.17,834.93L815.16,855.06C815.16,855.356 815.375,855.613 815.67,855.67C817.977,856.11 819.483,855.45 820.19,853.69C821.657,850.03 822.057,845.63 821.39,840.49C821.383,840.417 821.333,839.757 821.24,838.51C821.113,836.87 820.47,835.68 819.31,834.94Z" style="fill:rgb(79,119,45);fill-rule:nonzero;"/>
            <path d="M872.92,835.06C872.551,835.065 872.25,835.366 872.25,835.73L872.25,888.54C872.25,889.436 871.534,890.175 870.66,890.18L862.51,890.24C862.508,890.24 862.506,890.24 862.505,890.24C862.23,890.242 862.003,890.01 862,889.724C862,889.723 862,889.721 862,889.72L862,835.81C862,835.366 861.634,835 861.19,835L851.27,835C850.985,835 850.75,834.765 850.75,834.48L850.75,827.03C850.749,826.202 851.413,825.512 852.24,825.48C862.44,825.12 872.797,825.1 883.31,825.42C883.609,825.431 883.849,825.662 883.85,825.94L883.97,833.75C883.98,834.391 883.43,834.928 882.75,834.94L872.92,835.06Z" style="fill:rgb(79,119,45);fill-rule:nonzero;"/>
            <path d="M906.42,887.58C904.607,885.933 903.383,883.907 902.75,881.5C902.083,878.967 901.75,874.967 901.75,869.5L901.75,827.21C901.748,826.404 902.335,825.736 903.06,825.72L911.8,825.55C911.802,825.55 911.803,825.55 911.805,825.55C912.189,825.547 912.507,825.879 912.51,826.285C912.51,826.287 912.51,826.288 912.51,826.29C912.383,843.35 912.463,860.087 912.75,876.5C912.777,877.86 913.247,879.037 914.16,880.03C914.947,880.883 916.01,881.4 917.35,881.58C919.37,881.853 921.33,881.547 923.23,880.66C923.51,880.531 923.69,880.245 923.69,879.93L923.75,827.33C923.749,826.453 924.394,825.726 925.19,825.71L933.94,825.53C933.942,825.53 933.944,825.53 933.945,825.53C934.209,825.528 934.427,825.765 934.43,826.056C934.43,826.057 934.43,826.059 934.43,826.06L934.25,887.14C934.249,887.629 933.957,888.071 933.51,888.26C926.583,891.247 919.33,891.993 911.75,890.5C909.943,890.147 908.167,889.173 906.42,887.58Z" style="fill:rgb(79,119,45);fill-rule:nonzero;"/>
            <path d="M1000.97,890.09C1000.96,890.088 1000.94,890.085 1000.93,890.082C1000.42,889.979 1000.08,889.478 1000.18,888.973C1000.18,888.959 1000.19,888.944 1000.19,888.93L1015.41,827.13C1015.61,826.312 1016.27,825.677 1017.1,825.5C1019.26,825.053 1021.5,825.08 1023.82,825.58C1024.12,825.641 1024.36,825.871 1024.43,826.17C1029.4,846.003 1034.28,865.857 1039.08,885.73C1039.09,885.763 1039.29,886.387 1039.7,887.6C1040.3,889.407 1039.48,890.34 1037.25,890.4C1034.92,890.467 1032.54,890.5 1030.11,890.5C1029.6,890.5 1029.15,890.135 1029.05,889.63L1026.27,876.26C1026.18,875.828 1025.81,875.515 1025.39,875.52L1014.44,875.66C1014.14,875.659 1013.87,875.876 1013.8,876.18L1011.16,888.27C1010.95,889.26 1010.22,890.029 1009.3,890.23C1007.29,890.677 1004.51,890.63 1000.97,890.09ZM1019.96,841.65L1015.91,865.71C1015.91,865.722 1015.91,865.734 1015.91,865.746C1015.89,865.975 1016.06,866.18 1016.29,866.199C1016.3,866.199 1016.31,866.2 1016.32,866.2L1023.35,866.23C1023.38,866.231 1023.41,866.229 1023.44,866.226C1023.82,866.185 1024.11,865.823 1024.06,865.425C1024.06,865.396 1024.06,865.368 1024.05,865.34C1022.34,857.533 1021.06,849.637 1020.19,841.65C1020.13,841.11 1020.05,841.11 1019.96,841.65Z" style="fill:rgb(79,119,45);fill-rule:nonzero;"/>
            <path d="M1067.95,880.69L1079.93,880.81C1079.93,880.81 1079.93,880.81 1079.93,880.81C1080.22,880.813 1080.45,881.04 1080.45,881.315C1080.45,881.316 1080.45,881.318 1080.45,881.32L1080.23,888.9C1080.21,889.648 1079.56,890.251 1078.77,890.25L1057.52,890.25C1057.24,890.25 1057,890.015 1057,889.73L1057,829.74C1057,829.653 1056.97,829.167 1056.91,828.28C1056.77,826.293 1057.8,825.353 1060,825.46C1062.32,825.58 1064.51,825.543 1066.57,825.35C1066.58,825.349 1066.59,825.348 1066.6,825.348C1066.94,825.331 1067.23,825.596 1067.25,825.936C1067.25,825.947 1067.25,825.959 1067.25,825.97L1067.25,879.98C1067.25,880.369 1067.57,880.69 1067.95,880.69Z" style="fill:rgb(79,119,45);fill-rule:nonzero;"/>
        </g>
    </g>
</svg>
