<svg width="56" height="56" viewBox="0 0 56 56" fill="none" xmlns="http://www.w3.org/2000/svg">
<path d="M53.7208 0H2.2792C1.02043 0 0 1.02043 0 2.2792V53.7208C0 54.9796 1.02043 56 2.2792 56H53.7208C54.9796 56 56 54.9796 56 53.7208V2.2792C56 1.02043 54.9796 0 53.7208 0Z" fill="#F5F5F5"/>
<path d="M20.7803 20.8024H5.98828V5.99902L20.7803 20.8024Z" fill="#1E1E1C"/>
<path d="M35.4007 20.8024H20.7227V5.99902L35.4007 20.8024Z" fill="#1E1E1C"/>
<path d="M50.0155 20.8024H35.1836V5.99902L50.0155 20.8024Z" fill="#1E1E1C"/>
<path d="M20.7803 35.2583H5.98828V20.5859L20.7803 35.2583Z" fill="#1E1E1C"/>
<path d="M35.4007 35.2583H20.7227V20.5859L35.4007 35.2583Z" fill="#1E1E1C"/>
<path d="M50.0155 35.2583H35.1836V20.5859L50.0155 35.2583Z" fill="#1E1E1C"/>
<path d="M20.7803 49.9991H5.98828V35.1729L20.7803 49.9991Z" fill="#1E1E1C"/>
<path d="M35.4007 49.9991H20.7227V35.1729L35.4007 49.9991Z" fill="#1E1E1C"/>
<path d="M50.0155 49.9991H35.1836V35.1729L50.0155 49.9991Z" fill="#1E1E1C"/>
</svg>
