<svg width="23" height="28" viewBox="0 0 23 28" fill="none" xmlns="http://www.w3.org/2000/svg">
<path d="M4.53516 12.543H15.7161" stroke="#1E1E1C" stroke-miterlimit="10" stroke-linecap="round"/>
<path d="M4.53516 15.7031H8.87171" stroke="#1E1E1C" stroke-miterlimit="10" stroke-linecap="round"/>
<path d="M20.7608 1.23438H4.6536C2.63834 1.23438 1 2.87271 1 4.88798V23.3612C1 25.3765 2.63834 27.0148 4.6536 27.0148H20.7608C21.2348 27.0148 21.6191 26.6304 21.6191 26.1565V2.09273C21.6191 1.61877 21.2348 1.23438 20.7608 1.23438Z" stroke="#1E1E1C" stroke-miterlimit="10"/>
<path d="M1.17578 24.3073C1.17578 23.0011 2.14983 21.9375 3.34406 21.9375H21.6195" stroke="#1E1E1C" stroke-miterlimit="10"/>
<path d="M17.8174 4.78906H4.80776C4.65936 4.78906 4.53906 4.90936 4.53906 5.05776V9.58838C4.53906 9.73678 4.65936 9.85708 4.80776 9.85708H17.8174C17.9658 9.85708 18.0861 9.73678 18.0861 9.58838V5.05776C18.0861 4.90936 17.9658 4.78906 17.8174 4.78906Z" stroke="#1E1E1C" stroke-miterlimit="10"/>
<path d="M4.23272 27.8825C3.98641 28.0057 3.69531 27.8266 3.69531 27.5504V24.9492H7.40862V27.5504C7.40862 27.8266 7.11753 28.0057 6.87122 27.8825L5.5501 27.222L4.22898 27.8825H4.23272Z" fill="#1E1E1C"/>
</svg>
