<svg width="56" height="56" viewBox="0 0 56 56" fill="none" xmlns="http://www.w3.org/2000/svg">
<path d="M54.898 0H1.10198C0.493374 0 0 0.493374 0 1.10198V54.898C0 55.5066 0.493374 56 1.10198 56H54.898C55.5066 56 56 55.5066 56 54.898V1.10198C56 0.493374 55.5066 0 54.898 0Z" fill="#1E1E1C"/>
<path d="M9.0832 9.08124C13.5271 4.63736 19.6082 2.82678 25.3839 3.64677C26.2039 9.4252 24.3933 15.5036 19.9494 19.9474C15.5055 24.3913 9.4244 26.2019 3.64872 25.3819C2.82874 19.6035 4.63931 13.5251 9.0832 9.08124Z" fill="#F5F5F5"/>
<path d="M19.9533 36.1164C24.3972 40.5603 26.2078 46.6414 25.3878 52.4171C19.6094 53.2371 13.531 51.4265 9.0871 46.9826C4.64322 42.5387 2.83264 36.4576 3.65263 30.6819C9.43106 29.8619 15.5094 31.6725 19.9533 36.1164Z" fill="#F5F5F5"/>
<path d="M46.9885 9.08124C42.5446 4.63736 36.4635 2.82678 30.6878 3.64677C29.8678 9.4252 31.6784 15.5036 36.1223 19.9474C40.5662 24.3913 46.6473 26.2019 52.4229 25.3819C53.2429 19.6035 51.4323 13.5251 46.9885 9.08124Z" fill="#F5F5F5"/>
<path d="M36.1184 36.1164C31.6745 40.5603 29.8639 46.6414 30.6839 52.4171C36.4623 53.2371 42.5407 51.4265 46.9846 46.9826C51.4284 42.5387 53.239 36.4576 52.419 30.6819C46.6406 29.8619 40.5622 31.6725 36.1184 36.1164Z" fill="#F5F5F5"/>
</svg>
