<?xml version="1.0" encoding="UTF-8"?>
<!DOCTYPE svg PUBLIC "-//W3C//DTD SVG 1.1//EN" "http://www.w3.org/Graphics/SVG/1.1/DTD/svg11.dtd">
<!-- Creator: CorelDRAW 2020 (64 Bit) -->
<svg xmlns="http://www.w3.org/2000/svg" xml:space="preserve" width="58.738mm" height="58.737mm" version="1.1" style="shape-rendering:geometricPrecision; text-rendering:geometricPrecision; image-rendering:optimizeQuality; fill-rule:evenodd; clip-rule:evenodd"
viewBox="0 0 5532.55 5532.45"
 xmlns:xlink="http://www.w3.org/1999/xlink"
 xmlns:xodm="http://www.corel.com/coreldraw/odm/2003">
 <defs>
  <style type="text/css">
   <![CDATA[
    .fil0 {fill:#1E1E1C}
   ]]>
  </style>
 </defs>
 <g id="Camada_x0020_1">
  <metadata id="CorelCorpID_0Corel-Layer"/>
  <path class="fil0" d="M188.38 0l5155.8 0c103.6,0 188.37,84.77 188.37,188.38l0 5155.69c0,103.61 -84.77,188.38 -188.37,188.38l-5155.8 0c-103.6,0 -188.38,-84.77 -188.38,-188.38l0 -5155.69c0,-103.61 84.78,-188.38 188.38,-188.38zm3994.8 3353.37l586.57 -587.14 -586.57 -586.57 0 -829.76 -829.75 0 -587.14 -587.14 -586.57 587.14 -829.77 0 0 829.76 -587.14 586.57 587.14 587.14 0 829.77 829.77 0 586.57 586.57 587.14 -586.57 829.75 0 0 -829.77z"/>
 </g>
</svg>
