<svg width="28" height="27" viewBox="0 0 28 27" fill="none" xmlns="http://www.w3.org/2000/svg">
<path d="M23.7552 22.3125L22.3181 23.7411C22.2787 23.7802 22.2108 23.7802 22.1715 23.7411L20.7344 22.3125" stroke="#1E1E1C" stroke-miterlimit="10" stroke-linecap="round"/>
<path d="M22.2422 23.738V19.6406" stroke="#1E1E1C" stroke-miterlimit="10" stroke-linecap="round"/>
<path d="M18.6993 26.2344H5.36495C2.95189 26.2344 1 24.2905 1 21.8954V3.31327C1 2.16543 1.93662 1.23438 3.09131 1.23438H16.7867" stroke="#1E1E1C" stroke-miterlimit="10" stroke-linecap="round"/>
<path d="M23.7539 9.33984V16.1131" stroke="#1E1E1C" stroke-miterlimit="10" stroke-linecap="round"/>
<path d="M23.7295 9.34027H18.9892C17.7594 9.34027 16.7656 8.3488 16.7656 7.1299V1.23438" stroke="#1E1E1C" stroke-miterlimit="10" stroke-linecap="round"/>
<path d="M16.8164 1.23438L23.7553 9.29408" stroke="#1E1E1C" stroke-miterlimit="10" stroke-linecap="round"/>
<path d="M7.19922 12.543H11.9896" stroke="#1E1E1C" stroke-miterlimit="10" stroke-linecap="round"/>
<path d="M7.19922 16.1133H17.8953" stroke="#1E1E1C" stroke-miterlimit="10" stroke-linecap="round"/>
<path d="M7.19922 19.6836H15.5824" stroke="#1E1E1C" stroke-miterlimit="10" stroke-linecap="round"/>
<path d="M22.2417 26.1569C24.7117 26.1569 26.7139 24.1665 26.7139 21.7113C26.7139 19.256 24.7117 17.2656 22.2417 17.2656C19.7718 17.2656 17.7695 19.256 17.7695 21.7113C17.7695 24.1665 19.7718 26.1569 22.2417 26.1569Z" stroke="#1E1E1C" stroke-miterlimit="10" stroke-linecap="round"/>
</svg>
