<?xml version="1.0" encoding="UTF-8"?>
<!DOCTYPE svg PUBLIC "-//W3C//DTD SVG 1.1//EN" "http://www.w3.org/Graphics/SVG/1.1/DTD/svg11.dtd">
<!-- Creator: CorelDRAW 2020 (64 Bit) -->
<svg xmlns="http://www.w3.org/2000/svg" xml:space="preserve" width="58.738mm" height="58.737mm" version="1.1" style="shape-rendering:geometricPrecision; text-rendering:geometricPrecision; image-rendering:optimizeQuality; fill-rule:evenodd; clip-rule:evenodd"
viewBox="0 0 4351.08 4351"
 xmlns:xlink="http://www.w3.org/1999/xlink"
 xmlns:xodm="http://www.corel.com/coreldraw/odm/2003">
 <defs>
  <style type="text/css">
   <![CDATA[
    .fil0 {fill:#1E1E1C}
   ]]>
  </style>
 </defs>
 <g id="Camada_x0020_1">
  <metadata id="CorelCorpID_0Corel-Layer"/>
  <path class="fil0" d="M148.15 0l4054.78 0c81.48,0 148.14,66.67 148.14,148.15l0 4054.7c0,81.48 -66.67,148.15 -148.14,148.15l-4054.78 0c-81.48,0 -148.15,-66.67 -148.15,-148.15l0 -4054.7c0,-81.48 66.68,-148.15 148.15,-148.15zm3811.55 391.34c-601.66,-85.45 -1223.68,3.1 -1784.16,265.63 -560.49,-262.53 -1182.07,-351.08 -1784.17,-265.63 -85.45,601.65 3.1,1223.67 265.63,1784.15 -262.53,560.48 -351.08,1182.07 -265.63,1784.16 601.65,85.45 1223.68,-3.1 1784.17,-265.63 560.48,262.53 1182.05,351.08 1784.16,265.63 85.43,-601.66 -3.12,-1223.68 -265.64,-1784.16 262.53,-560.48 351.08,-1182.05 265.64,-1784.15zm-1784.16 2351.72l-567.57 -567.57 567.57 -567.56 567.56 567.56 -567.56 567.57z"/>
 </g>
</svg>
