<?xml version="1.0" encoding="UTF-8"?>
<!DOCTYPE svg PUBLIC "-//W3C//DTD SVG 1.1//EN" "http://www.w3.org/Graphics/SVG/1.1/DTD/svg11.dtd">
<!-- Creator: CorelDRAW 2020 (64 Bit) -->
<svg xmlns="http://www.w3.org/2000/svg" xml:space="preserve" width="58.7376mm" height="58.7374mm" version="1.1" style="shape-rendering:geometricPrecision; text-rendering:geometricPrecision; image-rendering:optimizeQuality; fill-rule:evenodd; clip-rule:evenodd"
viewBox="0 0 5873.76 5873.74"
 xmlns:xlink="http://www.w3.org/1999/xlink"
 xmlns:xodm="http://www.corel.com/coreldraw/odm/2003">
 <defs>
  <style type="text/css">
   <![CDATA[
    .fil0 {fill:#1E1E1C;fill-rule:nonzero}
   ]]>
  </style>
 </defs>
 <g id="Camada_x0020_1">
  <metadata id="CorelCorpID_0Corel-Layer"/>
  <path class="fil0" d="M5634.7 0l-5395.63 0c-132.03,0 -239.07,107.03 -239.07,239.06l0 5395.63c0,132.03 107.04,239.05 239.07,239.05l5395.63 0c132.03,0 239.06,-107.02 239.06,-239.05l0 -5395.63c0,-132.03 -107.03,-239.06 -239.06,-239.06zm-388.48 5244.38l-1533.05 0 -22.65 0 -1510.82 0 -6.08 0 -1545.44 0 0 -1546.07 0 -9.02 0 -1507.27 0 -22.67 0 -1530.03 1545.44 1546.62 0 -16.59 0 -1530.03 1517.01 1529.97 0 -1529.97 1555.69 1552.7 -1532.77 0 1532.77 1516.29 -1533.15 0 -13.63 0 1546.68 1546.07zm-4595.18 -3062.36l1522.58 1510.26 0 -2.99 0 -1507.27 -1522.58 0zm1545.26 0l1494.33 1493.76 0 -1493.76 -1494.33 0zm-1559.12 1516.29l1536.44 1539.98 0 -1539.98 -1536.44 0zm1545.37 0l1507.97 1523.19 0 -1523.19 -1507.97 0z"/>
 </g>
</svg>
