<?xml version="1.0" encoding="UTF-8"?>
<!DOCTYPE svg PUBLIC "-//W3C//DTD SVG 1.1//EN" "http://www.w3.org/Graphics/SVG/1.1/DTD/svg11.dtd">
<!-- Creator: CorelDRAW 2020 (64 Bit) -->
<svg xmlns="http://www.w3.org/2000/svg" xml:space="preserve" width="58.738mm" height="58.737mm" version="1.1" style="shape-rendering:geometricPrecision; text-rendering:geometricPrecision; image-rendering:optimizeQuality; fill-rule:evenodd; clip-rule:evenodd"
viewBox="0 0 5947 5946.9"
 xmlns:xlink="http://www.w3.org/1999/xlink"
 xmlns:xodm="http://www.corel.com/coreldraw/odm/2003">
 <defs>
  <style type="text/css">
   <![CDATA[
    .fil0 {fill:#1E1E1C}
   ]]>
  </style>
 </defs>
 <g id="Camada_x0020_1">
  <metadata id="CorelCorpID_0Corel-Layer"/>
  <path class="fil0" d="M101.24 0l5744.52 0c55.68,0 101.25,45.57 101.25,101.25l0 5744.41c0,55.69 -45.57,101.25 -101.25,101.25l-5744.52 0c-55.68,0 -101.24,-45.56 -101.24,-101.25l0 -5744.41c0,-55.68 45.56,-101.25 101.24,-101.25zm859.67 960.96c471.93,-471.92 1117.71,-664.2 1731.05,-577.11 87.09,613.63 -105.18,1259.14 -577.1,1731.06 -471.92,471.92 -1117.71,664.18 -1731.06,577.11 -87.08,-613.64 105.19,-1259.14 577.11,-1731.06zm1154.16 2871.03c471.92,471.93 664.2,1117.71 577.1,1731.07 -613.63,87.06 -1259.13,-105.19 -1731.05,-577.12 -471.92,-471.92 -664.2,-1117.7 -577.11,-1731.07 613.64,-87.06 1259.13,105.19 1731.06,577.12zm2871.02 -2871.03c-471.92,-471.92 -1117.7,-664.2 -1731.04,-577.11 -87.09,613.63 105.19,1259.14 577.11,1731.06 471.9,471.92 1117.71,664.18 1731.05,577.11 87.09,-613.64 -105.19,-1259.14 -577.12,-1731.06zm-1154.24 2871.03c-471.93,471.93 -664.22,1117.71 -577.12,1731.07 613.63,87.06 1259.15,-105.19 1731.07,-577.12 471.9,-471.92 664.19,-1117.7 577.09,-1731.07 -613.63,-87.06 -1259.12,105.19 -1731.04,577.12z"/>
 </g>
</svg>
