<svg width="18" height="18" viewBox="0 0 18 18" fill="none" xmlns="http://www.w3.org/2000/svg">
<path d="M9.2091 2.24661C11.4865 2.24661 11.7468 2.24661 12.6578 2.31168C13.5037 2.37675 13.9592 2.50689 14.2195 2.57196C14.6099 2.7021 14.8702 2.89731 15.1955 3.22266C15.5209 3.54801 15.651 3.80829 15.8462 4.19871C15.9764 4.52406 16.1065 4.91448 16.1065 5.76039C16.1716 6.67137 16.1716 6.93165 16.1716 9.2091C16.1716 11.4865 16.1716 11.7468 16.1065 12.6578C16.0414 13.5037 15.9113 13.9592 15.8462 14.2195C15.7161 14.6099 15.5209 14.8702 15.1955 15.1955C14.8702 15.5209 14.6099 15.651 14.2195 15.8462C13.8941 15.9764 13.5037 16.1065 12.6578 16.1065C11.7468 16.1716 11.4865 16.1716 9.2091 16.1716C6.93165 16.1716 6.67137 16.1716 5.76039 16.1065C4.91448 16.0414 4.45899 15.9113 4.19871 15.8462C3.80829 15.7161 3.54801 15.5209 3.22266 15.1955C2.89731 14.8702 2.76717 14.6099 2.57196 14.2195C2.44182 13.8941 2.31168 13.5037 2.31168 12.6578C2.24661 11.7468 2.24661 11.4865 2.24661 9.2091C2.24661 6.93165 2.24661 6.67137 2.31168 5.76039C2.37675 4.91448 2.50689 4.45899 2.57196 4.19871C2.7021 3.80829 2.89731 3.54801 3.22266 3.22266C3.54801 2.89731 3.80829 2.76717 4.19871 2.57196C4.52406 2.44182 4.91448 2.31168 5.76039 2.31168C6.67137 2.31168 6.93165 2.24661 9.2091 2.24661ZM9.2091 0.75C6.93165 0.75 6.6063 0.75 5.69532 0.81507C4.84941 0.81507 4.19871 1.01028 3.67815 1.20549C3.09252 1.4007 2.63703 1.72605 2.18154 2.18154C1.72605 2.63703 1.4007 3.09252 1.20549 3.67815C1.01028 4.19871 0.81507 4.84941 0.81507 5.69532C0.75 6.6063 0.75 6.93165 0.75 9.2091C0.75 11.4865 0.75 11.8119 0.81507 12.7229C0.88014 13.6339 1.01028 14.2195 1.20549 14.8051C1.4007 15.3907 1.72605 15.8462 2.18154 16.3017C2.63703 16.7572 3.09252 17.0826 3.67815 17.2778C4.19871 17.473 4.84941 17.6031 5.76039 17.6682C6.6063 17.6682 6.93165 17.6682 9.2091 17.6682C11.4865 17.6682 11.8119 17.6682 12.7229 17.6031C13.6339 17.5381 14.2195 17.4079 14.8051 17.2127C15.3907 17.0175 15.8462 16.6921 16.3017 16.2367C16.7572 15.7812 17.0826 15.3257 17.2778 14.74C17.473 14.2195 17.6031 13.5688 17.6682 12.6578C17.6682 11.8119 17.6682 11.4865 17.6682 9.2091C17.6682 6.93165 17.6682 6.6063 17.6031 5.69532C17.5381 4.78434 17.4079 4.19871 17.2127 3.61308C17.0175 3.02745 16.6921 2.57196 16.2367 2.11647C15.7812 1.66098 15.3257 1.33563 14.74 1.14042C14.2195 0.94521 13.5688 0.81507 12.6578 0.75C11.8119 0.75 11.4865 0.75 9.2091 0.75Z" fill="#1E1E1C"/>
<path d="M9.20735 4.84961C6.79976 4.84961 4.84766 6.80171 4.84766 9.2093C4.84766 11.6169 6.79976 13.569 9.20735 13.569C11.6149 13.569 13.567 11.6169 13.567 9.2093C13.567 6.80171 11.6149 4.84961 9.20735 4.84961ZM9.20735 12.0073C7.64567 12.0073 6.40934 10.771 6.40934 9.2093C6.40934 7.64762 7.64567 6.41129 9.20735 6.41129C10.769 6.41129 12.0054 7.64762 12.0054 9.2093C12.0054 10.771 10.769 12.0073 9.20735 12.0073Z" fill="#1E1E1C"/>
<path d="M14.7424 4.71885C14.7424 5.30448 14.2869 5.75997 13.7013 5.75997C13.1156 5.75997 12.6602 5.30448 12.6602 4.71885C12.6602 4.13322 13.1156 3.67773 13.7013 3.67773C14.2869 3.67773 14.7424 4.13322 14.7424 4.71885Z" fill="#1E1E1C"/>
</svg>
