<svg width="16" height="16" viewBox="0 0 16 16" fill="none" xmlns="http://www.w3.org/2000/svg">
<path d="M4.01265 5.64062H0.824219V15.9868H4.01265V5.64062Z" fill="#1E1E1C"/>
<path d="M2.38703 4.33913C3.42815 4.33913 4.27406 3.49322 4.27406 2.4521C4.27406 1.41098 3.42815 0.5 2.38703 0.5C1.34591 0.5 0.5 1.34591 0.5 2.38703C0.5 3.42815 1.34591 4.33913 2.38703 4.33913Z" fill="#1E1E1C"/>
<path d="M9.08954 10.5865C9.08954 9.15492 9.74024 8.24394 11.0416 8.24394C12.2129 8.24394 12.7985 9.08985 12.7985 10.5865C12.7985 12.0831 12.7985 15.9873 12.7985 15.9873H15.987C15.987 15.9873 15.987 12.2132 15.987 9.48027C15.987 6.74733 14.4253 5.38086 12.2129 5.38086C10.0005 5.38086 9.08954 7.07268 9.08954 7.07268V5.64114H6.03125V15.9873H9.08954C9.08954 15.9873 9.08954 12.1481 9.08954 10.5865Z" fill="#1E1E1C"/>
</svg>
