<svg width="18" height="14" viewBox="0 0 18 14" fill="none" xmlns="http://www.w3.org/2000/svg">
<path d="M0.75 12.0927C2.24661 13.0688 4.0035 13.5893 5.89053 13.5893C12.1372 13.5893 15.7161 8.31868 15.4558 3.56857C16.1065 3.11308 16.6922 2.52745 17.1476 1.81168C16.562 2.07196 15.9113 2.26717 15.1955 2.33224C15.9113 1.94182 16.4319 1.22605 16.6921 0.44521C16.0414 0.83563 15.3257 1.09591 14.5448 1.29112C13.9592 0.64042 13.1133 0.25 12.1372 0.25C9.98994 0.25 8.36319 2.26717 8.88375 4.41448C6.02067 4.21927 3.54801 2.91787 1.92126 0.83563C1.01028 2.39731 1.46577 4.34941 2.96238 5.39053C2.37675 5.32546 1.85619 5.19532 1.4007 4.93504C1.4007 6.49672 2.50689 7.99333 4.13364 8.31868C3.67815 8.44882 3.15759 8.44882 2.63703 8.38375C3.09252 9.75022 4.32885 10.7263 5.76039 10.7263C4.32885 11.8325 2.57196 12.2879 0.75 12.0927Z" fill="#1E1E1C"/>
</svg>
