<svg width="24" height="17" viewBox="0 0 24 17" fill="none" xmlns="http://www.w3.org/2000/svg">
<path d="M22.5452 3.25762C22.3108 2.3202 21.5492 1.55854 20.5532 1.26559C18.7955 0.796875 11.882 0.796875 11.882 0.796875C11.882 0.796875 4.90984 0.796875 3.15216 1.26559C2.21473 1.49995 1.45307 2.26161 1.21871 3.25762C0.75 5.0153 0.75 8.64784 0.75 8.64784C0.75 8.64784 0.75 12.2804 1.21871 14.038C1.45307 14.9755 2.21473 15.7371 3.21075 16.0301C4.96843 16.4988 11.882 16.4988 11.882 16.4988C11.882 16.4988 18.8541 16.4988 20.5532 16.0301C21.4906 15.7957 22.2523 15.0341 22.5452 14.038C23.0139 12.2804 23.0139 8.64784 23.0139 8.64784C23.0139 8.64784 23.0139 5.0153 22.5452 3.25762Z" fill="#1E1E1C"/>
<path d="M9.59766 11.9292V5.30859L15.398 8.64818L9.59766 11.9292Z" fill="#F5F5F5"/>
</svg>
