<?xml version="1.0" encoding="UTF-8"?>
<svg id="Camada_2" data-name="Camada 2" xmlns="http://www.w3.org/2000/svg" viewBox="0 0 134.43 49.09">
  <defs>
    <style>
      .cls-1 {
        fill: #f60;
      }
    </style>
  </defs>
  <g id="Camada_1-2" data-name="Camada 1">
    <g>
      <polygon class="cls-1" points="14.23 0 19.04 8.73 12.1 8.73 16.92 17.34 5.1 17.34 0 8.73 6.72 8.73 2.13 0 14.23 0"/>
      <polygon class="cls-1" points="37.98 0 33.16 8.73 39.99 8.73 35.01 17.34 23.08 17.34 28.01 8.73 20.95 8.73 25.88 0 37.98 0"/>
      <path class="cls-1" d="M133.2,41c-.47.55-1.54,2.38-2.21,2.5-.77.14-2.21-1.72-3.34-1.87-2.3-.32-2.75,1.48-4.47,2.34-.11-.26.15-.71.26-.97.15-.34,1.14-2.19,1.14-2.33-.01-.17-.43-.21-.6-.15-.21.08-2.05,2.97-2.88,3.5-.71.46-1.23-.17-1.24-.89,0-2.1,3.34-4.01,5.16-2.85.09-.58-.03-.81-.62-.89-1.67-.23-3.36.58-4.42,1.84-.29.34-.46.78-.72,1.07-.24.26-2.19,1.73-2.41,1.57l2-4.22.02-.26c-.18.02-.43-.05-.59,0-.09.02-.69,1.4-.91,1.68-.93,1.22-2.89,2.21-3.98,3.35l1.57-3.47c-.18.04-.39-.09-.53-.08-.29,0-1.3,1.5-1.6,1.82-.49.54-2.15,2.47-2.53.84-.44-1.9,2.65-3.99,4.33-3.53.25.07.88.71.99.1.12-.67-1.65-.76-2.07-.71-1.97.22-2.8,1.55-3.82,2.9-.23.31-2.03,1.77-2.29,1.57.21-.86,1.61-2.98,1.56-3.74-.06-.94-1.46-.52-1.56-.62-.13-.14.26-.97-.61-.78-.25.05-.38.27-.39.52-.03.39.28.49.18.83-.35,1.11-3.67,3.86-4.76,4.09-1.24.26-1.6-.19-1.47-1.4,1.41.24,3.56-.59,3.87-2.12.43-2.11-2.08-1.11-3.03-.34-.91.74-1.05,1.59-1.68,2.24-.45.47-1.41,1.07-2.02,1.34.26-1.24,1.38-2.62,1.68-3.8.35-1.36-.83-.55-1.4-.16-1.21.84-2.24,2.12-3.37,3.07l1.55-3.32.02-.26c-.19.02-.43-.05-.6,0-.09.02-.68,1.38-.86,1.63-.71.97-3.51,2.79-4.68,3.05-.65.14-1.77.29-2.22-.3-.95-1.28,1.31-2.71,2.3-3.15-.23-.65-.73-1.23-.78-1.95-.12-1.67,2.2-4,3.86-3.74.77.12.49.52.22.99-.24.43-1.7,2.07-1.72,2.2-.03.17.28.36.38.49.7-.84,3.7-3.64,1.5-4.29-1.76-.51-4.09,1.31-4.66,2.91-.45,1.24-.24,2.02.31,3.16-1.54.43-3.6,3.01-1.68,4.19,1.85,1.14,5-1,6.49-2.07.09.1-1.59,2.43-.52,2.33.32-.03,2.69-2.71,3.21-3.17.21-.18,1.64-1.41,1.8-1.28-.37,1.18-1.44,2.54-1.74,3.69-.51,1.98,2.43-.52,2.92-.89.26.21.12.55.25.87.22.56,1.07.87,1.64.8,1.27-.14,3.94-2.3,4.78-3.29.63-.74.85-1.94,2-1.39.21.3-1.47,3.31-1.62,3.9-.05.2-.14.6.05.74.51.38,2.42-1.41,2.97-1.63.37,2.67,2.3,1.65,3.42.11-.23.64-.52,1.52-.87,2.09-.43.7-1.07,1.19-1.42,2.05-.14.35-.6,1.72.09,1.66.73-.07,1.31-2.17,1.63-2.74.84-1.52,2.87-2.64,4.11-3.84.15-.03.21,0,.16.16-.1.33-1.39,2.12-.5,2.19.69.05,2.86-1.93,2.97-1.8.18,2.45,2.13,2.08,3.25.45-.02.45-.68,1.21.06,1.34,1.54.28,2.87-2.4,4.47-2.47,1.64-.07,2.68,1.95,3.91,1.9,1.47-.06,2.49-2.66,3.54-3.46v-.34c-.45-.51-.91.13-1.23.51ZM101.9,40.4c1.99-1.44,2.26.24.57,1.35-.65.42-1.22.48-1.99.42.26-.66.85-1.36,1.42-1.77Z"/>
      <polygon class="cls-1" points="39.99 28.41 33.27 28.41 38.09 37.25 25.99 37.25 21.06 28.41 28.12 28.41 23.19 19.8 35.12 19.8 39.99 28.41"/>
      <path class="cls-1" d="M16.8,20.14l-4.82,8.5h6.83l-4.82,8.61H2.24l4.37-8.61H.11c1.49-2.9,3.24-5.68,4.87-8.5h11.82Z"/>
      <path class="cls-1" d="M77.5,8.42c-6.48.58-8.3,6.41-7.58,12.09.64,5.06,3.7,7.63,8.8,7.64,4.87,0,7.91-2.49,8.63-7.32,1.07-7.14-1.83-13.12-9.85-12.41ZM83.57,19.74c-.25,3.33-1.92,5.75-5.54,5.43-4.29-.39-4.65-5.78-4.19-9.1.37-2.62,1.51-4.47,4.33-4.74,5.07-.48,5.69,4.51,5.4,8.41Z"/>
      <path class="cls-1" d="M119.08,8.73v2.85s-.16.17-.17.17h-8.57v4.7h8.18v2.91h-8.01s-.17.16-.17.17v5.31h8.96v2.91h-12.88V8.73h12.66Z"/>
      <path class="cls-1" d="M99.41,8.85c-2.82-.38-5.92.02-8.78-.12v19.02h3.92v-7.1c0-.08.19-.15.28-.17.89-.16,2.37.07,3.36,0,3.25-.21,6.08-1.49,6.33-5.09.26-3.67-1.43-6.04-5.12-6.54ZM99.69,16.83c-.49.37-1.7.73-2.29.73h-2.86v-5.82h3.75c.46,0,1.46.55,1.77.92.86,1.05.75,3.32-.37,4.16Z"/>
      <path class="cls-1" d="M67.21,14.77h-3.92c-.07-3.78-5.2-4.56-7.28-1.95-1.72,2.15-1.58,8.1-.25,10.42,1.45,2.51,5.95,2.68,7.25.04.31-.62.29-1.23.56-1.79h3.75c.03,3.43-2.61,5.81-5.82,6.43-4.08.78-8.24-.54-9.83-4.61-1.22-3.12-1.12-8.38.63-11.29,3.36-5.6,14.91-4.78,14.92,2.76Z"/>
      <path class="cls-1" d="M125.8,8.73v15.94s.16.17.17.17h7.9v2.91h-11.99V8.73h3.92Z"/>
      <path class="cls-1" d="M72.59,39.71c.08.08,1.53-.19,1.58.73.04.62-1.65,3.56-1.47,3.75.19.04.3-.09.44-.18,1.29-.79,1.63-1.31,2.53-2.39s2.44-2,3.82-2.02c.22,0,1.3.23,1.38.35.1.16-.09.47-.1.66-1.79-1.35-5.84,1.17-5.04,3.3.5,1.32,1.67-.03,2.18-.61.37-.42,1.51-2.27,1.74-2.41.19-.11.46-.04.67-.06l-1.46,3.35c.23.22,2.27-1.59,2.63-1.79.11.12.08.45.03.59-.07.24-2.42,1.86-2.79,2.02-.22.1-.51.3-.72.08-.27-.41.24-.84.12-1.24-.63,1.19-2.6,2.03-3.06.25-.06-.24.1-.76-.19-.7s-1.63,1.22-2.11,1.48c-.34.18-1.02.6-1.08-.08s1.62-3.36,1.8-4.24c-1.25-.66-1.31.37-1.91,1.11-.54.67-4.04,3.68-4.75,3.51-.19-.04-.29-.39-.27-.57.04-.44.95-2.06,1.19-2.62.04-.1.24-.29.08-.37-.92.87-1.75,1.85-2.76,2.62-2.46,1.88-2.18.54-1.11-1.44l-.78.39c-.21-.82.67-1.03,1.12-1.51.34-.37,1.01-1.83,1.12-1.9s.76-.18.67.11c-.52,1.13-1.22,2.31-1.7,3.45-.08.2-.28.54-.15.75,1.74-1.11,3.15-2.68,4.47-4.26l.74-.1c.16.15-1.63,3.59-1.82,4.06-.04.11-.18.34-.03.42,1.11-.72,3.84-2.5,4.15-3.8.07-.3-.49-1.36.34-1.43.63-.05.45.72.49.76Z"/>
      <path class="cls-1" d="M61.94,34.61c-1.82.43-3.53,5.25-4.14,6.89-.55-.34-1.3-.89-1.92-1.04-2.1-.51-4.22,1.54-5.75,2.72-.16.38-.05.79.43.65.11-.03,1.33-1.11,1.61-1.3,1.88-1.32,3.33-2.1,5.29-.28.1.31-.88,2.77-.88,3.46,0,.24.11.45.37.48.58-.1,1.28-2.86,1.31-3.46.98.46,1.62.48,2.64.12,1.78-.64,2.74-2.44,3.05-4.23.25-1.44.27-4.54-2-4ZM63.26,38.39c-.3,1.66-1.54,4.09-3.5,4.01-.56-.02-1.4-.26-1.26-.93.14-.69.89-2.33,1.22-3.03.37-.78,1.45-2.98,2.3-3.18,1.62-.37,1.41,2.17,1.24,3.13Z"/>
      <path class="cls-1" d="M119.04,37.27c.93-.32.71,1.24-.02,1.21-.62-.02-.38-1.07.02-1.21Z"/>
    </g>
  </g>
</svg>