<svg xmlns="http://www.w3.org/2000/svg" xmlns:xlink="http://www.w3.org/1999/xlink" width="126.002" height="14" viewBox="0 0 126.002 14">
  <defs>
    <clipPath id="clip-path">
      <rect id="Retângulo_275" data-name="Retângulo 275" width="126.002" height="14" transform="translate(0 0)" fill="#cd8c5e"/>
    </clipPath>
  </defs>
  <g id="Grupo_534" data-name="Grupo 534" transform="translate(0 0)">
    <g id="Grupo_533" data-name="Grupo 533" transform="translate(0 0)" clip-path="url(#clip-path)">
      <path id="Caminho_63" data-name="Caminho 63" d="M32.5,13.8h1.8l.979-11,3.622,10.339h1.488L43.88,3.055l.96,10.75h1.939L45.29.2H43.371L39.729,10.789,36.048.2H33.973ZM1.86,12.179V1.821H3.877c3.172,0,4.856,1.742,4.856,5.189,0,3.348-1.488,5.169-4.856,5.169ZM0,13.8H3.8c4.288,0,7.01-2.546,7.01-7.01,0-4.229-2.643-6.6-6.892-6.6H0Zm51.87,0h1.84l1.469-3.936h5.756L62.443,13.8H64.4L59.036.2H57.215Zm3.877-5.483,2.291-6.07,2.31,6.07ZM80.79,13.981l.509-1.449a5.116,5.116,0,0,1-2.761-1.919L76.619,8.048a4.215,4.215,0,0,0,2.8-3.994C79.42,1.468,77.285.2,74.329.2H70.295V13.8h1.841V8.577h2.741l2.291,3.054a5.544,5.544,0,0,0,3.623,2.35M72.136,7.03V1.821h2.075c1.939,0,3.211.686,3.211,2.408,0,1.9-1.312,2.8-3.309,2.8ZM87.1,13.8H95.73V12.179H88.955V7.7h5.62V6.09h-5.62V1.821h6.677V.2H87.1Zm18.621.2c2.624,0,4.817-1.41,4.817-3.9,0-2.075-1.508-3.055-3.818-3.955-1.742-.686-2.878-1.155-2.878-2.624,0-1.292,1.156-1.9,2.663-1.9a6.833,6.833,0,0,1,3.075.685l.548-1.488A8.436,8.436,0,0,0,106.5,0c-2.428,0-4.562,1.39-4.562,3.662,0,2.193,1.625,3.309,3.916,4.151,1.723.626,2.761,1.116,2.761,2.486,0,1.43-1.234,2.1-2.878,2.1a7.761,7.761,0,0,1-3.7-.9l-.627,1.468A9.041,9.041,0,0,0,105.716,14m14.02-.2h1.86V1.86H126V.2H115.33V1.86h4.406Zm-102.016,0h8.616V12.179H19.581V7.7H25.2V6.09h-5.62V1.821h6.677V.2H17.721Z" transform="translate(0 0)" fill="#cd8c5e"/>
    </g>
  </g>
</svg>
