<?xml version="1.0" encoding="UTF-8"?>
<svg id="Camada_2" data-name="Camada 2" xmlns="http://www.w3.org/2000/svg" viewBox="0 0 148.99 54.67">
  <defs>
    <style>
      .cls-1 {
        opacity: .6;
      }

      .cls-1, .cls-2, .cls-3, .cls-4 {
        fill: #0080c8;
      }

      .cls-2 {
        opacity: .2;
      }

      .cls-3 {
        opacity: .4;
      }

      .cls-5, .cls-6 {
        fill: #75b84e;
      }

      .cls-6 {
        opacity: .8;
      }
    </style>
  </defs>
  <g id="Camada_1-2" data-name="Camada 1">
    <g>
      <g>
        <path class="cls-4" d="M49.03,46.5v.41h-2.56v-4.36h2.53v.41h-2.09v1.55h1.93v.41h-1.93v1.58h2.12Z"/>
        <path class="cls-4" d="M54.27,42.55v4.36h-.37l-2.43-3.55v3.55h-.44v-4.36h.37l2.43,3.55v-3.55h.44Z"/>
        <path class="cls-4" d="M59.26,42.96h-1.34v3.95h-.44v-3.95h-1.34v-.41h3.12v.41Z"/>
        <path class="cls-4" d="M61.57,42.55v4.36h-.44v-4.36h.44Z"/>
        <path class="cls-4" d="M67.56,44.73c0,1.2-.85,2.18-2.06,2.18h-1.68v-4.36h1.68c1.2,0,2.06.98,2.06,2.18ZM67.13,44.73c0-.98-.66-1.77-1.63-1.77h-1.25v3.54h1.25c.97,0,1.63-.79,1.63-1.77Z"/>
        <path class="cls-4" d="M71.9,45.84h-2.07l-.41,1.07h-.46l1.68-4.36h.45l1.68,4.36h-.46l-.41-1.07ZM71.74,45.43l-.88-2.34-.88,2.34h1.76Z"/>
        <path class="cls-4" d="M78.32,44.73c0,1.2-.85,2.18-2.06,2.18h-1.68v-4.36h1.68c1.2,0,2.06.98,2.06,2.18ZM77.89,44.73c0-.98-.66-1.77-1.63-1.77h-1.25v3.54h1.25c.97,0,1.63-.79,1.63-1.77Z"/>
        <path class="cls-4" d="M82.87,46.5v.41h-2.56v-4.36h2.53v.41h-2.09v1.55h1.93v.41h-1.93v1.58h2.12Z"/>
        <path class="cls-4" d="M90.92,42.55v4.36h-.37l-2.43-3.55v3.55h-.44v-4.36h.37l2.43,3.55v-3.55h.44Z"/>
        <path class="cls-4" d="M95.67,45.84h-2.07l-.41,1.07h-.46l1.68-4.36h.45l1.68,4.36h-.46l-.41-1.07ZM95.51,45.43l-.88-2.34-.88,2.34h1.76Z"/>
        <path class="cls-4" d="M97.94,44.73c0-1.25.95-2.26,2.29-2.26.81,0,1.53.42,1.89,1.07l-.39.22c-.27-.52-.85-.87-1.5-.87-1.1,0-1.85.82-1.85,1.83s.75,1.83,1.85,1.83c.65,0,1.23-.35,1.5-.87l.39.22c-.36.65-1.07,1.08-1.89,1.08-1.34,0-2.29-1.01-2.29-2.26Z"/>
        <path class="cls-4" d="M104.52,42.55v4.36h-.44v-4.36h.44Z"/>
        <path class="cls-4" d="M106.52,44.73c0-1.25.99-2.26,2.26-2.26s2.26,1.01,2.26,2.26-.99,2.26-2.26,2.26-2.26-1.01-2.26-2.26ZM110.59,44.73c0-1.02-.79-1.83-1.82-1.83s-1.82.82-1.82,1.83.79,1.83,1.82,1.83,1.82-.82,1.82-1.83Z"/>
        <path class="cls-4" d="M116.27,42.55v4.36h-.37l-2.43-3.55v3.55h-.44v-4.36h.37l2.43,3.55v-3.55h.44Z"/>
        <path class="cls-4" d="M121.02,45.84h-2.07l-.41,1.07h-.46l1.68-4.36h.45l1.68,4.36h-.46l-.41-1.07ZM120.86,45.43l-.88-2.34-.88,2.34h1.76Z"/>
        <path class="cls-4" d="M126.13,46.5v.41h-2.43v-4.36h.44v3.95h2Z"/>
        <path class="cls-4" d="M133.76,43.92c0,.78-.59,1.37-1.37,1.37h-1.12v1.62h-.44v-4.36h1.56c.79,0,1.37.59,1.37,1.37ZM133.32,43.92c0-.56-.39-.96-.94-.96h-1.12v1.92h1.12c.54,0,.94-.41.94-.96Z"/>
        <path class="cls-4" d="M137.82,45.84h-2.07l-.41,1.07h-.46l1.68-4.36h.45l1.68,4.36h-.46l-.41-1.07ZM137.66,45.43l-.88-2.34-.88,2.34h1.76Z"/>
        <path class="cls-4" d="M142.15,45.17h-1.22v1.75h-.44v-4.36h1.75c.72,0,1.31.59,1.31,1.31,0,.59-.4,1.1-.94,1.25l1.07,1.8h-.5l-1.02-1.75ZM140.93,44.76h1.31c.48,0,.87-.41.87-.9s-.39-.9-.87-.9h-1.31v1.8Z"/>
        <path class="cls-4" d="M148.05,45.84h-2.07l-.41,1.07h-.46l1.68-4.36h.45l1.68,4.36h-.46l-.41-1.07ZM147.89,45.43l-.88-2.34-.88,2.34h1.76Z"/>
        <path class="cls-4" d="M46.22,52.22c0-1.25.99-2.26,2.26-2.26s2.26,1.01,2.26,2.26-.99,2.26-2.26,2.26-2.26-1.01-2.26-2.26ZM50.3,52.22c0-1.02-.79-1.83-1.82-1.83s-1.82.82-1.82,1.83.79,1.83,1.82,1.83,1.82-.82,1.82-1.83Z"/>
        <g>
          <path class="cls-4" d="M55.3,53.41l.37-.22c.16.52.57.86,1.25.86s1.03-.32,1.03-.79c0-.51-.43-.67-1.07-.88-.71-.24-1.4-.42-1.4-1.23s.62-1.2,1.34-1.2,1.22.42,1.44.94l-.37.21c-.16-.39-.5-.72-1.07-.72-.52,0-.9.27-.9.75s.37.62.97.82c.79.26,1.5.49,1.5,1.3,0,.75-.6,1.22-1.47,1.22-.8,0-1.4-.41-1.62-1.07Z"/>
          <path class="cls-4" d="M56.92,54.67c-.87,0-1.55-.45-1.8-1.2l-.05-.15.72-.42.07.23c.14.47.51.72,1.07.72s.84-.22.84-.59c0-.35-.27-.48-.94-.7l-.1-.03c-.67-.22-1.43-.47-1.43-1.38,0-.82.63-1.39,1.53-1.39.72,0,1.33.39,1.62,1.06l.07.16-.71.39-.08-.2c-.11-.28-.36-.6-.9-.6-.17,0-.71.04-.71.56,0,.31.2.43.83.64.82.27,1.63.54,1.63,1.48,0,.85-.67,1.41-1.66,1.41ZM55.53,53.49c.23.51.73.79,1.38.79.78,0,1.28-.4,1.28-1.03s-.51-.83-1.34-1.11c-.57-.19-1.13-.37-1.13-1.01,0-.57.44-.95,1.1-.95.5,0,.91.23,1.15.65l.03-.02c-.25-.42-.68-.67-1.19-.67-.57,0-1.15.31-1.15,1.01,0,.6.44.77,1.17,1.01l.1.03c.62.2,1.2.4,1.2,1.06,0,.59-.48.98-1.22.98-.64,0-1.12-.27-1.35-.77l-.04.02Z"/>
        </g>
        <g>
          <path class="cls-4" d="M62.91,53.99v.41h-2.56v-4.36h2.53v.41h-2.09v1.55h1.93v.41h-1.93v1.58h2.12Z"/>
          <path class="cls-4" d="M63.1,54.59h-2.94v-4.75h2.91v.79h-2.09v1.16h1.93v.79h-1.93v1.2h2.12v.79ZM60.55,54.21h2.17v-.03h-2.12v-1.97h1.93v-.03h-1.93v-1.93h2.09v-.03h-2.14v3.98Z"/>
        </g>
        <g>
          <path class="cls-4" d="M67.65,50.45h-1.34v3.95h-.44v-3.95h-1.34v-.41h3.12v.41Z"/>
          <path class="cls-4" d="M66.5,54.59h-.82v-3.95h-1.34v-.79h3.5v.79h-1.34v3.95ZM66.07,54.21h.05v-3.95h1.34v-.03h-2.73v.03h1.34v3.95Z"/>
        </g>
        <g>
          <path class="cls-4" d="M69.03,52.22c0-1.25.99-2.26,2.26-2.26s2.26,1.01,2.26,2.26-.99,2.26-2.26,2.26-2.26-1.01-2.26-2.26ZM73.1,52.22c0-1.02-.79-1.83-1.82-1.83s-1.82.82-1.82,1.83.79,1.83,1.82,1.83,1.82-.82,1.82-1.83Z"/>
          <path class="cls-4" d="M71.28,54.67c-1.37,0-2.45-1.08-2.45-2.45s1.08-2.45,2.45-2.45,2.45,1.08,2.45,2.45-1.08,2.45-2.45,2.45ZM71.28,50.15c-1.16,0-2.07.91-2.07,2.07s.91,2.07,2.07,2.07,2.07-.91,2.07-2.07-.91-2.07-2.07-2.07ZM71.28,54.24c-1.13,0-2.01-.89-2.01-2.02s.88-2.02,2.01-2.02,2.01.89,2.01,2.02-.88,2.02-2.01,2.02ZM71.28,50.58c-.91,0-1.63.72-1.63,1.64s.72,1.64,1.63,1.64,1.63-.72,1.63-1.64-.72-1.64-1.63-1.64Z"/>
        </g>
        <g>
          <path class="cls-4" d="M77.2,52.65h-1.22v1.75h-.44v-4.36h1.75c.72,0,1.31.59,1.31,1.31,0,.59-.4,1.1-.94,1.25l1.07,1.8h-.5l-1.02-1.75ZM75.98,52.24h1.31c.48,0,.87-.41.87-.9s-.39-.9-.87-.9h-1.31v1.8Z"/>
          <path class="cls-4" d="M79.05,54.59h-.94l-1.02-1.75h-.92v1.75h-.82v-4.75h1.94c.83,0,1.5.67,1.5,1.5,0,.58-.34,1.11-.85,1.35l1.12,1.9ZM78.33,54.21h.05l-1.02-1.73.24-.07c.47-.14.8-.58.8-1.07,0-.62-.5-1.12-1.12-1.12h-1.55v3.98h.05v-1.75h1.52l1.02,1.75ZM77.28,52.43h-1.5v-2.18h1.5c.59,0,1.06.49,1.06,1.09s-.48,1.09-1.06,1.09ZM76.17,52.05h1.12c.38,0,.68-.32.68-.71s-.31-.71-.68-.71h-1.12v1.41Z"/>
        </g>
        <g>
          <path class="cls-4" d="M85.96,53.99v.41h-2.56v-4.36h2.53v.41h-2.09v1.55h1.93v.41h-1.93v1.58h2.12Z"/>
          <path class="cls-4" d="M86.15,54.59h-2.94v-4.75h2.91v.79h-2.09v1.16h1.93v.79h-1.93v1.2h2.12v.79ZM83.59,54.21h2.17v-.03h-2.12v-1.97h1.93v-.03h-1.93v-1.93h2.09v-.03h-2.14v3.98Z"/>
        </g>
        <g>
          <path class="cls-4" d="M91.19,50.03v4.36h-.37l-2.43-3.55v3.55h-.44v-4.36h.37l2.43,3.55v-3.55h.44Z"/>
          <path class="cls-4" d="M91.39,54.59h-.67l-2.14-3.13v3.13h-.82v-4.75h.67l2.14,3.13v-3.13h.82v4.75ZM90.92,54.21h.08v-3.98h-.05v3.98l-2.72-3.98h-.08v3.98h.05v-3.98l2.72,3.98Z"/>
        </g>
        <g>
          <path class="cls-4" d="M96,53.99v.41h-2.56v-4.36h2.53v.41h-2.09v1.55h1.93v.41h-1.93v1.58h2.12Z"/>
          <path class="cls-4" d="M96.19,54.59h-2.94v-4.75h2.91v.79h-2.09v1.16h1.93v.79h-1.93v1.2h2.12v.79ZM93.63,54.21h2.17v-.03h-2.12v-1.97h1.93v-.03h-1.93v-1.93h2.09v-.03h-2.14v3.98Z"/>
        </g>
        <g>
          <path class="cls-4" d="M99.65,52.65h-1.22v1.75h-.44v-4.36h1.75c.72,0,1.31.59,1.31,1.31,0,.59-.4,1.1-.94,1.25l1.07,1.8h-.5l-1.02-1.75ZM98.43,52.24h1.31c.48,0,.87-.41.87-.9s-.39-.9-.87-.9h-1.31v1.8Z"/>
          <path class="cls-4" d="M101.51,54.59h-.94l-1.02-1.75h-.92v1.75h-.82v-4.75h1.94c.83,0,1.5.67,1.5,1.5,0,.58-.34,1.11-.85,1.35l1.12,1.9ZM100.79,54.21h.05l-1.02-1.73.24-.07c.47-.14.8-.58.8-1.07,0-.62-.5-1.12-1.12-1.12h-1.55v3.98h.05v-1.75h1.52l1.02,1.75ZM99.74,52.43h-1.5v-2.18h1.5c.59,0,1.06.49,1.06,1.09s-.48,1.09-1.06,1.09ZM98.62,52.05h1.12c.38,0,.68-.32.68-.71s-.31-.71-.68-.71h-1.12v1.41Z"/>
        </g>
        <g>
          <path class="cls-4" d="M107.22,52.55c0,1.04-.79,1.93-2.13,1.93s-2.29-1.01-2.29-2.26.95-2.26,2.29-2.26c.82,0,1.53.43,1.89,1.07l-.39.22c-.27-.52-.85-.87-1.5-.87-1.1,0-1.85.82-1.85,1.83s.75,1.83,1.85,1.83c1.02,0,1.6-.59,1.68-1.32h-1.73v-.41h2.18v.22Z"/>
          <path class="cls-4" d="M105.09,54.67c-1.41,0-2.48-1.05-2.48-2.45s1.07-2.45,2.48-2.45c.86,0,1.65.45,2.06,1.17l.09.16-.72.42-.09-.18c-.24-.47-.76-.77-1.33-.77-.96,0-1.66.69-1.66,1.64s.7,1.64,1.66,1.64c.75,0,1.29-.35,1.45-.93h-1.69v-.79h2.57v.42c0,1.05-.8,2.12-2.32,2.12ZM105.09,50.15c-1.2,0-2.1.89-2.1,2.07s.9,2.07,2.1,2.07,1.94-.71,1.94-1.74v-.03h-1.8v.03h1.76l-.02.21c-.1.9-.84,1.49-1.87,1.49-1.16,0-2.04-.87-2.04-2.02s.88-2.02,2.04-2.02c.64,0,1.24.31,1.57.8l.05-.03c-.36-.51-.96-.82-1.62-.82Z"/>
        </g>
        <g>
          <path class="cls-4" d="M111.77,53.99v.41h-2.56v-4.36h2.53v.41h-2.09v1.55h1.93v.41h-1.93v1.58h2.12ZM110.57,49.6h-.4l.5-.81h.5l-.6.81Z"/>
          <path class="cls-4" d="M111.97,54.59h-2.94v-4.75h2.91v.79h-2.09v1.16h1.93v.79h-1.93v1.2h2.12v.79ZM109.41,54.21h2.17v-.03h-2.12v-1.97h1.93v-.03h-1.93v-1.93h2.09v-.03h-2.14v3.98ZM110.67,49.79h-.84l.73-1.19h.99l-.88,1.19ZM110.78,48.98l-.06.1.08-.1h-.01Z"/>
        </g>
        <g>
          <path class="cls-4" d="M116.52,50.45h-1.34v3.95h-.44v-3.95h-1.34v-.41h3.12v.41Z"/>
          <path class="cls-4" d="M115.37,54.59h-.82v-3.95h-1.34v-.79h3.5v.79h-1.34v3.95ZM114.93,54.21h.05v-3.95h1.34v-.03h-2.73v.03h1.34v3.95Z"/>
        </g>
        <g>
          <path class="cls-4" d="M118.82,50.03v4.36h-.44v-4.36h.44Z"/>
          <path class="cls-4" d="M119.02,54.59h-.82v-4.75h.82v4.75ZM118.58,54.21h.05v-3.98h-.05v3.98Z"/>
        </g>
        <g>
          <path class="cls-4" d="M120.82,52.22c0-1.25.95-2.26,2.29-2.26.81,0,1.53.42,1.89,1.07l-.39.22c-.27-.52-.85-.87-1.5-.87-1.1,0-1.85.82-1.85,1.83s.75,1.83,1.85,1.83c.65,0,1.23-.35,1.5-.87l.39.22c-.36.65-1.07,1.08-1.89,1.08-1.34,0-2.29-1.01-2.29-2.26Z"/>
          <path class="cls-4" d="M123.11,54.67c-1.41,0-2.48-1.05-2.48-2.45s1.07-2.45,2.48-2.45c.87,0,1.65.45,2.06,1.17l.09.16-.72.42-.09-.18c-.24-.47-.76-.77-1.33-.77-.96,0-1.66.69-1.66,1.64s.7,1.64,1.66,1.64c.57,0,1.09-.3,1.33-.77l.09-.18.73.41-.09.17c-.4.73-1.19,1.18-2.06,1.18ZM123.11,50.15c-1.2,0-2.1.89-2.1,2.07s.9,2.07,2.1,2.07c.66,0,1.27-.31,1.62-.82l-.05-.03c-.33.49-.93.81-1.57.81-1.17,0-2.04-.87-2.04-2.02s.88-2.02,2.04-2.02c.64,0,1.24.31,1.57.8l.05-.03c-.36-.51-.96-.81-1.62-.81Z"/>
        </g>
        <g>
          <path class="cls-4" d="M126.72,52.22c0-1.25.99-2.26,2.26-2.26s2.26,1.01,2.26,2.26-.99,2.26-2.26,2.26-2.26-1.01-2.26-2.26ZM130.79,52.22c0-1.02-.79-1.83-1.82-1.83s-1.82.82-1.82,1.83.79,1.83,1.82,1.83,1.82-.82,1.82-1.83Z"/>
          <path class="cls-4" d="M128.97,54.67c-1.37,0-2.45-1.08-2.45-2.45s1.08-2.45,2.45-2.45,2.45,1.08,2.45,2.45-1.08,2.45-2.45,2.45ZM128.97,50.15c-1.16,0-2.07.91-2.07,2.07s.91,2.07,2.07,2.07,2.07-.91,2.07-2.07-.91-2.07-2.07-2.07ZM128.97,54.24c-1.13,0-2.01-.89-2.01-2.02s.88-2.02,2.01-2.02,2.01.89,2.01,2.02-.88,2.02-2.01,2.02ZM128.97,50.58c-.91,0-1.63.72-1.63,1.64s.72,1.64,1.63,1.64,1.63-.72,1.63-1.64-.72-1.64-1.63-1.64Z"/>
        </g>
        <path class="cls-4" d="M138.59,53.99v.41h-2.56v-4.36h2.53v.41h-2.09v1.55h1.93v.41h-1.93v1.58h2.12Z"/>
        <path class="cls-4" d="M139.51,54.12c0-.19.15-.34.34-.34s.34.15.34.34-.15.34-.34.34-.34-.15-.34-.34Z"/>
        <path class="cls-4" d="M144.29,51.41c0,.78-.59,1.37-1.37,1.37h-1.12v1.62h-.44v-4.36h1.56c.79,0,1.37.59,1.37,1.37ZM143.85,51.41c0-.56-.39-.96-.94-.96h-1.12v1.92h1.12c.54,0,.94-.41.94-.96Z"/>
        <path class="cls-4" d="M144.58,54.12c0-.19.15-.34.34-.34s.34.15.34.34-.15.34-.34.34-.34-.15-.34-.34Z"/>
        <path class="cls-4" d="M148.99,53.99v.41h-2.56v-4.36h2.53v.41h-2.09v1.55h1.93v.41h-1.93v1.58h2.12Z"/>
      </g>
      <g>
        <path class="cls-4" d="M120.15,29.03c0,5.2-4.52,8-10.13,8-5.2,0-8.94-2.34-10.6-6.08l4.83-2.8c.83,2.34,2.91,3.74,5.77,3.74,2.49,0,4.42-.83,4.42-2.91,0-4.62-13.97-2.03-13.97-11.32,0-4.88,4.21-7.95,9.51-7.95,4.26,0,7.79,1.97,9.61,5.4l-4.73,2.65c-.93-2.03-2.75-2.96-4.88-2.96s-3.79.88-3.79,2.75c0,4.73,13.97,1.87,13.97,11.48Z"/>
        <path class="cls-4" d="M58.38,25.76h14.45c.1-.73.21-1.56.21-2.34,0-7.48-5.3-13.71-13.04-13.71-8.16,0-13.71,5.97-13.71,13.66s5.56,13.66,14.13,13.66c5.09,0,8.99-2.13,11.38-5.66l-4.62-2.7c-1.25,1.82-3.58,3.22-6.7,3.22-4.16,0-7.43-2.08-8.31-6.13,0,0-.5-2.39-.05-4.57.78-3.9,3.64-6.39,7.84-6.39,3.38,0,6.65,1.92,7.43,6.39h-6.67l-2.33,4.57Z"/>
        <path class="cls-4" d="M134.33,25.76h14.45c.1-.73.21-1.56.21-2.34,0-7.48-5.3-13.71-13.04-13.71-8.16,0-13.71,5.97-13.71,13.66s5.56,13.66,14.13,13.66c5.09,0,8.99-2.13,11.38-5.66l-4.62-2.7c-1.25,1.82-3.58,3.22-6.7,3.22-4.16,0-7.43-2.08-8.31-6.13,0,0-.5-2.39-.05-4.57.78-3.9,3.64-6.39,7.84-6.39,3.38,0,6.65,1.92,7.43,6.39h-6.67l-2.33,4.57Z"/>
        <path class="cls-5" d="M97.09,10.91h0v-.21c0-.87-.09-1.57-.26-2.12C95.76,3.67,91.4,0,86.17,0s-9.24,3.39-10.51,8.01c-.25.61-.4,1.44-.4,2.56v26.46h5.61V11.14c0-.08,0-.15-.01-.23h.01c0-2.93,2.37-5.3,5.3-5.3s5.3,2.37,5.3,5.3h.02c-.01.12-.02.24-.02.36v25.76h5.61V10.91h0Z"/>
      </g>
      <g>
        <path class="cls-3" d="M12.67,2.49C5.27,5.07,2.14,15.38,5.68,25.51c3.54,10.13,12.41,16.25,19.81,13.66,7.4-2.59,10.53-12.89,6.99-23.02C28.94,6.02,20.07-.1,12.67,2.49ZM26.12,37.97c-6.67,2.33-14.81-3.6-18.18-13.25-3.37-9.65-.69-19.36,5.98-21.69,6.67-2.33,14.81,3.6,18.18,13.25,3.37,9.65.69,19.36-5.98,21.69Z"/>
        <path class="cls-2" d="M1.7,26.53c.32,9.28,9.06,16.51,19.53,16.15,10.46-.36,18.69-8.18,18.37-17.46-.32-9.28-9.06-16.51-19.53-16.15C9.6,9.43,1.38,17.25,1.7,26.53ZM38.65,24.08c.29,8.37-7.56,15.43-17.52,15.77-9.97.34-18.28-6.16-18.57-14.53-.29-8.37,7.56-15.43,17.52-15.77,9.97-.34,18.28,6.16,18.57,14.53Z"/>
        <path class="cls-4" d="M.78,14.85c-3.08,7.94,3.23,17.81,14.1,22.03,10.87,4.22,22.19,1.2,25.27-6.74,3.08-7.94-3.23-17.81-14.11-22.03C15.18,3.89,3.87,6.91.78,14.85ZM39.62,28.77c-2.78,7.16-13.43,9.71-23.79,5.69C5.47,30.43-.67,21.37,2.11,14.21c2.78-7.16,13.43-9.71,23.79-5.69,10.36,4.02,16.5,13.09,13.72,20.25Z"/>
        <path class="cls-5" d="M.85,17.2c.51,8.46,9.62,14.79,20.34,14.14,10.72-.65,19-8.04,18.48-16.5C39.17,6.38,30.06.05,19.34.7,8.62,1.35.34,8.74.85,17.2ZM38.69,13.83c.46,7.63-7.44,14.31-17.65,14.93-10.21.62-18.87-5.06-19.33-12.69C1.25,8.44,9.15,1.76,19.37,1.14c10.21-.62,18.86,5.06,19.33,12.69Z"/>
        <path class="cls-6" d="M31.12,37.02c4-2.65,2.43-12.05-3.5-20.99C21.68,7.08,13.63,1.99,9.63,4.64c-4,2.65-2.43,12.05,3.5,20.99,5.93,8.94,13.99,14.04,17.99,11.38ZM9.63,5.75c3.61-2.39,11.11,2.57,16.76,11.09,5.65,8.52,7.31,17.36,3.71,19.75-3.61,2.39-11.11-2.57-16.76-11.09-5.65-8.52-7.31-17.36-3.71-19.75Z"/>
        <path class="cls-1" d="M39.86,15.91c-1.75-4.73-11.68-5.41-22.18-1.52C7.19,18.28.11,25.27,1.86,30c1.75,4.73,11.68,5.41,22.18,1.52,10.49-3.89,17.58-10.88,15.83-15.61ZM2.98,30.27c-1.58-4.26,5.24-10.72,15.24-14.43,10-3.71,19.38-3.26,20.96,1.01,1.58,4.26-5.24,10.72-15.24,14.43-10,3.71-19.38,3.26-20.96-1.01Z"/>
        <path class="cls-1" d="M35.51,35.24c7.66-6.54,7.98-18.74.71-27.25C28.95-.52,16.85-2.12,9.19,4.41c-7.66,6.54-7.98,18.74-.71,27.25,7.27,8.51,19.37,10.11,27.03,3.58ZM8.85,5.97C15.75.08,26.96,1.88,33.88,9.99c6.92,8.11,6.94,19.46.03,25.35-6.9,5.89-18.11,4.1-25.03-4.01-6.92-8.11-6.94-19.46-.03-25.35Z"/>
        <path class="cls-6" d="M15.12,41.52c7.85,2.45,16.93-4.28,20.27-15.02,3.35-10.74-.3-21.43-8.15-23.88C19.39.18,10.32,6.9,6.97,17.65c-3.35,10.74.3,21.43,8.15,23.88ZM25.96,3.23c7.08,2.2,10.23,12.29,7.04,22.52-3.19,10.23-11.51,16.74-18.58,14.54-7.08-2.2-10.23-12.29-7.04-22.52C10.57,7.54,18.89,1.03,25.96,3.23Z"/>
        <path class="cls-2" d="M7.19,37.38c7.26,3.98,17.56-.85,23.01-10.79,5.45-9.94,3.97-21.22-3.29-25.2-7.26-3.98-17.56.85-23.01,10.79C-1.54,22.12-.07,33.4,7.19,37.38ZM25.52,1.74c6.54,3.59,7.65,14.17,2.46,23.63-5.19,9.47-14.7,14.23-21.24,10.65C.19,32.44-.91,21.86,4.28,12.39,9.47,2.92,18.98-1.84,25.52,1.74Z"/>
      </g>
    </g>
  </g>
</svg>