<?xml version="1.0" encoding="UTF-8"?>
<svg id="Camada_2" data-name="Camada 2" xmlns="http://www.w3.org/2000/svg" viewBox="0 0 127.96 43.89">
  <defs>
    <style>
      .cls-1 {
        fill-rule: evenodd;
      }

      .cls-2 {
        fill: #0089d0;
      }

      .cls-3 {
        fill: #0088cf;
      }

      .cls-4 {
        fill: #72c6ef;
      }

      .cls-5 {
        fill: #72c7f0;
      }

      .cls-6 {
        fill: #00ace5;
      }
    </style>
  </defs>
  <g id="Camada_1-2" data-name="Camada 1">
    <g id="Group_1604" data-name="Group 1604">
      <path id="Path_1120" data-name="Path 1120" class="cls-1" d="M45.93,31.66s.03,0,.09,0h6.87c3.52,0,6.36-2.86,6.36-6.37,0-2.2-1.14-4.24-3-5.4,1.87-2.49,1.37-6.03-1.13-7.91-.98-.73-2.17-1.13-3.39-1.13h-5.8c-.9,0-1.63.72-1.63,1.62h0v17.55c0,.9.73,1.63,1.63,1.64ZM47.59,14.15h4.14c1.29,0,2.34,1.03,2.35,2.32,0,0,0,.01,0,.02.01,1.31-1.03,2.39-2.35,2.41h-4.14v-4.75ZM47.59,22.21h5.3c1.7,0,3.07,1.38,3.07,3.08,0,1.69-1.38,3.07-3.07,3.07h-5.3v-6.15ZM74.31,30.96c0,.37.28.68.66.71h10.77c.4-.01.72-.35.71-.75-.01-.38-.32-.69-.71-.71h-9.96v-8.21h8.71c.4-.01.72-.35.71-.75-.01-.38-.32-.69-.71-.71h-8.71v-8.24h9.96c.39,0,.71-.32.71-.71,0-.01,0-.02,0-.03,0-.39-.31-.71-.69-.71,0,0-.01,0-.02,0h-10.65c-.41-.02-.75.29-.77.7,0,0,0,0,0,.01v19.39ZM61.75,30.08c-.01.89.7,1.62,1.59,1.63.02,0,.03,0,.05,0,.91,0,1.65-.72,1.66-1.63V12.56c-.01-.91-.75-1.64-1.66-1.63-.89-.01-1.62.7-1.63,1.59,0,.02,0,.03,0,.05v17.52ZM16.25,10.93c-.54-.01-1.05.24-1.37.68l-5.91,8.2L3.07,11.61c-.3-.43-.79-.68-1.31-.68h-.09c-.9,0-1.63.73-1.63,1.63v17.52c0,.91.74,1.65,1.65,1.65s1.65-.74,1.65-1.65v-12.5l4.25,5.94c.32.43.83.69,1.37.68.55.02,1.07-.24,1.39-.68l4.28-5.94v12.5c0,.9.72,1.63,1.62,1.63h0c.9,0,1.64-.73,1.66-1.63V12.56c-.03-.9-.76-1.62-1.66-1.63h0ZM20.72,21.3c0-5.77,4.68-10.45,10.45-10.45,5.77,0,10.45,4.68,10.45,10.45,0,5.77-4.68,10.45-10.45,10.45h0c-5.77,0-10.45-4.68-10.45-10.45h0s0,0,0,0ZM24.04,21.3c0-3.93,3.19-7.12,7.12-7.12s7.12,3.19,7.12,7.12-3.19,7.12-7.12,7.12c-3.93,0-7.12-3.19-7.12-7.12h0s0,0,0,0ZM67.08,29.78c0-1.07.87-1.94,1.94-1.94s1.94.87,1.94,1.94-.87,1.94-1.94,1.94c-1.07,0-1.93-.87-1.94-1.94h0ZM70.66,29.77c0-.9-.75-1.63-1.66-1.62-.9,0-1.63.75-1.62,1.66,0,.9.74,1.62,1.64,1.62.9,0,1.63-.72,1.64-1.62,0-.01,0-.02,0-.03h0ZM69.59,29.9s.07.06.09.1c.07.11.1.23.1.36,0,.07,0,.13,0,.16.05.02.1.07.12.13.04.11-.02.23-.14.27,0,0,0,0-.01,0-.08.02-.16,0-.23-.02-.05-.03-.09-.07-.12-.13-.05-.13-.08-.27-.07-.41,0-.04-.02-.08-.04-.11-.02-.03-.05-.06-.09-.09-.03-.02-.06-.03-.09-.04l-.39-.02v.66c0,.12-.11.22-.23.22-.12,0-.22-.09-.22-.21h0v-1.89c0-.12.09-.22.21-.22h.58c.4,0,.72.33.72.73,0,.2-.08.39-.23.52h0ZM69.38,29.38c0-.16-.13-.28-.28-.28h-.35v.57h.35c.15,0,.28-.13.28-.28h0ZM2.71,41.43c-.12.01-.23-.04-.29-.14l-1.78-2.47v4.74c0,.18-.14.32-.32.32-.18,0-.32-.14-.32-.32v-5.71c0-.1.05-.2.14-.25.14-.1.34-.08.46.06l2.11,2.92,2.1-2.92c.1-.14.3-.18.44-.08l.09.1c.03.05.05.11.05.17v5.71c0,.17-.14.31-.31.32-.17,0-.31-.14-.32-.31h0v-4.76l-1.78,2.48c-.06.09-.16.15-.27.14h0ZM9.32,43.88c-1.78.1-3.31-1.26-3.41-3.05-.1-1.78,1.26-3.31,3.05-3.41,1.78-.1,3.31,1.26,3.41,3.05,0,.06,0,.12,0,.18.04,1.73-1.32,3.18-3.05,3.23h0ZM9.32,38.07c-1.43-.1-2.67.97-2.78,2.4s.97,2.67,2.4,2.78,2.67-.97,2.78-2.4c0-.06,0-.13,0-.19.05-1.38-1.02-2.53-2.4-2.58,0,0,0,0,0,0h0ZM14.86,37.51c.9,0,1.63.73,1.63,1.63,0,.44-.18.87-.5,1.18.94.42,1.36,1.52.94,2.46-.3.67-.96,1.1-1.69,1.11h-1.73c-.18,0-.33-.13-.34-.31,0,0,0,0,0,0v-5.74c0-.17.14-.31.31-.32h1.37ZM15.25,40.79h-1.44v2.45h1.44c.68,0,1.23-.55,1.23-1.23s-.55-1.23-1.23-1.23ZM14.86,38.15h-1.05v2h1.05c.55.01,1.01-.42,1.02-.97s-.42-1.01-.97-1.02c-.02,0-.03,0-.05,0ZM18.5,37.83v5.74c0,.18-.14.32-.32.32-.18,0-.32-.14-.32-.32v-5.74c0-.18.14-.32.32-.32s.32.14.32.32h0ZM19.96,37.83c0-.18.14-.32.32-.32s.32.14.32.32v5.42h2.85c.18,0,.32.14.32.32s-.14.32-.32.32h-3.15c-.18,0-.33-.13-.33-.31,0,0,0,0,0,0v-5.74ZM25.14,37.83v5.74c0,.18-.14.32-.32.32-.18,0-.32-.14-.32-.32v-5.74c0-.18.14-.32.32-.32s.32.14.32.32h0ZM26.61,37.83c0-.17.14-.31.32-.32h1.15c1.76,0,3.18,1.43,3.18,3.19,0,1.75-1.42,3.17-3.18,3.18h-1.14c-.18,0-.32-.14-.33-.31v-5.74ZM28.08,38.15h-.83v5.09h.83c1.41.02,2.57-1.1,2.59-2.51.02-1.41-1.1-2.57-2.51-2.59-.03,0-.06,0-.08,0h0ZM32.07,43.68c-.05.12-.17.21-.3.21-.25-.07-.36-.26-.29-.42l2.14-5.73c.06-.12.18-.19.31-.2.14,0,.26.07.31.2l2.14,5.72c.06.16-.01.35-.18.42-.25,0-.36-.08-.41-.2l-.52-1.39h-2.67l-.52,1.39ZM33.93,38.74l-1.1,2.92h2.19l-1.09-2.92ZM37.02,37.83c0-.17.14-.31.31-.32h1.15c1.76,0,3.18,1.43,3.18,3.19,0,1.75-1.42,3.17-3.18,3.18h-1.14c-.18,0-.32-.14-.33-.31v-5.74ZM38.49,38.15h-.83v5.09h.83c1.41.02,2.57-1.1,2.59-2.51.02-1.41-1.1-2.57-2.51-2.59-.03,0-.06,0-.08,0h0ZM45.88,37.51c.18,0,.32.14.32.32s-.14.32-.32.32h-2.85v2.23h2.48c.18,0,.32.14.32.32s-.14.32-.32.32h-2.48v2.22h2.85c.18,0,.32.14.32.32s-.14.32-.32.32h-3.14c-.18,0-.33-.13-.34-.32v-5.74c0-.17.14-.31.32-.32h3.17ZM52.7,37.51c.18,0,.32.14.32.32s-.14.32-.32.32h-2.85v2.23h2.48c.18,0,.32.14.32.32s-.14.32-.32.32h-2.48v2.22h2.84c.18,0,.32.14.32.32s-.14.32-.32.32h-3.14c-.18,0-.33-.13-.34-.32v-5.74c0-.17.14-.31.31-.32h3.17ZM53.92,37.83c0-.18.14-.32.32-.32s.32.14.32.32h0v5.42h2.85c.18,0,.32.14.32.32s-.14.32-.32.32h-3.15c-.18,0-.33-.13-.33-.31,0,0,0,0,0,0v-5.74ZM61.84,37.51c.18,0,.32.14.32.32s-.14.32-.32.32h-2.85v2.23h2.48c.18,0,.32.14.32.32s-.14.32-.32.32h-2.48v2.22h2.85c.18,0,.32.14.32.32s-.14.32-.32.32h-3.14c-.18,0-.33-.13-.34-.32v-5.74c0-.17.14-.31.31-.32h3.17ZM60.13,35.75c.07-.12.19-.2.33-.21.16,0,.47.11.47.31,0,.05-.02.1-.05.14-.02.03-.05.07-.08.1l-.71.68c-.09.1-.22.15-.35.14-.08,0-.22-.05-.22-.18,0-.06.02-.11.05-.15l.55-.82ZM62.96,37.83c0-.17.14-.31.31-.32h4.14c.18,0,.32.14.32.32s-.14.32-.32.32h-1.76v5.42c0,.17-.14.32-.31.32-.17,0-.32-.14-.32-.31h0v-5.42h-1.76c-.18,0-.32-.15-.31-.32h0ZM71.51,40.97c.5.3.8.84.8,1.42,0,.23.02.46.07.68.15.09.28.16.33.29.04.17-.05.34-.21.41-.05,0-.09.01-.14.02-.22-.01-.41-.14-.51-.34-.14-.33-.21-.7-.18-1.06,0-.34-.17-.66-.46-.85-.2-.14-.43-.24-.67-.29h-.22s-.48-.01-.48-.01h-.72v2.33c0,.18-.14.32-.32.32s-.32-.14-.32-.32v-5.74c0-.16.13-.3.29-.32h1.77c1.03,0,1.86.83,1.86,1.86,0,.65-.34,1.26-.91,1.6h0ZM69.14,40.6h1.38c.69.01,1.26-.53,1.27-1.22,0,0,0,0,0,0,0-.68-.55-1.23-1.22-1.23h-1.42v2.45ZM74.31,37.83v5.74c0,.18-.14.32-.32.32s-.32-.14-.32-.32v-5.74c0-.18.14-.32.32-.32s.32.14.32.32h0ZM80.92,38.57c-.1.14-.29.18-.43.08,0,0-.01-.01-.02-.02-.47-.37-1.06-.58-1.66-.58-1.43-.04-2.62,1.09-2.66,2.52-.04,1.43,1.09,2.62,2.52,2.66.05,0,.1,0,.15,0,.6,0,1.18-.2,1.65-.58.14-.11.34-.08.45.06,0,0,0,0,0,0,.11.12.11.32-.02.43,0,0-.02.02-.03.02-.59.45-1.31.69-2.05.69-1.78.05-3.27-1.36-3.31-3.15s1.36-3.27,3.15-3.31c.05,0,.11,0,.16,0,.74,0,1.47.25,2.05.7.14.11.16.31.06.45,0,0,0,0,0,0h0ZM82.13,43.68c-.05.12-.17.21-.3.21-.25-.07-.36-.26-.29-.42l2.14-5.73c.06-.12.18-.19.31-.2.14,0,.26.07.31.2l2.14,5.72c.06.16-.01.35-.18.42-.25,0-.36-.08-.41-.2l-.52-1.39h-2.67l-.52,1.39ZM83.98,38.74l-1.1,2.92h2.19l-1.09-2.92Z"/>
      <g id="hYKGGg.tif">
        <g>
          <path class="cls-6" d="M100.78,21.93c.06-.17-.1-.11-.18-.15-2.9-1.16-5.3-2.41-6.08-5.77-.1-.44-.13-.88-.24-1.3.01-.22-.02-.45,0-.67.14-1.76,1.07-3.86,2.5-4.93,1.79-1.34,4.25-1.88,6.43-1.38,6.01,2.12,12,4.34,17.94,6.64l-20.37,7.56Z"/>
          <path class="cls-6" d="M100.78,21.93l20.37,7.48-16.51,6.24c-2.62,1.06-5.49.72-7.78-.9-1.05-.94-1.79-1.85-2.23-3.24l-.36-1.69v-.75c.11-.45.14-.92.26-1.37.5-1.98,1.99-3.78,3.78-4.74.4-.21,2.44-.9,2.48-1.03Z"/>
          <path class="cls-5" d="M124.01,13.18c-.8.44-1.63.63-2.43.99-.14.07-.28.05-.27.28-.06-.02-.11-.06-.17-.08-5.94-2.3-11.94-4.52-17.94-6.64-2.18-.5-4.64.04-6.43,1.38.67-.77,1.64-1.26,2.57-1.65,5.96-2.51,12.34-4.4,18.34-6.87l2.13-.58h1.92c.93.18,1.84.42,2.67.88,5.07,2.72,4.43,9.66-.39,12.3Z"/>
          <path class="cls-4" d="M121.31,14.45c-.11.11-.17.09-.17-.02,0-.02,0-.04,0-.06.06.02.11.06.17.08Z"/>
          <path class="cls-5" d="M118.01,43.35c-6.09-2.6-12.79-4.4-18.82-7.06-1.02-.45-1.53-.81-2.34-1.54,2.3,1.62,5.17,1.96,7.78.9l16.51-6.24h.08c2.98,1.01,5.62,2.6,6.47,5.85,1.53,5.84-4.38,10.08-9.68,8.1Z"/>
          <path class="cls-4" d="M121.23,29.4h-.08c.02-.07.05-.07.08,0Z"/>
          <path class="cls-2" d="M125.24,27.44c-1.16.98-2.6,1.46-4.01,1.96-.03-.07-.06-.07-.08,0l-20.37-7.48,20.37-7.56s0,.04,0,.06c0,.12.07.13.17.02.88.34,1.77.56,2.61,1.02,4.73,2.56,5.47,8.46,1.31,11.97Z"/>
          <path class="cls-3" d="M121.31,14.45c-.11.11-.17.09-.17-.02,0-.02,0-.04,0-.06.06.02.11.06.17.08Z"/>
          <path class="cls-3" d="M121.23,29.4h-.08c.02-.07.05-.07.08,0Z"/>
        </g>
      </g>
    </g>
  </g>
</svg>