<?xml version="1.0" encoding="UTF-8"?>
<!DOCTYPE svg PUBLIC "-//W3C//DTD SVG 1.1//EN" "http://www.w3.org/Graphics/SVG/1.1/DTD/svg11.dtd">
<!-- Creator: CorelDRAW 2020 (64 Bit) -->
<svg xmlns="http://www.w3.org/2000/svg" xml:space="preserve" width="195.73mm" height="168.71mm" version="1.1" style="shape-rendering:geometricPrecision; text-rendering:geometricPrecision; image-rendering:optimizeQuality; fill-rule:evenodd; clip-rule:evenodd"
viewBox="0 0 14410.61 12421.28"
 xmlns:xlink="http://www.w3.org/1999/xlink"
 xmlns:xodm="http://www.corel.com/coreldraw/odm/2003">
 <defs>
  <style type="text/css">
   <![CDATA[
    .fil4 {fill:black;fill-rule:nonzero}
    .fil6 {fill:#B1CF6F;fill-rule:nonzero}
    .fil3 {fill:#DE212B;fill-rule:nonzero}
    .fil2 {fill:#EA5B86;fill-rule:nonzero}
    .fil1 {fill:#F2911D;fill-rule:nonzero}
    .fil5 {fill:#F7A81A;fill-rule:nonzero}
    .fil0 {fill:#FFEEC1;fill-rule:nonzero}
   ]]>
  </style>
 </defs>
 <g id="Camada_x0020_2">
  <metadata id="CorelCorpID_0Corel-Layer"/>
  <path class="fil0" d="M13013.05 2334.42l91.24 1461.05 1306.32 382.89 -1280.97 383.16c0,0 810.83,1373.91 788.31,1306.35 -22.51,-67.58 -1140.2,-833.27 -1140.2,-833.27l-526.53 923.35c0,0 -22.51,-1081.11 -112.62,-1081.11 -90.07,0 -1042.16,-95.61 -1042.16,-95.61l1042.16 -602.61c0,0 -926,-721.04 -858.45,-743.56 67.59,-22.51 1202.88,210.46 1202.88,210.46l530.01 -1311.11z"/>
  <path class="fil1" d="M12863.9 3278.56l50.05 760.26 716.89 199.21 -702.97 199.37c0,0 444.97,714.91 432.61,679.75 -12.36,-35.14 -625.7,-433.57 -625.7,-433.57l-288.95 480.46c0,0 -12.37,-562.56 -61.79,-562.56 -49.45,0 -571.91,-49.73 -571.91,-49.73l571.91 -313.58c0,0 -508.17,-375.19 -471.08,-386.9 37.06,-11.71 660.09,109.5 660.09,109.5l290.85 -682.21z"/>
  <path class="fil2" d="M10161.27 9175.41l354.25 676.11 703.33 -95.6 -528.3 454.89c0,0 678.27,481.57 653.18,454.19 -25.11,-27.37 -720.06,-154.12 -720.06,-154.12l-54.23 551.57c0,0 -240.7,-509.86 -283.6,-490.72 -42.89,19.17 -516.46,176.21 -516.46,176.21l367.94 -508.59c0,0 -594.22,-146.26 -566.85,-171.35 27.38,-25.08 617.39,-155.71 617.39,-155.71l-26.6 -736.88z"/>
  <path class="fil3" d="M8331.63 0l354.25 676.11 703.33 -95.61 -528.3 454.9c0,0 678.26,481.57 653.17,454.19 -25.11,-27.37 -720.05,-154.13 -720.05,-154.13l-54.23 551.57c0,0 -240.7,-509.88 -283.6,-490.71 -42.88,19.16 -516.45,176.18 -516.45,176.18l367.93 -508.56c0,0 -594.21,-146.26 -566.84,-171.35 27.37,-25.09 617.38,-155.71 617.38,-155.71l-26.59 -736.88z"/>
  <path class="fil0" d="M3999.58 8086.05l330.33 -688.14 -497.08 -506.72 680.5 151.66c0,0 -19.36,-831.61 -26.28,-795.14 -6.96,36.49 306.8,669.41 306.8,669.41l474.63 -286.23c0,0 -264.9,497.75 -223.92,520.66 41.02,22.93 449.97,308.74 449.97,308.74l-627.65 9.01c0,0 237.91,563.81 201.42,556.87 -36.47,-6.96 -493.86,-401.91 -493.86,-401.91l-574.87 461.78z"/>
  <path class="fil4" d="M7369.55 6120.77c-95.79,235.84 -209.24,487.38 -431.66,611.2 -36.75,-43.84 -23.04,-109.32 -7.35,-164.33 16.32,-57.14 32.59,-114.28 48.88,-171.42 -104.23,86.54 -228.15,149.22 -359.6,181.91 49.95,-159.06 121.48,-311.34 211.97,-451.39 -129.37,13.97 -261.86,-1.85 -384.32,-45.85 168.05,-116.2 339.76,-234.2 535.65,-292.25 109.06,-32.31 227.35,-46.96 319.81,-113.24l66.62 445.37z"/>
  <path class="fil5" d="M8713.38 4536.32c-139.61,64.62 -278.25,131.35 -415.83,200.15 -160.28,80.15 -320.43,163.96 -459.23,277.34 -138.81,113.35 -256.33,259.32 -308.15,430.88 -44.2,146.3 -237.45,195.19 -365.65,267.39 -152.96,86.1 -303.48,176.52 -451.34,271.08 122.83,20.16 250.98,6.78 367,-38.31 -95.89,117.19 -178.82,245 -246.77,380.33 126.05,-17.51 228.33,-107.16 322.43,-192.82 -60.39,102.26 -99.04,217.29 -112.62,335.27 202.02,-116.36 320.87,-332.7 476.8,-506.02 14.83,-16.49 30.44,-32.93 49.95,-43.51 25.01,-13.5 54.2,-16.2 82.46,-19.11 583.13,-60.05 1143.38,-323.21 1561.91,-733.67l-500.95 -628.99z"/>
  <path class="fil3" d="M10229.16 4104.13c2.72,6.57 -3.01,13.36 -8.26,18.16 -88.67,81.27 -177.37,162.54 -266.07,243.79 47.04,3.89 94.55,1.58 140.93,-6.78 -32.98,19.02 -285.03,221.66 -285.29,243.32 0.42,-33.97 -17.82,-65.06 -35.48,-94.1 -53.81,-88.59 -107.63,-177.16 -161.45,-265.76 154.21,-110.33 323.09,-124.72 503.6,-150.98 34.6,-5.01 71.48,-9.76 103.22,4.91 3.56,1.66 7.3,3.81 8.81,7.45z"/>
  <path class="fil5" d="M9433.46 4163c38.31,-14 78.54,-27.61 119.04,-22.76 71.14,8.53 122.44,69.97 166.05,126.8 28.24,36.81 64.75,83.19 85.3,124.77 36.1,73.04 72.8,157.61 41.76,232.94 -13.84,33.61 -39.76,60.59 -65.58,86.18 -126.6,125.52 -265.29,238.83 -413.42,338.01 -146.26,97.92 -287.21,212.18 -438.43,300.23 -4.98,-64.78 14.88,-131.16 54.64,-182.54 -37.37,15.79 -74.74,31.56 -112.12,47.35 -8.5,3.59 -18.44,7.11 -26.49,2.62 -14.94,-8.28 -6.68,-31.04 3.22,-44.96 25.56,-35.94 51.09,-71.89 76.65,-107.86 -44.57,14.93 -94.03,14.75 -138.47,-0.49 -10.91,-3.72 -23.29,-10.89 -23.17,-22.42 0.08,-7.4 5.56,-13.53 10.68,-18.88 34.05,-35.42 68.13,-70.88 102.18,-106.33 -66.44,21.92 -147.27,41.32 -199.97,-4.68 -4.91,-4.28 -9.69,-9.72 -9.84,-16.23 -0.15,-7.63 6,-13.77 11.69,-18.86 40.02,-35.87 80.05,-71.74 120.1,-107.58 -66.28,18.62 -141.82,-0.27 -191.53,-47.87 46.91,-36.11 95.14,-70.49 144.57,-103.09 -66.52,12.55 -137.94,-3.69 -192.52,-43.71 292.98,-136.1 571.05,-299.42 875.66,-410.64z"/>
  <path class="fil4" d="M9153.03 3971.12c-94.96,0.83 -188.8,18.97 -282.05,37.04 127.01,-6.03 255.06,10.96 376.1,49.9 -143.04,1.35 -285.71,33.68 -415.37,94.1 123.09,1.04 246.18,2.05 369.24,3.06 -114.23,24.75 -236.17,53.77 -315.06,140.02 81.4,-17.38 162.8,-34.72 244.21,-52.1 74.74,-15.93 149.97,-31.92 226.35,-34.21 113.84,-3.38 266.59,51.09 371.7,8.81 -70.57,-169.92 -414.12,-248.02 -575.12,-246.62z"/>
  <path class="fil4" d="M9515.62 4329.99c46.07,-11.61 81.74,39.01 102.23,81.87 7.36,15.37 14.81,32.98 8.52,48.8 -3.45,8.68 -10.51,15.28 -17.4,21.56 -35.3,32.31 -82.88,66.88 -126.54,47.35 -19.9,-8.91 -33.74,-27.74 -42.7,-47.61 -17.07,-37.79 -18.21,-85.19 6.7,-118.36 24.89,-33.17 79.24,-43.48 108.96,-14.54l-39.76 -19.07z"/>
  <path class="fil2" d="M9229.27 7629.99c-186.59,253.4 -433.23,462.27 -713.9,604.56 -63.12,-44.65 -117.79,-101.22 -160.28,-165.82 -10.62,-16.12 -20.86,-34.26 -19.19,-53.5 1.82,-20.62 16.73,-37.37 30.88,-52.49 123.63,-131.94 247.27,-263.89 370.92,-395.85 -166.72,93.5 -333.42,187.03 -500.14,280.53 -61.73,-83.68 -115.97,-172.93 -161.84,-266.28 160.08,-86.62 292.64,-223.29 374.35,-385.94 -109.92,74.07 -224.39,141.38 -342.54,201.39 -35.21,17.9 -78.41,35.02 -112.28,14.7 -16.47,-9.87 -27.15,-26.88 -36.83,-43.45 -32.75,-55.9 -61.94,-113.89 -87.32,-173.48 131.82,-100.78 248.09,-221.84 343.45,-357.63 -101.82,98.96 -232.28,168.07 -371.34,196.78 -18.83,-76.08 -37.66,-152.13 -56.51,-228.18 -4.6,-18.6 -9.23,-38.03 -4.81,-56.68 8,-33.63 41.64,-53.3 70.6,-72.15 80.28,-52.31 145.84,-126.95 187.34,-213.29 -90.7,73.92 -190.09,137.14 -295.49,187.97 -25.53,-89.15 -51.07,-178.25 -76.59,-267.4 83.37,-82.44 146.8,-184.9 183.39,-296.3 -63.69,70.11 -141.92,126.91 -228.27,165.79 -32.91,-77.32 -65.84,-154.64 -98.78,-231.99 136.18,-154.88 256.59,-323.6 358.8,-502.74 58.96,234.57 125.19,482.12 299.29,649.98l1047.11 1461.47z"/>
  <path class="fil5" d="M9007.04 7775.12c-239.27,-363.24 -468.06,-733.36 -686.03,-1109.74 -110.91,-191.48 -218.98,-384.59 -324.25,-579.25 -72.9,-134.86 -220.72,-307.3 -167.14,-469.39 26.47,-80.05 82.46,-146.36 137.22,-210.49 161.79,-189.47 294.1,-369.28 516.61,-495.28 77.37,-43.81 162.02,-82.75 250.92,-80.13 122,3.61 231.12,87.58 292.88,192.85 72.39,123.34 57.43,271.24 137.63,385.1 84.21,119.48 225.04,174.65 313.5,288.57 93.22,120.08 98.9,284.27 98.28,436.3 -1.2,293.89 -11.4,589.91 -76.33,876.55 -64.91,286.64 -187.84,565.67 -390.23,778.78 -13.3,14.03 -29.11,28.67 -48.44,28.65 -24.1,-0.03 -41.38,-22.39 -54.62,-42.52z"/>
  <path class="fil3" d="M9372.86 6307.79c-51.43,-147.55 -87.66,-300.41 -107.97,-455.33 -8.42,-64.21 84.03,-86.7 134.23,-64.26 50.99,22.78 59.35,72.7 69.11,123.06 26.52,136.75 -9.56,286.98 -95.37,396.54z"/>
  <path class="fil3" d="M8553.17 5708.08c41.79,-150.57 99.04,-296.85 170.6,-435.76 29.66,-57.55 118.43,-23.43 146.93,23.64 28.93,47.74 7.38,93.53 -13.27,140.48 -56.1,127.5 -171.33,230.46 -304.26,271.63z"/>
  <path class="fil3" d="M8108.49 5517.36c75.58,-136.75 165.24,-265.73 267.08,-384.25 42.2,-49.12 120.64,4.7 137.42,57.12 17.07,53.14 -14.54,92.67 -45.53,133.56 -84.15,111 -220.1,184.38 -358.97,193.58z"/>
  <path class="fil3" d="M9051.42 6638.76c-21.4,-154.77 -26.88,-311.76 -16.32,-467.67 4.4,-64.6 99.4,-68.49 144.26,-36.6 45.48,32.37 43.87,82.93 43.53,134.23 -0.88,139.29 -65.79,279.5 -171.47,370.04z"/>
  <path class="fil3" d="M8662.9 7064.73c1.84,-156.25 19.79,-312.3 53.4,-464.9 13.94,-63.24 108.49,-52.93 148.1,-14.75 40.18,38.75 31.04,88.54 23.09,139.21 -21.58,137.61 -106.62,266.62 -224.59,340.44z"/>
  <path class="fil3" d="M8550.71 6450.96c1.84,-156.25 19.79,-312.3 53.4,-464.9 13.94,-63.24 108.52,-52.96 148.1,-14.75 40.18,38.76 31.06,88.55 23.09,139.22 -21.58,137.61 -106.62,266.59 -224.59,340.44z"/>
  <path class="fil3" d="M8137.46 6111.62c43.63,-150.05 102.72,-295.6 175.99,-433.6 30.36,-57.19 118.7,-21.95 146.62,25.45 28.34,48.11 6.21,93.61 -15.03,140.31 -57.66,126.8 -174.13,228.3 -307.58,267.84z"/>
  <path class="fil3" d="M9105.53 5711.01c2.57,-5.58 12.02,-3.3 14.31,2.39 2.28,5.71 -0.1,12.1 -2.55,17.74 -41.92,97.27 -100.39,187.38 -172.15,265.24 -13.87,-116.08 -13.48,-233.89 1.19,-349.89 5.61,-44.46 14.18,-90.67 41.64,-126.1 9.01,-11.63 20.67,-22.21 35.07,-25.22 16.41,-3.41 33.01,3.53 48.33,10.31 20.91,9.25 41.82,18.52 62.75,27.76 14.83,6.6 31.3,14.91 35.92,30.5 3.53,11.87 -1.04,24.47 -5.53,36.02l-64.19 164.46 5.2 -53.22z"/>
  <path class="fil3" d="M9269.13 6977.3c2.57,-5.59 12.03,-3.3 14.31,2.41 2.28,5.68 -0.1,12.07 -2.55,17.71 -41.92,97.27 -100.39,187.37 -172.15,265.23 -13.87,-116.07 -13.48,-233.88 1.19,-349.88 5.61,-44.47 14.19,-90.68 41.64,-126.11 9.02,-11.63 20.68,-22.21 35.07,-25.22 16.41,-3.4 33.01,3.53 48.33,10.31 20.91,9.25 41.82,18.52 62.73,27.77 14.86,6.6 31.32,14.91 35.94,30.49 3.53,11.87 -1.04,24.47 -5.56,36.02 -21.37,54.83 -42.75,109.64 -64.15,164.46l5.19 -53.22z"/>
  <path class="fil2" d="M6604.89 3070.04c-312.83,34.05 -617.33,142.36 -881.38,313.58 6.91,77.01 28.34,152.68 62.85,221.87 8.63,17.29 19.14,35.27 36.65,43.48 18.73,8.81 40.7,4.34 60.86,-0.31 176.23,-40.63 352.43,-81.25 528.63,-121.87 -164.59,97.17 -329.21,194.36 -493.8,291.53 41.36,95.43 91.24,187.16 148.94,273.68 155.32,-94.88 340.07,-140.82 521.75,-129.76 -119.24,57.81 -234.96,122.95 -346.23,194.98 -33.14,21.45 -69.63,50.2 -69.11,89.71 0.26,19.19 9.64,36.96 19.09,53.66 31.86,56.41 67.34,110.78 106.12,162.67 153.35,-63.35 316.46,-103.08 481.76,-117.31 -136.7,38.31 -262.02,116.38 -356.67,222.22l168.88 163.48c13.76,13.33 28.26,27.09 46.6,32.62 33.09,10 67.01,-9.2 97.86,-24.78 85.53,-43.11 183.01,-62.31 278.54,-54.83 -109.5,41.3 -214.09,95.48 -310.98,161.09 64.23,66.83 128.46,133.68 192.7,200.54 113.19,-30.68 233.66,-34.03 348.35,-9.72 -92.59,19.84 -181.03,58.96 -258.02,114.1l150.96 201.94c202.33,-39.92 408.72,-59.3 614.94,-57.69 -173.21,-168.8 -353.99,-350.43 -411.67,-585.31l-737.61 -1639.57z"/>
  <path class="fil5" d="M6367.75 3189.29c193.87,389.34 398.95,773.12 614.9,1150.67 109.87,192.1 222.54,382.56 337.97,571.37 79.99,130.8 154.83,345.24 321.88,380.33 82.52,17.35 168,2.23 250.96,-12.91 245.08,-44.7 467.05,-68.77 687.77,-197.86 76.78,-44.91 152.96,-98.52 195.35,-176.7 58.15,-107.29 40.36,-243.86 -19.64,-350.15 -70.29,-124.54 -205.69,-185.91 -263.84,-312.46 -61.01,-132.83 -37.95,-282.33 -92.02,-416.01 -57.02,-140.93 -196.1,-228.36 -327.87,-304.17 -254.71,-146.6 -515.8,-286.48 -796.26,-374.35 -280.46,-87.86 -583.49,-121.76 -869.42,-53.81 -18.78,4.44 -39.43,10.75 -49.09,27.48 -12.1,20.86 -1.43,47.01 9.32,68.6z"/>
  <path class="fil3" d="M7820.26 3610.11c101.76,118.6 215.71,226.72 339.48,322.1 51.29,39.54 117.16,-29.09 122.98,-83.79 5.92,-55.51 -33.04,-87.82 -71.67,-121.56 -104.93,-91.63 -252.95,-135.92 -390.79,-116.75z"/>
  <path class="fil3" d="M7927.03 4620.13c151.2,39.51 306.41,63.48 462.48,71.4 64.67,3.27 79.74,-90.65 53.38,-138.93 -26.76,-48.99 -77.17,-53.35 -128.15,-59.09 -138.44,-15.53 -285.32,32.37 -387.71,126.62z"/>
  <path class="fil3" d="M7868.54 5100.44c156.23,3.35 312.8,-9.37 466.43,-37.89 63.66,-11.85 56.51,-106.68 19.66,-147.53 -37.4,-41.45 -87.45,-33.97 -138.36,-27.71 -138.28,16.99 -270.02,97.69 -347.73,213.14z"/>
  <path class="fil3" d="M7372.61 3721.78c123.09,96.26 256.07,179.87 396.17,249.06 58.08,28.65 109.16,-51.55 104.13,-106.36 -5.12,-55.59 -49.66,-79.58 -94.18,-105.06 -120.91,-69.21 -274.75,-83.53 -406.12,-37.64z"/>
  <path class="fil3" d="M6809.11 3843.73c136.02,76.88 279.97,139.78 428.81,187.37 61.66,19.72 100.28,-67.22 87.14,-120.65 -13.33,-54.2 -60.96,-71.32 -108.77,-89.92 -129.85,-50.44 -284.08,-41.74 -407.18,23.2z"/>
  <path class="fil3" d="M7283.46 4249.07c136.02,76.88 279.97,139.78 428.81,187.37 61.69,19.72 100.28,-67.22 87.14,-120.64 -13.33,-54.21 -60.96,-71.33 -108.77,-89.9 -129.85,-50.47 -284.08,-41.77 -407.18,23.17z"/>
  <path class="fil3" d="M7369.27 4776.87c151.66,37.64 307.19,59.69 463.35,65.66 64.69,2.47 78.59,-91.63 51.63,-139.58 -27.35,-48.65 -77.81,-52.39 -128.88,-57.48 -138.59,-13.84 -284.88,35.87 -386.1,131.4z"/>
  <path class="fil3" d="M8201.97 4141.06c6.1,0.57 8.89,-8.73 5.12,-13.58 -3.76,-4.83 -10.51,-5.98 -16.6,-6.7 -105.17,-12.63 -212.44,-7.33 -315.84,15.58 93.4,70.34 195.45,129.17 303.14,174.75 41.27,17.48 85.53,33.3 129.94,27.35 14.6,-1.95 29.61,-6.7 39.43,-17.66 11.19,-12.46 13.53,-30.28 15.37,-46.96 2.5,-22.73 4.98,-45.46 7.48,-68.21 1.79,-16.13 2.86,-34.54 -8.28,-46.36 -8.52,-9.01 -21.69,-11.4 -33.95,-13.33 -58.16,-9.04 -116.28,-18.1 -174.44,-27.14l48.62 22.26z"/>
  <path class="fil3" d="M7189.26 3363.45c6.1,0.57 8.88,-8.72 5.12,-13.55 -3.77,-4.86 -10.52,-6 -16.6,-6.73 -105.17,-12.62 -212.44,-7.33 -315.84,15.61 93.4,70.31 195.45,129.15 303.14,174.75 41.27,17.46 85.52,33.3 129.94,27.33 14.57,-1.95 29.61,-6.71 39.43,-17.66 11.2,-12.47 13.53,-30.29 15.38,-46.94 2.49,-22.75 4.98,-45.48 7.48,-68.21 1.79,-16.15 2.86,-34.57 -8.29,-46.39 -8.52,-9.01 -21.71,-11.4 -33.95,-13.3 -58.15,-9.06 -116.28,-18.1 -174.43,-27.17l48.62 22.26z"/>
  <path class="fil6" d="M5454.71 10346.5c434.54,-3.22 752.26,-198.93 642.71,-900.46 353.23,278.88 499.86,784.89 350.59,1209.96 506.79,82.23 978.46,347.76 1305.21,734.71 -504.92,248.9 -1121.61,261.88 -1630.97,34.36 225.43,100.7 -152.12,735.79 -246.41,804.08 -141.4,102.36 -313.31,153.74 -484.74,186.82 -74.83,14.45 -182.15,2.26 -186.62,-73.84 189.35,-1.3 329.03,-204.38 323.68,-393.7 -26.95,-950.63 -1657.74,-1213.11 -2370.4,-1361.73 -540.71,-112.77 -1090.68,-175.26 -1641.1,-215.81 -457.73,-33.69 -1066.21,-158.43 -1516.66,-69.97 967.74,-190.07 1959.82,-254.95 2944.15,-194.56 832.6,51.06 1681.05,246.31 2510.56,240.14z"/>
 </g>
</svg>
