<?xml version="1.0" encoding="UTF-8"?>
<!DOCTYPE svg PUBLIC "-//W3C//DTD SVG 1.1//EN" "http://www.w3.org/Graphics/SVG/1.1/DTD/svg11.dtd">
<!-- Creator: CorelDRAW 2020 (64 Bit) -->
<svg xmlns="http://www.w3.org/2000/svg" xml:space="preserve" width="82.1491mm" height="94.3812mm" version="1.1" style="shape-rendering:geometricPrecision; text-rendering:geometricPrecision; image-rendering:optimizeQuality; fill-rule:evenodd; clip-rule:evenodd"
viewBox="0 0 2263.66 2600.73"
 xmlns:xlink="http://www.w3.org/1999/xlink"
 xmlns:xodm="http://www.corel.com/coreldraw/odm/2003">
 <defs>
  <style type="text/css">
   <![CDATA[
    .str0 {stroke:#FFEEC1;stroke-width:29.16;stroke-linecap:round;stroke-linejoin:round;stroke-miterlimit:10}
    .fil0 {fill:none;fill-rule:nonzero}
    .fil1 {fill:black;fill-rule:nonzero}
    .fil4 {fill:#B1CF6F;fill-rule:nonzero}
    .fil3 {fill:#DE212B;fill-rule:nonzero}
    .fil2 {fill:#F7A81A;fill-rule:nonzero}
   ]]>
  </style>
 </defs>
 <g id="Camada_x0020_2">
  <metadata id="CorelCorpID_0Corel-Layer"/>
  <path class="fil0 str0" d="M1132.4 1081.28l226.17 0c30.19,0 54.89,-24.7 54.89,-54.89l0 -137.24c0,-30.19 -24.7,-54.89 -54.89,-54.89l-226.17 0c-30.19,0 -54.89,24.7 -54.89,54.89l0 137.24c0,30.19 24.7,54.89 54.89,54.89z"/>
  <polyline class="fil0 str0" points="1396.99,847.43 1248.78,985.77 1093.97,850.73 "/>
  <path class="fil1" d="M826.85 1538.92c-48.11,118.47 -105.11,244.82 -216.83,307.03 -18.47,-22.02 -11.58,-54.91 -3.7,-82.56l24.56 -86.1c-52.36,43.46 -114.6,74.96 -180.65,91.39 25.1,-79.91 61.02,-156.41 106.48,-226.75 -64.98,7.02 -131.54,-0.92 -193.05,-23.03 84.41,-58.37 170.66,-117.64 269.06,-146.8 54.79,-16.24 114.2,-23.59 160.65,-56.89l33.47 223.71z"/>
  <path class="fil2" d="M1501.89 743.01c-70.14,32.46 -139.77,65.98 -208.89,100.54 -80.51,40.26 -160.95,82.37 -230.68,139.31 -69.72,56.94 -128.76,130.27 -154.79,216.45 -22.2,73.49 -119.28,98.05 -183.68,134.31 -76.82,43.26 -152.44,88.67 -226.72,136.17 61.7,10.13 126.08,3.41 184.36,-19.24 -48.17,58.87 -89.82,123.07 -123.96,191.05 63.32,-8.8 114.7,-53.82 161.97,-96.86 -30.33,51.37 -49.74,109.15 -56.57,168.42 101.48,-58.45 161.18,-167.11 239.5,-254.19 7.46,-8.29 15.29,-16.55 25.1,-21.85 12.55,-6.78 27.22,-8.15 41.41,-9.6 292.92,-30.18 574.35,-162.36 784.6,-368.54l-251.65 -315.96z"/>
  <path class="fil3" d="M2263.31 525.92c1.37,3.3 -1.52,6.71 -4.14,9.12 -44.55,40.83 -89.1,81.64 -133.66,122.47 23.62,1.95 47.5,0.8 70.79,-3.41 -16.56,9.55 -143.17,111.35 -143.31,122.23 0.2,-17.07 -8.95,-32.68 -17.82,-47.27 -27.03,-44.49 -54.07,-89 -81.1,-133.49 77.47,-55.44 162.3,-62.66 252.97,-75.85 17.38,-2.53 35.91,-4.9 51.84,2.47 1.8,0.84 3.68,1.92 4.43,3.74z"/>
  <path class="fil2" d="M1863.61 555.48c19.25,-7.03 39.46,-13.86 59.8,-11.42 35.73,4.28 61.5,35.14 83.4,63.69 14.18,18.49 32.53,41.78 42.85,62.67 18.13,36.69 36.57,79.17 20.98,117.01 -6.95,16.88 -19.97,30.44 -32.93,43.29 -63.6,63.06 -133.26,119.97 -207.68,169.79 -73.47,49.19 -144.27,106.58 -220.23,150.81 -2.51,-32.53 7.48,-65.89 27.45,-91.69 -18.78,7.92 -37.55,15.84 -56.33,23.78 -4.26,1.8 -9.26,3.58 -13.31,1.32 -7.5,-4.16 -3.34,-15.59 1.62,-22.58 12.83,-18.06 25.67,-36.12 38.5,-54.19 -22.38,7.5 -47.22,7.41 -69.55,-0.25 -5.47,-1.88 -11.69,-5.47 -11.64,-11.26 0.04,-3.72 2.79,-6.8 5.38,-9.49 17.1,-17.8 34.21,-35.61 51.32,-53.42 -33.37,11.01 -73.98,20.75 -100.45,-2.35 -2.47,-2.16 -4.87,-4.88 -4.95,-8.16 -0.08,-3.84 3.01,-6.9 5.87,-9.47 20.11,-18.01 40.22,-36.03 60.33,-54.05 -33.3,9.36 -71.23,-0.12 -96.21,-24.04 23.56,-18.13 47.8,-35.4 72.62,-51.79 -33.41,6.3 -69.29,-1.85 -96.71,-21.95 147.18,-68.38 286.86,-150.4 439.87,-206.28z"/>
  <path class="fil1" d="M1722.74 459.1c-47.7,0.42 -94.85,9.53 -141.67,18.61 63.8,-3.03 128.12,5.5 188.92,25.06 -71.86,0.68 -143.52,16.91 -208.65,47.27 61.82,0.52 123.66,1.02 185.48,1.54 -57.39,12.43 -118.63,27 -158.27,70.33l122.67 -26.16c37.54,-8.01 75.34,-16.04 113.71,-17.19 57.18,-1.7 133.91,25.65 186.72,4.42 -35.45,-85.36 -208.03,-124.59 -288.91,-123.88z"/>
  <path class="fil1" d="M1904.88 639.37c23.15,-5.83 41.06,19.6 51.36,41.13 3.68,7.71 7.43,16.57 4.28,24.52 -1.73,4.35 -5.29,7.66 -8.74,10.82 -17.73,16.24 -41.63,33.61 -63.57,23.79 -9.99,-4.47 -16.94,-13.93 -21.45,-23.92 -8.56,-18.98 -9.15,-42.79 3.36,-59.45 12.5,-16.66 39.82,-21.84 54.74,-7.31l-19.98 -9.58z"/>
  <path class="fil4" d="M1761.04 2297.04c-93.73,127.28 -217.62,232.21 -358.61,303.68 -31.71,-22.42 -59.17,-50.84 -80.52,-83.29 -5.34,-8.12 -10.48,-17.21 -9.63,-26.89 0.9,-10.35 8.39,-18.77 15.51,-26.35 62.11,-66.29 124.21,-132.57 186.32,-198.85 -83.75,46.97 -167.48,93.94 -251.23,140.91 -31.02,-42.04 -58.27,-86.87 -81.3,-133.75 80.41,-43.52 146.99,-112.17 188.04,-193.88 -55.22,37.21 -112.71,71.01 -172.06,101.16 -17.69,8.99 -39.38,17.59 -56.4,7.39 -8.28,-4.96 -13.63,-13.51 -18.51,-21.83 -16.45,-28.07 -31.11,-57.2 -43.86,-87.14 66.22,-50.63 124.63,-111.44 172.53,-179.64 -51.14,49.7 -116.68,84.44 -186.53,98.84 -9.46,-38.2 -18.93,-76.41 -28.38,-114.61 -2.31,-9.34 -4.64,-19.11 -2.41,-28.47 4,-16.89 20.91,-26.77 35.45,-36.25 40.33,-26.28 73.26,-63.77 94.11,-107.15 -45.56,37.13 -95.49,68.89 -148.44,94.42 -12.82,-44.77 -25.64,-89.54 -38.46,-134.31 41.88,-41.42 73.73,-92.9 92.12,-148.85 -31.98,35.21 -71.28,63.75 -114.67,83.28 -16.54,-38.85 -33.08,-77.69 -49.62,-116.54 68.41,-77.8 128.89,-162.55 180.24,-252.54 29.61,117.83 62.88,242.18 150.33,326.51l525.99 734.13z"/>
  <path class="fil2" d="M1649.4 2369.95c-120.18,-182.46 -235.11,-368.38 -344.61,-557.44 -55.71,-96.2 -110.01,-193.21 -162.88,-290.98 -36.64,-67.76 -110.88,-154.37 -83.97,-235.79 13.3,-40.21 41.43,-73.52 68.93,-105.74 81.27,-95.17 147.73,-185.5 259.5,-248.8 38.88,-22.01 81.39,-41.56 126.05,-40.24 61.28,1.81 116.1,44 147.13,96.88 36.36,61.95 28.83,136.25 69.13,193.44 42.3,60.02 113.05,87.73 157.48,144.96 46.83,60.33 49.69,142.8 49.37,219.16 -0.6,147.63 -5.74,296.34 -38.34,440.32 -32.61,143.99 -94.36,284.15 -196.02,391.2 -6.68,7.04 -14.63,14.41 -24.33,14.4 -12.11,-0.02 -20.78,-11.26 -27.44,-21.37z"/>
  <path class="fil3" d="M1833.17 1632.87c-25.83,-74.12 -44.04,-150.9 -54.23,-228.72 -4.23,-32.25 42.2,-43.55 67.43,-32.28 25.6,11.44 29.8,36.51 34.7,61.82 13.32,68.69 -4.8,144.15 -47.9,199.19z"/>
  <path class="fil3" d="M1421.42 1331.62c20.99,-75.64 49.75,-149.11 85.7,-218.89 14.89,-28.92 59.48,-11.77 73.8,11.87 14.53,23.98 3.7,46.98 -6.68,70.58 -28.17,64.05 -86.04,115.76 -152.82,136.44z"/>
  <path class="fil3" d="M1198.04 1235.82c37.97,-68.7 83.01,-133.49 134.17,-193.02 21.2,-24.67 60.59,2.37 69.03,28.69 8.56,26.69 -7.3,46.55 -22.87,67.09 -42.28,55.76 -110.57,92.62 -180.32,97.24z"/>
  <path class="fil3" d="M1671.7 1799.12c-10.75,-77.76 -13.5,-156.61 -8.2,-234.92 2.2,-32.45 49.94,-34.4 72.46,-18.38 22.85,16.24 22.04,41.65 21.87,67.42 -0.45,69.97 -33.05,140.4 -86.14,185.88z"/>
  <path class="fil3" d="M1476.53 2013.1c0.93,-78.49 9.94,-156.88 26.83,-233.53 7,-31.77 54.5,-26.6 74.38,-7.42 20.18,19.47 15.6,44.47 11.61,69.93 -10.85,69.13 -53.56,133.93 -112.82,171.01z"/>
  <path class="fil3" d="M1420.18 1704.78c0.93,-78.49 9.93,-156.88 26.83,-233.53 7,-31.77 54.5,-26.6 74.39,-7.42 20.18,19.47 15.6,44.47 11.61,69.93 -10.85,69.13 -53.56,133.93 -112.82,171.01z"/>
  <path class="fil3" d="M1212.59 1534.32c21.92,-75.37 51.6,-148.48 88.4,-217.81 15.25,-28.74 59.64,-11.02 73.66,12.78 14.23,24.17 3.12,47.03 -7.55,70.49 -28.97,63.7 -87.48,114.68 -154.51,134.54z"/>
  <path class="fil3" d="M1698.88 1333.1c1.3,-2.8 6.04,-1.65 7.18,1.2 1.15,2.86 -0.05,6.08 -1.27,8.91 -21.06,48.86 -50.42,94.12 -86.47,133.24 -6.98,-58.33 -6.78,-117.5 0.59,-175.77 2.82,-22.34 7.11,-45.55 20.92,-63.34 4.52,-5.84 10.38,-11.16 17.61,-12.66 8.24,-1.72 16.57,1.77 24.27,5.17 10.51,4.66 21.01,9.3 31.52,13.96 7.46,3.3 15.73,7.49 18.05,15.31 1.77,5.96 -0.52,12.3 -2.79,18.09 -10.74,27.54 -21.49,55.08 -32.23,82.62l2.6 -26.73z"/>
  <path class="fil3" d="M1781.06 1969.18c1.29,-2.8 6.03,-1.65 7.18,1.2 1.15,2.86 -0.05,6.08 -1.27,8.91 -21.06,48.86 -50.42,94.12 -86.47,133.24 -6.98,-58.33 -6.78,-117.5 0.59,-175.77 2.82,-22.34 7.11,-45.55 20.92,-63.34 4.52,-5.84 10.38,-11.16 17.61,-12.66 8.24,-1.72 16.57,1.77 24.27,5.17 10.51,4.66 21.01,9.31 31.52,13.96 7.46,3.3 15.73,7.49 18.05,15.31 1.77,5.96 -0.52,12.3 -2.79,18.09 -10.74,27.54 -21.49,55.08 -32.23,82.62l2.61 -26.73z"/>
  <path class="fil4" d="M442.74 6.46c-157.15,17.1 -310.11,71.52 -442.74,157.51 3.47,38.69 14.24,76.71 31.57,111.46 4.34,8.69 9.63,17.71 18.41,21.84 9.41,4.42 20.44,2.17 30.57,-0.17 88.52,-20.4 177.03,-40.81 265.54,-61.21 -82.68,48.82 -165.36,97.63 -248.04,146.44 20.76,47.94 45.83,94.01 74.8,137.48 78.03,-47.66 170.84,-70.75 262.1,-65.19 -59.9,29.05 -118.02,61.78 -173.92,97.95 -16.65,10.78 -34.99,25.22 -34.71,45.06 0.13,9.64 4.83,18.57 9.58,26.97 16.01,28.33 33.83,55.64 53.31,81.7 77.04,-31.83 158.96,-51.77 242,-58.94 -68.68,19.26 -131.62,58.48 -179.18,111.64 28.28,27.37 56.56,54.75 84.84,82.13 6.91,6.69 14.2,13.6 23.41,16.38 16.62,5.03 33.66,-4.63 49.16,-12.44 42.98,-21.68 91.93,-31.31 139.92,-27.55 -54.99,20.75 -107.54,47.97 -156.21,80.91 32.26,33.59 64.54,67.16 96.8,100.75 56.85,-15.41 117.36,-17.1 174.98,-4.88 -46.52,9.96 -90.93,29.61 -129.61,57.32 25.27,33.81 50.56,67.63 75.83,101.44 101.63,-20.05 205.31,-29.78 308.9,-28.98 -87,-84.79 -177.82,-176.03 -206.79,-294.01l-370.53 -823.6z"/>
  <path class="fil2" d="M323.63 66.36c97.38,195.58 200.41,388.35 308.87,578.01 55.19,96.49 111.79,192.18 169.78,287.01 40.18,65.7 77.78,173.41 161.69,191.05 41.45,8.71 84.39,1.12 126.05,-6.48 123.12,-22.46 234.62,-34.55 345.49,-99.39 38.56,-22.56 76.83,-49.5 98.12,-88.77 29.22,-53.89 20.28,-122.48 -9.86,-175.88 -35.31,-62.56 -103.33,-93.38 -132.53,-156.96 -30.65,-66.71 -19.07,-141.82 -46.24,-208.98 -28.63,-70.79 -98.49,-114.71 -164.68,-152.8 -127.96,-73.64 -259.1,-143.9 -399.99,-188.04 -140.88,-44.14 -293.1,-61.17 -436.74,-27.03 -9.44,2.24 -19.8,5.41 -24.66,13.81 -6.08,10.48 -0.71,23.62 4.69,34.46z"/>
  <path class="fil3" d="M1053.26 277.75c51.11,59.57 108.35,113.88 170.53,161.8 25.76,19.86 58.86,-14.61 61.79,-42.09 2.96,-27.88 -16.6,-44.1 -36.02,-61.06 -52.7,-46.03 -127.05,-68.27 -196.3,-58.65z"/>
  <path class="fil3" d="M1106.89 785.12c75.94,19.85 153.92,31.89 232.31,35.87 32.49,1.64 40.06,-45.53 26.81,-69.79 -13.44,-24.61 -38.77,-26.8 -64.37,-29.68 -69.54,-7.81 -143.32,16.24 -194.75,63.6z"/>
  <path class="fil3" d="M1077.51 1026.39c78.48,1.68 157.12,-4.71 234.29,-19.04 31.98,-5.94 28.4,-53.58 9.88,-74.1 -18.78,-20.81 -43.93,-17.07 -69.5,-13.92 -69.45,8.53 -135.63,49.07 -174.67,107.07z"/>
  <path class="fil3" d="M828.39 333.85c61.83,48.35 128.64,90.35 199.02,125.1 29.16,14.41 54.83,-25.9 52.3,-53.42 -2.57,-27.92 -24.95,-39.98 -47.31,-52.79 -60.73,-34.76 -138.01,-41.95 -204,-18.9z"/>
  <path class="fil3" d="M545.33 395.11c68.33,38.62 140.64,70.22 215.41,94.12 30.98,9.91 50.37,-33.76 43.77,-60.6 -6.7,-27.23 -30.62,-35.82 -54.64,-45.16 -65.22,-25.34 -142.7,-20.97 -204.54,11.64z"/>
  <path class="fil3" d="M783.61 598.72c68.33,38.62 140.63,70.21 215.41,94.12 30.98,9.91 50.37,-33.76 43.77,-60.6 -6.7,-27.23 -30.62,-35.82 -54.64,-45.16 -65.22,-25.34 -142.7,-20.97 -204.54,11.64z"/>
  <path class="fil3" d="M826.71 863.84c76.18,18.91 154.31,29.98 232.74,32.98 32.51,1.25 39.5,-46.03 25.95,-70.12 -13.74,-24.44 -39.1,-26.31 -64.73,-28.87 -69.63,-6.95 -143.11,18.02 -193.95,66z"/>
  <path class="fil3" d="M1245 544.46c3.07,0.29 4.46,-4.38 2.57,-6.81 -1.9,-2.43 -5.28,-3.01 -8.34,-3.37 -52.81,-6.35 -106.71,-3.68 -158.65,7.84 46.92,35.32 98.18,64.87 152.27,87.78 20.74,8.78 42.97,16.72 65.29,13.74 7.32,-0.98 14.86,-3.37 19.79,-8.88 5.63,-6.26 6.81,-15.22 7.72,-23.58 1.26,-11.42 2.52,-22.84 3.77,-34.27 0.9,-8.11 1.43,-17.36 -4.17,-23.29 -4.27,-4.53 -10.9,-5.73 -17.04,-6.69 -29.21,-4.55 -58.42,-9.09 -87.63,-13.64l24.43 11.18z"/>
  <path class="fil3" d="M736.29 153.85c3.07,0.29 4.46,-4.38 2.57,-6.81 -1.9,-2.43 -5.28,-3.01 -8.34,-3.37 -52.81,-6.34 -106.71,-3.68 -158.65,7.84 46.92,35.32 98.18,64.88 152.27,87.78 20.74,8.78 42.97,16.72 65.28,13.73 7.32,-0.98 14.86,-3.37 19.79,-8.88 5.63,-6.26 6.8,-15.22 7.72,-23.58l3.77 -34.27c0.89,-8.11 1.43,-17.36 -4.17,-23.29 -4.27,-4.53 -10.9,-5.73 -17.04,-6.69 -29.21,-4.55 -58.42,-9.09 -87.63,-13.64l24.43 11.18z"/>
 </g>
</svg>
