<?xml version="1.0" encoding="UTF-8"?>
<!DOCTYPE svg PUBLIC "-//W3C//DTD SVG 1.1//EN" "http://www.w3.org/Graphics/SVG/1.1/DTD/svg11.dtd">
<!-- Creator: CorelDRAW 2020 (64 Bit) -->
<svg xmlns="http://www.w3.org/2000/svg" xml:space="preserve" width="195.73mm" height="168.71mm" version="1.1" style="shape-rendering:geometricPrecision; text-rendering:geometricPrecision; image-rendering:optimizeQuality; fill-rule:evenodd; clip-rule:evenodd"
viewBox="0 0 5828.36 5023.77"
 xmlns:xlink="http://www.w3.org/1999/xlink"
 xmlns:xodm="http://www.corel.com/coreldraw/odm/2003">
 <defs>
  <style type="text/css">
   <![CDATA[
    .fil4 {fill:black;fill-rule:nonzero}
    .fil6 {fill:#B1CF6F;fill-rule:nonzero}
    .fil3 {fill:#DE212B;fill-rule:nonzero}
    .fil2 {fill:#EA5B86;fill-rule:nonzero}
    .fil1 {fill:#F2911D;fill-rule:nonzero}
    .fil5 {fill:#F7A81A;fill-rule:nonzero}
    .fil0 {fill:#FFEEC1;fill-rule:nonzero}
   ]]>
  </style>
 </defs>
 <g id="Camada_x0020_2">
  <metadata id="CorelCorpID_0Corel-Layer"/>
  <path class="fil0" d="M565.26 944.15l-36.9 590.92 -528.35 154.86 518.1 154.97c0,0 -327.94,555.68 -318.83,528.35 9.11,-27.33 461.15,-337.02 461.15,-337.02l212.95 373.45c0,0 9.11,-437.25 45.55,-437.25 36.44,0 421.5,-38.67 421.5,-38.67l-421.5 -243.72c0,0 374.52,-291.62 347.2,-300.73 -27.33,-9.11 -486.5,85.12 -486.5,85.12l-214.36 -530.28z"/>
  <path class="fil1" d="M625.58 1326.01l-20.25 307.49 -289.93 80.57 284.31 80.63c0,0 -179.97,289.15 -174.97,274.92 5,-14.21 253.06,-175.36 253.06,-175.36l116.87 194.32c0,0 5,-227.53 24.99,-227.53 20,0 231.31,-20.11 231.31,-20.11l-231.31 -126.83c0,0 205.53,-151.74 190.53,-156.48 -14.99,-4.74 -266.97,44.29 -266.97,44.29l-117.63 -275.92z"/>
  <path class="fil2" d="M1718.65 3710.98l-143.27 273.45 -284.46 -38.67 213.67 183.98c0,0 -274.32,194.77 -264.18,183.7 10.16,-11.07 291.23,-62.33 291.23,-62.33l21.93 223.08c0,0 97.35,-206.21 114.7,-198.47 17.34,7.75 208.88,71.27 208.88,71.27l-148.81 -205.7c0,0 240.33,-59.15 229.26,-69.3 -11.07,-10.15 -249.7,-62.98 -249.7,-62.98l10.76 -298.03z"/>
  <path class="fil3" d="M2458.65 0l-143.28 273.45 -284.46 -38.67 213.67 183.98c0,0 -274.33,194.77 -264.18,183.7 10.16,-11.07 291.23,-62.34 291.23,-62.34l21.93 223.08c0,0 97.35,-206.22 114.7,-198.47 17.35,7.75 208.88,71.25 208.88,71.25l-148.81 -205.69c0,0 240.33,-59.15 229.26,-69.3 -11.07,-10.15 -249.7,-62.98 -249.7,-62.98l10.76 -298.03z"/>
  <path class="fil0" d="M4210.74 3270.39l-133.6 -278.32 201.04 -204.94 -275.23 61.34c0,0 7.83,-336.34 10.63,-321.6 2.82,14.76 -124.1,270.74 -124.1,270.74l-191.96 -115.76c0,0 107.14,201.31 90.56,210.58 -16.59,9.28 -181.99,124.87 -181.99,124.87l253.85 3.64c0,0 -96.23,228.03 -81.47,225.23 14.75,-2.81 199.74,-162.55 199.74,-162.55l232.5 186.77z"/>
  <path class="fil4" d="M2847.76 2475.54c38.74,95.38 84.63,197.12 174.58,247.2 14.86,-17.73 9.32,-44.21 2.97,-66.46 -6.59,-23.11 -13.18,-46.22 -19.77,-69.33 42.16,35 92.27,60.35 145.44,73.57 -20.2,-64.33 -49.13,-125.92 -85.73,-182.56 52.32,5.65 105.91,-0.75 155.44,-18.54 -67.97,-47 -137.41,-94.72 -216.63,-118.2 -44.12,-13.07 -91.96,-18.99 -129.36,-45.8l-26.95 180.13z"/>
  <path class="fil5" d="M2304.25 1834.71c56.46,26.14 112.54,53.12 168.18,80.95 64.83,32.42 129.6,66.31 185.74,112.17 56.14,45.84 103.67,104.88 124.63,174.27 17.88,59.17 96.04,78.94 147.89,108.15 61.86,34.82 122.74,71.39 182.55,109.64 -49.68,8.15 -101.51,2.74 -148.44,-15.49 38.79,47.4 72.33,99.09 99.81,153.82 -50.98,-7.08 -92.35,-43.34 -130.41,-77.99 24.42,41.36 40.05,87.88 45.55,135.6 -81.71,-47.06 -129.78,-134.56 -192.84,-204.66 -6,-6.67 -12.31,-13.32 -20.2,-17.6 -10.12,-5.46 -21.93,-6.55 -33.35,-7.73 -235.84,-24.29 -462.43,-130.72 -631.71,-296.73l202.61 -254.4z"/>
  <path class="fil3" d="M1691.19 1659.91c-1.1,2.66 1.22,5.4 3.34,7.34 35.86,32.87 71.74,65.74 107.61,98.6 -19.02,1.58 -38.24,0.64 -57,-2.74 13.34,7.69 115.28,89.65 115.39,98.41 -0.17,-13.74 7.21,-26.31 14.35,-38.06 21.76,-35.83 43.53,-71.65 65.3,-107.49 -62.37,-44.62 -130.67,-50.44 -203.68,-61.06 -13.99,-2.03 -28.91,-3.95 -41.75,1.99 -1.44,0.67 -2.95,1.54 -3.56,3.01z"/>
  <path class="fil5" d="M2013.01 1683.72c-15.5,-5.66 -31.77,-11.17 -48.14,-9.2 -28.77,3.45 -49.52,28.3 -67.16,51.29 -11.42,14.89 -26.19,33.65 -34.5,50.46 -14.6,29.54 -29.45,63.74 -16.89,94.21 5.6,13.59 16.08,24.51 26.53,34.85 51.2,50.77 107.3,96.59 167.2,136.71 59.15,39.6 116.17,85.82 177.32,121.43 2.02,-26.2 -6.02,-53.05 -22.1,-73.83 15.12,6.38 30.23,12.76 45.35,19.15 3.44,1.45 7.46,2.88 10.72,1.06 6.04,-3.35 2.7,-12.55 -1.3,-18.19 -10.34,-14.54 -20.66,-29.07 -31,-43.62 18.02,6.04 38.03,5.96 56,-0.2 4.41,-1.5 9.42,-4.4 9.37,-9.07 -0.03,-2.99 -2.25,-5.47 -4.32,-7.64 -13.77,-14.33 -27.55,-28.67 -41.33,-43 26.87,8.86 59.56,16.71 80.88,-1.89 1.99,-1.73 3.92,-3.93 3.98,-6.57 0.06,-3.09 -2.43,-5.57 -4.73,-7.63 -16.19,-14.51 -32.38,-29.02 -48.58,-43.51 26.81,7.53 57.36,-0.11 77.46,-19.36 -18.97,-14.6 -38.48,-28.51 -58.47,-41.69 26.9,5.07 55.79,-1.49 77.86,-17.68 -118.49,-55.05 -230.96,-121.1 -354.16,-166.08z"/>
  <path class="fil4" d="M2126.44 1606.11c38.41,0.34 76.36,7.67 114.07,14.98 -51.37,-2.44 -103.16,4.43 -152.11,20.18 57.85,0.54 115.55,13.62 167.99,38.06 -49.78,0.42 -99.56,0.83 -149.34,1.24 46.2,10.01 95.52,21.75 127.42,56.63 -32.92,-7.03 -65.84,-14.04 -98.77,-21.07 -30.23,-6.44 -60.65,-12.91 -91.55,-13.83 -46.05,-1.37 -107.82,20.66 -150.34,3.56 28.54,-68.72 167.49,-100.31 232.61,-99.75z"/>
  <path class="fil4" d="M1979.78 1751.26c-18.63,-4.7 -33.06,15.78 -41.35,33.11 -2.97,6.22 -5.99,13.34 -3.45,19.74 1.4,3.51 4.26,6.18 7.04,8.72 14.28,13.07 33.52,27.05 51.18,19.15 8.05,-3.6 13.64,-11.22 17.27,-19.26 6.9,-15.28 7.36,-34.46 -2.71,-47.87 -10.06,-13.41 -32.05,-17.58 -44.07,-5.88l16.08 -7.71z"/>
  <path class="fil2" d="M2095.6 3085.94c75.47,102.49 175.22,186.96 288.74,244.51 25.53,-18.06 47.64,-40.94 64.83,-67.07 4.3,-6.52 8.43,-13.86 7.76,-21.64 -0.74,-8.34 -6.77,-15.12 -12.49,-21.23 -50,-53.36 -100.01,-106.73 -150.02,-160.1 67.43,37.82 134.85,75.64 202.28,113.46 24.97,-33.85 46.9,-69.94 65.45,-107.7 -64.74,-35.03 -118.36,-90.31 -151.4,-156.09 44.45,29.96 90.75,57.18 138.54,81.45 14.25,7.24 31.71,14.16 45.41,5.95 6.66,-3.99 10.98,-10.87 14.89,-17.57 13.25,-22.61 25.05,-46.06 35.32,-70.16 -53.31,-40.76 -100.34,-89.72 -138.91,-144.64 41.18,40.02 93.95,67.98 150.19,79.59 7.62,-30.77 15.23,-61.53 22.86,-92.29 1.86,-7.52 3.73,-15.38 1.94,-22.92 -3.23,-13.6 -16.84,-21.56 -28.55,-29.18 -32.47,-21.16 -58.99,-51.35 -75.77,-86.27 36.68,29.9 76.89,55.47 119.51,76.03 10.33,-36.05 20.65,-72.09 30.98,-108.15 -33.72,-33.34 -59.37,-74.78 -74.18,-119.84 25.76,28.35 57.4,51.33 92.33,67.05 13.31,-31.27 26.63,-62.54 39.95,-93.83 -55.08,-62.64 -103.78,-130.88 -145.12,-203.33 -23.85,94.87 -50.63,194.99 -121.05,262.89l-423.51 591.09z"/>
  <path class="fil5" d="M2185.48 3144.64c96.77,-146.91 189.31,-296.61 277.47,-448.83 44.85,-77.44 88.56,-155.55 131.14,-234.28 29.49,-54.54 89.27,-124.29 67.6,-189.84 -10.71,-32.38 -33.35,-59.19 -55.5,-85.13 -65.43,-76.63 -118.95,-149.36 -208.94,-200.32 -31.29,-17.72 -65.53,-33.47 -101.49,-32.41 -49.34,1.46 -93.47,35.42 -118.45,78 -29.28,49.89 -23.23,109.7 -55.67,155.75 -34.06,48.32 -91.02,70.64 -126.79,116.71 -37.7,48.56 -40.02,114.97 -39.75,176.46 0.48,118.86 4.61,238.59 30.87,354.52 26.25,115.93 75.97,228.78 157.82,314.98 5.38,5.67 11.78,11.6 19.59,11.59 9.75,-0.01 16.73,-9.06 22.09,-17.2z"/>
  <path class="fil3" d="M2037.52 2551.18c20.8,-59.68 35.45,-121.5 43.67,-184.16 3.4,-25.97 -33.98,-35.07 -54.3,-25.99 -20.61,9.21 -23.99,29.4 -27.94,49.77 -10.73,55.31 3.87,116.07 38.57,160.38z"/>
  <path class="fil3" d="M2369.04 2308.62c-16.89,-60.9 -40.06,-120.06 -69,-176.24 -11.99,-23.28 -47.9,-9.48 -59.42,9.56 -11.7,19.31 -2.98,37.83 5.37,56.82 22.69,51.57 69.29,93.21 123.06,109.86z"/>
  <path class="fil3" d="M2548.9 2231.49c-30.57,-55.31 -66.83,-107.47 -108.02,-155.41 -17.07,-19.86 -48.8,1.9 -55.58,23.1 -6.9,21.49 5.88,37.48 18.41,54.02 34.04,44.9 89.03,74.57 145.19,78.29z"/>
  <path class="fil3" d="M2167.53 2685.04c8.66,-62.6 10.87,-126.09 6.6,-189.15 -1.76,-26.13 -40.21,-27.7 -58.34,-14.8 -18.39,13.09 -17.74,33.54 -17.61,54.29 0.36,56.34 26.61,113.04 69.35,149.66z"/>
  <path class="fil3" d="M2324.67 2857.32c-0.74,-63.2 -8,-126.31 -21.6,-188.03 -5.64,-25.58 -43.88,-21.41 -59.9,-5.96 -16.25,15.67 -12.55,35.81 -9.34,56.3 8.73,55.66 43.12,107.83 90.84,137.69z"/>
  <path class="fil3" d="M2370.04 2609.08c-0.74,-63.2 -8,-126.31 -21.6,-188.03 -5.64,-25.58 -43.88,-21.42 -59.9,-5.97 -16.25,15.67 -12.55,35.81 -9.34,56.31 8.73,55.65 43.12,107.82 90.83,137.69z"/>
  <path class="fil3" d="M2537.18 2471.84c-17.65,-60.69 -41.55,-119.56 -71.18,-175.37 -12.28,-23.13 -48.01,-8.88 -59.3,10.29 -11.46,19.46 -2.51,37.86 6.08,56.75 23.32,51.29 70.42,92.34 124.4,108.33z"/>
  <path class="fil3" d="M2145.65 2309.81c-1.04,-2.26 -4.87,-1.33 -5.79,0.97 -0.93,2.31 0.04,4.9 1.03,7.17 16.94,39.34 40.6,75.78 69.63,107.28 5.61,-46.95 5.45,-94.6 -0.49,-141.51 -2.27,-17.98 -5.74,-36.67 -16.84,-51 -3.64,-4.7 -8.36,-8.98 -14.18,-10.2 -6.64,-1.38 -13.35,1.43 -19.55,4.17 -8.46,3.74 -16.91,7.49 -25.38,11.23 -6,2.67 -12.66,6.03 -14.53,12.33 -1.43,4.8 0.42,9.9 2.24,14.57l25.96 66.52 -2.1 -21.53z"/>
  <path class="fil3" d="M2079.48 2821.96c-1.04,-2.26 -4.87,-1.33 -5.79,0.98 -0.93,2.3 0.04,4.88 1.03,7.16 16.95,39.34 40.6,75.78 69.63,107.27 5.61,-46.94 5.45,-94.59 -0.49,-141.51 -2.27,-17.99 -5.74,-36.67 -16.84,-51 -3.64,-4.7 -8.36,-8.98 -14.18,-10.2 -6.64,-1.38 -13.35,1.43 -19.55,4.17 -8.46,3.74 -16.91,7.49 -25.38,11.23 -6,2.67 -12.66,6.03 -14.53,12.33 -1.43,4.8 0.42,9.9 2.25,14.57 8.65,22.18 17.29,44.34 25.95,66.52l-2.1 -21.52z"/>
  <path class="fil2" d="M3157.03 1241.67c126.52,13.77 249.68,57.58 356.47,126.83 -2.79,31.15 -11.46,61.75 -25.42,89.73 -3.49,6.99 -7.74,14.26 -14.82,17.58 -7.57,3.56 -16.46,1.75 -24.61,-0.13 -71.28,-16.43 -142.54,-32.86 -213.81,-49.29 66.57,39.3 133.15,78.61 199.72,117.91 -16.72,38.59 -36.9,75.7 -60.23,110.69 -62.82,-38.37 -137.54,-56.96 -211.02,-52.48 48.23,23.38 95.03,49.73 140.03,78.86 13.4,8.68 28.16,20.31 27.95,36.28 -0.1,7.76 -3.89,14.95 -7.72,21.7 -12.89,22.82 -27.24,44.8 -42.92,65.79 -62.03,-25.62 -127.99,-41.69 -194.84,-47.45 55.29,15.49 105.97,47.07 144.25,89.88 -22.76,22.04 -45.54,44.08 -68.3,66.12 -5.57,5.39 -11.43,10.96 -18.85,13.19 -13.39,4.04 -27.1,-3.72 -39.58,-10.02 -34.59,-17.44 -74.02,-25.2 -112.65,-22.18 44.28,16.7 86.59,38.62 125.77,65.15 -25.98,27.03 -51.96,54.07 -77.93,81.11 -45.78,-12.41 -94.5,-13.76 -140.89,-3.93 37.45,8.03 73.22,23.85 104.36,46.15 -20.35,27.23 -40.7,54.45 -61.05,81.67 -81.83,-16.15 -165.3,-23.98 -248.71,-23.33 70.05,-68.27 143.17,-141.73 166.5,-236.73l298.33 -663.12z"/>
  <path class="fil5" d="M3252.93 1289.9c-78.41,157.47 -161.36,312.69 -248.69,465.39 -44.43,77.7 -90.01,154.73 -136.69,231.09 -32.36,52.9 -62.62,139.63 -130.19,153.82 -33.37,7.02 -67.95,0.9 -101.5,-5.22 -99.12,-18.08 -188.9,-27.82 -278.17,-80.02 -31.05,-18.16 -61.86,-39.85 -79.01,-71.47 -23.52,-43.39 -16.32,-98.63 7.93,-141.62 28.44,-50.37 83.2,-75.19 106.71,-126.37 24.69,-53.72 15.36,-114.19 37.23,-168.26 23.06,-57 79.31,-92.36 132.6,-123.02 103.02,-59.29 208.62,-115.87 322.05,-151.41 113.43,-35.54 235.99,-49.25 351.64,-21.76 7.59,1.8 15.95,4.35 19.85,11.11 4.9,8.44 0.58,19.01 -3.77,27.74z"/>
  <path class="fil3" d="M2665.47 1460.1c-41.16,47.97 -87.24,91.7 -137.3,130.27 -20.75,15.99 -47.39,-11.77 -49.74,-33.89 -2.4,-22.45 13.36,-35.52 28.98,-49.16 42.44,-37.06 102.31,-54.97 158.06,-47.22z"/>
  <path class="fil3" d="M2622.29 1868.61c-61.15,15.98 -123.94,25.67 -187.05,28.88 -26.16,1.32 -32.25,-36.66 -21.59,-56.19 10.82,-19.81 31.21,-21.58 51.83,-23.9 55.99,-6.28 115.39,13.09 156.81,51.21z"/>
  <path class="fil3" d="M2645.94 2062.87c-63.19,1.35 -126.51,-3.79 -188.65,-15.33 -25.75,-4.79 -22.86,-43.14 -7.95,-59.67 15.13,-16.76 35.37,-13.74 55.96,-11.21 55.92,6.87 109.21,39.51 140.64,86.2z"/>
  <path class="fil3" d="M2846.52 1505.27c-49.79,38.93 -103.57,72.75 -160.23,100.73 -23.49,11.59 -44.15,-20.85 -42.11,-43.02 2.07,-22.48 20.09,-32.19 38.09,-42.49 48.9,-27.99 111.11,-33.78 164.26,-15.22z"/>
  <path class="fil3" d="M3074.43 1554.59c-55.01,31.09 -113.23,56.54 -173.44,75.78 -24.94,7.97 -40.56,-27.19 -35.24,-48.8 5.39,-21.92 24.66,-28.85 44,-36.37 52.51,-20.4 114.89,-16.88 164.68,9.38z"/>
  <path class="fil3" d="M2882.58 1718.53c-55.01,31.09 -113.23,56.54 -173.44,75.78 -24.94,7.97 -40.56,-27.19 -35.24,-48.79 5.39,-21.93 24.66,-28.85 44,-36.36 52.51,-20.41 114.89,-16.89 164.68,9.37z"/>
  <path class="fil3" d="M2847.87 1932c-61.34,15.22 -124.24,24.14 -187.4,26.56 -26.17,1 -31.79,-37.06 -20.88,-56.45 11.06,-19.68 31.47,-21.19 52.12,-23.25 56.06,-5.6 115.22,14.51 156.16,53.14z"/>
  <path class="fil3" d="M2511.09 1674.85c-2.47,0.23 -3.59,-3.53 -2.07,-5.49 1.52,-1.95 4.26,-2.42 6.71,-2.71 42.53,-5.11 85.92,-2.96 127.74,6.3 -37.78,28.45 -79.05,52.24 -122.6,70.68 -16.69,7.07 -34.59,13.47 -52.55,11.06 -5.89,-0.79 -11.98,-2.71 -15.95,-7.14 -4.53,-5.04 -5.47,-12.25 -6.21,-18.99 -1.02,-9.19 -2.03,-18.38 -3.04,-27.59 -0.72,-6.52 -1.16,-13.97 3.35,-18.75 3.45,-3.64 8.78,-4.61 13.73,-5.39 23.52,-3.66 47.03,-7.32 70.55,-10.98l-19.67 9z"/>
  <path class="fil3" d="M2920.68 1360.34c-2.47,0.23 -3.59,-3.53 -2.07,-5.48 1.52,-1.97 4.26,-2.43 6.71,-2.72 42.53,-5.1 85.92,-2.96 127.74,6.31 -37.78,28.44 -79.05,52.23 -122.6,70.68 -16.69,7.06 -34.59,13.47 -52.56,11.05 -5.89,-0.79 -11.97,-2.71 -15.95,-7.14 -4.53,-5.04 -5.47,-12.25 -6.21,-18.98 -1.02,-9.2 -2.03,-18.39 -3.03,-27.59 -0.73,-6.53 -1.16,-13.98 3.35,-18.76 3.45,-3.64 8.78,-4.61 13.73,-5.38 23.52,-3.67 47.03,-7.32 70.55,-10.99l-19.67 9z"/>
  <path class="fil6" d="M3622.22 4184.63c-175.75,-1.3 -304.26,-80.46 -259.94,-364.19 -142.87,112.79 -202.17,317.45 -141.79,489.37 -204.97,33.26 -395.74,140.65 -527.89,297.15 204.21,100.67 453.63,105.92 659.64,13.9 -91.17,40.73 61.53,297.59 99.66,325.21 57.19,41.4 126.72,62.18 196.05,75.56 30.27,5.84 73.67,0.91 75.48,-29.86 -76.58,-0.53 -133.08,-82.66 -130.91,-159.23 10.9,-384.48 670.47,-490.64 958.71,-550.75 218.69,-45.61 441.12,-70.89 663.74,-87.28 185.13,-13.63 431.22,-64.08 613.41,-28.3 -391.4,-76.87 -792.64,-103.11 -1190.76,-78.69 -336.74,20.65 -679.9,99.62 -1015.39,97.13z"/>
 </g>
</svg>
