<?xml version="1.0" encoding="UTF-8"?>
<!DOCTYPE svg PUBLIC "-//W3C//DTD SVG 1.1//EN" "http://www.w3.org/Graphics/SVG/1.1/DTD/svg11.dtd">
<!-- Creator: CorelDRAW 2020 (64 Bit) -->
<svg xmlns="http://www.w3.org/2000/svg" xml:space="preserve" width="168.379mm" height="31.5062mm" version="1.1" style="shape-rendering:geometricPrecision; text-rendering:geometricPrecision; image-rendering:optimizeQuality; fill-rule:evenodd; clip-rule:evenodd"
viewBox="0 0 11388 2130.86"
 xmlns:xlink="http://www.w3.org/1999/xlink"
 xmlns:xodm="http://www.corel.com/coreldraw/odm/2003">
 <defs>
  <style type="text/css">
   <![CDATA[
    .fil0 {fill:#004C93;fill-rule:nonzero}
    .fil1 {fill:#FFEEC1;fill-rule:nonzero}
   ]]>
  </style>
 </defs>
 <g id="Camada_x0020_2">
  <metadata id="CorelCorpID_0Corel-Layer"/>
  <path class="fil0" d="M10188.94 2130.86c-1123.71,0 -1123.71,-198.42 -2247.44,-198.42 -1123.71,0 -1123.71,198.42 -2247.42,198.42 -1123.75,0 -1123.75,-198.42 -2247.51,-198.42 -1123.76,0 -1123.76,198.42 -2247.52,198.42 -147.45,0 -245.27,-216.91 -373.47,-264.15 -132.92,-48.99 -374.23,41.09 -474.4,-47.91 -100.16,-89 1.22,-303.42 -53.9,-421.52 -53.16,-113.93 -297.29,-200.85 -297.29,-331.86 0,0 223.3,0 223.3,0 0,0 -223.3,0 -223.3,0 0,0 223.3,0 223.3,0 0,0 -223.3,0 -223.3,0 0,-130.99 244.13,-217.91 297.29,-331.84 55.11,-118.11 -46.27,-332.53 53.9,-421.53 100.16,-88.99 341.5,1.08 474.4,-47.9 128.22,-47.24 226.02,-264.15 373.47,-264.15 1123.71,0 1123.71,198.42 2247.44,198.42 1123.71,0 1123.71,-198.42 2247.42,-198.42 1123.76,0 1123.76,198.42 2247.51,198.42 1123.76,0 1123.76,-198.42 2247.52,-198.42 147.45,0 245.25,216.91 373.47,264.15 132.9,48.98 374.23,-41.09 474.4,47.9 100.16,89 -1.22,303.42 53.9,421.53 53.16,113.93 297.29,200.84 297.29,331.84l-223.3 0c0,0 223.3,0 223.3,0 0,0 -223.3,0 -223.3,0 0,0 223.3,0 223.3,0 0,131.01 -244.13,217.93 -297.29,331.86 -55.11,118.1 46.24,332.52 -53.92,421.52 -100.16,89 -341.48,-1.08 -474.38,47.91 -128.22,47.24 -226.04,264.15 -373.47,264.15z"/>
  <path class="fil1" d="M786.32 646.69l312.32 268.92 272.55 -468.79 -83.68 468.79 352.59 105.79 -372.08 108.82c0,0 247.47,546.12 202.23,492.61 -45.26,-53.52 -323.41,-332.86 -323.41,-332.86l-360.52 303.9 196.13 -346.27 -562.25 -179.28 533.86 -115.5 -167.74 -306.11z"/>
  <path class="fil1" d="M10649.39 646.69l-312.32 268.92 -272.54 -468.79 83.68 468.79 -352.6 105.79 372.09 108.82c0,0 -247.47,546.12 -202.24,492.61 45.26,-53.52 323.41,-332.86 323.41,-332.86l360.52 303.9 -196.12 -346.27 562.25 -179.28 -533.86 -115.5 167.73 -306.11z"/>
 </g>
</svg>
