<?xml version="1.0" encoding="UTF-8"?>
<!DOCTYPE svg PUBLIC "-//W3C//DTD SVG 1.1//EN" "http://www.w3.org/Graphics/SVG/1.1/DTD/svg11.dtd">
<!-- Creator: CorelDRAW 2020 (64 Bit) -->
<svg xmlns="http://www.w3.org/2000/svg" xml:space="preserve" width="146.05mm" height="23.7107mm" version="1.1" style="shape-rendering:geometricPrecision; text-rendering:geometricPrecision; image-rendering:optimizeQuality; fill-rule:evenodd; clip-rule:evenodd"
viewBox="0 0 14596.54 2369.7"
 xmlns:xlink="http://www.w3.org/1999/xlink"
 xmlns:xodm="http://www.corel.com/coreldraw/odm/2003">
 <defs>
  <style type="text/css">
   <![CDATA[
    .fil2 {fill:#004C93;fill-rule:nonzero}
    .fil0 {fill:#B1CF6F;fill-rule:nonzero}
    .fil3 {fill:#F2911D;fill-rule:nonzero}
    .fil1 {fill:#FFEEC1;fill-rule:nonzero}
   ]]>
  </style>
 </defs>
 <g id="Camada_x0020_1">
  <metadata id="CorelCorpID_0Corel-Layer"/>
  <g id="_2605900142288">
   <path class="fil0" d="M-0 0l0 966.17c992.51,343.29 2170.14,667.35 3544.75,919.9 58.06,-57.71 128.02,-97.34 224.04,-97.34 141.13,0 225.99,85.53 299.46,188.39 241.54,39.68 488.88,77.08 741.9,112.01 95.96,-144.13 183.93,-300.4 374.72,-300.4 238.06,0 316.06,243.3 449.23,402.72 155.29,17.18 312.57,33.42 471.87,48.65 163.84,-152.2 231.01,-451.37 494.98,-451.37 335.87,0 353.1,484.4 656.36,533.98 26.3,1.03 52.62,2.08 78.85,2.98 326.93,-26.92 336.08,-536.96 680.72,-536.96 323.65,0 351.45,449.78 624.4,526.87 66.91,-3.33 133.48,-7.21 199.87,-11.36 243.09,-102.12 281.44,-515.51 591.74,-515.51 243.69,0 319.66,254.93 458.78,413.87 190.12,-24.94 377.75,-53.17 562.93,-84.37 104.17,-151.31 190.67,-329.5 394.39,-329.5 144.39,0 229.89,89.51 304.53,195.5 1285.54,-276.9 2439.08,-693.31 3443.02,-1158.44l0 -825.78 -14596.54 0z"/>
   <path class="fil1" d="M-0 0l0 966.17c1664.35,575.68 3849.15,1097.29 6610.68,1318.22 3197.09,255.76 5911.01,-497.31 7985.86,-1458.61l0 -825.78 -14596.54 0z"/>
   <path class="fil2" d="M14179.94 332.41c104.15,-39.95 206.51,-84.34 309.56,-126.97 35.64,-14.98 71.4,-29.69 107.05,-44.66l0 747.11c-53.35,22.18 -106.84,44 -160.78,64.72l-255.83 -640.2z"/>
   <polygon class="fil1" points="14596.54,460.42 14503.06,237.77 14596.54,275.8 "/>
   <polygon class="fil3" points="14596.54,449.56 14506.9,236.16 14422.04,441.95 14378.73,545.19 14334.24,647.23 14437.87,690.87 14541.49,732.8 14596.54,754.7 "/>
   <path class="fil2" d="M13554.6 570.47l313.72 -116.31c52.46,-18.87 104.04,-40.13 155.98,-60.4l155.66 -61.35 255.79 640.21 -161.2 63.56c-53.81,20.98 -107.26,42.95 -161.62,62.54l-324.97 120.48 -233.36 -648.73z"/>
   <path class="fil1" d="M14103.88 1074.84l-223.14 -587.91c67.73,31.3 135.07,60.36 203.08,90.05l205.09 88.11 -91.14 204.91c-30.82,68.33 -61.77,137.54 -93.9,204.84z"/>
   <path class="fil3" d="M14107.89 1073.36l-223.28 -587.88c-60.71,134.25 -122.98,269.15 -186.9,404.65 135.14,61.66 271.87,122.77 410.18,183.23z"/>
   <polygon class="fil2" points="12920.87,784.96 13080.02,733.55 13159.6,707.81 13238.61,680.39 13554.59,570.48 13787.95,1219.18 13460.59,1333.1 13378.72,1361.52 13296.29,1388.18 13131.35,1441.49 "/>
   <path class="fil1" d="M13452.38 1308.93l-202.48 -595.36c132.39,64.97 266.41,129.43 402.04,193.28 -64.91,133.45 -131.4,267.5 -199.55,402.08z"/>
   <path class="fil3" d="M13456.42 1307.53l-202.59 -595.33c-64.55,134.51 -132.39,264.5 -201.07,397.39 132.96,66.63 268.34,135.1 403.67,197.94z"/>
   <polygon class="fil2" points="12280.47,978.26 12361.1,956.06 12441.2,932.11 12601.45,884.23 12761.69,836.36 12920.88,784.95 13131.36,1441.48 12966.4,1494.71 12800.34,1544.36 12634.24,1593.97 12551.21,1618.75 12467.65,1641.81 "/>
   <path class="fil1" d="M12792.96 1519.89l-181.39 -602.12 196.63 105.35c65.79,34.38 131.68,67.73 198.19,101.47 -34.59,66.11 -69.46,132.85 -105,198.81l-108.42 196.49z"/>
   <path class="fil3" d="M12797.06 1518.67l-181.53 -602.09 -105.92 195.75c-35.75,65.26 -71.71,131.33 -108.73,195.3 65.61,36.88 131.01,71.4 197.02,106.48l199.16 104.57z"/>
   <polygon class="fil2" points="11633.51,1148.12 11957.91,1066.75 12280.45,978.25 12467.63,1641.8 12133.28,1733.51 11797.01,1817.88 "/>
   <path class="fil1" d="M12126.81 1708.81l-159.97 -608.16c127.32,73.73 256.36,147.02 387.03,219.83 -74.01,129.01 -149.7,258.43 -227.06,388.33z"/>
   <path class="fil3" d="M12130.92 1707.67l-160.11 -608.12c-74.36,127.64 -150.82,253.96 -228.75,381.67 127.92,75.87 257.77,152.27 388.85,226.45z"/>
   <path class="fil2" d="M10981.1 1295.22l82.01 -16.32c27.28,-5.5 54.4,-12.05 81.62,-18.02l163.14 -36.63c108.77,-24.47 217.74,-48.02 325.63,-76.12l163.53 669.74c-111.91,29.09 -224.87,53.59 -337.62,78.94l-169.16 37.97c-28.24,6.18 -56.31,12.94 -84.65,18.66l-85.01 16.95 -139.48 -675.18z"/>
   <path class="fil1" d="M11453.79 1871.91l-138.21 -613.48c124.82,79.08 251.74,159.55 379.2,234.6 -77.95,128.63 -158.84,252.69 -240.99,378.88z"/>
   <polygon class="fil3" points="11457.96,1870.97 11319.61,1257.52 11200.16,1445.48 11139.45,1539.65 11077.74,1632.3 11172.13,1693.45 11266.76,1752.74 "/>
   <path class="fil2" d="M10323.79 1418.39c109.76,-19.36 219.76,-37.52 329.34,-57.83l327.96 -65.33 139.48 675.18 -340.09 67.73c-113.63,21.09 -227.69,39.95 -341.53,59.98l-115.15 -679.73z"/>
   <path class="fil1" d="M10775.77 2013.04l-116.17 -618.03c121.75,82.61 245.19,164.86 370.39,246.81 -83.03,123.4 -167.75,247.16 -254.21,371.22z"/>
   <path class="fil3" d="M10779.97 2012.2l-116.28 -617.99c-83.2,122.31 -168.56,242.4 -255.43,364.21 122.16,84.83 246.31,170.75 371.71,253.78z"/>
   <path class="fil2" d="M9662.69 1519.04c27.71,-3.11 55.29,-6.95 82.82,-11.21l82.71 -12.23 165.39 -24.44 165.39 -24.44 164.79 -28.34 115.15 679.77 -170.9 29.33 -171.52 25.39 -171.53 25.35 -85.78 12.66c-28.55,4.41 -57.19,8.36 -85.89,11.59l-90.65 -683.42z"/>
   <path class="fil1" d="M10092.72 2127.61l-93.89 -621.8 179.68 132.39c60.29,43.85 120.68,85.71 181.71,128.55 -43.65,60.5 -87.55,122.17 -132.18,181.92l-135.32 178.94z"/>
   <path class="fil3" d="M10096.95 2126.98l-94 -621.76c-87.61,118.71 -176.89,238.37 -268.02,357.05 118.99,89.09 239.61,176.71 362.02,264.71z"/>
   <path class="fil2" d="M8998.19 1593.86c222.19,-18.54 443.15,-48.47 664.5,-74.82l90.65 683.43c-229.56,27.43 -458.73,58.32 -689.17,77.64l-65.97 -686.25z"/>
   <path class="fil1" d="M9406.18 2218.99l-71.43 -624.76c115.5,91.5 232.77,182.81 351.8,273.91 -91.71,116.74 -185.17,233.69 -280.37,350.85z"/>
   <path class="fil3" d="M9410.43 2218.48l-71.58 -624.76c-91.57,117.93 -185.41,230.97 -280.86,345.48 115.82,94.11 233.5,189.34 352.44,279.28z"/>
   <path class="fil2" d="M8331.54 1646.5l333.61 -22.85c27.78,-2.05 55.63,-3.5 83.38,-6l83.2 -7.94 166.45 -15.86 65.97 686.28 -172.59 16.39 -86.31 8.22c-28.8,2.58 -57.65,4.13 -86.49,6.25l-345.94 23.69 -41.29 -688.18z"/>
   <polygon class="fil1" points="8716.79,2285.54 8667.89,1658.59 8752.41,1731.43 8837.45,1802.3 9009.47,1943.85 8864.53,2115.55 8791.09,2201.47 "/>
   <path class="fil3" d="M8721.06 2285.24l-49.04 -626.95c-95.97,111.63 -193.67,223.36 -293.13,335.24 112.29,97.37 226.35,194.62 342.17,291.71z"/>
   <path class="fil2" d="M7663.37 1674.72c27.85,-0.57 55.75,-0.43 83.6,-1.52l83.52 -3.49 167.04 -6.92 167.09 -6.91 83.52 -3.67 83.38 -5.75 41.29 688.22 -86.48 5.89 -86.63 3.81 -173.22 7.2 -173.22 7.2 -86.63 3.56c-28.87,1.13 -57.79,1.02 -86.66,1.62l-16.61 -689.24z"/>
   <polygon class="fil1" points="8025.42,2326.09 7999.01,1697.81 8163.38,1848.36 8246.55,1923.56 8330.25,1996.86 8255.12,2080.56 8179.21,2162.36 "/>
   <path class="fil3" d="M8029.69 2325.91l-26.54 -628.29 -151.11 163.64c-50.81,54.19 -102.04,110 -153.76,162.47 54.4,52.32 109.16,101.26 164.4,151.74l167.01 150.44z"/>
   <path class="fil2" d="M6994.53 1677.95c222.97,5.82 445.9,-0.81 668.83,-3.25l16.6 689.25c-231.11,2.61 -462.25,9.27 -693.33,3.38l7.9 -689.38z"/>
   <path class="fil1" d="M7333.13 2343.31l-3.96 -628.86c105.04,103.34 211.83,206.64 320.35,309.95 -103.73,106.27 -209.18,212.6 -316.4,318.91z"/>
   <path class="fil3" d="M7337.4 2343.25l-4.09 -628.86c-103.69,107.54 -209.15,209.93 -316.33,313.37 105.06,106.16 211.86,213.42 320.41,315.49z"/>
   <path class="fil2" d="M6325.86 1658.62l334.25 13.89c111.45,3.38 222.96,3.49 334.42,5.43l-7.9 689.39c-115.54,-1.98 -231.16,-2.19 -346.62,-5.68l-346.37 -14.35 32.22 -688.68z"/>
   <path class="fil1" d="M6640.73 2336.13l18.34 -628.58c101.29,108.04 204.38,212.89 309.17,319.54 -107.43,102.95 -216.65,207.66 -327.51,309.03z"/>
   <path class="fil3" d="M6645.01 2336.3l18.19 -628.57c-107.36,100.41 -216.41,200.79 -327.22,301.07 101.29,109.12 204.31,218.27 309.03,327.5z"/>
   <polygon class="fil2" points="5658.08,1616.74 5991.86,1640.02 6158.73,1651.68 6325.86,1658.63 6293.66,2347.28 6120.47,2340.05 5947.61,2328.03 5601.88,2303.88 "/>
   <path class="fil1" d="M5949.24 2302.54l40.37 -627.54 147.45 167.89c49.6,55.18 99.7,109.19 150.22,163.88 -55.53,49.99 -111.52,100.62 -167.85,150.05l-170.19 145.72z"/>
   <path class="fil3" d="M5953.51 2302.84l40.23 -627.54c-110.89,97.3 -223.46,194.51 -337.73,291.61 97.45,111.84 196.64,223.85 297.51,335.93z"/>
   <path class="fil2" d="M4992.12 1550.3c27.67,3.39 55.32,7.38 83.02,10.29l83.28 8.19 166.52 16.36 166.51 16.39 83.28 8.22 41.61 4.09 41.75 2.93 -56.24 687.13 -43.19 -3.03 -43.12 -4.24 -86.21 -8.5 -172.44 -16.92 -172.41 -17 -86.2 -8.5c-28.73,-3.03 -57.33,-7.13 -85.96,-10.61l79.79 -684.8z"/>
   <path class="fil1" d="M5259.42 2245.78l62.05 -625.78c93.64,114.26 188.83,229.81 285.89,343.51 -114.37,95.19 -230.3,188.27 -347.95,282.27z"/>
   <path class="fil3" d="M5263.67 2246.2l61.94 -625.78 -172.69 140.99c-57.93,46.65 -116.45,94.71 -175.01,139.34 46.57,59.49 93.93,115.64 141.56,173.29l144.2 172.16z"/>
   <polygon class="fil2" points="4328.67,1460.67 4494.07,1486.59 4660.06,1508.03 4992.12,1550.29 4912.32,2235.11 4568.67,2191.35 4396.86,2169.13 4225.79,2142.37 "/>
   <path class="fil1" d="M4572.04 2166.05l83.38 -623.28c89.73,117.05 181.12,234.35 274.16,351.83 -117.55,90.72 -236.71,181.2 -357.54,271.45z"/>
   <polygon class="fil3" points="4576.28,2166.58 4659.52,1543.27 4482.03,1679.15 4302.68,1810.34 4437.93,1990.47 "/>
   <path class="fil2" d="M3668.33 1349.35l164.61 30.67c54.9,10.26 109.69,20.91 164.93,28.88l330.79 51.75 -102.88 681.75 -342.17 -53.63c-57.16,-8.29 -113.81,-19.22 -170.54,-29.83l-170.19 -31.66 125.45 -677.93z"/>
   <path class="fil1" d="M3887.85 2063.59l104.22 -620.14c85.89,119.49 173.36,239.29 262.46,359.34 -120.62,87.19 -242.86,174.14 -366.68,260.8z"/>
   <path class="fil3" d="M3892.07 2064.25l104.08 -620.17c-30.11,21.68 -60.43,43.89 -90.68,65.04l-90.97 63.01 -183.72 125.69 129.29 184.01 65.51 92.13c21.97,30.56 44.24,60.15 66.49,90.29z"/>
   <path class="fil2" d="M3011.7 1216.71l327.47 70.83c109.55,21.47 219.44,41.15 329.16,61.8l-125.45 677.93c-113.42,-21.37 -227.02,-41.75 -340.26,-63.95l-338.33 -73.13 147.41 -673.48z"/>
   <path class="fil1" d="M3207.67 1938.28l124.53 -616.4c81.83,122.91 165.53,244.34 250.64,367.03 -123.48,83.38 -248.75,167.44 -375.17,249.38z"/>
   <path class="fil3" d="M3211.84 1939.18l124.42 -616.4c-122.94,80.6 -247.4,160.92 -373.4,240.91 81.44,124.85 164.43,250.02 248.99,375.49z"/>
   <polygon class="fil2" points="2359.36,1063.17 2684.78,1143.42 2766.13,1163.48 2847.95,1181.32 3011.69,1216.72 2864.28,1890.21 2695.15,1853.61 2610.6,1835.13 2526.62,1814.47 2190.65,1731.65 "/>
   <path class="fil1" d="M2532.46 1789.6l144.28 -612.07 58.39 95.36c19.6,31.66 39.53,62.3 59.41,93.55l120.69 186.93 -190.53 119.66c-31.91,19.75 -64.06,40.06 -96.08,59.31l-96.14 57.26z"/>
   <path class="fil3" d="M2536.6 1790.62l144.14 -612.11c-125.55,76.97 -252.62,153.58 -381.2,229.85 77.53,127.03 156.54,254.48 237.06,382.26z"/>
   <path class="fil2" d="M1711.87 889.26l323.09 89.59c53.91,14.67 107.54,30.46 161.7,44.21l162.71 40.09 -168.7 668.48 -167.97 -41.43c-55.88,-14.24 -111.2,-30.46 -166.83,-45.59l-333.33 -92.44 189.34 -662.92z"/>
   <path class="fil1" d="M1862.49 1619.94l163.39 -607.27c36.81,64.48 73.86,129.56 111.52,193.81l114.83 190.21 -194.31 113.99c-64.9,36.98 -129.91,72.91 -195.43,109.26z"/>
   <path class="fil3" d="M1866.6 1621.08l163.25 -607.27c-128.03,73.23 -257.49,146.11 -388.43,218.55 73.62,129.19 148.68,258.76 225.19,388.71z"/>
   <path class="fil2" d="M1069.7 695.57l320.52 98.82 160.29 49.43c53.45,16.29 107.61,30.22 161.34,45.45l-189.3 662.91c-55.46,-15.69 -111.31,-30.11 -166.44,-46.89l-165.22 -50.91 -330.39 -101.89 209.21 -656.92z"/>
   <path class="fil1" d="M1198.29 1429.92l181.82 -601.98 105.63 197.09c35.4,66.32 72.14,129.33 108.7,194.34 -65.44,35.75 -131.79,73.27 -197.52,107.29l-198.63 103.27z"/>
   <path class="fil3" d="M1202.35 1431.18l181.72 -602.02c-130.31,69.49 -262,138.56 -395.13,207.2 69.74,131.16 140.89,262.78 213.41,394.82z"/>
   <path class="fil2" d="M433.32 482.69l317.75 107.93c106.02,35.64 211.37,73.41 318.66,104.96l-209.22 656.92c-110.61,-32.62 -219.09,-71.4 -328.28,-108.11l-327.22 -111.17 228.32 -650.53z"/>
   <path class="fil1" d="M540.32 1220.19l199.62 -596.34 99.82 199.97c16.81,33.25 33.56,67.1 50.73,99.92l51.9 98.26 -100.27 51.33c-33.46,16.96 -66.67,32.86 -100.16,49.33l-201.64 97.52z"/>
   <path class="fil3" d="M544.35 1221.56l199.51 -596.38c-132.38,65.72 -266.16,130.98 -401.23,195.79 65.9,133.06 133.13,266.62 201.71,400.6z"/>
   <path class="fil2" d="M-0 324.47l117.81 43.76 157.32 58.5c26.26,9.62 52.35,19.75 78.76,28.98l79.43 26.97 -228.33 650.53 -81.83 -27.82c-27.18,-9.51 -54.02,-19.88 -81.05,-29.82l-42.12 -15.65 0 -735.45z"/>
   <polygon class="fil1" points="-0,689.14 105.73,401.16 199.79,603.82 247.54,705.43 296.51,805.27 194.83,853.55 93.39,899.7 -0,941.63 "/>
   <path class="fil3" d="M-0 701.35l109.62 -298.75c-36.44,16.79 -72.99,33.54 -109.62,50.27l0 248.48z"/>
  </g>
 </g>
</svg>
