<?xml version="1.0" encoding="UTF-8"?>
<!DOCTYPE svg PUBLIC "-//W3C//DTD SVG 1.1//EN" "http://www.w3.org/Graphics/SVG/1.1/DTD/svg11.dtd">
<!-- Creator: CorelDRAW 2020 (64 Bit) -->
<svg xmlns="http://www.w3.org/2000/svg" xml:space="preserve" width="677.333mm" height="137.137mm" version="1.1" style="shape-rendering:geometricPrecision; text-rendering:geometricPrecision; image-rendering:optimizeQuality; fill-rule:evenodd; clip-rule:evenodd"
viewBox="0 0 67733.34 13713.75"
 xmlns:xlink="http://www.w3.org/1999/xlink"
 xmlns:xodm="http://www.corel.com/coreldraw/odm/2003">
 <defs>
  <style type="text/css">
   <![CDATA[
    .fil2 {fill:#004C93;fill-rule:nonzero}
    .fil0 {fill:#B1CF6F;fill-rule:nonzero}
    .fil3 {fill:#F2911D;fill-rule:nonzero}
    .fil1 {fill:#FFEEC1;fill-rule:nonzero}
   ]]>
  </style>
 </defs>
 <g id="Camada_x0020_1">
  <metadata id="CorelCorpID_0Corel-Layer"/>
  <g id="_1707488103280">
   <path class="fil0" d="M-0 0l0 2887.83c768.38,660.3 10375.63,8565.23 31847.23,10282.95 19652.29,1572.19 32917.27,-8527.98 35886.11,-11039.18l0 -2131.6 -67733.34 0z"/>
   <path class="fil1" d="M-0 0l0 2887.83c768.38,660.3 10375.63,8565.23 31847.23,10282.95 19652.29,1572.19 32917.27,-8527.98 35886.11,-11039.18l0 -2131.6 -67733.34 0z"/>
   <path class="fil2" d="M66293.69 1127.23c487.67,-356.85 968.59,-721.98 1439.65,-1096.46l0 2551c-81.8,60.59 -163.76,120.92 -245.88,181.01l-1193.77 -1635.55z"/>
   <path class="fil1" d="M67733.34 1400.58l-593.35 -777.23c197.95,28.15 394.86,53.14 593.35,77.74l0 699.49z"/>
   <path class="fil3" d="M67733.34 1380.19l-583.69 -764.15c-28.4,214.39 -57.26,430.67 -88.8,646.26l-99.52 647.77 652.54 91.86c39.82,5.31 79.64,10.53 119.47,15.67l0 -637.41z"/>
   <path class="fil2" d="M64686.91 2250.87c542.96,-364.81 1078.33,-740.02 1606.8,-1123.63l1193.76 1635.55c-550.86,399.98 -1107.86,790.29 -1671.99,1169.32l-1128.57 -1681.24z"/>
   <path class="fil1" d="M66613.4 3293.76l-1058.72 -1513.38c428.41,78.28 856.79,147.25 1291.17,214.27 -72.04,430.71 -147.78,866.53 -232.45,1299.11z"/>
   <path class="fil3" d="M66623.71 3286.55l-1059.07 -1513.13c-73.38,428.94 -155.15,855.91 -241.34,1286.01 430.07,80.54 864.73,158.22 1300.41,227.12z"/>
   <path class="fil2" d="M63036.34 3313.87c279.96,-169.82 554,-348.68 830.51,-523.8 138.67,-86.96 273.82,-179.07 410.95,-268.32 136.24,-90.42 274.11,-178.65 409.12,-270.87l1128.53 1681.2c-140.37,95.81 -283.31,187.47 -424.88,281.38 -142.31,92.71 -282.86,188.31 -426.65,278.55 -286.81,181.79 -571.4,367.31 -861.63,543.45l-1065.95 -1721.59z"/>
   <path class="fil1" d="M64923.29 4428.97l-1000.66 -1552.4c424.57,93.1 850.69,178.97 1282.24,263.25 -89.04,427.28 -181.68,859.04 -281.58,1289.15z"/>
   <polygon class="fil3" points="64933.87,4422.22 63932.87,2870.07 63792.11,3507.25 63719.26,3827.47 63642.88,4145.75 63964.51,4218.67 64286,4287.6 "/>
   <path class="fil2" d="M61347.74 4317.86l426.12 -244.44c141.89,-81.77 281.73,-166.93 422.67,-250.22l421.78 -251.67 418.04 -257.67 1065.95 1721.59 -433.53 267.19 -437.19 260.92c-146.12,86.36 -291.15,174.59 -438.12,259.36l-441.57 253.29 -1004.15 -1758.35z"/>
   <polygon class="fil1" points="63193.24,5499.12 62249.17,3911.69 62883.64,4071.28 63521,4220.86 63362.25,4861.05 "/>
   <polygon class="fil3" points="63204.02,5492.7 62259.6,3905.48 62096.97,4539.07 61924.18,5170.5 62562.57,5336.56 "/>
   <path class="fil2" d="M59624.45 5262.41c288.89,-154.38 580.32,-304.17 865.82,-464.75 286.56,-158.65 574.57,-314.75 857.46,-479.78l1004.15 1758.35c-293.23,170.92 -591.47,332.77 -888.37,497.06 -295.84,166.3 -597.57,321.59 -896.86,481.44l-942.2 -1792.32z"/>
   <path class="fil1" d="M61427.47 6507.55l-887.73 -1619.64c415.99,120.86 838.73,243.48 1260.3,353.8 -116.91,424.67 -243.7,842.01 -372.57,1265.84z"/>
   <path class="fil3" d="M61438.46 6501.48l-888.09 -1619.43c-119.34,420.16 -248.07,833.72 -379.62,1252.47 418.78,125.8 843.49,252.16 1267.71,366.96z"/>
   <path class="fil2" d="M57869 6146.35c294.21,-144.08 590.76,-283.5 881.59,-434.34 291.46,-149.55 585.72,-293.73 873.87,-449.62l942.19 1792.32c-298.52,161.36 -603.14,310.87 -905.05,465.67 -301.27,156.1 -608.26,300.67 -912.99,449.83l-879.61 -1823.86z"/>
   <polygon class="fil1" points="59627.86,7453.4 58796.9,5803.95 59418.17,6006.2 59731.3,6106.07 60044.28,6201.56 59944.02,6515.89 59840.31,6827.53 "/>
   <path class="fil3" d="M59639.06 7447.72l-831.32 -1649.28c-133.85,416 -276.83,824.76 -422.91,1238.43 414.26,140.51 834.39,281.59 1254.23,410.85z"/>
   <path class="fil2" d="M56083.96 6968.99l449.72 -198.05c149.54,-66.82 297.5,-137.2 446.34,-205.57 297.14,-137.93 595.41,-273.51 888.96,-419.03l879.65 1823.86c-304.06,150.61 -612.88,291.12 -920.64,433.92 -154.13,70.84 -307.38,143.62 -462.25,212.83l-465.7 205.21 -816.08 -1853.17z"/>
   <path class="fil1" d="M57796.58 8336.02l-773.46 -1677.21c406.86,149.79 820.24,301.77 1232.92,440.62 -145.84,415.96 -301.38,823.14 -459.46,1236.59z"/>
   <polygon class="fil3" points="57807.97,8330.75 57034.16,6653.72 56806.61,7267.72 56568.77,7877.01 57186.73,8109.31 "/>
   <path class="fil2" d="M54271.95 7730.11c305.9,-117.29 606.53,-247.68 909.22,-372.88 150.99,-63.47 302.68,-125.31 453.1,-190.11l449.69 -198.12 816.08 1853.14 -465.77 205.1c-155.79,67.14 -312.85,131.27 -469.23,196.99 -313.52,129.76 -624.95,264.55 -941.74,386.23l-751.35 -1880.35z"/>
   <polygon class="fil1" points="55936,9155.09 55221.02,7452.13 55827.7,7698.93 56437.79,7934.73 56192.04,8547.47 "/>
   <polygon class="fil3" points="55947.58,9150.26 55232.25,7447.47 54983.05,8051.85 54855.8,8355.06 54725.13,8654.74 55029.47,8782.91 55333.81,8906.13 "/>
   <path class="fil2" d="M52435.27 8429.31l921.35 -341.63c154.13,-55.42 305.62,-117.86 458.23,-177.34l457.09 -180.23 751.38 1880.34 -473.5 186.65c-158.08,61.63 -314.99,126.19 -474.62,183.69l-954.51 353.88 -685.42 -1905.36z"/>
   <path class="fil1" d="M54048.57 9910.68l-655.39 -1726.74c198.9,91.94 396.66,177.31 596.44,264.44l602.37 258.87 -267.65 601.81c-90.53,200.69 -181.4,404 -275.77,601.62z"/>
   <path class="fil3" d="M54060.34 9906.32l-655.78 -1726.6c-178.29,394.33 -361.24,790.5 -548.96,1188.4 396.88,181.12 798.48,360.58 1204.74,538.2z"/>
   <polygon class="fil2" points="50573.99,9059.27 51041.46,8908.28 51275.18,8832.71 51507.23,8752.14 52435.29,8429.31 53120.7,10334.67 52159.2,10669.2 51918.75,10752.6 51676.6,10830.99 51192.2,10987.48 "/>
   <path class="fil1" d="M52135.06 10598.21l-594.67 -1748.61c388.83,190.89 782.46,380.15 1180.81,567.72 -190.64,391.97 -386,785.64 -586.14,1180.89z"/>
   <path class="fil3" d="M52146.92 10594.09l-595.06 -1748.47c-189.52,395.01 -388.77,776.78 -590.52,1167.17 390.49,195.65 788.18,396.73 1185.58,581.3z"/>
   <polygon class="fil2" points="48693.1,9627.03 48929.88,9561.84 49165.18,9491.49 49635.82,9350.84 50106.5,9210.26 50574,9059.27 51192.17,10987.48 50707.74,11143.83 50219.95,11289.63 49732.17,11435.37 49488.26,11508.18 49242.87,11575.84 "/>
   <path class="fil1" d="M50198.33 11217.82l-532.8 -1768.44 577.57 309.35c193.22,101.04 386.78,199 582.01,298.06 -101.6,194.17 -203.94,390.21 -308.33,583.96l-318.45 577.07z"/>
   <path class="fil3" d="M50210.36 11214.23l-533.19 -1768.34 -311.04 574.89c-104.99,191.66 -210.65,385.73 -319.37,573.54 192.72,108.34 384.77,209.73 578.66,312.78l584.94 307.13z"/>
   <polygon class="fil2" points="46792.98,10125.92 47745.76,9886.94 48693.11,9627.02 49242.88,11575.87 48260.85,11845.18 47273.18,12093.04 "/>
   <path class="fil1" d="M48241.79 11772.67l-469.87 -1786.19c373.98,216.54 752.94,431.8 1136.79,645.69 -217.38,378.85 -439.7,759.04 -666.92,1140.5z"/>
   <path class="fil3" d="M48253.9 11769.35l-470.25 -1786.08c-218.34,374.83 -442.95,745.88 -671.83,1120.95 375.7,222.82 757.09,447.22 1142.08,665.13z"/>
   <path class="fil2" d="M44876.81 10557.95l240.8 -47.94c80.26,-16.12 159.85,-35.38 239.79,-52.92l479.17 -107.63c319.44,-71.79 639.48,-141 956.42,-223.55l480.17 1967.12c-328.58,85.41 -660.37,157.37 -991.56,231.81l-496.85 111.51c-82.9,18.21 -165.42,38.07 -248.6,54.82l-249.7 49.82 -409.64 -1983.04z"/>
   <path class="fil1" d="M46265.11 12251.69l-405.91 -1801.81c366.58,232.23 739.39,468.59 1113.72,689.01 -229.02,377.82 -466.51,742.14 -707.81,1112.8z"/>
   <polygon class="fil3" points="46277.37,12248.94 45871.04,10447.23 45520.16,10999.26 45341.9,11275.9 45160.68,11547.97 45437.83,11727.57 45715.78,11901.77 "/>
   <path class="fil2" d="M42946.25 10919.69c322.41,-56.87 645.45,-110.14 967.32,-169.79l963.23 -191.95 409.64 1983.03 -998.85 198.93c-333.77,61.92 -668.76,117.34 -1003.09,176.22l-338.25 -1996.44z"/>
   <path class="fil1" d="M44273.75 12666.22l-341.17 -1815.18c357.5,242.6 720.09,484.25 1087.71,724.88 -243.76,362.45 -492.61,725.92 -746.54,1090.3z"/>
   <path class="fil3" d="M44286.06 12663.77l-341.56 -1815.11c-244.33,359.23 -495.09,712.01 -750.21,1069.72 358.81,249.14 723.44,501.48 1091.77,745.39z"/>
   <path class="fil2" d="M41004.59 11215.3c81.35,-9.13 162.42,-20.35 243.28,-32.91l242.88 -35.91 485.78 -71.83 485.77 -71.72 483.94 -83.25 338.25 1996.44 -501.9 86.22 -503.77 74.5 -503.8 74.44 -251.92 37.22c-83.89,12.98 -167.95,24.59 -252.3,34.11l-266.21 -2007.31z"/>
   <path class="fil1" d="M42267.62 13002.7l-275.74 -1826.26 527.65 388.8c177.1,128.83 354.55,251.77 533.76,377.61 -128.17,177.73 -257.11,358.77 -388.2,534.32l-397.47 525.53z"/>
   <path class="fil3" d="M42280.03 13000.86l-276.12 -1826.18c-257.28,348.68 -519.43,700.19 -787.18,1048.73 349.53,261.66 703.72,518.97 1063.3,777.45z"/>
   <path class="fil2" d="M39052.9 11435.06c652.6,-54.43 1301.57,-142.42 1951.7,-219.74l266.21 2007.3c-674.23,80.5 -1347.33,171.27 -2024.13,228.04l-193.78 -2015.6z"/>
   <path class="fil1" d="M40251.19 13271.13l-209.8 -1835.01c339.27,268.78 683.65,537.03 1033.22,804.58 -269.31,342.86 -543.81,686.36 -823.42,1030.43z"/>
   <path class="fil3" d="M40263.66 13269.61l-210.22 -1834.94c-268.89,346.36 -544.51,678.39 -824.9,1014.73 340.15,276.4 685.87,556.09 1035.12,820.21z"/>
   <path class="fil2" d="M37094.92 11589.64l979.84 -67.09c81.64,-5.97 163.38,-10.27 244.9,-17.61l244.41 -23.32 488.84 -46.56 193.78 2015.59 -506.98 48.23 -253.5 24.09c-84.53,7.59 -169.3,12.14 -253.93,18.35l-1016.14 69.56 -121.22 -2021.24z"/>
   <polygon class="fil1" points="38226.43,13466.54 38082.78,11625.18 38331.03,11839.14 38580.76,12047.24 39086.01,12462.96 38660.31,12967.29 38444.59,13219.7 "/>
   <path class="fil3" d="M38238.96 13465.68l-144.08 -1841.33c-281.83,327.77 -568.82,655.99 -860.95,984.54 329.85,285.96 664.88,571.6 1005.03,856.79z"/>
   <path class="fil2" d="M35132.48 11672.54c81.84,-1.62 163.72,-1.23 245.5,-4.45l245.35 -10.23 490.65 -20.35 490.67 -20.32 245.33 -10.73 244.93 -16.82 121.25 2021.27 -254.04 17.32 -254.35 11.22 -508.81 21.13 -508.78 21.06 -254.38 10.48c-84.81,3.35 -169.69,3.04 -254.53,4.73l-48.79 -2024.31z"/>
   <polygon class="fil1" points="36195.83,13585.66 36118.32,11740.32 36601.03,12182.49 36845.26,12403.44 37091.14,12618.7 36870.44,12864.48 36647.49,13104.79 "/>
   <path class="fil3" d="M36208.38 13585.14l-77.93 -1845.31 -443.83 480.56c-149.26,159.2 -299.69,323.14 -451.66,477.16 159.8,153.71 320.64,297.43 482.88,445.77l490.54 441.82z"/>
   <path class="fil2" d="M33168.06 11682.03c654.89,17.07 1309.61,-2.36 1964.4,-9.49l48.79 2024.31c-678.81,7.69 -1357.7,27.27 -2036.44,9.95l23.25 -2024.77z"/>
   <path class="fil1" d="M34162.54 13636.23l-11.58 -1846.93c308.47,303.46 622.09,606.92 940.86,910.27 -304.62,312.14 -614.39,624.42 -929.28,936.66z"/>
   <path class="fil3" d="M34175.09 13636.05l-12 -1846.9c-304.55,315.81 -614.29,616.52 -929.07,920.26 308.57,311.86 622.26,626.89 941.07,926.64z"/>
   <path class="fil2" d="M31204.15 11625.26l981.67 40.82c327.31,9.91 654.83,10.27 982.24,15.95l-23.25 2024.76c-339.33,-5.85 -678.85,-6.45 -1018.04,-16.72l-1017.24 -42.12 94.62 -2022.69z"/>
   <path class="fil1" d="M32128.95 13615.12l53.87 -1846.15c297.49,317.32 600.28,625.26 908.05,938.53 -315.53,302.33 -636.34,609.88 -961.92,907.62z"/>
   <path class="fil3" d="M32141.49 13615.64l53.48 -1846.19c-315.31,294.92 -635.67,589.74 -961.11,884.34 297.5,320.43 600.04,641.07 907.63,961.85z"/>
   <polygon class="fil2" points="29242.84,11502.28 30223.14,11570.61 30713.32,11604.9 31204.14,11625.26 31109.53,13647.94 30600.93,13626.67 30093.17,13591.32 29077.74,13520.41 "/>
   <path class="fil1" d="M30098 13516.5l118.54 -1843.16 433.07 493.11c145.73,162.03 292.91,320.75 441.25,481.4 -163.09,146.83 -327.52,295.45 -493.04,440.62l-499.82 428.03z"/>
   <path class="fil3" d="M30110.52 13517.37l118.15 -1843.16c-325.65,285.82 -656.31,571.33 -991.98,856.48 286.28,328.54 577.57,657.47 873.83,986.68z"/>
   <path class="fil2" d="M27286.86 11307.13c81.32,9.95 162.46,21.63 243.91,30.2l244.55 24.02 489.09 48.09 489.09 48.15 244.51 24.1 122.27 12.06 122.56 8.54 -165.1 2018.14 -126.93 -8.89 -126.61 -12.46 -253.23 -24.87 -506.41 -49.78 -506.41 -49.88 -253.19 -24.98c-84.35,-8.89 -168.31,-20.88 -252.45,-31.15l234.35 -2011.29z"/>
   <path class="fil1" d="M28071.97 13349.8l182.28 -1837.94c274.99,335.6 554.6,674.9 839.68,1008.87 -335.99,279.58 -676.38,553.02 -1021.96,829.07z"/>
   <path class="fil3" d="M28084.45 13351.02l181.89 -1837.97 -507.12 414.09c-170.18,137.02 -342.05,278.17 -514.03,409.33 136.77,174.63 275.84,339.59 415.71,508.88l423.55 505.67z"/>
   <polygon class="fil2" points="25338.31,11043.89 25824.09,11120.05 26311.59,11182.92 27286.84,11307.13 27052.49,13318.42 26043.16,13189.94 25538.62,13124.71 25036.12,13046.11 "/>
   <path class="fil1" d="M26053.09 13115.59l244.86 -1830.64c263.57,343.82 531.99,688.34 805.26,1033.43 -345.2,266.35 -695.26,532.13 -1050.12,797.21z"/>
   <polygon class="fil3" points="26065.53,13117.18 26310.01,11286.47 25788.71,11685.57 25261.94,12070.84 25659.2,12599.93 "/>
   <path class="fil2" d="M23398.84 10716.92l483.52 90.1c161.15,30.13 322.16,61.38 484.4,84.74l971.55 152.12 -302.19 2002.22 -1004.96 -157.44c-167.85,-24.31 -334.26,-56.52 -500.87,-87.6l-499.89 -93.06 368.44 -1991.08z"/>
   <path class="fil1" d="M24043.58 12814.7l306.11 -1821.43c252.2,351.01 509.13,702.84 770.85,1055.41 -354.26,256.11 -713.24,511.49 -1076.96,766.02z"/>
   <path class="fil3" d="M24055.97 12816.64l305.72 -1821.47c-88.48,63.65 -177.52,128.91 -266.35,191.07l-267.19 185.03 -539.65 369.18 379.73 540.35 192.48 270.65c64.52,89.82 129.89,176.64 195.26,265.19z"/>
   <path class="fil2" d="M21470.27 10327.33l961.78 208.03c321.77,63.08 644.56,120.83 966.79,181.58l-368.44 1991.07c-333.1,-62.76 -666.82,-122.62 -999.39,-187.85l-993.67 -214.77 432.93 -1978.06z"/>
   <path class="fil1" d="M22045.87 12446.64l365.79 -1810.39c240.24,361 486.17,717.59 736.14,1077.98 -362.65,244.87 -730.56,491.78 -1101.93,732.41z"/>
   <path class="fil3" d="M22058.12 12449.28l365.44 -1810.45c-361.03,236.78 -726.65,472.68 -1096.75,707.6 239.25,366.68 482.99,734.31 731.31,1102.85z"/>
   <polygon class="fil2" points="19554.33,9876.4 20510.08,10112.09 20749.01,10171.04 20989.36,10223.39 21470.27,10327.32 21037.34,12305.38 20540.52,12197.92 20292.24,12143.74 20045.54,12082.95 19058.82,11839.71 "/>
   <path class="fil1" d="M20062.76 12009.96l423.68 -1797.68 171.56 280.07c57.54,93.03 116.06,183.06 174.48,274.81l354.44 549.03 -559.61 351.37c-93.74,58.07 -188.18,117.69 -282.12,174.24l-282.43 168.16z"/>
   <path class="fil3" d="M20074.92 12012.96l423.37 -1797.79c-368.83,226.06 -742.03,451.1 -1119.65,675.04 227.68,373.17 459.78,747.47 696.28,1122.75z"/>
   <path class="fil2" d="M17652.61 9365.64l948.94 263.1c158.36,43.11 315.88,89.46 474.87,129.93l477.91 117.72 -495.51 1963.35 -493.32 -121.71c-164.12,-41.8 -326.61,-89.46 -489.98,-133.95l-978.95 -271.39 556.04 -1947.05z"/>
   <path class="fil1" d="M18095.01 11511.67l479.81 -1783.54c108.17,189.34 217,380.48 327.63,569.14l337.22 558.7 -570.72 334.78c-190.61,108.59 -381.53,214.14 -573.94,320.92z"/>
   <path class="fil3" d="M18107.08 11515.02l479.46 -1783.64c-375.99,215.16 -756.32,429.19 -1140.88,641.98 216.21,379.38 436.66,759.96 661.42,1141.66z"/>
   <path class="fil2" d="M15766.56 8796.73l941.43 290.23 470.67 145.2c157.06,47.87 316.06,88.76 473.96,133.49l-556.05 1947.02c-162.88,-46.15 -326.92,-88.48 -488.84,-137.8l-485.21 -149.5 -970.39 -299.23 614.43 -1929.41z"/>
   <path class="fil1" d="M16144.21 10953.56l534.03 -1768.05 310.2 578.84c103.96,194.8 211.88,379.87 319.3,570.79 -192.23,104.99 -387.14,215.2 -580.11,315.07l-583.42 303.35z"/>
   <path class="fil3" d="M16156.17 10957.25l533.68 -1768.16c-382.69,204.09 -769.51,406.97 -1160.46,608.55 204.82,385.26 413.74,771.84 626.78,1159.61z"/>
   <path class="fil2" d="M13897.48 8171.51l933.2 317.01c311.37,104.67 620.82,215.55 935.89,308.22l-614.43 1929.41c-324.84,-95.78 -643.47,-209.69 -964.22,-317.46l-961.07 -326.57 670.63 -1910.61z"/>
   <path class="fil1" d="M14211.73 10337.58l586.28 -1751.44 293.16 587.27c49.46,97.68 98.67,197.06 149.08,293.51l152.37 288.57 -294.47 150.78c-98.28,49.81 -195.82,96.56 -294.18,144.85l-592.24 286.46z"/>
   <path class="fil3" d="M14223.58 10341.6l585.96 -1751.54c-388.83,192.97 -781.65,384.67 -1178.42,574.96 193.54,390.84 391.02,783.06 592.46,1176.58z"/>
   <path class="fil2" d="M12046.49 7491.98l924.28 343.4 462.1 171.76c77.12,28.3 153.77,58.04 231.32,85.16l233.29 79.2 -670.63 1910.61 -240.28 -81.67c-79.83,-27.94 -158.68,-58.45 -238.05,-87.56l-475.58 -176.67 -951.06 -353.44 724.61 -1890.79z"/>
   <polygon class="fil1" points="12298.79,9665.82 12935.3,7932.02 13211.56,8527.26 13351.86,8825.68 13495.62,9118.94 13197.03,9260.69 12899.07,9396.26 "/>
   <path class="fil3" d="M12310.52 9670.18l636.2 -1733.94c-394.41,181.82 -792.62,362.27 -1194.65,541.27 182.35,396.13 368.48,793.71 558.45,1192.67z"/>
   <polygon class="fil2" points="10214.53,6760.23 11129.25,7129.56 11586.55,7314.27 11815.4,7406.17 12046.51,7491.96 11321.86,9382.78 11084.13,9294.38 10848.79,9199.97 10378.57,9010.14 9438.21,8630.38 "/>
   <path class="fil1" d="M10406.39 8940.5l684.7 -1715.34 259.61 602.82 131.87 302.23c44.35,100.36 90,198.12 135.29,297.42l-302.33 133.04 -301.69 127.14 -607.45 252.69z"/>
   <path class="fil3" d="M10417.98 8945.19l684.39 -1715.49c-399.41,170.67 -802.53,339.9 -1209.28,507.61 171.31,401.14 346.28,803.81 524.89,1207.88z"/>
   <path class="fil2" d="M8402.37 5978.46l904.56 394.72c302.15,130 601.1,267.93 907.59,387.07l-776.32 1870.14c-315.17,-122.69 -622.13,-264.05 -932.54,-397.61l-929.07 -405.49 825.78 -1848.83z"/>
   <polygon class="fil1" points="8535.33,8163.91 9266.18,6467.72 9509.35,7077.64 9633,7383.32 9760.39,7683.71 9454.21,7809.06 9149.2,7928.01 "/>
   <path class="fil3" d="M8546.79 8168.91l730.57 -1696.33c-403.93,159.56 -811.39,317.64 -1222.34,474.13 160.44,405.88 324.34,813.3 491.77,1222.2z"/>
   <path class="fil2" d="M6610.61 5148.91l893.8 419.59 446.9 209.84c74.11,35.73 149.36,69 224.93,101.45l226.13 98.68 -825.78 1848.83 -232.27 -101.38c-77.61,-33.41 -154.87,-67.56 -230.93,-104.21l-458.61 -215.23 -917.23 -430.57 873.06 -1827z"/>
   <path class="fil1" d="M6686.23 7338.41l774.98 -1676.5c149.96,409.71 301.24,825.35 462.63,1227.56 -413.03,159.66 -822.68,302.89 -1237.61,448.94z"/>
   <path class="fil3" d="M6697.54 7343.72l774.74 -1676.61c-407.96,148.52 -819.26,295.52 -1233.84,440.94 149.71,410.35 302.71,822.25 459.1,1235.67z"/>
   <polygon class="fil2" points="4839.64,4273.89 5722.18,4717.72 6163.69,4939.16 6610.62,5148.92 5737.57,6975.92 5278.99,6760.59 4826.3,6533.65 3921.5,6078.67 "/>
   <polygon class="fil1" points="4859.48,6466.38 5676.65,4810.05 5887.69,5432.99 6108.88,6047.24 5483.86,6263.5 "/>
   <path class="fil3" d="M4870.64 6471.99l816.93 -1656.47c-411.48,137.62 -826.1,273.69 -1243.89,408.13 139.17,414.55 281.48,830.65 426.96,1248.34z"/>
   <path class="fil2" d="M3089.7 3355.72l870.83 467.43 217.66 116.87c72.5,39.13 146.83,74.55 220.14,112.01l441.32 221.86 -918.17 1804.78 -452.37 -227.54c-75.14,-38.42 -151.34,-74.83 -225.6,-114.83l-222.99 -119.66 -891.97 -478.69 961.15 -1782.23z"/>
   <path class="fil1" d="M3055.32 5550.21l857.43 -1635.87c127,421.85 264.97,829.56 403.05,1245.03 -417.62,133.03 -841.7,270.51 -1260.48,390.84z"/>
   <path class="fil3" d="M3066.32 5556.11l857.18 -1636.01c-414.51,126.86 -832.02,252.13 -1252.5,375.82 128.77,418.46 260.53,838.55 395.32,1260.19z"/>
   <path class="fil2" d="M1360.84 2396.69l858.66 490.4c288.92,158.4 580.21,312.24 870.2,468.63l-961.15 1782.23c-296.97,-160.16 -595.34,-317.89 -891.11,-480.09l-878.7 -501.65 1002.1 -1759.52z"/>
   <path class="fil1" d="M1273.79 4592.28l895.78 -1615.19c120.96,417.61 247.29,832.3 375.32,1251.12 -420.65,122.84 -845.68,246.52 -1271.1,364.07z"/>
   <path class="fil3" d="M1284.63 4598.47l895.57 -1615.3c-417.09,116.24 -837.04,230.93 -1259.81,343.99 118.57,422.17 239.96,845.96 364.24,1271.31z"/>
   <polygon class="fil2" points="-0,1609.31 76.07,1655.39 287.6,1783.55 502.12,1906.43 1360.82,2396.68 358.72,4156.23 -0,3951.37 "/>
   <path class="fil1" d="M-0 2765.22l450.14 -769.94c112.5,418.64 227.83,838.97 345.94,1260.9 -264.25,70.44 -529.62,140.25 -796.08,209.43l0 -700.39z"/>
   <polygon class="fil3" points="-0,2789.7 460.77,2001.33 142.84,2085.68 -0,2121.3 "/>
  </g>
 </g>
</svg>
