<?xml version="1.0" encoding="UTF-8"?>
<!DOCTYPE svg PUBLIC "-//W3C//DTD SVG 1.1//EN" "http://www.w3.org/Graphics/SVG/1.1/DTD/svg11.dtd">
<!-- Creator: CorelDRAW 2020 (64 Bit) -->
<svg xmlns="http://www.w3.org/2000/svg" xml:space="preserve" width="677.333mm" height="32.3512mm" version="1.1" style="shape-rendering:geometricPrecision; text-rendering:geometricPrecision; image-rendering:optimizeQuality; fill-rule:evenodd; clip-rule:evenodd"
viewBox="0 0 67733.34 3235.12"
 xmlns:xlink="http://www.w3.org/1999/xlink"
 xmlns:xodm="http://www.corel.com/coreldraw/odm/2003">
 <defs>
  <style type="text/css">
   <![CDATA[
    .fil2 {fill:#97CC87}
    .fil7 {fill:#DE202A}
    .fil5 {fill:#F15B87}
    .fil9 {fill:#F5921C}
    .fil3 {fill:#2C5629;fill-rule:nonzero}
    .fil8 {fill:#6E160C;fill-rule:nonzero}
    .fil1 {fill:#97CC87;fill-rule:nonzero}
    .fil6 {fill:#DE202A;fill-rule:nonzero}
    .fil4 {fill:#F15B87;fill-rule:nonzero}
    .fil0 {fill:#F5921C;fill-rule:nonzero}
   ]]>
  </style>
 </defs>
 <g id="Camada_x0020_1">
  <metadata id="CorelCorpID_0Corel-Layer"/>
  <path class="fil0" d="M33831.39 3212.32c-9597.53,-7227.71 -18394.15,0 -18394.15,0 10.41,7.84 20.79,14.99 31.2,22.8l18334.51 0c18.52,-14.69 28.44,-22.8 28.44,-22.8z"/>
  <path class="fil1" d="M30082.52 3212.32c-5824.71,-4386.47 -11163.34,0 -11163.34,0 10.41,7.84 20.79,15.01 31.2,22.8l11103.5 0c18.43,-14.47 28.64,-22.8 28.64,-22.8z"/>
  <path class="fil2" d="M29936.73 2434.3c72.81,40.75 143.08,85.98 214.17,129.76 70.77,44.3 142.27,87.41 212.51,132.6 104.39,69.29 248.53,37.01 321.91,-72.03 73.38,-109.05 44.63,-255.94 -64.24,-328.12 -72.78,-46.85 -146.93,-91.65 -220.34,-137.55 -73.73,-45.4 -146.62,-92.22 -222.22,-134.62 -113.24,-65.47 -257.17,-25.61 -321.45,89.01l0 0c-64.31,114.65 -28.65,258.34 79.66,320.95z"/>
  <path class="fil2" d="M28750.73 1820.63l227.15 104.1c75.75,34.61 149.55,73.55 224.41,110.1 56.12,27.91 118.95,29.35 175.79,9.53 56.16,-18.66 106.5,-59.16 137.05,-117.34 30.51,-58.2 35.21,-123.22 17.53,-181.57 -18.27,-57.22 -59.16,-107.28 -117.61,-136.35 -77.93,-38.1 -154.73,-78.49 -233.65,-114.62l-236.75 -108.51c-59.05,-27.91 -124.6,-25.86 -180.76,-2.79 -56.23,23.11 -103.36,67.81 -128.91,128.38 -25.5,60.53 -24.83,125.37 -3.77,180.9 21.1,55.63 62.9,101.35 119.52,128.17z"/>
  <path class="fil2" d="M27502.76 1353.39c79.3,24.98 159,48.76 237.98,74.69l235.76 81.7c59.34,19.75 121.15,15.52 174.84,-10.02 53.59,-25.58 98.88,-71.97 122.31,-133.35l0 0c23.46,-61.38 20.32,-126.29 -4.38,-181.86 -24.62,-55.56 -70.59,-102.27 -132.68,-122.98l-246.38 -85.37c-82.58,-27.13 -165.91,-52.03 -248.85,-78.14 -124.98,-40.46 -256.89,36.83 -291.64,162.7 -35.24,127.5 34.54,254.11 153.04,292.63z"/>
  <path class="fil2" d="M26207.24 1049.28l245.39 43.32 244.06 50.59c61.27,12.1 122.13,-0.85 171.94,-32.7 49.88,-32.21 88.86,-84 104.25,-147.85l0 0c15.41,-63.89 4.02,-127.88 -27.63,-179.85 -31.5,-52.31 -83.36,-91.97 -147.6,-104.7l-255.62 -52.99 -257.11 -45.37c-129.61,-21.94 -250.01,70.56 -267.86,200.06 -18.1,130.88 67.52,248.71 190.18,269.49z"/>
  <path class="fil2" d="M24883.29 920.58c83.12,0.88 165.99,6.74 248.96,10.87l124.42 6.59 124.15 10.27c62.23,5.18 120.89,-16.69 166.16,-56.16 45.15,-39.16 76.83,-94.72 83.64,-160.31l0 0c6.77,-65.15 -12.95,-127.95 -51.29,-174.66 -38.32,-46.39 -95.08,-77.85 -160.38,-83.29l-130.1 -10.72 -130.35 -6.95c-86.93,-4.34 -173.78,-10.37 -260.81,-11.36 -131.41,-2.96 -238.3,100.36 -238.8,232.83 -0.46,130.39 99.98,240.14 224.4,242.89z"/>
  <path class="fil2" d="M23553.08 966.96l248.5 -21.7c82.87,-6.42 165.91,-10.37 248.85,-15.69 124.32,-7.17 222.5,-114.73 219.07,-246.81l0 0c-3.35,-130.7 -112.67,-236.01 -243.84,-228.49 -86.78,5.54 -173.7,9.73 -260.38,16.44l-259.86 22.68c-130.45,14.82 -222.85,132.57 -206.37,262.96 16.51,130.39 130.24,224.72 254.03,210.61z"/>
  <path class="fil2" d="M22237.87 1183.06l244.2 -52.63 245.21 -47.03c122.8,-21.73 206.38,-142.45 186.2,-272.66 -20.07,-129.54 -141.54,-218.58 -270.72,-195.72l-255.87 49.07 -254.64 54.89c-127.53,30.38 -204.75,158.36 -172.54,285.79 32.21,127.42 156.74,207.29 278.16,178.29z"/>
  <path class="fil2" d="M20955.75 1554.96c78.49,-28.26 157.51,-54.9 236.82,-80.65 78.95,-26.77 158.64,-51.26 238.37,-75.63 119.13,-37.79 188.35,-165.88 152.64,-293.09l0 0c-35.31,-125.87 -166.93,-201.58 -291.78,-162.07 -82.94,25.33 -165.84,50.87 -247.97,78.67 -82.48,26.81 -164.64,54.51 -246.2,83.86 -123.75,42.65 -185,180.72 -138.71,303.42l0 0c46.46,123.26 178.61,186.2 296.83,145.49z"/>
  <path class="fil2" d="M19720.77 2066.64c75.22,-36.27 150.85,-71.58 226.98,-105.8 75.71,-35.25 152.51,-67.91 228.95,-101.43 114.87,-49.56 168.98,-186.12 119.45,-308.29 -49.21,-121.42 -187.6,-180.62 -307.69,-128.83 -79.34,34.75 -159.03,68.68 -237.59,105.23 -78.99,35.53 -157.48,72.14 -235.48,109.78 -118.22,55.78 -164.4,199.57 -105.45,316.41l0 0c59.44,117.83 197.63,166.34 310.83,112.93z"/>
  <path class="fil2" d="M18546.51 2706.18c142.13,-87.35 285.96,-172.01 431.38,-254.03 109.36,-60.82 148.23,-203.41 86.46,-318.98 -62.16,-116.24 -205.42,-159.5 -319.65,-95.92 -150.92,85.09 -300.25,173 -447.96,263.8 -111.37,68.72 -142.59,215.83 -71.12,326.08l0 0c71.51,110.31 214.49,144.7 320.89,79.05z"/>
  <polygon class="fil2" points="31128.38,3202.14 31128.02,3202.38 31127.92,3202.45 31127.35,3202.91 31126.57,3203.48 31125,3204.68 31121.55,3207.18 31121.01,3207.57 31120.4,3208.03 31116.72,3210.74 31105.2,3219.25 31093.53,3228.21 31085.31,3235.12 31843.63,3235.12 31879.8,3204.51 31880.1,3204.24 31648.05,3024.26 31409.62,2844.81 31267.55,3035.73 31189.34,3140.86 31164.73,3173.91 31150.22,3193.42 31134.23,3214.87 31130.64,3219.7 31125.77,3226.27 31125.66,3226.41 31125.55,3226.58 31125.56,3226.54 31125.52,3226.58 31125.82,3224.13 31125.84,3223.97 31125.85,3223.83 31125.86,3223.8 31125.88,3223.62 31125.9,3223.44 31125.92,3223.24 31125.95,3223.05 31125.96,3222.97 31125.97,3222.84 31126,3222.62 31126.02,3222.4 31126.05,3222.16 31126.06,3222.14 31126.08,3221.92 31126.15,3221.33 31126.17,3221.12 "/>
  <polygon class="fil2" points="31102.1,3209.04 31117.37,3220.52 31117.98,3220.99 31119.17,3221.89 31121.96,3223.99 31123.71,3225.31 31124.35,3225.77 31124.73,3226.07 31124.93,3226.22 31125.02,3226.3 31125.38,3226.57 31127.59,3209.17 31127.6,3209.15 31127.75,3207.88 31127.76,3207.88 31127.81,3207.52 31127.83,3207.31 31127.85,3207.19 31127.86,3207.04 31127.92,3206.62 31127.93,3206.54 31127.95,3206.38 31127.96,3206.31 31127.98,3206.16 31127.99,3206.08 31128.01,3205.96 31128.02,3205.87 31128.03,3205.79 31128.04,3205.66 31128.05,3205.63 31128.07,3205.5 31128.07,3205.46 31128.08,3205.38 31128.11,3205.19 31128.12,3205.12 31128.12,3205.09 31128.13,3205.05 31128.14,3205 31128.31,3203.67 31128.32,3203.67 31128.37,3203.25 31128.38,3203.25 31128.39,3203.12 31128.42,3202.84 31128.44,3202.74 31128.44,3202.71 31128.46,3202.57 31128.48,3202.45 31128.48,3202.43 31128.5,3202.29 31128.52,3202.14 31128.52,3202.12 31128.55,3202.18 31128.62,3202.24 31130.35,3204.57 31133.64,3209 31137.23,3213.81 31153.1,3235.12 31843.63,3235.12 31880.09,3204.26 31879.66,3203.92 31871.65,3197.71 31839.72,3172.95 31800.78,3142.73 31700.19,3064.73 31655.21,3029.84 31610.38,2995.93 31453.08,2877.53 31384.68,2826.06 31373,2817.66 31360.33,2809.27 31347.53,2801.51 31334.55,2794.38 31321.42,2787.85 31308.23,2781.93 31294.96,2776.6 31288.3,2774.2 31281.49,2772.09 31267.91,2768.31 31254.32,2765.14 31240.78,2762.56 31227.27,2760.58 31213.86,2759.21 31200.56,2758.47 31187.37,2758.29 31174.35,2758.71 31161.47,2759.77 31148.84,2761.4 31136.43,2763.62 31124.22,2766.41 31112.33,2769.83 31100.72,2773.81 31089.44,2778.4 31078.46,2783.55 31067.88,2789.3 31057.69,2795.65 31047.88,2802.53 31038.53,2810.04 31029.64,2818.09 31021.21,2826.73 31013.31,2835.9 31005.9,2845.67 30999.12,2855.91 30993.06,2866.38 30987.66,2877.18 30983,2888.22 30978.98,2899.51 30975.66,2910.97 30972.98,2922.65 30971.01,2934.47 30969.63,2946.43 30968.96,2958.49 30968.89,2970.66 30969.46,2982.87 30970.62,2995.15 30972.45,3007.42 30974.85,3019.74 30977.89,3031.98 30981.52,3044.18 30985.72,3056.35 30990.52,3068.38 30995.91,3080.31 31001.88,3092.13 31008.4,3103.77 31015.49,3115.2 31023.15,3126.45 31031.26,3137.63 31039.76,3148.71 31048.83,3159.58 31058.43,3170.12 31068.59,3180.35 31079.24,3190.27 31090.39,3199.83 "/>
  <path class="fil2" d="M17797.37 3210.54l6.96 -5.13 11.68 -8.97 11.11 -9.34 10.62 -9.71 10.12 -10.01 9.67 -10.27 9.13 -10.55 8.61 -10.83 8.08 -11.08 7.52 -11.28 6.98 -11.5 6.42 -11.72 5.93 -11.82 5.36 -11.88 4.83 -12.07 4.24 -12.13 3.63 -12.21 3.07 -12.28 2.43 -12.27 1.87 -12.32 1.24 -12.31 0.63 -12.24 0 -12.21 -0.63 -12.1 -1.24 -11.95 -1.87 -11.82 -2.54 -11.68 -3.21 -11.5 -3.88 -11.32 -4.55 -11.08 -5.25 -10.87 -5.97 -10.55 -6.66 -10.3 0 0 -7.31 -9.84 -7.83 -9.28 -8.32 -8.71 -8.82 -8.15 -9.28 -7.62 -9.7 -6.98 -10.16 -6.46 -10.55 -5.86 -10.9 -5.29 -11.22 -4.62 -11.57 -4.06 -11.85 -3.45 -12.14 -2.86 -12.38 -2.26 -12.63 -1.66 -12.84 -1.06 -13.06 -0.45 -13.15 0.17 -13.34 0.74 -13.44 1.34 -13.48 2.01 -13.54 2.72 -13.55 3.28 -13.58 3.92 -13.58 4.55 -13.52 5.11 -13.47 5.75 -13.37 6.39 -13.2 7.13 -13.05 7.72 -12.87 8.36 -7.6 5.36 -24.66 18.2 -33.6 25.11 -74.62 56.7 -5.29 4.03 -58.15 45.56 -14.02 11.14 -50.43 40.99 -18.92 15.6 -43.46 36.79 -73.08 61.83 -61.74 52.25 -30.86 26.1 -0.89 0.75 -6.8 5.78 -0.42 0.38 18.95 14.73 708.01 0 2.89 -3.89 13.66 -18.34 2.31 -3.1 3.61 -4.84 3.27 -4.4 1.6 -2.16 0.13 -0.17 0.1 -0.14 0 0.02 0.02 -0.03 -0.17 1.41 -0.02 0.14 -0.01 0.14 -0.02 0.15 0 0.02 -0.02 0.13 -0.01 0.15 -0.02 0.15 -0.02 0.17 -0.02 0.16 -0.02 0.13 0 0.04 -0.02 0.18 -0.02 0.18 -0.02 0.2 -2.48 20.98 -0.01 0.13 -24.71 12.59zm32.72 -18.52l8.23 -6.06z"/>
  <polygon class="fil2" points="17807.43,3215.61 17792.21,3204.15 17791.56,3203.66 17787.57,3200.66 17786.57,3199.91 17786.49,3199.85 17785.6,3199.18 17784.85,3198.61 17784.49,3198.36 17784.23,3198.15 17784.13,3198.09 17782.41,3211.66 17782.37,3211.91 17782.23,3213.09 17782.2,3213.27 17782.12,3213.89 17782.12,3213.95 17782.07,3214.35 17782.05,3214.46 17782.02,3214.74 17781.98,3215 17781.97,3215.12 17781.93,3215.48 17781.92,3215.5 17781.88,3215.82 17781.86,3215.96 17781.84,3216.15 17781.81,3216.38 17781.8,3216.47 17781.76,3216.77 17781.73,3217.06 17781.72,3217.13 17781.69,3217.34 17781.68,3217.46 17781.66,3217.61 17781.64,3217.76 17781.62,3217.87 17781.61,3218.03 17781.59,3218.11 17781.57,3218.27 17781.56,3218.35 17781.55,3218.49 17781.53,3218.57 17781.52,3218.69 17781.5,3218.79 17781.5,3218.86 17781.48,3219 17781.48,3219.02 17781.46,3219.15 17781.45,3219.2 17781.45,3219.27 17781.43,3219.35 17781.43,3219.37 17781.43,3219.39 17781.42,3219.46 17781.41,3219.53 17781.4,3219.57 17781.4,3219.6 17781.39,3219.65 17781.39,3219.66 17781.38,3219.73 17781.38,3219.75 17781.38,3219.78 17781.03,3222.53 17781.03,3222.53 17781.01,3222.51 17781.01,3222.53 17780.97,3222.46 17780.89,3222.38 17779.19,3220.06 17775.9,3215.65 17772.28,3210.81 17756.32,3189.37 17717.19,3136.84 17717.18,3136.84 17523.24,2876.53 17496.72,2840.93 17436.29,2886.36 17376.04,2932.65 17315.86,2979.99 17253.63,3030.69 17029.43,3220.37 17029.88,3220.73 17037.88,3226.94 17039.79,3228.42 17048.43,3235.12 17831.09,3235.12 17830.29,3234.38 17819.11,3224.82 17807.56,3215.71 "/>
  <path class="fil3" d="M15437.23 3212.32c-6197.81,-4667.44 -12060.65,-3306.62 -15437.23,-1756.92l0 1779.72 15408.79 0c18.52,-14.69 28.44,-22.8 28.44,-22.8z"/>
  <path class="fil4" d="M11688.35 3212.32c-5824.71,-4386.47 -11163.33,0 -11163.33,0 10.41,7.84 20.79,15.01 31.2,22.8l11103.49 0c18.43,-14.47 28.64,-22.8 28.64,-22.8z"/>
  <path class="fil5" d="M11542.56 2434.3c72.81,40.75 143.09,85.97 214.17,129.75 70.77,44.31 142.28,87.42 212.51,132.61 104.39,69.29 248.54,37.01 321.91,-72.04l0 0c73.38,-109.04 44.63,-255.94 -64.24,-328.11 -72.78,-46.85 -146.93,-91.66 -220.34,-137.55 -73.73,-45.41 -146.62,-92.22 -222.22,-134.62 -113.24,-65.48 -257.17,-25.61 -321.45,89 -64.31,114.66 -28.64,258.34 79.66,320.96z"/>
  <path class="fil5" d="M10356.56 1820.62l227.16 104.11c75.74,34.6 149.54,73.55 224.4,110.1 56.12,27.9 118.95,29.35 175.79,9.52 56.16,-18.66 106.5,-59.16 137.05,-117.33l0 0c30.52,-58.21 35.21,-123.23 17.53,-181.57 -18.27,-57.23 -59.16,-107.28 -117.61,-136.35 -77.93,-38.1 -154.73,-78.5 -233.65,-114.62l-236.75 -108.52c-59.05,-27.9 -124.6,-25.85 -180.76,-2.78 -56.23,23.1 -103.36,67.8 -128.9,128.37l0 0c-25.51,60.54 -24.84,125.38 -3.78,180.91 21.13,55.63 62.9,101.35 119.52,128.16z"/>
  <path class="fil5" d="M9108.59 1353.39c79.3,24.98 159,48.75 237.98,74.68l235.76 81.71c59.34,19.75 121.15,15.52 174.81,-10.02 53.62,-25.58 98.92,-71.97 122.34,-133.35l0 0c23.46,-61.39 20.32,-126.3 -4.37,-181.86 -24.63,-55.56 -70.6,-102.27 -132.68,-122.98l-246.38 -85.37c-82.59,-27.13 -165.92,-52.04 -248.85,-78.14 -124.99,-40.46 -256.9,36.83 -291.65,162.7 -35.24,127.49 34.54,254.11 153.04,292.63z"/>
  <path class="fil5" d="M7813.07 1049.28l245.39 43.32 244.05 50.59c61.28,12.1 122.14,-0.85 171.95,-32.71 49.88,-32.2 88.86,-83.99 104.24,-147.85l0 0c15.42,-63.88 4.02,-127.88 -27.62,-179.84 -31.5,-52.32 -83.36,-91.97 -147.6,-104.71l-255.62 -52.98 -257.11 -45.37c-129.61,-21.94 -250.01,70.56 -267.86,200.06 -18.07,130.88 67.52,248.71 190.18,269.49z"/>
  <path class="fil5" d="M6489.13 920.58c83.11,0.88 165.98,6.73 248.95,10.86l124.43 6.6 124.14 10.27c62.23,5.18 120.9,-16.69 166.16,-56.17 45.15,-39.16 76.83,-94.72 83.64,-160.3l0 0c6.77,-65.16 -12.95,-127.95 -51.29,-174.66 -38.31,-46.39 -95.08,-77.86 -160.38,-83.29l-130.1 -10.72 -130.35 -6.95c-86.93,-4.34 -173.78,-10.38 -260.81,-11.36 -131.41,-2.97 -238.3,100.36 -238.8,232.83 -0.45,130.39 99.98,240.14 224.41,242.89z"/>
  <path class="fil5" d="M5158.91 966.96l248.5 -21.7c82.87,-6.42 165.91,-10.37 248.85,-15.7 124.32,-7.16 222.5,-114.72 219.08,-246.8l0 0c-3.36,-130.71 -112.72,-236.01 -243.84,-228.5 -86.79,5.54 -173.71,9.74 -260.39,16.44l-259.86 22.69c-130.45,14.81 -222.85,132.57 -206.37,262.96 16.51,130.38 130.24,224.72 254.03,210.61z"/>
  <path class="fil5" d="M3843.71 1183.06l244.19 -52.64 245.21 -47.02c122.81,-21.73 206.38,-142.45 186.2,-272.66 -20.07,-129.54 -141.53,-218.59 -270.72,-195.73l-255.87 49.08 -254.64 54.89c-127.52,30.37 -204.75,158.36 -172.54,285.78l0 0c32.21,127.43 156.74,207.3 278.17,178.3z"/>
  <path class="fil5" d="M2561.58 1554.95c78.49,-28.26 157.51,-54.89 236.82,-80.64 78.95,-26.78 158.64,-51.26 238.37,-75.64 119.13,-37.78 188.35,-165.87 152.65,-293.09l0 0c-35.32,-125.87 -166.94,-201.57 -291.79,-162.06 -82.93,25.33 -165.84,50.87 -247.96,78.67 -82.48,26.81 -164.65,54.5 -246.21,83.85 -123.75,42.65 -184.99,180.73 -138.71,303.43l0 0c46.46,123.26 178.61,186.19 296.83,145.48z"/>
  <path class="fil5" d="M1326.6 2066.63c75.21,-36.26 150.85,-71.58 226.98,-105.8 75.7,-35.24 152.5,-67.91 228.95,-101.42 114.9,-49.57 168.98,-186.13 119.45,-308.29l0 0c-49.21,-121.43 -187.61,-180.62 -307.69,-128.84 -79.34,34.75 -159.03,68.69 -237.6,105.24 -78.98,35.52 -157.48,72.14 -235.48,109.78 -118.21,55.81 -164.39,199.57 -105.44,316.41l0 0c59.44,117.83 197.62,166.33 310.83,112.92z"/>
  <path class="fil5" d="M152.34 2706.18c142.13,-87.35 285.96,-172.02 431.37,-254.04 109.4,-60.82 148.24,-203.41 86.47,-318.98l0 0c-62.16,-116.24 -205.39,-159.49 -319.65,-95.92 -117.82,66.43 -234.67,134.57 -350.53,204.47l0 495.09c51.73,7.76 105.57,-1.76 152.34,-30.62z"/>
  <polygon class="fil5" points="13015.44,2844.82 12873.38,3035.73 12844.59,3074.41 12795.15,3140.86 12769.64,3175.14 12756.05,3193.42 12740.08,3214.87 12736.47,3219.7 12731.6,3226.26 12731.45,3226.45 12731.43,3226.47 12731.37,3226.58 12731.36,3226.58 12731.4,3226.29 12731.42,3226.15 12731.43,3226.01 12731.45,3225.87 12731.46,3225.73 12731.47,3225.64 12731.48,3225.59 12731.49,3225.46 12731.51,3225.32 12731.53,3225.18 12731.54,3225.04 12731.56,3224.9 12731.57,3224.75 12731.58,3224.72 12731.59,3224.6 12731.61,3224.45 12731.63,3224.3 12734.19,3202.14 12733.76,3202.45 12733.61,3202.57 12733.17,3202.91 12732.11,3203.69 12730.83,3204.67 12728,3206.72 12726.22,3208.03 12711.04,3219.24 12711,3219.27 12699.36,3228.2 12691.14,3235.12 13449.47,3235.12 13449.48,3235.12 13477.8,3211.16 13485.49,3204.64 13485.93,3204.23 13253.9,3024.26 "/>
  <path class="fil5" d="M12736.13 3204.52l0.03 0.05 3.31 4.43 19.46 26.12 690.55 0 36.46 -30.85 -0.45 -0.35 -8.01 -6.21 -31.93 -24.77 -41.62 -32.29 -97.92 -75.92 -44.98 -34.89 -43.42 -32.87 -177.91 -133.9 -49.16 -36.98 -11.71 -8.43 -12.63 -8.4 -12.84 -7.76 -12.98 -7.12 -13.13 -6.53 -13.19 -5.93 -13.26 -5.32 -6.67 -2.4 -6.81 -2.12 -13.58 -3.77 -13.58 -3.18 -13.55 -2.57 -13.51 -1.98 -13.41 -1.37 -13.3 -0.75 -13.19 -0.17 -13.02 0.42 -12.84 1.06 -12.67 1.62 -12.41 2.22 -12.21 2.79 -11.89 3.42 -11.6 3.99 -11.29 4.59 -10.97 5.15 -10.59 5.75 -10.19 6.35 -9.81 6.88 -9.35 7.51 -8.89 8.04 -8.43 8.65 -7.9 9.17 -7.41 9.77 -6.77 10.23 -6.07 10.48 -5.4 10.79 -4.66 11.05 -4.02 11.28 -3.31 11.47 -2.68 11.68 -1.98 11.82 -1.34 11.95 -0.71 12.07 -0.07 12.17 0.57 12.21 1.16 12.27 1.84 12.28 2.39 12.31 3.04 12.24 3.63 12.21 4.2 12.17 4.8 12.03 5.4 11.92 5.96 11.82 6.52 11.61 7.09 11.46 7.66 11.26 8.11 11.18 8.51 11.08 9.06 10.86 9.6 10.55 10.16 10.23 10.65 9.91 11.18 9.56 11.68 9.21 15.25 11.49 0.63 0.47 3.98 3 1.98 1.48 0.4 0.3 0.59 0.44 0.11 0.09 0.36 0.26 2.21 -17.39 0.01 -0.02 0.03 -0.32 0.02 -0.14 0.02 -0.19 0.08 -0.62 0.01 0 0.03 -0.29 0.01 -0.07 0.03 -0.21 0.01 -0.12 0.02 -0.15 0.02 -0.15 0.01 -0.1 0.02 -0.17 0.02 -0.08 0.02 -0.16 0.01 -0.07 0.01 -0.15 0.02 -0.08 0.01 -0.12 0.02 -0.09 0 -0.09 0.02 -0.12 0 -0.03 0.02 -0.13 0.01 -0.04 0 -0.08 0.02 -0.11 0.01 -0.08 0.01 -0.08 0.01 -0.02 0 -0.04 0.02 -0.14 0.04 -0.29 0.01 -0.05 0 -0.01 0.01 -0.06 0.01 -0.07 0 -0.02 0.01 -0.07 0.01 -0.08 0 -0.02 0.02 -0.12 0 -0.02 0.01 -0.11 0.01 -0.03 0.01 -0.12 0.01 -0.03 0.02 -0.14 0 -0.01 0.02 -0.13 0 -0.06 0.02 -0.08 0.01 -0.14 0.01 0 0.02 -0.24 0.01 -0.03 0.1 -0.86 0.02 0.02 -26.44 6.89zm26.54 -6.79l1.66 2.28z"/>
  <path class="fil4" d="M67733.34 1439.1c-8404.44,-4060.71 -15507.76,1773.22 -15507.76,1773.22 10.41,7.84 20.79,14.99 31.2,22.8l15476.56 0 0 -1796.02z"/>
  <path class="fil6" d="M66870.86 3212.32c-5824.71,-4386.47 -11163.34,0 -11163.34,0 10.41,7.84 20.79,15.01 31.2,22.8l11103.5 0c18.43,-14.47 28.64,-22.8 28.64,-22.8z"/>
  <path class="fil7" d="M66725.06 2434.3c72.81,40.75 143.09,85.98 214.17,129.76 70.77,44.3 142.28,87.41 212.52,132.6 104.38,69.29 248.53,37.01 321.91,-72.03 73.37,-109.05 44.62,-255.94 -64.25,-328.12 -72.77,-46.85 -146.93,-91.65 -220.34,-137.55 -73.73,-45.4 -146.58,-92.22 -222.22,-134.62 -113.24,-65.47 -257.17,-25.61 -321.45,89.01 -64.31,114.65 -28.64,258.34 79.66,320.95z"/>
  <path class="fil7" d="M65539.07 1820.63l227.15 104.1c75.74,34.61 149.54,73.55 224.4,110.1 56.13,27.91 118.96,29.35 175.79,9.53 56.16,-18.66 106.51,-59.16 137.06,-117.34 30.51,-58.2 35.2,-123.22 17.53,-181.57 -18.27,-57.22 -59.16,-107.28 -117.62,-136.35 -77.93,-38.1 -154.72,-78.49 -233.64,-114.62l-236.75 -108.51c-59.06,-27.91 -124.6,-25.86 -180.76,-2.79 -56.24,23.11 -103.37,67.81 -128.91,128.38l0 0c-25.5,60.53 -24.83,125.37 -3.77,180.9 21.09,55.63 62.9,101.35 119.52,128.17z"/>
  <path class="fil7" d="M64291.1 1353.39c79.3,24.98 158.99,48.76 237.98,74.69l235.76 81.7c59.34,19.75 121.14,15.52 174.84,-10.02 53.58,-25.58 98.88,-71.97 122.34,-133.35l0 0c23.42,-61.38 20.29,-126.29 -4.41,-181.86 -24.62,-55.56 -70.59,-102.27 -132.68,-122.98l-246.38 -85.37c-82.58,-27.13 -165.91,-52.03 -248.85,-78.14 -124.99,-40.46 -256.89,36.83 -291.64,162.7 -35.24,127.5 34.54,254.11 153.04,292.63z"/>
  <path class="fil7" d="M62995.58 1049.28l245.39 43.32 244.05 50.59c61.28,12.1 122.13,-0.85 171.98,-32.7 49.85,-32.21 88.83,-84 104.21,-147.85l0 0c15.42,-63.89 4.02,-127.88 -27.62,-179.85 -31.51,-52.31 -83.37,-91.97 -147.61,-104.7l-255.62 -52.99 -257.1 -45.37c-129.61,-21.94 -250.02,70.56 -267.87,200.06 -18.06,130.88 67.52,248.71 190.19,269.49z"/>
  <path class="fil7" d="M61671.63 920.58c83.08,0.88 165.98,6.74 248.96,10.87l124.39 6.59 124.17 10.27c62.23,5.18 120.87,-16.69 166.13,-56.16 45.19,-39.16 76.87,-94.72 83.68,-160.31l0 0c6.73,-65.15 -12.95,-127.95 -51.3,-174.66 -38.31,-46.39 -95.07,-77.85 -160.37,-83.29l-130.1 -10.72 -130.36 -6.95c-86.92,-4.34 -173.77,-10.37 -260.8,-11.36 -131.41,-2.96 -238.31,100.36 -238.8,232.83 -0.46,130.39 99.98,240.14 224.4,242.89z"/>
  <path class="fil7" d="M60341.42 966.96l248.46 -21.7c82.9,-6.42 165.95,-10.37 248.89,-15.69 124.31,-7.17 222.49,-114.73 219.07,-246.81l0 0c-3.35,-130.7 -112.71,-236.01 -243.84,-228.49 -86.78,5.54 -173.71,9.73 -260.38,16.44l-259.86 22.68c-130.46,14.82 -222.85,132.57 -206.38,262.96 16.51,130.39 130.25,224.72 254.04,210.61z"/>
  <path class="fil7" d="M59026.21 1183.06l244.19 -52.63 245.22 -47.03c122.8,-21.73 206.37,-142.45 186.19,-272.66 -20.07,-129.54 -141.53,-218.58 -270.72,-195.72l-255.87 49.07 -254.63 54.89c-127.5,30.38 -204.76,158.36 -172.55,285.79 32.21,127.42 156.74,207.29 278.17,178.29z"/>
  <path class="fil7" d="M57744.08 1554.96c78.5,-28.26 157.52,-54.9 236.82,-80.65 78.95,-26.77 158.65,-51.26 238.37,-75.63 119.14,-37.79 188.35,-165.88 152.65,-293.09l0 0c-35.31,-125.87 -166.93,-201.58 -291.78,-162.07 -82.94,25.33 -165.84,50.87 -247.97,78.67 -82.48,26.81 -164.64,54.51 -246.2,83.86 -123.76,42.65 -185,180.72 -138.71,303.42l0 0c46.46,123.26 178.61,186.2 296.82,145.49z"/>
  <path class="fil7" d="M56509.11 2066.64c75.21,-36.27 150.84,-71.58 226.97,-105.8 75.71,-35.25 152.51,-67.91 228.96,-101.43 114.9,-49.56 168.98,-186.12 119.48,-308.29 -49.25,-121.42 -187.64,-180.62 -307.73,-128.83 -79.34,34.75 -159.03,68.68 -237.59,105.23 -78.99,35.53 -157.48,72.14 -235.48,109.78 -118.22,55.78 -164.4,199.57 -105.45,316.41l0 0c59.45,117.83 197.63,166.34 310.84,112.93z"/>
  <path class="fil7" d="M55334.84 2706.18c142.14,-87.35 285.97,-172.01 431.38,-254.03 109.36,-60.82 148.24,-203.41 86.47,-318.98 -62.16,-116.24 -205.43,-159.5 -319.66,-95.92 -150.91,85.09 -300.25,173 -447.95,263.8 -111.38,68.72 -142.6,215.83 -71.12,326.08l0 0c71.5,110.31 214.49,144.7 320.88,79.05z"/>
  <polygon class="fil7" points="54544.76,3235.12 54547.65,3231.23 54557.39,3218.16 54563.61,3209.79 54570.49,3200.55 54572.1,3198.39 54572.22,3198.22 54572.27,3198.17 54572.34,3198.07 54572.34,3198.1 54572.36,3198.08 54569.51,3222.51 54569.61,3222.43 54569.82,3222.24 54570.53,3221.75 54571.91,3220.69 54572.69,3220.12 54572.87,3219.98 54573.55,3219.49 54577.48,3216.6 54585.22,3210.91 54592.66,3205.41 54604.34,3196.44 54615.45,3187.1 54626.07,3177.39 54636.2,3167.38 54645.86,3157.11 54655,3146.56 54663.61,3135.73 54671.68,3124.65 54679.2,3113.37 54686.18,3101.87 54692.6,3090.15 54698.53,3078.33 54703.89,3066.45 54708.73,3054.38 54712.96,3042.25 54716.59,3030.04 54719.63,3017.76 54722.1,3005.49 54723.97,2993.17 54725.2,2980.86 54725.84,2968.62 54725.84,2956.41 54725.2,2944.31 54723.97,2932.36 54722.1,2920.54 54719.56,2908.86 54716.35,2897.36 54712.47,2886.04 54707.91,2874.96 54702.66,2864.09 54696.7,2853.54 54690.03,2843.24 54690.03,2843.24 54682.73,2833.4 54674.89,2824.12 54666.57,2815.41 54657.75,2807.26 54648.47,2799.64 54638.77,2792.66 54628.61,2786.2 54618.06,2780.34 54607.16,2775.05 54595.94,2770.43 54584.37,2766.37 54572.52,2762.92 54560.38,2760.06 54548,2757.8 54535.37,2756.14 54522.53,2755.08 54509.48,2754.63 54496.32,2754.8 54482.98,2755.54 54469.54,2756.88 54456.07,2758.89 54442.52,2761.61 54428.97,2764.89 54415.39,2768.81 54401.81,2773.36 54388.3,2778.47 54374.82,2784.22 54361.45,2790.61 54348.26,2797.74 54335.24,2805.46 54322.33,2813.82 54314.95,2819.02 54289.22,2838.02 54256.73,2862.3 54188.59,2914.04 54176.56,2923.22 54117.16,2969.75 54104.8,2979.6 54054.62,3020.36 54035.05,3036.51 53991.59,3073.3 53918.5,3135.13 53856.77,3187.38 53825.9,3213.48 53818.21,3220.01 53817.79,3220.39 53836.79,3235.12 "/>
  <polygon class="fil7" points="54574.71,3199.76 54573.93,3199.18 54573.13,3198.57 54572.82,3198.36 54572.47,3198.08 54571.52,3205.59 54571.51,3205.62 54571.43,3206.29 54571.26,3207.64 54571.25,3207.68 54571.18,3208.28 54571.13,3208.62 54571.1,3208.89 54571.03,3209.49 54571.02,3209.52 54570.82,3211.15 54570.81,3211.16 54570.75,3211.66 54570.72,3211.91 54570.69,3212.15 54570.63,3212.61 54570.63,3212.63 54570.57,3213.09 54570.55,3213.27 54570.52,3213.53 54570.47,3213.89 54570.47,3213.95 54570.41,3214.35 54570.4,3214.46 54570.37,3214.74 54570.33,3215 54570.32,3215.12 54570.27,3215.48 54570.27,3215.5 54570.23,3215.82 54570.21,3215.96 54570.19,3216.15 54570.11,3216.77 54570.1,3216.77 54570.07,3217.06 54570.06,3217.13 54570.04,3217.34 54570.02,3217.46 54570,3217.61 54569.98,3217.76 54569.97,3217.87 54569.94,3218.03 54569.94,3218.11 54569.91,3218.27 54569.88,3218.57 54569.86,3218.69 54569.8,3219.15 54569.8,3219.2 54569.37,3222.53 54569.37,3222.53 54569.34,3222.5 54569.34,3222.53 54569.29,3222.45 54569.22,3222.38 54567.76,3220.38 54567.53,3220.06 54564.23,3215.65 54560.62,3210.81 54544.65,3189.37 54505.51,3136.84 54318.86,2886.3 54285.06,2840.93 54224.63,2886.36 54164.38,2932.65 54104.19,2979.99 54041.93,3030.69 53817.78,3220.36 53817.95,3220.51 53836.79,3235.12 54619.42,3235.12 54618.63,3234.38 54607.48,3224.82 54596.17,3215.93 54580.51,3204.15 54574.9,3199.91 "/>
  <path class="fil8" d="M52225.56 3212.32c-9597.53,-7227.71 -18394.18,0 -18394.18,0 10.41,7.84 20.79,14.99 31.2,22.8l18334.54 0c18.52,-14.69 28.44,-22.8 28.44,-22.8z"/>
  <path class="fil0" d="M48476.69 3212.32c-5824.72,-4386.47 -11163.34,0 -11163.34,0 10.41,7.84 20.79,15.01 31.2,22.8l11103.5 0c18.43,-14.47 28.64,-22.8 28.64,-22.8z"/>
  <path class="fil9" d="M48330.9 2434.3c72.81,40.75 143.05,85.97 214.17,129.75 70.76,44.31 142.27,87.42 212.51,132.61 104.39,69.29 248.53,37.01 321.91,-72.04 73.38,-109.04 44.63,-255.94 -64.24,-328.11 -72.78,-46.85 -146.93,-91.66 -220.35,-137.55 -73.73,-45.41 -146.61,-92.22 -222.21,-134.62 -113.24,-65.48 -257.18,-25.61 -321.45,89 -64.31,114.66 -28.65,258.34 79.66,320.96z"/>
  <path class="fil9" d="M47144.9 1820.62l227.15 104.11c75.74,34.6 149.54,73.55 224.44,110.1 56.09,27.9 118.92,29.35 175.75,9.52 56.16,-18.66 106.5,-59.16 137.05,-117.33 30.52,-58.21 35.21,-123.23 17.54,-181.57 -18.28,-57.23 -59.16,-107.28 -117.62,-136.35 -77.93,-38.1 -154.73,-78.5 -233.64,-114.62l-236.75 -108.52c-59.06,-27.9 -124.6,-25.85 -180.77,-2.78 -56.23,23.1 -103.36,67.8 -128.9,128.37 -25.51,60.54 -24.84,125.38 -3.78,180.91 21.14,55.63 62.9,101.35 119.53,128.16z"/>
  <path class="fil9" d="M45896.93 1353.39c79.3,24.98 158.99,48.75 237.98,74.68l235.76 81.71c59.34,19.75 121.15,15.52 174.8,-10.02 53.63,-25.58 98.92,-71.97 122.35,-133.35l0 0c23.46,-61.39 20.32,-126.3 -4.38,-181.86 -24.62,-55.56 -70.59,-102.27 -132.68,-122.98l-246.38 -85.37c-82.58,-27.13 -165.91,-52.04 -248.85,-78.14 -124.99,-40.46 -256.89,36.83 -291.64,162.7 -35.24,127.49 34.54,254.11 153.04,292.63z"/>
  <path class="fil9" d="M44601.41 1049.28l245.39 43.32 244.05 50.59c61.28,12.1 122.13,-0.85 171.94,-32.71 49.85,-32.2 88.87,-83.99 104.25,-147.85l0 0c15.42,-63.88 4.02,-127.88 -27.62,-179.84 -31.51,-52.32 -83.36,-91.97 -147.6,-104.71l-255.63 -52.98 -257.1 -45.37c-129.61,-21.94 -250.02,70.56 -267.87,200.06 -18.09,130.88 67.53,248.71 190.19,269.49z"/>
  <path class="fil9" d="M43277.46 920.58c83.08,0.88 165.99,6.73 248.96,10.86l124.39 6.6 124.18 10.27c62.23,5.18 120.89,-16.69 166.15,-56.17 45.16,-39.16 76.84,-94.72 83.65,-160.3l0 0c6.77,-65.16 -12.95,-127.95 -51.3,-174.66 -38.27,-46.39 -95.07,-77.86 -160.37,-83.29l-130.1 -10.72 -130.35 -6.95c-86.93,-4.34 -173.78,-10.38 -260.81,-11.36 -131.41,-2.97 -238.3,100.36 -238.8,232.83 -0.46,130.39 99.98,240.14 224.4,242.89z"/>
  <path class="fil9" d="M41947.25 966.96l248.5 -21.7c82.87,-6.42 165.91,-10.37 248.85,-15.7 124.32,-7.16 222.49,-114.72 219.07,-246.8l0 0c-3.35,-130.71 -112.67,-236.01 -243.84,-228.5 -86.78,5.54 -173.71,9.74 -260.38,16.44l-259.86 22.69c-130.46,14.81 -222.85,132.57 -206.34,262.96 16.48,130.38 130.21,224.72 254,210.61z"/>
  <path class="fil9" d="M40632.04 1183.06l244.2 -52.64 245.21 -47.02c122.8,-21.73 206.38,-142.45 186.2,-272.66 -20.08,-129.54 -141.54,-218.59 -270.72,-195.73l-255.87 49.08 -254.64 54.89c-127.53,30.37 -204.75,158.36 -172.54,285.78 32.21,127.43 156.74,207.3 278.16,178.3z"/>
  <path class="fil9" d="M39349.91 1554.95c78.5,-28.26 157.52,-54.89 236.82,-80.64 78.96,-26.78 158.65,-51.26 238.38,-75.64 119.13,-37.78 188.34,-165.87 152.64,-293.09l0 0c-35.31,-125.87 -166.93,-201.57 -291.78,-162.06 -82.94,25.33 -165.84,50.87 -247.97,78.67 -82.48,26.81 -164.64,54.5 -246.2,83.85 -123.76,42.65 -185,180.73 -138.71,303.43l0 0c46.46,123.26 178.61,186.19 296.82,145.48z"/>
  <path class="fil9" d="M38114.94 2066.63c75.18,-36.26 150.85,-71.58 226.98,-105.8 75.7,-35.24 152.5,-67.91 228.95,-101.42 114.9,-49.57 168.98,-186.13 119.45,-308.29 -49.21,-121.43 -187.61,-180.62 -307.69,-128.84 -79.34,34.75 -159.04,68.69 -237.6,105.24 -78.99,35.52 -157.48,72.14 -235.48,109.78 -118.21,55.81 -164.39,199.57 -105.44,316.41l0 0c59.44,117.83 197.62,166.33 310.83,112.92z"/>
  <path class="fil9" d="M36940.67 2706.18c142.14,-87.35 285.97,-172.02 431.38,-254.04 109.4,-60.82 148.24,-203.41 86.47,-318.98 -62.16,-116.24 -205.39,-159.49 -319.65,-95.92 -150.92,85.09 -300.25,173 -447.96,263.81 -111.37,68.72 -142.59,215.83 -71.12,326.07l0 0c71.54,110.32 214.49,144.71 320.88,79.06z"/>
  <polygon class="fil9" points="49803.8,2844.81 49661.72,3035.73 49583.49,3140.86 49557.98,3175.14 49544.39,3193.42 49528.42,3214.87 49521.54,3224.11 49521.24,3224.51 49519.94,3226.26 49519.81,3226.42 49519.76,3226.47 49519.7,3226.58 49519.69,3226.58 49519.73,3226.29 49519.75,3226.15 49519.76,3226.01 49519.78,3225.87 49519.8,3225.64 49519.81,3225.59 49519.83,3225.46 49519.84,3225.32 49519.86,3225.18 49519.87,3225.04 49519.89,3224.9 49519.91,3224.75 49519.91,3224.72 49519.92,3224.6 49519.94,3224.45 49519.96,3224.3 49522.53,3202.14 49522.49,3202.17 49522.21,3202.38 49521.5,3202.91 49520.13,3203.93 49519.16,3204.67 49516,3206.96 49515.18,3207.56 49514.55,3208.03 49510.81,3210.79 49499.37,3219.24 49487.7,3228.2 49479.47,3235.12 50237.78,3235.12 50274.07,3204.41 50274.25,3204.24 50042.24,3024.26 "/>
  <polygon class="fil9" points="49496.27,3209.03 49509.36,3218.9 49511.52,3220.52 49512.14,3220.99 49516.13,3223.99 49518.11,3225.47 49518.5,3225.77 49519.09,3226.21 49519.21,3226.3 49519.56,3226.58 49521.21,3213.5 49521.22,3213.49 49521.28,3212.99 49521.32,3212.74 49521.46,3211.56 49521.49,3211.38 49521.62,3210.3 49521.64,3210.18 49521.7,3209.65 49521.71,3209.53 49521.76,3209.17 49521.77,3209.15 49521.92,3207.88 49521.93,3207.88 49521.96,3207.59 49521.97,3207.52 49522.03,3207.04 49522.05,3206.89 49522.06,3206.79 49522.09,3206.62 49522.09,3206.54 49522.12,3206.38 49522.12,3206.31 49522.15,3206.08 49522.17,3205.96 49522.18,3205.87 49522.25,3205.27 49522.26,3205.27 49522.67,3202.14 49522.67,3202.14 49522.69,3202.15 49522.69,3202.12 49522.74,3202.19 49522.81,3202.24 49524.5,3204.57 49527.81,3209 49531.42,3213.81 49547.29,3235.12 50237.78,3235.12 50274.26,3204.25 50273.83,3203.92 50265.82,3197.71 50233.89,3172.94 50094.34,3064.73 50049.36,3029.84 50004.18,2995.64 49843.15,2874.43 49778.65,2825.92 49767.17,2817.66 49754.54,2809.26 49741.7,2801.5 49728.71,2794.38 49715.59,2787.85 49702.4,2781.92 49689.13,2776.6 49682.46,2774.2 49675.66,2772.08 49662.07,2768.31 49648.49,2765.13 49634.95,2762.56 49621.43,2760.58 49608.03,2759.21 49594.73,2758.46 49581.54,2758.29 49568.52,2758.71 49555.64,2759.77 49543.01,2761.39 49530.59,2763.61 49518.39,2766.4 49506.5,2769.82 49494.89,2773.81 49483.6,2778.4 49472.63,2783.55 49462.05,2789.3 49451.85,2795.65 49442.05,2802.53 49432.7,2810.04 49423.81,2818.08 49415.38,2826.73 49407.47,2835.9 49400.07,2845.67 49393.29,2855.9 49387.23,2866.38 49381.83,2877.17 49377.17,2888.22 49373.15,2899.5 49369.83,2910.97 49367.15,2922.65 49365.18,2934.47 49363.8,2946.42 49363.13,2958.49 49363.06,2970.66 49363.62,2982.87 49364.79,2995.14 49366.62,3007.42 49369.02,3019.73 49372.06,3031.97 49375.69,3044.18 49379.89,3056.35 49384.72,3068.38 49390.08,3080.3 49396.04,3092.12 49402.57,3103.73 49409.66,3115.19 49417.32,3126.45 49425.43,3137.63 49433.93,3148.71 49443,3159.57 49452.59,3170.12 49462.75,3180.35 49473.41,3190.26 49484.56,3199.82 "/>
  <polygon class="fil9" points="36150.59,3235.12 36153.48,3231.23 36169.46,3209.79 36173.06,3204.94 36177.54,3198.91 36178.04,3198.22 36178.15,3198.12 36178.18,3198.06 36178.18,3198.08 36178.16,3198.23 36178.14,3198.37 36178.13,3198.51 36178.11,3198.65 36178.09,3198.79 36178.08,3198.93 36178.07,3199 36178.06,3199.07 36178.04,3199.2 36178.03,3199.34 36178.01,3199.48 36177.99,3199.62 36177.98,3199.76 36177.96,3199.91 36177.96,3199.92 36177.94,3200.06 36177.92,3200.21 36177.91,3200.36 36177.89,3200.53 36177.87,3200.69 36177.85,3200.81 36177.85,3200.86 36177.83,3201.04 36177.81,3201.22 36177.78,3201.42 36177.76,3201.62 36177.75,3201.67 36177.74,3201.82 36177.71,3202.04 36177.66,3202.5 36177.65,3202.5 36177.63,3202.74 36175.32,3222.52 36175.4,3222.46 36175.67,3222.24 36176.23,3221.85 36176.38,3221.75 36176.77,3221.45 36177.72,3220.69 36183.33,3216.6 36185.71,3214.85 36198.5,3205.4 36210.17,3196.44 36221.29,3187.09 36231.91,3177.39 36242.03,3167.37 36251.7,3157.11 36260.83,3146.56 36269.44,3135.73 36277.52,3124.65 36285.03,3113.36 36292.02,3101.86 36298.44,3090.15 36304.37,3078.33 36309.73,3066.44 36314.56,3054.38 36318.79,3042.24 36322.43,3030.04 36325.5,3017.76 36327.93,3005.48 36329.8,2993.17 36331.04,2980.86 36331.67,2968.62 36331.67,2956.41 36331.04,2944.31 36329.8,2932.35 36327.93,2920.53 36325.39,2908.86 36322.18,2897.36 36318.3,2886.03 36313.75,2874.96 36308.49,2864.09 36302.53,2853.54 36295.95,2843.38 36295.76,2843.11 36288.56,2833.4 36280.73,2824.12 36272.4,2815.41 36263.59,2807.26 36254.31,2799.64 36244.61,2792.65 36234.45,2786.2 36223.93,2780.34 36213,2775.05 36201.78,2770.43 36190.21,2766.37 36178.35,2762.91 36166.22,2760.06 36153.84,2757.8 36141.21,2756.14 36128.37,2755.08 36115.35,2754.62 36102.15,2754.8 36088.82,2755.54 36075.38,2756.88 36061.9,2758.89 36048.36,2761.61 36034.81,2764.89 36021.23,2768.8 36007.64,2773.36 35994.13,2778.47 35980.66,2784.22 35967.29,2790.61 35954.09,2797.73 35941.08,2805.46 35928.16,2813.82 35920.85,2818.97 35893.8,2838.95 35864.07,2861.17 35784.81,2921.38 35782.43,2923.19 35782.4,2923.22 35724.3,2968.73 35709.59,2980.44 35659.64,3021.03 35641.59,3035.91 35597.4,3073.3 35524.34,3135.13 35462.6,3187.38 35423.99,3220.06 35423.64,3220.38 35442.6,3235.12 "/>
  <polygon class="fil9" points="36181.74,3200.65 36180.75,3199.91 36179.76,3199.17 36179.34,3198.85 36179.29,3198.81 36178.64,3198.36 36178.32,3198.08 36176.66,3211.15 36176.65,3211.15 36176.31,3213.88 36176.3,3213.95 36176.25,3214.35 36176.23,3214.46 36176.2,3214.74 36176.17,3214.99 36176.15,3215.12 36176.11,3215.48 36176.1,3215.49 36176.06,3215.82 36176.04,3215.95 36176.02,3216.15 36175.99,3216.37 36175.98,3216.47 36175.94,3216.76 36175.94,3216.77 36175.9,3217.06 36175.9,3217.12 36175.87,3217.34 36175.85,3217.45 36175.83,3217.61 36175.82,3217.75 36175.8,3217.87 36175.78,3218.02 36175.77,3218.11 36175.75,3218.26 36175.74,3218.35 36175.72,3218.48 36175.71,3218.57 36175.7,3218.68 36175.68,3218.79 36175.67,3218.86 36175.65,3219 36175.65,3219.01 36175.62,3219.26 36175.61,3219.37 36175.6,3219.39 36175.59,3219.45 36175.58,3219.53 36175.57,3219.57 36175.57,3219.59 36175.55,3219.71 36175.55,3219.75 36175.55,3219.78 36175.44,3220.52 36175.44,3220.56 36175.42,3220.65 36175.42,3220.71 36175.4,3220.8 36175.4,3220.85 36175.31,3221.55 36175.29,3221.63 36175.29,3221.69 36175.27,3221.82 36175.26,3221.9 36175.26,3221.96 36175.24,3222.1 36175.22,3222.19 36175.22,3222.24 36175.2,3222.38 36175.18,3222.52 36175.18,3222.53 36175.18,3222.53 36175.18,3222.52 36175.11,3222.42 36175.07,3222.38 36173.34,3220.06 36170.06,3215.64 36166.47,3210.81 36150.48,3189.36 36150.1,3188.85 36111.33,3136.84 35937.07,2902.9 35890.9,2840.94 35830.44,2886.36 35770.19,2932.65 35710.04,2979.99 35647.78,3030.69 35423.62,3220.37 35432.05,3226.93 35442.6,3235.12 35442.61,3235.12 36225.26,3235.12 36224.46,3234.38 36213.28,3224.82 36201.76,3215.74 36186.33,3204.15 "/>
 </g>
</svg>
