<?xml version="1.0" encoding="UTF-8"?>
<!DOCTYPE svg PUBLIC "-//W3C//DTD SVG 1.1//EN" "http://www.w3.org/Graphics/SVG/1.1/DTD/svg11.dtd">
<!-- Creator: CorelDRAW 2020 (64 Bit) -->
<svg xmlns="http://www.w3.org/2000/svg" xml:space="preserve" width="87.0183mm" height="111.194mm" version="1.1" style="shape-rendering:geometricPrecision; text-rendering:geometricPrecision; image-rendering:optimizeQuality; fill-rule:evenodd; clip-rule:evenodd"
viewBox="0 0 3828.52 4892.15"
 xmlns:xlink="http://www.w3.org/1999/xlink"
 xmlns:xodm="http://www.corel.com/coreldraw/odm/2003">
 <defs>
  <style type="text/css">
   <![CDATA[
    .fil3 {fill:black;fill-rule:nonzero}
    .fil6 {fill:#004C94;fill-rule:nonzero}
    .fil1 {fill:#2C5629;fill-rule:nonzero}
    .fil7 {fill:#6E160C;fill-rule:nonzero}
    .fil2 {fill:#DD5513;fill-rule:nonzero}
    .fil4 {fill:#DE202A;fill-rule:nonzero}
    .fil5 {fill:#F5921C;fill-rule:nonzero}
    .fil0 {fill:#F8A919;fill-rule:nonzero}
   ]]>
  </style>
 </defs>
 <g id="Camada_x0020_1">
  <metadata id="CorelCorpID_0Corel-Layer"/>
  <g id="_1743773334672">
   <path class="fil0" d="M2252.92 912.76c47.67,-355.66 -135.82,-731.55 -445.55,-912.76 -46.7,181.47 -22.65,380.17 66.01,545.26 -153.5,-126.24 -353.18,-195.04 -551.87,-190.14 71.58,189.58 204.52,355.42 373.98,466.53 -179.94,28.88 -356.21,80.55 -523.26,153.38 261.86,253.94 694.49,309.92 1012.36,131.01l68.32 -193.29z"/>
   <path class="fil1" d="M3133.28 2288.48c-79.34,1.01 -165.62,-29.81 -248.16,-103.51 -61.49,-54.92 -112.22,-122.34 -147.44,-196.9 -31.62,-66.94 -27.58,-143.55 -54.18,-207.92 37.05,89.63 74.73,180.4 133.53,257.53 58.8,77.13 142.14,140.34 238.17,153.97 96.01,13.63 203.31,-32.25 242.38,-121.02 30.96,-70.37 15.66,-153.18 -15.88,-223.29 -58.76,-130.63 -168.3,-231.47 -283.9,-316.04 -177.87,-130.14 -380.88,-232.16 -598.89,-264.65 -117.06,-17.43 -236.97,-14.73 -352.48,-40.53 -148.51,-33.18 -282.3,-111.66 -413.33,-189.01 165.63,7.7 330.49,31.68 491.44,71.46 -134.78,-58.31 -258.64,-141.77 -363.28,-244.82 127.24,49.36 254.5,98.72 381.74,148.07 -113.13,-96.11 -209.15,-212.33 -282.16,-341.59 101.45,95.84 210.53,183.63 325.85,262.24 -106.27,-169.77 -199.18,-347.92 -277.59,-532.23 115.77,100.31 215.15,219.48 293.04,351.38 -11.16,-112.37 -33.97,-223.6 -67.97,-331.29 167.46,201.23 188.5,501.59 377.21,683.02 83.91,80.65 192.74,129.06 298.02,178.68 237.81,112.08 484.52,253.93 594.19,492.86 119.06,259.39 -48.58,510.78 -270.3,513.59z"/>
   <path class="fil2" d="M1688.19 170.67c70.93,185.17 180.31,355.51 319.16,497.06 -153.21,-106.21 -261.27,-264.23 -365.77,-418.62l46.61 -78.45z"/>
   <path class="fil3" d="M1672.8 262.63c12.63,-3.07 24.38,-9.06 34.19,-18.42 62.86,-59.91 4.66,-136.43 -65.96,-147.17 -42.7,-6.49 -85.99,10.03 -95.97,63.43 -12.31,65.93 67.72,116.8 127.74,102.16z"/>
   <path class="fil2" d="M1308.27 344.63c130.36,149.42 291.7,271.68 470.8,356.76 -180.42,-46.95 -336.26,-158.11 -487.54,-267.07l16.75 -89.7z"/>
   <path class="fil3" d="M1325.48 436.26c10.8,-7.25 19.77,-16.9 25.76,-29.07 38.38,-77.9 -42.61,-129.69 -112.62,-115.46 -42.31,8.61 -77.26,39.02 -68.24,92.6 11.14,66.15 103.79,86.34 155.1,51.93z"/>
   <path class="fil2" d="M1202.9 769.37c186.41,67.61 386.77,96.45 584.68,84.16 -180.58,46.28 -370.76,24.51 -555.9,2.44l-28.77 -86.59z"/>
   <path class="fil3" d="M1262.33 841.21c5.94,-11.57 9.11,-24.37 8.47,-37.9 -4.14,-86.75 -100.1,-92.85 -154.45,-46.49 -32.86,28.02 -48.7,71.55 -14.88,114.07 41.78,52.47 132.63,25.27 160.86,-29.68z"/>
   <path class="fil1" d="M2684.58 1230.5c-1.57,-38.22 -3.14,-76.43 -4.72,-114.66 -71.48,-60.98 -124.99,-140.53 -168.42,-223.85 -18.43,-35.31 -35.28,-71.72 -45.15,-110.31 -17.46,-68.15 -12.43,-139.7 -15.49,-210 -3.35,-76.78 -16.55,-153.13 -39.17,-226.58 83.36,91.43 165.69,183.83 246.94,277.16 37.74,43.35 75.83,87.8 98.74,140.53 40.23,92.6 26.64,206.41 -34.29,286.92 18.36,83.25 37.66,165.36 56.02,248.62 1.35,6.08 -0.48,15.57 -6.52,14.01l-87.94 -81.86z"/>
   <path class="fil1" d="M2921.31 1610.08c1.8,-0.26 3.6,-0.54 5.39,-0.84 47.92,-7.64 53.33,-59.9 96.54,-81.95 -64.83,16.68 -129.68,33.37 -194.53,50.06 -14.8,3.82 -30.67,7.59 -45.1,2.55 -12.14,-4.25 -21.28,-14.1 -31.11,-22.4 -71.47,-60.49 -177.9,-41.16 -270.03,-24.41 -90.25,16.41 -181.55,27.05 -273.16,31.83 104.01,84.1 229.68,141.18 361.45,164.17 38.28,6.67 77.92,10.46 115.72,1.55 37.81,-8.92 73.85,-32.37 89.71,-67.84 11.08,-24.74 44.28,-32.66 70.39,-39.98 91.98,-25.83 189.28,-40.53 283.23,-60.03 -24.09,-28.34 -55.73,-50.21 -90.77,-62.72l-117.74 110.03z"/>
   <path class="fil4" d="M3422.93 3903.55c140.34,-32.16 297.92,-40.07 386.88,-147.65 10.7,-12.95 20.46,-28.7 18.44,-45.39 -2.14,-17.62 -16.71,-30.9 -31.07,-41.33 -239.36,-173.88 -580.62,52.04 -766.04,209.88 36.57,-223.67 273.29,-380.16 291.47,-606.07 1.94,-24.11 0.45,-50.61 -15.38,-68.88 -38.48,-44.44 -110.03,-1.03 -147.54,44.22 -130.44,157.26 -221.8,346.71 -263.61,546.7 -42.28,-104.41 -84.56,-208.82 -126.85,-313.21 -23.14,-57.18 -48.3,-117.06 -96.96,-154.97 -48.67,-37.9 -128.55,-43.16 -166.34,5.59 -34.32,44.27 -19.68,108.01 -0.64,160.68 52.4,144.84 126.59,281.77 219.3,404.77 -99.61,-62.83 -201.17,-126.51 -314.89,-157.12 -113.74,-30.61 -243.59,-23.67 -338.31,46.32 164.17,133.87 367.23,219.45 577.69,243.48 -212.57,71.15 -445.24,168.7 -532.53,375.16 -16.12,38.14 -25,86.14 1.65,117.84 48.6,57.83 138.81,-0.09 194.09,-51.58 116.69,-108.65 258.39,-190.25 410.93,-236.66 -160.97,137.23 -187.94,405.08 -57.58,571.65 174.18,-98.09 99.48,-376.31 209.47,-543.22 -40.68,209.86 45.55,439.28 214.39,570.38 57.49,44.67 137.6,78.64 201.28,43.36 181.6,-100.5 -135.72,-477.41 -197.01,-592.93 -14.28,-26.9 -26.51,-64.77 -2.7,-83.75 21.79,-17.38 53.45,-1.95 76.78,13.32 117.54,76.89 239.68,146.74 365.53,209.05 60.98,30.19 140.36,56.62 191.47,11.7 44.92,-39.47 37.53,-115.63 0.44,-162.55 -37.08,-46.92 -94.71,-71.8 -149.89,-94.85 -124.49,-52.03 -249,-104.05 -373.5,-156.08 53.25,-68.49 133.81,-97.86 221.03,-117.85z"/>
   <path class="fil5" d="M2790.46 4215.02c98.4,73.29 237.58,52.94 310.87,-45.44 73.29,-98.4 52.95,-237.58 -45.44,-310.89 -98.4,-73.29 -237.58,-52.94 -310.87,45.46 -73.3,98.39 -52.96,237.58 45.45,310.87z"/>
   <path class="fil6" d="M3535.45 338.37l-190.63 164.15 -166.36 -286.15 51.08 286.15 -215.21 64.57 227.12 66.42c0,0 -151.05,333.33 -123.44,300.66 27.61,-32.65 197.4,-203.15 197.4,-203.15l220.04 185.48 -119.7 -211.33 343.17 -109.44 -325.85 -70.5 102.38 -186.84z"/>
   <path class="fil6" d="M3286.38 2526.25l109.93 127.68 -191.65 111.43 191.65 -34.23 43.24 144.14 44.49 -152.11c0,0 223.25,101.17 201.39,82.67 -21.88,-18.49 -136.07,-132.21 -136.07,-132.21l124.23 -147.37 -141.55 80.17 -73.29 -229.83 -47.22 218.22 -125.14 -68.56z"/>
   <path class="fil7" d="M419.71 2580.82c146.18,31.04 276.26,115.31 387.42,215.2 -125.78,-196.45 -292.23,-366.72 -485.76,-496.92 274.58,13.98 542.99,128.19 743.47,316.33 -87.83,-209.27 -234.18,-393.6 -418.07,-526.6 227.94,8.49 449.35,126.62 583.29,311.26 -21.79,-237.33 64.9,-521.46 144.75,-746.02 79.87,224.56 166.56,508.69 144.77,746.02 133.95,-184.64 355.34,-302.77 583.28,-311.26 -183.89,133 -330.24,317.33 -418.06,526.6 200.48,-188.14 468.88,-302.35 743.47,-316.32 -193.55,130.19 -359.99,300.46 -485.76,496.91 111.15,-99.89 241.23,-184.16 387.41,-215.2 146.19,-31.04 310.19,-2.19 419.7,99.49 -250.34,-24.92 -509.13,116.36 -623.54,340.42 -76.53,149.87 -106.3,236.37 -260.07,316.48 -130.25,67.84 -278.73,67.45 -319.72,229.87 -63.02,249.73 -120.19,500.94 -171.48,753.36 -51.26,-252.42 -108.44,-503.63 -171.46,-753.36 -40.99,-162.41 -189.48,-162.02 -319.72,-229.88 -153.78,-80.09 -183.55,-166.59 -260.09,-316.46 -114.4,-224.06 -373.19,-365.35 -623.54,-340.42 109.52,-101.68 273.53,-130.53 419.71,-99.49z"/>
   <path class="fil5" d="M886.58 2882.88c74.72,15.86 141.22,58.95 198.03,110 -64.29,-100.42 -149.37,-187.45 -248.3,-254 140.37,7.14 277.56,65.52 380.05,161.7 -44.9,-106.97 -119.7,-201.2 -213.71,-269.18 116.52,4.33 229.7,64.72 298.16,159.11 -11.13,-121.33 33.18,-266.56 74,-381.35 40.82,114.8 85.13,260.02 73.99,381.35 68.48,-94.39 181.66,-154.78 298.17,-159.11 -94.01,67.98 -168.82,162.21 -213.71,269.18 102.49,-96.19 239.68,-154.56 380.05,-161.7 -98.93,66.55 -184.02,153.6 -248.3,254 56.81,-51.05 123.31,-94.14 198.03,-110 74.72,-15.86 158.56,-1.12 214.53,50.86 -127.96,-12.74 -260.24,59.48 -318.74,174.01 -39.11,76.61 -54.32,120.83 -132.94,161.78 -66.58,34.67 -142.48,34.49 -163.44,117.51 -32.21,127.66 -61.43,256.07 -87.65,385.09 -26.21,-129.03 -55.44,-257.43 -87.65,-385.09 -20.96,-83.02 -96.85,-82.84 -163.44,-117.51 -78.61,-40.94 -93.82,-85.16 -132.94,-161.78 -58.5,-114.53 -190.79,-186.75 -318.76,-174.01 55.98,-51.98 139.83,-66.72 214.55,-50.86z"/>
  </g>
 </g>
</svg>
