<?xml version="1.0" encoding="UTF-8"?>
<!DOCTYPE svg PUBLIC "-//W3C//DTD SVG 1.1//EN" "http://www.w3.org/Graphics/SVG/1.1/DTD/svg11.dtd">
<!-- Creator: CorelDRAW 2020 (64 Bit) -->
<svg xmlns="http://www.w3.org/2000/svg" xml:space="preserve" width="31.8269mm" height="32.9061mm" version="1.1" style="shape-rendering:geometricPrecision; text-rendering:geometricPrecision; image-rendering:optimizeQuality; fill-rule:evenodd; clip-rule:evenodd"
viewBox="0 0 740.41 765.52"
 xmlns:xlink="http://www.w3.org/1999/xlink"
 xmlns:xodm="http://www.corel.com/coreldraw/odm/2003">
 <defs>
  <style type="text/css">
   <![CDATA[
    .fil2 {fill:#B1CF6F;fill-rule:nonzero}
    .fil1 {fill:#F2911D;fill-rule:nonzero}
    .fil0 {fill:#FFEEC1;fill-rule:nonzero}
   ]]>
  </style>
 </defs>
 <g id="Camada_x0020_1">
  <metadata id="CorelCorpID_0Corel-Layer"/>
  <path class="fil0" d="M161.03 0l-8.71 139.52 -124.75 36.57 122.33 36.59c0,0 -77.43,131.2 -75.28,124.75 2.15,-6.45 108.89,-79.58 108.89,-79.58l50.28 88.18c0,0 2.15,-103.25 10.75,-103.25 8.61,0 99.53,-9.13 99.53,-9.13l-99.53 -57.55c0,0 88.44,-68.86 81.98,-71.01 -6.45,-2.15 -114.87,20.1 -114.87,20.1l-50.61 -125.2z"/>
  <path class="fil1" d="M175.27 90.16l-4.79 72.6 -68.45 19.03 67.13 19.04c0,0 -42.49,68.27 -41.31,64.91 1.18,-3.35 59.75,-41.4 59.75,-41.4l27.6 45.89c0,0 1.17,-53.72 5.9,-53.72 4.72,0 54.62,-4.75 54.62,-4.75l-54.62 -29.95c0,0 48.53,-35.82 44.98,-36.95 -3.54,-1.12 -63.04,10.46 -63.04,10.46l-27.77 -65.15z"/>
  <path class="fil2" d="M219.5 567.38c-41.49,-0.3 -71.84,-19 -61.38,-85.99 -33.73,26.63 -47.73,74.95 -33.48,115.55 -48.4,7.85 -93.44,33.21 -124.65,70.17 48.22,23.77 107.11,25.01 155.75,3.28 -21.53,9.62 14.53,70.28 23.54,76.79 13.5,9.78 29.92,14.68 46.29,17.84 7.15,1.38 17.4,0.21 17.82,-7.05 -18.09,-0.12 -31.42,-19.52 -30.92,-37.6 2.58,-90.78 158.31,-115.85 226.37,-130.05 51.64,-10.77 104.15,-16.73 156.72,-20.61 43.71,-3.22 101.82,-15.13 144.84,-6.68 -92.42,-18.15 -187.16,-24.35 -281.16,-18.58 -79.51,4.88 -160.54,23.52 -239.75,22.93z"/>
 </g>
</svg>
