<?xml version="1.0" encoding="UTF-8"?>
<!DOCTYPE svg PUBLIC "-//W3C//DTD SVG 1.1//EN" "http://www.w3.org/Graphics/SVG/1.1/DTD/svg11.dtd">
<!-- Creator: CorelDRAW 2020 (64 Bit) -->
<svg xmlns="http://www.w3.org/2000/svg" xml:space="preserve" width="344.209mm" height="80.1162mm" version="1.1" style="shape-rendering:geometricPrecision; text-rendering:geometricPrecision; image-rendering:optimizeQuality; fill-rule:evenodd; clip-rule:evenodd"
viewBox="0 0 40803.28 9497.16"
 xmlns:xlink="http://www.w3.org/1999/xlink"
 xmlns:xodm="http://www.corel.com/coreldraw/odm/2003">
 <defs>
  <style type="text/css">
   <![CDATA[
    .fil0 {fill:#FFEEC1;fill-rule:nonzero}
   ]]>
  </style>
 </defs>
 <g id="Camada_x0020_2">
  <metadata id="CorelCorpID_0Corel-Layer"/>
  <polygon class="fil0" points="4395.49,4822.46 4395.49,5873.16 10.85,5873.16 10.85,26.97 4308.59,26.97 4308.59,1077.72 1385.52,1077.72 1385.52,2357.59 4032.12,2357.59 4032.12,3408.29 1385.52,3408.29 1385.52,4822.46 "/>
  <polygon class="fil0" points="9846.24,26.98 8321.52,5873.16 5896.09,5873.16 4371.32,26.98 5824.96,26.98 7144.31,5762.54 7160.16,5762.54 8487.41,26.98 "/>
  <polygon class="fil0" points="14506.9,4822.46 14506.9,5873.16 10122.26,5873.16 10122.26,26.97 14420,26.97 14420,1077.72 11496.93,1077.72 11496.93,2357.59 14143.53,2357.59 14143.53,3408.29 11496.93,3408.29 11496.93,4822.46 "/>
  <polygon class="fil0" points="19009.67,5873.17 17532.29,5873.17 16766,3827.01 16750.18,3827.01 15991.75,5873.17 14514.37,5873.17 15422.94,3771.72 14648.74,1867.69 16062.89,1867.69 16750.18,3755.92 16766,3755.92 17453.33,1867.69 18875.3,1867.69 18093.25,3771.72 "/>
  <path class="fil0" d="M25376.14 4789.99l0 1032.5 -4378.5 0 0 -993.7c1746.74,-690.94 2779.26,-1770.03 2779.26,-2926.75 0,-520.14 -256.18,-846.2 -659.87,-846.2 -442.53,0 -729.78,403.67 -768.59,1071.31l-1296.47 0c93.17,-1335.28 877.28,-2127.12 2111.62,-2127.12 1304.25,0 2065.07,729.75 2065.07,1956.34 0,1568.22 -1467.27,2608.46 -3974.82,2818.11l0 15.52 4122.31 0z"/>
  <path class="fil0" d="M29203.4 2950.08c0,-1187.78 -341.58,-1894.24 -931.6,-1894.24 -582.26,0 -923.82,706.45 -923.82,1894.24 0,1187.79 341.57,1894.25 923.82,1894.25 590.02,0 931.6,-706.45 931.6,-1894.25zm-3252.81 0c0,-1855.42 869.46,-2950.08 2321.21,-2950.08 1459.53,0 2321.25,1094.66 2321.25,2950.08 0,1855.44 -861.72,2950.04 -2321.25,2950.04 -1451.75,0 -2321.21,-1094.61 -2321.21,-2950.04z"/>
  <path class="fil0" d="M35538.19 4789.99l0 1032.5 -4378.5 0 0 -993.7c1746.74,-690.94 2779.26,-1770.03 2779.26,-2926.75 0,-520.14 -256.18,-846.2 -659.87,-846.2 -442.53,0 -729.78,403.67 -768.59,1071.31l-1296.47 0c93.17,-1335.28 877.28,-2127.12 2111.62,-2127.12 1304.25,0 2065.07,729.75 2065.07,1956.34 0,1568.22 -1467.27,2608.46 -3974.82,2818.11l0 15.52 4122.31 0z"/>
  <path class="fil0" d="M39334.41 3943.78c0,-520.14 -357.14,-822.91 -939.39,-822.91 -589.99,0 -939.34,294.99 -939.34,807.4 0,566.69 372.65,916.05 939.34,916.05 582.24,0 939.39,-333.8 939.39,-900.54zm1389.65 -124.2c0,1304.21 -877.28,2080.54 -2321.26,2080.54 -1459.48,0 -2290.18,-1048.02 -2290.18,-2903.46 0,-1878.72 900.53,-2996.67 2422.16,-2996.67 1187.79,0 1948.6,652.13 2057.29,1746.78l-1304.25 0c-62.1,-434.75 -341.58,-690.94 -753.04,-690.94 -675.42,0 -1063.59,714.23 -1063.59,1925.27l0 590.02 15.55 0c0,-900.53 597.76,-1436.19 1606.98,-1436.19 1032.52,0 1630.32,628.8 1630.32,1684.64z"/>
  <path class="fil0" d="M575.56 8938.86c358.28,0 571.24,-217.99 571.24,-586.35l0 -1317.31 -266.2 0 0 1333.14c0,220.16 -111.51,352.53 -297.14,352.53 -187.77,0 -312.24,-164.76 -335.26,-441.75l-248.2 0c25.18,413.69 241.01,659.74 575.56,659.74zm1746.82 0c523.04,0 832.4,-357.56 832.4,-964.06 0,-606.5 -309.36,-964.78 -832.4,-964.78 -525.19,0 -835.27,358.28 -835.27,964.78 0,606.5 310.08,964.06 835.27,964.06zm0 -217.99c-355.4,0 -563.32,-276.99 -563.32,-746.07 0,-469.8 207.92,-746.07 563.32,-746.07 350.38,0 558.3,276.27 558.3,746.07 0,469.08 -207.92,746.07 -558.3,746.07zm1622.5 -2086.4c121.58,0 192.81,149.65 365.48,149.65 171.95,0 276.26,-129.5 279.14,-350.38l-127.34 0c-10.08,99.29 -58.28,160.45 -131.66,160.45 -122.3,0 -192.81,-150.37 -365.48,-150.37 -172.67,0 -276.99,129.51 -279.14,350.38l126.62 0c10.08,-98.57 58.28,-159.72 132.39,-159.72zm1050.39 2279.21l-619.44 -1878.48 -469.08 0 -624.48 1878.48 271.24 0 147.48 -471.95 860.46 0 146.77 471.95 287.06 0zm-865.5 -1852.58l5.04 0 360.44 1166.94 -728.08 0 362.6 -1166.94zm1827.54 1877.76c523.04,0 832.4,-357.56 832.4,-964.06 0,-606.5 -309.36,-964.78 -832.4,-964.78 -525.19,0 -835.27,358.28 -835.27,964.78 0,606.5 310.08,964.06 835.27,964.06zm0 -217.99c-355.4,0 -563.32,-276.99 -563.32,-746.07 0,-469.8 207.92,-746.07 563.32,-746.07 350.38,0 558.3,276.27 558.3,746.07 0,469.08 -207.92,746.07 -558.3,746.07zm1772.01 -1685.67l0 1878.48 266.2 0 0 -728.08 395.69 0c411.52,0 652.54,-215.84 652.54,-576.28 0,-360.44 -241.02,-574.12 -649.67,-574.12l-664.76 0zm266.2 936.72l0 -725.92 413.68 0c228.06,0 362.6,134.53 362.6,363.32 0,228.06 -136.69,362.6 -365.48,362.6l-410.8 0zm1624.52 81.3l890.67 0 0 -212.95 -890.67 0 0 -594.26 979.88 0 0 -210.8 -1246.08 0 0 1878.48 1273.42 0 0 -210.8 -1007.22 0 0 -649.66zm1959.77 885.64c466.93,0 743.19,-212.95 743.19,-573.4 0,-428.79 -365.48,-484.91 -684.91,-535.27 -251.08,-38.14 -479.87,-74.1 -479.87,-294.97 0,-194.98 152.53,-306.49 411.52,-306.49 258.29,0 423.77,156.84 438.87,425.91l261.16 0c-27.34,-403.6 -284.18,-644.62 -689.95,-644.62 -433.83,0 -690.66,192.81 -690.66,543.18 0,395.69 342.46,449.65 649.66,497.85 264.03,40.29 512.97,78.43 512.97,337.42 0,210.8 -172.67,332.39 -466.93,332.39 -284.18,0 -464.77,-169.79 -484.91,-456.85l-264.04 0c30.22,426.63 307.21,674.84 743.91,674.84zm1697.89 0c466.93,0 743.19,-212.95 743.19,-573.4 0,-428.79 -365.48,-484.91 -684.91,-535.27 -251.08,-38.14 -479.87,-74.1 -479.87,-294.97 0,-194.98 152.53,-306.49 411.52,-306.49 258.29,0 423.77,156.84 438.87,425.91l261.16 0c-27.34,-403.6 -284.18,-644.62 -689.95,-644.62 -433.83,0 -690.66,192.81 -690.66,543.18 0,395.69 342.46,449.65 649.66,497.85 264.03,40.29 512.97,78.43 512.97,337.42 0,210.8 -172.67,332.39 -466.93,332.39 -284.18,0 -464.77,-169.79 -484.91,-456.85l-264.04 0c30.22,426.63 307.21,674.84 743.91,674.84zm1814.44 0c523.04,0 832.4,-357.56 832.4,-964.06 0,-606.5 -309.36,-964.78 -832.4,-964.78 -525.19,0 -835.27,358.28 -835.27,964.78 0,606.5 310.08,964.06 835.27,964.06zm0 -217.99c-355.4,0 -563.32,-276.99 -563.32,-746.07 0,-469.8 207.92,-746.07 563.32,-746.07 350.38,0 558.3,276.27 558.3,746.07 0,469.08 -207.92,746.07 -558.3,746.07zm2672.89 192.81l-619.44 -1878.48 -469.08 0 -624.48 1878.48 271.24 0 147.48 -471.95 860.46 0 146.77 471.95 287.06 0zm-865.5 -1852.58l5.04 0 360.44 1166.94 -728.08 0 362.6 -1166.94zm1753.88 2436.06l0 -2537.49 -122.31 0 0 2537.49 122.31 0zm1296.45 -2461.96l-266.2 0 0 1878.48 1116.59 0 0 -217.99 -850.39 0 0 -1660.49zm1393.57 1878.48l0 -1878.48 -266.2 0 0 1878.48 266.2 0zm1073.41 25.18c466.93,0 743.19,-212.95 743.19,-573.4 0,-428.79 -365.48,-484.91 -684.91,-535.27 -251.08,-38.14 -479.87,-74.1 -479.87,-294.97 0,-194.98 152.53,-306.49 411.52,-306.49 258.29,0 423.77,156.84 438.87,425.91l261.16 0c-27.34,-403.6 -284.18,-644.62 -689.95,-644.62 -433.83,0 -690.66,192.81 -690.66,543.18 0,395.69 342.46,449.65 649.66,497.85 264.03,40.29 512.97,78.43 512.97,337.42 0,210.8 -172.67,332.39 -466.93,332.39 -284.18,0 -464.77,-169.79 -484.91,-456.85l-264.04 0c30.22,426.63 307.21,674.84 743.91,674.84zm1837.47 -1083.49l0 -5.04c317.28,0 505.05,-144.61 505.05,-388.5 0,-269.07 -190.65,-426.63 -515.11,-426.63l-746.07 0 0 1878.48 763.33 0c403.61,0 639.6,-200.73 639.6,-540.3 0,-325.2 -225.91,-518.01 -611.54,-518.01l-35.25 0zm230.94 -304.32c0,189.93 -122.3,299.28 -327.34,299.28l-393.54 0 0 -604.33 393.54 0c205.04,0 327.34,114.39 327.34,305.04zm-720.88 1151.83l0 -654.7 510.09 0c220.87,0 352.52,121.59 352.52,325.2 0,205.04 -131.65,329.5 -352.52,329.5l-510.09 0zm2205.82 235.98c523.04,0 832.4,-357.56 832.4,-964.06 0,-606.5 -309.36,-964.78 -832.4,-964.78 -525.19,0 -835.27,358.28 -835.27,964.78 0,606.5 310.08,964.06 835.27,964.06zm0 -217.99c-355.4,0 -563.32,-276.99 -563.32,-746.07 0,-469.8 207.92,-746.07 563.32,-746.07 350.38,0 558.3,276.27 558.3,746.07 0,469.08 -207.92,746.07 -558.3,746.07zm2672.89 192.81l-619.44 -1878.48 -469.08 0 -624.48 1878.48 271.24 0 147.48 -471.95 860.46 0 146.77 471.95 287.06 0zm-865.5 -1852.58l5.04 0 360.44 1166.94 -728.08 0 362.6 -1166.94zm1753.88 2436.06l0 -2537.49 -122.31 0 0 2537.49 122.31 0zm1603.21 -608.66l-5.04 0 -522.32 -1853.3 -287.06 0 563.34 1878.48 482.03 0 566.21 -1878.48 -271.24 0 -525.91 1853.3zm1333.14 25.18l0 -1878.48 -266.2 0 0 1878.48 266.2 0zm1558.32 -538.15c-91.37,-159.71 -243.89,-248.93 -398.57,-248.93l0 -5.04c410.81,0 654.7,-207.92 654.7,-563.32 0,-327.35 -248.93,-523.04 -667.64,-523.04l-689.95 0 0 1878.48 266.2 0 0 -787.07 405.76 0 446.79 787.07 300.01 0 -317.28 -538.15zm-835.27 -1129.53l441.74 0c235.98,0 375.55,124.46 375.55,332.38 0,218.71 -137.41,345.34 -375.55,345.34l-441.74 0 0 -677.72zm1249.13 -210.8l0 210.8 568.36 0 0 1667.68 266.2 0 0 -1667.68 568.36 0 0 -210.8 -1402.92 0zm2362.67 1903.66c443.89,0 705.78,-253.97 705.78,-677.72l0 -1225.94 -251.81 0 0 1241.77c0,279.14 -166.91,443.91 -446.06,443.91 -282.02,0 -446.77,-164.76 -446.77,-443.91l0 -1241.77 -264.03 0 0 1225.94c0,423.75 261.15,677.72 702.9,677.72zm2627.18 -25.18l-619.44 -1878.48 -469.08 0 -624.48 1878.48 271.24 0 147.48 -471.95 860.46 0 146.77 471.95 287.06 0zm-865.5 -1852.58l5.04 0 360.44 1166.94 -728.08 0 362.6 -1166.94zm1388.55 -25.9l-266.2 0 0 1878.48 1116.59 0 0 -217.99 -850.39 0 0 -1660.49z"/>
 </g>
</svg>
