<?xml version="1.0" encoding="UTF-8"?>
<!DOCTYPE svg PUBLIC "-//W3C//DTD SVG 1.1//EN" "http://www.w3.org/Graphics/SVG/1.1/DTD/svg11.dtd">
<!-- Creator: CorelDRAW 2020 (64 Bit) -->
<svg xmlns="http://www.w3.org/2000/svg" xml:space="preserve" width="227.744mm" height="42.6145mm" version="1.1" style="shape-rendering:geometricPrecision; text-rendering:geometricPrecision; image-rendering:optimizeQuality; fill-rule:evenodd; clip-rule:evenodd"
viewBox="0 0 17230.64 3224.13"
 xmlns:xlink="http://www.w3.org/1999/xlink"
 xmlns:xodm="http://www.corel.com/coreldraw/odm/2003">
 <defs>
  <style type="text/css">
   <![CDATA[
    .fil1 {fill:#004C93;fill-rule:nonzero}
    .fil0 {fill:#F2911D;fill-rule:nonzero}
   ]]>
  </style>
 </defs>
 <g id="Camada_x0020_2">
  <metadata id="CorelCorpID_0Corel-Layer"/>
  <path class="fil0" d="M15416.42 3224.13c-1700.24,0 -1700.24,-300.21 -3400.5,-300.21 -1700.21,0 -1700.21,300.21 -3400.44,300.21 -1700.32,0 -1700.32,-300.21 -3400.64,-300.21 -1700.29,0 -1700.29,300.21 -3400.6,300.21 -223.08,0 -371.08,-328.21 -565.09,-399.69 -201.09,-74.09 -566.22,62.18 -717.76,-72.47 -151.55,-134.68 1.82,-459.11 -81.57,-637.8 -80.45,-172.36 -449.82,-303.87 -449.82,-502.1l337.85 0 -337.85 0 337.85 0c0,0 -337.85,0 -337.85,0 0,-198.22 369.37,-329.76 449.82,-502.13 83.38,-178.67 -69.98,-503.11 81.57,-637.79 151.54,-134.66 516.67,1.63 717.78,-72.47 193.99,-71.48 341.99,-399.69 565.07,-399.69 1700.23,0 1700.23,300.22 3400.5,300.22 1700.21,0 1700.21,-300.22 3400.45,-300.22 1700.32,0 1700.32,300.22 3400.63,300.22 1700.29,0 1700.29,-300.22 3400.61,-300.22 223.08,0 371.07,328.21 565.09,399.69 201.08,74.09 566.21,-62.19 717.76,72.49 151.54,134.66 -1.82,459.1 81.57,637.77 80.44,172.39 449.81,303.9 449.81,502.13l-337.84 0 337.84 0 -337.84 0 337.84 0c0,198.23 -369.37,329.74 -449.81,502.1 -83.38,178.69 69.98,503.14 -81.57,637.8 -151.55,134.65 -516.68,-1.63 -717.76,72.47 -194.02,71.47 -342.01,399.69 -565.09,399.69z"/>
  <path class="fil1" d="M1189.76 978.5l472.55 406.9 412.4 -709.32 -126.62 709.32 533.49 160.06 -563.01 164.65c0,0 374.44,826.31 306.01,745.33 -68.46,-80.98 -489.34,-503.65 -489.34,-503.65l-545.47 459.8 296.75 -523.88 -850.71 -271.28 807.73 -174.75 -253.77 -463.19z"/>
  <path class="fil1" d="M16113.09 978.5l-472.55 406.9 -412.4 -709.32 126.62 709.32 -533.49 160.06 563 164.65c0,0 -374.44,826.31 -306,745.33 68.46,-80.98 489.34,-503.65 489.34,-503.65l545.47 459.8 -296.75 -523.88 850.71 -271.28 -807.73 -174.75 253.77 -463.19z"/>
 </g>
</svg>
