<?xml version="1.0" encoding="UTF-8"?>
<!DOCTYPE svg PUBLIC "-//W3C//DTD SVG 1.1//EN" "http://www.w3.org/Graphics/SVG/1.1/DTD/svg11.dtd">
<!-- Creator: CorelDRAW 2020 (64 Bit) -->
<svg xmlns="http://www.w3.org/2000/svg" xml:space="preserve" width="265.508mm" height="49.6806mm" version="1.1" style="shape-rendering:geometricPrecision; text-rendering:geometricPrecision; image-rendering:optimizeQuality; fill-rule:evenodd; clip-rule:evenodd"
viewBox="0 0 26550.78 4968.06"
 xmlns:xlink="http://www.w3.org/1999/xlink"
 xmlns:xodm="http://www.corel.com/coreldraw/odm/2003">
 <defs>
  <style type="text/css">
   <![CDATA[
    .fil0 {fill:#DE212B;fill-rule:nonzero}
    .fil1 {fill:#F7A81A;fill-rule:nonzero}
   ]]>
  </style>
 </defs>
 <g id="Camada_x0020_2">
  <metadata id="CorelCorpID_0Corel-Layer"/>
  <path class="fil0" d="M23755.23 4968.06c-2619.91,0 -2619.91,-462.6 -5239.85,-462.6 -2619.87,0 -2619.87,462.6 -5239.77,462.6 -2620.01,0 -2620.01,-462.6 -5240.02,-462.6 -2620.01,0 -2620.01,462.6 -5240.02,462.6 -343.75,0 -571.82,-505.74 -870.76,-615.88 -309.85,-114.16 -872.49,95.81 -1106.03,-111.69 -233.5,-207.5 2.82,-707.43 -125.66,-982.77 -123.97,-265.6 -693.1,-468.24 -693.1,-773.68l520.59 0c0,0 -520.59,0 -520.59,0l520.59 0 -520.59 0c0,-305.47 569.13,-508.1 693.1,-773.71 128.48,-275.34 -107.84,-775.3 125.7,-982.77 233.5,-207.5 796.14,2.47 1106.02,-111.69 298.91,-110.13 526.98,-615.87 870.73,-615.87 2619.9,0 2619.9,462.59 5239.81,462.59 2619.9,0 2619.9,-462.59 5239.81,-462.59 2620.01,0 2620.01,462.59 5240.02,462.59 2620.01,0 2620.01,-462.59 5240.02,-462.59 343.74,0 571.81,505.74 870.72,615.87 309.88,114.2 872.53,-95.81 1106.03,111.69 233.54,207.51 -2.82,707.43 125.7,982.77 123.93,265.61 693.1,468.24 693.1,773.71l-520.59 0 520.59 0 -520.59 0c0,0 520.59,0 520.59,0 0,305.44 -569.17,508.08 -693.1,773.68 -128.52,275.34 107.81,775.3 -125.7,982.81 -233.54,207.46 -796.15,-2.51 -1106.03,111.65 -298.91,110.14 -526.98,615.88 -870.72,615.88z"/>
  <path class="fil1" d="M1833.28 1492.22l728.17 627 635.46 -1093.02 -195.13 1093.02 822.08 246.66 -867.55 253.68c0,0 577,1273.25 471.52,1148.5 -105.48,-124.77 -754.02,-776.07 -754.02,-776.07l-840.53 708.52 457.23 -807.26 -1310.85 -418.05 1244.67 -269.27 -391.05 -713.71z"/>
  <path class="fil1" d="M24828.74 1492.22l-728.16 627 -635.46 -1093.02 195.12 1093.02 -822.08 246.66 867.55 253.68c0,0 -577,1273.25 -471.52,1148.5 105.48,-124.77 754.03,-776.07 754.03,-776.07l840.52 708.52 -457.27 -807.26 1310.89 -418.05 -1244.67 -269.27 391.05 -713.71z"/>
 </g>
</svg>
