<?xml version="1.0" encoding="UTF-8"?>
<!DOCTYPE svg PUBLIC "-//W3C//DTD SVG 1.1//EN" "http://www.w3.org/Graphics/SVG/1.1/DTD/svg11.dtd">
<!-- Creator: CorelDRAW 2020 (64 Bit) -->
<svg xmlns="http://www.w3.org/2000/svg" xml:space="preserve" width="31.8269mm" height="32.9061mm" version="1.1" style="shape-rendering:geometricPrecision; text-rendering:geometricPrecision; image-rendering:optimizeQuality; fill-rule:evenodd; clip-rule:evenodd"
viewBox="0 0 1227.67 1269.3"
 xmlns:xlink="http://www.w3.org/1999/xlink"
 xmlns:xodm="http://www.corel.com/coreldraw/odm/2003">
 <defs>
  <style type="text/css">
   <![CDATA[
    .fil2 {fill:#B1CF6F;fill-rule:nonzero}
    .fil1 {fill:#F2911D;fill-rule:nonzero}
    .fil0 {fill:#FFEEC1;fill-rule:nonzero}
   ]]>
  </style>
 </defs>
 <g id="Camada_x0020_1">
  <metadata id="CorelCorpID_0Corel-Layer"/>
  <path class="fil0" d="M960.67 0l14.45 231.34 206.85 60.64 -202.84 60.66c0,0 128.39,217.55 124.82,206.85 -3.56,-10.7 -180.55,-131.94 -180.55,-131.94l-83.38 146.22c0,0 -3.56,-171.2 -17.82,-171.2 -14.28,0 -165.02,-15.13 -165.02,-15.13l165.02 -95.42c0,0 -146.64,-114.17 -135.93,-117.75 10.7,-3.56 190.47,33.32 190.47,33.32l83.92 -207.6z"/>
  <path class="fil1" d="M937.06 149.5l7.93 120.38 113.5 31.56 -111.31 31.57c0,0 70.46,113.21 68.5,107.62 -1.96,-5.56 -99.08,-68.65 -99.08,-68.65l-45.75 76.08c0,0 -1.94,-89.08 -9.78,-89.08 -7.83,0 -90.56,-7.88 -90.56,-7.88l90.56 -49.66c0,0 -80.46,-59.4 -74.59,-61.26 5.87,-1.85 104.52,17.34 104.52,17.34l46.05 -108.02z"/>
  <path class="fil2" d="M863.72 940.77c68.8,-0.5 119.12,-31.5 101.77,-142.58 55.93,44.16 79.14,124.28 55.51,191.59 80.24,13.02 154.94,55.07 206.68,116.35 -79.95,39.41 -177.6,41.46 -258.25,5.43 35.7,15.95 -24.09,116.52 -39.02,127.33 -22.38,16.21 -49.61,24.34 -76.75,29.58 -11.85,2.29 -28.85,0.35 -29.55,-11.69 29.99,-0.2 52.1,-32.37 51.26,-62.34 -4.27,-150.53 -262.5,-192.09 -375.35,-215.63 -85.62,-17.85 -172.7,-27.75 -259.85,-34.17 -72.48,-5.33 -168.83,-25.09 -240.15,-11.08 153.24,-30.1 310.33,-40.37 466.19,-30.81 131.83,8.08 266.18,39 397.53,38.02z"/>
 </g>
</svg>
