<?xml version="1.0" encoding="UTF-8"?>
<!DOCTYPE svg PUBLIC "-//W3C//DTD SVG 1.1//EN" "http://www.w3.org/Graphics/SVG/1.1/DTD/svg11.dtd">
<!-- Creator: CorelDRAW 2020 (64 Bit) -->
<svg xmlns="http://www.w3.org/2000/svg" xml:space="preserve" width="141.486mm" height="32.9061mm" version="1.1" style="shape-rendering:geometricPrecision; text-rendering:geometricPrecision; image-rendering:optimizeQuality; fill-rule:evenodd; clip-rule:evenodd"
viewBox="0 0 14632.37 3403.11"
 xmlns:xlink="http://www.w3.org/1999/xlink"
 xmlns:xodm="http://www.corel.com/coreldraw/odm/2003">
 <defs>
  <style type="text/css">
   <![CDATA[
    .fil2 {fill:#B1CF6F;fill-rule:nonzero}
    .fil1 {fill:#F2911D;fill-rule:nonzero}
    .fil0 {fill:#FFEEC1;fill-rule:nonzero}
   ]]>
  </style>
 </defs>
 <g id="Camada_x0020_1">
  <metadata id="CorelCorpID_0Corel-Layer"/>
  <path class="fil0" d="M715.85 0l-38.74 620.26 -554.59 162.57 543.83 162.65c0,0 -344.23,583.26 -334.66,554.59 9.56,-28.68 484.06,-353.75 484.06,-353.75l223.54 392.02c0,0 9.56,-459 47.79,-459 38.28,0 442.45,-40.57 442.45,-40.57l-442.45 -255.82c0,0 393.16,-306.1 364.44,-315.7 -28.68,-9.56 -510.66,89.34 -510.66,89.34l-225 -556.59z"/>
  <path class="fil1" d="M779.17 400.82l-21.27 322.74 -304.31 84.61 298.44 84.64c0,0 -188.91,303.51 -183.65,288.55 5.25,-14.91 265.6,-184.05 265.6,-184.05l122.7 203.98c0,0 5.21,-238.83 26.23,-238.83 20.98,0 242.8,-21.13 242.8,-21.13l-242.8 -133.13c0,0 215.73,-159.24 199.97,-164.25 -15.73,-4.96 -280.23,46.49 -280.23,46.49l-123.46 -289.61z"/>
  <path class="fil2" d="M975.8 2522.29c-184.46,-1.34 -319.38,-84.46 -272.86,-382.28 -149.95,118.39 -212.18,333.21 -148.82,513.66 -215.14,34.91 -415.4,147.64 -554.12,311.93 214.35,105.66 476.15,111.17 692.4,14.56 -95.7,42.75 64.57,312.41 104.63,341.38 60.01,43.46 133.02,65.27 205.77,79.31 31.78,6.13 77.35,0.95 79.24,-31.34 -80.41,-0.55 -139.7,-86.79 -137.43,-167.14 11.46,-403.58 703.78,-515.01 1006.34,-578.12 229.56,-47.86 463.02,-74.39 696.69,-91.61 194.31,-14.3 452.65,-67.27 643.87,-29.7 -410.84,-80.7 -832.02,-108.25 -1249.9,-82.6 -353.45,21.68 -713.66,104.57 -1065.8,101.94z"/>
  <path class="fil0" d="M13916.53 0l38.74 620.26 554.59 162.57 -543.83 162.65c0,0 344.23,583.26 334.66,554.59 -9.56,-28.68 -484.06,-353.75 -484.06,-353.75l-223.54 392.02c0,0 -9.56,-459 -47.79,-459 -38.28,0 -442.45,-40.57 -442.45,-40.57l442.45 -255.82c0,0 -393.16,-306.1 -364.44,-315.7 28.68,-9.56 510.66,89.34 510.66,89.34l225 -556.59z"/>
  <path class="fil1" d="M13853.2 400.82l21.27 322.74 304.31 84.61 -298.44 84.64c0,0 188.91,303.51 183.65,288.55 -5.25,-14.91 -265.63,-184.05 -265.63,-184.05l-122.67 203.98c0,0 -5.21,-238.83 -26.23,-238.83 -20.98,0 -242.8,-21.13 -242.8,-21.13l242.8 -133.13c0,0 -215.73,-159.24 -199.97,-164.25 15.73,-4.96 280.23,46.49 280.23,46.49l123.46 -289.61z"/>
  <path class="fil2" d="M13656.57 2522.29c184.46,-1.34 319.38,-84.46 272.86,-382.28 149.95,118.39 212.18,333.21 148.82,513.66 215.14,34.91 415.4,147.64 554.12,311.93 -214.35,105.66 -476.15,111.17 -692.4,14.56 95.7,42.75 -64.57,312.41 -104.63,341.38 -60.01,43.46 -133.02,65.27 -205.77,79.31 -31.78,6.13 -77.35,0.95 -79.24,-31.34 80.41,-0.55 139.7,-86.79 137.43,-167.14 -11.46,-403.58 -703.78,-515.01 -1006.34,-578.12 -229.56,-47.86 -463.02,-74.39 -696.69,-91.61 -194.31,-14.3 -452.65,-67.27 -643.87,-29.7 410.84,-80.7 832.02,-108.25 1249.9,-82.6 353.45,21.68 713.66,104.57 1065.8,101.94z"/>
 </g>
</svg>
