<?xml version="1.0" encoding="UTF-8"?>
<!DOCTYPE svg PUBLIC "-//W3C//DTD SVG 1.1//EN" "http://www.w3.org/Graphics/SVG/1.1/DTD/svg11.dtd">
<!-- Creator: CorelDRAW 2020 (64 Bit) -->
<svg xmlns="http://www.w3.org/2000/svg" xml:space="preserve" width="677.333mm" height="31.388mm" version="1.1" style="shape-rendering:geometricPrecision; text-rendering:geometricPrecision; image-rendering:optimizeQuality; fill-rule:evenodd; clip-rule:evenodd"
viewBox="0 0 67733.34 3138.8"
 xmlns:xlink="http://www.w3.org/1999/xlink"
 xmlns:xodm="http://www.corel.com/coreldraw/odm/2003">
 <defs>
  <style type="text/css">
   <![CDATA[
    .fil2 {fill:#97CC87}
    .fil7 {fill:#DE202A}
    .fil5 {fill:#F15B87}
    .fil9 {fill:#F5921C}
    .fil3 {fill:#2C5629;fill-rule:nonzero}
    .fil8 {fill:#6E160C;fill-rule:nonzero}
    .fil1 {fill:#97CC87;fill-rule:nonzero}
    .fil6 {fill:#DE202A;fill-rule:nonzero}
    .fil4 {fill:#F15B87;fill-rule:nonzero}
    .fil0 {fill:#F5921C;fill-rule:nonzero}
   ]]>
  </style>
 </defs>
 <g id="Camada_x0020_1">
  <metadata id="CorelCorpID_0Corel-Layer"/>
  <path class="fil0" d="M33930.76 0c8989.25,6680.19 17249.92,732.54 18202.48,0l-18202.48 0z"/>
  <path class="fil1" d="M37679.64 0c5336.26,3931.33 10240.39,549.38 10970.39,0l-10970.39 0z"/>
  <path class="fil2" d="M37726.06 705.4c-72.81,-40.74 -143.09,-86 -214.17,-129.75 -70.77,-44.31 -142.28,-87.42 -212.51,-132.61 -104.39,-69.28 -248.54,-37 -321.91,72.04 -73.38,109.04 -44.63,255.98 64.24,328.12 72.78,46.85 146.93,91.65 220.34,137.55 73.73,45.4 146.58,92.21 222.22,134.62 113.24,65.47 257.17,25.61 321.45,-89.01 64.31,-114.65 28.64,-258.34 -79.66,-320.96z"/>
  <path class="fil2" d="M38912.06 1319.08l-227.16 -104.07c-75.74,-34.64 -149.54,-73.59 -224.4,-110.14 -56.13,-27.9 -118.96,-29.35 -175.79,-9.52 -56.16,18.69 -106.5,59.16 -137.05,117.33 -30.52,58.21 -35.21,123.23 -17.53,181.58 18.27,57.22 59.16,107.28 117.61,136.38 77.93,38.06 154.73,78.46 233.65,114.58l236.75 108.52c59.05,27.9 124.6,25.85 180.76,2.78 56.23,-23.07 103.36,-67.8 128.9,-128.37 25.51,-60.54 24.84,-125.34 3.78,-180.91 -21.1,-55.63 -62.9,-101.35 -119.52,-128.16z"/>
  <path class="fil2" d="M40160.03 1786.31c-79.3,-24.97 -159,-48.75 -237.98,-74.68l-235.77 -81.7c-59.33,-19.76 -121.14,-15.49 -174.83,10.05 -53.59,25.58 -98.89,71.93 -122.35,133.31 -23.42,61.39 -20.28,126.3 4.41,181.86 24.63,55.56 70.59,102.27 132.68,122.98l246.38 85.37c82.59,27.13 165.92,52.04 248.85,78.14 124.99,40.47 256.9,-36.83 291.64,-162.7 35.25,-127.49 -34.53,-254.1 -153.03,-292.63z"/>
  <path class="fil2" d="M41455.55 2090.43l-245.39 -43.32 -244.05 -50.59c-61.28,-12.1 -122.14,0.84 -171.95,32.7 -49.88,32.21 -88.86,84 -104.24,147.85l0 0.03c-15.42,63.86 -4.03,127.85 27.62,179.82 31.5,52.31 83.36,91.96 147.6,104.7l255.62 52.99 257.11 45.4c129.61,21.91 250.01,-70.59 267.86,-200.1 18.06,-130.88 -67.52,-248.7 -190.18,-269.48z"/>
  <path class="fil2" d="M42779.49 2219.13c-83.08,-0.88 -165.98,-6.74 -248.95,-10.87l-124.39 -6.59 -124.18 -10.27c-62.23,-5.19 -120.86,16.69 -166.12,56.16 -45.19,39.16 -76.87,94.72 -83.68,160.3 -6.74,65.16 12.95,127.96 51.29,174.66 38.31,46.39 95.08,77.86 160.38,83.3l130.1 10.72 130.35 6.95c86.93,4.3 173.78,10.37 260.81,11.36 131.41,2.96 238.3,-100.37 238.79,-232.83 0.46,-130.39 -99.97,-240.14 -224.4,-242.89z"/>
  <path class="fil2" d="M44109.7 2172.75l-248.46 21.69c-82.9,6.42 -165.95,10.38 -248.88,15.7 -124.32,7.16 -222.5,114.73 -219.08,246.81 3.35,130.7 112.71,236 243.84,228.49 86.78,-5.54 173.71,-9.7 260.39,-16.44l259.85 -22.68c130.46,-14.82 222.85,-132.58 206.38,-262.96 -16.51,-130.39 -130.25,-224.72 -254.04,-210.61z"/>
  <path class="fil2" d="M45424.92 1956.65l-244.2 52.63 -245.21 47.03c-122.8,21.73 -206.38,142.45 -186.2,272.66 20.08,129.54 141.54,218.58 270.72,195.72l255.87 -49.07 254.64 -54.89c127.53,-30.38 204.75,-158.37 172.54,-285.79 -32.21,-127.42 -156.74,-207.29 -278.16,-178.29z"/>
  <path class="fil2" d="M46707.04 1584.76c-78.49,28.25 -157.51,54.85 -236.82,80.64 -78.95,26.78 -158.64,51.26 -238.37,75.6 -119.13,37.82 -188.35,165.91 -152.65,293.12l0 0c35.32,125.88 166.94,201.58 291.79,162.07 82.93,-25.33 165.84,-50.87 247.96,-78.7 82.48,-26.78 164.64,-54.47 246.21,-83.82 123.75,-42.66 184.99,-180.73 138.71,-303.43 -46.46,-123.26 -178.61,-186.19 -296.83,-145.48z"/>
  <path class="fil2" d="M47942.02 1073.08c-75.21,36.26 -150.85,71.57 -226.98,105.83 -75.71,35.21 -152.5,67.87 -228.95,101.39 -114.9,49.56 -168.98,186.12 -119.49,308.29 49.25,121.43 187.64,180.62 307.73,128.83 79.34,-34.74 159.03,-68.68 237.6,-105.23 78.98,-35.52 157.48,-72.14 235.48,-109.78 118.21,-55.78 164.39,-199.57 105.44,-316.41l0 0c-59.44,-117.83 -197.63,-166.33 -310.83,-112.92z"/>
  <path class="fil2" d="M49116.28 433.53c-142.14,87.34 -285.96,172.01 -431.38,254 -109.36,60.85 -148.24,203.44 -86.46,319.01l0 0c62.15,116.24 205.42,159.49 319.65,95.92 150.92,-85.09 300.25,-173 447.95,-263.8 111.38,-68.73 142.6,-215.83 71.12,-326.08 -71.5,-110.31 -214.48,-144.71 -320.88,-79.05z"/>
  <polygon class="fil2" points="36253.15,294.91 36395.23,103.99 36472.63,0 35865.9,0 36014.74,115.43 "/>
  <polygon class="fil2" points="35865.9,0 35886.95,16.33 35962.6,74.97 35986.13,93.24 36008.73,110.77 36048.22,140.63 36277.34,313.08 36289.79,322.04 36302.42,330.44 36315.26,338.2 36328.24,345.33 36341.37,351.85 36354.56,357.78 36367.82,363.11 36374.49,365.51 36381.3,367.62 36394.88,371.4 36408.46,374.57 36422.01,377.15 36435.52,379.12 36448.93,380.5 36462.23,381.24 36475.42,381.42 36488.44,380.99 36501.28,379.97 36513.94,378.31 36526.36,376.09 36538.57,373.3 36550.46,369.88 36562.06,365.89 36573.35,361.31 36584.32,356.16 36594.91,350.41 36605.1,344.09 36614.87,337.18 36624.26,329.7 36633.15,321.62 36641.58,312.98 36649.48,303.81 36656.89,294.03 36656.89,294.03 36663.66,283.8 36669.73,273.33 36675.13,262.53 36679.79,251.49 36683.81,240.2 36687.12,228.73 36689.8,217.06 36691.78,205.24 36693.12,193.28 36693.83,181.22 36693.9,169.08 36693.33,156.84 36692.13,144.56 36690.33,132.28 36687.93,119.97 36684.9,107.73 36681.27,95.53 36677.07,83.39 36672.24,71.32 36666.87,59.4 36660.91,47.58 36654.39,35.98 36647.29,24.51 36639.64,13.26 36631.53,2.07 36629.94,0 "/>
  <polygon class="fil2" points="49790.68,0 49787.52,3.98 49779.44,15.05 49771.92,26.34 49764.94,37.84 49758.52,49.56 49752.59,61.37 49747.23,73.26 49742.39,85.33 49738.16,97.46 49734.53,109.67 49731.49,121.91 49729.02,134.22 49727.15,146.53 49725.92,158.85 49725.29,171.09 49725.29,183.29 49725.92,195.39 49727.15,207.35 49729.02,219.17 49731.56,230.85 49734.77,242.35 49738.66,253.67 49743.21,264.75 49748.46,275.62 49754.42,286.16 49761.09,296.46 49768.39,306.31 49776.23,315.58 49784.55,324.3 49793.37,332.45 49802.65,340.07 49812.35,347.05 49822.51,353.51 49833.06,359.36 49843.96,364.66 49855.18,369.28 49866.75,373.33 49878.6,376.79 49890.74,379.65 49903.12,381.91 49915.75,383.57 49928.59,384.62 49941.64,385.08 49954.8,384.94 49968.14,384.16 49981.58,382.82 49995.05,380.81 50008.6,378.1 50022.15,374.82 50035.73,370.9 50049.31,366.35 50062.82,361.23 50076.3,355.48 50089.67,349.1 50102.86,341.97 50115.88,334.25 50128.79,325.89 50135.99,320.82 50162.37,301.34 50193.75,277.89 50274.54,216.5 50274.56,216.49 50275.88,215.46 50335.03,169.12 50346.13,160.27 50396.41,119.41 50416.08,103.19 50459.54,66.4 50532.62,4.58 50538.03,0 "/>
  <polygon class="fil2" points="49945.59,2.88 49945.61,2.9 50023.88,107.97 50055.37,150.23 50166.07,298.8 50226.49,253.37 50286.75,207.05 50346.93,159.71 50409.16,109.05 50538.03,0 49943.46,0 "/>
  <path class="fil3" d="M52324.93 0c6204.42,4610.72 12061.26,3206.33 15408.41,1651.7l0 -1651.7 -15408.41 0z"/>
  <path class="fil4" d="M56073.81 0c5336.31,3931.37 10240.46,549.35 10970.4,0l-10970.4 0z"/>
  <path class="fil5" d="M56120.23 705.41c-72.81,-40.74 -143.08,-86 -214.17,-129.75 -70.77,-44.31 -142.27,-87.42 -212.51,-132.61 -104.39,-69.28 -248.53,-37 -321.91,72.04 -73.38,109.04 -44.63,255.94 64.24,328.12 72.78,46.85 146.93,91.62 220.34,137.55 73.73,45.4 146.58,92.21 222.22,134.62 113.24,65.47 257.17,25.61 321.45,-89.04 64.31,-114.62 28.65,-258.34 -79.66,-320.93z"/>
  <path class="fil5" d="M57306.23 1319.09l-227.16 -104.11c-75.74,-34.6 -149.54,-73.55 -224.44,-110.1 -56.09,-27.9 -118.92,-29.38 -175.75,-9.56 -56.16,18.7 -106.5,59.16 -137.05,117.37 -30.52,58.21 -35.21,123.23 -17.54,181.58 18.28,57.22 59.16,107.28 117.62,136.38 77.93,38.06 154.73,78.46 233.64,114.58l236.75 108.52c59.06,27.9 124.6,25.86 180.77,2.78 56.23,-23.1 103.36,-67.8 128.9,-128.37 25.51,-60.57 24.84,-125.34 3.78,-180.91 -21.13,-55.63 -62.9,-101.35 -119.52,-128.16z"/>
  <path class="fil5" d="M58554.19 1786.32c-79.3,-24.97 -158.96,-48.75 -237.98,-74.68l-235.76 -81.7c-59.34,-19.76 -121.14,-15.53 -174.8,10.01 -53.62,25.58 -98.92,71.97 -122.35,133.35l0 0c-23.46,61.39 -20.32,126.3 4.38,181.86 24.62,55.56 70.59,102.27 132.68,122.98l246.38 85.37c82.58,27.13 165.91,52.04 248.85,78.14 124.99,40.47 256.89,-36.83 291.64,-162.7 35.24,-127.49 -34.54,-254.1 -153.04,-292.63z"/>
  <path class="fil5" d="M59849.71 2090.44l-245.39 -43.32 -244.05 -50.59c-61.28,-12.1 -122.13,0.85 -171.94,32.67 -49.85,32.24 -88.87,84.03 -104.25,147.88 -15.42,63.89 -4.02,127.88 27.62,179.85 31.51,52.31 83.36,91.97 147.61,104.7l255.62 52.95 257.1 45.41c129.61,21.94 250.02,-70.56 267.87,-200.07 18.09,-130.88 -67.52,-248.7 -190.19,-269.48z"/>
  <path class="fil5" d="M61173.66 2219.13c-83.08,-0.85 -165.98,-6.74 -248.95,-10.87l-124.39 -6.59 -124.18 -10.27c-62.23,-5.19 -120.9,16.69 -166.16,56.16 -45.16,39.16 -76.83,94.72 -83.64,160.3 -6.78,65.16 12.94,127.96 51.29,174.66 38.28,46.43 95.07,77.86 160.37,83.3l130.11 10.72 130.35 6.95c86.92,4.34 173.78,10.37 260.81,11.36 131.41,2.96 238.3,-100.37 238.79,-232.83 0.46,-130.39 -99.97,-240.14 -224.4,-242.89z"/>
  <path class="fil5" d="M62503.87 2172.76l-248.46 21.69c-82.9,6.43 -165.94,10.38 -248.88,15.7 -124.32,7.16 -222.5,114.73 -219.08,246.81l0 0c3.35,130.67 112.68,236 243.84,228.49 86.79,-5.54 173.71,-9.74 260.39,-16.44l259.85 -22.72c130.46,-14.78 222.85,-132.54 206.34,-262.92 -16.47,-130.39 -130.21,-224.72 -254,-210.61z"/>
  <path class="fil5" d="M63819.08 1956.65l-244.19 52.64 -245.22 47.02c-122.8,21.73 -206.37,142.46 -186.19,272.63 20.07,129.58 141.53,218.62 270.72,195.76l255.87 -49.11 254.63 -54.86c127.53,-30.37 204.76,-158.36 172.55,-285.78 -32.21,-127.43 -156.74,-207.29 -278.17,-178.3z"/>
  <path class="fil5" d="M65101.21 1584.76c-78.5,28.29 -157.52,54.89 -236.82,80.64 -78.95,26.78 -158.65,51.29 -238.37,75.64 -119.1,37.78 -188.35,165.87 -152.65,293.08 35.31,125.88 166.93,201.58 291.78,162.07 82.94,-25.33 165.84,-50.87 247.97,-78.67 82.48,-26.81 164.64,-54.5 246.2,-83.85 123.76,-42.66 185,-180.73 138.71,-303.43 -46.46,-123.26 -178.61,-186.19 -296.82,-145.48z"/>
  <path class="fil5" d="M66336.18 1073.08c-75.17,36.27 -150.84,71.58 -226.97,105.8 -75.71,35.24 -152.51,67.91 -228.96,101.42 -114.9,49.57 -168.98,186.13 -119.45,308.26 49.22,121.46 187.61,180.66 307.7,128.87 79.34,-34.75 159.03,-68.72 237.59,-105.23 78.99,-35.53 157.48,-72.14 235.48,-109.79 118.22,-55.81 164.39,-199.56 105.45,-316.4 -59.45,-117.83 -197.63,-166.34 -310.84,-112.93z"/>
  <path class="fil5" d="M67510.45 433.53c-142.13,87.34 -285.96,172.01 -431.38,254.03 -109.36,60.82 -148.23,203.41 -86.46,318.98 62.16,116.24 205.38,159.49 319.65,95.92 141.77,-79.93 282.14,-162.35 421.08,-247.32l0 -430.07c-70.15,-34.61 -154.14,-33.96 -222.89,8.46z"/>
  <polygon class="fil5" points="54647.32,294.92 54789.4,103.99 54866.79,0 54260.05,0 54408.89,115.43 "/>
  <polygon class="fil5" points="54260.09,0 54281.12,16.3 54356.78,75 54401.76,109.89 54440.72,139.38 54615.71,271.1 54672.11,313.53 54683.96,322.05 54696.62,330.45 54709.43,338.21 54722.41,345.33 54735.53,351.86 54748.73,357.79 54761.99,363.11 54768.66,365.51 54775.47,367.63 54789.05,371.4 54802.63,374.58 54816.18,377.16 54829.69,379.13 54843.1,380.47 54856.4,381.25 54869.59,381.42 54882.61,381 54895.48,379.94 54908.11,378.32 54920.53,376.1 54932.74,373.31 54944.63,369.89 54956.23,365.9 54967.52,361.32 54978.49,356.16 54989.08,350.41 54999.27,344.06 55009.08,337.15 55018.43,329.67 55027.32,321.63 55035.75,312.98 55043.65,303.81 55051.06,294.04 55057.83,283.81 55063.9,273.3 55069.3,262.54 55073.95,251.5 55077.98,240.21 55081.29,228.74 55083.97,217.06 55085.95,205.25 55087.32,193.29 55087.99,181.22 55088.06,169.05 55087.5,156.85 55086.34,144.57 55084.5,132.29 55082.1,119.98 55079.07,107.74 55075.44,95.53 55071.24,83.36 55066.44,71.33 55061.04,59.41 55055.08,47.59 55048.55,35.95 55041.46,24.52 55033.81,13.26 55025.69,2.08 55024.1,0 "/>
  <path class="fil4" d="M-0 1734.68c7818.78,3729.57 14494.4,-1080.74 15344.87,-1734.68l-15344.87 0 0 1734.68z"/>
  <path class="fil6" d="M891.31 0c5336.26,3931.33 10240.39,549.38 10970.39,0l-10970.39 0z"/>
  <path class="fil7" d="M937.72 705.4c-72.81,-40.74 -143.08,-86 -214.17,-129.75 -70.77,-44.31 -142.27,-87.42 -212.51,-132.61 -104.39,-69.28 -248.53,-37 -321.91,72.04l0 0c-73.38,109.04 -44.63,255.98 64.24,328.12 72.78,46.85 146.93,91.65 220.34,137.55 73.74,45.4 146.62,92.21 222.22,134.62 113.24,65.47 257.17,25.61 321.45,-89.01l0 0c64.31,-114.65 28.65,-258.34 -79.66,-320.96z"/>
  <path class="fil7" d="M2123.72 1319.08l-227.15 -104.07c-75.74,-34.64 -149.55,-73.59 -224.41,-110.14 -56.12,-27.9 -118.95,-29.35 -175.78,-9.52 -56.17,18.69 -106.51,59.16 -137.06,117.33l0 0c-30.51,58.21 -35.21,123.23 -17.53,181.58 18.27,57.22 59.16,107.28 117.61,136.38 77.93,38.06 154.73,78.46 233.65,114.58l236.75 108.52c59.05,27.9 124.6,25.85 180.76,2.78 56.23,-23.07 103.37,-67.8 128.91,-128.37l0 0c25.5,-60.54 24.83,-125.34 3.77,-180.91 -21.09,-55.63 -62.9,-101.35 -119.52,-128.16z"/>
  <path class="fil7" d="M3371.69 1786.31c-79.3,-24.97 -158.99,-48.75 -237.98,-74.68l-235.76 -81.7c-59.34,-19.76 -121.15,-15.49 -174.8,10.05 -53.63,25.58 -98.92,71.93 -122.35,133.31l0 0c-23.46,61.39 -20.32,126.3 4.38,181.86 24.62,55.56 70.59,102.27 132.68,122.98l246.38 85.37c82.58,27.13 165.91,52.04 248.85,78.14 124.99,40.47 256.89,-36.83 291.64,-162.7l0 0c35.24,-127.49 -34.54,-254.1 -153.04,-292.63z"/>
  <path class="fil7" d="M4667.21 2090.43l-245.39 -43.32 -244.05 -50.59c-61.28,-12.1 -122.13,0.84 -171.95,32.7 -49.88,32.21 -88.86,84 -104.24,147.85l0 0.03c-15.42,63.86 -4.02,127.85 27.62,179.82 31.5,52.31 83.36,91.96 147.6,104.7l255.63 52.99 257.1 45.4c129.61,21.91 250.01,-70.59 267.87,-200.1 18.06,-130.88 -67.53,-248.7 -190.19,-269.48z"/>
  <path class="fil7" d="M5991.16 2219.13c-83.12,-0.88 -165.99,-6.74 -248.96,-10.87l-124.42 -6.59 -124.15 -10.27c-62.23,-5.19 -120.89,16.69 -166.15,56.16 -45.16,39.16 -76.84,94.72 -83.65,160.3 -6.77,65.16 12.95,127.96 51.3,174.66 38.31,46.39 95.07,77.86 160.37,83.3l130.1 10.72 130.35 6.95c86.93,4.3 173.78,10.37 260.81,11.36 131.41,2.96 238.3,-100.37 238.8,-232.83 0.46,-130.39 -99.98,-240.14 -224.4,-242.89z"/>
  <path class="fil7" d="M7321.37 2172.75l-248.5 21.69c-82.87,6.42 -165.91,10.38 -248.85,15.7 -124.32,7.16 -222.5,114.73 -219.07,246.81 3.35,130.7 112.71,236 243.84,228.49 86.78,-5.54 173.7,-9.7 260.38,-16.44l259.86 -22.68c130.46,-14.82 222.85,-132.58 206.37,-262.96 -16.51,-130.39 -130.24,-224.72 -254.03,-210.61z"/>
  <path class="fil7" d="M8636.58 1956.65l-244.2 52.63 -245.21 47.03c-122.8,21.73 -206.38,142.45 -186.2,272.66l0 0c20.07,129.54 141.54,218.58 270.72,195.72l255.87 -49.07 254.64 -54.89c127.53,-30.38 204.75,-158.37 172.54,-285.79 -32.21,-127.42 -156.74,-207.29 -278.16,-178.29z"/>
  <path class="fil7" d="M9918.7 1584.76c-78.49,28.25 -157.51,54.85 -236.81,80.64 -78.96,26.78 -158.65,51.26 -238.38,75.6 -119.13,37.82 -188.34,165.91 -152.64,293.12l0 0c35.31,125.88 166.93,201.58 291.78,162.07 82.94,-25.33 165.84,-50.87 247.97,-78.7 82.48,-26.78 164.64,-54.47 246.2,-83.82 123.75,-42.66 185,-180.73 138.71,-303.43 -46.46,-123.26 -178.61,-186.19 -296.83,-145.48z"/>
  <path class="fil7" d="M11153.68 1073.08c-75.21,36.26 -150.85,71.57 -226.98,105.83 -75.7,35.21 -152.5,67.87 -228.95,101.39 -114.9,49.56 -168.98,186.12 -119.45,308.29 49.21,121.43 187.61,180.62 307.69,128.83 79.34,-34.74 159.04,-68.68 237.6,-105.23 78.99,-35.52 157.48,-72.14 235.48,-109.78 118.21,-55.78 164.39,-199.57 105.44,-316.41 -59.44,-117.83 -197.62,-166.33 -310.83,-112.92z"/>
  <path class="fil7" d="M12327.94 433.53c-142.13,87.34 -285.96,172.01 -431.37,254 -109.4,60.85 -148.24,203.44 -86.47,319.01l0 0c62.16,116.24 205.39,159.49 319.65,95.92 150.92,-85.09 300.25,-173 447.96,-263.8 111.37,-68.73 142.59,-215.83 71.12,-326.08 -71.51,-110.31 -214.49,-144.71 -320.89,-79.05z"/>
  <polygon class="fil7" points="13002.34,0 12999.18,3.98 12991.1,15.05 12983.59,26.34 12976.6,37.84 12970.18,49.56 12964.26,61.37 12958.89,73.26 12954.06,85.33 12949.83,97.46 12946.19,109.67 12943.13,121.91 12940.69,134.22 12938.82,146.53 12937.59,158.85 12936.95,171.09 12936.95,183.29 12937.59,195.39 12938.82,207.35 12940.69,219.17 12943.23,230.85 12946.44,242.35 12950.32,253.67 12954.87,264.75 12960.13,275.62 12966.09,286.16 12972.76,296.46 12980.06,306.31 12987.89,315.58 12996.22,324.3 13005.04,332.45 13014.32,340.07 13024.02,347.05 13034.18,353.51 13044.73,359.36 13055.63,364.66 13066.84,369.28 13078.42,373.33 13090.27,376.79 13102.4,379.65 13114.79,381.91 13127.42,383.57 13140.26,384.62 13153.28,385.08 13166.47,384.94 13179.8,384.16 13193.24,382.82 13206.72,380.81 13220.27,378.1 13233.81,374.82 13247.4,370.9 13260.98,366.35 13274.49,361.23 13287.97,355.48 13301.34,349.1 13314.53,341.97 13327.58,334.25 13340.46,325.89 13347.2,321.13 13377,299.12 13403.13,279.6 13480.97,220.5 13486.23,216.49 13546.81,169.03 13557.55,160.46 13609.49,118.26 13626.68,104.09 13650.41,84.02 13671.2,66.4 13731.91,15.05 13744.28,4.58 13749.69,0 "/>
  <polygon class="fil7" points="13155.12,0 13157.26,2.88 13157.28,2.9 13235.54,107.97 13239.87,113.78 13377.73,298.78 13438.19,253.37 13498.41,207.05 13558.63,159.71 13620.86,109.05 13749.73,0 "/>
  <path class="fil8" d="M15536.6 0c8989.24,6680.19 17249.88,732.54 18202.44,0l-18202.44 0z"/>
  <path class="fil0" d="M19285.47 0c5336.31,3931.37 10240.46,549.35 10970.4,0l-10970.4 0z"/>
  <path class="fil9" d="M19331.89 705.41c-72.81,-40.74 -143.08,-86 -214.17,-129.75 -70.77,-44.31 -142.27,-87.42 -212.51,-132.61 -104.39,-69.28 -248.53,-37 -321.91,72.04l0 0c-73.38,109.04 -44.63,255.94 64.24,328.12 72.78,46.85 146.93,91.62 220.34,137.55 73.73,45.4 146.62,92.21 222.22,134.62 113.24,65.47 257.17,25.61 321.45,-89.04 64.31,-114.62 28.64,-258.34 -79.66,-320.93z"/>
  <path class="fil9" d="M20517.89 1319.09l-227.15 -104.11c-75.75,-34.6 -149.55,-73.55 -224.41,-110.1 -56.12,-27.9 -118.95,-29.38 -175.79,-9.56 -56.16,18.7 -106.5,59.16 -137.05,117.37 -30.52,58.21 -35.21,123.23 -17.53,181.58 18.27,57.22 59.16,107.28 117.61,136.38 77.93,38.06 154.73,78.46 233.65,114.58l236.75 108.52c59.05,27.9 124.6,25.86 180.76,2.78 56.23,-23.1 103.36,-67.8 128.91,-128.37 25.5,-60.57 24.83,-125.34 3.77,-180.91 -21.1,-55.63 -62.9,-101.35 -119.52,-128.16z"/>
  <path class="fil9" d="M21765.86 1786.32c-79.3,-24.97 -159,-48.75 -237.98,-74.68l-235.76 -81.7c-59.34,-19.76 -121.15,-15.53 -174.81,10.01 -53.62,25.58 -98.91,71.97 -122.34,133.35l0 0c-23.46,61.39 -20.32,126.3 4.38,181.86 24.62,55.56 70.59,102.27 132.68,122.98l246.38 85.37c82.58,27.13 165.91,52.04 248.84,78.14 124.99,40.47 256.9,-36.83 291.65,-162.7 35.24,-127.49 -34.54,-254.1 -153.04,-292.63z"/>
  <path class="fil9" d="M23061.38 2090.44l-245.39 -43.32 -244.05 -50.59c-61.28,-12.1 -122.13,0.85 -171.95,32.67 -49.88,32.24 -88.86,84.03 -104.24,147.88 -15.42,63.89 -4.02,127.88 27.62,179.85 31.5,52.31 83.36,91.97 147.6,104.7l255.63 52.95 257.1 45.41c129.61,21.94 250.01,-70.56 267.86,-200.07 18.1,-130.88 -67.52,-248.7 -190.18,-269.48z"/>
  <path class="fil9" d="M24385.32 2219.13c-83.11,-0.85 -165.98,-6.74 -248.95,-10.87l-124.43 -6.59 -124.14 -10.27c-62.23,-5.19 -120.9,16.69 -166.16,56.16 -45.15,39.16 -76.83,94.72 -83.64,160.3 -6.77,65.16 12.95,127.96 51.29,174.66 38.32,46.43 95.08,77.86 160.38,83.3l130.1 10.72 130.35 6.95c86.93,4.34 173.78,10.37 260.81,11.36 131.41,2.96 238.3,-100.37 238.8,-232.83 0.45,-130.39 -99.98,-240.14 -224.41,-242.89z"/>
  <path class="fil9" d="M25715.54 2172.76l-248.5 21.69c-82.87,6.43 -165.91,10.38 -248.85,15.7 -124.32,7.16 -222.5,114.73 -219.07,246.81l0 0c3.35,130.67 112.67,236 243.84,228.49 86.78,-5.54 173.7,-9.74 260.38,-16.44l259.86 -22.72c130.45,-14.78 222.85,-132.54 206.37,-262.92 -16.51,-130.39 -130.24,-224.72 -254.03,-210.61z"/>
  <path class="fil9" d="M27030.74 1956.65l-244.19 52.64 -245.21 47.02c-122.81,21.73 -206.38,142.46 -186.2,272.63 20.07,129.58 141.53,218.62 270.72,195.76l255.87 -49.11 254.64 -54.86c127.53,-30.37 204.75,-158.36 172.54,-285.78 -32.21,-127.43 -156.74,-207.29 -278.17,-178.3z"/>
  <path class="fil9" d="M28312.87 1584.76c-78.49,28.29 -157.51,54.89 -236.82,80.64 -78.95,26.78 -158.64,51.29 -238.37,75.64 -119.13,37.78 -188.35,165.87 -152.65,293.08 35.32,125.88 166.94,201.58 291.79,162.07 82.94,-25.33 165.84,-50.87 247.96,-78.67 82.48,-26.81 164.65,-54.5 246.21,-83.85 123.75,-42.66 185,-180.73 138.71,-303.43 -46.46,-123.26 -178.61,-186.19 -296.83,-145.48z"/>
  <path class="fil9" d="M29547.85 1073.08c-75.21,36.27 -150.85,71.58 -226.98,105.8 -75.7,35.24 -152.5,67.91 -228.95,101.42 -114.86,49.57 -168.98,186.13 -119.45,308.26 49.21,121.46 187.61,180.66 307.69,128.87 79.34,-34.75 159.03,-68.72 237.6,-105.23 78.98,-35.53 157.48,-72.14 235.48,-109.79 118.21,-55.81 164.39,-199.56 105.44,-316.4 -59.44,-117.83 -197.62,-166.34 -310.83,-112.93z"/>
  <path class="fil9" d="M30722.11 433.53c-142.13,87.34 -285.96,172.01 -431.37,254.03 -109.36,60.82 -148.24,203.41 -86.47,318.98 62.16,116.24 205.39,159.49 319.65,95.92 150.92,-85.09 300.25,-173 447.96,-263.8 111.37,-68.73 142.59,-215.83 71.12,-326.08 -71.51,-110.31 -214.49,-144.71 -320.89,-79.05z"/>
  <polygon class="fil9" points="17858.98,294.93 18001.07,103.99 18078.46,0 17471.75,0 17620.55,115.43 "/>
  <polygon class="fil9" points="17653.72,140.39 17883.17,313.09 17895.62,322.05 17908.29,330.45 17921.09,338.21 17934.07,345.33 17947.2,351.86 17960.39,357.79 17973.66,363.11 17980.32,365.51 17987.13,367.63 18000.71,371.4 18014.3,374.58 18027.84,377.16 18041.35,379.13 18054.76,380.47 18068.06,381.25 18081.25,381.42 18094.27,381 18107.15,379.94 18119.78,378.32 18132.19,376.1 18144.4,373.31 18156.29,369.89 18167.89,365.9 18179.18,361.32 18190.16,356.16 18200.74,350.41 18210.93,344.06 18220.74,337.15 18230.09,329.67 18238.98,321.63 18247.41,312.98 18255.31,303.81 18262.72,294.04 18269.49,283.81 18275.56,273.3 18280.96,262.54 18285.62,251.5 18289.64,240.21 18292.95,228.74 18295.64,217.06 18297.61,205.25 18298.99,193.29 18299.66,181.22 18299.73,169.05 18299.16,156.85 18298,144.57 18296.16,132.29 18293.77,119.98 18290.73,107.74 18287.1,95.53 18282.9,83.36 18278.1,71.33 18272.71,59.41 18266.74,47.59 18260.22,35.95 18253.13,24.52 18245.47,13.26 18237.36,2.08 18235.77,0 17471.76,0 17492.78,16.3 17612.01,108.79 "/>
  <polygon class="fil9" points="31396.52,0 31393.35,3.99 31385.27,15.06 31377.75,26.35 31370.77,37.85 31364.35,49.57 31358.42,61.38 31353.06,73.27 31348.23,85.3 31343.99,97.44 31340.36,109.68 31337.33,121.92 31334.86,134.23 31332.99,146.54 31331.75,158.82 31331.12,171.1 31331.12,183.3 31331.75,195.4 31332.99,207.36 31334.86,219.18 31337.4,230.86 31340.61,242.36 31344.49,253.68 31349.04,264.76 31354.29,275.59 31360.26,286.17 31366.92,296.44 31374.23,306.32 31382.06,315.6 31390.38,324.31 31399.2,332.46 31408.48,340.04 31418.18,347.06 31428.34,353.52 31438.85,359.38 31449.79,364.67 31461.01,369.29 31472.58,373.35 31484.43,376.8 31496.57,379.62 31508.95,381.92 31521.58,383.54 31534.42,384.63 31547.44,385.06 31560.63,384.92 31573.97,384.18 31587.41,382.8 31600.89,380.79 31614.43,378.11 31627.98,374.83 31641.56,370.91 31655.14,366.36 31668.65,361.24 31682.13,355.49 31695.5,349.11 31708.69,341.98 31721.71,334.26 31734.62,325.9 31741.62,320.97 31770.27,299.8 31797.68,279.32 31880.36,216.5 31886.13,212.01 31939.94,169.85 31951.98,160.26 32005.46,116.81 32019.88,104.92 32057.26,73.29 32065.39,66.4 32138.45,4.59 32143.87,0 "/>
  <polygon class="fil9" points="31549.28,0 31551.43,2.88 31629.71,107.97 31771.91,298.79 31832.34,253.37 31892.6,207.05 31952.75,159.71 32015.01,109.05 32143.88,0 "/>
 </g>
</svg>
