<svg width="125" height="243" viewBox="0 0 125 243" fill="none" xmlns="http://www.w3.org/2000/svg">
<path d="M84.8409 182L83.2858 206.514L61 212.938L82.8516 219.366C82.8516 219.366 69.0193 242.421 69.4048 241.287C69.7902 240.154 88.855 227.307 88.855 227.307L97.8357 242.8C97.8357 242.8 98.2212 224.661 99.7586 224.661C101.296 224.661 117.534 223.058 117.534 223.058L99.7586 212.947C99.7586 212.947 115.554 200.849 114.402 200.47C113.25 200.09 93.8837 204 93.8837 204L84.8409 182Z" fill="#FFEEC1"/>
<path d="M87.3844 197.842L86.5293 210.598L74.3009 213.94L86.29 217.287C86.29 217.287 78.7004 229.281 78.9087 228.693C79.1213 228.104 89.5819 221.419 89.5819 221.419L94.5087 229.481C94.5087 229.481 94.7214 220.042 95.5632 220.042C96.405 220.042 105.319 219.205 105.319 219.205L95.5632 213.945C95.5632 213.945 104.229 207.647 103.6 207.451C102.967 207.255 92.3422 209.29 92.3422 209.29L87.3799 197.842H87.3844Z" fill="#F2911D"/>
<path d="M122.391 26.9924L117.221 16.8953L125 9.45873L114.351 11.6847C114.351 11.6847 114.652 -0.520202 114.762 0.0172427C114.872 0.554687 109.962 9.8399 109.962 9.8399L102.536 5.63945C102.536 5.63945 106.682 12.9426 106.04 13.2818C105.397 13.6173 99 17.8139 99 17.8139L108.82 17.9473C108.82 17.9473 105.097 26.2224 105.666 26.1195C106.235 26.0166 113.392 20.2229 113.392 20.2229L122.387 27L122.391 26.9924Z" fill="#FFEEC1"/>
<path d="M32.8756 114.864C30.9625 119.55 28.6976 124.548 24.2567 127.005C23.5223 126.132 23.7968 124.833 24.1098 123.741C24.4345 122.607 24.7591 121.473 25.0877 120.335C23.0044 122.053 20.5308 123.299 17.9065 123.949C18.9037 120.788 20.3337 117.763 22.1387 114.979C19.553 115.256 16.9093 114.945 14.4628 114.068C17.8176 111.761 21.2497 109.416 25.1611 108.263C27.341 107.621 29.7025 107.328 31.5499 106.014" fill="black"/>
<path d="M59.7161 83.3845C56.9295 84.6685 54.1583 85.9949 51.4103 87.3597C48.21 88.9514 45.0098 90.6161 42.2386 92.869C39.4674 95.1219 37.1175 98.0207 36.0855 101.431C35.2043 104.337 31.3432 105.31 28.7845 106.744C25.7312 108.455 22.7242 110.25 19.7714 112.13C22.2256 112.53 24.7843 112.265 27.1033 111.369C25.1862 113.699 23.532 116.236 22.1754 118.924C24.6915 118.578 26.7361 116.794 28.6145 115.094C27.4086 117.124 26.6356 119.412 26.3651 121.757C30.4001 119.447 32.7732 115.148 35.8884 111.704C36.186 111.377 36.4952 111.05 36.8856 110.839C37.3842 110.569 37.9678 110.516 38.5321 110.458C50.1773 109.266 61.3665 104.037 69.7265 95.8832" fill="#F7A81A"/>
<path d="M89.9862 74.7995C90.0403 74.9303 89.9244 75.0648 89.82 75.1609C88.0498 76.7757 86.2758 78.3904 84.5056 80.0051C85.4448 80.082 86.3956 80.0358 87.3193 79.8705C86.6623 80.2473 81.6262 84.2726 81.6223 84.7032C81.6301 84.0265 81.2668 83.4114 80.915 82.8347C79.8406 81.0739 78.7661 79.3169 77.6916 77.5561C80.772 75.3647 84.1462 75.0764 87.7484 74.5573C88.4402 74.4574 89.1745 74.3651 89.8084 74.6535C89.878 74.6881 89.9553 74.7303 89.9862 74.7995Z" fill="#DE212B"/>
<path d="M74.0987 75.9683C74.8639 75.6915 75.6679 75.4185 76.4756 75.5146C77.898 75.6838 78.9222 76.9025 79.7918 78.0328C80.3561 78.7633 81.0866 79.686 81.4963 80.5125C82.2152 81.9619 82.9495 83.642 82.3311 85.1414C82.0528 85.8104 81.5388 86.3447 81.0209 86.8522C78.4932 89.3474 75.722 91.5964 72.7652 93.5687C69.8433 95.514 67.0296 97.7823 64.0072 99.5316C63.9067 98.2437 64.3048 96.925 65.0971 95.9062C64.3511 96.2214 63.6052 96.5329 62.8592 96.8481C62.6892 96.9212 62.4921 96.9904 62.3297 96.9019C62.0321 96.7366 62.1983 96.2868 62.3955 96.01C62.9056 95.2949 63.4158 94.5798 63.926 93.8686C63.037 94.1646 62.0476 94.1608 61.1587 93.857C60.9422 93.784 60.6948 93.6417 60.6948 93.4111C60.6948 93.265 60.8069 93.1419 60.9074 93.0343C61.5877 92.3307 62.2679 91.6272 62.9481 90.9236C61.6224 91.3581 60.0069 91.7425 58.9556 90.8314C58.859 90.7468 58.7624 90.6391 58.7585 90.5084C58.7585 90.3585 58.8783 90.2355 58.9904 90.1355C59.7904 89.4242 60.5905 88.7092 61.3906 87.9979C60.0649 88.367 58.5575 87.9941 57.5642 87.0483C58.4995 86.3294 59.4658 85.6489 60.4514 84.9992C59.1218 85.249 57.6956 84.9261 56.6057 84.1303C62.4573 81.4275 68.0113 78.1827 74.0948 75.9721L74.0987 75.9683Z" fill="#F7A81A"/>
<path d="M68.4921 72.1583C66.5944 72.1737 64.7199 72.5351 62.8608 72.8927C65.3963 72.7735 67.9549 73.1118 70.3705 73.8846C67.5143 73.9115 64.6658 74.5535 62.0762 75.753C64.5344 75.7722 66.9925 75.7953 69.4506 75.8145C67.1703 76.3066 64.7353 76.8833 63.1584 78.598C64.7856 78.252 66.4089 77.9098 68.036 77.5638C69.5279 77.2486 71.0314 76.9295 72.5581 76.8833C74.8307 76.818 77.8841 77.8983 79.9828 77.0563C78.572 73.6808 71.7117 72.1276 68.496 72.1583H68.4921Z" fill="black"/>
<path d="M75.7363 79.2862C76.6562 79.0555 77.3673 80.0628 77.777 80.9124C77.9239 81.2161 78.0746 81.566 77.9471 81.8812C77.8775 82.0542 77.7384 82.185 77.5992 82.308C76.8958 82.95 75.945 83.6382 75.0715 83.2499C74.6734 83.0731 74.399 82.7001 74.2174 82.3041C73.8772 81.5544 73.854 80.6125 74.3526 79.9513C74.8512 79.2938 75.9373 79.0862 76.5286 79.6629" fill="black"/>
<path d="M70.0195 144.848C66.2936 149.88 61.3658 154.032 55.7615 156.858C54.5015 155.97 53.4077 154.847 52.5613 153.563C52.3487 153.244 52.1439 152.883 52.1786 152.498C52.2134 152.087 52.511 151.756 52.7932 151.456C55.2629 148.834 57.7327 146.212 60.2024 143.59C56.8746 145.447 53.543 147.304 50.2152 149.165C48.9823 147.504 47.9001 145.728 46.9841 143.875C50.1804 142.153 52.828 139.438 54.459 136.209C52.2637 137.681 49.9795 139.019 47.6179 140.211C46.9145 140.565 46.0526 140.907 45.3762 140.503C45.0477 140.307 44.8351 139.969 44.6419 139.638C43.9887 138.527 43.4051 137.378 42.8988 136.193C45.5308 134.19 47.8537 131.788 49.7592 129.089C47.7262 131.053 45.1212 132.43 42.3422 132.999C41.9673 131.488 41.5886 129.977 41.2136 128.466C41.1209 128.097 41.0281 127.708 41.117 127.339C41.2755 126.67 41.948 126.282 42.5277 125.905C44.1317 124.867 45.442 123.383 46.2691 121.669C44.4564 123.137 42.4736 124.394 40.3672 125.402C39.857 123.629 39.3468 121.861 38.8367 120.089C40.5025 118.451 41.7702 116.413 42.5007 114.203C41.2291 115.594 39.6676 116.725 37.94 117.497C37.2829 115.959 36.6259 114.425 35.9688 112.888C38.6898 109.812 41.0938 106.46 43.1346 102.899C44.3134 107.559 45.6352 112.476 49.1137 115.813" fill="#B1CF6F"/>
<path d="M65.5784 147.731C60.8013 140.515 56.229 133.16 51.877 125.686C49.6623 121.88 47.5018 118.047 45.3992 114.179C43.9421 111.5 40.9893 108.074 42.0599 104.853C42.5894 103.261 43.7064 101.946 44.8002 100.67C48.0313 96.9058 50.675 93.3342 55.1159 90.8314C56.6619 89.9625 58.3509 89.1859 60.1288 89.2398C62.5637 89.3128 64.7436 90.9814 65.9765 93.0728C67.422 95.5218 67.1244 98.4629 68.7245 100.723C70.4058 103.096 73.2195 104.195 74.9858 106.456C76.8487 108.843 76.9608 112.103 76.9492 115.121C76.926 120.961 76.7212 126.84 75.4264 132.537C74.1317 138.231 71.6735 143.775 67.6346 148.008C67.3679 148.285 67.0548 148.577 66.6683 148.577C66.1852 148.577 65.8412 148.131 65.5784 147.731Z" fill="#F7A81A"/>
<path d="M72.8838 118.578C71.8557 115.648 71.1329 112.611 70.7271 109.531C70.5609 108.255 72.4045 107.809 73.4094 108.255C74.4259 108.709 74.5959 109.701 74.7892 110.7C75.3187 113.418 74.5998 116.402 72.8838 118.578Z" fill="#DE212B"/>
<path d="M56.5143 106.663C57.3491 103.672 58.4932 100.766 59.9232 98.0054C60.5146 96.8635 62.2886 97.5402 62.8567 98.4744C63.4326 99.424 63.0036 100.331 62.5901 101.266C61.4692 103.799 59.1695 105.844 56.5143 106.663Z" fill="#DE212B"/>
<path d="M47.6359 102.876C49.1471 100.158 50.9366 97.5978 52.9696 95.2411C53.8121 94.2646 55.3775 95.3334 55.7137 96.3753C56.0538 97.4325 55.4238 98.2168 54.8054 99.028C53.1242 101.235 50.4109 102.692 47.6359 102.873V102.876Z" fill="#DE212B"/>
<path d="M66.4646 125.156C66.0355 122.08 65.9273 118.962 66.1399 115.863C66.2288 114.579 68.1265 114.502 69.0193 115.137C69.9121 115.771 69.8967 116.786 69.8889 117.805C69.8696 120.573 68.5748 123.356 66.4646 125.156Z" fill="#DE212B"/>
<path d="M58.706 133.618C58.7446 130.515 59.1002 127.412 59.7727 124.383C60.051 123.126 61.941 123.33 62.7295 124.091C63.5334 124.86 63.3478 125.848 63.1894 126.855C62.7565 129.589 61.0598 132.153 58.7021 133.618H58.706Z" fill="#DE212B"/>
<path d="M56.4654 121.423C56.5041 118.32 56.8597 115.217 57.5322 112.188C57.8104 110.931 59.7004 111.135 60.4889 111.896C61.2928 112.665 61.1073 113.653 60.9488 114.66C60.5159 117.394 58.8192 119.958 56.4616 121.423H56.4654Z" fill="#DE212B"/>
<path d="M48.2132 114.683C49.0867 111.704 50.2655 108.812 51.7265 106.067C52.3333 104.929 54.0958 105.633 54.6562 106.575C55.2205 107.532 54.7799 108.436 54.3547 109.362C53.2029 111.88 50.8762 113.899 48.2132 114.683Z" fill="#DE212B"/>
<path d="M67.5474 106.725C67.5976 106.613 67.787 106.66 67.8334 106.771C67.8798 106.882 67.8334 107.009 67.7832 107.125C66.9445 109.059 65.7772 110.846 64.3433 112.396C64.065 110.089 64.0728 107.748 64.3665 105.445C64.4786 104.56 64.6487 103.642 65.1975 102.938C65.3791 102.707 65.611 102.496 65.897 102.438C66.2256 102.369 66.558 102.507 66.8633 102.642C67.2807 102.826 67.6981 103.011 68.1156 103.196C68.4132 103.326 68.7417 103.492 68.8344 103.799C68.904 104.034 68.8151 104.287 68.7224 104.514C68.2933 105.602 67.8682 106.694 67.4392 107.782" fill="#DE212B"/>
<path d="M70.8122 131.88C70.8625 131.768 71.0519 131.814 71.0983 131.926C71.1446 132.037 71.0983 132.164 71.048 132.28C70.2093 134.213 69.0421 136.001 67.6082 137.551C67.3299 135.244 67.3376 132.902 67.6314 130.6C67.7434 129.715 67.9135 128.796 68.4623 128.093C68.644 127.862 68.8759 127.651 69.1619 127.593C69.4904 127.524 69.8228 127.662 70.1281 127.797C70.5456 127.981 70.963 128.166 71.3804 128.351C71.678 128.481 72.0065 128.647 72.0993 128.954C72.1689 129.189 72.08 129.442 71.9872 129.669C71.5582 130.757 71.133 131.849 70.704 132.937" fill="#DE212B"/>
<path d="M17.6012 54.2542C11.3515 54.9308 5.2719 57.0838 3.8147e-05 60.4823C0.139179 62.0125 0.564327 63.5157 1.25616 64.8921C1.43009 65.2342 1.6388 65.5918 1.98665 65.7571C2.36155 65.9339 2.79829 65.8417 3.20412 65.7494C6.72513 64.942 10.2423 64.1347 13.7633 63.3273C10.4742 65.2573 7.18893 67.1873 3.89982 69.1172C4.72693 71.0126 5.72023 72.8349 6.87587 74.5535C9.97946 72.6696 13.6667 71.7546 17.2959 71.9738C14.9151 73.1233 12.6038 74.4189 10.3814 75.8491C9.72051 76.2758 8.99002 76.8448 9.00162 77.633C9.00548 78.0136 9.19487 78.3673 9.38425 78.6979C10.022 79.8167 10.7293 80.897 11.5023 81.9273C14.5634 80.6702 17.8215 79.8782 21.1223 79.5975C18.3936 80.3588 15.889 81.912 13.9991 84.0111C15.1238 85.0953 16.2485 86.1756 17.3732 87.2598C17.6476 87.525 17.9375 87.798 18.3047 87.9095C18.9656 88.1094 19.642 87.725 20.2604 87.4174C21.9687 86.5601 23.9167 86.1794 25.8221 86.3294C23.6345 87.1483 21.5474 88.2248 19.611 89.5281C20.8942 90.8544 22.1774 92.1847 23.4606 93.511C25.7216 92.9036 28.1256 92.8344 30.4176 93.3188C28.5662 93.7148 26.8038 94.4914 25.2655 95.5871C26.2704 96.925 27.2753 98.2629 28.2802 99.6008C32.323 98.8088 36.4431 98.4244 40.5632 98.4551C37.104 95.1027 33.4941 91.4926 32.3424 86.8253" fill="#B1CF6F"/>
<path d="M12.8669 56.6263C16.7397 64.3615 20.8366 71.9853 25.146 79.4861C27.3414 83.3037 29.5908 87.0868 31.8943 90.8352C33.4906 93.4342 34.9863 97.6939 38.3218 98.3898C39.9683 98.7358 41.6766 98.4321 43.3347 98.1322C48.2278 97.2441 52.661 96.7674 57.0709 94.2031C58.6053 93.3111 60.1243 92.2462 60.9707 90.693C62.1341 88.5631 61.7785 85.8488 60.5804 83.7382C59.1774 81.2623 56.4719 80.0435 55.3124 77.5292C54.0949 74.8918 54.5548 71.92 53.4726 69.2634C52.3324 66.4645 49.5574 64.7268 46.9253 63.2197C41.839 60.3055 36.6251 57.5297 31.0208 55.7843C25.4205 54.0389 19.3679 53.3661 13.6554 54.7155C13.2805 54.8039 12.8669 54.9308 12.6737 55.2614C12.4341 55.6767 12.6466 56.1957 12.8592 56.6263H12.8669Z" fill="#F7A81A"/>
<path d="M41.8769 64.9844C43.9099 67.3411 46.1864 69.4864 48.6561 71.3817C49.6804 72.166 50.9945 70.8051 51.1143 69.717C51.2341 68.6137 50.4534 67.9716 49.6842 67.3027C47.5894 65.4803 44.6327 64.6038 41.8808 64.9844H41.8769Z" fill="#DE212B"/>
<path d="M44.0081 85.0492C47.0267 85.8335 50.1264 86.3102 53.2455 86.4678C54.5364 86.5332 54.8378 84.6686 54.3122 83.7074C53.7788 82.7348 52.7701 82.6463 51.7536 82.5348C48.9901 82.2273 46.0566 83.1769 44.012 85.0492H44.0081Z" fill="#DE212B"/>
<path d="M42.84 94.5914C45.9591 94.6567 49.0859 94.4068 52.1547 93.8378C53.4262 93.6033 53.2832 91.7195 52.5489 90.9083C51.8029 90.0855 50.8019 90.2316 49.7854 90.3585C47.0258 90.6968 44.3937 92.3 42.84 94.5914Z" fill="#DE212B"/>
<path d="M32.9349 67.2027C35.393 69.1134 38.0483 70.7743 40.8465 72.1506C42.006 72.7196 43.0264 71.128 42.9259 70.0399C42.8254 68.9366 41.9326 68.4598 41.0436 67.9523C38.628 66.576 35.5553 66.2915 32.931 67.2065L32.9349 67.2027Z" fill="#DE212B"/>
<path d="M21.6788 69.6248C24.3958 71.1511 27.2714 72.4005 30.2436 73.3463C31.4765 73.7385 32.2457 72.0122 31.9828 70.9511C31.7162 69.8747 30.7654 69.5325 29.8107 69.1634C27.2173 68.16 24.1369 68.333 21.6788 69.6248Z" fill="#DE212B"/>
<path d="M31.1568 77.6791C33.8738 79.2054 36.7494 80.4549 39.7216 81.4007C40.9545 81.7928 41.7237 80.0666 41.4608 79.0055C41.1942 77.929 40.2434 77.5869 39.2887 77.2178C36.6953 76.2144 33.6149 76.3874 31.1568 77.6791Z" fill="#DE212B"/>
<path d="M32.8673 88.1633C35.8975 88.913 39.0011 89.3474 42.1201 89.4666C43.411 89.5166 43.6893 87.6481 43.1521 86.6946C42.6149 85.7412 41.5984 85.6528 40.578 85.5528C37.8107 85.276 34.8887 86.2641 32.8673 88.1633Z" fill="#DE212B"/>
<path d="M49.4979 75.5339C49.6216 75.5454 49.6757 75.3609 49.5984 75.2648C49.525 75.1687 49.3897 75.1456 49.266 75.1302C47.1673 74.8803 45.0223 74.9841 42.9584 75.4416C44.8252 76.8372 46.862 78.006 49.0109 78.9133C49.8342 79.2593 50.7193 79.5745 51.6082 79.4554C51.8981 79.4169 52.1996 79.3208 52.3967 79.1055C52.6209 78.8595 52.6672 78.5019 52.702 78.1713C52.7523 77.7215 52.8025 77.2678 52.8528 76.818C52.8875 76.4989 52.9107 76.1298 52.6866 75.8953C52.5165 75.7146 52.2537 75.6685 52.0102 75.63C50.8507 75.4493 49.6873 75.2686 48.5278 75.0918" fill="#DE212B"/>
<path d="M29.2738 60.0864C29.3974 60.0979 29.4515 59.9134 29.3742 59.8173C29.2969 59.7212 29.1655 59.6981 29.0419 59.6827C26.9432 59.4328 24.7981 59.5366 22.7342 59.9941C24.601 61.3897 26.6378 62.5584 28.7868 63.4658C29.61 63.8118 30.4951 64.127 31.384 64.0079C31.6739 63.9694 31.9754 63.8733 32.1725 63.658C32.3967 63.4119 32.4431 63.0544 32.4778 62.7238C32.5281 62.274 32.5783 61.8203 32.6286 61.3705C32.6634 61.0514 32.6866 60.6823 32.4624 60.4478C32.2923 60.2671 32.0295 60.221 31.786 60.1825C30.6265 60.0018 29.4631 59.8211 28.3036 59.6443" fill="#DE212B"/>
</svg>
