<svg width="873" height="317" viewBox="0 0 873 317" fill="none" xmlns="http://www.w3.org/2000/svg">
<path d="M91.5914 46.9929L86.8191 37.6438L94 30.7581L84.1704 32.8192C84.1704 32.8192 84.448 21.5183 84.5493 22.016C84.6506 22.5136 80.1185 31.111 80.1185 31.111L73.264 27.2217C73.264 27.2217 77.0908 33.9839 76.498 34.298C75.9053 34.6086 70 38.4943 70 38.4943L79.0642 38.6179C79.0642 38.6179 75.6276 46.28 76.1529 46.1847C76.6781 46.0894 83.285 40.7249 83.285 40.7249L91.5876 47L91.5914 46.9929Z" fill="#FFEEC1"/>
<path d="M418.788 87.991L412.426 76.024L422 67.2104L408.894 69.8486C408.894 69.8486 409.264 55.3835 409.399 56.0204C409.534 56.6574 403.491 67.6621 403.491 67.6621L394.352 62.6838C394.352 62.6838 399.454 71.3394 398.664 71.7414C397.874 72.139 390 77.1128 390 77.1128L402.086 77.2709C402.086 77.2709 397.504 87.0784 398.204 86.9565C398.904 86.8345 407.713 79.9678 407.713 79.9678L418.783 88L418.788 87.991Z" fill="#FFEEC1"/>
<path d="M28.8457 169L26.9641 198.66L0 206.433L26.4387 214.21C26.4387 214.21 9.70278 242.104 10.1692 240.733C10.6355 239.362 33.7024 223.818 33.7024 223.818L44.5684 242.563C44.5684 242.563 45.0348 220.617 46.895 220.617C48.7551 220.617 68.4019 218.677 68.4019 218.677L46.895 206.443C46.895 206.443 66.0057 191.806 64.6119 191.347C63.2181 190.888 39.7867 195.618 39.7867 195.618L28.8457 169Z" fill="#FFEEC1"/>
<path d="M31.9231 188.167L30.8885 203.601L16.0931 207.645L30.599 211.695C30.599 211.695 21.4162 226.206 21.6682 225.494C21.9255 224.782 34.582 216.694 34.582 216.694L40.543 226.449C40.543 226.449 40.8003 215.027 41.8188 215.027C42.8374 215.027 53.623 214.015 53.623 214.015L41.8188 207.651C41.8188 207.651 52.3043 200.031 51.5431 199.794C50.7765 199.557 37.9216 202.019 37.9216 202.019L31.9177 188.167H31.9231Z" fill="#F2911D"/>
<g clip-path="url(#clip0_342_5178)">
<path d="M521.399 193.043C524.46 200.516 528.084 208.484 535.19 212.402C536.364 211.01 535.925 208.938 535.425 207.197C534.905 205.389 534.386 203.581 533.86 201.766C537.193 204.506 541.151 206.492 545.35 207.528C543.754 202.489 541.466 197.665 538.578 193.227C542.715 193.668 546.945 193.172 550.86 191.774C545.492 188.096 540.001 184.357 533.742 182.518C530.255 181.494 526.476 181.029 523.52 178.932" fill="black"/>
<path d="M478.457 142.851C482.916 144.898 487.35 147.013 491.747 149.189C496.867 151.727 501.987 154.381 506.421 157.974C510.855 161.566 514.615 166.188 516.266 171.625C517.676 176.259 523.854 177.81 527.948 180.097C532.833 182.824 537.644 185.687 542.369 188.685C538.442 189.322 534.348 188.899 530.638 187.471C533.705 191.186 536.352 195.231 538.522 199.516C534.497 198.964 531.225 196.12 528.22 193.411C530.149 196.647 531.386 200.295 531.819 204.034C525.363 200.35 521.566 193.497 516.582 188.004C516.105 187.483 515.611 186.962 514.986 186.625C514.188 186.196 513.255 186.11 512.352 186.018C493.719 184.118 475.817 175.781 462.441 162.779" fill="#F7A81A"/>
<path d="M430.024 129.163C429.938 129.372 430.123 129.586 430.29 129.74C433.123 132.314 435.961 134.889 438.793 137.463C437.291 137.586 435.769 137.512 434.291 137.249C435.343 137.849 443.4 144.267 443.407 144.954C443.394 143.875 443.976 142.894 444.538 141.975C446.257 139.167 447.977 136.366 449.696 133.558C444.767 130.064 439.368 129.605 433.605 128.777C432.498 128.618 431.323 128.471 430.309 128.93C430.198 128.986 430.074 129.053 430.024 129.163Z" fill="#DE212B"/>
<path d="M455.447 131.027C454.222 130.585 452.936 130.15 451.644 130.303C449.368 130.573 447.729 132.516 446.338 134.318C445.435 135.483 444.266 136.954 443.611 138.272C442.46 140.583 441.285 143.262 442.275 145.653C442.72 146.719 443.543 147.571 444.371 148.38C448.416 152.359 452.85 155.945 457.58 159.089C462.255 162.191 466.757 165.808 471.593 168.597C471.754 166.543 471.117 164.441 469.849 162.816C471.043 163.319 472.236 163.816 473.43 164.318C473.702 164.435 474.017 164.545 474.277 164.404C474.753 164.141 474.487 163.423 474.172 162.982C473.356 161.842 472.539 160.702 471.723 159.568C473.145 160.04 474.728 160.033 476.151 159.549C476.497 159.433 476.893 159.206 476.893 158.838C476.893 158.605 476.713 158.409 476.553 158.237C475.464 157.116 474.376 155.994 473.288 154.872C475.409 155.565 477.994 156.178 479.676 154.725C479.83 154.59 479.985 154.418 479.991 154.21C479.991 153.971 479.799 153.775 479.62 153.615C478.34 152.481 477.06 151.341 475.78 150.207C477.901 150.796 480.313 150.201 481.902 148.693C480.405 147.547 478.859 146.462 477.282 145.426C479.41 145.824 481.692 145.309 483.435 144.04C474.073 139.731 465.187 134.558 455.453 131.033L455.447 131.027Z" fill="#F7A81A"/>
<path d="M464.414 124.952C467.45 124.976 470.45 125.553 473.424 126.123C469.367 125.933 465.274 126.472 461.409 127.704C465.978 127.747 470.536 128.771 474.679 130.683C470.746 130.714 466.813 130.751 462.88 130.781C466.529 131.566 470.425 132.486 472.948 135.22C470.344 134.668 467.747 134.122 465.144 133.571C462.757 133.068 460.351 132.559 457.908 132.486C454.272 132.381 449.387 134.104 446.029 132.761C448.286 127.379 459.263 124.903 464.408 124.952H464.414Z" fill="black"/>
<path d="M452.824 136.317C451.352 135.949 450.215 137.555 449.559 138.91C449.324 139.394 449.083 139.952 449.287 140.454C449.398 140.73 449.621 140.939 449.844 141.135C450.969 142.158 452.49 143.256 453.888 142.636C454.525 142.355 454.964 141.76 455.255 141.129C455.799 139.933 455.836 138.431 455.038 137.377C454.24 136.329 452.503 135.998 451.557 136.917" fill="black"/>
<path d="M461.972 240.85C467.933 248.874 475.817 255.494 484.784 260C486.8 258.584 488.55 256.794 489.905 254.746C490.245 254.238 490.572 253.661 490.517 253.048C490.461 252.393 489.985 251.865 489.533 251.387C485.582 247.207 481.63 243.026 477.679 238.845C483.003 241.806 488.334 244.767 493.658 247.734C495.631 245.086 497.362 242.254 498.828 239.299C493.714 236.553 489.478 232.225 486.868 227.076C490.381 229.424 494.035 231.557 497.814 233.457C498.939 234.021 500.318 234.567 501.401 233.923C501.926 233.61 502.266 233.071 502.576 232.544C503.621 230.772 504.554 228.939 505.364 227.051C501.153 223.858 497.437 220.027 494.388 215.723C497.641 218.856 501.809 221.05 506.255 221.957C506.855 219.548 507.461 217.139 508.061 214.73C508.209 214.142 508.358 213.523 508.215 212.934C507.962 211.868 506.886 211.249 505.958 210.648C503.392 208.993 501.295 206.627 499.972 203.893C502.872 206.234 506.045 208.239 509.415 209.845C510.231 207.019 511.048 204.199 511.864 201.373C509.199 198.762 507.17 195.513 506.001 191.988C508.036 194.207 510.534 196.01 513.299 197.242C514.35 194.79 515.401 192.344 516.452 189.892C512.099 184.988 508.252 179.643 504.987 173.966C503.101 181.396 500.986 189.236 495.421 194.557" fill="#B1CF6F"/>
<path d="M469.077 245.447C476.72 233.942 484.036 222.215 490.999 210.299C494.542 204.23 497.999 198.118 501.363 191.952C503.694 187.679 508.419 182.217 506.706 177.08C505.859 174.543 504.072 172.446 502.322 170.411C497.152 164.41 492.922 158.715 485.817 154.725C483.343 153.339 480.641 152.101 477.796 152.187C473.9 152.303 470.412 154.964 468.44 158.298C466.127 162.203 466.603 166.893 464.043 170.497C461.353 174.279 456.851 176.032 454.025 179.637C451.044 183.443 450.865 188.641 450.883 193.453C450.92 202.765 451.248 212.137 453.32 221.222C455.391 230.3 459.324 239.14 465.787 245.889C466.213 246.33 466.714 246.796 467.333 246.796C468.106 246.796 468.656 246.085 469.077 245.447Z" fill="#F7A81A"/>
<path d="M457.389 198.964C459.034 194.293 460.19 189.451 460.84 184.541C461.105 182.506 458.156 181.794 456.548 182.506C454.921 183.229 454.649 184.81 454.34 186.404C453.493 190.738 454.643 195.495 457.389 198.964Z" fill="#DE212B"/>
<path d="M483.578 179.968C482.243 175.199 480.412 170.565 478.124 166.163C477.178 164.343 474.34 165.422 473.431 166.911C472.509 168.425 473.196 169.872 473.857 171.361C475.651 175.401 479.33 178.662 483.578 179.968Z" fill="#DE212B"/>
<path d="M497.789 173.93C495.371 169.596 492.508 165.513 489.255 161.756C487.907 160.199 485.402 161.903 484.864 163.564C484.32 165.25 485.328 166.5 486.318 167.793C489.008 171.312 493.349 173.635 497.789 173.923V173.93Z" fill="#DE212B"/>
<path d="M467.66 209.453C468.346 204.549 468.52 199.577 468.179 194.636C468.037 192.589 465.001 192.466 463.572 193.478C462.144 194.489 462.169 196.108 462.181 197.732C462.212 202.146 464.283 206.584 467.66 209.453Z" fill="#DE212B"/>
<path d="M480.072 222.945C480.01 217.998 479.441 213.051 478.365 208.221C477.92 206.216 474.896 206.541 473.635 207.755C472.348 208.981 472.645 210.556 472.899 212.162C473.591 216.521 476.306 220.609 480.078 222.945H480.072Z" fill="#DE212B"/>
<path d="M483.658 203.5C483.597 198.554 483.028 193.607 481.952 188.776C481.506 186.772 478.482 187.097 477.221 188.31C475.935 189.536 476.231 191.112 476.485 192.718C477.178 197.076 479.892 201.165 483.665 203.5H483.658Z" fill="#DE212B"/>
<path d="M496.861 192.755C495.464 188.004 493.578 183.394 491.24 179.018C490.269 177.203 487.449 178.325 486.553 179.827C485.65 181.353 486.355 182.794 487.035 184.271C488.878 188.286 492.6 191.504 496.861 192.755Z" fill="#DE212B"/>
<path d="M465.929 180.066C465.849 179.888 465.546 179.962 465.472 180.139C465.398 180.317 465.472 180.52 465.552 180.703C466.894 183.787 468.762 186.637 471.056 189.108C471.501 185.43 471.489 181.696 471.019 178.025C470.84 176.615 470.567 175.15 469.689 174.028C469.399 173.66 469.028 173.323 468.57 173.231C468.044 173.121 467.513 173.341 467.024 173.556C466.356 173.85 465.688 174.144 465.02 174.439C464.544 174.647 464.019 174.911 463.87 175.401C463.759 175.775 463.901 176.18 464.05 176.541C464.736 178.276 465.416 180.017 466.103 181.752" fill="#DE212B"/>
<path d="M460.704 220.174C460.623 219.996 460.32 220.07 460.246 220.247C460.172 220.425 460.246 220.627 460.327 220.811C461.669 223.895 463.536 226.745 465.83 229.215C466.276 225.538 466.263 221.804 465.793 218.133C465.614 216.723 465.342 215.258 464.464 214.136C464.173 213.768 463.802 213.431 463.344 213.339C462.819 213.229 462.287 213.449 461.798 213.664C461.131 213.958 460.463 214.252 459.795 214.547C459.319 214.755 458.793 215.019 458.645 215.509C458.533 215.883 458.676 216.287 458.824 216.649C459.51 218.384 460.191 220.125 460.877 221.86" fill="#DE212B"/>
<path d="M545.839 96.4048C555.838 97.4837 565.566 100.916 574.001 106.335C573.778 108.775 573.098 111.172 571.991 113.366C571.713 113.912 571.379 114.482 570.822 114.746C570.222 115.027 569.523 114.88 568.874 114.733C563.24 113.446 557.613 112.159 551.979 110.871C557.242 113.949 562.498 117.026 567.761 120.103C566.438 123.125 564.848 126.031 562.999 128.771C558.034 125.767 552.134 124.308 546.327 124.658C550.137 126.49 553.835 128.556 557.39 130.837C558.448 131.517 559.617 132.424 559.598 133.681C559.592 134.288 559.289 134.852 558.986 135.379C557.966 137.163 556.834 138.885 555.597 140.528C550.699 138.523 545.486 137.261 540.205 136.813C544.571 138.027 548.578 140.503 551.602 143.85C549.803 145.579 548.003 147.302 546.204 149.03C545.765 149.453 545.301 149.888 544.713 150.066C543.656 150.385 542.574 149.772 541.584 149.282C538.851 147.915 535.734 147.308 532.685 147.547C536.186 148.852 539.525 150.569 542.623 152.647C540.57 154.762 538.517 156.883 536.464 158.997C532.846 158.029 529 157.919 525.333 158.691C528.295 159.322 531.115 160.561 533.576 162.308C531.968 164.441 530.36 166.574 528.752 168.707C522.284 167.444 515.692 166.831 509.1 166.881C514.634 161.535 520.41 155.779 522.253 148.337" fill="#B1CF6F"/>
<path d="M553.414 100.187C547.217 112.52 540.662 124.676 533.767 136.636C530.255 142.723 526.656 148.754 522.97 154.731C520.416 158.875 518.023 165.667 512.686 166.776C510.052 167.328 507.318 166.844 504.665 166.366C496.836 164.95 489.743 164.19 482.688 160.101C480.232 158.679 477.802 156.981 476.448 154.504C474.587 151.108 475.155 146.781 477.072 143.415C479.317 139.468 483.646 137.524 485.501 133.515C487.449 129.31 486.713 124.572 488.445 120.336C490.269 115.874 494.709 113.103 498.92 110.7C507.059 106.053 515.401 101.628 524.367 98.8446C533.328 96.0616 543.012 94.9889 552.152 97.1405C552.752 97.2814 553.414 97.4837 553.723 98.0109C554.106 98.6729 553.766 99.5005 553.426 100.187H553.414Z" fill="#F7A81A"/>
<path d="M506.997 113.514C503.744 117.271 500.102 120.692 496.15 123.714C494.511 124.964 492.409 122.794 492.217 121.06C492.025 119.3 493.274 118.277 494.505 117.21C497.857 114.304 502.588 112.907 506.991 113.514H506.997Z" fill="#DE212B"/>
<path d="M503.589 145.506C498.76 146.756 493.8 147.516 488.81 147.768C486.744 147.872 486.262 144.899 487.103 143.366C487.956 141.815 489.57 141.675 491.197 141.497C495.618 141.006 500.312 142.52 503.583 145.506H503.589Z" fill="#DE212B"/>
<path d="M505.456 160.72C500.466 160.824 495.463 160.426 490.553 159.519C488.519 159.145 488.747 156.141 489.922 154.848C491.116 153.536 492.718 153.769 494.344 153.971C498.759 154.51 502.971 157.067 505.456 160.72Z" fill="#DE212B"/>
<path d="M521.306 117.05C517.373 120.097 513.125 122.745 508.648 124.939C506.793 125.847 505.16 123.309 505.321 121.574C505.482 119.815 506.91 119.055 508.332 118.246C512.197 116.051 517.114 115.597 521.313 117.056L521.306 117.05Z" fill="#DE212B"/>
<path d="M539.314 120.912C534.967 123.346 530.366 125.338 525.61 126.846C523.638 127.471 522.407 124.719 522.828 123.027C523.254 121.311 524.776 120.765 526.303 120.177C530.453 118.577 535.381 118.853 539.314 120.912Z" fill="#DE212B"/>
<path d="M524.151 133.755C519.804 136.188 515.203 138.18 510.447 139.688C508.475 140.314 507.244 137.561 507.665 135.869C508.091 134.153 509.613 133.607 511.14 133.019C515.289 131.419 520.218 131.695 524.151 133.755Z" fill="#DE212B"/>
<path d="M521.412 150.471C516.563 151.666 511.598 152.359 506.607 152.549C504.542 152.629 504.096 149.649 504.956 148.129C505.816 146.609 507.442 146.468 509.075 146.309C513.502 145.867 518.177 147.443 521.412 150.471Z" fill="#DE212B"/>
<path d="M494.801 130.334C494.603 130.352 494.517 130.058 494.641 129.905C494.758 129.751 494.974 129.715 495.172 129.69C498.53 129.292 501.962 129.457 505.265 130.187C502.278 132.412 499.019 134.275 495.581 135.722C494.263 136.274 492.847 136.776 491.425 136.586C490.961 136.525 490.479 136.372 490.163 136.028C489.805 135.636 489.73 135.066 489.675 134.539C489.594 133.822 489.514 133.098 489.434 132.381C489.378 131.872 489.341 131.284 489.7 130.91C489.972 130.622 490.392 130.548 490.782 130.487C492.637 130.199 494.498 129.911 496.354 129.629" fill="#DE212B"/>
<path d="M527.163 105.704C526.965 105.722 526.878 105.428 527.002 105.275C527.126 105.122 527.336 105.085 527.534 105.06C530.892 104.662 534.324 104.827 537.626 105.557C534.639 107.782 531.38 109.645 527.942 111.092C526.625 111.644 525.209 112.146 523.786 111.956C523.322 111.895 522.84 111.742 522.525 111.399C522.166 111.006 522.092 110.436 522.036 109.909C521.956 109.192 521.875 108.468 521.795 107.751C521.739 107.243 521.702 106.654 522.061 106.28C522.333 105.992 522.753 105.918 523.143 105.857C524.998 105.569 526.86 105.281 528.715 104.999" fill="#DE212B"/>
</g>
<path d="M248.201 144.501C252.517 144.501 256.521 145.644 260.126 147.633C259.551 98.213 256.91 48.6071 247.507 0C238.061 48.8526 235.437 98.7123 234.879 148.386C238.874 145.931 243.613 144.51 248.192 144.51L248.201 144.501Z" fill="#F7A81A"/>
<path d="M248.2 194.717C243.469 194.717 239.102 193.337 235.234 190.976C236.165 226.506 238.695 262.02 243.951 297.187C244.984 303.788 246.076 310.399 247.506 317C248.928 310.399 250.028 303.788 251.061 297.187C256.283 262.291 258.814 227.073 259.761 191.813C256.173 193.659 252.127 194.708 248.2 194.708V194.717Z" fill="#F7A81A"/>
<path d="M386.202 162.935C347.049 157.078 307.481 154.606 267.921 153.955C271.459 158.33 273.067 164.052 273.313 169.604C273.44 172.939 272.771 176.053 271.315 178.956C309.749 178.229 348.166 175.732 386.21 170.036C392.812 169.003 399.422 167.911 406.024 166.481C399.422 165.059 392.812 163.959 386.21 162.926L386.202 162.935Z" fill="#F7A81A"/>
<path d="M223.097 169.613C222.971 166.16 223.69 162.935 225.264 159.939C225.975 157.747 227.05 155.766 228.48 153.998C181.769 154.768 134.948 157.62 89.0153 166.498C133.78 175.148 179.399 178.077 224.934 178.932C223.825 175.952 223.241 172.753 223.106 169.613H223.097Z" fill="#F7A81A"/>
<path d="M231.484 148.115C234.531 145.068 238.179 143.045 242.132 141.902C206.779 107.362 169.835 74.1588 128.819 46.4316C156.682 87.6499 190.088 124.763 224.815 160.277C225.907 155.715 228.251 151.356 231.484 148.115Z" fill="#F7A81A"/>
<path d="M266.998 183.62C263.655 186.963 259.592 189.079 255.183 190.145C280.963 214.614 307.861 237.931 336.451 259.082C341.851 263.018 347.294 266.92 352.973 270.576C349.308 264.897 345.415 259.455 341.479 254.055C320.497 225.693 297.383 198.99 273.126 173.396C271.89 177.238 269.774 180.844 266.998 183.611V183.62Z" fill="#F7A81A"/>
<path d="M342.105 63.5704C310.273 87.1165 280.548 113.346 252.119 140.861C257.713 141.454 262.893 144.365 266.998 148.114C269.444 150.383 271.179 153.057 272.195 156.147C298.855 128.453 324.255 99.5158 347.132 68.5978C351.068 63.198 354.97 57.7558 358.626 52.0767C352.947 55.7414 347.505 59.6348 342.105 63.5704Z" fill="#F7A81A"/>
<path d="M231.485 183.62C228.945 181.267 227.177 178.474 226.169 175.25C225.128 173.193 224.485 171.035 224.24 168.775C191.756 202.35 160.66 237.475 134.465 276.23C172.239 250.695 206.559 220.505 239.364 188.919C236.47 187.598 233.804 185.745 231.485 183.62Z" fill="#F7A81A"/>
<path d="M241.412 147.54C244.78 146.042 248.31 145.542 251.814 145.838C234.158 107.439 214.819 69.6142 190.562 34.9214C200.193 76.3597 215.504 116.224 232.364 155.208C234.632 151.898 237.84 149.139 241.412 147.54Z" fill="#F7A81A"/>
<path d="M258.898 186.76C255.2 188.41 251.315 188.851 247.472 188.36C260.574 215.791 274.912 242.638 291.264 268.283C294.37 273.082 297.527 277.855 300.938 282.519C299.753 276.865 298.305 271.321 296.816 265.803C288.741 236.73 278.458 208.343 266.922 180.48C264.755 183.171 261.962 185.397 258.898 186.76Z" fill="#F7A81A"/>
<path d="M355.613 113.888C322.994 122.944 291.23 134.793 260.109 148.056C264.4 150.239 267.641 154.15 269.766 158.398C271.027 160.954 271.585 163.629 271.458 166.397C301.217 152.448 330.358 137.121 358.085 119.431C362.884 116.325 367.657 113.168 372.321 109.757C366.667 110.942 361.123 112.39 355.605 113.879L355.613 113.888Z" fill="#F7A81A"/>
<path d="M230.544 175.893C229.241 173.235 228.682 170.467 228.869 167.581C228.666 165.626 228.818 163.705 229.309 161.817C193.093 178.686 157.52 197.213 124.74 220.141C162.716 211.313 199.364 197.712 235.225 182.528C233.321 180.59 231.755 178.296 230.553 175.884L230.544 175.893Z" fill="#F7A81A"/>
<path d="M234.786 153.879C236.106 150.434 238.247 147.59 240.939 145.313C201.303 130.646 160.88 117.578 119.197 110.197C155.311 132.685 194.32 150.044 233.812 165.694C233.076 161.75 233.389 157.526 234.786 153.87V153.879Z" fill="#F7A81A"/>
<path d="M274.878 169.249C273.431 173.032 270.993 176.088 267.929 178.458C296.588 188.589 325.711 197.433 355.41 204.001C360.997 205.194 366.608 206.346 372.321 207.226C367.488 204.069 362.545 201.166 357.586 198.322C331.323 183.477 303.976 170.671 276.114 159.126C276.486 162.563 276.088 166.109 274.887 169.241L274.878 169.249Z" fill="#F7A81A"/>
<path d="M291.738 49.3349C275.081 78.8056 260.989 109.639 248.37 141.031C252.949 139.541 258.01 140.015 262.513 141.513C265.213 142.436 267.498 143.917 269.368 145.974C280.549 115.064 290.316 83.6215 297.417 51.5101C298.611 45.9241 299.762 40.3126 300.642 34.5996C297.485 39.4324 294.582 44.3752 291.738 49.3349Z" fill="#F7A81A"/>
<path d="M247.143 181.615C244.341 180.659 241.988 179.101 240.084 176.926C238.552 175.69 237.3 174.218 236.318 172.542C222.64 210.079 210.58 248.335 203.614 287.725C224.223 254.632 240.524 219.101 255.141 183.003C252.424 182.978 249.69 182.461 247.143 181.615Z" fill="#F7A81A"/>
<path d="M176.124 117.73C191.037 99.6515 199.348 76.2324 199.179 52.7964C203.893 51.1206 208.599 49.4532 213.313 47.7774C214.642 47.3034 216.039 46.8295 217.427 47.0665C220.905 47.6674 222.065 52.0177 222.369 55.5386C223.283 66.3045 223.089 77.1719 221.785 87.9039C220.914 95.098 222.31 100.379 222.209 107.633C222.124 113.515 221.895 119.677 218.933 124.755" fill="#FFEEC1"/>
<path d="M194.668 91.5529C195.836 90.5542 197.232 89.6147 198.773 89.6909C200.448 89.7755 201.811 91.0535 202.928 92.3061C205.696 95.4039 208.032 98.8909 209.852 102.623C210.478 103.893 211.037 105.213 211.307 106.601C212.052 110.478 210.419 114.633 211.722 118.357C208.971 115.082 205.891 111.603 201.693 110.808C199.653 110.419 197.545 110.723 195.531 111.189C192.958 111.79 190.444 112.661 188.058 113.796C183.089 116.148 177.495 120.575 171.697 119.746C175.413 115.327 179.636 111.443 182.971 106.678C186.627 101.455 189.759 95.734 194.676 91.5444L194.668 91.5529Z" fill="black"/>
<path d="M226.965 135.293C217.731 132.703 211.933 123.461 209.047 114.311C206.406 105.924 205.475 96.7576 208.006 88.3278C210.537 79.8979 216.927 72.3652 225.373 69.9023C226.812 69.4875 225.729 69.8345 226.448 68.5227C227.168 67.2108 227.312 65.6704 227.439 64.1808C227.904 58.7217 228.37 53.2711 228.835 47.812C228.928 46.7201 229.089 45.5014 229.935 44.8073C230.536 44.3164 231.357 44.2064 232.136 44.1218C234.878 43.8086 237.62 43.4955 240.354 43.1823C240.659 43.1484 240.997 43.1231 241.243 43.3093C241.455 43.4701 241.539 43.7494 241.598 44.0117C243.037 49.6147 244.468 55.2092 245.906 60.8122C250.037 60.3298 254.759 60.4991 258.915 60.626C262.089 54.9215 264.544 48.8107 266.185 42.4883C266.321 41.9635 266.499 41.3795 266.973 41.1172C267.32 40.9225 267.743 40.9563 268.141 41.0071C272.457 41.4896 276.714 42.5645 280.743 44.1895C281.386 51.1805 281.471 58.2223 280.997 65.2303C283.477 65.6027 285.187 65.3572 287.666 65.7296C290.984 60.3552 294.031 54.8115 296.782 49.1238C301.369 51.9423 306.109 54.4983 310.984 56.7835C308.377 64.477 304.958 71.9082 300.811 78.8907C304.695 82.2 306.092 87.7522 305.533 92.822C304.975 97.9002 302.732 102.623 300.37 107.143C297.908 111.848 295.225 116.554 291.348 120.194" fill="#EA5B86"/>
<path d="M237.578 130.138C229.03 122.453 224.993 110.113 227.244 98.8393C229.496 87.5657 237.917 77.7562 248.674 73.719C259.432 69.6818 272.178 71.5015 281.437 78.3063C284.704 80.71 287.591 83.7316 289.402 87.3625C292.762 94.0658 292.178 101.988 291.518 109.461" fill="#FFEEC1"/>
<path d="M242.217 121.083C235.302 114.506 233.719 103.334 237.638 94.6335C241.556 85.9328 250.316 79.8812 259.72 78.2308C262.174 77.7991 264.696 77.6383 267.159 78.0192C273.143 78.9587 278.407 83.2498 280.853 88.7935C283.299 94.3373 282.995 100.939 280.379 106.398" fill="black"/>
<path d="M234.878 138.552C225.509 135.581 217.384 128.886 212.67 120.27C210.63 116.529 209.191 112.441 206.66 109.013C204.13 105.594 200.067 102.835 195.852 103.427C191.815 103.986 188.853 107.312 185.67 109.86C179.517 114.777 171.722 117.138 165.087 121.379C153.204 128.971 145.637 142.877 145.705 156.977C145.772 171.078 153.474 184.907 165.425 192.389C168.811 194.514 172.738 196.181 176.707 195.699C181.396 195.123 185.163 191.712 188.59 188.471C196.402 181.082 204.214 173.693 212.026 166.304" fill="#B1CF6F"/>
<path d="M175.887 187.192C168.253 180.405 163.047 170.417 163.674 160.219C164.3 150.02 171.587 140.109 181.583 138.018C185.188 137.265 189.023 137.477 192.433 136.089C196.708 134.353 199.797 130.029 200.059 125.424C200.102 124.629 200.093 123.765 200.592 123.148C201.735 121.734 203.978 122.953 205.281 124.222C207.753 126.626 210.131 129.123 212.425 131.704C215.328 134.971 218.197 138.653 218.637 142.995C219.213 148.649 215.582 153.769 212.128 158.289" fill="#EA5986"/>
<path d="M318.009 132.093C327.963 132.093 337.916 133.143 347.649 135.208C348.115 135.309 348.614 135.428 348.902 135.8C349.156 136.114 349.198 136.545 349.223 136.943C349.435 139.905 349.283 142.893 348.766 145.813C340.675 145.957 332.575 145.356 324.594 144.027" fill="#DE212B"/>
<path d="M318.009 151.62C327.963 151.62 337.916 152.669 347.649 154.734C348.115 154.836 348.614 154.954 348.902 155.327C349.156 155.64 349.198 156.072 349.223 156.469C349.435 159.432 349.283 162.419 348.766 165.339C340.675 165.483 332.575 164.882 324.594 163.553" fill="#DE212B"/>
<path d="M223.384 128.056L223.909 127.887C224.332 127.752 224.764 127.608 225.128 127.345L225.357 127.185C225.83 126.931 226.22 126.575 226.508 126.127C226.872 125.729 227.117 125.263 227.244 124.73C227.295 124.366 227.345 124.002 227.388 123.638C227.413 123.071 227.295 122.546 227.032 122.056C226.931 121.709 226.761 121.404 226.508 121.15C226.22 120.701 225.839 120.354 225.357 120.092C225.026 119.957 224.705 119.813 224.375 119.677C223.647 119.483 222.919 119.483 222.2 119.677C221.692 119.847 221.15 119.99 220.71 120.295L220.253 120.625C219.779 120.879 219.398 121.226 219.119 121.666C218.763 122.056 218.518 122.521 218.391 123.046C218.34 123.401 218.298 123.765 218.247 124.121C218.23 124.679 218.34 125.204 218.594 125.686C218.687 126.034 218.865 126.33 219.119 126.584C219.407 127.024 219.787 127.371 220.253 127.625C220.575 127.76 220.896 127.896 221.218 128.031C221.937 128.226 222.657 128.226 223.376 128.031L223.384 128.056Z" fill="black"/>
<path d="M217.265 113.405C218.383 113.405 219.559 112.915 220.355 112.127C221.15 111.34 221.683 110.13 221.633 109.038C221.523 106.668 219.711 104.671 217.265 104.671C216.148 104.671 214.972 105.162 214.176 105.949C213.414 106.711 212.847 107.946 212.898 109.038C213.008 111.408 214.819 113.405 217.265 113.405Z" fill="black"/>
<path d="M219.28 94.5397C220.338 94.5397 221.455 94.0742 222.208 93.3294C222.928 92.61 223.47 91.4335 223.419 90.401C223.368 89.3345 223.021 88.2173 222.208 87.4725C221.396 86.7277 220.406 86.2622 219.28 86.2622C218.222 86.2622 217.105 86.7277 216.352 87.4725C215.632 88.1919 215.09 89.3684 215.141 90.401C215.192 91.4674 215.539 92.5846 216.352 93.3294C217.164 94.0742 218.154 94.5397 219.28 94.5397Z" fill="black"/>
<path d="M229.86 81.252C231.002 81.252 232.204 80.7526 233.008 79.9486C233.812 79.1445 234.362 77.9088 234.311 76.8001C234.261 75.649 233.88 74.4556 233.008 73.6516C232.136 72.8475 231.07 72.3481 229.86 72.3481C228.717 72.3481 227.515 72.8475 226.711 73.6516C225.941 74.4217 225.357 75.6913 225.408 76.8001C225.458 77.9511 225.839 79.1445 226.711 79.9486C227.583 80.7441 228.649 81.252 229.86 81.252Z" fill="black"/>
<path d="M244.815 71.8742C245.272 71.9588 245.806 72.1027 246.237 72.0773C246.364 72.0689 246.5 72.0604 246.627 72.0519C247.397 72.0519 248.116 71.8573 248.785 71.4679C249.428 71.0871 249.936 70.5792 250.317 69.936C250.461 69.5975 250.604 69.2504 250.748 68.9119C250.951 68.1502 250.951 67.3969 250.748 66.6352C250.613 66.0766 250.359 65.5941 249.978 65.1794C249.673 64.7139 249.276 64.35 248.776 64.0791C248.108 63.6898 247.388 63.4951 246.618 63.4951C245.848 63.4951 245.128 63.6898 244.46 64.0791C244.35 64.1553 244.24 64.2399 244.13 64.3161C243.783 64.5615 243.444 64.7647 243.182 65.0863L243.063 65.2302C242.572 65.7295 242.225 66.3135 242.039 66.9822C241.853 67.6847 241.853 68.3956 242.039 69.0981C242.225 69.7752 242.572 70.3592 243.063 70.8501C243.563 71.341 244.147 71.688 244.815 71.8742Z" fill="black"/>
<path d="M265.12 69.208C266.144 69.208 267.219 68.7594 267.947 68.04C268.641 67.346 269.157 66.2119 269.115 65.2131C269.022 63.0464 267.363 61.2183 265.12 61.2183C264.096 61.2183 263.021 61.6668 262.293 62.3863C261.599 63.0803 261.083 64.2144 261.125 65.2131C261.218 67.3798 262.877 69.208 265.12 69.208Z" fill="black"/>
<path d="M278.687 69.7492C278.704 69.8677 278.712 69.9947 278.729 70.1132C278.712 70.6633 278.822 71.1796 279.076 71.662C279.237 72.1614 279.516 72.593 279.906 72.957C280.27 73.3463 280.701 73.6256 281.201 73.7864C281.683 74.0403 282.191 74.1504 282.75 74.1334C283.105 74.0826 283.461 74.0403 283.816 73.9895C284.493 73.7949 285.086 73.4563 285.585 72.957C285.797 72.6861 286 72.4153 286.211 72.1445C286.575 71.5181 286.753 70.841 286.761 70.1216C286.778 70.0031 286.787 69.8762 286.804 69.7577C286.821 69.1991 286.711 68.6743 286.457 68.1919C286.296 67.6925 286.017 67.2524 285.619 66.8885C285.255 66.4907 284.815 66.2114 284.315 66.0506C283.833 65.7967 283.308 65.6782 282.75 65.7036C282.394 65.7543 282.03 65.7967 281.675 65.8474C280.989 66.0421 280.388 66.3891 279.889 66.8885C279.677 67.1593 279.466 67.4386 279.254 67.7095C278.89 68.3442 278.704 69.0213 278.704 69.7577L278.687 69.7492Z" fill="black"/>
<path d="M294.327 86.8963C295.368 86.8963 296.46 86.4478 297.197 85.7114C297.899 85.0089 298.432 83.8579 298.381 82.8422C298.331 81.7927 297.992 80.7094 297.197 79.973C296.401 79.2451 295.428 78.7881 294.327 78.7881C293.286 78.7881 292.195 79.2367 291.458 79.973C290.756 80.6755 290.222 81.8266 290.273 82.8422C290.324 83.8917 290.663 84.9751 291.458 85.7114C292.254 86.4393 293.227 86.8963 294.327 86.8963Z" fill="black"/>
<path d="M212.331 154.894C213.66 148.072 214.878 141.107 214.108 134.2C213.329 127.294 210.291 120.337 204.603 116.333C207.473 129.427 207.549 143.13 204.832 156.257C204.544 148.496 204.172 140.582 201.472 133.303C198.772 126.016 193.338 119.33 185.89 117.104C194.032 131.594 196.749 149.054 193.406 165.338C192.077 149.224 180.863 134.336 165.746 128.606C175.979 142.613 182.132 159.566 183.275 176.883C180.668 163.172 170.08 151.28 156.766 147.099C165.078 156.917 172.06 167.844 177.469 179.515C172.551 172.795 165.052 168.005 156.885 166.371C166.195 174.158 172.365 185.601 173.736 197.661" fill="#2C5729"/>
<path d="M278.264 183.054C274.201 191.077 269.859 199.431 262.487 204.569C253.601 210.764 241.117 211.678 234.227 220.049C230.055 225.118 228.743 232.109 224.468 237.103C221.041 241.106 216.199 243.332 211.942 246.278C207.109 249.621 203.419 253.506 210.732 255.097C217.511 256.57 225.687 258.195 232.221 260.852C236.487 262.587 240.118 265.541 244.028 267.97C257.105 276.104 273.753 278.237 288.454 273.658C295.403 271.491 302.005 267.809 306.787 262.342C309.52 259.21 311.611 255.579 313.532 251.889C318.703 241.97 322.859 230.374 319.271 219.786C318.069 216.248 316.063 213.041 314.616 209.596C312.762 205.195 311.848 200.472 310.654 195.851C308.674 188.166 305.898 180.692 302.402 173.566" fill="#2C5729"/>
<path d="M273.371 165.991C276.486 174.285 279.635 183.265 277.315 191.822C275.944 196.875 272.779 201.242 270.875 206.109C267.65 214.361 268.217 223.773 271.179 232.126C273.117 237.611 276.029 242.985 279.592 247.556C283.062 252.007 287.87 253.759 292.229 257.162C296.046 260.141 299.71 264.932 304.442 263.924C307.489 263.281 309.452 260.387 311.086 257.729C318.602 245.524 326.109 233.311 333.625 221.106C336.104 217.078 338.601 213.015 340.209 208.572C344.069 197.933 342.452 185.796 337.391 175.682C332.33 165.559 324.094 157.307 314.92 150.688C308.437 146.016 300.684 144.688 293.354 147.887" fill="#FFEEC1"/>
<mask id="mask0_342_5178" style="mask-type:luminance" maskUnits="userSpaceOnUse" x="268" y="146" width="75" height="119">
<path d="M273.371 165.991C276.486 174.285 279.635 183.265 277.315 191.822C275.944 196.875 272.779 201.242 270.875 206.109C267.65 214.361 268.217 223.773 271.179 232.126C273.117 237.611 276.029 242.985 279.592 247.556C283.062 252.007 287.87 253.759 292.229 257.162C296.046 260.141 299.71 264.932 304.442 263.924C307.489 263.281 309.452 260.387 311.086 257.729C318.602 245.524 326.109 233.311 333.625 221.106C336.104 217.078 338.601 213.015 340.209 208.572C344.069 197.933 342.452 185.796 337.391 175.682C332.33 165.559 324.094 157.307 314.92 150.688C308.437 146.016 300.684 144.688 293.354 147.887" fill="white"/>
</mask>
<g mask="url(#mask0_342_5178)">
<path d="M327.41 262.515C323.27 268.339 318.177 273.458 312.406 277.61C313.179 272.709 314.441 267.886 316.168 263.247C310.49 264.021 304.822 264.796 299.145 265.571C302.357 261.61 305.578 257.649 308.79 253.689C301.85 253.958 294.876 253.062 288.22 251.051C292.377 247.752 295.924 243.66 298.621 239.064C292.789 235.286 286.958 231.517 281.117 227.739C285.755 225.693 290.402 223.639 295.04 221.593C291.14 216.832 287.25 212.07 283.351 207.308C288.821 205.985 294.301 204.662 299.772 203.339C297.024 196.767 294.284 190.186 291.535 183.613C297.908 185.215 304.384 186.442 310.894 187.278C310.92 181.01 310.173 174.743 308.661 168.658C314.622 170.512 320.316 173.28 325.469 176.841C326.336 171.278 327.195 165.707 328.063 160.145C334.994 168.379 341.616 176.876 347.911 185.615" fill="#DE212B"/>
<path d="M327.638 264.066C310.835 256.595 299.638 237.786 300.944 219.218C302.249 200.658 315.968 183.653 333.648 178.669C336.162 177.959 339.15 177.577 341.121 179.318C341.944 180.046 342.47 181.059 342.943 182.063C349.496 195.79 351.362 211.773 348.156 226.672" fill="#B1CF6F"/>
<path d="M345.422 205.634C347.113 201.005 347.323 195.834 346.027 191.072C345.895 190.61 345.738 190.113 345.37 189.811C344.932 189.446 344.31 189.438 343.74 189.464C329.267 190.095 315.986 200.117 313.822 215.034C311.57 230.59 319.455 247.16 332.859 255.058C333.551 255.467 334.41 255.849 335.102 255.458C335.558 255.2 335.794 254.676 336.004 254.187C340.84 242.682 345.133 230.937 348.839 219.014" fill="black"/>
</g>
<path d="M270.477 88.928C265.424 89.8844 260.998 92.5589 257.434 97.2817C254.26 101.48 252.305 106.448 249.944 111.154C245.407 120.21 239.034 124.662 231.146 130.832C212.932 145.076 190.588 157.205 176.936 176.341C168.43 188.258 164.08 204.153 169.395 217.788C171.087 222.13 173.677 226.066 176.462 229.798C184.739 240.903 195.438 250.856 208.692 254.876C207.845 253.378 209.547 252.032 210.994 251.093C216.157 247.75 222.699 246.497 227.016 242.113C232.255 236.781 232.78 228.317 237.198 222.291C240.634 217.602 245.729 215.342 250.824 212.955C258.137 209.527 265.5 206.836 271.01 200.7C276.596 194.479 280.126 186.371 280.633 178.009C281.37 165.779 276.198 152.719 281.539 141.691C282.842 139.008 284.696 136.646 286.423 134.209C289.605 133.286 291.044 131.399 292.652 128.504C293.955 126.151 294.59 123.299 296.664 121.598C298.822 119.829 301.886 119.846 304.679 119.948C309.782 120.134 314.886 120.328 319.99 120.515C321.048 120.557 322.182 120.574 323.096 120.041C324.569 119.169 324.932 117.231 325.144 115.538C325.813 110.155 326.481 104.781 327.15 99.3976C327.311 98.1196 327.455 96.74 326.862 95.5974C326.337 94.5817 325.313 93.9216 324.281 93.4138C314.751 88.6825 303.282 93.2191 292.728 91.8395C288.522 91.2894 284.493 89.7913 280.32 89.0465C276.842 88.4286 273.549 88.3778 270.477 88.9534V88.928Z" fill="#DE212B"/>
<path d="M279.228 126.794C273.6 126.794 267.65 128.487 264.027 132.787C260.405 137.095 260.117 144.357 264.442 147.962C265.187 148.58 266.093 149.164 266.321 150.112C266.719 151.762 264.874 152.947 263.68 154.158C261.26 156.629 261.336 160.912 263.418 163.671C265.5 166.43 269.173 167.7 272.618 167.454C276.063 167.209 279.304 165.601 282.064 163.527C285.314 161.081 287.514 158.923 289.909 155.613C290.282 155.097 290.688 154.555 291.289 154.318C292.423 153.87 293.608 154.708 294.641 155.359C299.49 158.44 305.677 157.983 311.382 158.635C316.892 159.27 322.275 161.047 327.074 163.823C327.869 164.289 328.826 164.788 329.664 164.399C330.332 164.086 330.645 163.315 330.832 162.604C331.686 159.43 331.475 156.062 330.992 152.803C329.19 140.743 322.994 128.597 312.093 123.13C307.633 120.895 302.673 119.896 297.781 118.923C294.539 118.28 291.306 117.637 288.064 116.985C286.803 116.731 285.483 116.486 284.239 116.799C282.275 117.298 280.87 119.135 280.32 121.081C279.761 123.028 279.905 125.102 280.049 127.124" fill="#B1CF6F"/>
<path d="M254.506 210.975C253.626 221.859 249.038 234.817 240.778 242.418C237.578 245.363 233.287 247.233 228.945 247.03C231.705 250.712 236.385 252.278 240.795 250.949C245.204 249.629 248.759 246.302 251.459 242.578C249.461 248.901 249.529 255.85 251.637 262.13C256.436 257.889 258.975 251.237 258.23 244.881C261.158 251.897 268.742 256.679 276.334 256.298C268.589 250.864 264.654 241.224 263.951 231.787C263.249 222.35 265.348 212.955 267.523 203.755C263.892 206.658 258.805 209.214 254.506 210.966V210.975Z" fill="#EA5B86"/>
<path d="M232.187 142.284C228.573 145.043 224.917 147.845 222.132 151.45C220.6 153.431 219.365 155.631 217.875 157.646C211.392 166.414 200.55 171.255 194.439 180.286C190.199 186.549 188.65 194.26 188.117 201.801C187.871 205.246 187.829 208.784 188.878 212.076C189.962 215.461 192.137 218.381 194.278 221.217C197.232 225.152 200.194 229.08 203.148 233.015C203.8 233.878 204.511 234.793 205.535 235.14C208.192 236.037 210.232 232.837 211.485 230.332C217.486 218.331 229.69 210.891 241.404 204.34C244.696 202.495 248.116 200.574 250.325 197.51C251.789 195.487 252.627 193.092 253.439 190.73C254.692 187.133 255.936 183.528 257.189 179.931C257.468 179.118 257.748 178.213 257.401 177.425C256.952 176.401 255.682 176.08 254.582 175.868C246.127 174.226 239.728 167.345 243.385 158.306C244.798 154.81 247.65 152.034 248.945 148.496C249.944 145.78 249.952 142.817 249.944 139.923C249.944 136.512 250.189 132.94 249.809 129.58C242.826 131.747 237.824 137.985 232.179 142.293L232.187 142.284Z" fill="#EA5B86"/>
<path d="M203.665 158.094C202.683 158.094 201.65 158.517 200.956 159.211C200.296 159.871 199.797 160.963 199.839 161.919C199.932 163.993 201.523 165.745 203.665 165.745C204.646 165.745 205.679 165.322 206.373 164.628C207.067 163.934 207.533 162.876 207.49 161.919C207.397 159.846 205.806 158.094 203.665 158.094Z" fill="black"/>
<path d="M220.152 150.333C220.068 148.496 218.663 146.947 216.767 146.947C214.998 146.947 213.297 148.505 213.381 150.333C213.466 152.169 214.871 153.718 216.767 153.718C218.536 153.718 220.237 152.161 220.152 150.333Z" fill="black"/>
<path d="M232.636 135.47C232.442 135.326 232.255 135.174 232.061 135.03C231.621 134.776 231.138 134.64 230.63 134.64C230.241 134.623 229.877 134.708 229.539 134.886C229.183 135.004 228.878 135.199 228.625 135.47C228.345 135.724 228.151 136.028 228.041 136.384C227.863 136.722 227.778 137.086 227.795 137.476C227.829 137.73 227.863 137.975 227.897 138.229C228.032 138.711 228.278 139.126 228.625 139.482C228.819 139.625 229.005 139.778 229.2 139.922C229.64 140.176 230.123 140.311 230.63 140.311C231.02 140.328 231.384 140.243 231.722 140.066C232.078 139.947 232.382 139.752 232.636 139.482C232.916 139.228 233.11 138.923 233.22 138.567C233.398 138.229 233.483 137.865 233.466 137.476C233.432 137.222 233.398 136.976 233.364 136.722C233.229 136.24 232.983 135.825 232.636 135.47Z" fill="black"/>
<path d="M244.874 125.745C244.688 125.602 244.511 125.466 244.324 125.322C243.901 125.077 243.444 124.95 242.953 124.95C242.581 124.933 242.234 125.018 241.904 125.187C241.565 125.297 241.277 125.483 241.032 125.745C240.77 125.991 240.583 126.287 240.473 126.617C240.304 126.939 240.228 127.294 240.236 127.667C240.27 127.904 240.304 128.149 240.329 128.386C240.456 128.843 240.693 129.249 241.032 129.588C241.218 129.732 241.396 129.867 241.582 130.011C242.005 130.257 242.462 130.384 242.953 130.384C243.326 130.401 243.673 130.316 244.003 130.147C244.341 130.037 244.629 129.85 244.874 129.588C245.137 129.343 245.323 129.046 245.433 128.716C245.602 128.395 245.679 128.039 245.67 127.667C245.636 127.43 245.602 127.184 245.577 126.947C245.45 126.49 245.213 126.084 244.874 125.745Z" fill="black"/>
<path d="M252.018 121.276C253.677 121.276 255.277 119.812 255.192 118.103C255.116 116.384 253.796 114.929 252.018 114.929C250.359 114.929 248.76 116.393 248.844 118.103C248.921 119.821 250.241 121.276 252.018 121.276Z" fill="black"/>
<path d="M304.798 100.126C304.315 98.7544 303.122 97.6711 301.616 97.6457C301.37 97.6457 301.133 97.6711 300.896 97.7219C300.71 97.4595 300.507 97.214 300.295 96.9771C299.643 96.2407 298.602 95.9953 297.671 96.1222C296.783 96.2407 295.784 96.7485 295.386 97.6118C294.481 99.5754 293.947 101.522 293.736 103.672C293.634 104.688 293.795 105.729 293.947 106.727C294.066 107.557 294.269 108.378 294.54 109.173C294.946 110.392 296.055 111.188 297.358 111.018C297.9 110.942 298.459 110.722 298.831 110.307C298.899 110.24 298.958 110.155 299.026 110.079C299.271 109.943 299.508 109.774 299.745 109.58C299.94 109.402 300.126 109.216 300.312 109.029C300.338 108.996 300.371 108.97 300.405 108.936C301.666 107.658 302.775 106.203 303.672 104.654C304.442 103.333 305.34 101.7 304.789 100.134L304.798 100.126Z" fill="black"/>
<path d="M253.482 132.203C253.558 133.87 254.836 135.275 256.554 135.275C258.163 135.275 259.703 133.862 259.627 132.203C259.551 130.535 258.273 129.13 256.554 129.13C254.946 129.13 253.406 130.544 253.482 132.203Z" fill="black"/>
<path d="M257.215 145.465C256.699 145.169 256.14 145.017 255.548 145.017C255.091 145 254.668 145.093 254.278 145.304C253.872 145.44 253.517 145.668 253.212 145.99C252.89 146.286 252.662 146.642 252.526 147.056C252.323 147.454 252.222 147.877 252.239 148.326C252.281 148.622 252.315 148.91 252.357 149.206C252.518 149.765 252.797 150.256 253.203 150.662C253.423 150.831 253.652 151.009 253.872 151.178C254.388 151.474 254.947 151.627 255.539 151.627C255.996 151.644 256.42 151.551 256.809 151.339C257.215 151.204 257.571 150.975 257.875 150.653C258.197 150.357 258.426 150.002 258.561 149.587C258.764 149.189 258.866 148.766 258.849 148.317C258.806 148.021 258.773 147.733 258.73 147.437C258.569 146.879 258.29 146.388 257.884 145.981C257.664 145.812 257.435 145.634 257.215 145.465Z" fill="black"/>
<path d="M253.026 163.654C253.474 163.671 253.889 163.578 254.278 163.375C254.676 163.248 255.031 163.019 255.319 162.706C255.632 162.41 255.861 162.063 255.988 161.665C256.191 161.276 256.284 160.861 256.267 160.413C256.225 160.125 256.191 159.837 256.149 159.549C255.996 158.999 255.717 158.525 255.319 158.119C255.099 157.95 254.879 157.78 254.667 157.611C254.16 157.315 253.618 157.171 253.034 157.171C252.585 157.154 252.171 157.247 251.79 157.45C251.392 157.577 251.037 157.806 250.749 158.119C250.436 158.415 250.207 158.762 250.08 159.16C249.877 159.549 249.784 159.964 249.801 160.404C249.843 160.692 249.877 160.98 249.919 161.267C250.072 161.817 250.351 162.291 250.749 162.698C250.969 162.867 251.189 163.036 251.4 163.206C251.908 163.502 252.45 163.646 253.034 163.646L253.026 163.654Z" fill="black"/>
<path d="M264.095 173.481C264.332 173.024 264.451 172.524 264.425 172C264.383 171.661 264.332 171.314 264.29 170.976C264.104 170.324 263.774 169.757 263.3 169.274C263.037 169.071 262.783 168.877 262.521 168.673C261.92 168.326 261.277 168.149 260.583 168.149C260.05 168.132 259.559 168.242 259.102 168.479C258.628 168.631 258.213 168.902 257.866 169.274C257.494 169.621 257.223 170.036 257.07 170.51C256.833 170.967 256.715 171.466 256.74 171.991C256.783 172.33 256.833 172.677 256.876 173.015C257.062 173.667 257.392 174.234 257.866 174.717C258.128 174.92 258.382 175.114 258.645 175.317C259.246 175.664 259.889 175.842 260.583 175.842C261.116 175.859 261.607 175.749 262.064 175.512C262.538 175.36 262.953 175.089 263.3 174.717C263.672 174.369 263.943 173.955 264.095 173.481Z" fill="black"/>
<path d="M268.573 182.681C268.319 182.487 268.065 182.283 267.803 182.089C267.21 181.742 266.576 181.572 265.89 181.572C265.365 181.556 264.883 181.666 264.426 181.903C263.952 182.055 263.546 182.317 263.207 182.69C262.835 183.037 262.572 183.443 262.42 183.908C262.183 184.357 262.073 184.848 262.09 185.373C262.132 185.711 262.183 186.041 262.225 186.38C262.403 187.023 262.733 187.582 263.199 188.056C263.452 188.25 263.706 188.453 263.969 188.648C264.561 188.995 265.196 189.164 265.882 189.164C266.406 189.181 266.889 189.071 267.346 188.834C267.82 188.682 268.226 188.42 268.565 188.047C268.937 187.7 269.199 187.294 269.352 186.828C269.589 186.38 269.699 185.889 269.682 185.364C269.639 185.026 269.589 184.696 269.546 184.357C269.369 183.714 269.038 183.155 268.573 182.681Z" fill="black"/>
<path d="M257.553 196.443C257.291 196.24 257.029 196.037 256.766 195.834C256.157 195.478 255.505 195.309 254.803 195.301C254.269 195.284 253.77 195.394 253.305 195.639C252.822 195.8 252.407 196.062 252.052 196.443C251.671 196.799 251.409 197.213 251.248 197.696C251.002 198.161 250.892 198.661 250.909 199.194C250.952 199.541 251.002 199.879 251.045 200.226C251.231 200.887 251.561 201.454 252.043 201.945C252.306 202.148 252.568 202.351 252.831 202.554C253.44 202.909 254.092 203.079 254.794 203.087C255.327 203.104 255.827 202.994 256.292 202.749C256.775 202.588 257.189 202.325 257.545 201.945C257.926 201.589 258.188 201.174 258.349 200.692C258.594 200.226 258.704 199.727 258.688 199.194C258.645 198.847 258.594 198.508 258.552 198.161C258.366 197.501 258.036 196.934 257.553 196.443Z" fill="black"/>
<path d="M244.341 208.884C244.037 208.554 243.673 208.317 243.249 208.181C242.843 207.97 242.412 207.868 241.946 207.893C241.337 207.893 240.761 208.046 240.236 208.359C239.729 208.664 239.322 209.061 239.018 209.578C238.975 209.671 238.924 209.755 238.882 209.849C238.73 210.153 238.594 210.424 238.518 210.746C238.518 210.771 238.51 210.788 238.501 210.813C238.349 211.381 238.349 211.939 238.501 212.506C238.501 212.515 238.501 212.523 238.501 212.54C238.51 212.582 238.518 212.625 238.535 212.667C238.544 212.701 238.552 212.735 238.569 212.769C238.586 212.819 238.603 212.87 238.628 212.921C238.628 212.938 238.645 212.955 238.654 212.972C238.671 213.006 238.679 213.048 238.704 213.082C238.814 213.42 239.001 213.717 239.271 213.962C239.458 214.106 239.644 214.25 239.822 214.385C240.042 214.512 240.262 214.605 240.499 214.664C240.575 214.69 240.651 214.707 240.727 214.724C241.294 214.876 241.853 214.876 242.42 214.724C242.445 214.724 242.462 214.715 242.488 214.707C242.801 214.631 243.08 214.495 243.385 214.343C243.478 214.301 243.563 214.25 243.656 214.207C244.164 213.903 244.57 213.505 244.874 212.989C245.179 212.464 245.332 211.888 245.34 211.279C245.298 210.983 245.255 210.678 245.221 210.382C245.061 209.806 244.773 209.307 244.35 208.884H244.341Z" fill="black"/>
<path d="M232.34 219.946C232.086 219.752 231.823 219.549 231.57 219.354C230.977 219.007 230.334 218.838 229.648 218.838C229.124 218.821 228.633 218.931 228.184 219.168C227.71 219.32 227.304 219.582 226.957 219.955C226.584 220.302 226.322 220.708 226.17 221.182C225.933 221.639 225.823 222.122 225.84 222.646C225.882 222.985 225.933 223.323 225.975 223.662C226.153 224.305 226.483 224.864 226.957 225.338C227.211 225.532 227.473 225.736 227.727 225.93C228.319 226.277 228.963 226.447 229.648 226.447C230.173 226.463 230.664 226.353 231.112 226.116C231.586 225.964 231.993 225.702 232.34 225.329C232.712 224.982 232.974 224.576 233.127 224.102C233.364 223.645 233.474 223.163 233.457 222.638C233.415 222.299 233.364 221.961 233.322 221.622C233.144 220.979 232.814 220.42 232.34 219.946Z" fill="black"/>
<path d="M220.888 232.337C220.643 232.142 220.389 231.948 220.143 231.762C219.568 231.423 218.941 231.262 218.273 231.254C217.765 231.237 217.291 231.338 216.851 231.575C216.394 231.728 215.996 231.982 215.657 232.337C215.293 232.676 215.04 233.065 214.896 233.531C214.667 233.971 214.557 234.445 214.574 234.952C214.616 235.282 214.659 235.604 214.71 235.934C214.887 236.561 215.2 237.102 215.657 237.568C215.903 237.762 216.157 237.957 216.402 238.143C216.978 238.482 217.604 238.643 218.273 238.651C218.781 238.668 219.255 238.566 219.695 238.329C220.152 238.177 220.549 237.923 220.888 237.568C221.252 237.229 221.506 236.84 221.65 236.374C221.878 235.934 221.988 235.46 221.971 234.952C221.929 234.622 221.887 234.301 221.836 233.971C221.658 233.344 221.345 232.803 220.888 232.337Z" fill="black"/>
<path d="M204.994 242.866C204.79 242.485 204.503 242.181 204.147 241.944C203.944 241.741 203.699 241.597 203.419 241.521C203.03 241.317 202.607 241.224 202.158 241.241C201.871 241.284 201.574 241.317 201.287 241.36C201.024 241.47 200.762 241.58 200.499 241.69C200.008 241.978 199.611 242.375 199.323 242.866C199.298 242.9 199.281 242.925 199.255 242.959C198.976 243.442 198.832 243.967 198.832 244.525C198.832 245.084 198.976 245.608 199.255 246.091C199.281 246.125 199.298 246.15 199.323 246.184C199.526 246.565 199.814 246.87 200.169 247.107C200.372 247.31 200.618 247.454 200.897 247.53C201.287 247.733 201.71 247.826 202.158 247.809C202.446 247.767 202.742 247.733 203.03 247.691C203.292 247.581 203.555 247.471 203.817 247.36C204.198 247.157 204.503 246.87 204.74 246.514C204.943 246.311 205.087 246.066 205.163 245.786C205.366 245.397 205.459 244.974 205.442 244.525C205.4 244.237 205.366 243.941 205.324 243.653C205.214 243.391 205.104 243.129 204.994 242.866Z" fill="black"/>
<path d="M196.149 232.227C196.098 231.871 196.056 231.516 196.005 231.16C195.98 230.983 195.904 230.813 195.794 230.653C195.684 230.382 195.658 230.272 195.54 230.086C195.514 230.052 195.489 230.009 195.472 229.975C195.117 229.383 194.651 228.909 194.05 228.554C193.576 228.283 193.085 228.113 192.552 228.046C192.357 228.012 192.163 227.995 191.968 227.995C191.46 227.978 190.978 228.08 190.538 228.317C190.081 228.469 189.674 228.723 189.344 229.087C189.327 229.104 189.31 229.129 189.285 229.154C189.04 229.4 188.82 229.671 188.642 229.975C188.286 230.593 188.1 231.253 188.1 231.973C188.117 232.227 188.151 232.472 188.185 232.735C188.185 233.099 188.278 233.437 188.456 233.75C188.515 233.92 188.583 234.08 188.667 234.241C188.676 234.258 188.684 234.275 188.693 234.292C188.718 234.334 188.735 234.368 188.76 234.41C188.963 234.681 189.175 234.944 189.378 235.215C189.742 235.604 190.165 235.875 190.656 236.036C190.969 236.213 191.299 236.306 191.655 236.306C192.18 236.425 192.713 236.399 193.238 236.239C193.551 236.103 193.872 235.968 194.186 235.841C194.456 235.638 194.719 235.426 194.99 235.223C195.379 234.859 195.65 234.436 195.811 233.945C196.056 233.471 196.175 232.963 196.149 232.413C196.149 232.379 196.141 232.337 196.132 232.303C196.132 232.286 196.132 232.269 196.132 232.244L196.149 232.227Z" fill="black"/>
<path d="M184.782 217.534C184.528 217.34 184.266 217.137 184.012 216.942C183.42 216.595 182.776 216.426 182.091 216.417C181.566 216.4 181.075 216.51 180.618 216.747C180.144 216.9 179.738 217.162 179.391 217.534C179.018 217.881 178.756 218.288 178.604 218.762C178.367 219.219 178.257 219.71 178.274 220.234C178.316 220.573 178.367 220.911 178.409 221.25C178.587 221.893 178.917 222.46 179.391 222.934C179.645 223.129 179.907 223.332 180.161 223.527C180.753 223.874 181.397 224.043 182.082 224.051C182.607 224.068 183.098 223.958 183.555 223.721C184.029 223.569 184.435 223.307 184.782 222.934C185.155 222.587 185.417 222.181 185.569 221.707C185.806 221.25 185.916 220.759 185.899 220.234C185.857 219.896 185.806 219.557 185.764 219.219C185.586 218.575 185.256 218.008 184.782 217.534Z" fill="black"/>
<path d="M179.044 206.624C179.247 206.235 179.34 205.812 179.323 205.363C179.281 205.075 179.247 204.779 179.204 204.491C179.052 203.933 178.764 203.45 178.358 203.044C178.138 202.875 177.918 202.705 177.698 202.528C177.19 202.231 176.631 202.079 176.039 202.079C175.59 202.062 175.167 202.155 174.778 202.358C174.372 202.494 174.016 202.714 173.72 203.036C173.398 203.332 173.17 203.687 173.043 204.093C172.84 204.483 172.747 204.906 172.763 205.355C172.806 205.642 172.84 205.939 172.882 206.226C173.034 206.785 173.322 207.267 173.728 207.674L174.389 208.19C174.896 208.486 175.455 208.638 176.047 208.638C176.496 208.655 176.919 208.562 177.309 208.359C177.715 208.224 178.07 208.004 178.366 207.682C178.688 207.386 178.917 207.03 179.044 206.624Z" fill="black"/>
<path d="M179.526 192.11C179.763 192.296 180 192.473 180.237 192.66C180.787 192.981 181.38 193.134 182.006 193.142C182.489 193.159 182.937 193.057 183.36 192.837C183.792 192.694 184.173 192.457 184.494 192.11C184.833 191.788 185.078 191.415 185.222 190.975C185.442 190.561 185.544 190.104 185.527 189.621C185.485 189.308 185.442 188.995 185.4 188.69C185.231 188.098 184.935 187.581 184.494 187.141C184.257 186.955 184.02 186.777 183.783 186.591C183.233 186.27 182.641 186.117 182.015 186.109C181.532 186.092 181.084 186.193 180.66 186.413C180.229 186.557 179.848 186.794 179.526 187.141C179.188 187.463 178.942 187.835 178.798 188.275C178.578 188.69 178.477 189.147 178.494 189.63C178.536 189.943 178.578 190.256 178.621 190.561C178.79 191.153 179.086 191.669 179.526 192.11Z" fill="black"/>
<path d="M196.022 170.577C195.743 170.357 195.463 170.146 195.184 169.926C194.532 169.553 193.838 169.359 193.085 169.359C192.51 169.333 191.976 169.46 191.485 169.714C190.969 169.883 190.529 170.171 190.148 170.569C189.742 170.941 189.454 171.39 189.293 171.906C189.031 172.397 188.912 172.93 188.938 173.506C188.989 173.87 189.039 174.242 189.09 174.606C189.285 175.309 189.64 175.918 190.157 176.434C190.436 176.654 190.715 176.866 190.995 177.086C191.646 177.458 192.34 177.653 193.094 177.653C193.669 177.678 194.202 177.552 194.693 177.298C195.209 177.128 195.65 176.841 196.03 176.443C196.437 176.07 196.724 175.622 196.885 175.106C197.148 174.615 197.266 174.081 197.241 173.506L197.088 172.406C196.894 171.703 196.538 171.094 196.022 170.577Z" fill="black"/>
<path d="M283.029 96.2996C281.446 95.6987 279.686 95.6902 278.036 95.9864C277.951 95.9526 277.866 95.9187 277.782 95.8933C274.269 94.8692 270.477 96.0118 267.727 98.3055C264.739 100.794 263.351 104.662 263.216 108.462C263.148 110.358 263.41 112.33 264.011 114.133C264.739 116.333 265.712 118.695 267.778 119.964C268.582 120.455 269.546 120.709 270.477 120.734C271.468 120.768 272.331 120.48 273.203 120.066C274.388 119.507 275.234 118.449 275.987 117.425C277.079 115.927 278.036 114.302 279.051 112.745C280.211 110.959 281.345 109.156 282.496 107.362C283.046 106.498 283.605 105.635 284.146 104.763C284.832 103.646 285.365 102.503 285.873 101.293C286.228 100.43 285.958 98.9318 285.467 98.1785C284.866 97.2475 284.087 96.7143 283.046 96.3165L283.029 96.2996Z" fill="black"/>
<path d="M215.218 56.7498C217.452 55.8611 219.746 54.236 220 51.8493C220.16 50.3258 204.198 51.917 202.666 54.363C198.967 60.2707 212.704 57.757 215.218 56.7498Z" fill="black"/>
<path d="M232.06 47.1091C232.559 47.2107 233.067 47.2699 233.575 47.2868C233.99 47.3038 234.396 47.2868 234.811 47.2699C235.742 47.2107 236.673 47.1007 237.595 46.9652C237.815 46.9314 238.044 46.8975 238.264 46.8552C238.374 46.8383 238.493 46.8129 238.603 46.796C238.662 46.7875 238.713 46.7706 238.772 46.7621C238.789 46.7621 238.814 46.7621 238.831 46.7536C239.11 46.6944 239.288 46.5505 239.5 46.3728C239.669 46.2035 239.787 46.0004 239.855 45.7634C239.923 45.5179 239.923 45.2725 239.855 45.027C239.728 44.5531 239.356 44.2061 238.89 44.0622H238.865C238.738 44.0368 238.62 44.0199 238.493 44.0029C238.357 44.0029 238.213 44.0368 238.078 44.0622C238.036 44.0706 237.993 44.0791 237.951 44.0876C237.858 44.1045 237.765 44.1214 237.672 44.1468C237.494 44.1807 237.316 44.2145 237.13 44.2484C236.766 44.3076 236.41 44.3669 236.047 44.4177L236.41 44.3669C235.361 44.5107 234.303 44.57 233.245 44.6462C232.847 44.6716 232.441 44.7477 232.052 44.807L231.764 44.9255C231.62 45.0016 231.51 45.1032 231.425 45.2302C231.349 45.3063 231.298 45.391 231.273 45.4925C231.197 45.6364 231.163 45.7888 231.171 45.958C231.18 46.1696 231.239 46.3728 231.332 46.559C231.408 46.7029 231.51 46.8129 231.637 46.8975C231.755 47.0075 231.891 47.0753 232.043 47.1091H232.06Z" fill="black"/>
<path d="M268.31 44.5364C268.462 44.6887 268.598 44.8326 268.776 44.9595C268.911 45.0526 269.055 45.1542 269.199 45.2388C269.453 45.4081 269.724 45.5774 269.994 45.7213C270.341 45.899 270.705 46.0429 271.061 46.1783C271.366 46.2968 271.67 46.4068 271.975 46.5084C273.253 46.9231 274.616 47.1263 275.961 47.177C276.672 47.2024 277.392 47.177 278.094 47.1009C278.263 47.1009 278.424 47.0755 278.568 46.9908C278.721 46.94 278.856 46.8554 278.966 46.7369L279.161 46.483C279.271 46.2883 279.33 46.0852 279.33 45.8567C279.389 45.1457 279.042 44.4094 278.517 43.9439C278.01 43.4953 277.417 43.2075 276.774 43.0044C276.198 42.8267 275.589 42.7505 275.005 42.6489C274.286 42.522 273.566 42.4035 272.855 42.2765C272.457 42.2088 272.068 42.1411 271.67 42.0734C271.162 41.9888 270.655 41.8872 270.147 41.8364C269.969 41.8364 269.808 41.8703 269.664 41.9465C269.512 41.9972 269.377 42.0819 269.258 42.2088C269.063 42.4204 268.945 42.6489 268.911 42.9367C268.877 43.2245 268.911 43.5038 269.063 43.7408C269.241 44.0116 269.495 44.2401 269.817 44.3163C270.291 44.4348 270.782 44.494 271.264 44.5787C271.746 44.6633 272.229 44.7479 272.711 44.8241C273.659 44.9849 274.616 45.1373 275.564 45.3065C275.927 45.3743 276.283 45.4674 276.622 45.6112L276.325 45.4843C276.554 45.5774 276.765 45.6959 276.96 45.8482L276.706 45.6536C276.816 45.7382 276.918 45.8398 277.002 45.9413L276.808 45.6874C276.875 45.7721 276.926 45.8652 276.969 45.9667L276.842 45.6705C276.875 45.7551 276.901 45.8482 276.909 45.9329L276.867 45.6028C276.875 45.679 276.875 45.7636 276.867 45.8398C277.172 45.442 277.468 45.0442 277.773 44.6464H277.73C277.84 44.6379 277.95 44.621 278.06 44.6041C276.706 44.7818 275.335 44.7818 273.989 44.6041L274.302 44.6464C273.591 44.5533 272.889 44.4263 272.195 44.257C271.848 44.1724 271.509 44.0708 271.171 43.9693C270.832 43.8677 270.494 43.7577 270.155 43.6477C269.969 43.5884 269.791 43.5292 269.614 43.4615C269.52 43.4276 269.427 43.3853 269.326 43.3684C269.224 43.3514 269.131 43.3345 269.03 43.3091C268.733 43.2329 268.361 43.3599 268.209 43.6392C268.056 43.9185 268.09 44.2824 268.319 44.5194L268.31 44.5364Z" fill="black"/>
<path d="M296.808 53.7193C296.842 53.7954 296.875 53.8716 296.909 53.9478L296.825 53.7531C296.884 53.9986 297.07 54.2271 297.214 54.4302C297.366 54.6503 297.519 54.8703 297.696 55.0735C297.959 55.3866 298.238 55.6828 298.526 55.9706C298.814 56.2584 299.11 56.5377 299.431 56.7916C299.821 57.0963 300.21 57.3925 300.616 57.6718C302.03 58.6452 303.604 59.39 305.238 59.9232C306.109 60.2109 307.006 60.4225 307.912 60.558C308.073 60.6087 308.234 60.6172 308.395 60.5833C308.555 60.5833 308.708 60.5241 308.852 60.4395C309.105 60.2787 309.359 60.0163 309.41 59.7116C309.495 59.2122 309.512 58.7044 309.342 58.2135C309.173 57.7226 308.936 57.3417 308.615 56.9524C308.344 56.6223 308.005 56.3599 307.658 56.106C307.387 55.9029 307.091 55.7336 306.795 55.5728C306.05 55.1835 305.263 54.8703 304.493 54.5403C303.562 54.1425 302.622 53.7531 301.683 53.3723C300.726 52.9914 299.77 52.619 298.797 52.2635L298.467 52.2212C298.297 52.2212 298.136 52.2466 297.984 52.3312C297.747 52.4328 297.51 52.6021 297.392 52.839C297.29 53.0337 297.231 53.2453 297.222 53.4654C297.205 53.8039 297.375 54.1001 297.586 54.3456C298.103 54.9465 298.653 55.5136 299.237 56.0383C299.533 56.3092 299.838 56.5631 300.151 56.8085C300.532 57.1048 300.904 57.3925 301.327 57.638C301.556 57.7734 301.81 57.8834 302.055 57.985C302.36 58.1119 302.69 58.0781 303.012 58.0781C303.621 58.0781 303.985 57.401 303.697 56.8847C303.655 56.8085 303.613 56.7239 303.562 56.6477L303.655 56.8762C303.545 56.58 303.426 56.3007 303.189 56.0976C303.062 55.9875 302.935 55.8691 302.8 55.759C302.461 55.4797 302.123 55.2173 301.776 54.955L302.03 55.1496C301.048 54.3879 300.151 53.5331 299.338 52.5936C298.932 53.2876 298.534 53.9816 298.128 54.6757C299.778 55.2851 301.403 55.9283 303.02 56.6054L302.724 56.4784C303.469 56.7916 304.213 57.1217 304.958 57.4518C305.508 57.6972 306.05 57.985 306.524 58.3489L306.27 58.1543C306.524 58.3489 306.753 58.5605 306.947 58.8144L306.753 58.569C306.871 58.7213 306.973 58.8821 307.049 59.0599C307.006 58.9583 306.964 58.8652 306.922 58.7636C306.981 58.9075 307.023 59.0599 307.049 59.2207C307.032 59.1107 307.023 59.0006 307.006 58.8991C307.023 59.0514 307.023 59.2122 307.006 59.3646L307.049 59.0429V59.0768C307.548 58.789 308.048 58.5097 308.547 58.222C307.04 58.0188 305.576 57.6126 304.171 57.0201L304.45 57.1386C303.325 56.6646 302.233 56.0722 301.226 55.3866C300.938 55.192 300.659 54.9888 300.379 54.7688L300.599 54.938C300.32 54.7095 300.015 54.5064 299.728 54.2863L299.939 54.4471C299.499 54.1086 299.093 53.7277 298.653 53.3892L298.847 53.5331C298.695 53.4146 298.543 53.2876 298.39 53.1607C298.297 53.0845 298.204 52.9999 298.103 52.9237C298.001 52.8475 297.9 52.7883 297.798 52.7121C297.544 52.5343 297.121 52.6021 296.909 52.8306C296.825 52.9237 296.757 53.0337 296.723 53.1522C296.664 53.3469 296.723 53.5415 296.799 53.7193H296.808Z" fill="black"/>
<path d="M316.266 112.847C316.173 113.803 316.113 114.811 316.52 115.682C316.926 116.554 317.933 117.223 318.847 116.918C319.313 116.766 319.668 116.393 319.981 116.012C323.367 111.916 324.695 104.849 324.526 99.7198C324.501 98.8565 324.416 97.9509 323.951 97.223C320.734 92.1448 316.452 110.951 316.266 112.839V112.847Z" fill="black"/>
<path d="M345.846 143.215C345.905 143.553 345.99 143.909 346.269 144.154C346.548 144.4 347.056 144.484 347.429 144.256C347.615 144.137 347.733 143.96 347.826 143.79C348.867 141.911 348.69 139.313 348.055 137.578C347.945 137.29 347.81 136.986 347.53 136.799C345.558 135.513 345.727 142.546 345.846 143.223V143.215Z" fill="black"/>
<path d="M345.846 162.444C345.905 162.783 345.99 163.138 346.269 163.384C346.54 163.629 347.056 163.714 347.429 163.485C347.615 163.367 347.733 163.189 347.826 163.02C348.867 161.141 348.69 158.543 348.055 156.808C347.945 156.52 347.81 156.215 347.53 156.029C345.558 154.742 345.727 161.776 345.846 162.453V162.444Z" fill="black"/>
<path d="M278.509 134.751C275.546 137.096 274.395 141.607 276.223 144.916C278.212 148.53 282.859 149.825 286.972 149.571C291.086 149.317 295.055 147.878 299.16 147.514C307.04 146.804 314.674 150.037 321.919 153.202C323.967 149.85 321.657 145.551 319.05 142.606C314.454 137.417 308.8 133.287 303.036 129.428C299.871 127.303 296.494 125.196 292.694 124.823C291.924 124.747 291.136 124.747 290.417 125.035C288.91 125.627 288.098 127.345 288.073 128.962C288.056 130.536 288.758 132.077 288.724 133.507C285.203 132.703 281.556 132.331 278.5 134.751H278.509Z" fill="black"/>
<path d="M216.005 174.759C215.675 174.48 215.319 174.243 214.947 174.04C212.315 172.635 209.031 172.965 206.297 174.158C200.694 176.604 196.902 182.698 197.19 188.809C197.308 191.357 198.07 193.828 198.654 196.308C199.721 200.811 200.237 205.44 200.195 210.07C200.161 213.54 200.034 220.006 203.233 222.495C206.661 225.152 208.853 220.565 211.358 218.424C213.406 216.672 215.861 215.453 217.875 213.642C220.338 211.424 222.065 208.521 224.274 206.041C227.761 202.14 232.348 199.414 236.36 196.046C242.809 190.629 246.787 180.43 243.774 171.966C243.216 170.392 241.929 168.979 240.279 168.708C236.208 168.039 219.83 177.552 217.918 181.581C219.009 179.271 217.985 176.41 216.013 174.751L216.005 174.759Z" fill="black"/>
<path d="M222.792 170.688C225.043 162.868 231.273 145.864 230.503 145.83C231.941 145.889 233.143 147.057 233.676 148.395C234.218 149.732 234.227 151.205 234.227 152.643C235.708 149.563 238.111 146.93 241.048 145.17C239.914 148.048 238.492 150.807 236.817 153.397C239.33 152.017 242.369 150.612 244.916 151.924C242.411 154.556 239.804 157.265 236.444 158.627C235.369 159.067 234.218 159.364 233.228 159.973C231.908 160.785 230.977 162.089 230.079 163.358C227.583 166.879 225.094 171.534 222.013 174.319C221.971 173.82 222.284 172.499 222.801 170.696L222.792 170.688Z" fill="black"/>
<g clip-path="url(#clip1_342_5178)">
<path d="M677.543 102.395C675.219 85.0847 684.139 66.7992 699.191 58C701.471 66.8214 700.297 76.485 695.981 84.5306C703.441 78.3911 713.136 75.0443 722.787 75.2881C719.311 84.5085 712.848 92.5763 704.614 97.9844C713.357 99.3807 721.923 101.907 730.047 105.454C717.319 117.799 696.313 120.525 680.863 111.837" fill="#F8A919"/>
<path d="M634.778 169.331C638.629 169.376 642.835 167.89 646.841 164.3C649.83 161.618 652.287 158.338 654.013 154.725C655.541 151.467 655.363 147.743 656.647 144.618C654.854 148.984 653.017 153.395 650.162 157.141C647.306 160.887 643.256 163.967 638.585 164.632C633.915 165.297 628.713 163.059 626.809 158.737C625.304 155.323 626.057 151.289 627.584 147.876C630.439 141.515 635.752 136.617 641.374 132.494C650.007 126.155 659.879 121.19 670.482 119.617C676.17 118.774 681.992 118.907 687.614 117.644C694.83 116.026 701.338 112.214 707.69 108.446C699.633 108.823 691.643 109.997 683.807 111.926C690.359 109.089 696.38 105.033 701.448 100.023C695.273 102.417 689.075 104.833 682.899 107.227C688.389 102.55 693.059 96.8983 696.601 90.6037C691.665 95.2582 686.375 99.5359 680.774 103.37C685.932 95.103 690.447 86.4368 694.255 77.4824C688.632 82.3586 683.807 88.1656 680.022 94.5711C680.553 89.0965 681.682 83.6884 683.32 78.4576C675.174 88.2543 674.156 102.861 664.992 111.682C660.919 115.605 655.629 117.954 650.516 120.37C638.961 125.823 626.986 132.716 621.652 144.352C615.875 156.964 624.02 169.198 634.778 169.331Z" fill="#2C5629"/>
<path d="M704.99 66.3115C701.537 75.3102 696.225 83.5997 689.473 90.4928C696.911 85.3285 702.157 77.6375 707.248 70.1238" fill="#DD5513"/>
<path d="M705.743 70.7667C705.123 70.6116 704.547 70.3235 704.082 69.8802C701.028 66.9545 703.861 63.253 707.292 62.7211C709.373 62.4108 711.476 63.2087 711.963 65.8019C712.56 69.0158 708.664 71.476 705.765 70.7667H705.743Z" fill="black"/>
<path d="M723.451 74.7563C717.12 82.0262 709.284 87.9663 700.585 92.111C709.351 89.8281 716.921 84.42 724.27 79.1227" fill="#DD5513"/>
<path d="M722.609 79.2333C722.078 78.8787 721.658 78.4132 721.348 77.8148C719.488 74.0247 723.428 71.498 726.815 72.2072C728.874 72.6283 730.578 74.1133 730.135 76.7066C729.604 79.9204 725.089 80.8956 722.609 79.2333Z" fill="black"/>
<path d="M728.564 95.4355C719.511 98.7159 709.771 100.134 700.165 99.5359C708.93 101.797 718.182 100.733 727.169 99.6468" fill="#DD5513"/>
<path d="M725.686 98.9155C725.398 98.3614 725.243 97.7408 725.266 97.0758C725.465 92.8646 730.135 92.5543 732.769 94.8151C734.363 96.1671 735.138 98.2949 733.5 100.356C731.463 102.905 727.059 101.575 725.686 98.9155Z" fill="black"/>
<path d="M656.581 117.865L656.802 112.28C660.277 109.31 662.867 105.453 664.992 101.397C665.878 99.6686 666.697 97.9176 667.184 96.0337C668.025 92.709 667.781 89.2292 667.936 85.8159C668.091 82.0702 668.733 78.3687 669.84 74.8003C665.789 79.2553 661.783 83.7547 657.843 88.2762C656.005 90.3818 654.168 92.5539 653.039 95.1028C651.091 99.6021 651.755 105.143 654.699 109.066C653.814 113.122 652.862 117.112 651.977 121.168C651.91 121.456 651.999 121.922 652.287 121.855" fill="#2C5629"/>
<path d="M645.071 136.329C645.071 136.329 644.894 136.307 644.805 136.284C642.481 135.908 642.215 133.381 640.112 132.295L649.564 134.733C650.295 134.91 651.047 135.11 651.755 134.866C652.353 134.666 652.796 134.179 653.261 133.78C656.736 130.832 661.915 131.785 666.387 132.583C670.769 133.381 675.196 133.891 679.668 134.135C674.621 138.235 668.512 141.005 662.115 142.114C660.255 142.446 658.33 142.623 656.492 142.18C654.655 141.737 652.906 140.606 652.132 138.878C651.601 137.681 649.985 137.282 648.723 136.927C644.252 135.664 639.537 134.955 634.955 134.002C636.128 132.627 637.655 131.563 639.36 130.943" fill="#2C5629"/>
<path d="M620.7 247.904C613.883 246.33 606.224 245.953 601.908 240.722C601.398 240.102 600.911 239.326 601.022 238.506C601.133 237.642 601.841 236.999 602.527 236.489C614.148 228.022 630.727 239.016 639.736 246.707C637.965 235.824 626.455 228.222 625.57 217.228C625.481 216.054 625.57 214.768 626.322 213.882C628.182 211.709 631.657 213.837 633.494 216.031C639.825 223.678 644.274 232.899 646.31 242.629C648.369 237.553 650.427 232.477 652.464 227.38C653.593 224.609 654.81 221.683 657.178 219.844C659.547 218.004 663.421 217.738 665.258 220.11C666.918 222.26 666.21 225.363 665.28 227.934C662.734 234.982 659.126 241.631 654.633 247.616C659.481 244.557 664.417 241.454 669.928 239.969C675.44 238.484 681.77 238.816 686.374 242.23C678.406 248.746 668.534 252.913 658.307 254.065C668.644 257.523 679.933 262.266 684.183 272.307C684.958 274.168 685.401 276.496 684.095 278.047C681.726 280.862 677.343 278.047 674.665 275.543C668.999 270.267 662.115 266.278 654.699 264.039C662.513 270.711 663.841 283.743 657.488 291.855C649.033 287.09 652.663 273.548 647.306 265.436C649.276 275.653 645.093 286.802 636.881 293.185C634.092 295.357 630.196 297.02 627.097 295.291C618.265 290.393 633.693 272.063 636.659 266.455C637.346 265.148 637.943 263.308 636.792 262.377C635.73 261.535 634.202 262.288 633.051 263.02C627.341 266.766 621.408 270.157 615.299 273.193C612.333 274.656 608.482 275.942 606.002 273.769C603.811 271.841 604.187 268.14 606.002 265.857C607.818 263.574 610.607 262.355 613.285 261.247C619.328 258.72 625.393 256.193 631.436 253.644C628.846 250.32 624.928 248.879 620.7 247.904Z" fill="#DE202A"/>
<path d="M644.982 265.214C650.948 265.214 655.784 260.371 655.784 254.398C655.784 248.424 650.948 243.582 644.982 243.582C639.016 243.582 634.18 248.424 634.18 254.398C634.18 260.371 639.016 265.214 644.982 265.214Z" fill="#F5921C"/>
<path d="M766.614 183.561C759.508 185.068 753.2 189.168 747.799 194.022C753.908 184.47 761.988 176.18 771.395 169.841C758.048 170.528 745.01 176.069 735.271 185.223C739.543 175.05 746.648 166.073 755.59 159.601C744.523 160.022 733.765 165.763 727.258 174.739C728.32 163.192 724.115 149.361 720.219 138.457C716.345 149.384 712.117 163.214 713.18 174.739C706.672 165.763 695.915 160 684.847 159.601C693.79 166.073 700.895 175.05 705.167 185.223C695.428 176.069 682.39 170.506 669.043 169.841C678.45 176.18 686.529 184.447 692.639 194.022C687.238 189.168 680.929 185.068 673.824 183.561C666.719 182.054 658.75 183.45 653.438 188.393C665.59 187.174 678.185 194.045 683.74 204.949C687.459 212.241 688.898 216.453 696.38 220.354C702.71 223.656 709.926 223.634 711.918 231.547C714.973 243.693 717.762 255.927 720.241 268.206C722.742 255.927 725.509 243.715 728.564 231.547C730.556 223.634 737.772 223.656 744.102 220.354C751.584 216.453 753.023 212.241 756.742 204.949C762.297 194.045 774.87 187.174 787.044 188.393C781.732 183.45 773.763 182.054 766.658 183.561H766.614Z" fill="#6E160C"/>
<path d="M743.925 198.256C740.295 199.031 737.064 201.115 734.297 203.597C737.418 198.721 741.557 194.488 746.36 191.23C739.543 191.584 732.88 194.421 727.9 199.098C730.091 193.889 733.721 189.301 738.281 185.999C732.614 186.22 727.125 189.146 723.805 193.734C724.336 187.838 722.189 180.768 720.219 175.183C718.227 180.768 716.08 187.838 716.633 193.734C713.313 189.146 707.801 186.198 702.157 185.999C706.717 189.301 710.369 193.889 712.538 199.098C707.558 194.421 700.895 191.584 694.077 191.23C698.881 194.466 703.02 198.699 706.141 203.597C703.374 201.115 700.142 199.009 696.512 198.256C692.882 197.48 688.809 198.211 686.087 200.738C692.307 200.117 698.726 203.642 701.581 209.205C703.485 212.928 704.215 215.078 708.045 217.073C711.276 218.758 714.973 218.758 715.991 222.791C717.563 228.997 718.979 235.248 720.241 241.52C721.525 235.248 722.941 228.997 724.491 222.791C725.509 218.758 729.206 218.758 732.437 217.073C736.267 215.078 736.997 212.928 738.901 209.205C741.734 203.642 748.175 200.117 754.395 200.738C751.673 198.211 747.6 197.502 743.97 198.256H743.925Z" fill="#F5921C"/>
</g>
<defs>
<clipPath id="clip0_342_5178">
<rect width="144" height="164" fill="white" transform="translate(430 96)"/>
</clipPath>
<clipPath id="clip1_342_5178">
<rect width="186" height="238" fill="white" transform="translate(601 58)"/>
</clipPath>
</defs>
</svg>
