<svg width="66" height="62" viewBox="0 0 66 62" fill="none" xmlns="http://www.w3.org/2000/svg">
<path d="M48.9748 40.398C53.2597 43.5479 57.2732 47.7504 62.4546 47.6775C63.0796 47.6694 63.7623 47.5642 64.1817 47.1188C64.6259 46.6411 64.6505 45.9204 64.6012 45.2726C63.7623 34.4869 49.1639 30.3329 40.2404 28.9078C47.445 24.6323 57.5693 27.515 64.3955 22.6728C65.1275 22.1545 65.8349 21.4905 65.9747 20.616C66.3036 18.4945 63.3593 17.5309 61.1716 17.5552C53.5887 17.6443 46.0304 19.5876 39.3686 23.1586C41.3014 19.5067 43.2423 15.8547 45.1751 12.2109C46.236 10.2108 47.3217 8.08931 47.223 5.83823C47.1243 3.58715 45.3478 1.2389 43.0614 1.33607C40.9807 1.42514 39.5331 3.34423 38.5051 5.12566C35.6677 10.0165 33.5786 15.3284 32.3285 20.8184C31.7117 16.5592 31.0702 12.219 29.195 8.32414C27.3281 4.42928 24.0054 0.979787 19.7452 0C19.9097 7.74113 22.3688 15.4256 26.7524 21.8549C19.6301 17.62 11.2658 13.4498 3.32923 15.9114C1.86528 16.3649 0.294417 17.2556 0.0394597 18.7455C-0.429332 21.4662 3.37858 22.608 6.16666 22.9319C12.0471 23.612 17.7631 25.6202 22.7471 28.7701C14.9915 27.5393 6.76704 33.1265 5.18795 40.7057C12.154 43.2321 18.2237 34.5597 25.5927 33.6771C18.676 37.5153 14.2595 45.3536 14.6132 53.1595C14.7365 55.8154 15.6988 58.852 18.2319 59.7913C25.4447 62.4715 28.4713 44.7058 30.2642 40.2603C30.6836 39.2239 31.4568 37.985 32.5671 38.2036C33.5869 38.3979 33.9076 39.6449 34.0392 40.6571C34.689 45.7504 35.6512 50.8112 36.9178 55.7912C37.5346 58.2042 38.6943 61.0383 41.1945 61.4027C43.3904 61.7185 45.3642 59.7103 45.8001 57.5645C46.236 55.4187 45.5534 53.2243 44.879 51.1432C43.3575 46.4468 41.836 41.7422 40.3062 37.0457C43.522 36.908 46.2936 38.4546 48.9583 40.4142L48.9748 40.398Z" fill="#DE212B"/>
<path d="M33.1759 37.7581C37.7317 37.7581 41.4249 34.1218 41.4249 29.6363C41.4249 25.1509 37.7317 21.5146 33.1759 21.5146C28.62 21.5146 24.9268 25.1509 24.9268 29.6363C24.9268 34.1218 28.62 37.7581 33.1759 37.7581Z" fill="#F2911D"/>
</svg>
