<svg width="138" height="92" viewBox="0 0 138 92" fill="none" xmlns="http://www.w3.org/2000/svg">
<path d="M53.2719 63.7553L53.3305 63.3532C55.1308 67.8282 54.8042 72.9363 53.2886 77.5226C51.7814 82.1003 49.2275 86.2416 46.6987 90.3315C49.7634 91.1786 52.9453 89.801 55.8342 88.4662C67.557 83.0243 79.5394 77.4028 88.7669 68.2303C93.1294 63.9008 96.9142 58.5102 97.5841 52.3325" fill="#DE212B"/>
<path d="M100.607 8.3697C80.4184 -0.0155775 54.0923 -2.88197 31.1826 3.39843C36.8347 3.68934 41.8336 7.57395 44.982 12.3827C48.1304 17.1828 49.7214 22.8471 51.2286 28.4174C55.3065 25.8333 59.8114 23.9424 64.4921 22.8557" fill="#DE212B"/>
<mask id="mask0_174_6196" style="mask-type:luminance" maskUnits="userSpaceOnUse" x="32" y="6" width="106" height="62">
<path d="M35.6373 62.3347C42.3779 63.5412 50.3746 64.0032 57.1236 65.2097C63.4204 66.3391 69.7507 67.4686 76.1396 67.4429C89.5623 67.3745 102.717 62.0524 113.301 53.6072C123.885 45.162 131.982 33.7392 137.643 21.2982C138.371 19.6896 125.049 11.407 123.424 10.8337C118.643 9.14813 112.907 8.15558 107.883 7.35128C95.7418 5.40898 83.1482 6.41008 71.484 10.3717C63.0687 13.2295 55.1642 17.6104 48.1891 23.1892C41.5155 28.5369 38.7104 36.6142 32.0786 42.2956C34.0547 44.6829 33.6026 61.9754 35.6373 62.3347Z" fill="white"/>
</mask>
<g mask="url(#mask0_174_6196)">
<path d="M35.6373 62.3347C42.3779 63.5412 50.3746 64.0032 57.1236 65.2097C63.4204 66.3391 69.7507 67.4686 76.1396 67.4429C89.5623 67.3745 102.717 62.0524 113.301 53.6072C123.885 45.162 131.982 33.7392 137.643 21.2982C138.371 19.6896 125.049 11.407 123.424 10.8337C118.643 9.14813 112.907 8.15558 107.883 7.35128C95.7418 5.40898 83.1482 6.41008 71.484 10.3717C63.0687 13.2295 55.1642 17.6104 48.1891 23.1892C41.5155 28.5369 38.7104 36.6142 32.0786 42.2956C34.0547 44.6829 33.6026 61.9754 35.6373 62.3347Z" fill="#EA5B86"/>
<path d="M49.1521 18.5176C53.6068 24.2932 57.6596 30.411 61.2434 36.7855C62.7841 39.5235 64.2662 42.3899 64.6681 45.5216C64.9277 47.5837 64.71 49.6714 64.4923 51.7421C63.8894 57.4321 63.2865 63.1307 62.6836 68.8207C54.2432 68.0335 45.7944 67.2463 37.354 66.4591C37.0023 66.4249 36.6339 66.3907 36.3408 66.1853C35.9305 65.8944 35.7881 65.3468 35.6793 64.8505C33.7701 56.1486 33.3264 46.8906 29.1145 39.0786C28.8633 38.6166 28.587 38.1117 28.654 37.5812C28.7042 37.1106 29.014 36.7256 29.3071 36.3577C31.727 33.3715 34.147 30.3853 36.5585 27.3991" fill="#B1CF6F"/>
<path d="M103.002 16.1817C106.276 20.0236 108.294 26.2441 109.742 31.0528C112.179 39.13 112.673 47.9773 113.879 56.3113C125.367 45.4532 135.365 32.9523 143.487 19.2963C144.676 17.2941 121.214 7.53122 119.012 6.88949C109.902 4.237 99.8032 2.99632 90.3831 4.41669C95.5327 5.80282 99.5938 12.1859 103.002 16.1732V16.1817Z" fill="black"/>
</g>
<path d="M0 23.0693C2.10173 24.7549 3.65082 29.7776 5.32551 32.0963C7.6282 35.2879 10.517 37.8291 13.0123 40.8153C16.4119 44.8882 19.6357 52.1611 19.912 57.3976C20.113 61.2908 18.7565 65.0727 17.4168 68.7349C14.5782 76.487 11.7396 84.2391 8.90934 91.9997C9.42012 90.5965 17.4754 87.6873 19.058 86.7461C22.332 84.8038 25.4971 82.6732 28.5283 80.363C34.8335 75.5543 39.0537 70.3948 43.8182 64.0887C43.9773 63.8834 44.1364 63.6609 44.1699 63.4042C44.2118 63.0876 44.0527 62.7882 43.9019 62.5144C40.0334 55.4125 38.8862 47.0444 34.1134 40.3875C28.6874 32.8236 17.9359 28.5027 9.06843 26.3464C5.92002 25.5764 2.52879 25.0972 0.00838162 23.0693H0Z" fill="#EA5B86"/>
<path d="M82.0347 20.0234C82.6041 22.8214 84.9235 24.6182 86.3721 26.9541C89.1353 31.4206 88.2896 38.3085 84.5216 41.9706C90.4416 43.0145 95.2563 48.9612 95.6415 55.6951C95.6834 56.3967 95.6917 57.1411 96.0267 57.723C96.8389 59.1176 98.7648 58.5786 100.138 57.8427C103.027 56.294 112.547 51.7249 113 47.7547C113.335 44.8285 108.377 37.9063 106.862 35.8956C103.722 31.7543 99.9203 28.2461 95.7085 25.5423C94.3436 24.6696 82.1017 20.3486 82.0347 20.0234Z" fill="#DE212B"/>
<path d="M111.007 44.4777C106.209 40.4476 102.081 35.7416 96.9728 31.9939C96.0769 31.3351 90.8267 26.8943 89.9057 27.5959C89.1102 28.2034 90.0731 32.8752 90.0815 33.8421C93.2634 34.3811 96.035 35.4336 98.9155 36.9395C103.127 39.1385 107.289 41.5172 111.007 44.5034C111.007 44.5034 111.007 44.4863 111.007 44.4777Z" fill="#B1CF6F"/>
<path d="M111.015 45.9667C106.175 43.9474 101.729 41.3034 96.6631 39.5922C95.7588 39.2841 90.3411 37.0424 89.6964 37.7953C89.1437 38.4456 90.9357 41.8596 91.145 42.604C93.9836 42.296 96.571 42.4757 99.351 42.9891C103.32 43.7163 107.281 44.5891 111.007 46.0009C111.007 45.9924 111.007 45.9838 111.007 45.9752L111.015 45.9667Z" fill="#B1CF6F"/>
<path d="M111.057 47.8229C110.99 47.8229 110.923 47.8058 110.864 47.8058C110.513 47.7801 110.236 47.5662 110.094 47.2667C107.163 46.7191 104.224 46.1801 101.16 45.9918C100.213 45.9319 94.4106 45.1875 93.9752 46.0859C93.6067 46.8646 96.2025 49.6882 96.5877 50.347C99.2504 49.3031 101.796 48.7983 104.618 48.5587C106.77 48.3705 108.93 48.2421 111.082 48.2079C111.074 48.0796 111.057 47.9512 111.049 47.8143L111.057 47.8229Z" fill="#B1CF6F"/>
<path d="M115.763 24.533C116.96 25.7053 118.643 26.4411 120.293 26.2358C121.942 26.0218 123.483 24.7384 123.751 23.0613C124.345 19.4505 120.737 14.9413 116.977 15.9338C113.108 16.9606 113.36 22.18 115.763 24.533Z" fill="#B1CF6F"/>
<path d="M117.069 23.0866C117.772 23.7797 118.76 24.2075 119.732 24.0877C120.703 23.9679 121.607 23.2064 121.766 22.2224C122.118 20.1004 120 17.4479 117.781 18.0383C115.512 18.6373 115.654 21.709 117.069 23.0951V23.0866Z" fill="#DE212B"/>
<path d="M77.8647 4.57032C67.6156 4.69011 57.2744 4.81846 47.1342 7.25703C46.8077 7.33404 46.4643 7.41105 46.1713 7.25703C45.8866 7.11157 45.7275 6.79499 45.5684 6.49551C44.8734 5.21205 43.6425 4.32218 43.0061 3.11573C44.5719 1.50713 49.2862 2.21731 51.2958 2.16597C54.3019 2.09752 57.2996 2.1403 60.2889 2.29432C63.2782 2.44833 66.2591 2.72214 69.2233 3.10717C72.0117 3.46654 75.0596 4.59599 77.8647 4.56176V4.57032Z" fill="#B1CF6F"/>
<path d="M77.3202 8.25002C68.6202 9.34524 59.8448 10.4576 51.3877 13.478C51.1197 13.5721 50.8266 13.6748 50.5671 13.5807C50.3159 13.4865 50.1568 13.2384 49.9977 12.9988C49.3194 11.9977 48.2141 11.3646 47.5945 10.4233C48.8254 8.92598 52.8698 9.06288 54.5779 8.8233C57.1235 8.47249 59.6774 8.2158 62.2313 8.06178C64.7852 7.89921 67.3307 7.83932 69.8762 7.87354C72.271 7.90777 74.9338 8.5495 77.3118 8.25002H77.3202Z" fill="#B1CF6F"/>
<path d="M49.5037 87.8501C51.3626 87.3795 52.8363 85.942 54.0839 84.4532C56.6629 81.3729 58.6977 77.822 60.0877 74.0229C61.4526 70.2752 62.2564 67.9479 57.6929 67.6826C57.6259 68.35 57.517 69.0345 57.3496 69.7019C56.7885 71.8667 56.6713 74.1085 55.9847 76.2647C54.6366 80.5258 52.426 84.5131 49.5037 87.8501Z" fill="#B1CF6F"/>
<path d="M54.5027 86.8662C56.4035 86.6181 58.0279 85.3603 59.4263 84.0255C62.3319 81.2617 64.7518 77.9761 66.5521 74.3567C68.3272 70.7973 69.3823 68.5726 64.8858 67.7769C64.7518 68.4357 64.5592 69.0945 64.3164 69.7363C63.5209 71.824 63.1525 74.0316 62.2314 76.1022C60.4143 80.1751 57.7767 83.88 54.5027 86.8576V86.8662Z" fill="#B1CF6F"/>
<path d="M62.156 83.2553C64.0233 83.2553 65.5975 82.3997 66.9623 81.4671C69.7842 79.5333 72.1204 77.129 73.8453 74.3909C75.5451 71.6956 76.5499 70.01 72.1288 68.9062C72.0032 69.4282 71.8273 69.9416 71.5929 70.4378C70.8392 72.0465 70.4959 73.792 69.6167 75.3663C67.8834 78.4723 65.3379 81.1932 62.156 83.2639V83.2553Z" fill="#B1CF6F"/>
<path d="M45.2668 33.0035C45.1663 33.2859 45.0574 33.5854 45.1495 33.8763C45.2668 34.2442 45.6603 34.4153 46.0204 34.5437C48.3649 35.3993 50.7932 36.0154 53.255 36.3748C51.9906 39.224 50.9607 42.1846 50.1569 45.205C52.7191 46.3943 55.3568 47.4211 58.0446 48.2853C55.901 50.6212 54.1259 53.3164 52.8112 56.2342C52.694 56.4994 52.5768 56.7903 52.6438 57.0641C52.7191 57.3893 53.0206 57.6117 53.2969 57.8C55.5075 59.2974 57.7264 60.7947 59.937 62.2921C62.3151 56.4652 62.3151 49.6628 59.937 43.8359C58.9741 41.4829 57.6594 39.3096 56.3532 37.1448C53.7742 32.8923 51.1198 28.6825 48.6329 24.3701C47.2596 27.014 46.3386 30.1714 45.2751 33.0121L45.2668 33.0035Z" fill="#DE212B"/>
<path d="M38.9868 41.8253C38.9115 42.0306 38.8277 42.2617 38.9031 42.4756C38.9952 42.7494 39.2883 42.8777 39.5479 42.9804C41.2979 43.6136 43.1066 44.0756 44.9403 44.3494C44.0025 46.4714 43.2238 48.679 42.6293 50.9293C44.5384 51.8192 46.5062 52.5807 48.5074 53.2224C46.9081 54.9679 45.5851 56.9787 44.6054 59.152C44.5133 59.3488 44.4296 59.5627 44.4798 59.7766C44.5384 60.0247 44.7561 60.1873 44.9655 60.3242C46.615 61.4366 48.2646 62.5574 49.9225 63.6698C51.6977 59.3231 51.6977 54.2577 49.9225 49.9111C49.2108 48.157 48.2227 46.5399 47.2514 44.9227C45.3339 41.7483 43.3494 38.6081 41.4989 35.3994C40.4773 37.3674 39.7907 39.7204 38.9952 41.8424L38.9868 41.8253Z" fill="#DE212B"/>
<mask id="mask1_174_6196" style="mask-type:luminance" maskUnits="userSpaceOnUse" x="0" y="23" width="45" height="69">
<path d="M0 23.0693C2.10173 24.7549 3.65082 29.7776 5.32551 32.0963C7.6282 35.2879 10.517 37.8291 13.0123 40.8153C16.4119 44.8882 19.6357 52.1611 19.912 57.3976C20.113 61.2908 18.7565 65.0727 17.4168 68.7349C14.5782 76.487 11.7396 84.2391 8.90934 91.9997C9.42012 90.5965 17.4754 87.6873 19.058 86.7461C22.332 84.8038 25.4971 82.6732 28.5283 80.363C34.8335 75.5543 39.0537 70.3948 43.8182 64.0887C43.9773 63.8834 44.1364 63.6609 44.1699 63.4042C44.2118 63.0876 44.0527 62.7882 43.9019 62.5144C40.0334 55.4125 38.8862 47.0444 34.1134 40.3875C28.6874 32.8236 17.9359 28.5027 9.06843 26.3464C5.92002 25.5764 2.52879 25.0972 0.00838162 23.0693H0Z" fill="white"/>
</mask>
<g mask="url(#mask1_174_6196)">
<path d="M29.843 39.3607C26.8704 41.534 23.8728 43.6646 20.8416 45.7438C25.0869 45.7438 29.3322 45.7438 33.5776 45.7438C30.7473 49.1492 27.9171 52.5632 25.0869 55.9687C28.7963 55.481 32.5058 54.9933 36.2152 54.5055C33.2008 58.7837 29.9435 62.8994 26.4769 66.8097C29.9435 65.8086 33.3515 64.5764 36.659 63.1133C33.6027 68.6493 28.4698 72.6109 23.4792 76.4185C27.2891 76.0335 31.0488 75.135 34.6326 73.7489C33.6278 75.6826 31.995 77.18 30.3622 78.6004C23.3201 84.7439 15.7003 90.1943 7.63667 94.8576C15.0472 79.0025 15.1895 59.3228 6.29691 44.2806C2.94754 38.6163 -1.72483 33.1573 -1.78345 26.5432C-1.78345 25.6619 10.5757 30.4107 12.1416 31.1123C18.0951 33.7563 23.9984 36.4858 29.843 39.3778V39.3607Z" fill="black"/>
</g>
</svg>
