<svg width="173" height="135" viewBox="0 0 173 135" fill="none" xmlns="http://www.w3.org/2000/svg">
<path d="M77.2314 78.948C60.771 69.2929 51.0315 49.2882 53.5869 30.3674C62.7201 34.3552 70.256 41.8731 74.2715 50.9978C74.0142 40.4312 77.6671 29.8099 84.3902 21.6419C89.9861 30.8497 92.5796 41.8598 91.6873 52.5963C98.7914 46.005 106.734 40.3108 115.257 35.6985C117.316 54.99 105.49 74.9506 87.5759 82.4054" fill="#F8A919"/>
<path d="M106.022 160.911C108.66 157.619 110.2 152.996 109.817 147.12C109.528 142.745 108.369 138.411 106.396 134.488C104.63 130.97 101.285 128.626 99.4561 125.404C101.993 129.893 104.567 134.442 105.871 139.434C107.176 144.426 107.092 149.988 104.521 154.455C101.945 158.928 96.5057 161.917 91.5042 160.646C87.5462 159.637 84.5718 156.283 82.6648 152.664C79.1165 145.917 78.4814 138.032 78.726 130.415C79.0981 118.695 81.4777 106.848 87.2641 96.6477C90.3704 91.1746 94.4123 86.234 97.1166 80.5513C100.592 73.2393 101.692 65.0652 102.739 57.0386C97.6377 64.2319 93.2381 71.9216 89.6289 79.9674C91.5982 72.4103 92.1644 64.4896 91.2791 56.7229C89.1768 63.6729 87.0745 70.6229 84.9722 77.5729C84.6542 69.6838 82.9314 61.849 79.9045 54.556C80.5974 61.9522 80.7015 69.391 80.2199 76.8014C76.5891 66.7828 72.1646 57.0553 67.0186 47.7278C67.4257 55.8647 69.1653 63.9327 72.1401 71.5203C67.7979 67.3699 63.8826 62.7674 60.4896 57.8187C63.4303 71.427 75.3341 82.1511 76.7521 96.0044C77.3824 102.167 75.8462 108.313 74.4726 114.344C71.3765 127.979 69.234 142.968 75.652 155.387C82.6182 168.873 98.6462 170.088 106.026 160.893L106.022 160.911Z" fill="#2C5629"/>
<path d="M64.6437 30.9696C70.0779 40.009 73.6265 50.1729 75.0173 60.6302C75.5887 50.7328 72.5081 41.0291 69.4652 31.5855" fill="#DD5513"/>
<path d="M68.9978 33.337C68.4558 33.762 67.8222 34.063 67.1051 34.1625C62.535 34.8332 61.2361 29.8871 63.1014 26.5772C64.2269 24.5752 66.3417 23.305 68.9043 24.6383C72.07 26.286 71.5774 31.2982 68.9978 33.337Z" fill="black"/>
<path d="M84.3796 20.7433C86.3702 31.1037 86.2041 41.8632 83.9054 52.1601C87.8446 43.0622 88.2995 32.885 88.6878 22.9805" fill="#DD5513"/>
<path d="M87.6587 24.47C86.9971 24.6862 86.304 24.7416 85.5984 24.5985C81.0775 23.6518 81.5602 18.5584 84.4522 16.0933C86.1983 14.5976 88.6173 14.1312 90.5725 16.2681C92.9767 18.9029 90.7859 23.4465 87.6703 24.4686L87.6587 24.47Z" fill="black"/>
<path d="M105.634 30.2467C102.361 40.2746 96.9988 49.6112 90.0006 57.5011C97.8585 51.4469 103.178 42.7683 108.322 34.2877" fill="#DD5513"/>
<path d="M106.696 35.0932C106.015 34.9588 105.375 34.6784 104.83 34.2099C101.332 31.1913 104.221 26.9739 107.946 26.2185C110.201 25.7603 112.541 26.521 113.214 29.3322C114.044 32.8006 109.93 35.715 106.703 35.0982L106.696 35.0932Z" fill="black"/>
<path d="M76.3982 107.447L71.7448 103.494C71.5336 98.4969 69.9534 93.6559 67.8852 89.1039C67.0142 87.1755 66.0352 85.278 64.7413 83.5954C62.456 80.6343 59.2952 78.4979 56.451 76.064C53.3437 73.4034 50.5764 70.3484 48.2378 66.9998C49.3371 73.4876 50.5111 79.9604 51.7611 86.4298C52.3397 89.4291 52.955 92.4885 54.412 95.1686C56.9773 99.8892 62.1866 103.051 67.5606 103.135C70.4462 106.628 73.2507 110.132 76.1429 113.63C76.3507 113.887 76.8084 114.119 76.9418 113.815" fill="#2C5629"/>
<path d="M84.5437 129.798C84.4696 129.866 84.4007 129.927 84.3331 130C82.443 131.76 80.0734 130.274 77.736 131.36L86.2091 124.854C86.8549 124.363 87.5348 123.815 87.7931 123.043C88.0143 122.398 87.8981 121.689 87.8738 121.01C87.6821 116.028 91.9788 112.209 95.7021 108.896C99.3463 105.656 102.784 102.172 105.986 98.4924C106.104 105.606 104.377 112.745 101.022 119.019C100.045 120.844 98.9111 122.63 97.293 123.922C95.6749 125.213 93.5129 125.954 91.5114 125.458C90.1163 125.111 88.6963 126.243 87.5297 127.092C83.4343 130.104 79.6277 133.698 75.7313 136.992C75.3295 135.053 75.4501 133.01 76.0792 131.133" fill="#2C5629"/>
</svg>
