<svg width="78" height="88" viewBox="0 0 78 88" fill="none" xmlns="http://www.w3.org/2000/svg">
<path d="M28.2251 51.6671C26.582 55.6442 24.636 59.8842 20.8243 61.9734C20.192 61.2332 20.428 60.1294 20.6997 59.2009C20.9802 58.2372 21.2563 57.2736 21.5368 56.31C19.7512 57.7686 17.6271 58.8285 15.3695 59.3761C16.2245 56.6954 17.4535 54.1243 19.0031 51.7635C16.7855 52 14.5145 51.7328 12.4128 50.9926C15.2938 49.0347 18.2372 47.0417 21.5947 46.065C23.4649 45.5219 25.491 45.2722 27.0762 44.1553" fill="black"/>
<path d="M51.261 24.9443C48.8653 26.035 46.4919 27.1607 44.1318 28.3214C41.3844 29.6748 38.6369 31.0852 36.259 32.9993C33.8812 34.909 31.864 37.3706 30.9779 40.2659C30.2209 42.7319 26.9079 43.5553 24.7082 44.773C22.0854 46.2272 19.5071 47.7514 16.969 49.3458C19.0752 49.6874 21.2705 49.4597 23.261 48.7019C21.6178 50.6773 20.1973 52.8323 19.0307 55.1143C21.1903 54.8209 22.9448 53.3054 24.5568 51.8643C23.5192 53.5901 22.8602 55.5305 22.6242 57.519C26.0886 55.5567 28.1236 51.9081 30.7998 48.9866C31.0536 48.7063 31.3207 48.4303 31.6547 48.2551C32.0822 48.0274 32.5854 47.9836 33.0663 47.931C43.0631 46.9192 52.6681 42.4822 59.8462 35.5573" fill="#F7A81A"/>
<path d="M77.2495 17.6568C77.2985 17.7663 77.1961 17.8802 77.107 17.9634C75.5886 19.3343 74.0657 20.7053 72.5472 22.0763C73.3532 22.142 74.1681 22.1026 74.9652 21.9624C74.3996 22.2821 70.0803 25.6986 70.0758 26.0665C70.0848 25.4927 69.7686 24.9715 69.4658 24.4809C68.544 22.9873 67.6223 21.4937 66.6961 20.0001C69.3411 18.1386 72.2355 17.8977 75.3303 17.4553C75.9225 17.3721 76.5549 17.2888 77.0981 17.5385C77.1605 17.5648 77.2228 17.6042 77.2495 17.6655V17.6568Z" fill="#DE212B"/>
<path d="M63.6024 18.6504C64.2614 18.4139 64.9471 18.1861 65.6418 18.2649C66.8619 18.4095 67.7391 19.4432 68.4872 20.4024C68.9726 21.0244 69.596 21.804 69.9478 22.5049C70.5667 23.7357 71.1946 25.1636 70.6647 26.4338C70.4287 26.9988 69.9834 27.4543 69.5426 27.888C67.374 30.0035 64.9961 31.9133 62.4535 33.5865C59.9465 35.2378 57.5286 37.165 54.937 38.6498C54.8524 37.5592 55.1908 36.4379 55.8721 35.5706C55.2309 35.8378 54.5896 36.105 53.9484 36.3678C53.8015 36.4291 53.6323 36.4861 53.4942 36.4116C53.2404 36.2714 53.3784 35.886 53.5477 35.6539C53.984 35.0494 54.4249 34.4406 54.8613 33.8361C54.0954 34.0858 53.2493 34.0858 52.4879 33.8274C52.3008 33.766 52.0871 33.6434 52.0916 33.4507C52.0916 33.3237 52.1851 33.2229 52.2741 33.1309C52.8574 32.5352 53.4408 31.9352 54.0241 31.3395C52.8842 31.7074 51.4993 32.0359 50.5954 31.2606C50.5108 31.1862 50.4306 31.0986 50.4262 30.9847C50.4262 30.8577 50.5286 30.7525 50.6265 30.6649C51.3123 30.0605 51.998 29.456 52.6838 28.8516C51.5483 29.167 50.2525 28.8516 49.402 28.0457C50.208 27.4368 51.0318 26.8586 51.8823 26.3068C50.7423 26.517 49.5178 26.2454 48.5826 25.5709C53.6055 23.2757 58.3746 20.5207 63.5935 18.646L63.6024 18.6504Z" fill="#F7A81A"/>
<path d="M58.8019 15.4134C57.1721 15.4265 55.5646 15.7331 53.966 16.0398C56.1435 15.939 58.3388 16.2238 60.4138 16.8809C57.9603 16.9028 55.5156 17.4504 53.2936 18.4667C55.4043 18.4842 57.515 18.5017 59.6257 18.5193C57.6664 18.9354 55.5779 19.4261 54.2243 20.8805C55.618 20.587 57.0162 20.2935 58.41 20.0043C59.6924 19.7371 60.9793 19.4655 62.2885 19.4261C64.2389 19.3691 66.8572 20.2891 68.6606 19.575C67.4494 16.71 61.5627 15.3915 58.8019 15.4134Z" fill="black"/>
<path d="M65.0203 21.4673C65.8085 21.2701 66.423 22.1244 66.7748 22.8472C66.8994 23.1056 67.0286 23.4035 66.9217 23.6708C66.8638 23.8153 66.7391 23.9292 66.6234 24.0343C66.0178 24.5776 65.2029 25.1646 64.4548 24.8316C64.1119 24.6827 63.8759 24.3629 63.7245 24.03C63.4306 23.3904 63.4128 22.5931 63.8403 22.0324C64.2678 21.4716 65.1984 21.3008 65.7105 21.787" fill="black"/>
<path d="M60.106 77.1155C56.9088 81.3904 52.6785 84.912 47.8649 87.3123C46.7828 86.5589 45.8432 85.6041 45.1174 84.5178C44.9348 84.2463 44.7612 83.9397 44.7879 83.6155C44.8191 83.2695 45.0729 82.9848 45.3178 82.7307C47.4374 80.5057 49.557 78.2806 51.6766 76.0555C48.8178 77.6323 45.959 79.2092 43.1002 80.786C42.0404 79.3756 41.1098 77.8689 40.3261 76.2964C43.0691 74.8335 45.3445 72.5295 46.7427 69.7876C44.8591 71.0359 42.8954 72.1704 40.8693 73.1822C40.2637 73.4844 39.5245 73.7735 38.9457 73.4318C38.6651 73.2654 38.4826 72.9763 38.3133 72.7004C37.7523 71.7586 37.2535 70.7819 36.8172 69.7745C39.0792 68.075 41.0697 66.0339 42.7039 63.7431C40.9584 65.4119 38.723 66.577 36.3362 67.0632C36.0112 65.7798 35.6906 64.4965 35.3655 63.2175C35.2853 62.9021 35.2052 62.578 35.2854 62.2626C35.4234 61.6976 35.9978 61.3647 36.4965 61.045C37.8725 60.1646 38.9946 58.9031 39.7071 57.4489C38.153 58.6972 36.4476 59.7616 34.6397 60.6201C34.2033 59.1177 33.7624 57.6154 33.3261 56.113C34.7554 54.7245 35.842 52.9944 36.4698 51.1153C35.3789 52.2979 34.0385 53.2572 32.5557 53.9098C31.9902 52.6045 31.4247 51.3037 30.8636 49.9984C33.1969 47.3879 35.2631 44.5408 37.0131 41.5186C38.0239 45.4738 39.1594 49.648 42.1429 52.4819" fill="#EA5B86"/>
<path d="M56.2987 79.5639C52.1975 73.4405 48.2745 67.1989 44.5385 60.8478C42.6371 57.6196 40.7847 54.3609 38.9812 51.0802C37.73 48.8069 35.1963 45.8986 36.1136 43.1654C36.5678 41.8163 37.5296 40.695 38.4647 39.6175C41.2389 36.4244 43.5054 33.389 47.3216 31.2647C48.6485 30.5245 50.1002 29.8675 51.6231 29.9113C53.716 29.9726 55.5862 31.3873 56.646 33.1657C57.8884 35.2462 57.6301 37.7385 59.006 39.6613C60.4488 41.6762 62.8623 42.6047 64.3807 44.5276C65.9793 46.5512 66.0773 49.3194 66.0639 51.8861C66.0417 56.8444 65.868 61.8333 64.7548 66.6689C63.6415 71.5045 61.5353 76.2087 58.0665 79.8004C57.8394 80.0369 57.5678 80.2822 57.2382 80.2822C56.8241 80.2822 56.5302 79.9055 56.3031 79.5639H56.2987Z" fill="#F7A81A"/>
<path d="M62.5656 54.821C61.6839 52.3331 61.065 49.7533 60.7132 47.1427C60.5707 46.0609 62.1515 45.6798 63.0154 46.0609C63.8881 46.4463 64.0306 47.2873 64.1998 48.137C64.654 50.4453 64.0351 52.977 62.5656 54.8254V54.821Z" fill="#DE212B"/>
<path d="M48.5184 44.7078C49.2353 42.167 50.2149 39.7007 51.4439 37.357C51.9516 36.3845 53.4745 36.9627 53.9643 37.7556C54.4586 38.5617 54.089 39.3327 53.7372 40.1256C52.7754 42.2765 50.7983 44.0113 48.5228 44.7078H48.5184Z" fill="#DE212B"/>
<path d="M40.8888 41.4897C42.1846 39.181 43.7209 37.0082 45.4665 35.0106C46.1923 34.1827 47.5326 35.0895 47.822 35.9744C48.1159 36.8724 47.5727 37.5383 47.0428 38.226C45.6 40.0966 43.2712 41.3363 40.8888 41.4897Z" fill="#DE212B"/>
<path d="M57.0568 60.4011C56.6917 57.7906 56.5982 55.145 56.7763 52.5126C56.852 51.422 58.4817 51.3563 59.2476 51.895C60.0136 52.4338 60.0002 53.2923 59.9957 54.1595C59.9824 56.5073 58.8692 58.8725 57.0568 60.4011Z" fill="#DE212B"/>
<path d="M50.4004 67.5846C50.4316 64.9478 50.7389 62.3198 51.3177 59.7443C51.5582 58.6799 53.1791 58.8507 53.8559 59.4946C54.5461 60.1472 54.3903 60.9882 54.2522 61.8423C53.8826 64.1638 52.4221 66.3363 50.4004 67.5846Z" fill="#DE212B"/>
<path d="M48.4766 57.234C48.5078 54.5972 48.815 51.9692 49.3939 49.3937C49.6344 48.3293 51.2552 48.5002 51.9321 49.144C52.6223 49.7967 52.4664 50.6376 52.3284 51.4917C51.9588 53.8132 50.4982 55.9857 48.4766 57.234Z" fill="#DE212B"/>
<path d="M41.3918 51.5108C42.1399 48.9787 43.1507 46.5255 44.4109 44.1994C44.9319 43.2356 46.4459 43.827 46.9268 44.6287C47.4077 45.4304 47.0337 46.2058 46.6685 46.9943C45.68 49.1321 43.6851 50.8449 41.3963 51.5108H41.3918Z" fill="#DE212B"/>
<path d="M57.9871 44.7557C58.0316 44.6637 58.1919 44.6987 58.232 44.7951C58.2721 44.8915 58.232 45.001 58.1875 45.0929C57.4706 46.7311 56.4642 48.251 55.2352 49.565C54.9992 47.6071 55.0036 45.6185 55.2575 43.665C55.3554 42.916 55.5024 42.1364 55.9699 41.5363C56.1258 41.3392 56.3262 41.1596 56.5711 41.1114C56.8516 41.0545 57.1366 41.1728 57.3993 41.2867C57.76 41.4443 58.1162 41.5976 58.4769 41.7553C58.7308 41.8648 59.0157 42.005 59.0914 42.2678C59.1538 42.4693 59.0736 42.6795 58.9979 42.8766C58.6328 43.8008 58.2632 44.725 57.8981 45.6492" fill="#DE212B"/>
<path d="M60.7898 66.1082C60.8344 66.0162 60.9947 66.0513 61.0348 66.1476C61.0748 66.244 61.0348 66.3535 60.9902 66.4455C60.2733 68.0836 59.2669 69.6035 58.0379 70.9175C57.8019 68.9596 57.8064 66.9711 58.0602 65.0176C58.1582 64.2686 58.3051 63.4889 58.7727 62.8889C58.9285 62.6918 59.1289 62.5122 59.3738 62.464C59.6543 62.407 59.9393 62.5253 60.2021 62.6392C60.5627 62.7969 60.919 62.9502 61.2797 63.1079C61.5335 63.2174 61.8185 63.3575 61.8942 63.6203C61.9565 63.8218 61.8764 64.0321 61.8007 64.2292C61.4355 65.1534 61.0659 66.0776 60.7008 67.0018" fill="#DE212B"/>
<path d="M15.1088 0.217773C9.74747 0.791564 4.52419 2.61806 1.52588e-05 5.50454C0.120243 6.80542 0.485374 8.08002 1.07761 9.24512C1.22456 9.53859 1.40713 9.84081 1.70548 9.9766C2.02609 10.1255 2.40459 10.0511 2.74746 9.97222C5.76655 9.28893 8.79008 8.60125 11.8092 7.91796C8.98602 9.55611 6.16731 11.1943 3.34415 12.8324C4.05217 14.4399 4.90714 15.9904 5.89569 17.449C8.55853 15.8503 11.7246 15.075 14.8416 15.259C12.7977 16.2357 10.8117 17.3308 8.90587 18.5484C8.33589 18.912 7.71248 19.3938 7.72139 20.0595C7.72139 20.3837 7.88614 20.6815 8.04644 20.9662C8.59415 21.9167 9.19976 22.8321 9.8677 23.7082C12.4949 22.6394 15.2914 21.9693 18.1279 21.7284C15.7856 22.3766 13.6349 23.6906 12.014 25.4777C12.9803 26.3975 13.9421 27.3173 14.9084 28.2328C15.1444 28.4562 15.3938 28.6883 15.7055 28.7847C16.271 28.9511 16.8543 28.6314 17.3842 28.3686C18.8492 27.6415 20.5235 27.3173 22.1578 27.4444C20.2786 28.1408 18.4886 29.0562 16.8276 30.16C17.9275 31.2857 19.0318 32.4158 20.1317 33.5414C22.0732 33.0246 24.1393 32.9677 26.1031 33.3794C24.5134 33.7123 22.9994 34.3737 21.6813 35.3022C22.5452 36.4367 23.4046 37.5711 24.2685 38.7099C27.7373 38.0354 31.2774 37.7113 34.813 37.7376C31.8429 34.8905 28.7436 31.8288 27.7551 27.8692" fill="#EA5B86"/>
<path d="M11.0481 2.22886C14.37 8.7946 17.8878 15.2684 21.5882 21.6326C23.4718 24.8739 25.4044 28.0845 27.3815 31.2688C28.753 33.4764 30.0354 37.0899 32.8987 37.6812C34.3147 37.9747 35.7797 37.7207 37.2002 37.4622C41.4037 36.7089 45.2065 36.3015 48.9915 34.1246C50.3096 33.3669 51.6143 32.4646 52.3401 31.1462C53.3376 29.3372 53.0303 27.0333 52.0017 25.2418C50.795 23.1394 48.475 22.1057 47.4775 19.9726C46.4311 17.7344 46.8274 15.2114 45.9012 12.9557C44.926 10.5773 42.5392 9.10559 40.2816 7.82661C35.9133 5.35624 31.4381 2.99538 26.6289 1.51491C21.8198 0.0344402 16.6277 -0.539354 11.725 0.608228C11.4044 0.682689 11.0481 0.787813 10.8834 1.07252C10.6741 1.42293 10.8611 1.86531 11.0437 2.22886H11.0481Z" fill="#F7A81A"/>
<path d="M35.948 9.32442C37.6936 11.3264 39.644 13.1488 41.768 14.7565C42.6452 15.4224 43.7763 14.2659 43.8787 13.3415C43.9811 12.4041 43.3132 11.8608 42.6497 11.2914C40.8507 9.74497 38.3125 9.00025 35.948 9.32004V9.32442Z" fill="#DE212B"/>
<path d="M37.7781 26.359C40.3697 27.0249 43.0325 27.4279 45.7087 27.5637C46.8175 27.6206 47.0758 26.0348 46.6216 25.22C46.1629 24.3921 45.2991 24.322 44.4263 24.2256C42.0529 23.9628 39.537 24.7732 37.7781 26.359Z" fill="#DE212B"/>
<path d="M36.7748 34.4576C39.451 34.5145 42.1361 34.2999 44.7723 33.818C45.8632 33.6165 45.743 32.0175 45.1107 31.3298C44.4695 30.6289 43.6101 30.7559 42.7373 30.861C40.3683 31.1458 38.1062 32.5082 36.7748 34.4576Z" fill="#DE212B"/>
<path d="M28.272 11.2082C30.3827 12.8334 32.6626 14.2396 35.0627 15.4093C36.0602 15.8912 36.9329 14.5419 36.8483 13.6176C36.7593 12.6801 35.9978 12.2771 35.2319 11.8434C33.1613 10.6781 30.5207 10.4328 28.2675 11.2082H28.272Z" fill="#DE212B"/>
<path d="M18.6095 13.2672C20.9429 14.5639 23.4098 15.624 25.9613 16.4257C27.0167 16.7586 27.6801 15.2911 27.4575 14.393C27.2304 13.4775 26.4111 13.1883 25.5917 12.8773C23.3653 12.0274 20.7202 12.172 18.6095 13.2672Z" fill="#DE212B"/>
<path d="M26.7502 20.0992C29.0835 21.3959 31.5504 22.456 34.1019 23.2577C35.1573 23.5906 35.8208 22.1231 35.5981 21.2251C35.371 20.3095 34.5517 20.0204 33.7323 19.7093C31.5059 18.8595 28.8608 19.004 26.7502 20.0992Z" fill="#DE212B"/>
<path d="M28.217 29.0005C30.8176 29.6357 33.4849 30.008 36.1611 30.1088C37.2699 30.1526 37.5103 28.5624 37.0472 27.7563C36.5841 26.9503 35.7113 26.8714 34.8385 26.7882C32.4607 26.556 29.9537 27.3927 28.217 29.0048V29.0005Z" fill="#DE212B"/>
<path d="M42.4945 18.2821C42.6014 18.2909 42.6459 18.1332 42.5836 18.0543C42.5212 17.9755 42.4055 17.9536 42.2986 17.9404C40.4952 17.7258 38.6561 17.8177 36.8838 18.2033C38.4869 19.3904 40.2369 20.3805 42.0804 21.1515C42.7884 21.445 43.5454 21.7122 44.3069 21.6114C44.5562 21.5764 44.8145 21.4975 44.9837 21.3136C45.1752 21.1033 45.2153 20.801 45.2464 20.5206C45.291 20.1351 45.331 19.754 45.3756 19.3685C45.4067 19.0969 45.4245 18.7859 45.2331 18.5844C45.0861 18.4311 44.859 18.3916 44.6497 18.361C43.6523 18.2076 42.6548 18.0543 41.6574 17.901" fill="#DE212B"/>
<path d="M25.1293 5.16785C25.2361 5.17661 25.2807 5.0189 25.2183 4.94005C25.156 4.8612 25.0402 4.8393 24.9333 4.82615C23.1299 4.6115 21.2909 4.7035 19.5186 5.089C21.1216 6.27617 22.8716 7.2662 24.7152 8.03721C25.4232 8.33071 26.1802 8.59794 26.9416 8.49718C27.191 8.46214 27.4493 8.38328 27.6185 8.19929C27.8099 7.98902 27.85 7.68675 27.8812 7.40639C27.9257 7.02088 27.9658 6.63976 28.0103 6.25426C28.0415 5.98266 28.0593 5.67163 27.8678 5.47012C27.7209 5.31679 27.4938 5.27736 27.2845 5.2467C26.287 5.09337 25.2896 4.94005 24.2921 4.78673" fill="#DE212B"/>
</svg>
