<svg width="188" height="158" viewBox="0 0 188 158" fill="none" xmlns="http://www.w3.org/2000/svg">
<path d="M82.1739 18.3279L87.9931 12.0584L100.753 17.2798C100.753 17.2798 114.372 142.906 114.226 141.331C114.079 139.756 78.498 141.217 78.498 141.217L82.1739 18.3279Z" fill="#FFEEC1"/>
<path d="M92.613 74.5453L87.9976 12.0592L82.1739 18.3279L80.0726 84.422" fill="#F2911D"/>
<path d="M80.3399 79.7399L92.6132 74.5451L107.875 82.9267L110.229 104.573L78.707 108.169L80.3399 79.7399Z" fill="black"/>
<path d="M99.4448 103.867L9.10255 77.9771L68.9558 113.537L29.1365 124.348L79.4022 123.969L79.0198 117.208L104.936 111.154L104.575 104.726L99.4448 103.867Z" fill="#FFEEC1"/>
<path d="M104.575 104.726L175.394 95.6582L174.877 98.9666L112.117 121.988L110.608 112.909L102.923 111.622" fill="#FFEEC1"/>
<path d="M92.4021 115.575L96.6271 140.687L78.5024 141.218L79.0191 117.208" fill="black"/>
<path d="M104.936 111.153L164.011 100.728L112.384 121.168L104.936 111.153Z" fill="#F2911D"/>
<path d="M95.8352 109.615L31.1018 89.3579L71.6571 113.954L47.207 122.174L77.4474 122.477L78.3126 115.711L96.6279 109.1" fill="#F2911D"/>
</svg>
