<svg width="120" height="120" viewBox="0 0 120 120" fill="none" xmlns="http://www.w3.org/2000/svg">
<g clip-path="url(#clip0_331_348)">
<path d="M60 0L65.4305 25.7168L78.5389 2.93587L75.756 29.0763L95.2657 11.4611L84.5401 35.454L108.539 24.7343L90.9237 44.244L117.064 41.4611L94.2832 54.5695L120 60L94.2832 65.4305L117.064 78.5389L90.9237 75.756L108.539 95.2657L84.5401 84.5401L95.2657 108.539L75.756 90.9237L78.5389 117.064L65.4305 94.2832L60 120L54.5695 94.2832L41.4611 117.064L44.244 90.9237L24.7343 108.539L35.454 84.5401L11.4611 95.2657L29.0763 75.756L2.93587 78.5389L25.7168 65.4305L0 60L25.7168 54.5695L2.93587 41.4611L29.0763 44.244L11.4611 24.7343L35.454 35.454L24.7343 11.4611L44.244 29.0763L41.4611 2.93587L54.5695 25.7168L60 0Z" fill="#FFEEC1"/>
<path d="M59.9999 90.1058C76.627 90.1058 90.1058 76.627 90.1058 59.9999C90.1058 43.3729 76.627 29.894 59.9999 29.894C43.3729 29.894 29.894 43.3729 29.894 59.9999C29.894 76.627 43.3729 90.1058 59.9999 90.1058Z" fill="#F7A81A"/>
<path d="M59.9999 83.4339C72.9422 83.4339 83.4339 72.9422 83.4339 59.9999C83.4339 47.0577 72.9422 36.5659 59.9999 36.5659C47.0577 36.5659 36.5659 47.0577 36.5659 59.9999C36.5659 72.9422 47.0577 83.4339 59.9999 83.4339Z" fill="#DE212B"/>
<mask id="mask0_331_348" style="mask-type:luminance" maskUnits="userSpaceOnUse" x="36" y="36" width="48" height="48">
<path d="M59.9999 83.4339C72.9422 83.4339 83.4339 72.9422 83.4339 59.9999C83.4339 47.0577 72.9422 36.5659 59.9999 36.5659C47.0577 36.5659 36.5659 47.0577 36.5659 59.9999C36.5659 72.9422 47.0577 83.4339 59.9999 83.4339Z" fill="white"/>
</mask>
<g mask="url(#mask0_331_348)">
<path d="M60 65.1831C68.9423 65.1831 76.1914 57.934 76.1914 48.9917C76.1914 40.0494 68.9423 32.8003 60 32.8003C51.0577 32.8003 43.8086 40.0494 43.8086 48.9917C43.8086 57.934 51.0577 65.1831 60 65.1831Z" fill="#EA5B86"/>
</g>
</g>
<defs>
<clipPath id="clip0_331_348">
<rect width="120" height="120" fill="white"/>
</clipPath>
</defs>
</svg>
