<svg width="1368" height="100" viewBox="0 0 1368 100" fill="none" xmlns="http://www.w3.org/2000/svg">
<path d="M32.3456 16L30.2357 49.7573L0 58.6032L29.6466 67.4551C29.6466 67.4551 10.88 99.202 11.403 97.6416C11.926 96.0813 37.7916 78.3895 37.7916 78.3895L49.976 99.7241C49.976 99.7241 50.499 74.7467 52.5848 74.7467C54.6707 74.7467 76.7012 72.5382 76.7012 72.5382L52.5848 58.6152C52.5848 58.6152 74.0143 41.9556 72.4514 41.4335C70.8885 40.9114 44.6141 46.2945 44.6141 46.2945L32.3456 16Z" fill="#FFEEC1"/>
<path d="M35.7958 37.8145L34.6357 55.3802L18.0452 59.9832L34.3111 64.5922C34.3111 64.5922 24.0142 81.1078 24.2967 80.2976C24.5852 79.4875 38.7773 70.2815 38.7773 70.2815L45.4616 81.3839C45.4616 81.3839 45.7502 68.3851 46.8923 68.3851C48.0344 68.3851 60.1286 67.2328 60.1286 67.2328L46.8923 59.9892C46.8923 59.9892 58.6499 51.3174 57.7964 51.0473C56.9368 50.7773 42.5222 53.5799 42.5222 53.5799L35.7898 37.8145H35.7958Z" fill="#F2911D"/>
<path d="M140.689 0L132.49 15.6214L116.212 13.4129L128.439 23.9212C128.439 23.9212 112.744 35.0476 113.321 34.4174C113.898 33.7873 129.983 30.8587 129.983 30.8587L131.24 43.6054C131.24 43.6054 136.812 31.8249 137.804 32.269C138.796 32.7131 149.754 36.3379 149.754 36.3379L141.236 24.5873C141.236 24.5873 154.989 21.2086 154.352 20.6265C153.721 20.0443 140.064 17.0317 140.064 17.0317L140.677 0.0060013L140.689 0Z" fill="#B1CF6F"/>
<path d="M1335.16 16L1337.27 49.7573L1367.51 58.6032L1337.86 67.4551C1337.86 67.4551 1356.63 99.202 1356.1 97.6416C1355.58 96.0813 1329.71 78.3895 1329.71 78.3895L1317.53 99.7241C1317.53 99.7241 1317.01 74.7467 1314.92 74.7467C1312.84 74.7467 1290.8 72.5382 1290.8 72.5382L1314.92 58.6152C1314.92 58.6152 1293.49 41.9556 1295.05 41.4335C1296.62 40.9114 1322.89 46.2945 1322.89 46.2945L1335.16 16Z" fill="#FFEEC1"/>
<path d="M1331.71 37.8145L1332.87 55.3802L1349.46 59.9832L1333.19 64.5922C1333.19 64.5922 1343.49 81.1078 1343.21 80.2976C1342.92 79.4875 1328.73 70.2815 1328.73 70.2815L1322.04 81.3839C1322.04 81.3839 1321.76 68.3851 1320.61 68.3851C1319.47 68.3851 1307.38 67.2328 1307.38 67.2328L1320.61 59.9892C1320.61 59.9892 1308.86 51.3174 1309.71 51.0473C1310.57 50.7773 1324.98 53.5799 1324.98 53.5799L1331.72 37.8145H1331.71Z" fill="#F2911D"/>
<path d="M1226.82 0L1235.02 15.6214L1251.29 13.4129L1239.07 23.9212C1239.07 23.9212 1254.76 35.0476 1254.19 34.4174C1253.61 33.7873 1237.52 30.8587 1237.52 30.8587L1236.27 43.6054C1236.27 43.6054 1230.69 31.8249 1229.7 32.269C1228.71 32.7131 1217.75 36.3379 1217.75 36.3379L1226.27 24.5873C1226.27 24.5873 1212.52 21.2086 1213.15 20.6265C1213.78 20.0443 1227.44 17.0317 1227.44 17.0317L1226.82 0Z" fill="#B1CF6F"/>
</svg>
