<svg width="654" height="27" viewBox="0 0 654 27" fill="none" xmlns="http://www.w3.org/2000/svg">
<path d="M242.019 0L240.551 26.1307C236.348 21.5423 232.063 17.0089 227.539 12.5905C232.188 8.28204 237.07 4.10853 242.024 0H242.019Z" fill="#243C7A"/>
<path d="M241.946 0L240.488 26.1307C245.173 22.0071 250.008 17.9586 254.942 13.965C250.735 9.26169 246.423 4.60336 241.946 0Z" fill="#F2911D"/>
<path d="M185.138 0L183.67 26.1307C179.468 21.5423 175.182 17.0089 170.658 12.5905C175.307 8.28204 180.189 4.10853 185.143 0H185.138Z" fill="#243C7A"/>
<path d="M185.065 0.00488281L183.607 26.1355C188.292 22.012 193.128 17.9635 198.062 13.9699C193.854 9.26657 189.543 4.60824 185.065 0.00488281Z" fill="#F2911D"/>
<path d="M128.255 0L126.787 26.1307C122.585 21.5423 118.299 17.0089 113.775 12.5905C118.424 8.28204 123.306 4.10853 128.26 0H128.255Z" fill="#243C7A"/>
<path d="M128.182 0L126.724 26.1307C131.409 22.0071 136.245 17.9586 141.178 13.965C136.971 9.26169 132.66 4.60336 128.182 0Z" fill="#F2911D"/>
<path d="M412.666 0L411.197 26.1307C406.995 21.5423 402.71 17.0089 398.186 12.5905C402.834 8.28204 407.716 4.10853 412.671 0H412.666Z" fill="#243C7A"/>
<path d="M412.593 0L411.135 26.1307C415.82 22.0071 420.655 17.9586 425.589 13.965C421.381 9.26169 417.07 4.60336 412.593 0Z" fill="#F2911D"/>
<path d="M611.764 0L610.296 26.1307C606.094 21.5423 601.808 17.0089 597.284 12.5905C601.933 8.28204 606.815 4.10853 611.769 0H611.764Z" fill="#243C7A"/>
<path d="M611.691 0.00488281L610.233 26.1355C614.918 22.012 619.754 17.9635 624.687 13.9699C620.48 9.26657 616.169 4.60824 611.691 0.00488281Z" fill="#F2911D"/>
<path d="M71.3726 0L69.9044 26.1307C65.702 21.5423 61.4166 17.0089 56.8926 12.5905C61.5359 8.28204 66.4179 4.10353 71.3726 0Z" fill="#243C7A"/>
<path d="M71.2997 0L69.8418 26.1307C74.5267 22.0071 79.362 17.9586 84.2959 13.965C80.0883 9.26169 75.777 4.60336 71.2997 0Z" fill="#F2911D"/>
<path d="M640.206 0L638.737 26.1307C634.535 21.5423 630.25 17.0089 625.726 12.5905C630.374 8.28204 635.256 4.10853 640.211 0H640.206Z" fill="#243C7A"/>
<path d="M640.138 0L638.68 26.1307C643.365 22.0071 648.2 17.9586 653.134 13.965C648.926 9.26169 644.615 4.60336 640.138 0Z" fill="#F2911D"/>
<path d="M583.319 0L581.851 26.1307C577.648 21.5423 573.363 17.0089 568.839 12.5905C573.487 8.28204 578.369 4.10853 583.324 0H583.319Z" fill="#243C7A"/>
<path d="M583.251 0L581.793 26.1307C586.478 22.0071 591.313 17.9586 596.247 13.965C592.039 9.26169 587.728 4.60336 583.251 0Z" fill="#F2911D"/>
<path d="M554.877 0L553.409 26.1307C549.207 21.5423 544.921 17.0089 540.397 12.5905C545.046 8.28204 549.928 4.10853 554.882 0H554.877Z" fill="#243C7A"/>
<path d="M554.804 0L553.346 26.1307C558.031 22.0071 562.867 17.9586 567.801 13.965C563.593 9.26169 559.282 4.60336 554.804 0Z" fill="#F2911D"/>
<path d="M298.902 0L297.434 26.1307C293.231 21.5423 288.946 17.0089 284.422 12.5905C289.07 8.28204 293.952 4.10853 298.907 0H298.902Z" fill="#243C7A"/>
<path d="M298.829 0L297.371 26.1307C302.056 22.0071 306.891 17.9586 311.825 13.965C307.618 9.26169 303.306 4.60336 298.829 0Z" fill="#F2911D"/>
<path d="M213.578 0L212.109 26.1307C207.907 21.5423 203.622 17.0089 199.098 12.5905C203.746 8.28204 208.628 4.10853 213.583 0H213.578Z" fill="#243C7A"/>
<path d="M213.505 0L212.047 26.1307C216.732 22.0071 221.567 17.9586 226.501 13.965C222.293 9.26169 217.982 4.60336 213.505 0Z" fill="#F2911D"/>
<path d="M99.814 0L98.3458 26.1307C94.1434 21.5423 89.858 17.0089 85.334 12.5905C89.9825 8.28204 94.8594 4.10853 99.814 0Z" fill="#243C7A"/>
<path d="M99.7411 0L98.2832 26.1307C102.968 22.0071 107.803 17.9586 112.737 13.965C108.53 9.26669 104.213 4.60336 99.7411 0Z" fill="#F2911D"/>
<path d="M156.697 0L155.229 26.1307C151.026 21.5423 146.741 17.0089 142.217 12.5905C146.865 8.28204 151.747 4.10853 156.702 0H156.697Z" fill="#243C7A"/>
<path d="M156.624 0L155.166 26.1307C159.851 22.0071 164.686 17.9586 169.62 13.965C165.413 9.26169 161.101 4.60336 156.624 0Z" fill="#F2911D"/>
<path d="M270.461 0L268.992 26.1307C264.79 21.5423 260.505 17.0089 255.98 12.5905C260.629 8.28204 265.511 4.10853 270.466 0H270.461Z" fill="#243C7A"/>
<path d="M270.388 0L268.93 26.1307C273.615 22.0071 278.45 17.9586 283.384 13.965C279.176 9.26169 274.865 4.60336 270.388 0Z" fill="#F2911D"/>
<path d="M14.4852 0L13.017 26.1307C8.80941 21.5423 4.52403 17.0089 0 12.5905C4.64855 8.28704 9.53056 4.10853 14.4852 0Z" fill="#243C7A"/>
<path d="M14.4129 0L12.9551 26.1307C17.6399 22.0071 22.4753 17.9586 27.4092 13.965C23.2016 9.26669 18.8851 4.60336 14.4129 0Z" fill="#F2911D"/>
<path d="M497.995 0L496.526 26.1307C492.324 21.5423 488.039 17.0089 483.515 12.5905C488.163 8.28204 493.045 4.10853 498 0H497.995Z" fill="#243C7A"/>
<path d="M497.922 0L496.464 26.1307C501.149 22.0071 505.984 17.9586 510.918 13.965C506.71 9.26169 502.399 4.60336 497.922 0Z" fill="#F2911D"/>
<path d="M469.548 0L468.08 26.1307C463.878 21.5423 459.592 17.0089 455.068 12.5905C459.717 8.28204 464.599 4.10853 469.554 0H469.548Z" fill="#243C7A"/>
<path d="M469.481 0L468.023 26.1307C472.708 22.0071 477.544 17.9586 482.478 13.965C478.27 9.26169 473.959 4.60336 469.481 0Z" fill="#F2911D"/>
<path d="M355.785 0L354.316 26.1307C350.114 21.5423 345.829 17.0089 341.305 12.5905C345.953 8.28204 350.835 4.10853 355.79 0H355.785Z" fill="#243C7A"/>
<path d="M355.712 0L354.254 26.1307C358.939 22.0071 363.774 17.9586 368.708 13.965C364.5 9.26169 360.189 4.60336 355.712 0Z" fill="#F2911D"/>
<path d="M327.343 0L325.875 26.1307C321.672 21.5423 317.387 17.0089 312.863 12.5905C317.512 8.28204 322.394 4.10853 327.348 0H327.343Z" fill="#243C7A"/>
<path d="M327.27 0L325.812 26.1307C330.497 22.0071 335.332 17.9586 340.266 13.965C336.059 9.26169 331.747 4.60336 327.27 0Z" fill="#F2911D"/>
<path d="M42.9273 0L41.459 26.1307C37.2567 21.5423 32.9713 17.0089 28.4473 12.5905C33.0958 8.28704 37.9726 4.10853 42.9273 0Z" fill="#243C7A"/>
<path d="M42.8602 0.00488281L41.4023 26.1355C46.0872 22.012 50.9225 17.9635 55.8564 13.9699C51.6437 9.26657 47.3324 4.60324 42.8602 0.00488281Z" fill="#F2911D"/>
<path d="M384.226 0L382.758 26.1307C378.555 21.5423 374.27 17.0089 369.746 12.5905C374.395 8.28204 379.277 4.10853 384.231 0H384.226Z" fill="#243C7A"/>
<path d="M384.153 0.00488281L382.695 26.1355C387.38 22.012 392.216 17.9635 397.149 13.9699C392.942 9.26657 388.631 4.60824 384.153 0.00488281Z" fill="#F2911D"/>
<path d="M526.436 0L524.968 26.1307C520.765 21.5423 516.48 17.0089 511.956 12.5905C516.605 8.28204 521.487 4.10853 526.441 0H526.436Z" fill="#243C7A"/>
<path d="M526.363 0.00488281L524.905 26.1355C529.59 22.012 534.425 17.9635 539.359 13.9699C535.152 9.26657 530.84 4.60824 526.363 0.00488281Z" fill="#F2911D"/>
<path d="M441.107 0L439.639 26.1307C435.436 21.5423 431.151 17.0089 426.627 12.5905C431.276 8.28204 436.158 4.10853 441.112 0H441.107Z" fill="#243C7A"/>
<path d="M441.034 0.00488281L439.576 26.1355C444.261 22.012 449.096 17.9635 454.03 13.9699C449.823 9.26657 445.511 4.60824 441.034 0.00488281Z" fill="#F2911D"/>
</svg>
