<svg width="654" height="26" viewBox="0 0 654 26" fill="none" xmlns="http://www.w3.org/2000/svg">
<path d="M242.019 0L240.551 26.1307C236.348 21.5423 232.063 17.0089 227.539 12.5905C232.188 8.28204 237.07 4.10853 242.024 0H242.019Z" fill="#FFEEC1"/>
<path d="M241.946 0L240.488 26.1307C245.173 22.0071 250.008 17.9586 254.942 13.965C250.735 9.26169 246.423 4.60336 241.946 0Z" fill="#F2911D"/>
<path d="M185.138 0L183.67 26.1307C179.468 21.5423 175.182 17.0089 170.658 12.5905C175.307 8.28204 180.189 4.10853 185.143 0H185.138Z" fill="#FFEEC1"/>
<path d="M185.065 0.00488281L183.607 26.1355C188.292 22.012 193.128 17.9635 198.062 13.9699C193.854 9.26657 189.543 4.60824 185.065 0.00488281Z" fill="#F2911D"/>
<path d="M128.255 0L126.787 26.1307C122.585 21.5423 118.299 17.0089 113.775 12.5905C118.424 8.28204 123.306 4.10853 128.261 0H128.255Z" fill="#FFEEC1"/>
<path d="M128.182 0L126.725 26.1307C131.409 22.0071 136.245 17.9586 141.179 13.965C136.971 9.26169 132.66 4.60336 128.182 0Z" fill="#F2911D"/>
<path d="M412.668 0L411.199 26.1307C406.997 21.5423 402.712 17.0089 398.188 12.5905C402.836 8.28204 407.718 4.10853 412.673 0H412.668Z" fill="#FFEEC1"/>
<path d="M412.595 0L411.137 26.1307C415.822 22.0071 420.657 17.9586 425.591 13.965C421.383 9.26169 417.072 4.60336 412.595 0Z" fill="#F2911D"/>
<path d="M611.765 0L610.297 26.1307C606.095 21.5423 601.809 17.0089 597.285 12.5905C601.934 8.28204 606.816 4.10853 611.77 0H611.765Z" fill="#FFEEC1"/>
<path d="M611.692 0.00488281L610.234 26.1355C614.919 22.012 619.755 17.9635 624.688 13.9699C620.481 9.26657 616.17 4.60824 611.692 0.00488281Z" fill="#F2911D"/>
<path d="M71.3726 0L69.9044 26.1307C65.702 21.5423 61.4166 17.0089 56.8926 12.5905C61.5359 8.28204 66.4179 4.10353 71.3726 0Z" fill="#FFEEC1"/>
<path d="M71.2997 0L69.8418 26.1307C74.5267 22.0071 79.362 17.9586 84.2959 13.965C80.0883 9.26169 75.777 4.60336 71.2997 0Z" fill="#F2911D"/>
<path d="M640.207 0L638.738 26.1307C634.536 21.5423 630.251 17.0089 625.727 12.5905C630.375 8.28204 635.257 4.10853 640.212 0H640.207Z" fill="#FFEEC1"/>
<path d="M640.14 0L638.682 26.1307C643.367 22.0071 648.202 17.9586 653.136 13.965C648.928 9.26169 644.617 4.60336 640.14 0Z" fill="#F2911D"/>
<path d="M583.318 0L581.85 26.1307C577.647 21.5423 573.362 17.0089 568.838 12.5905C573.486 8.28204 578.368 4.10853 583.323 0H583.318Z" fill="#FFEEC1"/>
<path d="M583.251 0L581.793 26.1307C586.478 22.0071 591.313 17.9586 596.247 13.965C592.039 9.26169 587.728 4.60336 583.251 0Z" fill="#F2911D"/>
<path d="M554.876 0L553.408 26.1307C549.206 21.5423 544.921 17.0089 540.396 12.5905C545.045 8.28204 549.927 4.10853 554.882 0H554.876Z" fill="#FFEEC1"/>
<path d="M554.804 0L553.346 26.1307C558.031 22.0071 562.866 17.9586 567.8 13.965C563.592 9.26169 559.281 4.60336 554.804 0Z" fill="#F2911D"/>
<path d="M298.902 0L297.434 26.1307C293.231 21.5423 288.946 17.0089 284.422 12.5905C289.07 8.28204 293.952 4.10853 298.907 0H298.902Z" fill="#FFEEC1"/>
<path d="M298.829 0L297.371 26.1307C302.056 22.0071 306.891 17.9586 311.825 13.965C307.618 9.26169 303.306 4.60336 298.829 0Z" fill="#F2911D"/>
<path d="M213.578 0L212.109 26.1307C207.907 21.5423 203.622 17.0089 199.098 12.5905C203.746 8.28204 208.628 4.10853 213.583 0H213.578Z" fill="#FFEEC1"/>
<path d="M213.505 0L212.047 26.1307C216.732 22.0071 221.567 17.9586 226.501 13.965C222.293 9.26169 217.982 4.60336 213.505 0Z" fill="#F2911D"/>
<path d="M99.814 0L98.3458 26.1307C94.1434 21.5423 89.858 17.0089 85.334 12.5905C89.9825 8.28204 94.8594 4.10853 99.814 0Z" fill="#FFEEC1"/>
<path d="M99.7411 0L98.2832 26.1307C102.968 22.0071 107.803 17.9586 112.737 13.965C108.53 9.26669 104.213 4.60336 99.7411 0Z" fill="#F2911D"/>
<path d="M156.697 0L155.229 26.1307C151.026 21.5423 146.741 17.0089 142.217 12.5905C146.865 8.28204 151.747 4.10853 156.702 0H156.697Z" fill="#FFEEC1"/>
<path d="M156.624 0L155.166 26.1307C159.851 22.0071 164.686 17.9586 169.62 13.965C165.413 9.26169 161.101 4.60336 156.624 0Z" fill="#F2911D"/>
<path d="M270.461 0L268.992 26.1307C264.79 21.5423 260.505 17.0089 255.98 12.5905C260.629 8.28204 265.511 4.10853 270.466 0H270.461Z" fill="#FFEEC1"/>
<path d="M270.388 0L268.93 26.1307C273.615 22.0071 278.45 17.9586 283.384 13.965C279.176 9.26169 274.865 4.60336 270.388 0Z" fill="#F2911D"/>
<path d="M14.4852 0L13.017 26.1307C8.80941 21.5423 4.52403 17.0089 0 12.5905C4.64855 8.28704 9.53056 4.10853 14.4852 0Z" fill="#FFEEC1"/>
<path d="M14.4129 0L12.9551 26.1307C17.6399 22.0071 22.4753 17.9586 27.4092 13.965C23.2016 9.26669 18.8851 4.60336 14.4129 0Z" fill="#F2911D"/>
<path d="M497.996 0L496.527 26.1307C492.325 21.5423 488.04 17.0089 483.516 12.5905C488.164 8.28204 493.046 4.10853 498.001 0H497.996Z" fill="#FFEEC1"/>
<path d="M497.923 0L496.465 26.1307C501.15 22.0071 505.985 17.9586 510.919 13.965C506.711 9.26169 502.4 4.60336 497.923 0Z" fill="#F2911D"/>
<path d="M469.548 0L468.08 26.1307C463.878 21.5423 459.592 17.0089 455.068 12.5905C459.717 8.28204 464.599 4.10853 469.554 0H469.548Z" fill="#FFEEC1"/>
<path d="M469.481 0L468.023 26.1307C472.708 22.0071 477.544 17.9586 482.478 13.965C478.27 9.26169 473.959 4.60336 469.481 0Z" fill="#F2911D"/>
<path d="M355.785 0L354.316 26.1307C350.114 21.5423 345.829 17.0089 341.305 12.5905C345.953 8.28204 350.835 4.10853 355.79 0H355.785Z" fill="#FFEEC1"/>
<path d="M355.712 0L354.254 26.1307C358.939 22.0071 363.774 17.9586 368.708 13.965C364.5 9.26169 360.189 4.60336 355.712 0Z" fill="#F2911D"/>
<path d="M327.343 0L325.875 26.1307C321.673 21.5423 317.387 17.0089 312.863 12.5905C317.512 8.28204 322.394 4.10853 327.348 0H327.343Z" fill="#FFEEC1"/>
<path d="M327.27 0L325.812 26.1307C330.497 22.0071 335.333 17.9586 340.267 13.965C336.059 9.26169 331.748 4.60336 327.27 0Z" fill="#F2911D"/>
<path d="M42.9273 0L41.459 26.1307C37.2567 21.5423 32.9713 17.0089 28.4473 12.5905C33.0958 8.28704 37.9726 4.10853 42.9273 0Z" fill="#FFEEC1"/>
<path d="M42.8602 0.00488281L41.4023 26.1355C46.0872 22.012 50.9225 17.9635 55.8564 13.9699C51.6437 9.26657 47.3324 4.60324 42.8602 0.00488281Z" fill="#F2911D"/>
<path d="M384.226 0L382.758 26.1307C378.555 21.5423 374.27 17.0089 369.746 12.5905C374.395 8.28204 379.277 4.10853 384.231 0H384.226Z" fill="#FFEEC1"/>
<path d="M384.153 0.00488281L382.695 26.1355C387.38 22.012 392.216 17.9635 397.149 13.9699C392.942 9.26657 388.631 4.60824 384.153 0.00488281Z" fill="#F2911D"/>
<path d="M526.437 0L524.969 26.1307C520.766 21.5423 516.481 17.0089 511.957 12.5905C516.606 8.28204 521.488 4.10853 526.442 0H526.437Z" fill="#FFEEC1"/>
<path d="M526.364 0.00488281L524.906 26.1355C529.591 22.012 534.426 17.9635 539.36 13.9699C535.153 9.26657 530.841 4.60824 526.364 0.00488281Z" fill="#F2911D"/>
<path d="M441.109 0L439.641 26.1307C435.438 21.5423 431.153 17.0089 426.629 12.5905C431.277 8.28204 436.159 4.10853 441.114 0H441.109Z" fill="#FFEEC1"/>
<path d="M441.036 0.00488281L439.578 26.1355C444.263 22.012 449.098 17.9635 454.032 13.9699C449.825 9.26657 445.513 4.60824 441.036 0.00488281Z" fill="#F2911D"/>
</svg>
