<svg width="57" height="61" viewBox="0 0 57 61" fill="none" xmlns="http://www.w3.org/2000/svg">
<path d="M23.7822 0L22.2309 24.5143L0 30.9381L21.7977 37.3663C21.7977 37.3663 7.99958 60.4206 8.38409 59.2875C8.7686 58.1544 27.7864 45.3067 27.7864 45.3067L36.745 60.7997C36.745 60.7997 37.1295 42.6613 38.6632 42.6613C40.1968 42.6613 56.3948 41.0576 56.3948 41.0576L38.6632 30.9468C38.6632 30.9468 54.4192 18.8487 53.2701 18.4696C52.121 18.0904 32.8027 21.9996 32.8027 21.9996L23.7822 0Z" fill="#FFEEC1"/>
<path d="M26.3193 15.8418L25.4663 28.5979L13.2681 31.9406L25.2277 35.2876C25.2277 35.2876 17.6568 47.2811 17.8645 46.6927C18.0767 46.1044 28.5115 39.4191 28.5115 39.4191L33.4261 47.4815C33.4261 47.4815 33.6383 38.0419 34.478 38.0419C35.3177 38.0419 44.2101 37.2052 44.2101 37.2052L34.478 31.9449C34.478 31.9449 43.1228 25.6475 42.4953 25.4514C41.8632 25.2553 31.2649 27.2905 31.2649 27.2905L26.3149 15.8418H26.3193Z" fill="#6E160C"/>
</svg>
