<svg width="970" height="696" viewBox="0 0 970 696" fill="none" xmlns="http://www.w3.org/2000/svg">
<path d="M806.395 204.618C803.036 212.75 799.057 221.418 791.264 225.69C789.971 224.176 790.454 221.92 791.009 220.021C791.583 218.051 792.147 216.081 792.721 214.111C789.07 217.093 784.727 219.26 780.112 220.379C781.86 214.899 784.372 209.642 787.54 204.815C783.007 205.299 778.364 204.753 774.066 203.239C779.957 199.236 785.975 195.162 792.839 193.165C796.663 192.054 800.805 191.544 804.046 189.26" fill="black"/>
<path d="M853.498 149.982C848.6 152.212 843.748 154.514 838.923 156.887C833.305 159.654 827.688 162.538 822.826 166.451C817.965 170.355 813.841 175.388 812.029 181.308C810.481 186.349 803.708 188.033 799.211 190.522C793.848 193.495 788.577 196.612 783.388 199.872C787.694 200.57 792.182 200.104 796.252 198.555C792.892 202.594 789.988 207 787.603 211.665C792.018 211.065 795.605 207.967 798.901 205.021C796.78 208.549 795.432 212.516 794.95 216.582C802.033 212.57 806.193 205.11 811.665 199.137C812.184 198.564 812.73 198 813.413 197.642C814.287 197.176 815.316 197.086 816.299 196.979C836.738 194.91 856.375 185.839 871.051 171.681" fill="#F7A81A"/>
<path d="M906.63 135.082C906.73 135.305 906.521 135.538 906.339 135.708C903.234 138.511 900.121 141.314 897.016 144.117C898.664 144.252 900.33 144.171 901.96 143.884C900.804 144.538 891.973 151.523 891.964 152.275C891.982 151.102 891.335 150.037 890.716 149.034C888.832 145.98 886.947 142.926 885.054 139.873C890.461 136.067 896.379 135.574 902.706 134.67C903.917 134.5 905.21 134.329 906.321 134.84C906.448 134.894 906.576 134.974 906.63 135.1V135.082Z" fill="#DE212B"/>
<path d="M878.735 137.114C880.083 136.63 881.485 136.165 882.905 136.326C885.4 136.621 887.193 138.735 888.723 140.696C889.715 141.968 890.99 143.562 891.709 144.995C892.974 147.511 894.258 150.43 893.175 153.027C892.692 154.183 891.782 155.114 890.88 156C886.447 160.326 881.585 164.23 876.387 167.651C871.261 171.027 866.318 174.967 861.019 178.003C860.846 175.773 861.538 173.481 862.931 171.708C861.62 172.254 860.309 172.8 858.998 173.338C858.697 173.463 858.351 173.579 858.069 173.427C857.55 173.141 857.833 172.353 858.178 171.878C859.071 170.642 859.972 169.397 860.864 168.162C859.298 168.672 857.569 168.672 856.012 168.144C855.629 168.018 855.192 167.768 855.201 167.373C855.201 167.114 855.393 166.908 855.575 166.72C856.767 165.502 857.96 164.275 859.153 163.057C856.822 163.809 853.991 164.481 852.142 162.896C851.969 162.744 851.806 162.565 851.797 162.332C851.797 162.072 852.006 161.857 852.206 161.678C853.608 160.442 855.01 159.206 856.412 157.971C854.091 158.615 851.441 157.971 849.703 156.323C851.35 155.078 853.035 153.896 854.774 152.768C852.443 153.197 849.939 152.642 848.027 151.263C858.297 146.571 868.047 140.938 878.717 137.105L878.735 137.114Z" fill="#F7A81A"/>
<path d="M868.913 130.496C865.581 130.523 862.294 131.15 859.026 131.777C863.478 131.571 867.966 132.153 872.209 133.497C867.192 133.541 862.194 134.661 857.651 136.739C861.967 136.775 866.282 136.81 870.597 136.846C866.591 137.697 862.322 138.7 859.554 141.674C862.403 141.074 865.262 140.474 868.112 139.882C870.734 139.336 873.365 138.781 876.041 138.7C880.029 138.584 885.382 140.465 889.069 139.005C886.593 133.147 874.557 130.451 868.913 130.496Z" fill="black"/>
<path d="M881.622 142.872C883.233 142.469 884.489 144.216 885.209 145.694C885.464 146.222 885.728 146.831 885.509 147.377C885.391 147.673 885.136 147.906 884.899 148.121C883.661 149.231 881.995 150.432 880.465 149.751C879.764 149.446 879.282 148.793 878.972 148.112C878.372 146.804 878.335 145.174 879.209 144.028C880.083 142.881 881.986 142.532 883.033 143.526" fill="black"/>
<path d="M871.58 256.647C865.043 265.387 856.394 272.587 846.553 277.495C844.341 275.954 842.42 274.002 840.936 271.781C840.562 271.226 840.207 270.599 840.262 269.937C840.326 269.229 840.845 268.647 841.345 268.128C845.679 263.578 850.013 259.029 854.346 254.48C848.501 257.704 842.656 260.928 836.812 264.152C834.645 261.268 832.742 258.187 831.14 254.973C836.748 251.982 841.4 247.271 844.259 241.665C840.408 244.217 836.393 246.537 832.25 248.605C831.012 249.223 829.501 249.814 828.318 249.116C827.744 248.776 827.371 248.185 827.025 247.62C825.878 245.695 824.858 243.698 823.966 241.638C828.591 238.164 832.66 233.991 836.001 229.307C832.433 232.719 827.862 235.101 822.983 236.095C822.318 233.471 821.662 230.847 820.998 228.232C820.834 227.588 820.67 226.925 820.834 226.28C821.116 225.125 822.291 224.444 823.31 223.791C826.123 221.991 828.418 219.412 829.874 216.439C826.697 218.991 823.21 221.167 819.514 222.922C818.622 219.85 817.72 216.779 816.828 213.707C819.751 210.868 821.972 207.331 823.256 203.489C821.025 205.907 818.285 207.868 815.253 209.203C814.097 206.534 812.941 203.874 811.794 201.206C816.564 195.869 820.788 190.048 824.366 183.869C826.433 191.955 828.755 200.489 834.854 206.283" fill="#EA5B86"/>
<path d="M863.796 261.653C855.411 249.134 847.39 236.373 839.752 223.388C835.865 216.788 832.077 210.125 828.39 203.418C825.832 198.77 820.652 192.824 822.527 187.236C823.456 184.478 825.422 182.185 827.334 179.982C833.006 173.454 837.64 167.248 845.442 162.905C848.155 161.391 851.123 160.048 854.237 160.138C858.516 160.263 862.339 163.155 864.506 166.791C867.046 171.045 866.518 176.14 869.331 180.072C872.281 184.191 877.215 186.09 880.32 190.021C883.588 194.158 883.788 199.818 883.761 205.066C883.716 215.203 883.361 225.403 881.085 235.289C878.809 245.176 874.502 254.793 867.41 262.137C866.946 262.62 866.391 263.122 865.717 263.122C864.87 263.122 864.269 262.352 863.805 261.653H863.796Z" fill="#F7A81A"/>
<path d="M876.614 211.065C874.811 205.979 873.546 200.704 872.827 195.367C872.535 193.155 875.767 192.376 877.533 193.155C879.318 193.943 879.609 195.662 879.955 197.4C880.884 202.119 879.618 207.295 876.614 211.074V211.065Z" fill="#DE212B"/>
<path d="M847.881 190.391C849.347 185.196 851.349 180.153 853.862 175.362C854.9 173.373 858.014 174.556 859.015 176.177C860.026 177.825 859.27 179.401 858.551 181.022C856.584 185.42 852.542 188.966 847.89 190.391H847.881Z" fill="#DE212B"/>
<path d="M832.294 183.808C834.944 179.088 838.085 174.645 841.653 170.561C843.137 168.868 845.878 170.722 846.47 172.532C847.07 174.368 845.96 175.729 844.876 177.135C841.927 180.96 837.165 183.494 832.294 183.808Z" fill="#DE212B"/>
<path d="M865.343 222.474C864.596 217.137 864.405 211.728 864.769 206.346C864.924 204.116 868.256 203.982 869.822 205.084C871.388 206.185 871.36 207.94 871.351 209.713C871.324 214.513 869.048 219.349 865.343 222.474Z" fill="#DE212B"/>
<path d="M851.733 237.161C851.797 231.77 852.425 226.397 853.608 221.131C854.1 218.955 857.414 219.304 858.798 220.621C860.209 221.955 859.89 223.674 859.608 225.421C858.852 230.167 855.866 234.609 851.733 237.161Z" fill="#DE212B"/>
<path d="M847.799 216C847.863 210.609 848.491 205.236 849.675 199.97C850.166 197.794 853.48 198.143 854.864 199.459C856.275 200.794 855.957 202.513 855.674 204.259C854.919 209.006 851.933 213.447 847.799 216Z" fill="#DE212B"/>
<path d="M833.316 204.297C834.845 199.121 836.912 194.105 839.488 189.349C840.553 187.379 843.649 188.588 844.632 190.227C845.615 191.866 844.851 193.451 844.104 195.063C842.083 199.434 838.004 202.936 833.325 204.297H833.316Z" fill="#DE212B"/>
<path d="M867.245 190.486C867.336 190.298 867.664 190.37 867.746 190.567C867.828 190.764 867.746 190.988 867.655 191.176C866.189 194.525 864.131 197.632 861.619 200.319C861.136 196.316 861.145 192.25 861.664 188.256C861.864 186.725 862.165 185.131 863.121 183.904C863.439 183.501 863.849 183.134 864.35 183.036C864.923 182.919 865.506 183.161 866.043 183.394C866.781 183.716 867.509 184.03 868.246 184.352C868.765 184.576 869.348 184.862 869.503 185.4C869.63 185.812 869.466 186.242 869.311 186.644C868.565 188.534 867.809 190.424 867.063 192.313" fill="#DE212B"/>
<path d="M872.981 234.142C873.072 233.954 873.399 234.026 873.481 234.223C873.563 234.42 873.481 234.644 873.39 234.832C871.925 238.181 869.867 241.289 867.354 243.975C866.872 239.972 866.881 235.907 867.4 231.913C867.6 230.381 867.901 228.787 868.857 227.56C869.175 227.157 869.585 226.79 870.086 226.692C870.659 226.575 871.242 226.817 871.779 227.05C872.516 227.372 873.245 227.686 873.982 228.008C874.501 228.232 875.084 228.519 875.239 229.056C875.366 229.468 875.202 229.898 875.047 230.301C874.301 232.19 873.545 234.08 872.799 235.969" fill="#DE212B"/>
<path d="M779.592 99.4312C768.631 100.604 757.952 104.339 748.702 110.24C748.948 112.9 749.695 115.506 750.905 117.888C751.206 118.488 751.579 119.106 752.189 119.383C752.845 119.688 753.618 119.535 754.319 119.374C760.492 117.977 766.674 116.571 772.846 115.174C767.074 118.524 761.311 121.873 755.539 125.222C756.987 128.509 758.735 131.679 760.756 134.661C766.2 131.392 772.673 129.807 779.046 130.183C774.867 132.18 770.807 134.419 766.91 136.908C765.745 137.652 764.471 138.637 764.489 139.998C764.489 140.661 764.826 141.27 765.153 141.852C766.273 143.795 767.511 145.667 768.877 147.458C774.248 145.273 779.966 143.902 785.765 143.41C780.976 144.735 776.579 147.422 773.265 151.075C775.241 152.956 777.207 154.837 779.183 156.708C779.665 157.165 780.175 157.64 780.812 157.837C781.969 158.177 783.161 157.523 784.245 156.986C787.24 155.499 790.663 154.837 794.004 155.096C790.162 156.52 786.502 158.392 783.107 160.649C785.355 162.95 787.613 165.26 789.862 167.562C793.831 166.505 798.055 166.389 802.07 167.231C798.82 167.911 795.725 169.263 793.03 171.162C794.796 173.481 796.553 175.801 798.319 178.129C805.412 176.75 812.649 176.087 819.878 176.141C813.806 170.32 807.469 164.06 805.448 155.965" fill="#EA5B86"/>
<path d="M771.28 103.542C778.072 116.966 785.264 130.201 792.83 143.213C796.681 149.84 800.632 156.404 804.674 162.914C807.478 167.428 810.1 174.816 815.954 176.025C818.849 176.625 821.844 176.105 824.749 175.577C833.343 174.037 841.118 173.204 848.856 168.753C851.551 167.204 854.218 165.359 855.702 162.664C857.742 158.965 857.114 154.255 855.011 150.592C852.543 146.294 847.8 144.18 845.761 139.819C843.621 135.243 844.432 130.085 842.538 125.473C840.544 120.61 835.664 117.601 831.049 114.986C822.118 109.936 812.968 105.109 803.135 102.082C793.303 99.0553 782.688 97.8821 772.664 100.228C772.009 100.381 771.28 100.596 770.943 101.178C770.516 101.894 770.898 102.799 771.271 103.542H771.28Z" fill="#F7A81A"/>
<path d="M822.189 118.049C825.757 122.142 829.745 125.867 834.088 129.154C835.881 130.516 838.194 128.151 838.403 126.262C838.612 124.345 837.247 123.234 835.89 122.07C832.212 118.908 827.023 117.386 822.189 118.04V118.049Z" fill="#DE212B"/>
<path d="M825.932 152.876C831.231 154.238 836.675 155.062 842.147 155.339C844.414 155.456 844.942 152.213 844.013 150.548C843.075 148.855 841.309 148.711 839.525 148.514C834.672 147.977 829.528 149.634 825.932 152.876Z" fill="#DE212B"/>
<path d="M823.884 169.435C829.355 169.551 834.845 169.112 840.235 168.127C842.465 167.715 842.219 164.446 840.927 163.04C839.616 161.607 837.859 161.867 836.074 162.082C831.231 162.664 826.606 165.449 823.884 169.435Z" fill="#DE212B"/>
<path d="M806.503 121.9C810.818 125.223 815.479 128.098 820.386 130.489C822.426 131.475 824.21 128.716 824.037 126.826C823.855 124.91 822.298 124.086 820.732 123.199C816.499 120.816 811.1 120.315 806.494 121.9H806.503Z" fill="#DE212B"/>
<path d="M786.748 126.109C791.519 128.76 796.562 130.928 801.779 132.567C803.937 133.247 805.293 130.247 804.838 128.411C804.374 126.539 802.698 125.948 801.023 125.312C796.471 123.574 791.063 123.87 786.748 126.109Z" fill="#DE212B"/>
<path d="M803.38 140.079C808.151 142.73 813.195 144.897 818.411 146.536C820.569 147.217 821.925 144.216 821.47 142.38C821.006 140.508 819.331 139.917 817.656 139.281C813.104 137.544 807.696 137.839 803.38 140.079Z" fill="#DE212B"/>
<path d="M806.386 158.276C811.702 159.575 817.156 160.336 822.627 160.542C824.894 160.631 825.386 157.38 824.439 155.732C823.492 154.084 821.708 153.923 819.923 153.753C815.062 153.278 809.936 154.989 806.386 158.285V158.276Z" fill="#DE212B"/>
<path d="M835.572 136.362C835.79 136.38 835.881 136.058 835.754 135.897C835.626 135.735 835.39 135.691 835.171 135.664C831.484 135.225 827.724 135.413 824.101 136.201C827.378 138.628 830.956 140.652 834.725 142.229C836.173 142.829 837.72 143.375 839.277 143.169C839.787 143.098 840.315 142.936 840.661 142.56C841.052 142.13 841.134 141.512 841.198 140.939C841.289 140.151 841.371 139.372 841.462 138.583C841.526 138.028 841.562 137.392 841.171 136.98C840.87 136.667 840.406 136.586 839.978 136.524C837.939 136.21 835.9 135.897 833.86 135.583" fill="#DE212B"/>
<path d="M800.076 109.551C800.295 109.569 800.386 109.246 800.258 109.085C800.131 108.924 799.894 108.879 799.676 108.852C795.988 108.413 792.228 108.601 788.605 109.39C791.883 111.817 795.46 113.841 799.23 115.417C800.677 116.017 802.225 116.564 803.782 116.358C804.291 116.286 804.819 116.125 805.165 115.749C805.557 115.319 805.639 114.701 805.703 114.127C805.794 113.339 805.876 112.56 805.967 111.772C806.03 111.217 806.067 110.581 805.675 110.169C805.375 109.855 804.91 109.775 804.483 109.712C802.443 109.399 800.404 109.085 798.365 108.772" fill="#DE212B"/>
<path d="M686.439 163.029C685.893 161.783 690.782 160.116 690.947 153.307C691.122 146.501 684.953 145.314 684.409 143.889C683.865 142.464 687.31 142.068 686.935 138.663C686.57 135.261 683.58 134.584 683.58 134.584C683.58 134.584 685.303 133.13 685.291 130.802C685.288 128.477 684.016 128.667 684.016 128.667C684.016 128.667 682.925 127.601 682.56 125.276C682.47 124.712 682.383 124.264 682.298 123.913C682.286 123.739 682.266 123.562 682.258 123.379C682.243 123.141 682.225 122.88 682.085 122.685C681.672 122.127 681.443 122.393 681.313 122.9C681.171 123.233 680.965 123.92 680.751 125.302C680.388 127.636 679.302 128.716 679.302 128.716C679.302 128.716 678.032 128.548 678.032 130.882C678.035 133.207 679.762 134.628 679.762 134.628C679.762 134.628 676.773 135.377 676.414 138.781C676.056 142.184 679.504 142.508 678.958 143.944C678.422 145.385 672.251 146.711 672.452 153.51C672.639 160.315 677.534 161.871 676.999 163.132C676.463 164.393 671.2 165.887 671.2 165.887L671.208 169.831C671.208 169.831 672.294 171.434 673.567 171.771C674.835 172.118 674.491 183.586 674.491 183.586L680.832 183.512L682.641 183.487L688.983 183.414C688.983 183.414 688.599 171.956 689.877 171.578C691.142 171.204 692.227 169.575 692.227 169.575L692.219 165.632C692.219 165.632 686.961 164.256 686.415 163.009L686.439 163.029Z" fill="black"/>
<path d="M539.524 167.337C539.229 168.509 535.391 353.549 535.391 353.549L661.18 356.231L692.551 355.882L692.293 203.035L693.432 174.816L642.494 156.063" fill="#FFEEC1"/>
<path d="M612.723 23.7461C612.693 23.565 612.654 23.3802 612.607 23.1917C612.579 23.1065 612.555 23.0122 612.527 22.927C612.506 22.8762 612.494 22.829 612.473 22.7782C612.442 22.702 612.446 22.693 612.389 22.575C612.352 22.4861 612.308 22.4152 612.258 22.3316C612.276 22.339 612.278 22.3607 612.292 22.3771C612.221 22.2427 612.147 22.1173 612.063 21.9882C612.079 21.8997 612.092 21.8202 612.099 21.728C612.152 21.2528 612.099 20.7242 611.924 20.2833C611.802 19.9694 611.676 19.6646 611.472 19.3916C611.302 19.1642 611.116 18.9511 610.922 18.756C610.992 18.7421 611.056 18.7154 611.115 18.6761C611.246 18.6446 611.352 18.5713 611.443 18.4817C611.558 18.4121 611.649 18.3224 611.717 18.2126C611.853 18.0672 611.935 17.8997 611.988 17.6993C612.124 17.3532 612.17 16.9701 612.198 16.6014C612.227 16.2327 612.176 15.8525 612.107 15.4866C612.039 15.1207 611.888 14.774 611.733 14.4363C611.578 14.0987 611.356 13.8184 611.116 13.5306C611.034 13.4233 610.935 13.3302 610.823 13.2425C610.67 13.1273 610.511 12.9994 610.354 12.8933C610.22 12.8072 610.097 12.7465 609.913 12.7034C609.867 12.6849 609.805 12.6808 609.756 12.6714C609.61 12.4116 609.385 12.2144 609.101 12.1307C609.101 12.1307 609.101 12.1307 609.092 12.127C609.037 12.0307 608.962 11.9578 608.879 11.9028C608.803 11.8299 608.707 11.7803 608.599 11.7577C608.528 11.7499 608.448 11.7384 608.377 11.7305C608.261 11.726 608.153 11.7559 608.059 11.8021C607.985 11.825 607.93 11.8553 607.876 11.9073C607.787 11.9663 607.712 12.0417 607.661 12.1371C607.634 12.2002 607.604 12.2723 607.577 12.3354C607.538 12.4779 607.538 12.6262 607.583 12.7713C607.603 12.8745 607.614 12.9741 607.638 13.0684C607.628 13.1171 607.627 13.1695 607.626 13.222C607.638 13.3957 607.679 13.5498 607.755 13.6969C607.791 13.9124 607.831 14.1189 607.868 14.3344C607.866 14.3127 607.856 14.2873 607.858 14.2566C607.872 14.3254 607.885 14.3943 607.907 14.4668C607.925 14.5266 607.942 14.5864 607.959 14.6463C607.993 14.7659 608.023 14.8729 608.057 14.9925L608.09 15.0904C608.09 15.0904 608.009 15.1314 607.979 15.151C607.733 15.3046 607.484 15.4888 607.295 15.708C607.099 15.9451 606.958 16.1519 606.87 16.4334C606.844 16.4965 606.835 16.5669 606.826 16.6374C606.537 16.9425 606.356 17.3444 606.394 17.7823C606.422 18.1425 606.475 18.4178 606.616 18.7391C606.819 19.2128 607.088 19.6075 607.44 19.9829C607.812 20.3874 608.267 20.7203 608.642 21.1158C608.676 21.1613 608.706 21.2158 608.736 21.2703C608.738 21.292 608.752 21.3084 608.753 21.3301C608.758 21.3952 608.757 21.4477 608.752 21.5091C608.741 21.5362 608.725 21.5722 608.723 21.603C608.685 21.6931 608.632 21.7668 608.576 21.8495C608.538 21.8872 608.501 21.9249 608.464 21.9626C608.434 21.9822 608.404 22.0019 608.375 22.0215C608.362 22.0269 608.34 22.0285 608.327 22.0338C608.231 21.9842 608.148 21.9293 608.055 21.8706C607.897 21.7427 607.751 21.6095 607.596 21.4726C607.263 21.1787 606.872 20.9459 606.498 20.6987C605.874 20.2867 605.234 19.9632 604.523 19.706C604.274 19.6154 604.022 19.5554 603.759 19.5226C603.327 19.463 602.885 19.3997 602.44 19.4196C601.735 19.4501 601 19.5743 600.338 19.8547C599.925 20.025 599.512 20.1953 599.14 20.4454C598.784 20.6813 598.426 20.9479 598.118 21.2456C597.515 21.814 597.092 22.5087 596.784 23.2604C596.544 23.575 596.363 23.9768 596.381 24.3857C596.385 24.525 596.412 24.6627 596.443 24.7914C596.436 24.8835 596.428 24.9757 596.434 25.0626C596.472 25.7755 596.64 26.3086 596.943 26.9495C597.149 27.3924 597.484 27.7822 597.787 28.1482C598.003 28.4158 598.241 28.6601 598.47 28.9224C599.033 29.5528 599.609 30.1778 600.172 30.8081C600.319 30.9631 600.454 31.1233 600.601 31.2782C600.84 31.5442 601.096 31.7434 601.396 31.9394C601.47 31.9906 601.539 32.0292 601.621 32.0624C601.835 32.16 602.076 32.2687 602.31 32.3212C602.547 32.3647 602.824 32.414 603.075 32.3997C603.119 32.3965 603.154 32.3895 603.198 32.3863C603.378 32.3642 603.561 32.3332 603.741 32.3111C603.857 32.2632 603.986 32.21 604.106 32.1531C604.326 32.0626 604.549 31.9632 604.763 31.86C604.741 32.4639 604.715 33.0768 604.684 33.677C604.62 35.2572 604.632 36.8362 604.625 38.4079C604.628 38.5255 604.619 38.6484 604.622 38.766C604.63 39.0228 604.691 39.2802 604.743 39.5338C604.783 39.7403 604.824 39.9468 604.864 40.1533C604.954 40.5917 605.044 41.0084 605.17 41.4399C605.261 41.7517 605.455 42.021 605.715 42.2112C605.975 42.4014 606.299 42.5433 606.638 42.5225C606.911 42.5066 607.163 42.44 607.401 42.3044C607.747 42.1174 607.975 41.7557 608.093 41.4021C608.219 41.0306 608.322 40.6607 608.421 40.278C608.553 39.7401 608.726 39.208 608.756 38.6602C608.798 37.8847 608.821 37.1017 608.854 36.3225C608.885 35.5215 608.925 34.7243 608.925 33.9212C608.927 33.1399 608.938 32.3623 608.935 31.59C608.932 31.2717 608.941 30.948 608.938 30.6297C609.119 30.5552 609.303 30.4717 609.488 30.3882C609.676 30.2956 609.863 30.1814 610.041 30.0635C610.425 29.7863 610.83 29.4857 611.146 29.1175C611.449 28.7546 611.75 28.37 611.979 27.9559C612.379 27.2411 612.671 26.4513 612.79 25.6438C612.843 25.2952 612.885 24.9953 612.867 24.6606C612.851 24.3476 612.803 24.0325 612.752 23.7264L612.723 23.7461Z" fill="black"/>
<path d="M656.97 346.45L693.336 346.034L693.355 356.141L648.378 356.209" fill="#F2911D"/>
<mask id="mask0_245_2113" style="mask-type:luminance" maskUnits="userSpaceOnUse" x="560" y="38" width="95" height="114">
<path d="M654.482 121.323C653.146 110.603 634.427 104.901 634.427 104.901L634.422 95.9387C634.422 95.9387 636.509 94.1621 638.494 88.4402C640.479 82.7182 638.933 80.1127 634.407 75.5679C630.142 71.2876 623.166 69.9487 622.374 69.8071C622.666 69.8201 623.64 69.411 622.293 63.0035C621.201 57.8 617.17 57.2542 614.861 57.3963C616.485 56.7857 618.64 54.7507 618.073 48.1626C617.18 37.8774 606.394 38.8852 606.394 38.8852C606.394 38.8852 597.526 38.1116 596.65 48.4199C596.085 55.014 598.245 57.0014 599.876 57.5783C597.566 57.4978 593.536 58.1268 592.449 63.3666C591.118 69.8085 592.085 70.1904 592.38 70.1727C591.589 70.3279 584.618 71.8366 580.36 76.2129C575.846 80.8661 574.293 83.5157 576.296 89.1839C578.298 94.8522 580.384 96.5874 580.384 96.5874L580.389 105.55C580.389 105.55 561.683 111.702 560.363 122.454C559.043 133.206 565.249 134.222 565.249 134.222L565.268 151.527L607.792 148.682L607.82 149.719L649.654 145.917L649.639 133.216C649.639 133.216 655.849 132.044 654.509 121.334L654.482 121.323Z" fill="white"/>
</mask>
<g mask="url(#mask0_245_2113)">
<path d="M654.48 121.322C653.144 110.603 634.426 104.901 634.426 104.901L634.421 95.9387C634.421 95.9387 636.509 94.1619 638.494 88.4398C640.479 82.7178 638.933 80.1122 634.407 75.5676C630.142 71.2874 623.167 69.9488 622.374 69.8072C622.667 69.8202 623.64 69.411 622.293 63.0036C621.202 57.8001 617.172 57.2544 614.863 57.3966C616.486 56.7859 618.641 54.7507 618.074 48.1626C617.183 37.8773 606.396 38.8856 606.396 38.8856C606.396 38.8856 597.529 38.1123 596.652 48.4208C596.087 55.015 598.247 57.0024 599.877 57.5792C597.567 57.4988 593.538 58.128 592.45 63.3679C591.118 69.8099 592.086 70.1918 592.381 70.1741C591.59 70.3293 584.619 71.8383 580.361 76.2149C575.846 80.8683 574.294 83.518 576.296 89.1862C578.298 94.8545 580.384 96.5896 580.384 96.5896L580.389 105.552C580.389 105.552 561.682 111.705 560.362 122.457C559.041 133.21 565.248 134.226 565.248 134.226L565.264 151.233L608.091 149.705L607.79 148.683L649.642 145.913L649.628 133.212C649.628 133.212 655.838 132.04 654.498 121.329L654.48 121.322Z" fill="#6D170D"/>
<path d="M565.623 111.783C579.997 108.479 594.986 108.139 609.645 108.048C624.423 107.952 639.2 108.919 653.525 112.535C656.475 113.276 657.724 108.749 654.787 108.003C640.073 104.293 624.834 103.254 609.647 103.355C594.558 103.452 579.161 103.871 564.37 107.272C561.393 107.957 562.662 112.454 565.627 111.774L565.623 111.783Z" fill="#F2911D"/>
<path d="M569.834 99.6816C594.559 95.3826 619.86 94.9448 644.627 98.4075C647.608 98.8204 648.887 94.2973 645.888 93.877C620.22 90.2931 594.204 90.7276 568.578 95.1821C565.586 95.7011 566.855 100.195 569.834 99.6816Z" fill="#F2911D"/>
<path d="M571.488 78.023C597.814 71.7975 625.028 71.7208 651.316 77.3757C654.277 78.0142 655.547 73.4867 652.577 72.8444C625.437 67.0032 597.393 67.0939 570.231 73.5227C567.269 74.2241 568.525 78.7243 571.488 78.023Z" fill="#F2911D"/>
<path d="M579.75 62.765C598.656 59.0168 618.094 59.006 636.929 62.7082C639.903 63.2885 641.16 58.7666 638.189 58.1772C618.495 54.3068 598.273 54.3501 578.494 58.265C575.502 58.8587 576.771 63.3533 579.75 62.765Z" fill="#F2911D"/>
<path d="M553.313 138.453C571.734 133.31 590.834 132.467 609.815 132.257C619.27 132.149 628.709 132.076 638.077 133.433C647.193 134.752 656.105 137.105 664.697 140.34C667.53 141.406 668.76 136.87 665.958 135.806C657.007 132.436 647.713 130.023 638.208 128.738C628.783 127.464 619.34 127.471 609.823 127.576C590.433 127.79 570.884 128.707 552.066 133.954C549.128 134.773 550.384 139.276 553.322 138.457L553.313 138.453Z" fill="#F2911D"/>
<path d="M605.931 37.9844C608.912 43.1779 608.196 47.7678 606.364 53.2047C605.577 55.5581 605.441 57.6793 606.233 60.0188C606.546 60.9593 607.074 61.8181 607.339 62.7709C607.779 64.3866 607.174 65.4614 606.716 66.9657C606.127 68.9028 605.953 70.6388 606.726 72.5479C607.504 74.4697 609.173 75.8448 610.036 77.7166C612.385 82.8224 608.563 87.0391 607.879 91.9276C607.549 94.2553 607.83 96.6724 607.933 99.0069C608.035 101.32 607.938 103.826 608.83 106.006C609.683 108.074 611.454 109.438 612.709 111.236C613.965 113.035 614.766 115.103 615.139 117.252C615.531 119.482 615.41 121.82 614.815 124.019C614.191 126.365 612.664 128.058 611.75 130.234C610.973 132.063 611.123 134.089 611.138 136.028C611.147 139.085 611.266 142.134 611.438 145.183C611.609 148.158 616.315 148.114 616.139 145.127C615.967 142.078 615.848 139.029 615.839 135.972C615.838 134.999 615.681 133.869 615.86 132.896C616.133 131.453 617.162 130.381 617.821 129.106C619.768 125.323 620.428 121.016 619.809 116.845C619.186 112.704 617.311 109.312 614.614 106.178C612.261 103.458 612.682 100.016 612.535 96.6071C612.42 93.8243 612.592 91.6436 613.701 89.0088C615.432 84.8836 616.263 80.4246 614.479 76.1925C613.654 74.2306 611.359 72.4749 610.935 70.4219C610.503 68.3345 612.263 66.1437 612.282 63.9963C612.312 61.124 610.052 58.8119 610.434 55.935C610.755 53.5294 612.159 51.2999 612.553 48.8714C613.305 44.2221 612.314 39.6251 609.994 35.5771C608.51 32.9886 604.442 35.3831 605.935 37.9754L605.931 37.9844Z" fill="#F2911D"/>
<path d="M576.475 149.049C576.125 144.014 576.13 138.996 576.486 133.952C576.694 130.96 571.994 131.029 571.782 134.008C571.426 139.052 571.421 144.07 571.77 149.105C571.977 152.074 576.683 152.04 576.475 149.049Z" fill="#F2911D"/>
<path d="M575.435 131.244C572.997 127.065 572.205 122.183 573.953 117.54C575.701 112.898 579.534 110.391 583.686 108.257C586.385 106.872 584.009 102.898 581.314 104.273C576.014 106.986 571.475 110.632 569.427 116.356C567.341 122.17 568.35 128.417 571.384 133.641C572.881 136.213 576.938 133.829 575.435 131.244Z" fill="#F2911D"/>
<path d="M584.689 108.048C587.278 104.504 586.933 99.9377 586.93 95.8168C586.934 92.8291 582.239 92.8765 582.23 95.8731C582.233 99.1698 582.701 102.92 580.626 105.753C578.848 108.19 582.918 110.466 584.689 108.048Z" fill="#F2911D"/>
<path d="M586.499 94.4421C580.837 88.4886 587.105 76.0454 594.049 73.5788C596.886 72.5676 595.663 68.1014 592.804 69.1142C582.437 72.7973 574.953 89.106 583.187 97.7726C585.247 99.9402 588.559 96.6097 586.499 94.4421Z" fill="#F2911D"/>
<path d="M593.642 74.1965C596.287 73.8885 598.66 72.8992 599.021 69.9735C599.444 66.5768 597.289 63.1039 600.958 60.7619C603.505 59.1362 601.145 55.147 598.585 56.778C596.503 58.1071 594.894 59.9978 594.265 62.4031C593.93 63.6923 593.931 64.9911 594.077 66.2964C594.194 67.3468 595.039 69.3797 593.644 69.5413C590.675 69.8868 590.645 74.531 593.645 74.1875L593.642 74.1965Z" fill="#F2911D"/>
<path d="M601.622 56.6047C601.001 53.1219 600.318 49.3823 601.325 45.8857C602.277 42.5676 604.915 40.0507 607.305 37.6656C609.443 35.5262 606.13 32.2898 603.982 34.4256C601 37.4042 597.996 40.585 596.797 44.7104C595.545 49.036 596.328 53.5873 597.087 57.8964C597.602 60.8294 602.124 59.5213 601.609 56.61L601.622 56.6047Z" fill="#F2911D"/>
</g>
<path d="M563.055 149.647L537.249 160.063L536.147 169.978L652.824 161.773L693.329 180.292L696.659 173.653L655.322 143.975L563.055 149.647Z" fill="#6D170D"/>
<path d="M541.821 156.424C541.159 154.899 547.12 152.864 547.328 144.551C547.535 136.238 540.007 134.795 539.344 133.046C538.678 131.307 542.885 130.821 542.435 126.666C541.985 122.512 538.335 121.683 538.335 121.683C538.335 121.683 540.44 119.908 540.433 117.064C540.427 114.221 538.879 114.458 538.879 114.458C538.879 114.458 537.548 113.156 537.101 110.323C536.989 109.633 536.887 109.096 536.784 108.663C536.769 108.446 536.746 108.225 536.732 108.008C536.717 107.717 536.692 107.4 536.517 107.16C536.021 106.473 535.734 106.799 535.567 107.418C535.395 107.824 535.132 108.667 534.877 110.349C534.433 113.2 533.107 114.52 533.107 114.52C533.107 114.52 531.552 114.321 531.558 117.165C531.565 120.008 533.665 121.728 533.665 121.728C533.665 121.728 530.02 122.645 529.575 126.805C529.138 130.968 533.346 131.358 532.685 133.117C532.023 134.877 524.507 136.49 524.736 144.801C524.966 153.112 530.948 155.015 530.285 156.552C529.631 158.092 523.21 159.908 523.21 159.908L523.222 164.719C523.222 164.719 524.552 166.675 526.099 167.092C527.646 167.51 527.226 181.514 527.226 181.514L534.967 181.428L537.182 181.399L544.922 181.313C544.922 181.313 544.455 167.318 546.011 166.862C547.557 166.403 548.885 164.429 548.885 164.429L548.872 159.618C548.872 159.618 542.455 157.939 541.79 156.422L541.821 156.424Z" fill="black"/>
<path d="M655.704 154.664C655.043 153.138 661.003 151.103 661.211 142.791C661.418 134.478 653.89 133.034 653.228 131.286C652.561 129.547 656.769 129.06 656.318 124.906C655.868 120.751 652.218 119.922 652.218 119.922C652.218 119.922 654.323 118.148 654.317 115.304C654.31 112.46 652.762 112.697 652.762 112.697C652.762 112.697 651.431 111.396 650.984 108.563C650.872 107.873 650.771 107.335 650.667 106.902C650.653 106.685 650.629 106.464 650.615 106.247C650.6 105.956 650.575 105.64 650.4 105.4C649.905 104.712 649.617 105.039 649.45 105.658C649.278 106.063 649.016 106.907 648.76 108.588C648.316 111.439 646.99 112.759 646.99 112.759C646.99 112.759 645.435 112.56 645.442 115.404C645.448 118.248 647.549 119.968 647.549 119.968C647.549 119.968 643.904 120.884 643.458 125.044C643.021 129.208 647.229 129.598 646.568 131.357C645.907 133.116 638.39 134.73 638.62 143.04C638.849 151.351 644.831 153.255 644.168 154.791C643.514 156.332 637.093 158.147 637.093 158.147L637.105 162.958C637.105 162.958 638.436 164.914 639.982 165.332C641.529 165.749 641.109 179.753 641.109 179.753L648.85 179.668L651.065 179.638L658.806 179.553C658.806 179.553 658.339 165.558 659.894 165.102C661.44 164.643 662.768 162.668 662.768 162.668L662.756 157.857C662.756 157.857 656.338 156.179 655.673 154.662L655.704 154.664Z" fill="black"/>
<path d="M508.486 181.305L526.315 196.526L662.16 189.891L691.579 206.516L704.037 197.995L665.699 175.082L508.486 181.305Z" fill="#F2911D"/>
<path d="M642.689 187.63L642.92 346.426L659.289 346.235L659.063 187.452" fill="#F2911D"/>
<path d="M526.35 192.112L526.589 345.248L515.929 349.319L529.278 357.506L659.468 356.036L659.45 345.943L539.92 345.1L542.344 191.933" fill="#F2911D"/>
<path d="M578.001 349.047L577.943 316.145L613.973 315.742L614.027 351.268" fill="#F2911D"/>
<path d="M585.01 346.755L584.973 323.519L606.999 323.278L606.616 345.39" fill="black"/>
<path d="M595.155 207.459L595.156 207.406C595.046 207.414 594.945 207.426 594.844 207.438C594.742 207.428 594.639 207.418 594.524 207.414L594.523 207.466C571.508 209.826 574.543 231.736 574.543 231.736L574.615 276.419L594.632 276.194L595.265 276.187L615.282 275.962L615.21 231.279C615.21 231.279 618.173 209.309 595.152 207.468L595.155 207.459Z" fill="#F2911D"/>
<path d="M595.392 214.911L595.393 214.859C595.327 214.864 595.257 214.877 595.178 214.888C595.107 214.88 595.035 214.872 594.964 214.864L594.963 214.917C579.581 216.904 581.615 235.809 581.615 235.809L581.672 274.358L595.048 274.209L595.467 274.2L608.843 274.051L608.786 235.502C608.786 235.502 610.757 216.554 595.37 214.913L595.392 214.911Z" fill="black"/>
<path d="M569.405 272.051C569.405 272.051 569.596 280.624 581.749 282.695C593.901 284.766 609.574 282.927 613.524 280.126C617.477 277.315 621.923 271.454 621.923 271.454L569.414 272.054L569.405 272.051Z" fill="#F2911D"/>
<path d="M670.595 274.124C670.595 274.124 670.362 212.274 674.488 212.831C680.03 213.584 678.911 213.214 679.806 217.147C680.691 221.077 679.888 275.514 679.888 275.514L670.595 274.124Z" fill="#F2911D"/>
<path d="M673.445 277.634C673.445 277.634 673.261 223.222 676.208 223.723C680.155 224.398 679.357 224.073 679.999 227.524C680.637 230.983 680.07 278.869 680.07 278.869L673.449 277.625L673.445 277.634Z" fill="black"/>
<path d="M668.642 278.868C666.884 277.059 666.456 275.144 671.083 274.528C672.311 274.358 683.729 276.471 683.878 277.179C684.374 279.59 682.572 282.096 680.217 282.955C677.866 283.805 675.201 283.253 673.031 282.064C671.773 281.372 669.876 280.144 668.642 278.868Z" fill="#F2911D"/>
<path d="M398.351 54.5112C402.182 45.176 408.029 36.6661 415.364 29.7336C412.773 35.785 409.825 41.6719 406.539 47.3633C411.835 41.2633 418.572 36.4156 426.036 33.3105C422.116 38.4825 417.861 43.4195 413.317 48.0566C422.143 42.2202 434.125 41.519 443.567 46.2834C439.049 47.3252 434.53 48.367 430.011 49.4088C438.186 52.2112 446.377 55.0225 454.553 57.8249C448.055 56.6272 441.57 55.4263 435.073 54.2286C443.334 57.9314 450.513 64.0043 455.56 71.5328C449.725 69.3125 444.372 65.832 439.953 61.4248C447.848 68.0341 454.573 76.0492 459.686 84.9902C453.745 82.0832 448.358 78.0396 443.897 73.1365C449.923 79.0765 454.522 86.4389 457.213 94.4427C452.998 90.553 449.408 85.9887 446.61 80.9785C451.312 88.1441 454.264 96.4421 455.157 104.967C452.077 99.0045 448.985 93.0456 445.902 87.0714C450.969 97.7801 453.146 109.835 452.107 121.634C449.451 112.451 446.78 103.258 444.125 94.0749C446.636 101.75 447.885 109.854 447.786 117.929C439.974 98.7237 430.423 77.6832 411.319 69.6174C415.539 75.4689 419.739 81.3391 423.926 87.2126C419.065 81.6886 413.565 76.7391 407.562 72.4834C410.858 75.371 413.706 78.7687 415.972 82.5175C410.794 80.277 406.057 77.0086 402.147 72.9462C398.138 75.8927 395.373 80.4695 394.639 85.399C405.734 84.9747 416.945 87.8479 426.47 93.5523C422.71 93.4937 418.958 93.4198 415.198 93.3612C423.581 95.8737 431.159 101.008 436.609 107.856C431.751 105.4 426.905 102.941 422.047 100.485C430.098 106.896 437.327 114.321 443.51 122.546C438.816 118.954 434.133 115.359 429.439 111.767C436.458 117.726 442.13 125.257 445.924 133.641C442.298 130.01 438.676 126.39 435.038 122.762C440.876 129.168 445.052 137.086 447.028 145.528C443.37 142.114 440.349 138.021 438.156 133.525C441.376 142.193 443.802 151.152 445.381 160.247C442.917 154.835 440.461 149.408 437.997 143.996C441.634 152.474 443.102 161.885 442.197 171.073C439.556 165.682 437.707 159.898 436.693 153.98C438.608 161.659 438.732 169.791 437.086 177.526C433.807 167.86 432.473 157.542 433.176 147.355C433.993 154.625 433.697 162.012 432.331 169.192C430.349 158.787 428.367 148.383 426.398 137.976C427.187 143.395 426.379 149.02 424.115 154.009C421.979 143.516 420.669 132.853 420.206 122.146C420.838 128.192 420.521 134.336 419.256 140.292C416.408 129.665 414.741 118.735 414.279 107.741C413.921 113.636 413.563 119.531 413.202 125.414C411.523 117.256 409.832 109.102 408.153 100.944C407.675 107.066 407.199 113.201 406.72 119.324C404.227 110.942 401.731 102.548 399.226 94.1691C400.034 99.3225 400.84 104.464 401.649 109.617C398.048 103.652 395.388 97.1218 393.781 90.3489C394.499 95.1626 395.229 99.973 395.943 104.775C392.246 100.486 389.014 95.8002 386.328 90.8246C387.648 96.14 388.981 101.452 390.301 106.768C386.764 103.177 383.614 99.1844 380.946 94.9062C384.069 103.939 384.556 113.859 382.339 123.152C380.698 117.077 379.045 111.006 377.404 104.931C380.454 113.788 382.301 123.058 382.866 132.399C379.457 127.344 376.723 121.848 374.771 116.065C377.901 125.953 381.02 135.845 384.15 145.733C380.324 139.75 376.497 133.767 372.671 127.784C375.586 138.276 378.95 148.648 382.762 158.848C379.518 153.047 376.273 147.246 373.013 141.436C377.45 151.494 380.805 162.025 382.976 172.794C378.164 166.919 374.846 159.825 373.431 152.363C374.157 158.709 374.882 165.055 375.607 171.401C370.068 163.055 366.807 153.215 366.246 143.21C366.792 149.032 365.454 155.008 362.471 160.033C361.39 151 361.771 141.796 363.583 132.884C362.057 136.895 359.881 140.664 357.156 143.982C355.996 135.918 356.859 127.587 359.645 119.936C359.263 124.186 357.263 128.272 354.144 131.188C355.528 122.768 356.913 114.349 358.31 105.926C355.486 108.1 352.677 110.283 349.853 112.457C352.507 105.764 356.586 99.639 361.757 94.6257C359.343 96.7289 356.357 98.1531 353.208 98.724C359.28 92.0778 367.03 86.9846 375.542 84.0538C372.043 81.4286 369.065 78.0787 366.878 74.2829C365.199 77.5283 363.127 80.5671 360.726 83.3037C360.122 79.8377 359.534 76.3806 358.931 72.9146C358.507 77.254 357.027 81.4862 354.624 85.1338C353.306 81.235 352.667 77.1024 352.75 72.9973C352.127 79.6005 351.492 86.2071 350.869 92.8103C349.121 89.0528 347.823 85.0836 347.009 81.0241C348.018 87.9442 347.501 95.091 345.5 101.791L342.47 90.6789C342.71 98.4162 342.934 106.145 343.174 113.882C341.733 109.522 340.307 105.171 338.866 100.812C339.707 108.271 339.916 115.795 339.491 123.282C338.385 119.157 337.277 115.02 336.172 110.895C336.58 117.027 335.825 123.237 333.977 129.102C332.771 123.73 332.288 118.19 332.531 112.69C332.423 118.596 330.191 124.434 326.364 128.932C327.224 118.117 330.32 107.496 335.368 97.8999C332.652 102.854 328.714 107.133 324.005 110.229C325.727 103.604 328.668 97.3028 332.62 91.719C330.691 94.9534 327.5 97.4077 323.889 98.4404C327.046 90.9109 332.438 84.3432 339.204 79.7997C335.74 81.9631 331.772 83.3125 327.72 83.7218C332.357 77.0054 339.25 71.8686 347.029 69.3553C344.031 68.9884 341.021 68.6247 338.023 68.2577C341.855 66.7888 345.699 65.3166 349.532 63.8477C346.786 64.5184 343.679 63.1144 342.34 60.6388C350.642 59.2073 359.476 61.17 366.376 66.0046C364.745 63.9452 363.105 61.9011 361.474 59.8416C364.898 60.0034 368.181 61.9193 370.009 64.8102C369.806 59.8324 365.023 56.0042 360.103 55.1638C355.184 54.3234 350.19 55.7266 345.403 57.1263C346.76 53.9411 349.102 51.1811 352.008 49.3104C347.477 52.3449 342.639 54.9153 337.595 56.956C338.381 54.0668 339.645 51.3098 341.325 48.8442C337.292 54.9047 332.675 60.5759 327.561 65.7558C328.415 61.4183 330.16 57.2578 332.64 53.6029C329.048 58.4921 324.302 62.5203 318.886 65.2589C320.828 61.5917 323.423 58.2699 326.487 55.4856C322.575 58.9392 317.716 61.2815 312.576 62.1905C315.099 58.7451 318.3 55.7939 321.955 53.5663C317.312 56.2797 311.972 57.8014 306.597 57.9284C311.808 54.1787 317.602 51.248 323.72 49.2836C318.171 51.3816 312.019 51.9116 306.199 50.7665C314.589 46.8933 323.433 43.9904 332.487 42.1625C330.693 43.0853 328.168 41.8635 327.766 39.8778C332.696 38.1405 338.294 38.3571 343.067 40.4978C339.585 37.7901 336.118 35.0912 332.636 32.3835C338.882 32.7385 345.025 34.655 350.351 37.9349C347.578 36.2724 345.422 33.6125 344.356 30.5564C350.389 32.3987 355.974 35.726 360.463 40.1533C358.324 37.944 356.502 35.4155 355.07 32.6916C360.212 36.2549 364.875 40.5056 368.897 45.279C367.146 42.7707 366.066 39.8093 365.796 36.7611C370.509 40.4261 374.227 45.3721 376.444 50.9284C376.294 47.2628 376.147 43.6094 375.997 39.9438C379.888 49.5634 382.442 59.7235 383.553 70.0357C382.625 65.5515 382.914 60.8062 384.404 56.4672C387.243 62.0647 388.535 68.4408 388.068 74.7033C388.134 71.4088 388.158 68.0998 388.401 64.8359C388.783 66.5021 390.079 67.8451 390.702 69.1995C392.905 65.6315 392.524 60.3246 393.19 56.1152C394.438 48.2524 396.658 40.038 400.716 33.1515C401.219 39.5439 400.793 48.4349 398.311 54.4571L398.351 54.5112Z" fill="#B1CF6F"/>
<path d="M441.355 257.701C450.524 272.993 462.386 287.082 477.583 296.676C485.096 301.424 493.306 304.985 501.928 307.173C515.421 310.605 516.181 306.358 522.443 295.032C523.135 293.78 523.844 292.446 523.723 291.022C523.45 287.676 519.268 286.482 515.959 285.873C485.518 280.338 462.173 255.569 445.895 229.27C431.89 206.654 421.462 182.051 412.766 156.972C408.401 144.371 404.476 131.614 400.711 118.827C399.564 114.935 396.366 90.5276 392.704 89.2335C389.4 88.0643 386.155 92.7436 384.915 96.0274C383.688 99.3078 384.237 102.958 384.849 106.408C394.246 159.724 413.493 211.271 441.34 257.692L441.355 257.701Z" fill="#6D170D"/>
<path d="M398.55 106.248C393.216 107.677 387.734 104.512 386.305 99.1785C384.876 93.8452 388.041 88.3633 393.374 86.9342C398.708 85.5052 404.19 88.6702 405.619 94.0035C407.048 99.3368 403.883 104.819 398.55 106.248Z" fill="#F7A81A"/>
<path d="M382.315 102.237C377.685 103.478 372.926 100.731 371.686 96.1007C370.445 91.4709 373.193 86.7121 377.823 85.4716C382.452 84.231 387.211 86.9785 388.452 91.6083C389.692 96.2381 386.945 100.997 382.315 102.237Z" fill="#F7A81A"/>
<path d="M388.872 118.463C384.242 119.703 379.483 116.956 378.242 112.326C377.002 107.696 379.749 102.937 384.379 101.697C389.009 100.456 393.768 103.204 395.008 107.834C396.249 112.463 393.501 117.222 388.872 118.463Z" fill="#F7A81A"/>
<path d="M871.285 383.241C867.454 373.906 861.607 365.396 854.272 358.464C856.864 364.515 859.811 370.402 863.097 376.094C857.801 369.994 851.064 365.146 843.601 362.041C847.52 367.213 851.775 372.15 856.319 376.787C847.494 370.95 835.511 370.249 826.069 375.014C830.588 376.055 835.106 377.097 839.625 378.139C831.45 380.941 823.259 383.753 815.084 386.555C821.581 385.357 828.066 384.157 834.563 382.959C826.302 386.662 819.123 392.735 814.076 400.263C819.911 398.043 825.265 394.562 829.683 390.155C821.788 396.764 815.063 404.779 809.95 413.72C815.891 410.813 821.278 406.77 825.739 401.867C819.713 407.807 815.114 415.169 812.423 423.173C816.638 419.283 820.228 414.719 823.027 409.709C818.324 416.874 815.372 425.172 814.479 433.697C817.559 427.735 820.651 421.776 823.734 415.802C818.668 426.51 816.491 438.566 817.529 450.364C820.185 441.181 822.856 431.989 825.512 422.805C823 430.48 821.752 438.584 821.85 446.659C829.662 427.454 839.214 406.413 858.317 398.348C854.097 404.199 849.897 410.069 845.71 415.943C850.571 410.419 856.071 405.469 862.074 401.214C858.778 404.101 855.93 407.499 853.664 411.248C858.842 409.007 863.579 405.739 867.489 401.676C871.498 404.623 874.263 409.2 874.997 414.129C863.902 413.705 852.691 416.578 843.166 422.283C846.927 422.224 850.678 422.15 854.439 422.091C846.055 424.604 838.477 429.738 833.027 436.586C837.885 434.13 842.731 431.671 847.589 429.215C839.539 435.627 832.309 443.051 826.126 451.277C830.821 447.684 835.503 444.089 840.197 440.497C833.178 446.457 827.507 453.987 823.713 462.371C827.338 458.74 830.961 455.12 834.598 451.492C828.76 457.898 824.584 465.816 822.608 474.259C826.266 470.844 829.287 466.752 831.48 462.255C828.261 470.923 825.834 479.882 824.255 488.977C826.72 483.565 829.175 478.138 831.639 472.726C828.002 481.204 826.534 490.615 827.44 499.803C830.08 494.413 831.929 488.628 832.943 482.71C831.028 490.389 830.904 498.521 832.55 506.257C835.829 496.59 837.163 486.272 836.46 476.085C835.643 483.356 835.94 490.743 837.306 497.922C839.287 487.518 841.269 477.113 843.238 466.706C842.45 472.125 843.257 477.75 845.522 482.739C847.657 472.246 848.967 461.584 849.43 450.877C848.798 456.922 849.116 463.067 850.38 469.023C853.228 458.395 854.895 447.465 855.358 436.471C855.715 442.367 856.073 448.262 856.434 454.144C858.113 445.987 859.804 437.832 861.483 429.674C861.962 435.797 862.437 441.931 862.916 448.054C865.409 439.672 867.905 431.278 870.41 422.899C869.602 428.053 868.796 433.194 867.988 438.347C871.588 432.382 874.248 425.852 875.855 419.079C875.137 423.893 874.407 428.703 873.693 433.505C877.391 429.217 880.623 424.53 883.308 419.555C881.988 424.87 880.655 430.182 879.335 435.498C882.872 431.907 886.022 427.915 888.69 423.636C885.567 432.669 885.081 442.589 887.298 451.882C888.938 445.807 890.591 439.736 892.232 433.661C889.183 442.518 887.336 451.788 886.77 461.129C890.179 456.074 892.913 450.578 894.866 444.795C891.735 454.684 888.616 464.575 885.486 474.463C889.312 468.48 893.139 462.497 896.966 456.514C894.05 467.006 890.686 477.378 886.874 487.578C890.118 481.777 893.363 475.976 896.623 470.166C892.186 480.224 888.831 490.755 886.66 501.525C891.472 495.649 894.791 488.555 896.205 481.093C895.48 487.439 894.754 493.785 894.029 500.131C899.568 491.786 902.829 481.945 903.39 471.94C902.845 477.762 904.182 483.738 907.165 488.763C908.247 479.73 907.865 470.526 906.053 461.615C907.579 465.625 909.755 469.394 912.481 472.712C913.64 464.649 912.778 456.317 909.991 448.666C910.373 452.916 912.373 457.002 915.493 459.918C914.108 451.498 912.723 443.079 911.326 434.656C914.15 436.83 916.959 439.013 919.783 441.187C917.13 434.494 913.05 428.369 907.879 423.356C910.293 425.459 913.279 426.883 916.429 427.454C910.356 420.808 902.606 415.715 894.094 412.784C897.593 410.159 900.571 406.809 902.758 403.013C904.437 406.259 906.51 409.297 908.91 412.034C909.514 408.568 910.102 405.111 910.706 401.645C911.129 405.984 912.609 410.216 915.012 413.864C916.33 409.965 916.969 405.833 916.886 401.727C917.509 408.331 918.144 414.937 918.767 421.541C920.515 417.783 921.813 413.814 922.628 409.754C921.619 416.674 922.135 423.821 924.137 430.521L927.166 419.409C926.926 427.146 926.702 434.875 926.462 442.612C927.903 438.252 929.329 433.902 930.77 429.542C929.929 437.001 929.72 444.525 930.146 452.012C931.251 447.887 932.359 443.75 933.464 439.626C933.057 445.758 933.811 451.967 935.659 457.832C936.865 452.46 937.348 446.92 937.105 441.42C937.213 447.326 939.446 453.165 943.273 457.662C942.413 446.847 939.316 436.226 934.268 426.63C936.984 431.584 940.922 435.864 945.632 438.959C943.909 432.334 940.968 426.033 937.016 420.449C938.945 423.684 942.136 426.138 945.748 427.171C942.59 419.641 937.198 413.073 930.432 408.53C933.896 410.693 937.865 412.043 941.916 412.452C937.279 405.736 930.386 400.599 922.608 398.086C925.605 397.719 928.616 397.355 931.613 396.988C927.781 395.519 923.937 394.047 920.105 392.578C922.85 393.249 925.957 391.845 927.297 389.369C918.994 387.938 910.16 389.9 903.26 394.735C904.891 392.675 906.531 390.631 908.162 388.572C904.738 388.734 901.455 390.649 899.628 393.54C899.83 388.563 904.614 384.734 909.533 383.894C914.452 383.054 919.446 384.457 924.233 385.857C922.876 382.671 920.534 379.911 917.629 378.041C922.16 381.075 926.997 383.646 932.041 385.686C931.255 382.797 929.991 380.04 928.312 377.574C932.344 383.635 936.961 389.306 942.075 394.486C941.222 390.149 939.476 385.988 936.997 382.333C940.588 387.222 945.334 391.251 950.751 393.989C948.808 390.322 946.213 387 943.149 384.216C947.061 387.669 951.92 390.012 957.06 390.921C954.538 387.475 951.336 384.524 947.681 382.297C952.325 385.01 957.664 386.532 963.039 386.659C957.828 382.909 952.034 379.978 945.916 378.014C951.466 380.112 957.617 380.642 963.437 379.497C955.048 375.624 946.203 372.721 937.149 370.893C938.943 371.816 941.468 370.594 941.87 368.608C936.94 366.871 931.343 367.087 926.569 369.228C930.051 366.52 933.518 363.821 937 361.114C930.755 361.469 924.611 363.385 919.285 366.665C922.058 365.003 924.214 362.343 925.28 359.287C919.247 361.129 913.662 364.456 909.173 368.884C911.312 366.674 913.134 364.146 914.566 361.422C909.424 364.985 904.762 369.236 900.739 374.009C902.49 371.501 903.57 368.539 903.841 365.491C899.127 369.156 895.409 374.102 893.192 379.659C893.342 375.993 893.489 372.34 893.639 368.674C889.748 378.294 887.195 388.454 886.083 398.766C887.011 394.282 886.723 389.536 885.233 385.197C882.394 390.795 881.101 397.171 881.569 403.434C881.502 400.139 881.479 396.83 881.235 393.566C880.853 395.232 879.557 396.575 878.934 397.93C876.731 394.362 877.113 389.055 876.446 384.845C875.198 376.983 872.978 368.768 868.92 361.882C868.417 368.274 868.843 377.165 871.325 383.187L871.285 383.241Z" fill="#B1CF6F"/>
<path d="M828.281 586.431C819.113 601.723 807.25 615.812 792.054 625.406C784.54 630.154 776.331 633.715 767.709 635.903C754.216 639.335 753.455 635.088 747.193 623.762C746.501 622.51 745.793 621.176 745.914 619.752C746.187 616.406 750.368 615.212 753.678 614.603C784.118 609.068 807.463 584.299 823.742 558C837.747 535.384 848.175 510.781 856.871 485.702C861.236 473.101 865.161 460.344 868.925 447.557C870.072 443.665 873.271 419.258 876.933 417.963C880.237 416.794 883.482 421.474 884.722 424.757C885.949 428.038 885.4 431.688 884.788 435.138C875.391 488.454 856.144 540.001 828.297 586.422L828.281 586.431Z" fill="#6D170D"/>
<path d="M871.087 434.978C876.42 436.407 881.902 433.242 883.332 427.909C884.761 422.575 881.596 417.093 876.262 415.664C870.929 414.235 865.447 417.4 864.018 422.733C862.589 428.067 865.754 433.549 871.087 434.978Z" fill="#F7A81A"/>
<path d="M887.323 430.967C891.953 432.208 896.712 429.46 897.952 424.83C899.193 420.201 896.445 415.442 891.816 414.201C887.186 412.961 882.427 415.708 881.186 420.338C879.946 424.968 882.693 429.727 887.323 430.967Z" fill="#F7A81A"/>
<path d="M880.764 447.192C885.394 448.433 890.153 445.685 891.393 441.056C892.634 436.426 889.886 431.667 885.256 430.426C880.627 429.186 875.868 431.933 874.627 436.563C873.387 441.193 876.134 445.952 880.764 447.192Z" fill="#F7A81A"/>
<path d="M565.984 641.415L620.571 641.405L620.509 315.223L565.922 315.233L565.984 641.415Z" fill="#2C5729"/>
<path d="M572.52 344.092L620.518 344.083L620.516 334.509L572.518 334.518L572.52 344.092Z" fill="#FFEEC1"/>
<path d="M572.513 324.797L620.511 324.788L620.509 315.214L572.511 315.224L572.513 324.797Z" fill="#FFEEC1"/>
<path d="M572.756 372.918L619.788 372.909L619.786 364.907L572.754 364.916L572.756 372.918Z" fill="#FFEEC1"/>
<path d="M579.845 639.623L613.006 639.617L612.989 547.961L579.827 547.967L579.845 639.623Z" fill="black"/>
<path d="M585.206 453.577L607.353 453.573L607.338 377.647L585.192 377.651L585.206 453.577Z" fill="black"/>
<path d="M585.204 409.668L607.351 409.664L607.35 404.603L585.203 404.608L585.204 409.668Z" fill="#FFEEC1"/>
<path d="M581.893 457.511L610.687 457.506L610.686 453.584L581.893 453.59L581.893 457.511Z" fill="#FFEEC1"/>
<path d="M585.223 464.705L607.369 464.701L607.367 455.546L585.221 455.55L585.223 464.705Z" fill="#FFEEC1"/>
<path d="M589.707 489.949L602.885 489.946L602.88 464.268L589.702 464.27L589.707 489.949Z" fill="#FFEEC1"/>
<path d="M593.867 504.071L599.23 504.07L599.224 472.004L593.861 472.005L593.867 504.071Z" fill="#FFEEC1"/>
<path d="M579.822 541.621L612.984 541.614L612.981 528.869L579.82 528.875L579.822 541.621Z" fill="black"/>
<path d="M483.653 315.252L429.065 315.263L429.127 641.444L483.714 641.434L483.653 315.252Z" fill="#2C5729"/>
<path d="M477.053 334.547L429.055 334.556L429.057 344.13L477.055 344.121L477.053 334.547Z" fill="#FFEEC1"/>
<path d="M477.053 315.246L429.055 315.255L429.057 324.829L477.055 324.819L477.053 315.246Z" fill="#FFEEC1"/>
<path d="M476.836 364.94L429.804 364.949L429.805 372.951L476.837 372.942L476.836 364.94Z" fill="#FFEEC1"/>
<path d="M469.825 547.99L436.663 547.997L436.68 639.653L469.842 639.646L469.825 547.99Z" fill="black"/>
<path d="M464.389 377.676L442.243 377.681L442.257 453.607L464.403 453.602L464.389 377.676Z" fill="black"/>
<path d="M464.395 404.644L442.249 404.648L442.249 409.709L464.396 409.705L464.395 404.644Z" fill="#FFEEC1"/>
<path d="M467.731 453.604L438.938 453.609L438.938 457.531L467.731 457.526L467.731 453.604Z" fill="#FFEEC1"/>
<path d="M464.406 455.574L442.259 455.578L442.261 464.734L464.407 464.729L464.406 455.574Z" fill="#FFEEC1"/>
<path d="M459.933 464.306L446.755 464.308L446.76 489.987L459.938 489.984L459.933 464.306Z" fill="#FFEEC1"/>
<path d="M455.771 472.032L450.408 472.033L450.414 504.099L455.777 504.098L455.771 472.032Z" fill="#FFEEC1"/>
<path d="M469.825 528.903L436.663 528.91L436.666 541.655L469.827 541.649L469.825 528.903Z" fill="black"/>
<path d="M553.98 294.793L525.244 274.314L496.516 294.794L477.253 294.807L477.252 331.912L525.255 331.9L573.271 331.893L573.258 294.784L553.98 294.793Z" fill="#96C886"/>
<path d="M572.839 334.955L476.829 334.974L476.886 639.644L572.897 639.625L572.839 334.955Z" fill="#96C886"/>
<path d="M556.586 542.12L493.146 542.132L493.165 639.628L556.604 639.616L556.586 542.12Z" fill="#FFEEC1"/>
<path d="M556.235 538.289C556.455 536.895 556.575 535.486 556.57 534.04C556.57 517.91 542.37 504.839 524.853 504.847C507.336 504.855 493.144 517.923 493.145 534.053C493.149 535.499 493.267 536.919 493.485 538.308L556.249 538.293L556.235 538.289Z" fill="#FFEEC1"/>
<path d="M547.673 535.267C547.837 534.263 547.918 533.234 547.917 532.18C547.91 520.457 537.596 510.953 524.851 510.956C512.119 510.963 501.791 520.459 501.794 532.196C501.795 533.25 501.878 534.283 502.047 535.281L547.673 535.267Z" fill="black"/>
<path d="M550.591 376.785L499.508 376.795L499.522 454.033L550.606 454.023L550.591 376.785Z" fill="black"/>
<path d="M491.514 376.799L481.666 376.801L481.681 454.039L491.528 454.037L491.514 376.799Z" fill="black"/>
<path d="M568.44 376.782L558.592 376.784L558.607 454.022L568.455 454.02L568.44 376.782Z" fill="black"/>
<path d="M572.837 359.577L476.826 359.595L476.828 367.597L572.838 367.579L572.837 359.577Z" fill="#FFEEC1"/>
<path d="M572.839 330.946L476.828 330.964L476.83 338.966L572.84 338.948L572.839 330.946Z" fill="#FFEEC1"/>
<path d="M585.457 323.109L466.983 323.132L466.985 335.906L585.459 335.884L585.457 323.109Z" fill="#FFEEC1"/>
<path d="M572.857 454.029L476.847 454.047L476.848 462.049L572.859 462.031L572.857 454.029Z" fill="#FFEEC1"/>
<path d="M572.865 485.158L476.855 485.176L476.856 493.178L572.867 493.16L572.865 485.158Z" fill="#FFEEC1"/>
<path d="M550.712 454.854L499.629 454.863L499.631 466.21L550.715 466.201L550.712 454.854Z" fill="#FFEEC1"/>
<path d="M507.007 459.778L499.625 459.779L499.63 488.89L507.012 488.888L507.007 459.778Z" fill="#FFEEC1"/>
<path d="M550.695 459.76L543.313 459.761L543.319 488.871L550.701 488.87L550.695 459.76Z" fill="#FFEEC1"/>
<path d="M497.174 491.876L499.632 502.646C499.632 502.646 514.399 505.85 515.012 510.953L524.852 510.956L524.845 491.875" fill="#FFEEC1"/>
<path d="M552.861 491.872L550.401 502.633C550.401 502.633 535.632 505.839 535.009 510.949L519.312 510.959L514.999 491.886" fill="#FFEEC1"/>
<path d="M556.58 535.273L493.14 535.285L493.141 542.148L556.581 542.136L556.58 535.273Z" fill="#FFEEC1"/>
<path d="M547.922 542.123L501.813 542.131L501.831 639.627L547.941 639.618L547.922 542.123Z" fill="black"/>
<path d="M550.702 405.086L499.619 405.096L499.62 410.042L550.703 410.032L550.702 405.086Z" fill="#FFEEC1"/>
<path d="M491.513 404.548L481.464 404.55L481.465 409.495L491.514 409.493L491.513 404.548Z" fill="#FFEEC1"/>
<path d="M568.532 405.09L558.483 405.092L558.484 410.038L568.533 410.036L568.532 405.09Z" fill="#FFEEC1"/>
<path d="M522.058 407.012L522.067 454.044L527.431 454.043L527.422 407.011L522.058 407.012Z" fill="#FFEEC1"/>
<path d="M493.151 614.019L474.249 614.023L474.254 639.63L493.156 639.626L493.151 614.019Z" fill="#FFEEC1"/>
<path d="M575.495 614.012L556.593 614.015L556.598 639.622L575.5 639.618L575.495 614.012Z" fill="#FFEEC1"/>
<path d="M470.783 302.672L499.07 302.673L525.06 284.46L551.529 302.653L579.593 302.648L579.589 293.739L554.746 293.742L525.003 273.309L495.804 293.754L470.779 293.763L470.783 302.672Z" fill="#FFEEC1"/>
<path d="M573.149 309.387L477.254 309.405L477.254 312.246L573.15 312.227L573.149 309.387Z" fill="#FFEEC1"/>
<path d="M550.751 317.922L499.769 317.932L499.771 331.903L550.754 331.894L550.751 317.922Z" fill="#FFEEC1"/>
<path d="M530.945 317.378C530.945 319.695 528.4 321.569 525.252 321.577C522.109 321.572 519.555 319.696 519.554 317.379C519.554 315.061 522.099 313.188 525.246 313.179C528.394 313.171 530.944 315.061 530.945 317.378Z" fill="#FFEEC1"/>
<path d="M530.944 317.378L529.905 317.383C529.899 318.209 529.458 318.98 528.625 319.604C527.796 320.214 526.591 320.622 525.25 320.628C523.895 320.63 522.705 320.23 521.865 319.618C521.028 318.992 520.58 318.226 520.586 317.4C520.591 316.575 521.032 315.803 521.865 315.179C522.695 314.569 523.9 314.161 525.241 314.155C526.595 314.154 527.785 314.554 528.625 315.166C529.462 315.792 529.91 316.557 529.905 317.383L530.944 317.378L531.984 317.372C531.978 315.881 531.152 314.566 529.932 313.66C528.699 312.75 527.05 312.228 525.261 312.221C523.469 312.227 521.821 312.758 520.59 313.655C519.359 314.552 518.53 315.869 518.536 317.36C518.542 318.852 519.369 320.167 520.588 321.072C521.821 321.982 523.471 322.505 525.259 322.512C527.052 322.505 528.7 321.974 529.93 321.077C531.161 320.181 531.991 318.863 531.984 317.372L530.944 317.378Z" fill="#96C886"/>
<path d="M289.98 226.131L309.62 204.97L352.687 222.593C352.687 222.593 398.653 646.598 398.158 641.282C397.663 635.966 277.573 640.896 277.573 640.896L289.98 226.131Z" fill="#FFEEC1"/>
<path d="M325.213 415.872L309.635 204.973L289.98 226.131L282.887 449.207" fill="#F2911D"/>
<path d="M283.79 433.404L325.214 415.872L376.726 444.16L384.671 517.22L278.279 529.357L283.79 433.404Z" fill="black"/>
<path d="M348.271 514.836L43.3545 427.453L245.367 547.472L110.972 583.962L280.625 582.681L279.334 559.863L366.803 539.428L365.587 517.736L348.271 514.836Z" fill="#FFEEC1"/>
<path d="M365.586 517.735L604.611 487.13L602.864 498.296L391.041 575.998L385.948 545.354L360.012 541.011" fill="#FFEEC1"/>
<path d="M324.502 554.352L338.762 639.107L277.588 640.9L279.332 559.863" fill="black"/>
<path d="M366.804 539.428L566.189 504.242L391.943 573.23L366.804 539.428Z" fill="#F2911D"/>
<path d="M336.089 534.236L117.605 465.867L254.485 548.881L171.962 576.626L274.028 577.648L276.948 554.811L338.764 532.5" fill="#F2911D"/>
<path d="M756.133 640.558L810.604 640.363L809.438 314.892L754.966 315.087L756.133 640.558Z" fill="#DE212B"/>
<path d="M761.649 343.864L809.552 343.692L809.518 334.135L761.615 334.307L761.649 343.864Z" fill="#FFEEC1"/>
<path d="M761.57 324.618L809.473 324.446L809.439 314.89L761.536 315.062L761.57 324.618Z" fill="#FFEEC1"/>
<path d="M761.983 372.624L808.917 372.456L808.888 364.474L761.954 364.643L761.983 372.624Z" fill="#FFEEC1"/>
<path d="M769.972 638.711L803.056 638.592L802.728 547.133L769.644 547.252L769.972 638.711Z" fill="black"/>
<path d="M774.69 453.066L796.791 452.986L796.519 377.221L774.418 377.3L774.69 453.066Z" fill="black"/>
<path d="M774.54 409.25L796.641 409.171L796.623 404.123L774.522 404.203L774.54 409.25Z" fill="#FFEEC1"/>
<path d="M771.397 456.992L800.121 456.889L800.107 452.972L771.383 453.075L771.397 456.992Z" fill="#FFEEC1"/>
<path d="M774.737 464.157L796.838 464.078L796.806 454.939L774.705 455.018L774.737 464.157Z" fill="#FFEEC1"/>
<path d="M779.303 489.347L792.453 489.3L792.361 463.686L779.211 463.733L779.303 489.347Z" fill="#FFEEC1"/>
<path d="M783.491 503.42L788.848 503.4L788.733 471.406L783.376 471.426L783.491 503.42Z" fill="#FFEEC1"/>
<path d="M769.623 540.937L802.708 540.819L802.662 528.099L769.578 528.218L769.623 540.937Z" fill="black"/>
<path d="M672.894 315.407L618.422 315.6L619.575 641.071L674.047 640.878L672.894 315.407Z" fill="#DE212B"/>
<path d="M666.389 334.661L618.485 334.831L618.519 344.387L666.423 344.217L666.389 334.661Z" fill="#FFEEC1"/>
<path d="M666.317 315.432L618.414 315.602L618.447 325.158L666.351 324.988L666.317 315.432Z" fill="#FFEEC1"/>
<path d="M666.261 365.005L619.327 365.171L619.355 373.153L666.289 372.987L666.261 365.005Z" fill="#FFEEC1"/>
<path d="M659.877 547.673L626.792 547.791L627.117 639.25L660.201 639.133L659.877 547.673Z" fill="black"/>
<path d="M653.891 377.756L631.79 377.834L632.058 453.6L654.159 453.521L653.891 377.756Z" fill="black"/>
<path d="M653.98 404.662L631.879 404.741L631.897 409.788L653.998 409.71L653.98 404.662Z" fill="#FFEEC1"/>
<path d="M657.469 453.508L628.746 453.609L628.76 457.526L657.483 457.424L657.469 453.508Z" fill="#FFEEC1"/>
<path d="M654.173 455.476L632.072 455.555L632.104 464.694L654.205 464.616L654.173 455.476Z" fill="#FFEEC1"/>
<path d="M649.72 464.212L636.57 464.259L636.661 489.873L649.811 489.826L649.72 464.212Z" fill="#FFEEC1"/>
<path d="M645.617 471.933L640.26 471.952L640.373 503.946L645.73 503.927L645.617 471.933Z" fill="#FFEEC1"/>
<path d="M659.807 528.644L626.723 528.762L626.768 541.481L659.852 541.364L659.807 528.644Z" fill="black"/>
<path d="M743.001 294.73L714.264 274.4L685.665 294.933L666.441 294.996L666.573 332.029L714.46 331.857L762.361 331.687L762.228 294.654L743.001 294.73Z" fill="#EA5B86"/>
<path d="M761.949 334.768L666.156 335.108L667.233 639.111L763.026 638.771L761.949 334.768Z" fill="#EA5B86"/>
<path d="M746.401 541.538L683.113 541.763L683.458 639.05L746.746 638.826L746.401 541.538Z" fill="#FFEEC1"/>
<path d="M746.072 537.673C746.291 536.291 746.392 534.876 746.389 533.431C746.334 517.342 732.121 504.339 714.64 504.406C697.159 504.473 683.039 517.568 683.094 533.657C683.097 535.102 683.228 536.513 683.445 537.897L746.058 537.671L746.072 537.673Z" fill="#FFEEC1"/>
<path d="M737.522 534.699C737.682 533.688 737.762 532.665 737.752 531.614C737.71 519.915 727.376 510.47 714.668 510.516C701.96 510.562 691.69 520.083 691.732 531.782C691.73 532.831 691.826 533.855 691.994 534.863L737.522 534.699Z" fill="black"/>
<path d="M739.894 376.592L688.921 376.773L689.194 453.844L740.167 453.663L739.894 376.592Z" fill="black"/>
<path d="M680.934 376.792L671.108 376.827L671.381 453.898L681.207 453.863L680.934 376.792Z" fill="black"/>
<path d="M757.695 376.525L747.87 376.56L748.143 453.631L757.968 453.596L757.695 376.525Z" fill="black"/>
<path d="M761.927 330.768L666.133 331.107L666.162 339.089L761.955 338.75L761.927 330.768Z" fill="#FFEEC1"/>
<path d="M774.488 322.9L656.284 323.319L656.329 336.065L774.533 335.646L774.488 322.9Z" fill="#FFEEC1"/>
<path d="M762.365 453.58L666.571 453.919L666.6 461.901L762.393 461.561L762.365 453.58Z" fill="#FFEEC1"/>
<path d="M762.467 484.635L666.674 484.975L666.702 492.956L762.495 492.617L762.467 484.635Z" fill="#FFEEC1"/>
<path d="M740.262 454.471L689.29 454.651L689.33 465.971L740.302 465.79L740.262 454.471Z" fill="#FFEEC1"/>
<path d="M696.681 459.544L689.318 459.57L689.421 488.616L696.784 488.59L696.681 459.544Z" fill="#FFEEC1"/>
<path d="M740.28 459.38L732.917 459.406L733.02 488.452L740.382 488.426L740.28 459.38Z" fill="#FFEEC1"/>
<path d="M686.974 491.578L689.471 502.316C689.471 502.316 704.221 505.469 704.847 510.556L714.678 510.518L714.612 491.484" fill="#FFEEC1"/>
<path d="M742.553 491.369L740.128 502.119C740.128 502.119 725.399 505.375 724.812 510.46L709.159 510.516L704.798 491.497" fill="#FFEEC1"/>
<path d="M746.389 534.694L683.101 534.918L683.125 541.769L746.413 541.545L746.389 534.694Z" fill="#FFEEC1"/>
<path d="M737.772 541.569L691.753 541.732L692.098 639.02L738.117 638.857L737.772 541.569Z" fill="black"/>
<path d="M740.091 404.828L689.119 405.008L689.136 409.935L740.108 409.754L740.091 404.828Z" fill="#FFEEC1"/>
<path d="M681.029 404.46L671.001 404.496L671.019 409.422L681.046 409.386L681.029 404.46Z" fill="#FFEEC1"/>
<path d="M757.896 404.762L747.869 404.797L747.886 409.724L757.914 409.688L757.896 404.762Z" fill="#FFEEC1"/>
<path d="M711.562 406.806L711.728 453.74L717.085 453.721L716.919 406.787L711.562 406.806Z" fill="#FFEEC1"/>
<path d="M683.373 613.501L664.502 613.567L664.593 639.128L683.464 639.061L683.373 613.501Z" fill="#FFEEC1"/>
<path d="M765.544 613.211L746.673 613.278L746.764 638.838L765.634 638.772L765.544 613.211Z" fill="#FFEEC1"/>
<path d="M660.002 302.875L688.239 302.781L714.105 284.527L740.585 302.593L768.579 302.487L768.542 293.596L743.755 293.678L714.002 273.391L684.945 293.892L659.965 293.984L660.002 302.875Z" fill="#FFEEC1"/>
<path d="M762.17 309.257L666.485 309.596L666.495 312.422L762.18 312.083L762.17 309.257Z" fill="#FFEEC1"/>
<path d="M739.854 317.85L688.989 318.03L689.039 331.974L739.903 331.794L739.854 317.85Z" fill="#FFEEC1"/>
<path d="M720.096 317.35C720.1 319.654 717.566 321.542 714.43 321.55C711.294 321.557 708.741 319.695 708.738 317.391C708.735 315.088 711.269 313.2 714.404 313.192C717.54 313.184 720.093 315.046 720.096 317.35Z" fill="#FFEEC1"/>
<path d="M720.096 317.35L719.06 317.35C719.067 318.168 718.617 318.942 717.795 319.575C716.974 320.195 715.778 320.605 714.429 320.609C713.079 320.614 711.889 320.207 711.059 319.599C710.229 318.99 709.78 318.211 709.773 317.392C709.766 316.573 710.216 315.799 711.038 315.167C711.859 314.547 713.055 314.137 714.405 314.132C715.754 314.128 716.944 314.534 717.774 315.143C718.605 315.751 719.053 316.531 719.06 317.35L720.096 317.35L721.131 317.351C721.121 315.864 720.294 314.547 719.072 313.658C717.839 312.755 716.19 312.235 714.405 312.238C712.619 312.242 710.966 312.784 709.745 313.694C708.527 314.592 707.703 315.919 707.713 317.406C707.723 318.893 708.55 320.21 709.772 321.098C711.005 322.002 712.654 322.522 714.44 322.519C716.225 322.515 717.878 321.973 719.099 321.063C720.318 320.165 721.141 318.837 721.131 317.351L720.096 317.35Z" fill="#EA5B86"/>
<path d="M262.036 132.682L260.398 158.496L236.931 165.26L259.941 172.029C259.941 172.029 245.375 196.306 245.781 195.113C246.187 193.92 266.263 180.391 266.263 180.391L275.72 196.706C275.72 196.706 276.126 177.605 277.745 177.605C279.364 177.605 296.463 175.916 296.463 175.916L277.745 165.27C277.745 165.27 294.377 152.53 293.164 152.131C291.951 151.731 271.558 155.848 271.558 155.848L262.036 132.682Z" fill="#FFEEC1"/>
<path d="M264.714 149.363L263.814 162.796L250.937 166.316L263.562 169.84C263.562 169.84 255.57 182.47 255.789 181.85C256.013 181.231 267.028 174.191 267.028 174.191L272.216 182.681C272.216 182.681 272.44 172.741 273.327 172.741C274.213 172.741 283.6 171.86 283.6 171.86L273.327 166.32C273.327 166.32 282.453 159.689 281.79 159.482C281.123 159.276 269.935 161.419 269.935 161.419L264.71 149.363H264.714Z" fill="#F2911D"/>
<path d="M944.193 242.197L942.981 261.303L925.612 266.309L942.643 271.319C942.643 271.319 931.862 289.288 932.162 288.404C932.463 287.521 947.322 277.508 947.322 277.508L954.321 289.583C954.321 289.583 954.621 275.446 955.82 275.446C957.018 275.446 969.674 274.196 969.674 274.196L955.82 266.316C955.82 266.316 968.13 256.887 967.232 256.592C966.334 256.296 951.241 259.343 951.241 259.343L944.193 242.197Z" fill="#FFEEC1"/>
<path d="M946.176 254.543L945.509 264.485L935.979 267.09L945.323 269.699C945.323 269.699 939.407 279.046 939.57 278.588C939.736 278.129 947.888 272.919 947.888 272.919L951.728 279.202C951.728 279.202 951.894 271.845 952.55 271.845C953.206 271.845 960.154 271.193 960.154 271.193L952.55 267.093C952.55 267.093 959.304 262.185 958.814 262.033C958.32 261.88 950.04 263.466 950.04 263.466L946.172 254.543H946.176Z" fill="#F2911D"/>
<path d="M872.959 308.45L881.025 315.405L888.069 303.272L885.908 315.405L895.017 318.148L885.387 320.969C885.387 320.969 891.794 335.11 890.617 333.719C889.44 332.328 882.26 325.103 882.26 325.103L872.939 332.966L878.015 324.002L863.483 319.365L877.281 316.371L872.939 308.45H872.959Z" fill="#FFEEC1"/>
<path d="M703.421 74.6775L711.488 81.6323L718.532 69.5L716.37 81.6323L725.479 84.3756L715.849 87.1962C715.849 87.1962 722.256 101.338 721.079 99.9467C719.902 98.5557 712.723 91.3304 712.723 91.3304L703.402 99.1932L708.477 90.2292L693.945 85.5927L707.744 82.5982L703.402 74.6775H703.421Z" fill="#FFEEC1"/>
<path d="M915.092 562.55L920.479 567.106L925.184 559.159L923.74 567.106L929.824 568.903L923.392 570.751C923.392 570.751 927.671 580.014 926.885 579.103C926.099 578.192 921.304 573.459 921.304 573.459L915.079 578.61L918.469 572.738L908.763 569.7L917.979 567.739L915.079 562.55H915.092Z" fill="#FFEEC1"/>
<path d="M402.266 295.081L407.654 299.637L412.359 291.689L410.915 299.637L416.999 301.434L410.567 303.282C410.567 303.282 414.846 312.545 414.06 311.634C413.274 310.723 408.479 305.99 408.479 305.99L402.254 311.14L405.643 305.268L395.938 302.231L405.154 300.27L402.254 295.081H402.266Z" fill="#FFEEC1"/>
</svg>
