<svg width="591" height="408" viewBox="0 0 591 408" fill="none" xmlns="http://www.w3.org/2000/svg">
<path d="M487.215 129.937C485.082 135.101 482.555 140.606 477.607 143.318C476.786 142.357 477.092 140.924 477.445 139.718C477.809 138.467 478.167 137.216 478.532 135.965C476.213 137.859 473.456 139.235 470.525 139.946C471.635 136.466 473.23 133.128 475.242 130.062C472.363 130.369 469.415 130.023 466.686 129.062C470.426 126.52 474.248 123.932 478.607 122.664C481.035 121.959 483.665 121.635 485.724 120.185" fill="black"/>
<path d="M517.126 95.2422C514.016 96.6582 510.935 98.1197 507.871 99.6266C504.304 101.384 500.736 103.215 497.649 105.7C494.562 108.179 491.943 111.375 490.793 115.134C489.81 118.336 485.509 119.405 482.653 120.986C479.247 122.874 475.9 124.853 472.605 126.923C475.339 127.366 478.189 127.071 480.774 126.087C478.64 128.652 476.796 131.449 475.281 134.412C478.085 134.031 480.363 132.064 482.456 130.193C481.109 132.433 480.253 134.952 479.947 137.534C484.445 134.987 487.087 130.25 490.561 126.457C490.891 126.093 491.238 125.734 491.671 125.507C492.226 125.211 492.88 125.154 493.504 125.086C506.483 123.772 518.953 118.012 528.273 109.021" fill="#F7A81A"/>
<path d="M550.867 85.7798C550.93 85.922 550.797 86.0698 550.682 86.1779C548.71 87.9578 546.733 89.7377 544.762 91.5177C545.808 91.603 546.866 91.5518 547.901 91.3698C547.167 91.7849 541.559 96.2206 541.553 96.6983C541.564 95.9533 541.154 95.2766 540.761 94.6397C539.564 92.7005 538.367 90.7613 537.165 88.8222C540.599 86.4053 544.357 86.0926 548.375 85.5182C549.144 85.4102 549.965 85.3021 550.67 85.6263C550.751 85.6604 550.832 85.7115 550.867 85.7912V85.7798Z" fill="#DE212B"/>
<path d="M533.153 87.0704C534.009 86.7633 534.899 86.4676 535.801 86.57C537.385 86.7576 538.524 88.0997 539.495 89.3451C540.125 90.1526 540.935 91.1648 541.391 92.0747C542.195 93.6727 543.01 95.5265 542.322 97.1757C542.016 97.9093 541.438 98.5007 540.865 99.0637C538.05 101.81 534.963 104.29 531.661 106.462C528.407 108.606 525.267 111.108 521.903 113.036C521.793 111.62 522.232 110.164 523.117 109.038C522.284 109.385 521.452 109.732 520.619 110.073C520.428 110.153 520.209 110.227 520.029 110.13C519.7 109.948 519.879 109.448 520.099 109.146C520.665 108.361 521.238 107.571 521.804 106.786C520.81 107.11 519.712 107.11 518.723 106.775C518.48 106.695 518.203 106.536 518.208 106.286C518.208 106.121 518.33 105.99 518.445 105.871C519.203 105.097 519.96 104.318 520.717 103.545C519.237 104.022 517.439 104.449 516.266 103.442C516.156 103.346 516.052 103.232 516.046 103.084C516.046 102.919 516.179 102.783 516.306 102.669C517.197 101.884 518.087 101.1 518.977 100.315C517.503 100.724 515.821 100.315 514.716 99.2684C515.763 98.4779 516.832 97.7273 517.937 97.0108C516.457 97.2837 514.867 96.9311 513.653 96.0554C520.174 93.0756 526.366 89.4986 533.141 87.0647L533.153 87.0704Z" fill="#F7A81A"/>
<path d="M526.915 82.868C524.799 82.8851 522.712 83.2832 520.637 83.6813C523.464 83.5505 526.314 83.9202 529.008 84.7733C525.823 84.8018 522.649 85.5127 519.764 86.8322C522.504 86.855 525.245 86.8777 527.985 86.9005C525.441 87.4408 522.73 88.0778 520.972 89.966C522.782 89.585 524.597 89.2039 526.407 88.8285C528.072 88.4816 529.742 88.129 531.442 88.0778C533.974 88.0038 537.374 89.1982 539.715 88.2712C538.143 84.5515 530.5 82.8396 526.915 82.868Z" fill="black"/>
<path d="M534.986 90.7268C536.009 90.4709 536.807 91.5799 537.264 92.5184C537.425 92.8539 537.593 93.2407 537.454 93.5876C537.379 93.7753 537.217 93.9232 537.067 94.0597C536.281 94.765 535.223 95.5271 534.251 95.0948C533.806 94.9014 533.5 94.4863 533.303 94.054C532.922 93.2236 532.899 92.1885 533.454 91.4605C534.009 90.7325 535.217 90.5107 535.882 91.142" fill="black"/>
<path d="M528.609 162.976C524.458 168.526 518.966 173.098 512.716 176.215C511.311 175.237 510.091 173.997 509.149 172.587C508.912 172.234 508.687 171.836 508.721 171.415C508.762 170.966 509.091 170.596 509.409 170.266C512.161 167.378 514.913 164.489 517.665 161.6C513.953 163.647 510.242 165.694 506.53 167.742C505.154 165.91 503.946 163.954 502.928 161.913C506.49 160.013 509.444 157.022 511.259 153.462C508.814 155.083 506.264 156.556 503.634 157.869C502.848 158.262 501.888 158.637 501.136 158.194C500.772 157.978 500.535 157.602 500.315 157.244C499.587 156.021 498.939 154.753 498.373 153.445C501.31 151.239 503.894 148.589 506.016 145.615C503.749 147.781 500.847 149.294 497.748 149.925C497.326 148.259 496.91 146.593 496.488 144.932C496.384 144.523 496.28 144.102 496.384 143.693C496.563 142.959 497.309 142.527 497.957 142.112C499.743 140.969 501.2 139.331 502.125 137.443C500.107 139.064 497.893 140.445 495.546 141.56C494.979 139.609 494.407 137.659 493.84 135.708C495.696 133.906 497.107 131.659 497.922 129.22C496.505 130.755 494.765 132.001 492.84 132.848C492.106 131.153 491.372 129.464 490.643 127.77C493.673 124.38 496.355 120.684 498.627 116.76C499.94 121.895 501.414 127.315 505.287 130.994" fill="#EA5B86"/>
<path d="M523.666 166.155C518.341 158.205 513.248 150.102 508.397 141.856C505.929 137.665 503.524 133.434 501.182 129.175C499.558 126.223 496.268 122.447 497.459 118.899C498.049 117.147 499.298 115.691 500.512 114.292C504.114 110.147 507.056 106.206 512.011 103.448C513.734 102.487 515.618 101.634 517.595 101.691C520.313 101.77 522.741 103.607 524.117 105.916C525.73 108.617 525.394 111.853 527.181 114.349C529.054 116.965 532.187 118.171 534.159 120.667C536.234 123.294 536.362 126.888 536.344 130.221C536.315 136.658 536.09 143.135 534.644 149.414C533.199 155.692 530.465 161.799 525.961 166.462C525.666 166.769 525.313 167.088 524.886 167.088C524.348 167.088 523.966 166.599 523.672 166.155H523.666Z" fill="#F7A81A"/>
<path d="M531.805 134.031C530.661 130.801 529.857 127.451 529.4 124.062C529.215 122.657 531.268 122.163 532.389 122.657C533.522 123.158 533.707 124.25 533.927 125.353C534.517 128.35 533.713 131.637 531.805 134.037V134.031Z" fill="#DE212B"/>
<path d="M513.559 120.902C514.49 117.603 515.762 114.401 517.358 111.358C518.017 110.096 519.994 110.846 520.63 111.876C521.271 112.922 520.792 113.923 520.335 114.953C519.086 117.745 516.519 119.998 513.565 120.902H513.559Z" fill="#DE212B"/>
<path d="M503.662 116.721C505.344 113.724 507.339 110.903 509.605 108.31C510.547 107.235 512.287 108.412 512.663 109.561C513.045 110.727 512.339 111.591 511.651 112.484C509.778 114.913 506.755 116.522 503.662 116.721Z" fill="#DE212B"/>
<path d="M524.648 141.276C524.174 137.887 524.052 134.452 524.284 131.034C524.382 129.618 526.498 129.533 527.492 130.233C528.487 130.932 528.469 132.047 528.464 133.173C528.446 136.221 527.001 139.292 524.648 141.276Z" fill="#DE212B"/>
<path d="M516.006 150.602C516.046 147.179 516.445 143.767 517.197 140.423C517.509 139.041 519.613 139.263 520.492 140.099C521.388 140.946 521.186 142.038 521.006 143.147C520.527 146.161 518.63 148.981 516.006 150.602Z" fill="#DE212B"/>
<path d="M513.508 137.164C513.548 133.741 513.947 130.329 514.699 126.985C515.011 125.603 517.115 125.825 517.994 126.661C518.89 127.508 518.688 128.6 518.508 129.709C518.029 132.723 516.132 135.543 513.508 137.164Z" fill="#DE212B"/>
<path d="M504.31 129.733C505.281 126.446 506.594 123.261 508.23 120.241C508.906 118.99 510.872 119.757 511.496 120.798C512.121 121.839 511.635 122.846 511.161 123.87C509.877 126.645 507.287 128.869 504.316 129.733H504.31Z" fill="#DE212B"/>
<path d="M525.856 120.963C525.914 120.843 526.122 120.889 526.174 121.014C526.226 121.139 526.174 121.281 526.116 121.401C525.185 123.528 523.879 125.501 522.283 127.207C521.977 124.665 521.982 122.083 522.312 119.547C522.439 118.574 522.63 117.562 523.237 116.783C523.439 116.527 523.699 116.294 524.017 116.232C524.382 116.158 524.752 116.311 525.093 116.459C525.561 116.664 526.024 116.863 526.492 117.068C526.821 117.21 527.191 117.392 527.29 117.733C527.371 117.994 527.266 118.267 527.168 118.523C526.694 119.723 526.214 120.923 525.74 122.123" fill="#DE212B"/>
<path d="M529.498 148.686C529.556 148.566 529.764 148.612 529.816 148.737C529.868 148.862 529.816 149.004 529.759 149.123C528.828 151.25 527.521 153.224 525.926 154.93C525.619 152.388 525.625 149.806 525.954 147.27C526.082 146.297 526.272 145.285 526.88 144.506C527.082 144.25 527.342 144.017 527.66 143.954C528.024 143.88 528.394 144.034 528.735 144.182C529.204 144.386 529.666 144.585 530.134 144.79C530.464 144.932 530.834 145.114 530.932 145.456C531.013 145.717 530.909 145.99 530.811 146.246C530.337 147.446 529.857 148.646 529.383 149.846" fill="#DE212B"/>
<path d="M470.195 63.1406C463.234 63.8856 456.453 66.2569 450.579 70.0045C450.735 71.6934 451.209 73.3483 451.978 74.8609C452.169 75.2419 452.406 75.6343 452.793 75.8106C453.21 76.004 453.701 75.9073 454.146 75.8049C458.066 74.9178 461.991 74.025 465.911 73.1379C462.246 75.2647 458.586 77.3915 454.921 79.5183C455.84 81.6054 456.95 83.6185 458.233 85.5121C461.691 83.4365 465.801 82.4299 469.848 82.6688C467.194 83.9369 464.616 85.3586 462.142 86.9395C461.402 87.4115 460.592 88.037 460.604 88.9014C460.604 89.3222 460.818 89.7089 461.026 90.0786C461.737 91.3126 462.523 92.5011 463.39 93.6384C466.801 92.2509 470.432 91.3808 474.115 91.068C471.074 91.9097 468.281 93.6157 466.177 95.9359C467.431 97.1301 468.68 98.3243 469.935 99.5128C470.241 99.8028 470.565 100.104 470.97 100.229C471.704 100.445 472.461 100.03 473.149 99.6891C475.051 98.7451 477.225 98.3243 479.347 98.4892C476.907 99.3934 474.583 100.582 472.426 102.015C473.854 103.476 475.288 104.944 476.716 106.405C479.237 105.734 481.919 105.66 484.469 106.195C482.405 106.627 480.439 107.486 478.728 108.691C479.85 110.164 480.965 111.637 482.087 113.115C486.591 112.24 491.187 111.819 495.777 111.853C491.921 108.157 487.897 104.182 486.614 99.0408" fill="#EA5B86"/>
<path d="M464.917 65.7512C469.229 74.2755 473.797 82.6805 478.601 90.9433C481.046 95.1515 483.555 99.3198 486.122 103.454C487.903 106.32 489.568 111.012 493.285 111.779C495.124 112.16 497.026 111.831 498.87 111.495C504.328 110.517 509.265 109.988 514.179 107.162C515.89 106.178 517.584 105.007 518.526 103.295C519.821 100.946 519.423 97.955 518.087 95.6291C516.52 92.8995 513.508 91.5575 512.213 88.788C510.855 85.8821 511.369 82.6066 510.167 79.6779C508.901 76.59 505.802 74.6793 502.871 73.0188C497.199 69.8115 491.389 66.7464 485.145 64.8242C478.902 62.9021 472.161 62.1572 465.795 63.6471C465.379 63.7438 464.917 63.8802 464.703 64.2499C464.431 64.7048 464.674 65.2792 464.911 65.7512H464.917Z" fill="#F7A81A"/>
<path d="M497.244 74.9632C499.511 77.5624 502.043 79.9284 504.801 82.0157C505.939 82.8802 507.408 81.3787 507.541 80.1787C507.674 78.9615 506.807 78.2563 505.945 77.5169C503.61 75.5092 500.314 74.5423 497.244 74.9575V74.9632Z" fill="#DE212B"/>
<path d="M499.622 97.0793C502.987 97.9438 506.444 98.4671 509.918 98.6434C511.358 98.7173 511.693 96.6584 511.103 95.6006C510.508 94.5256 509.386 94.4346 508.253 94.3095C505.172 93.9683 501.905 95.0204 499.622 97.0793Z" fill="#DE212B"/>
<path d="M498.321 107.595C501.795 107.669 505.282 107.39 508.704 106.764C510.12 106.503 509.964 104.427 509.143 103.534C508.311 102.624 507.195 102.789 506.062 102.925C502.986 103.295 500.049 105.064 498.321 107.595Z" fill="#DE212B"/>
<path d="M487.284 77.4091C490.024 79.5191 492.984 81.3448 496.1 82.8634C497.395 83.489 498.528 81.7372 498.418 80.5372C498.303 79.3201 497.314 78.7968 496.32 78.2337C493.632 76.7209 490.203 76.4024 487.278 77.4091H487.284Z" fill="#DE212B"/>
<path d="M474.739 80.0817C477.768 81.7652 480.971 83.1416 484.284 84.1824C485.654 84.6146 486.515 82.7093 486.226 81.5434C485.932 80.3547 484.868 79.9793 483.804 79.5755C480.913 78.4721 477.479 78.6598 474.739 80.0817Z" fill="#DE212B"/>
<path d="M485.301 88.9528C488.33 90.6363 491.533 92.0127 494.846 93.0535C496.216 93.4857 497.077 91.5804 496.788 90.4145C496.494 89.2258 495.43 88.8504 494.366 88.4466C491.475 87.3432 488.041 87.5309 485.301 88.9528Z" fill="#DE212B"/>
<path d="M487.209 100.509C490.586 101.333 494.049 101.817 497.523 101.948C498.963 102.005 499.275 99.94 498.674 98.8935C498.072 97.847 496.939 97.7446 495.806 97.6365C492.719 97.3351 489.464 98.4214 487.209 100.514V100.509Z" fill="#DE212B"/>
<path d="M505.743 86.5926C505.882 86.604 505.94 86.3993 505.859 86.2969C505.778 86.1945 505.627 86.1661 505.489 86.149C503.147 85.8703 500.76 85.9898 498.459 86.4903C500.54 88.0316 502.812 89.3169 505.205 90.318C506.125 90.699 507.107 91.0459 508.096 90.9151C508.42 90.8696 508.755 90.7673 508.975 90.5284C509.223 90.2554 509.275 89.8629 509.316 89.4989C509.374 88.9984 509.426 88.5036 509.484 88.0031C509.524 87.6505 509.547 87.2467 509.299 86.9851C509.108 86.786 508.813 86.7348 508.541 86.695C507.246 86.4959 505.951 86.2969 504.656 86.0978" fill="#DE212B"/>
<path d="M483.203 69.5672C483.341 69.5786 483.399 69.3739 483.318 69.2715C483.237 69.1691 483.087 69.1407 482.948 69.1236C480.607 68.8449 478.219 68.9644 475.918 69.4649C478 71.0062 480.272 72.2916 482.665 73.2926C483.584 73.6736 484.567 74.0206 485.556 73.8897C485.879 73.8442 486.215 73.7419 486.434 73.503C486.683 73.23 486.735 72.8376 486.776 72.4736C486.833 71.9731 486.885 71.4782 486.943 70.9777C486.984 70.6251 487.007 70.2213 486.758 69.9597C486.567 69.7606 486.273 69.7094 486.001 69.6696C484.706 69.4705 483.411 69.2715 482.116 69.0724" fill="#DE212B"/>
<path d="M411.04 103.527C410.694 102.736 413.799 101.677 413.904 97.353C414.014 93.0315 410.097 92.2778 409.752 91.3726C409.406 90.4675 411.594 90.2165 411.356 88.0539C411.124 85.8937 409.225 85.464 409.225 85.464C409.225 85.464 410.319 84.5406 410.312 83.0618C410.31 81.5854 409.502 81.7064 409.502 81.7064C409.502 81.7064 408.809 81.0292 408.577 79.5532C408.52 79.1945 408.465 78.9105 408.411 78.6874C408.404 78.5771 408.391 78.4645 408.386 78.3485C408.376 78.1969 408.365 78.0315 408.275 77.9079C408.014 77.5533 407.868 77.7221 407.785 78.044C407.695 78.2557 407.564 78.692 407.429 79.5692C407.198 81.0517 406.508 81.7373 406.508 81.7373C406.508 81.7373 405.702 81.6309 405.702 83.113C405.704 84.5894 406.801 85.4915 406.801 85.4915C406.801 85.4915 404.903 85.9675 404.675 88.1286C404.447 90.2897 406.637 90.4956 406.29 91.4078C405.949 92.3224 402.031 93.1644 402.158 97.4821C402.278 101.803 405.386 102.791 405.046 103.592C404.706 104.393 401.364 105.342 401.364 105.342L401.369 107.846C401.369 107.846 402.059 108.864 402.866 109.078C403.672 109.298 403.453 116.581 403.453 116.581L407.48 116.534L408.629 116.518L412.656 116.472C412.656 116.472 412.412 109.196 413.224 108.955C414.027 108.718 414.716 107.684 414.716 107.684L414.711 105.18C414.711 105.18 411.372 104.306 411.025 103.514L411.04 103.527Z" fill="black"/>
<path d="M317.746 106.263C317.559 107.007 315.122 224.511 315.122 224.511L395.001 226.214L414.922 225.992L414.758 128.931L415.481 111.012L383.135 99.1035" fill="#FFEEC1"/>
<path d="M364.229 15.0791C364.21 14.9641 364.186 14.8467 364.155 14.727C364.138 14.6729 364.122 14.6131 364.105 14.559C364.091 14.5267 364.084 14.4968 364.071 14.4645C364.051 14.4161 364.053 14.4104 364.017 14.3354C363.994 14.279 363.966 14.2339 363.934 14.1809C363.945 14.1855 363.946 14.1993 363.956 14.2097C363.911 14.1244 363.863 14.0448 363.81 13.9628C363.82 13.9066 363.828 13.8561 363.833 13.7976C363.866 13.4958 363.833 13.1602 363.722 12.8802C363.644 12.6809 363.564 12.4873 363.435 12.3139C363.327 12.1695 363.209 12.0342 363.085 11.9103C363.13 11.9014 363.171 11.8845 363.208 11.8596C363.291 11.8396 363.358 11.793 363.416 11.7361C363.489 11.6919 363.547 11.6349 363.59 11.5652C363.677 11.4729 363.729 11.3665 363.762 11.2393C363.849 11.0195 363.878 10.7762 363.896 10.5421C363.914 10.3079 363.881 10.0665 363.838 9.83413C363.795 9.60178 363.699 9.38164 363.6 9.16722C363.502 8.9528 363.361 8.77478 363.209 8.59208C363.157 8.5239 363.094 8.46481 363.023 8.40911C362.925 8.33596 362.825 8.25475 362.725 8.18733C362.64 8.13266 362.561 8.09412 362.444 8.06676C362.416 8.05504 362.376 8.05242 362.345 8.04642C362.253 7.88144 362.11 7.75624 361.929 7.70309C361.929 7.70309 361.929 7.70309 361.924 7.70075C361.889 7.63959 361.841 7.59327 361.788 7.55838C361.74 7.51205 361.679 7.48055 361.611 7.46621C361.565 7.46125 361.514 7.45395 361.469 7.44898C361.396 7.44609 361.327 7.46506 361.267 7.49443C361.22 7.50899 361.185 7.52822 361.151 7.56125C361.094 7.59869 361.047 7.64655 361.015 7.70716C360.998 7.74722 360.978 7.793 360.961 7.83306C360.936 7.92359 360.937 8.01777 360.965 8.10988C360.978 8.17545 360.985 8.23867 361 8.29852C360.994 8.32948 360.993 8.36278 360.993 8.39608C361 8.5064 361.026 8.60423 361.074 8.69765C361.097 8.83451 361.123 8.96565 361.146 9.10251C361.145 9.08872 361.138 9.07259 361.14 9.05307C361.148 9.09679 361.157 9.1405 361.171 9.18655C361.182 9.22454 361.193 9.26253 361.204 9.30052C361.226 9.3765 361.244 9.44441 361.266 9.52039L361.287 9.58258C361.287 9.58258 361.235 9.60858 361.217 9.62106C361.06 9.71856 360.902 9.83558 360.782 9.97472C360.658 10.1253 360.568 10.2567 360.513 10.4354C360.496 10.4754 360.49 10.5202 360.485 10.5649C360.301 10.7587 360.186 11.0139 360.21 11.292C360.228 11.5207 360.262 11.6956 360.351 11.8996C360.48 12.2004 360.651 12.451 360.875 12.6894C361.11 12.9463 361.399 13.1576 361.638 13.4088C361.659 13.4377 361.678 13.4723 361.697 13.5069C361.698 13.5207 361.708 13.5311 361.708 13.5449C361.711 13.5863 361.711 13.6196 361.707 13.6586C361.7 13.6758 361.69 13.6987 361.689 13.7182C361.665 13.7754 361.631 13.8222 361.595 13.8748C361.572 13.8987 361.548 13.9226 361.524 13.9465C361.506 13.959 361.487 13.9715 361.468 13.984C361.46 13.9874 361.446 13.9884 361.438 13.9918C361.377 13.9603 361.324 13.9254 361.265 13.8882C361.164 13.8069 361.072 13.7223 360.973 13.6354C360.762 13.4488 360.514 13.3009 360.276 13.1439C359.88 12.8823 359.473 12.6769 359.022 12.5136C358.864 12.456 358.704 12.418 358.537 12.3971C358.262 12.3592 357.982 12.3191 357.699 12.3317C357.251 12.351 356.785 12.4299 356.364 12.608C356.102 12.7161 355.84 12.8243 355.603 12.9831C355.377 13.1329 355.15 13.3022 354.955 13.4912C354.572 13.8522 354.303 14.2934 354.107 14.7707C353.955 14.9704 353.84 15.2256 353.851 15.4853C353.854 15.5737 353.871 15.6612 353.891 15.7429C353.886 15.8014 353.882 15.8599 353.885 15.9151C353.91 16.3678 354.016 16.7063 354.209 17.1133C354.339 17.3946 354.552 17.6421 354.744 17.8745C354.882 18.0445 355.032 18.1996 355.178 18.3662C355.536 18.7665 355.902 19.1634 356.259 19.5636C356.353 19.662 356.438 19.7638 356.531 19.8622C356.683 20.0311 356.846 20.1576 357.036 20.282C357.083 20.3146 357.127 20.339 357.179 20.3601C357.315 20.4221 357.468 20.4911 357.616 20.5245C357.767 20.5521 357.943 20.5834 358.102 20.5744C358.13 20.5723 358.153 20.5679 358.18 20.5658C358.295 20.5518 358.411 20.5321 358.525 20.5181C358.599 20.4877 358.681 20.4539 358.757 20.4177C358.897 20.3603 359.038 20.2971 359.174 20.2316C359.16 20.6151 359.144 21.0043 359.124 21.3855C359.084 22.3889 359.091 23.3916 359.087 24.3896C359.089 24.4643 359.083 24.5424 359.085 24.617C359.09 24.7802 359.129 24.9436 359.162 25.1046C359.187 25.2358 359.213 25.3669 359.238 25.498C359.296 25.7764 359.353 26.0411 359.433 26.3151C359.49 26.5131 359.614 26.684 359.779 26.8048C359.944 26.9256 360.15 27.0157 360.365 27.0025C360.538 26.9925 360.698 26.9501 360.85 26.8641C361.069 26.7452 361.214 26.5156 361.289 26.2911C361.369 26.0551 361.435 25.8202 361.497 25.5772C361.581 25.2357 361.691 24.8977 361.71 24.5499C361.737 24.0574 361.752 23.5602 361.772 23.0654C361.792 22.5568 361.818 22.0505 361.818 21.5405C361.819 21.0444 361.825 20.5506 361.824 20.0602C361.822 19.858 361.828 19.6525 361.826 19.4503C361.94 19.403 362.058 19.35 362.175 19.297C362.294 19.2382 362.413 19.1657 362.526 19.0908C362.77 18.9147 363.027 18.7239 363.227 18.4901C363.42 18.2596 363.612 18.0154 363.757 17.7524C364.01 17.2985 364.196 16.797 364.272 16.2842C364.305 16.0628 364.332 15.8724 364.321 15.6598C364.31 15.4611 364.28 15.261 364.248 15.0666L364.229 15.0791Z" fill="black"/>
<path d="M392.327 220.003L415.42 219.739L415.432 226.157L386.871 226.2" fill="#F2911D"/>
<mask id="mask0_582_2342" style="mask-type:luminance" maskUnits="userSpaceOnUse" x="330" y="24" width="61" height="73">
<path d="M390.747 77.0421C389.899 70.235 378.012 66.6142 378.012 66.6142L378.009 60.9228C378.009 60.9228 379.334 59.7946 380.594 56.161C381.855 52.5275 380.873 50.8729 377.999 47.9869C375.291 45.2688 370.861 44.4186 370.358 44.3286C370.544 44.3369 371.162 44.0771 370.306 40.0083C369.613 36.7039 367.054 36.3573 365.587 36.4476C366.618 36.0598 367.987 34.7675 367.627 30.5839C367.06 24.0526 360.21 24.6926 360.21 24.6926C360.21 24.6926 354.579 24.2013 354.023 30.7473C353.664 34.9347 355.036 36.1968 356.071 36.5631C354.604 36.512 352.046 36.9114 351.355 40.2388C350.51 44.3295 351.124 44.5721 351.311 44.5608C350.809 44.6594 346.382 45.6174 343.678 48.3965C340.812 51.3514 339.826 53.0339 341.097 56.6334C342.369 60.2328 343.694 61.3347 343.694 61.3347L343.697 67.0261C343.697 67.0261 331.818 70.9326 330.98 77.7604C330.141 84.5883 334.083 85.2337 334.083 85.2337L334.094 96.2223L361.098 94.4157L361.116 95.0745L387.681 92.66L387.672 84.5947C387.672 84.5947 391.616 83.8504 390.765 77.0491L390.747 77.0421Z" fill="white"/>
</mask>
<g mask="url(#mask0_582_2342)">
<path d="M390.746 77.0422C389.898 70.2352 378.011 66.6148 378.011 66.6148L378.008 60.9233C378.008 60.9233 379.334 59.795 380.594 56.1614C381.855 52.5277 380.873 50.8731 377.999 47.9872C375.291 45.2692 370.861 44.4192 370.358 44.3292C370.544 44.3375 371.162 44.0777 370.307 40.0088C369.614 36.7044 367.054 36.3579 365.588 36.4482C366.619 36.0604 367.987 34.7681 367.627 30.5845C367.061 24.0531 360.212 24.6934 360.212 24.6934C360.212 24.6934 354.581 24.2023 354.024 30.7484C353.665 34.9359 355.037 36.1979 356.072 36.5642C354.605 36.5131 352.046 36.9127 351.356 40.2402C350.51 44.331 351.124 44.5735 351.312 44.5622C350.81 44.6608 346.383 45.619 343.679 48.3982C340.812 51.3533 339.826 53.0359 341.097 56.6353C342.369 60.2348 343.693 61.3367 343.693 61.3367L343.696 67.0282C343.696 67.0282 331.818 70.9352 330.979 77.7631C330.14 84.5911 334.081 85.2363 334.081 85.2363L334.092 96.0365L361.288 95.0659L361.096 94.4173L387.674 92.6581L387.665 84.5928C387.665 84.5928 391.608 83.8482 390.758 77.0469L390.746 77.0422Z" fill="#6D170D"/>
<path d="M334.32 70.9843C343.448 68.8862 352.966 68.6702 362.275 68.6123C371.659 68.5514 381.043 69.1659 390.14 71.4621C392.013 71.9324 392.806 69.0574 390.941 68.5837C381.597 66.2279 371.92 65.5685 362.276 65.6321C352.694 65.6939 342.917 65.9601 333.524 68.1198C331.634 68.5549 332.44 71.4102 334.322 70.9785L334.32 70.9843Z" fill="#F2911D"/>
<path d="M336.994 63.2996C352.695 60.5697 368.761 60.2917 384.489 62.4905C386.382 62.7527 387.194 59.8805 385.29 59.6136C368.99 57.3378 352.469 57.6137 336.196 60.4424C334.296 60.7719 335.102 63.6258 336.994 63.2996Z" fill="#F2911D"/>
<path d="M338.044 49.5463C354.762 45.593 372.043 45.5443 388.737 49.1353C390.617 49.5407 391.424 46.6657 389.538 46.2578C372.303 42.5485 354.494 42.6061 337.246 46.6886C335.365 47.1339 336.163 49.9917 338.044 49.5463Z" fill="#F2911D"/>
<path d="M343.291 39.8573C355.297 37.4771 367.64 37.4703 379.601 39.8212C381.489 40.1897 382.288 37.3182 380.401 36.9439C367.895 34.4862 355.054 34.5137 342.493 36.9997C340.593 37.3767 341.399 40.2309 343.291 39.8573Z" fill="#F2911D"/>
<path d="M326.503 87.9207C338.201 84.6547 350.329 84.1195 362.383 83.9862C368.387 83.917 374.381 83.871 380.33 84.7326C386.119 85.57 391.778 87.0646 397.234 89.1187C399.033 89.7956 399.814 86.9152 398.035 86.2396C392.351 84.0994 386.449 82.5672 380.413 81.7512C374.428 80.9425 368.431 80.9469 362.388 81.0135C350.075 81.1495 337.661 81.7313 325.711 85.0637C323.845 85.5835 324.643 88.4429 326.509 87.923L326.503 87.9207Z" fill="#F2911D"/>
<path d="M359.916 24.1206C361.809 27.4186 361.354 30.3333 360.191 33.7859C359.692 35.2803 359.605 36.6273 360.108 38.113C360.307 38.7102 360.642 39.2556 360.81 39.8606C361.09 40.8866 360.706 41.5691 360.415 42.5244C360.041 43.7545 359.93 44.8569 360.421 46.0692C360.915 47.2896 361.975 48.1628 362.523 49.3515C364.015 52.5937 361.588 55.2714 361.153 58.3757C360.944 59.8539 361.122 61.3888 361.188 62.8712C361.252 64.3399 361.191 65.9316 361.757 67.3155C362.299 68.6293 363.423 69.4949 364.221 70.6372C365.018 71.7794 365.526 73.0929 365.764 74.4572C366.013 75.8732 365.935 77.3581 365.558 78.7547C365.162 80.2441 364.192 81.3195 363.612 82.7009C363.118 83.8624 363.213 85.1488 363.223 86.3806C363.229 88.3218 363.304 90.2577 363.413 92.1939C363.522 94.083 366.511 94.0554 366.398 92.1582C366.289 90.222 366.214 88.2861 366.208 86.3449C366.207 85.7273 366.108 85.0091 366.222 84.3912C366.395 83.4753 367.048 82.7947 367.466 81.985C368.703 79.5822 369.122 76.8474 368.729 74.1986C368.334 71.5693 367.143 69.4152 365.43 67.4248C363.936 65.6979 364.203 63.5119 364.11 61.3473C364.037 59.5801 364.146 58.1954 364.85 56.5222C365.95 53.9026 366.477 51.0711 365.344 48.3836C364.82 47.1377 363.363 46.0228 363.094 44.7191C362.82 43.3936 363.937 42.0024 363.95 40.6387C363.968 38.8148 362.533 37.3465 362.776 35.5196C362.979 33.9921 363.871 32.5763 364.121 31.0341C364.599 28.0817 363.969 25.1625 362.496 22.592C361.554 20.9482 358.971 22.4688 359.919 24.1149L359.916 24.1206Z" fill="#F2911D"/>
<path d="M341.211 94.6493C340.989 91.4519 340.992 88.2653 341.218 85.0619C341.35 83.1624 338.366 83.2061 338.231 85.0975C338.005 88.3009 338.002 91.4875 338.224 94.6849C338.355 96.5703 341.343 96.5485 341.211 94.6493Z" fill="#F2911D"/>
<path d="M340.551 83.3429C339.003 80.6891 338.5 77.5886 339.61 74.6406C340.719 71.6927 343.153 70.1007 345.79 68.7454C347.504 67.8664 345.995 65.3425 344.284 66.2158C340.918 67.9388 338.036 70.2536 336.736 73.8884C335.411 77.5804 336.051 81.5479 337.978 84.865C338.929 86.4982 341.505 84.9842 340.551 83.3429Z" fill="#F2911D"/>
<path d="M346.427 68.6124C348.071 66.3621 347.852 63.4624 347.85 60.8456C347.853 58.9484 344.871 58.9784 344.866 60.8813C344.867 62.9748 345.165 65.3563 343.847 67.1556C342.718 68.7026 345.303 70.148 346.427 68.6124Z" fill="#F2911D"/>
<path d="M347.576 59.9726C343.981 56.192 347.961 48.2903 352.371 46.724C354.172 46.0819 353.396 43.2457 351.58 43.8888C344.997 46.2277 340.245 56.5841 345.473 62.0876C346.782 63.464 348.885 61.3491 347.576 59.9726Z" fill="#F2911D"/>
<path d="M352.112 47.1161C353.792 46.9205 355.299 46.2923 355.528 44.4345C355.797 42.2775 354.429 40.0721 356.758 38.5849C358.376 37.5525 356.877 35.0193 355.251 36.055C353.929 36.899 352.907 38.0996 352.508 39.6271C352.296 40.4457 352.296 41.2705 352.389 42.0994C352.463 42.7664 353 44.0574 352.114 44.16C350.228 44.3794 350.209 47.3285 352.115 47.1104L352.112 47.1161Z" fill="#F2911D"/>
<path d="M357.18 35.945C356.785 33.7333 356.352 31.3586 356.991 29.1382C357.596 27.0311 359.271 25.4328 360.789 23.9182C362.147 22.5597 360.042 20.5045 358.679 21.8607C356.785 23.7522 354.878 25.7721 354.116 28.3919C353.321 31.1387 353.818 34.0288 354.3 36.7652C354.627 38.6277 357.498 37.7971 357.172 35.9483L357.18 35.945Z" fill="#F2911D"/>
</g>
<path d="M332.689 95.0292L316.302 101.643L315.602 107.94L389.694 102.729L415.415 114.489L417.53 110.273L391.281 91.427L332.689 95.0292Z" fill="#6D170D"/>
<path d="M319.205 99.3324C318.785 98.3635 322.57 97.0715 322.702 91.7927C322.834 86.5139 318.053 85.5971 317.632 84.487C317.209 83.3826 319.881 83.0735 319.595 80.4353C319.309 77.7971 316.991 77.2709 316.991 77.2709C316.991 77.2709 318.328 76.144 318.324 74.3381C318.32 72.5322 317.337 72.6827 317.337 72.6827C317.337 72.6827 316.492 71.8562 316.208 70.0572C316.137 69.6192 316.072 69.2777 316.006 69.0028C315.997 68.865 315.982 68.7248 315.973 68.5869C315.964 68.402 315.948 68.201 315.837 68.0486C315.522 67.6121 315.339 67.8195 315.234 68.2125C315.124 68.4699 314.958 69.0058 314.795 70.0733C314.513 71.8838 313.671 72.722 313.671 72.722C313.671 72.722 312.684 72.5958 312.688 74.4017C312.692 76.2076 314.026 77.2998 314.026 77.2998C314.026 77.2998 311.711 77.8816 311.428 80.5232C311.151 83.1672 313.823 83.415 313.403 84.5321C312.983 85.6492 308.21 86.6737 308.356 91.9513C308.502 97.2289 312.3 98.4375 311.879 99.4134C311.464 100.392 307.387 101.545 307.387 101.545L307.394 104.6C307.394 104.6 308.239 105.842 309.221 106.107C310.204 106.372 309.937 115.265 309.937 115.265L314.852 115.21L316.259 115.192L321.175 115.137C321.175 115.137 320.878 106.25 321.866 105.961C322.848 105.669 323.691 104.415 323.691 104.415L323.683 101.36C323.683 101.36 319.608 100.294 319.185 99.3311L319.205 99.3324Z" fill="black"/>
<path d="M391.523 98.2147C391.103 97.2458 394.888 95.9538 395.02 90.675C395.152 85.3962 390.372 84.4794 389.951 83.3693C389.527 82.2649 392.199 81.9558 391.913 79.3176C391.627 76.6794 389.31 76.1533 389.31 76.1533C389.31 76.1533 390.646 75.0263 390.642 73.2204C390.638 71.4145 389.655 71.565 389.655 71.565C389.655 71.565 388.81 70.7385 388.526 68.9395C388.455 68.5015 388.391 68.16 388.325 67.8851C388.316 67.7473 388.301 67.6071 388.292 67.4693C388.282 67.2844 388.266 67.0833 388.155 66.9309C387.84 66.4944 387.658 66.7019 387.552 67.0948C387.443 67.3522 387.276 67.8881 387.114 68.9557C386.832 70.7662 385.99 71.6043 385.99 71.6043C385.99 71.6043 385.003 71.4781 385.007 73.284C385.011 75.0899 386.345 76.1821 386.345 76.1821C386.345 76.1821 384.03 76.7639 383.747 79.4056C383.469 82.0496 386.142 82.2973 385.722 83.4144C385.302 84.5315 380.529 85.5561 380.674 90.8337C380.82 96.1112 384.619 97.3198 384.198 98.2957C383.783 99.2739 379.705 100.427 379.705 100.427L379.713 103.482C379.713 103.482 380.557 104.724 381.54 104.989C382.522 105.254 382.255 114.147 382.255 114.147L387.171 114.093L388.577 114.074L393.493 114.02C393.493 114.02 393.196 105.133 394.184 104.843C395.166 104.551 396.009 103.298 396.009 103.298L396.001 100.243C396.001 100.243 391.926 99.1766 391.504 98.2134L391.523 98.2147Z" fill="black"/>
<path d="M298.036 115.132L309.358 124.798L395.623 120.584L414.304 131.142L422.216 125.731L397.87 111.181L298.036 115.132Z" fill="#F2911D"/>
<path d="M383.258 119.149L383.405 219.988L393.799 219.866L393.656 119.036" fill="#F2911D"/>
<path d="M309.381 121.995L309.532 219.24L302.763 221.825L311.24 227.024L393.914 226.09L393.902 219.681L317.998 219.146L319.537 121.882" fill="#F2911D"/>
<path d="M342.18 221.652L342.143 200.759L365.023 200.503L365.057 223.063" fill="#F2911D"/>
<path d="M346.631 220.197L346.607 205.441L360.594 205.288L360.351 219.33" fill="black"/>
<path d="M353.073 131.741L353.074 131.707C353.004 131.712 352.94 131.72 352.876 131.728C352.811 131.721 352.746 131.715 352.672 131.712L352.672 131.745C338.057 133.244 339.984 147.157 339.984 147.157L340.03 175.532L352.741 175.389L353.143 175.385L365.854 175.242L365.809 146.867C365.809 146.867 367.69 132.916 353.071 131.746L353.073 131.741Z" fill="#F2911D"/>
<path d="M353.223 136.473L353.224 136.44C353.182 136.443 353.138 136.452 353.088 136.458C353.042 136.453 352.997 136.448 352.952 136.443L352.951 136.477C343.183 137.739 344.475 149.744 344.475 149.744L344.511 174.223L353.005 174.129L353.271 174.123L361.765 174.028L361.729 149.549C361.729 149.549 362.981 137.516 353.209 136.474L353.223 136.473Z" fill="black"/>
<path d="M336.721 172.758C336.721 172.758 336.843 178.202 344.56 179.518C352.277 180.833 362.23 179.665 364.738 177.886C367.248 176.101 370.071 172.38 370.071 172.38L336.727 172.761L336.721 172.758Z" fill="#F2911D"/>
<path d="M400.979 174.075C400.979 174.075 400.831 134.799 403.451 135.153C406.971 135.631 406.26 135.395 406.828 137.893C407.39 140.389 406.88 174.958 406.88 174.958L400.979 174.075Z" fill="#F2911D"/>
<path d="M402.789 176.304C402.789 176.304 402.672 141.751 404.543 142.069C407.05 142.498 406.543 142.291 406.95 144.483C407.356 146.679 406.995 177.088 406.995 177.088L402.792 176.298L402.789 176.304Z" fill="black"/>
<path d="M399.739 177.087C398.622 175.939 398.351 174.722 401.289 174.332C402.068 174.224 409.319 175.565 409.414 176.015C409.729 177.546 408.584 179.137 407.089 179.683C405.596 180.223 403.904 179.872 402.526 179.116C401.727 178.677 400.522 177.898 399.739 177.087Z" fill="#F2911D"/>
<path d="M228.099 34.6157C230.531 28.6877 234.244 23.2837 238.902 18.8814C237.256 22.7242 235.385 26.4625 233.298 30.0766C236.661 26.203 240.939 23.1246 245.679 21.1528C243.19 24.4371 240.488 27.5722 237.602 30.5169C243.206 26.8107 250.816 26.3654 256.812 29.3909C253.942 30.0524 251.073 30.714 248.203 31.3756C253.395 33.1552 258.596 34.9404 263.787 36.72C259.662 35.9594 255.543 35.1968 251.418 34.4363C256.663 36.7876 261.222 40.644 264.427 45.4248C260.722 44.0148 257.322 41.8046 254.516 39.006C259.53 43.203 263.8 48.2928 267.047 53.9705C263.275 52.1245 259.854 49.5567 257.021 46.4432C260.847 50.2152 263.768 54.8905 265.477 59.973C262.8 57.503 260.521 54.6046 258.744 51.423C261.73 55.9733 263.604 61.2427 264.171 66.656C262.215 62.8699 260.252 59.0859 258.294 55.2921C261.512 62.0924 262.894 69.7477 262.235 77.2401C260.548 71.4084 258.852 65.5711 257.166 59.7395C258.76 64.6131 259.553 69.7595 259.49 74.8873C254.53 62.6916 248.464 49.3304 236.333 44.2084C239.013 47.9243 241.68 51.652 244.339 55.3817C241.252 51.8739 237.76 48.7309 233.947 46.0284C236.041 47.8621 237.849 50.0198 239.288 52.4003C236 50.9776 232.992 48.902 230.509 46.3223C227.963 48.1934 226.207 51.0997 225.741 54.2301C232.787 53.9607 239.906 55.7852 245.954 59.4077C243.566 59.3704 241.184 59.3235 238.796 59.2862C244.12 60.8818 248.932 64.1419 252.393 68.4908C249.308 66.9312 246.231 65.3694 243.146 63.8098C248.258 67.8813 252.849 72.5962 256.775 77.8195C253.794 75.5384 250.821 73.2552 247.84 70.9741C252.297 74.7587 255.899 79.5406 258.308 84.8648C256.006 82.5587 253.705 80.2604 251.395 77.9564C255.103 82.0245 257.755 87.0525 259.009 92.4136C256.686 90.2452 254.768 87.6464 253.375 84.7911C255.42 90.2956 256.961 95.9846 257.963 101.76C256.398 98.3233 254.839 94.8769 253.274 91.4402C255.584 96.8242 256.516 102.8 255.941 108.635C254.264 105.212 253.09 101.538 252.446 97.7804C253.662 102.657 253.741 107.821 252.696 112.733C250.614 106.595 249.766 100.043 250.213 93.5734C250.732 98.1904 250.543 102.881 249.676 107.44C248.418 100.833 247.159 94.2264 245.909 87.6174C246.41 91.0585 245.897 94.6307 244.459 97.7987C243.103 91.1354 242.271 84.3646 241.977 77.5654C242.378 81.4047 242.176 85.3064 241.373 89.0886C239.565 82.34 238.506 75.399 238.213 68.4179C237.985 72.1614 237.758 75.9049 237.529 79.6406C236.463 74.4602 235.389 69.2818 234.323 64.1014C234.019 67.9893 233.717 71.885 233.413 75.7729C231.83 70.4502 230.245 65.1199 228.654 59.7993C229.167 63.0718 229.679 66.3366 230.192 69.6091C227.906 65.8209 226.217 61.6743 225.196 57.3734C225.652 60.4302 226.116 63.4849 226.569 66.534C224.221 63.8109 222.169 60.8351 220.464 57.6755C221.302 61.0509 222.148 64.4242 222.986 67.7996C220.741 65.5197 218.74 62.9841 217.046 60.2674C219.029 66.0031 219.338 72.3029 217.93 78.204C216.888 74.3465 215.839 70.491 214.797 66.6334C216.733 72.2577 217.906 78.1445 218.265 84.0758C216.1 80.8659 214.364 77.376 213.124 73.7036C215.112 79.9829 217.093 86.2643 219.081 92.5436C216.651 88.7442 214.221 84.9448 211.791 81.1454C213.642 87.8081 215.778 94.3945 218.199 100.872C216.139 97.1878 214.078 93.5041 212.008 89.8148C214.826 96.202 216.956 102.889 218.335 109.728C215.279 105.997 213.172 101.492 212.274 96.7537C212.734 100.784 213.195 104.813 213.655 108.843C210.138 103.543 208.067 97.2946 207.711 90.9414C208.057 94.6385 207.208 98.4331 205.314 101.624C204.627 95.888 204.869 90.0432 206.02 84.3844C205.051 86.9312 203.669 89.3243 201.938 91.4313C201.202 86.311 201.75 81.0203 203.519 76.1616C203.277 78.8607 202.007 81.4551 200.026 83.307C200.905 77.9603 201.784 72.6137 202.671 67.2649C200.878 68.6455 199.094 70.0317 197.301 71.4122C198.986 67.1625 201.577 63.2728 204.861 60.0893C203.328 61.4248 201.431 62.3292 199.431 62.6918C203.288 58.4713 208.209 55.237 213.614 53.3758C211.392 51.7088 209.501 49.5816 208.112 47.1711C207.046 49.2321 205.73 51.1617 204.206 52.8995C203.822 50.6986 203.449 48.5032 203.065 46.3023C202.796 49.0578 201.857 51.7454 200.331 54.0617C199.494 51.5859 199.088 48.9616 199.141 46.3547C198.745 50.548 198.342 54.7432 197.946 58.9365C196.836 56.5504 196.012 54.0299 195.495 51.4519C196.136 55.8463 195.808 60.3847 194.536 64.6391L192.613 57.5829C192.765 62.4963 192.908 67.404 193.06 72.3174C192.145 69.5488 191.239 66.7859 190.324 64.0174C190.858 68.7541 190.991 73.5323 190.721 78.2864C190.019 75.6671 189.315 73.0401 188.613 70.4208C188.872 74.3147 188.393 78.2579 187.219 81.9825C186.454 78.571 186.147 75.0532 186.301 71.5605C186.233 75.311 184.815 79.0184 182.385 81.8742C182.931 75.0067 184.897 68.2623 188.103 62.1685C186.378 65.3142 183.878 68.0319 180.887 69.9975C181.981 65.7906 183.848 61.7893 186.358 58.2434C185.133 60.2973 183.106 61.8559 180.813 62.5116C182.818 57.7303 186.242 53.5597 190.539 50.6744C188.339 52.0482 185.819 52.9051 183.246 53.1651C186.191 48.9 190.568 45.638 195.507 44.042C193.604 43.809 191.692 43.5781 189.789 43.345C192.222 42.4122 194.663 41.4774 197.097 40.5446C195.353 40.9705 193.38 40.0789 192.53 38.5068C197.802 37.5978 203.412 38.8442 207.793 41.9143C206.758 40.6065 205.716 39.3084 204.681 38.0006C206.855 38.1033 208.94 39.32 210.1 41.1558C209.972 37.9948 206.934 35.5638 203.81 35.0301C200.687 34.4965 197.515 35.3875 194.475 36.2763C195.337 34.2537 196.824 32.501 198.669 31.3131C195.792 33.24 192.72 34.8723 189.517 36.1682C190.016 34.3335 190.819 32.5827 191.885 31.0171C189.325 34.8656 186.392 38.4669 183.145 41.7562C183.687 39.0019 184.796 36.3599 186.37 34.0389C184.089 37.1437 181.076 39.7017 177.636 41.4407C178.87 39.1119 180.517 37.0026 182.463 35.2344C179.979 37.4276 176.893 38.915 173.629 39.4922C175.231 37.3043 177.264 35.4302 179.585 34.0157C176.637 35.7387 173.246 36.7051 169.833 36.7857C173.141 34.4046 176.821 32.5435 180.706 31.2961C177.182 32.6283 173.276 32.9649 169.58 32.2377C174.907 29.7782 180.524 27.9348 186.273 26.774C185.134 27.36 183.531 26.5841 183.275 25.3232C186.406 24.22 189.961 24.3575 192.992 25.7169C190.781 23.9974 188.579 22.2836 186.368 20.5641C190.334 20.7896 194.235 22.0066 197.617 24.0894C195.856 23.0337 194.487 21.3446 193.81 19.4039C197.641 20.5738 201.188 22.6867 204.039 25.4982C202.68 24.0952 201.523 22.4895 200.614 20.7598C203.879 23.0226 206.84 25.7219 209.394 28.7531C208.282 27.1602 207.597 25.2797 207.425 23.344C210.418 25.6714 212.779 28.8122 214.187 32.3405C214.092 30.0128 213.998 27.6928 213.903 25.3651C216.374 31.4738 217.995 37.9256 218.701 44.4741C218.112 41.6265 218.295 38.6132 219.241 35.8578C221.044 39.4124 221.865 43.4613 221.568 47.4381C221.61 45.3461 221.625 43.2448 221.78 41.1721C222.022 42.2302 222.845 43.083 223.241 43.9431C224.64 41.6773 224.398 38.3074 224.821 35.6343C225.613 30.6412 227.023 25.4249 229.6 21.0518C229.92 25.1111 229.649 30.7571 228.073 34.5813L228.099 34.6157Z" fill="#B1CF6F"/>
<path d="M255.407 163.646C261.229 173.357 268.762 182.303 278.412 188.396C283.183 191.411 288.397 193.672 293.872 195.062C302.44 197.241 302.923 194.544 306.9 187.352C307.339 186.557 307.789 185.71 307.712 184.806C307.539 182.68 304.883 181.922 302.782 181.536C283.451 178.021 268.627 162.292 258.29 145.592C249.396 131.23 242.774 115.607 237.252 99.6806C234.48 91.6791 231.988 83.5782 229.597 75.4581C228.869 72.9862 226.838 57.4872 224.512 56.6654C222.414 55.9229 220.353 58.8944 219.566 60.9796C218.787 63.0628 219.135 65.3804 219.524 67.5717C225.492 101.428 237.714 134.162 255.397 163.64L255.407 163.646Z" fill="#6D170D"/>
<path d="M228.224 67.4697C224.838 68.3771 221.357 66.3673 220.449 62.9805C219.542 59.5938 221.551 56.1126 224.938 55.2051C228.325 54.2977 231.806 56.3075 232.714 59.6943C233.621 63.081 231.611 66.5622 228.224 67.4697Z" fill="#F7A81A"/>
<path d="M217.915 64.9232C214.975 65.711 211.953 63.9662 211.165 61.0262C210.378 58.0862 212.122 55.0643 215.062 54.2765C218.002 53.4887 221.024 55.2334 221.812 58.1735C222.6 61.1135 220.855 64.1354 217.915 64.9232Z" fill="#F7A81A"/>
<path d="M222.079 75.2264C219.139 76.0142 216.117 74.2695 215.329 71.3295C214.541 68.3895 216.286 65.3675 219.226 64.5797C222.166 63.7919 225.188 65.5367 225.976 68.4767C226.763 71.4167 225.019 74.4387 222.079 75.2264Z" fill="#F7A81A"/>
<path d="M528.421 243.366C525.989 237.438 522.276 232.034 517.618 227.632C519.264 231.475 521.135 235.213 523.222 238.827C519.859 234.954 515.581 231.875 510.841 229.903C513.33 233.188 516.032 236.323 518.918 239.267C513.313 235.561 505.704 235.116 499.708 238.141C502.578 238.803 505.447 239.464 508.317 240.126C503.125 241.906 497.924 243.691 492.732 245.47C496.858 244.71 500.976 243.947 505.102 243.187C499.857 245.538 495.298 249.395 492.093 254.175C495.798 252.765 499.198 250.555 502.003 247.756C496.99 251.953 492.72 257.043 489.473 262.721C493.245 260.875 496.666 258.307 499.499 255.194C495.672 258.966 492.752 263.641 491.043 268.724C493.72 266.254 495.999 263.355 497.776 260.173C494.79 264.724 492.916 269.993 492.349 275.406C494.305 271.62 496.268 267.836 498.226 264.043C495.008 270.843 493.626 278.498 494.285 285.991C495.972 280.159 497.668 274.322 499.354 268.49C497.76 273.364 496.967 278.51 497.03 283.638C501.99 271.442 508.055 258.081 520.187 252.959C517.507 256.675 514.84 260.402 512.181 264.132C515.268 260.624 518.76 257.481 522.572 254.779C520.479 256.613 518.671 258.77 517.232 261.151C520.52 259.728 523.528 257.652 526.011 255.073C528.557 256.944 530.313 259.85 530.779 262.981C523.733 262.711 516.614 264.536 510.565 268.158C512.953 268.121 515.336 268.074 517.724 268.037C512.4 269.632 507.588 272.892 504.127 277.241C507.212 275.682 510.289 274.12 513.374 272.56C508.262 276.632 503.671 281.347 499.745 286.57C502.726 284.289 505.699 282.006 508.68 279.725C504.223 283.509 500.621 288.291 498.212 293.615C500.514 291.309 502.815 289.011 505.125 286.707C501.417 290.775 498.765 295.803 497.51 301.164C499.834 298.996 501.752 296.397 503.145 293.542C501.1 299.046 499.559 304.735 498.557 310.511C500.121 307.074 501.681 303.627 503.246 300.191C500.936 305.575 500.004 311.551 500.579 317.385C502.256 313.962 503.43 310.289 504.073 306.531C502.858 311.407 502.779 316.571 503.824 321.483C505.906 315.345 506.754 308.793 506.307 302.324C505.788 306.941 505.976 311.632 506.844 316.191C508.102 309.584 509.361 302.977 510.611 296.368C510.11 299.809 510.623 303.381 512.061 306.549C513.417 299.886 514.249 293.115 514.543 286.316C514.142 290.155 514.343 294.057 515.147 297.839C516.955 291.091 518.014 284.149 518.307 277.168C518.534 280.912 518.762 284.655 518.991 288.391C520.057 283.211 521.131 278.032 522.197 272.852C522.501 276.74 522.803 280.635 523.107 284.523C524.69 279.201 526.275 273.87 527.866 268.55C527.353 271.822 526.841 275.087 526.328 278.36C528.614 274.571 530.303 270.425 531.324 266.124C530.868 269.181 530.404 272.235 529.951 275.285C532.299 272.561 534.351 269.586 536.056 266.426C535.218 269.801 534.372 273.175 533.534 276.55C535.779 274.27 537.78 271.735 539.474 269.018C537.491 274.754 537.182 281.053 538.59 286.955C539.632 283.097 540.681 279.241 541.723 275.384C539.787 281.008 538.614 286.895 538.255 292.826C540.42 289.616 542.156 286.127 543.396 282.454C541.408 288.733 539.427 295.015 537.439 301.294C539.869 297.495 542.299 293.695 544.729 289.896C542.878 296.559 540.742 303.145 538.321 309.622C540.381 305.938 542.442 302.255 544.512 298.565C541.694 304.952 539.564 311.64 538.185 318.478C541.241 314.748 543.348 310.243 544.246 305.504C543.786 309.534 543.325 313.564 542.865 317.594C546.382 312.294 548.453 306.045 548.809 299.692C548.462 303.389 549.312 307.184 551.206 310.375C551.893 304.638 551.651 298.794 550.5 293.135C551.469 295.682 552.851 298.075 554.582 300.182C555.318 295.062 554.77 289.771 553 284.912C553.243 287.611 554.513 290.206 556.494 292.057C555.615 286.711 554.736 281.364 553.849 276.015C555.642 277.396 557.426 278.782 559.219 280.163C557.534 275.913 554.943 272.023 551.659 268.84C553.192 270.175 555.089 271.08 557.089 271.442C553.232 267.222 548.311 263.987 542.906 262.126C545.128 260.459 547.019 258.332 548.408 255.922C549.474 257.983 550.79 259.912 552.314 261.65C552.698 259.449 553.071 257.254 553.454 255.053C553.723 257.808 554.663 260.496 556.189 262.812C557.026 260.336 557.432 257.712 557.379 255.105C557.775 259.298 558.178 263.494 558.574 267.687C559.684 265.301 560.508 262.78 561.025 260.202C560.384 264.597 560.712 269.135 561.983 273.39L563.907 266.333C563.755 271.247 563.612 276.155 563.46 281.068C564.375 278.299 565.281 275.536 566.196 272.768C565.662 277.505 565.529 282.283 565.799 287.037C566.501 284.418 567.205 281.791 567.907 279.171C567.648 283.065 568.127 287.008 569.301 290.733C570.066 287.322 570.373 283.804 570.219 280.311C570.287 284.061 571.705 287.769 574.135 290.625C573.589 283.757 571.623 277.013 568.417 270.919C570.142 274.065 572.642 276.782 575.633 278.748C574.539 274.541 572.672 270.54 570.162 266.994C571.387 269.048 573.414 270.606 575.707 271.262C573.702 266.481 570.278 262.31 565.981 259.425C568.181 260.799 570.701 261.656 573.274 261.916C570.329 257.65 565.952 254.389 561.012 252.793C562.916 252.56 564.828 252.329 566.731 252.096C564.298 251.163 561.856 250.228 559.423 249.295C561.167 249.721 563.139 248.829 563.99 247.257C558.718 246.348 553.108 247.595 548.726 250.665C549.762 249.357 550.804 248.059 551.839 246.751C549.665 246.854 547.58 248.07 546.42 249.906C546.548 246.745 549.586 244.314 552.71 243.781C555.833 243.247 559.005 244.138 562.045 245.027C561.183 243.004 559.696 241.252 557.851 240.064C560.728 241.991 563.8 243.623 567.003 244.919C566.504 243.084 565.701 241.333 564.635 239.768C567.195 243.616 570.127 247.217 573.375 250.507C572.833 247.752 571.724 245.11 570.15 242.789C572.431 245.894 575.444 248.452 578.884 250.191C577.65 247.862 576.002 245.753 574.057 243.985C576.541 246.178 579.627 247.665 582.89 248.243C581.289 246.055 579.256 244.181 576.935 242.766C579.883 244.489 583.274 245.456 586.687 245.536C583.378 243.155 579.699 241.294 575.814 240.047C579.338 241.379 583.244 241.715 586.94 240.988C581.613 238.529 575.996 236.685 570.247 235.524C571.386 236.111 572.989 235.335 573.245 234.074C570.114 232.97 566.559 233.108 563.528 234.467C565.739 232.748 567.941 231.034 570.152 229.315C566.186 229.54 562.285 230.757 558.903 232.84C560.664 231.784 562.033 230.095 562.71 228.154C558.879 229.324 555.332 231.437 552.481 234.249C553.84 232.846 554.996 231.24 555.906 229.51C552.641 231.773 549.68 234.472 547.125 237.504C548.238 235.911 548.923 234.03 549.095 232.095C546.102 234.422 543.741 237.563 542.333 241.091C542.428 238.763 542.521 236.443 542.617 234.116C540.146 240.224 538.524 246.676 537.818 253.225C538.408 250.377 538.225 247.364 537.279 244.608C535.476 248.163 534.655 252.212 534.952 256.189C534.91 254.097 534.895 251.995 534.74 249.923C534.498 250.981 533.675 251.834 533.279 252.694C531.88 250.428 532.122 247.058 531.699 244.385C530.907 239.392 529.497 234.175 526.92 229.802C526.6 233.862 526.871 239.508 528.447 243.332L528.421 243.366Z" fill="#B1CF6F"/>
<path d="M501.113 372.396C495.291 382.107 487.758 391.053 478.108 397.146C473.337 400.161 468.124 402.422 462.649 403.812C454.08 405.991 453.597 403.294 449.621 396.102C449.181 395.307 448.731 394.46 448.809 393.556C448.982 391.43 451.637 390.672 453.739 390.286C473.069 386.771 487.894 371.042 498.231 354.342C507.124 339.98 513.746 324.357 519.269 308.431C522.04 300.429 524.533 292.328 526.923 284.208C527.652 281.736 529.683 266.237 532.008 265.415C534.106 264.673 536.167 267.644 536.954 269.73C537.734 271.813 537.385 274.13 536.996 276.322C531.029 310.178 518.807 342.912 501.123 372.39L501.113 372.396Z" fill="#6D170D"/>
<path d="M528.296 276.22C531.683 277.128 535.164 275.118 536.071 271.731C536.979 268.344 534.969 264.863 531.582 263.956C528.195 263.048 524.714 265.058 523.807 268.445C522.899 271.832 524.909 275.313 528.296 276.22Z" fill="#F7A81A"/>
<path d="M538.606 273.673C541.546 274.461 544.568 272.716 545.356 269.776C546.144 266.836 544.399 263.814 541.459 263.026C538.519 262.239 535.497 263.983 534.709 266.923C533.921 269.863 535.666 272.885 538.606 273.673Z" fill="#F7A81A"/>
<path d="M534.441 283.977C537.381 284.765 540.403 283.02 541.191 280.08C541.979 277.14 540.234 274.118 537.294 273.33C534.354 272.542 531.332 274.287 530.544 277.227C529.756 280.167 531.501 283.189 534.441 283.977Z" fill="#F7A81A"/>
<path d="M334.548 407.312L369.212 407.306L369.173 200.173L334.509 200.18L334.548 407.312Z" fill="#2C5729"/>
<path d="M338.699 218.506L369.178 218.5L369.177 212.421L338.698 212.426L338.699 218.506Z" fill="#FFEEC1"/>
<path d="M338.695 206.253L369.175 206.248L369.173 200.168L338.694 200.174L338.695 206.253Z" fill="#FFEEC1"/>
<path d="M338.849 236.811L368.715 236.805L368.714 231.724L338.848 231.729L338.849 236.811Z" fill="#FFEEC1"/>
<path d="M343.351 406.175L364.409 406.171L364.398 347.967L343.339 347.971L343.351 406.175Z" fill="black"/>
<path d="M346.755 288.031L360.819 288.029L360.809 239.814L346.746 239.817L346.755 288.031Z" fill="black"/>
<path d="M346.754 260.148L360.817 260.146L360.817 256.932L346.753 256.934L346.754 260.148Z" fill="#FFEEC1"/>
<path d="M344.651 290.529L362.936 290.526L362.935 288.035L344.651 288.039L344.651 290.529Z" fill="#FFEEC1"/>
<path d="M346.765 295.098L360.829 295.095L360.828 289.281L346.764 289.284L346.765 295.098Z" fill="#FFEEC1"/>
<path d="M349.613 311.128L357.982 311.126L357.979 294.82L349.61 294.822L349.613 311.128Z" fill="#FFEEC1"/>
<path d="M352.255 320.096L355.661 320.095L355.657 299.733L352.251 299.733L352.255 320.096Z" fill="#FFEEC1"/>
<path d="M343.336 343.941L364.395 343.937L364.393 335.843L343.335 335.847L343.336 343.941Z" fill="black"/>
<path d="M282.266 200.192L247.602 200.198L247.642 407.331L282.306 407.324L282.266 200.192Z" fill="#2C5729"/>
<path d="M278.076 212.444L247.596 212.45L247.597 218.53L278.077 218.524L278.076 212.444Z" fill="#FFEEC1"/>
<path d="M278.076 200.188L247.596 200.193L247.597 206.273L278.077 206.267L278.076 200.188Z" fill="#FFEEC1"/>
<path d="M277.937 231.744L248.071 231.75L248.072 236.831L277.938 236.826L277.937 231.744Z" fill="#FFEEC1"/>
<path d="M273.485 347.985L252.427 347.989L252.438 406.192L273.496 406.188L273.485 347.985Z" fill="black"/>
<path d="M270.034 239.832L255.97 239.835L255.979 288.05L270.043 288.047L270.034 239.832Z" fill="black"/>
<path d="M270.037 256.957L255.974 256.96L255.975 260.174L270.038 260.171L270.037 256.957Z" fill="#FFEEC1"/>
<path d="M272.156 288.048L253.871 288.051L253.872 290.542L272.156 290.538L272.156 288.048Z" fill="#FFEEC1"/>
<path d="M270.044 289.299L255.981 289.301L255.982 295.115L270.045 295.113L270.044 289.299Z" fill="#FFEEC1"/>
<path d="M267.204 294.844L258.836 294.845L258.839 311.152L267.207 311.15L267.204 294.844Z" fill="#FFEEC1"/>
<path d="M264.561 299.75L261.155 299.75L261.159 320.113L264.565 320.112L264.561 299.75Z" fill="#FFEEC1"/>
<path d="M273.485 335.865L252.427 335.869L252.429 343.962L273.487 343.958L273.485 335.865Z" fill="black"/>
<path d="M326.926 187.199L308.678 174.195L290.435 187.2L278.202 187.209L278.202 210.771L308.685 210.764L339.176 210.759L339.168 187.194L326.926 187.199Z" fill="#96C886"/>
<path d="M338.902 212.704L277.933 212.715L277.97 406.187L338.939 406.176L338.902 212.704Z" fill="#96C886"/>
<path d="M328.581 344.258L288.295 344.266L288.307 406.177L328.592 406.17L328.581 344.258Z" fill="#FFEEC1"/>
<path d="M328.358 341.825C328.498 340.94 328.574 340.045 328.571 339.127C328.57 328.884 319.553 320.584 308.43 320.589C297.306 320.594 288.294 328.892 288.294 339.135C288.297 340.054 288.372 340.955 288.51 341.837L328.367 341.828L328.358 341.825Z" fill="#FFEEC1"/>
<path d="M322.921 339.906C323.025 339.268 323.077 338.615 323.076 337.946C323.072 330.501 316.522 324.466 308.428 324.468C300.343 324.472 293.785 330.503 293.787 337.956C293.788 338.625 293.84 339.281 293.947 339.915L322.921 339.906Z" fill="black"/>
<path d="M324.774 239.267L292.335 239.273L292.344 288.321L324.783 288.315L324.774 239.267Z" fill="black"/>
<path d="M287.258 239.276L281.005 239.277L281.014 288.325L287.268 288.324L287.258 239.276Z" fill="black"/>
<path d="M336.108 239.265L329.855 239.266L329.864 288.314L336.118 288.313L336.108 239.265Z" fill="black"/>
<path d="M338.9 228.339L277.932 228.351L277.933 233.432L338.901 233.421L338.9 228.339Z" fill="#FFEEC1"/>
<path d="M338.902 210.158L277.933 210.169L277.934 215.251L338.902 215.239L338.902 210.158Z" fill="#FFEEC1"/>
<path d="M346.914 205.182L271.681 205.196L271.682 213.308L346.916 213.294L346.914 205.182Z" fill="#FFEEC1"/>
<path d="M338.913 288.318L277.945 288.33L277.946 293.411L338.914 293.4L338.913 288.318Z" fill="#FFEEC1"/>
<path d="M338.918 308.086L277.95 308.097L277.951 313.179L338.919 313.167L338.918 308.086Z" fill="#FFEEC1"/>
<path d="M324.851 288.841L292.412 288.848L292.413 296.053L324.852 296.047L324.851 288.841Z" fill="#FFEEC1"/>
<path d="M297.097 291.969L292.409 291.97L292.413 310.455L297.1 310.454L297.097 291.969Z" fill="#FFEEC1"/>
<path d="M324.84 291.957L320.152 291.958L320.156 310.444L324.843 310.443L324.84 291.957Z" fill="#FFEEC1"/>
<path d="M290.853 312.352L292.413 319.191C292.413 319.191 301.791 321.225 302.181 324.466L308.429 324.468L308.424 312.351" fill="#FFEEC1"/>
<path d="M326.215 312.349L324.653 319.183C324.653 319.183 315.274 321.218 314.879 324.464L304.911 324.47L302.172 312.358" fill="#FFEEC1"/>
<path d="M328.577 339.909L288.291 339.917L288.292 344.275L328.578 344.268L328.577 339.909Z" fill="#FFEEC1"/>
<path d="M323.079 344.26L293.799 344.265L293.81 406.177L323.091 406.171L323.079 344.26Z" fill="black"/>
<path d="M324.844 257.238L292.405 257.245L292.406 260.385L324.845 260.379L324.844 257.238Z" fill="#FFEEC1"/>
<path d="M287.258 256.897L280.877 256.898L280.877 260.038L287.259 260.037L287.258 256.897Z" fill="#FFEEC1"/>
<path d="M336.167 257.241L329.785 257.243L329.786 260.383L336.168 260.382L336.167 257.241Z" fill="#FFEEC1"/>
<path d="M306.655 258.462L306.661 288.328L310.067 288.327L310.061 258.461L306.655 258.462Z" fill="#FFEEC1"/>
<path d="M288.298 389.916L276.295 389.918L276.298 406.179L288.301 406.176L288.298 389.916Z" fill="#FFEEC1"/>
<path d="M340.588 389.91L328.585 389.913L328.588 406.173L340.591 406.171L340.588 389.91Z" fill="#FFEEC1"/>
<path d="M274.094 192.203L292.057 192.204L308.561 180.639L325.37 192.191L343.19 192.188L343.188 186.531L327.412 186.533L308.525 173.557L289.983 186.54L274.091 186.546L274.094 192.203Z" fill="#FFEEC1"/>
<path d="M339.099 196.467L278.203 196.479L278.203 198.283L339.099 198.271L339.099 196.467Z" fill="#FFEEC1"/>
<path d="M324.875 201.888L292.5 201.894L292.502 210.766L324.877 210.76L324.875 201.888Z" fill="#FFEEC1"/>
<path d="M312.298 201.542C312.298 203.013 310.682 204.203 308.683 204.209C306.687 204.205 305.065 203.014 305.064 201.542C305.064 200.071 306.68 198.881 308.679 198.876C310.678 198.87 312.297 200.07 312.298 201.542Z" fill="#FFEEC1"/>
<path d="M312.298 201.542L311.637 201.545C311.634 202.07 311.354 202.56 310.824 202.956C310.298 203.343 309.533 203.602 308.681 203.606C307.821 203.607 307.065 203.353 306.532 202.964C306.001 202.567 305.716 202.081 305.719 201.556C305.723 201.032 306.003 200.542 306.532 200.146C307.059 199.758 307.824 199.5 308.675 199.496C309.536 199.495 310.291 199.749 310.825 200.137C311.356 200.535 311.641 201.021 311.637 201.545L312.298 201.542L312.958 201.538C312.954 200.591 312.429 199.756 311.655 199.181C310.872 198.603 309.824 198.272 308.689 198.267C307.55 198.271 306.504 198.609 305.722 199.178C304.941 199.747 304.414 200.584 304.418 201.531C304.422 202.478 304.947 203.313 305.721 203.888C306.504 204.466 307.552 204.798 308.687 204.802C309.826 204.798 310.872 204.461 311.654 203.891C312.435 203.322 312.962 202.485 312.958 201.538L312.298 201.542Z" fill="#96C886"/>
<path d="M159.28 143.597L171.752 130.16L199.101 141.351C199.101 141.351 228.29 410.603 227.976 407.227C227.662 403.852 151.402 406.982 151.402 406.982L159.28 143.597Z" fill="#FFEEC1"/>
<path d="M181.654 264.087L171.762 130.162L159.28 143.597L154.777 285.255" fill="#F2911D"/>
<path d="M155.35 275.221L181.655 264.087L214.366 282.051L219.411 328.446L151.85 336.153L155.35 275.221Z" fill="black"/>
<path d="M196.296 326.932L2.66797 271.442L130.95 347.656L45.6063 370.828L153.34 370.015L152.52 355.525L208.065 342.548L207.293 328.773L196.296 326.932Z" fill="#FFEEC1"/>
<path d="M207.292 328.773L359.078 309.338L357.969 316.429L223.456 365.771L220.222 346.312L203.752 343.554" fill="#FFEEC1"/>
<path d="M181.202 352.025L190.258 405.846L151.411 406.985L152.519 355.525" fill="black"/>
<path d="M208.065 342.548L334.679 320.204L224.029 364.013L208.065 342.548Z" fill="#F2911D"/>
<path d="M188.56 339.251L49.8188 295.835L136.74 348.551L84.3367 366.17L149.15 366.819L151.005 352.317L190.259 338.149" fill="#F2911D"/>
<path d="M455.297 406.768L489.888 406.644L489.147 199.963L454.557 200.087L455.297 406.768Z" fill="#DE212B"/>
<path d="M458.8 218.36L489.22 218.251L489.198 212.182L458.778 212.291L458.8 218.36Z" fill="#FFEEC1"/>
<path d="M458.75 206.139L489.169 206.03L489.148 199.961L458.728 200.07L458.75 206.139Z" fill="#FFEEC1"/>
<path d="M459.012 236.624L488.816 236.517L488.798 231.449L458.994 231.555L459.012 236.624Z" fill="#FFEEC1"/>
<path d="M464.085 405.595L485.094 405.52L484.886 347.441L463.877 347.516L464.085 405.595Z" fill="black"/>
<path d="M467.081 287.706L481.116 287.655L480.943 239.543L466.909 239.593L467.081 287.706Z" fill="black"/>
<path d="M466.986 259.882L481.021 259.832L481.009 256.626L466.974 256.677L466.986 259.882Z" fill="#FFEEC1"/>
<path d="M464.99 290.199L483.23 290.134L483.221 287.647L464.982 287.712L464.99 290.199Z" fill="#FFEEC1"/>
<path d="M467.111 294.75L481.146 294.699L481.125 288.896L467.091 288.946L467.111 294.75Z" fill="#FFEEC1"/>
<path d="M470.011 310.745L478.362 310.715L478.303 294.45L469.953 294.48L470.011 310.745Z" fill="#FFEEC1"/>
<path d="M472.67 319.682L476.072 319.669L475.999 299.353L472.597 299.365L472.67 319.682Z" fill="#FFEEC1"/>
<path d="M463.864 343.506L484.873 343.431L484.844 335.354L463.835 335.429L463.864 343.506Z" fill="black"/>
<path d="M402.439 200.291L367.848 200.414L368.58 407.095L403.171 406.972L402.439 200.291Z" fill="#DE212B"/>
<path d="M398.308 212.517L367.889 212.625L367.91 218.694L398.33 218.586L398.308 212.517Z" fill="#FFEEC1"/>
<path d="M398.262 200.306L367.843 200.414L367.864 206.483L398.284 206.375L398.262 200.306Z" fill="#FFEEC1"/>
<path d="M398.227 231.786L368.423 231.892L368.441 236.961L398.245 236.855L398.227 231.786Z" fill="#FFEEC1"/>
<path d="M394.173 347.785L373.164 347.859L373.369 405.938L394.378 405.863L394.173 347.785Z" fill="black"/>
<path d="M390.372 239.884L376.337 239.934L376.508 288.046L390.542 287.996L390.372 239.884Z" fill="black"/>
<path d="M390.428 256.97L376.394 257.02L376.405 260.225L390.44 260.175L390.428 256.97Z" fill="#FFEEC1"/>
<path d="M392.644 287.988L374.405 288.052L374.413 290.539L392.653 290.475L392.644 287.988Z" fill="#FFEEC1"/>
<path d="M390.551 289.237L376.516 289.287L376.537 295.091L390.571 295.041L390.551 289.237Z" fill="#FFEEC1"/>
<path d="M387.723 294.785L379.373 294.815L379.43 311.08L387.781 311.051L387.723 294.785Z" fill="#FFEEC1"/>
<path d="M385.117 299.688L381.716 299.7L381.788 320.017L385.189 320.004L385.117 299.688Z" fill="#FFEEC1"/>
<path d="M394.129 335.701L373.119 335.775L373.148 343.853L394.157 343.778L394.129 335.701Z" fill="black"/>
<path d="M446.959 187.16L428.71 174.249L410.549 187.288L398.341 187.328L398.425 210.845L428.835 210.736L459.252 210.628L459.168 187.111L446.959 187.16Z" fill="#EA5B86"/>
<path d="M458.991 212.585L398.16 212.8L398.844 405.848L459.675 405.633L458.991 212.585Z" fill="#EA5B86"/>
<path d="M449.118 343.888L408.928 344.031L409.147 405.81L449.337 405.668L449.118 343.888Z" fill="#FFEEC1"/>
<path d="M448.909 341.434C449.048 340.556 449.112 339.657 449.11 338.74C449.075 328.523 440.05 320.266 428.949 320.308C417.848 320.351 408.881 328.667 408.917 338.884C408.918 339.801 409.002 340.697 409.139 341.576L448.9 341.433L448.909 341.434Z" fill="#FFEEC1"/>
<path d="M443.479 339.544C443.581 338.903 443.632 338.253 443.625 337.586C443.598 330.157 437.037 324.159 428.967 324.188C420.897 324.217 414.375 330.263 414.402 337.692C414.4 338.358 414.462 339.009 414.568 339.649L443.479 339.544Z" fill="black"/>
<path d="M444.985 239.144L412.617 239.259L412.79 288.2L445.159 288.086L444.985 239.144Z" fill="black"/>
<path d="M407.545 239.271L401.305 239.293L401.479 288.234L407.718 288.212L407.545 239.271Z" fill="black"/>
<path d="M456.29 239.101L450.05 239.124L450.223 288.065L456.463 288.043L456.29 239.101Z" fill="black"/>
<path d="M458.977 210.044L398.146 210.26L398.164 215.328L458.994 215.113L458.977 210.044Z" fill="#FFEEC1"/>
<path d="M466.953 205.048L391.891 205.314L391.92 213.408L466.982 213.142L466.953 205.048Z" fill="#FFEEC1"/>
<path d="M459.255 288.033L398.424 288.248L398.442 293.317L459.273 293.101L459.255 288.033Z" fill="#FFEEC1"/>
<path d="M459.32 307.753L398.49 307.969L398.507 313.037L459.338 312.822L459.32 307.753Z" fill="#FFEEC1"/>
<path d="M445.219 288.599L412.851 288.713L412.876 295.902L445.245 295.787L445.219 288.599Z" fill="#FFEEC1"/>
<path d="M417.544 291.82L412.869 291.836L412.934 310.281L417.61 310.265L417.544 291.82Z" fill="#FFEEC1"/>
<path d="M445.231 291.716L440.555 291.732L440.621 310.177L445.296 310.161L445.231 291.716Z" fill="#FFEEC1"/>
<path d="M411.38 312.162L412.966 318.981C412.966 318.981 422.333 320.984 422.73 324.214L428.973 324.19L428.931 312.102" fill="#FFEEC1"/>
<path d="M446.674 312.03L445.135 318.856C445.135 318.856 435.781 320.923 435.409 324.153L425.468 324.189L422.699 312.111" fill="#FFEEC1"/>
<path d="M449.11 339.542L408.921 339.684L408.936 344.035L449.125 343.892L449.11 339.542Z" fill="#FFEEC1"/>
<path d="M443.638 343.908L414.415 344.011L414.634 405.791L443.857 405.687L443.638 343.908Z" fill="black"/>
<path d="M445.111 257.074L412.742 257.188L412.753 260.317L445.122 260.202L445.111 257.074Z" fill="#FFEEC1"/>
<path d="M407.605 256.84L401.237 256.863L401.248 259.991L407.616 259.969L407.605 256.84Z" fill="#FFEEC1"/>
<path d="M456.417 257.032L450.05 257.055L450.061 260.183L456.428 260.16L456.417 257.032Z" fill="#FFEEC1"/>
<path d="M426.994 258.33L427.1 288.134L430.501 288.122L430.396 258.318L426.994 258.33Z" fill="#FFEEC1"/>
<path d="M409.093 389.585L397.11 389.628L397.168 405.859L409.151 405.817L409.093 389.585Z" fill="#FFEEC1"/>
<path d="M461.274 389.402L449.291 389.444L449.348 405.676L461.331 405.633L461.274 389.402Z" fill="#FFEEC1"/>
<path d="M394.252 192.332L412.184 192.272L428.609 180.68L445.424 192.152L463.201 192.085L463.178 186.439L447.437 186.491L428.543 173.608L410.092 186.627L394.229 186.686L394.252 192.332Z" fill="#FFEEC1"/>
<path d="M459.132 196.384L398.369 196.6L398.376 198.395L459.138 198.179L459.132 196.384Z" fill="#FFEEC1"/>
<path d="M444.96 201.841L412.66 201.956L412.691 210.811L444.991 210.696L444.96 201.841Z" fill="#FFEEC1"/>
<path d="M432.413 201.524C432.415 202.987 430.806 204.186 428.815 204.191C426.824 204.196 425.202 203.013 425.2 201.55C425.198 200.087 426.807 198.888 428.799 198.883C430.79 198.878 432.411 200.061 432.413 201.524Z" fill="#FFEEC1"/>
<path d="M432.413 201.524L431.755 201.524C431.759 202.044 431.474 202.535 430.952 202.937C430.431 203.33 429.671 203.591 428.814 203.594C427.957 203.596 427.201 203.338 426.674 202.952C426.147 202.566 425.862 202.07 425.858 201.551C425.853 201.031 426.139 200.539 426.661 200.137C427.182 199.744 427.942 199.483 428.799 199.481C429.656 199.478 430.411 199.736 430.938 200.122C431.466 200.509 431.751 201.004 431.755 201.524L432.413 201.524L433.07 201.524C433.064 200.58 432.539 199.744 431.763 199.18C430.98 198.606 429.933 198.276 428.799 198.278C427.665 198.28 426.615 198.624 425.84 199.203C425.066 199.772 424.543 200.615 424.549 201.56C424.556 202.504 425.081 203.34 425.857 203.904C426.64 204.478 427.687 204.808 428.821 204.806C429.955 204.804 431.005 204.46 431.78 203.881C432.554 203.312 433.077 202.469 433.07 201.524L432.413 201.524Z" fill="#EA5B86"/>
<path d="M141.535 84.2559L140.495 100.648L125.593 104.944L140.205 109.243C140.205 109.243 130.956 124.659 131.213 123.901C131.471 123.143 144.22 114.552 144.22 114.552L150.225 124.912C150.225 124.912 150.483 112.783 151.511 112.783C152.539 112.783 163.397 111.711 163.397 111.711L151.511 104.95C151.511 104.95 162.073 96.8599 161.302 96.6064C160.532 96.3529 147.582 98.9669 147.582 98.9669L141.535 84.2559Z" fill="#FFEEC1"/>
<path d="M143.236 94.8491L142.664 103.379L134.487 105.614L142.504 107.852C142.504 107.852 137.429 115.872 137.568 115.479C137.711 115.086 144.706 110.615 144.706 110.615L148 116.006C148 116.006 148.142 109.694 148.705 109.694C149.268 109.694 155.229 109.135 155.229 109.135L148.705 105.617C148.705 105.617 154.5 101.406 154.08 101.275C153.656 101.144 146.551 102.505 146.551 102.505L143.233 94.8491H143.236Z" fill="#F2911D"/>
<path d="M574.72 153.8L573.95 165.933L562.92 169.112L573.735 172.293C573.735 172.293 566.889 183.703 567.08 183.143C567.271 182.582 576.706 176.223 576.706 176.223L581.151 183.891C581.151 183.891 581.342 174.914 582.103 174.914C582.864 174.914 590.9 174.12 590.9 174.12L582.103 169.116C582.103 169.116 589.92 163.129 589.35 162.941C588.78 162.753 579.195 164.688 579.195 164.688L574.72 153.8Z" fill="#FFEEC1"/>
<path d="M575.979 161.64L575.555 167.953L569.503 169.608L575.437 171.264C575.437 171.264 571.681 177.2 571.784 176.909C571.889 176.618 577.066 173.309 577.066 173.309L579.505 177.299C579.505 177.299 579.61 172.628 580.026 172.628C580.443 172.628 584.855 172.213 584.855 172.213L580.026 169.61C580.026 169.61 584.316 166.493 584.004 166.396C583.691 166.299 578.432 167.306 578.432 167.306L575.976 161.64H575.979Z" fill="#F2911D"/>
<path d="M529.484 195.872L534.607 200.289L539.08 192.584L537.707 200.289L543.492 202.031L537.377 203.822C537.377 203.822 541.445 212.802 540.698 211.919C539.95 211.035 535.391 206.447 535.391 206.447L529.472 211.44L532.695 205.748L523.467 202.804L532.229 200.902L529.472 195.872H529.484Z" fill="#FFEEC1"/>
<path d="M421.824 47.4216L426.947 51.8381L431.42 44.1338L430.047 51.8381L435.832 53.5801L429.716 55.3712C429.716 55.3712 433.785 64.3513 433.037 63.4681C432.29 62.5848 427.731 57.9966 427.731 57.9966L421.812 62.9896L425.035 57.2973L415.807 54.353L424.569 52.4514L421.812 47.4216H421.824Z" fill="#FFEEC1"/>
<path d="M556.24 357.231L559.661 360.124L562.648 355.078L561.732 360.124L565.595 361.266L561.511 362.439C561.511 362.439 564.228 368.321 563.729 367.743C563.229 367.164 560.185 364.159 560.185 364.159L556.231 367.429L558.384 363.701L552.221 361.772L558.073 360.526L556.231 357.231H556.24Z" fill="#FFEEC1"/>
<path d="M237.17 172.378L240.529 175.039L243.462 170.396L242.562 175.039L246.355 176.089L242.345 177.168C242.345 177.168 245.013 182.58 244.522 182.048C244.032 181.515 241.043 178.75 241.043 178.75L237.162 181.759L239.275 178.329L233.225 176.555L238.97 175.409L237.162 172.378H237.17Z" fill="#FFEEC1"/>
</svg>
