<svg width="1440" height="128" viewBox="0 0 1440 128" fill="none" xmlns="http://www.w3.org/2000/svg">
<path d="M719.5 63.5105C531.262 -79.3881 358.766 63.5105 358.766 63.5105C547.003 206.409 719.5 63.5105 719.5 63.5105Z" fill="#F5921C"/>
<path d="M645.991 63.5106C531.76 -23.1943 427.049 63.5106 427.049 63.5106C541.279 150.216 645.991 63.5106 645.991 63.5106Z" fill="#97CC87"/>
<path fill-rule="evenodd" clip-rule="evenodd" d="M428.076 78.907C426.645 78.0917 425.276 77.2137 423.876 76.3357C422.476 75.4577 421.076 74.611 419.707 73.7016C417.654 72.3219 414.823 72.9804 413.392 75.1127C411.961 77.2764 412.521 80.1614 414.637 81.6038C416.068 82.5446 417.53 83.4226 418.961 84.332C420.392 85.2414 421.823 86.1508 423.316 86.9974C425.525 88.2831 428.355 87.4991 429.631 85.2414C430.906 82.9836 430.191 80.13 428.076 78.907Z" fill="#97CC87"/>
<path fill-rule="evenodd" clip-rule="evenodd" d="M451.345 91.0428L446.896 88.9732C445.403 88.2833 443.972 87.5307 442.51 86.8095C441.421 86.245 440.177 86.2137 439.057 86.6213C437.968 86.9976 436.973 87.7816 436.382 88.9418C435.79 90.1021 435.697 91.3877 436.039 92.5166C436.413 93.6455 437.19 94.649 438.341 95.2134C439.866 95.966 441.39 96.75 442.914 97.4712L447.549 99.6035C448.7 100.168 450.007 100.105 451.096 99.6663C452.185 99.1959 453.118 98.3179 453.616 97.1263C454.113 95.9346 454.113 94.649 453.678 93.5514C453.273 92.4539 452.434 91.5445 451.345 91.0114V91.0428Z" fill="#97CC87"/>
<path fill-rule="evenodd" clip-rule="evenodd" d="M475.827 100.262C474.272 99.7601 472.716 99.2898 471.161 98.788L466.526 97.1574C465.375 96.7811 464.161 96.8439 463.104 97.3456C462.046 97.8473 461.175 98.7567 460.708 99.9797C460.242 101.203 460.304 102.488 460.802 103.586C461.299 104.683 462.202 105.593 463.415 106.032L468.237 107.725C469.854 108.258 471.503 108.76 473.121 109.262C475.578 110.077 478.16 108.54 478.845 106.032C479.529 103.523 478.16 101.014 475.858 100.262H475.827Z" fill="#97CC87"/>
<path fill-rule="evenodd" clip-rule="evenodd" d="M501.243 106.283L496.421 105.436L491.63 104.433C490.417 104.182 489.235 104.433 488.27 105.091C487.306 105.718 486.528 106.753 486.217 108.007C485.906 109.262 486.124 110.547 486.746 111.551C487.368 112.586 488.395 113.37 489.639 113.62L494.648 114.655L499.687 115.565C502.238 116.004 504.602 114.185 504.945 111.614C505.287 109.011 503.607 106.69 501.212 106.283H501.243Z" fill="#97CC87"/>
<path fill-rule="evenodd" clip-rule="evenodd" d="M527.187 108.823C525.57 108.823 523.921 108.697 522.303 108.603L519.877 108.478L517.45 108.289C516.237 108.195 515.086 108.634 514.184 109.387C513.313 110.171 512.691 111.268 512.535 112.554C512.411 113.84 512.784 115.094 513.531 116.004C514.277 116.913 515.397 117.54 516.672 117.666L519.223 117.885L521.774 118.01C523.485 118.105 525.196 118.23 526.876 118.23C529.458 118.293 531.542 116.254 531.574 113.62C531.574 111.049 529.614 108.885 527.187 108.823Z" fill="#97CC87"/>
<path fill-rule="evenodd" clip-rule="evenodd" d="M553.287 107.913L548.403 108.352C546.786 108.478 545.137 108.572 543.519 108.666C541.093 108.822 539.164 110.923 539.226 113.558C539.289 116.129 541.435 118.23 544.017 118.073C545.728 117.979 547.408 117.885 549.119 117.76L554.221 117.32C556.772 117.038 558.576 114.686 558.265 112.115C557.954 109.544 555.714 107.662 553.287 107.944V107.913Z" fill="#97CC87"/>
<path fill-rule="evenodd" clip-rule="evenodd" d="M579.076 103.649L574.286 104.683L569.464 105.624C567.068 106.063 565.42 108.446 565.824 111.018C566.228 113.589 568.593 115.345 571.144 114.875L576.152 113.903L581.161 112.805C583.649 112.209 585.174 109.669 584.551 107.161C583.929 104.652 581.472 103.053 579.107 103.649H579.076Z" fill="#97CC87"/>
<path fill-rule="evenodd" clip-rule="evenodd" d="M604.212 96.2793C602.688 96.8438 601.132 97.3769 599.577 97.8786C598.021 98.4117 596.466 98.882 594.911 99.3838C592.577 100.136 591.209 102.676 591.924 105.185C592.609 107.662 595.191 109.167 597.648 108.384C599.266 107.882 600.915 107.38 602.501 106.816C604.119 106.283 605.736 105.749 607.323 105.154C609.749 104.307 610.963 101.579 610.029 99.1643C609.127 96.7183 606.514 95.4954 604.212 96.2793Z" fill="#97CC87"/>
<path fill-rule="evenodd" clip-rule="evenodd" d="M628.445 86.1506C626.983 86.8719 625.49 87.5618 623.997 88.2516C622.504 88.9415 621.011 89.6 619.517 90.2585C617.277 91.2306 616.189 93.9274 617.184 96.342C618.149 98.7566 620.855 99.9168 623.219 98.882C624.775 98.1921 626.33 97.5336 627.886 96.8124C629.441 96.1225 630.965 95.4013 632.49 94.6487C634.823 93.5511 635.725 90.6976 634.543 88.4084C633.392 86.0879 630.654 85.1158 628.445 86.182V86.1506Z" fill="#97CC87"/>
<path fill-rule="evenodd" clip-rule="evenodd" d="M651.466 73.5132C648.666 75.2379 645.866 76.8999 643.004 78.5305C640.858 79.7221 640.111 82.5443 641.325 84.8334C642.538 87.1226 645.338 88.0006 647.608 86.7149C650.564 85.0216 653.488 83.2969 656.381 81.5095C658.559 80.1611 659.181 77.2448 657.781 75.0497C656.381 72.8547 653.581 72.1961 651.497 73.4818L651.466 73.5132Z" fill="#97CC87"/>
<path fill-rule="evenodd" clip-rule="evenodd" d="M643.129 48.1446C644.56 48.9599 645.928 49.8379 647.328 50.7159C648.728 51.594 650.128 52.4406 651.497 53.35C653.55 54.7298 656.381 54.0712 657.812 51.9389C659.243 49.7752 658.683 46.8903 656.568 45.4478C655.137 44.5071 653.674 43.629 652.243 42.7196C650.812 41.8103 649.381 40.9009 647.888 40.0542C645.68 38.7685 642.849 39.5525 641.573 41.8103C640.298 44.068 641.013 46.9216 643.129 48.1446Z" fill="#97CC87"/>
<path fill-rule="evenodd" clip-rule="evenodd" d="M619.859 36.0094L624.308 38.079C625.801 38.7689 627.232 39.5215 628.694 40.2427C629.783 40.8072 631.027 40.8385 632.147 40.4309C633.236 40.0546 634.232 39.2706 634.823 38.1104C635.414 36.9501 635.507 35.6645 635.165 34.5356C634.792 33.4067 634.014 32.4032 632.863 31.8388C631.338 31.0862 629.814 30.3023 628.29 29.581L623.655 27.4487C622.504 26.8842 621.197 26.9469 620.108 27.386C619.019 27.8563 618.086 28.7343 617.589 29.926C617.091 31.1176 617.091 32.4032 617.526 33.5008C617.931 34.5983 618.771 35.5077 619.859 36.0408V36.0094Z" fill="#97CC87"/>
<path fill-rule="evenodd" clip-rule="evenodd" d="M595.377 26.7586C596.932 27.2603 598.488 27.7307 600.043 28.2324L604.679 29.863C605.83 30.2393 607.043 30.1766 608.1 29.6749C609.158 29.1732 610.029 28.2638 610.496 27.0408C610.962 25.8179 610.9 24.5322 610.402 23.4346C609.905 22.3371 609.003 21.4277 607.789 20.9887L602.968 19.2954C601.35 18.7623 599.701 18.2606 598.083 17.7588C595.626 16.9435 593.044 18.4801 592.36 20.9887C591.675 23.4974 593.044 26.006 595.346 26.7586H595.377Z" fill="#97CC87"/>
<path fill-rule="evenodd" clip-rule="evenodd" d="M569.962 20.7693L574.783 21.616L579.574 22.6195C580.787 22.8703 581.969 22.6195 582.934 21.9609C583.898 21.3338 584.676 20.299 584.987 19.0446C585.298 17.7903 585.08 16.5046 584.458 15.5012C583.836 14.4664 582.809 13.6824 581.565 13.4316L576.557 12.3967L571.517 11.4874C568.966 11.0483 566.602 12.8671 566.26 15.4385C565.917 18.0412 567.597 20.3617 569.993 20.7693H569.962Z" fill="#97CC87"/>
<path fill-rule="evenodd" clip-rule="evenodd" d="M544.017 18.1979C545.635 18.1979 547.283 18.3233 548.901 18.4174L551.327 18.5428L553.754 18.731C554.967 18.825 556.118 18.386 557.02 17.6334C557.891 16.8495 558.513 15.752 558.669 14.4663C558.793 13.1806 558.42 11.9263 557.674 11.0169C556.927 10.1075 555.807 9.48035 554.532 9.35492L551.981 9.13541L549.43 9.00998C547.719 8.9159 546.008 8.79047 544.328 8.79047C541.746 8.72776 539.662 10.766 539.631 13.4001C539.631 15.9715 541.59 18.1352 544.017 18.1979Z" fill="#97CC87"/>
<path fill-rule="evenodd" clip-rule="evenodd" d="M517.917 19.1385L522.801 18.6994C524.419 18.574 526.067 18.4799 527.685 18.3859C530.112 18.2291 532.04 16.1281 531.978 13.494C531.916 10.9227 529.769 8.82167 527.187 8.97846C525.476 9.07253 523.797 9.16661 522.086 9.29204L516.984 9.73105C514.433 10.0133 512.629 12.3651 512.94 14.9365C513.251 17.5078 515.491 19.3893 517.917 19.1071V19.1385Z" fill="#97CC87"/>
<path fill-rule="evenodd" clip-rule="evenodd" d="M492.128 23.4035L496.919 22.3687L501.74 21.428C504.136 20.989 505.785 18.6058 505.38 16.0344C504.976 13.463 502.611 11.707 500.061 12.1774L495.052 13.1495L490.044 14.247C487.555 14.8428 486.031 17.3828 486.653 19.8914C487.275 22.4001 489.733 23.9993 492.097 23.4035H492.128Z" fill="#97CC87"/>
<path fill-rule="evenodd" clip-rule="evenodd" d="M466.992 30.7409C468.517 30.1765 470.072 29.6434 471.627 29.1417C473.183 28.6086 474.738 28.1382 476.294 27.6365C478.627 26.8839 479.996 24.3439 479.28 21.8353C478.596 19.358 476.014 17.8528 473.556 18.6367C471.939 19.1385 470.29 19.6402 468.703 20.2046C467.086 20.7377 465.468 21.2708 463.881 21.8666C461.455 22.7133 460.242 25.4414 461.175 27.856C462.077 30.3019 464.69 31.5249 466.992 30.7409Z" fill="#97CC87"/>
<path fill-rule="evenodd" clip-rule="evenodd" d="M442.759 40.8699C444.221 40.1486 445.714 39.4588 447.207 38.7689C448.7 38.079 450.194 37.4205 451.687 36.762C453.927 35.7899 455.015 33.0931 454.02 30.6785C453.056 28.2639 450.349 27.1037 447.985 28.1385C446.429 28.8284 444.874 29.4869 443.319 30.2081C441.763 30.898 440.239 31.6193 438.715 32.3719C436.381 33.4694 435.479 36.323 436.661 38.6121C437.812 40.9326 440.55 41.9047 442.759 40.8385V40.8699Z" fill="#97CC87"/>
<path fill-rule="evenodd" clip-rule="evenodd" d="M419.739 53.5071C422.538 51.7824 425.338 50.1204 428.2 48.4898C430.347 47.2982 431.093 44.476 429.88 42.1868C428.667 39.8977 425.867 39.0197 423.596 40.3054C420.641 41.9987 417.717 43.7234 414.823 45.5108C412.646 46.8592 412.024 49.7755 413.423 51.9705C414.823 54.1656 417.623 54.8241 419.707 53.5384L419.739 53.5071Z" fill="#97CC87"/>
<mask id="mask0_174_6237" style="mask-type:luminance" maskUnits="userSpaceOnUse" x="661" y="56" width="21" height="19">
<path d="M661.452 66.9598L663.225 65.7055L664.998 64.4198L665.869 63.7613L666.305 63.4477L666.429 63.3536C666.367 63.7613 666.367 63.7613 666.367 63.824L666.398 63.7613L666.522 63.5731L667.611 62.0993L671.935 56.2354L676.602 59.7788L681.143 63.3223L677.722 66.2386L676.882 66.9598L675.948 67.7437L675.046 68.4963L674.144 69.2176L672.309 70.6287L670.473 72.0084L668.607 73.3568L666.74 74.6739L661.421 66.9284L661.452 66.9598Z" fill="white"/>
</mask>
<g mask="url(#mask0_174_6237)">
<path fill-rule="evenodd" clip-rule="evenodd" d="M672.278 55.8591L669.198 60.0297L667.673 62.0994L666.896 63.1342L666.522 63.6673L666.429 63.7927C666.491 63.3851 666.491 63.3851 666.491 63.3223H666.46L666.398 63.4164L666.087 63.6359L665.869 63.8241L665.651 64.0122L665.434 64.2004L665.247 64.3885L665.06 64.5767L664.874 64.7962L664.718 65.0157L664.563 65.2352L664.407 65.4547L664.283 65.6742L664.158 65.8937L664.034 66.1132L663.94 66.3641L663.847 66.6149L663.754 66.8658L663.692 67.1167L663.629 67.3675L663.567 67.6184V67.8693L663.505 68.1201V68.371V68.6218V68.8727L663.536 69.1236V69.3431L663.629 69.5626L663.692 69.7821L663.754 70.0016L663.847 70.2211L663.94 70.4406L664.065 70.6601L664.189 70.8483L664.345 71.0364L664.5 71.2246L664.656 71.3814L664.843 71.5381L665.029 71.6949L665.216 71.8204L665.403 71.9458L665.62 72.0712L665.838 72.1653L666.056 72.2594L666.274 72.3535L666.491 72.4162L666.74 72.4789H666.989L667.238 72.5416H667.487H667.736H667.985H668.233H668.482L668.762 72.4789L669.042 72.4162L669.322 72.3535L669.602 72.2907L669.882 72.1967L670.162 72.1026L670.411 71.9772L670.66 71.8517L670.909 71.7263L671.158 71.5695L671.406 71.4127L671.655 71.2246L672.962 70.2525L674.268 69.249L675.575 68.2142L676.913 67.1167L679.339 65.047L680.552 64.0122L681.143 63.5105L681.299 63.3851V63.3223L681.361 63.2596L681.548 63.0088L681.703 62.8206L681.828 62.6325L681.952 62.413L682.046 62.1935L682.139 61.9739L682.201 61.7544L682.263 61.5349L682.326 61.3154V61.0646L682.388 60.8137V60.5628V60.312V60.0611L682.357 59.8102V59.5594L682.263 59.3085L682.201 59.0576L682.139 58.8068L682.046 58.5559L681.952 58.3051L681.828 58.0542L681.703 57.8033L681.579 57.5525L681.423 57.333L681.268 57.1134L681.112 56.8939L680.926 56.6744L680.739 56.4549L680.552 56.2354L680.335 56.0473L680.117 55.8591L679.899 55.671L679.65 55.4828L679.401 55.326L679.153 55.1693L678.904 55.0125L678.655 54.887L678.406 54.7616L678.126 54.6675L677.846 54.5734L677.566 54.4794L677.286 54.4167L677.006 54.3539L676.726 54.2912H676.446L676.197 54.2285H675.948H675.699H675.451L675.202 54.2599H674.953L674.704 54.3539L674.455 54.4167L674.237 54.4794L674.02 54.5734L673.802 54.6675L673.584 54.7616L673.366 54.887L673.18 55.0125L672.993 55.1693L672.806 55.326L672.651 55.4828L672.495 55.671L672.34 55.8591H672.278Z" fill="#97CC87"/>
</g>
<mask id="mask1_174_6237" style="mask-type:luminance" maskUnits="userSpaceOnUse" x="661" y="52" width="21" height="19">
<path d="M661.389 60.0923L663.194 61.378L664.096 62.0051L664.314 62.1619L664.531 62.3187L664.967 62.6636L665.838 63.3222L666.273 63.6671L666.398 63.7612C666.46 63.3535 666.46 63.3535 666.46 63.2908L666.491 63.3535L666.616 63.5417L667.704 65.0155L672.028 70.8794L673.211 69.9701L674.393 69.0607L675.575 68.1199L676.788 67.1165L681.174 63.3535L677.659 60.594L676.788 59.9041L675.886 59.2143L674.082 57.8345L670.442 55.075L669.975 54.7301L669.758 54.5733L669.54 54.4165L668.607 53.758L666.74 52.4409L661.327 60.1236L661.389 60.0923Z" fill="white"/>
</mask>
<g mask="url(#mask1_174_6237)">
<path fill-rule="evenodd" clip-rule="evenodd" d="M665.962 63.4477L666.273 63.6985L666.367 63.7613H666.398V63.7926C666.46 63.1968 666.429 63.4477 666.46 63.3222L666.553 63.4477L666.927 63.9808L667.704 65.0156L669.229 67.0852L672.308 71.2245L672.464 71.4126L672.62 71.6008L672.775 71.7575L672.962 71.9143L673.148 72.0711L673.335 72.1966L673.553 72.322L673.771 72.4161L673.988 72.5101L674.206 72.6042L674.455 72.6669L674.704 72.7297H674.953L675.202 72.7924H675.45H675.699H675.948H676.228H676.508L676.788 72.7297L677.068 72.6669L677.348 72.6042L677.628 72.5101L677.908 72.4161L678.188 72.322L678.468 72.1966L678.748 72.0711L679.028 71.9143L679.308 71.7575L679.588 71.5694L679.743 71.4753L679.899 71.3499L680.21 71.099L680.428 70.9109L680.646 70.6914L680.832 70.4719L681.019 70.2524L681.205 70.0329L681.361 69.8134L681.517 69.5938L681.672 69.3743L681.797 69.1235L681.921 68.8726L682.045 68.6217L682.139 68.3709L682.232 68.12L682.294 67.8692L682.357 67.6183L682.419 67.3674V67.1166L682.481 66.8657V66.6148V66.364V66.1131V65.8622V65.6114L682.388 65.3919L682.325 65.1724L682.263 64.9529L682.17 64.7334L682.076 64.5138L681.952 64.2943L681.828 64.1062L681.703 63.918L681.548 63.7299L681.33 63.479L681.268 63.4163V63.385L681.112 63.2595L680.49 62.7578L679.246 61.7857L676.726 59.8415L671.562 55.9217L671.313 55.7336L671.064 55.5768L670.815 55.42L670.566 55.2632L670.317 55.1378L670.069 55.0124L669.82 54.9183L669.695 54.8556H669.571L669.291 54.7301L669.011 54.6674L668.731 54.6047H668.451L668.202 54.542H667.953H667.704H667.455H667.207H666.958L666.709 54.6047L666.46 54.6674L666.211 54.7301L665.993 54.8242L665.776 54.9183L665.558 55.0124L665.34 55.1378L665.153 55.2632L664.967 55.3887L664.78 55.5454L664.594 55.7022L664.438 55.859L664.282 56.0472L664.127 56.2353L664.002 56.4235L663.878 56.643L663.785 56.8625L663.691 57.082L663.598 57.3015L663.536 57.521L663.474 57.7405V57.96L663.411 58.2109V58.4617V58.7126V58.9635L663.443 59.2143V59.4652L663.536 59.7161L663.598 59.9669L663.66 60.2178L663.754 60.4687L663.847 60.7195L663.94 60.9704L664.065 61.1899L664.189 61.4094L664.314 61.6289L664.469 61.8484L664.625 62.0679L664.78 62.2874L664.967 62.5069L665.153 62.7264L665.34 62.9146L665.558 63.1027L665.776 63.2909L665.993 63.479L665.962 63.4477Z" fill="#97CC87"/>
</g>
<mask id="mask2_174_6237" style="mask-type:luminance" maskUnits="userSpaceOnUse" x="390" y="52" width="20" height="19">
<path d="M409.752 60.092L407.979 61.3463L406.206 62.632L405.335 63.2905L404.9 63.6041L404.775 63.6982C404.837 63.2905 404.837 63.2905 404.837 63.2278L404.806 63.2905L404.682 63.4787L403.593 64.9525L399.269 70.8164L394.603 67.273L390.061 63.7295L393.483 60.8132L394.323 60.092L395.256 59.3081L396.158 58.5555L397.06 57.8342L398.896 56.4231L400.731 55.0434L402.598 53.695L404.464 52.3779L409.784 60.1234L409.752 60.092Z" fill="white"/>
</mask>
<g mask="url(#mask2_174_6237)">
<path fill-rule="evenodd" clip-rule="evenodd" d="M398.927 71.1615L402.007 66.9909L403.531 64.9212L404.309 63.8864L404.682 63.3533L404.775 63.2279C404.713 63.6355 404.713 63.6355 404.713 63.6983H404.744L404.806 63.6042L405.118 63.3847L405.335 63.1965L405.553 63.0084L405.771 62.8202L405.957 62.6321L406.144 62.4439L406.331 62.2244L406.486 62.0049L406.642 61.7854L406.797 61.5659L406.922 61.3464L407.046 61.1269L407.171 60.9074L407.264 60.6565L407.357 60.4057L407.451 60.1548L407.513 59.9039L407.575 59.6531L407.637 59.4022V59.1513L407.7 58.9005V58.6496V58.3988V58.1479L407.668 57.897V57.6775L407.575 57.458L407.513 57.2385L407.451 57.019L407.357 56.7995L407.264 56.58L407.14 56.3605L407.015 56.1723L406.86 55.9842L406.704 55.796L406.549 55.6392L406.362 55.4825L406.175 55.3257L405.989 55.2002L405.802 55.0748L405.584 54.9494L405.366 54.8553L405.149 54.7612L404.931 54.6672L404.713 54.6044L404.464 54.5417H404.215L403.967 54.479H403.718H403.469H403.22H402.971H402.722L402.442 54.5417L402.162 54.6044L401.882 54.6672L401.602 54.7299L401.322 54.8239L401.042 54.918L400.793 55.0434L400.545 55.1689L400.296 55.2943L400.047 55.4511L399.798 55.6079L399.549 55.796L398.243 56.7681L396.936 57.7716L395.629 58.8064L394.292 59.9039L391.865 61.9736L390.652 63.0084L390.061 63.5101L389.905 63.6355V63.6983L389.843 63.761L389.657 64.0118L389.501 64.2L389.377 64.3881L389.252 64.6076L389.159 64.8271L389.066 65.0467L389.003 65.2662L388.941 65.4857L388.879 65.7052V65.956L388.817 66.2069V66.4578V66.7086V66.9595L388.848 67.2104V67.4612L388.941 67.7121L389.003 67.963L389.066 68.2138L389.159 68.4647L389.252 68.7155L389.377 68.9664L389.501 69.2173L389.625 69.4681L389.781 69.6876L389.937 69.9072L390.092 70.1267L390.279 70.3462L390.465 70.5657L390.652 70.7852L390.87 70.9733L391.088 71.1615L391.305 71.3496L391.554 71.5378L391.803 71.6946L392.052 71.8513L392.301 72.0081L392.55 72.1336L392.799 72.259L393.079 72.3531L393.358 72.4472L393.638 72.5412L393.918 72.6039L394.198 72.6667L394.478 72.7294H394.758L395.007 72.7921H395.256H395.505H395.754L396.003 72.7607H396.252L396.5 72.6667L396.749 72.6039L396.967 72.5412L397.185 72.4472L397.403 72.3531L397.62 72.259L397.838 72.1336L398.025 72.0081L398.211 71.8513L398.398 71.6946L398.554 71.5378L398.709 71.3496L398.865 71.1615H398.927Z" fill="#97CC87"/>
</g>
<mask id="mask3_174_6237" style="mask-type:luminance" maskUnits="userSpaceOnUse" x="390" y="56" width="20" height="19">
<path d="M409.815 66.9283L408.011 65.6426L407.108 65.0154L406.891 64.8586L406.673 64.7019L406.237 64.3569L405.366 63.6984L404.931 63.3535L404.806 63.2594C404.744 63.667 404.744 63.667 404.744 63.7298L404.713 63.667L404.589 63.4789L403.5 62.0051L399.176 56.1411L397.994 57.0505L396.811 57.9599L395.629 58.9006L394.416 59.9041L390.03 63.667L393.545 66.4265L394.416 67.1164L395.318 67.8063L397.123 69.1861L400.762 71.9456L401.229 72.2905L401.447 72.4473L401.664 72.6041L402.598 73.2626L404.464 74.5796L409.877 66.8969L409.815 66.9283Z" fill="white"/>
</mask>
<g mask="url(#mask3_174_6237)">
<path fill-rule="evenodd" clip-rule="evenodd" d="M405.242 63.5732L404.931 63.3223L404.837 63.2596H404.806V63.2283C404.744 63.8241 404.775 63.5732 404.744 63.6986L404.651 63.5732L404.277 63.0401L403.5 62.0053L401.975 59.9357L398.896 55.7964L398.74 55.6083L398.585 55.4201L398.429 55.2633L398.242 55.1065L398.056 54.9497L397.869 54.8243L397.651 54.6989L397.434 54.6048L397.216 54.5107L396.998 54.4167L396.749 54.3539L396.5 54.2912H396.251L396.003 54.2285H395.754H395.505H395.256H394.976H394.696L394.416 54.2912L394.136 54.3539L393.856 54.4167L393.576 54.5107L393.296 54.6048L393.016 54.6989L392.736 54.8243L392.456 54.9497L392.176 55.1065L391.896 55.2633L391.616 55.4515L391.461 55.5455L391.305 55.671L390.994 55.9218L390.776 56.11L390.559 56.3295L390.372 56.549L390.185 56.7685L389.999 56.988L389.843 57.2075L389.688 57.427L389.532 57.6465L389.408 57.8974L389.283 58.1483L389.159 58.3991L389.065 58.65L388.972 58.9009L388.91 59.1517L388.848 59.4026L388.785 59.6535V59.9043L388.723 60.1552V60.406V60.6569V60.9078V61.1586V61.4095L388.816 61.629L388.879 61.8485L388.941 62.068L389.034 62.2875L389.128 62.507L389.252 62.7265L389.376 62.9147L389.501 63.1028L389.656 63.291L389.874 63.5418L389.936 63.6046V63.6359L390.092 63.7614L390.714 64.2631L391.958 65.2352L394.478 67.1794L399.642 71.0991L399.891 71.2873L400.14 71.4441L400.389 71.6009L400.638 71.7576L400.887 71.8831L401.135 72.0085L401.384 72.1026L401.509 72.1653H401.633L401.913 72.2907L402.193 72.3535L402.473 72.4162H402.753L403.002 72.4789H403.251H403.5H403.749H403.997H404.246L404.495 72.4162L404.744 72.3535L404.993 72.2907L405.211 72.1967L405.428 72.1026L405.646 72.0085L405.864 71.8831L406.051 71.7576L406.237 71.6322L406.424 71.4754L406.611 71.3186L406.766 71.1618L406.922 70.9737L407.077 70.7855L407.202 70.5974L407.326 70.3779L407.419 70.1584L407.513 69.9389L407.606 69.7194L407.668 69.4999L407.73 69.2804V69.0609L407.793 68.81V68.5591V68.3083V68.0574L407.762 67.8065V67.5557L407.668 67.3048L407.606 67.0539L407.544 66.8031L407.45 66.5522L407.357 66.3014L407.264 66.0505L407.139 65.831L407.015 65.6115L406.891 65.392L406.735 65.1725L406.579 64.953L406.424 64.7334L406.237 64.5139L406.051 64.2944L405.864 64.1063L405.646 63.9181L405.428 63.73L405.211 63.5418L405.242 63.5732Z" fill="#97CC87"/>
</g>
<path d="M358.734 63.5105C170.497 -79.3881 -2 63.5105 -2 63.5105C186.238 206.409 358.734 63.5105 358.734 63.5105Z" fill="#2C5629"/>
<path d="M285.225 63.5106C170.995 -23.1943 66.2832 63.5106 66.2832 63.5106C180.514 150.216 285.225 63.5106 285.225 63.5106Z" fill="#F15B87"/>
<path fill-rule="evenodd" clip-rule="evenodd" d="M67.3409 78.907C65.9099 78.0917 64.5411 77.2137 63.1412 76.3357C61.7413 75.4577 60.3415 74.611 58.9727 73.7016C56.9195 72.3219 54.0886 72.9804 52.6576 75.1127C51.2267 77.2764 51.7866 80.1614 53.902 81.6038C55.333 82.5446 56.7951 83.4226 58.2261 84.332C59.6571 85.2414 61.0881 86.1508 62.5813 86.9974C64.79 88.2831 67.6209 87.4991 68.8963 85.2414C70.1718 82.9836 69.4563 80.13 67.3409 78.907Z" fill="#F15B87"/>
<path fill-rule="evenodd" clip-rule="evenodd" d="M90.6101 91.0428L86.1616 88.9732C84.6684 88.2833 83.2374 87.5307 81.7753 86.8095C80.6865 86.245 79.4422 86.2137 78.3222 86.6213C77.2334 86.9976 76.238 87.7816 75.6469 88.9418C75.0558 90.1021 74.9625 91.3877 75.3047 92.5166C75.678 93.6455 76.4557 94.649 77.6067 95.2134C79.1311 95.966 80.6554 96.75 82.1797 97.4712L86.8149 99.6035C87.9659 100.168 89.2724 100.105 90.3612 99.6663C91.45 99.1959 92.3833 98.3179 92.881 97.1263C93.3788 95.9346 93.3788 94.649 92.9433 93.5514C92.5388 92.4539 91.6989 91.5445 90.6101 91.0114V91.0428Z" fill="#F15B87"/>
<path fill-rule="evenodd" clip-rule="evenodd" d="M115.061 100.262C113.506 99.7601 111.95 99.2898 110.395 98.788L105.76 97.1574C104.609 96.7811 103.396 96.8439 102.338 97.3456C101.28 97.8473 100.409 98.7567 99.9426 99.9797C99.4759 101.203 99.5382 102.488 100.036 103.586C100.534 104.683 101.436 105.593 102.649 106.032L107.471 107.725C109.088 108.258 110.737 108.76 112.355 109.262C114.812 110.077 117.394 108.54 118.079 106.032C118.763 103.523 117.394 101.014 115.092 100.262H115.061Z" fill="#F15B87"/>
<path fill-rule="evenodd" clip-rule="evenodd" d="M140.477 106.283L135.655 105.436L130.864 104.433C129.651 104.182 128.469 104.433 127.505 105.091C126.54 105.718 125.763 106.753 125.452 108.007C125.141 109.262 125.358 110.547 125.98 111.551C126.603 112.586 127.629 113.37 128.874 113.62L133.882 114.655L138.922 115.565C141.473 116.004 143.837 114.185 144.179 111.614C144.521 109.011 142.841 106.69 140.446 106.283H140.477Z" fill="#F15B87"/>
<path fill-rule="evenodd" clip-rule="evenodd" d="M166.453 108.823C164.835 108.823 163.186 108.697 161.569 108.603L159.142 108.478L156.716 108.289C155.502 108.195 154.351 108.634 153.449 109.387C152.578 110.171 151.956 111.268 151.8 112.554C151.676 113.84 152.049 115.094 152.796 116.004C153.543 116.913 154.662 117.54 155.938 117.666L158.489 117.885L161.04 118.01C162.751 118.105 164.462 118.23 166.141 118.23C168.723 118.293 170.808 116.254 170.839 113.62C170.839 111.049 168.879 108.885 166.453 108.823Z" fill="#F15B87"/>
<path fill-rule="evenodd" clip-rule="evenodd" d="M192.553 107.913L187.669 108.352C186.051 108.478 184.402 108.572 182.785 108.666C180.358 108.822 178.429 110.923 178.492 113.558C178.554 116.129 180.7 118.23 183.282 118.073C184.993 117.979 186.673 117.885 188.384 117.76L193.486 117.32C196.037 117.038 197.841 114.686 197.53 112.115C197.219 109.544 194.979 107.662 192.553 107.944V107.913Z" fill="#F15B87"/>
<path fill-rule="evenodd" clip-rule="evenodd" d="M218.342 103.649L213.551 104.683L208.729 105.624C206.334 106.063 204.685 108.446 205.089 111.018C205.494 113.589 207.858 115.345 210.409 114.875L215.417 113.903L220.426 112.805C222.915 112.209 224.439 109.669 223.817 107.161C223.195 104.652 220.737 103.053 218.373 103.649H218.342Z" fill="#F15B87"/>
<path fill-rule="evenodd" clip-rule="evenodd" d="M243.477 96.2793C241.953 96.8438 240.398 97.3769 238.842 97.8786C237.287 98.4117 235.731 98.882 234.176 99.3838C231.843 100.136 230.474 102.676 231.19 105.185C231.874 107.662 234.456 109.167 236.914 108.384C238.531 107.882 240.18 107.38 241.766 106.816C243.384 106.283 245.002 105.749 246.588 105.154C249.015 104.307 250.228 101.579 249.295 99.1643C248.393 96.7183 245.779 95.4954 243.477 96.2793Z" fill="#F15B87"/>
<path fill-rule="evenodd" clip-rule="evenodd" d="M267.711 86.1506C266.249 86.8719 264.756 87.5618 263.262 88.2516C261.769 88.9415 260.276 89.6 258.783 90.2585C256.543 91.2306 255.454 93.9274 256.45 96.342C257.414 98.7566 260.12 99.9168 262.485 98.882C264.04 98.1921 265.595 97.5336 267.151 96.8124C268.706 96.1225 270.231 95.4013 271.755 94.6487C274.088 93.5511 274.99 90.6976 273.808 88.4084C272.657 86.0879 269.92 85.1158 267.711 86.182V86.1506Z" fill="#F15B87"/>
<path fill-rule="evenodd" clip-rule="evenodd" d="M290.731 73.5132C287.932 75.2379 285.132 76.8999 282.27 78.5305C280.123 79.7221 279.377 82.5443 280.59 84.8334C281.803 87.1226 284.603 88.0006 286.874 86.7149C289.829 85.0216 292.753 83.2969 295.646 81.5095C297.824 80.1611 298.446 77.2448 297.046 75.0497C295.646 72.8547 292.847 72.1961 290.762 73.4818L290.731 73.5132Z" fill="#F15B87"/>
<path fill-rule="evenodd" clip-rule="evenodd" d="M282.363 48.1446C283.794 48.9599 285.163 49.8379 286.563 50.7159C287.963 51.594 289.362 52.4406 290.731 53.35C292.784 54.7298 295.615 54.0712 297.046 51.9389C298.477 49.7752 297.917 46.8903 295.802 45.4478C294.371 44.5071 292.909 43.629 291.478 42.7196C290.047 41.8103 288.616 40.9009 287.123 40.0542C284.914 38.7685 282.083 39.5525 280.808 41.8103C279.532 44.068 280.248 46.9216 282.363 48.1446Z" fill="#F15B87"/>
<path fill-rule="evenodd" clip-rule="evenodd" d="M259.094 36.0094L263.542 38.079C265.036 38.7689 266.467 39.5215 267.929 40.2427C269.017 40.8072 270.262 40.8385 271.382 40.4309C272.47 40.0546 273.466 39.2706 274.057 38.1104C274.648 36.9501 274.741 35.6645 274.399 34.5356C274.026 33.4067 273.248 32.4032 272.097 31.8388C270.573 31.0862 269.049 30.3023 267.524 29.581L262.889 27.4487C261.738 26.8842 260.431 26.9469 259.343 27.386C258.254 27.8563 257.321 28.7343 256.823 29.926C256.325 31.1176 256.325 32.4032 256.761 33.5008C257.165 34.5983 258.005 35.5077 259.094 36.0408V36.0094Z" fill="#F15B87"/>
<path fill-rule="evenodd" clip-rule="evenodd" d="M234.642 26.7586C236.198 27.2603 237.753 27.7307 239.309 28.2324L243.944 29.863C245.095 30.2393 246.308 30.1766 247.366 29.6749C248.424 29.1732 249.295 28.2638 249.761 27.0408C250.228 25.8179 250.166 24.5322 249.668 23.4346C249.17 22.3371 248.268 21.4277 247.055 20.9887L242.233 19.2954C240.615 18.7623 238.967 18.2606 237.349 17.7588C234.891 16.9435 232.309 18.4801 231.625 20.9887C230.941 23.4974 232.309 26.006 234.611 26.7586H234.642Z" fill="#F15B87"/>
<path fill-rule="evenodd" clip-rule="evenodd" d="M209.227 20.7693L214.049 21.616L218.839 22.6195C220.053 22.8703 221.235 22.6195 222.199 21.9609C223.164 21.3338 223.941 20.299 224.252 19.0446C224.563 17.7903 224.346 16.5046 223.723 15.5012C223.101 14.4664 222.075 13.6824 220.83 13.4316L215.822 12.3967L210.782 11.4874C208.231 11.0483 205.867 12.8671 205.525 15.4385C205.183 18.0412 206.863 20.3617 209.258 20.7693H209.227Z" fill="#F15B87"/>
<path fill-rule="evenodd" clip-rule="evenodd" d="M183.251 18.1979C184.869 18.1979 186.518 18.3233 188.135 18.4174L190.562 18.5428L192.988 18.731C194.201 18.825 195.353 18.386 196.255 17.6334C197.126 16.8495 197.748 15.752 197.903 14.4663C198.028 13.1806 197.655 11.9263 196.908 11.0169C196.161 10.1075 195.041 9.48035 193.766 9.35492L191.215 9.13541L188.664 9.00998C186.953 8.9159 185.242 8.79047 183.562 8.79047C180.98 8.72776 178.896 10.766 178.865 13.4001C178.865 15.9715 180.825 18.1352 183.251 18.1979Z" fill="#F15B87"/>
<path fill-rule="evenodd" clip-rule="evenodd" d="M157.182 19.1385L162.066 18.6994C163.684 18.574 165.333 18.4799 166.95 18.3859C169.377 18.2291 171.306 16.1281 171.243 13.494C171.181 10.9227 169.035 8.82167 166.453 8.97846C164.742 9.07253 163.062 9.16661 161.351 9.29204L156.249 9.73105C153.698 10.0133 151.894 12.3651 152.205 14.9365C152.516 17.5078 154.756 19.3893 157.182 19.1071V19.1385Z" fill="#F15B87"/>
<path fill-rule="evenodd" clip-rule="evenodd" d="M131.362 23.4035L136.153 22.3687L140.975 21.428C143.37 20.989 145.019 18.6058 144.614 16.0344C144.21 13.463 141.846 11.707 139.295 12.1774L134.286 13.1495L129.278 14.247C126.789 14.8428 125.265 17.3828 125.887 19.8914C126.509 22.4001 128.967 23.9993 131.331 23.4035H131.362Z" fill="#F15B87"/>
<path fill-rule="evenodd" clip-rule="evenodd" d="M106.226 30.7409C107.751 30.1765 109.306 29.6434 110.862 29.1417C112.417 28.6086 113.972 28.1382 115.528 27.6365C117.861 26.8839 119.23 24.3439 118.514 21.8353C117.83 19.358 115.248 17.8528 112.79 18.6367C111.173 19.1385 109.524 19.6402 107.937 20.2046C106.32 20.7377 104.702 21.2708 103.116 21.8666C100.689 22.7133 99.4759 25.4414 100.409 27.856C101.311 30.3019 103.924 31.5249 106.226 30.7409Z" fill="#F15B87"/>
<path fill-rule="evenodd" clip-rule="evenodd" d="M82.0241 40.8699C83.4862 40.1486 84.9794 39.4588 86.4726 38.7689C87.9658 38.079 89.459 37.4205 90.9522 36.762C93.192 35.7899 94.2808 33.0931 93.2853 30.6785C92.321 28.2639 89.6145 27.1037 87.2503 28.1385C85.6949 28.8284 84.1394 29.4869 82.584 30.2081C81.0286 30.898 79.5043 31.6193 77.98 32.3719C75.6468 33.4694 74.7447 36.323 75.9268 38.6121C77.0778 40.9326 79.8154 41.9047 82.0241 40.8385V40.8699Z" fill="#F15B87"/>
<path fill-rule="evenodd" clip-rule="evenodd" d="M58.9727 53.5071C61.7724 51.7824 64.5722 50.1204 67.4342 48.4898C69.5807 47.2982 70.3273 44.476 69.114 42.1868C67.9008 39.8977 65.101 39.0197 62.8301 40.3054C59.8748 41.9987 56.9506 43.7234 54.0575 45.5108C51.8799 46.8592 51.2578 49.7755 52.6576 51.9705C54.0575 54.1656 56.8573 54.8241 58.9416 53.5384L58.9727 53.5071Z" fill="#F15B87"/>
<mask id="mask4_174_6237" style="mask-type:luminance" maskUnits="userSpaceOnUse" x="300" y="56" width="21" height="19">
<path d="M300.717 66.9598L302.49 65.7055L304.263 64.4198L305.135 63.7613L305.57 63.4477L305.695 63.3536C305.632 63.7613 305.632 63.7613 305.632 63.824L305.663 63.7613L305.788 63.5731L306.877 62.0993L311.201 56.2354L315.867 59.7788L320.409 63.3223L316.987 66.2386L316.147 66.9598L315.214 67.7437L314.312 68.4963L313.409 69.2176L311.574 70.6287L309.739 72.0084L307.872 73.3568L306.006 74.6739L300.686 66.9284L300.717 66.9598Z" fill="white"/>
</mask>
<g mask="url(#mask4_174_6237)">
<path fill-rule="evenodd" clip-rule="evenodd" d="M311.543 55.8591L308.463 60.0297L306.939 62.0994L306.161 63.1342L305.788 63.6673L305.694 63.7927C305.757 63.3851 305.757 63.3851 305.757 63.3223H305.726L305.663 63.4164L305.352 63.6359L305.135 63.8241L304.917 64.0122L304.699 64.2004L304.512 64.3885L304.326 64.5767L304.139 64.7962L303.983 65.0157L303.828 65.2352L303.672 65.4547L303.548 65.6742L303.424 65.8937L303.299 66.1132L303.206 66.3641L303.112 66.6149L303.019 66.8658L302.957 67.1167L302.895 67.3675L302.832 67.6184V67.8693L302.77 68.1201V68.371V68.6218V68.8727L302.801 69.1236V69.3431L302.895 69.5626L302.957 69.7821L303.019 70.0016L303.112 70.2211L303.206 70.4406L303.33 70.6601L303.455 70.8483L303.61 71.0364L303.766 71.2246L303.921 71.3814L304.108 71.5381L304.295 71.6949L304.481 71.8204L304.668 71.9458L304.886 72.0712L305.103 72.1653L305.321 72.2594L305.539 72.3535L305.757 72.4162L306.006 72.4789H306.254L306.503 72.5416H306.752H307.001H307.25H307.499H307.748L308.028 72.4789L308.308 72.4162L308.588 72.3535L308.868 72.2907L309.147 72.1967L309.427 72.1026L309.676 71.9772L309.925 71.8517L310.174 71.7263L310.423 71.5695L310.672 71.4127L310.921 71.2246L312.227 70.2525L313.534 69.249L314.84 68.2142L316.178 67.1167L318.604 65.047L319.818 64.0122L320.409 63.5105L320.564 63.3851V63.3223L320.627 63.2596L320.813 63.0088L320.969 62.8206L321.093 62.6325L321.218 62.413L321.311 62.1935L321.404 61.9739L321.466 61.7544L321.529 61.5349L321.591 61.3154V61.0646L321.653 60.8137V60.5628V60.312V60.0611L321.622 59.8102V59.5594L321.529 59.3085L321.466 59.0576L321.404 58.8068L321.311 58.5559L321.218 58.3051L321.093 58.0542L320.969 57.8033L320.844 57.5525L320.689 57.333L320.533 57.1134L320.378 56.8939L320.191 56.6744L320.004 56.4549L319.818 56.2354L319.6 56.0473L319.382 55.8591L319.164 55.671L318.916 55.4828L318.667 55.326L318.418 55.1693L318.169 55.0125L317.92 54.887L317.671 54.7616L317.391 54.6675L317.111 54.5734L316.831 54.4794L316.551 54.4167L316.271 54.3539L315.991 54.2912H315.711L315.463 54.2285H315.214H314.965H314.716L314.467 54.2599H314.218L313.969 54.3539L313.72 54.4167L313.503 54.4794L313.285 54.5734L313.067 54.6675L312.849 54.7616L312.632 54.887L312.445 55.0125L312.258 55.1693L312.072 55.326L311.916 55.4828L311.761 55.671L311.605 55.8591H311.543Z" fill="#F15B87"/>
</g>
<mask id="mask5_174_6237" style="mask-type:luminance" maskUnits="userSpaceOnUse" x="300" y="52" width="21" height="19">
<path d="M300.624 60.0923L302.428 61.378L303.33 62.0051L303.548 62.1619L303.766 62.3187L304.201 62.6636L305.072 63.3222L305.508 63.6671L305.632 63.7612C305.694 63.3535 305.694 63.3535 305.694 63.2908L305.726 63.3535L305.85 63.5417L306.939 65.0155L311.263 70.8794L312.445 69.9701L313.627 69.0607L314.809 68.1199L316.022 67.1165L320.409 63.3535L316.893 60.594L316.022 59.9041L315.12 59.2143L313.316 57.8345L309.676 55.075L309.21 54.7301L308.992 54.5733L308.774 54.4165L307.841 53.758L305.974 52.4409L300.562 60.1236L300.624 60.0923Z" fill="white"/>
</mask>
<g mask="url(#mask5_174_6237)">
<path fill-rule="evenodd" clip-rule="evenodd" d="M305.228 63.4477L305.539 63.6985L305.632 63.7613H305.663V63.7926C305.726 63.1968 305.695 63.4477 305.726 63.3222L305.819 63.4477L306.192 63.9808L306.97 65.0156L308.494 67.0852L311.574 71.2245L311.73 71.4126L311.885 71.6008L312.041 71.7575L312.227 71.9143L312.414 72.0711L312.601 72.1966L312.818 72.322L313.036 72.4161L313.254 72.5101L313.472 72.6042L313.721 72.6669L313.969 72.7297H314.218L314.467 72.7924H314.716H314.965H315.214H315.494H315.774L316.054 72.7297L316.334 72.6669L316.614 72.6042L316.894 72.5101L317.174 72.4161L317.454 72.322L317.734 72.1966L318.014 72.0711L318.293 71.9143L318.573 71.7575L318.853 71.5694L319.009 71.4753L319.165 71.3499L319.476 71.099L319.693 70.9109L319.911 70.6914L320.098 70.4719L320.284 70.2524L320.471 70.0329L320.627 69.8134L320.782 69.5938L320.938 69.3743L321.062 69.1235L321.187 68.8726L321.311 68.6217L321.404 68.3709L321.498 68.12L321.56 67.8692L321.622 67.6183L321.684 67.3674V67.1166L321.747 66.8657V66.6148V66.364V66.1131V65.8622V65.6114L321.653 65.3919L321.591 65.1724L321.529 64.9529L321.435 64.7334L321.342 64.5138L321.218 64.2943L321.093 64.1062L320.969 63.918L320.813 63.7299L320.595 63.479L320.533 63.4163V63.385L320.378 63.2595L319.756 62.7578L318.511 61.7857L315.991 59.8415L310.827 55.9217L310.579 55.7336L310.33 55.5768L310.081 55.42L309.832 55.2632L309.583 55.1378L309.334 55.0124L309.085 54.9183L308.961 54.8556H308.836L308.557 54.7301L308.277 54.6674L307.997 54.6047H307.717L307.468 54.542H307.219H306.97H306.721H306.472H306.223L305.974 54.6047L305.726 54.6674L305.477 54.7301L305.259 54.8242L305.041 54.9183L304.823 55.0124L304.606 55.1378L304.419 55.2632L304.232 55.3887L304.046 55.5454L303.859 55.7022L303.704 55.859L303.548 56.0472L303.392 56.2353L303.268 56.4235L303.144 56.643L303.05 56.8625L302.957 57.082L302.864 57.3015L302.801 57.521L302.739 57.7405V57.96L302.677 58.2109V58.4617V58.7126V58.9635L302.708 59.2143V59.4652L302.801 59.7161L302.864 59.9669L302.926 60.2178L303.019 60.4687L303.113 60.7195L303.206 60.9704L303.33 61.1899L303.455 61.4094L303.579 61.6289L303.735 61.8484L303.89 62.0679L304.046 62.2874L304.232 62.5069L304.419 62.7264L304.606 62.9146L304.823 63.1027L305.041 63.2909L305.259 63.479L305.228 63.4477Z" fill="#F15B87"/>
</g>
<mask id="mask6_174_6237" style="mask-type:luminance" maskUnits="userSpaceOnUse" x="29" y="52" width="21" height="19">
<path d="M48.9869 60.092L47.2137 61.3463L45.4405 62.632L44.5695 63.2905L44.1339 63.6041L44.0095 63.6982C44.0717 63.2905 44.0717 63.2905 44.0717 63.2278L44.0406 63.2905L43.9162 63.4787L42.8274 64.9525L38.5033 70.8164L33.837 67.273L29.2952 63.7295L32.7171 60.8132L33.557 60.092L34.4903 59.3081L35.3924 58.5555L36.2946 57.8342L38.13 56.4231L39.9654 55.0434L41.8319 53.695L43.6984 52.3779L49.018 60.1234L48.9869 60.092Z" fill="white"/>
</mask>
<g mask="url(#mask6_174_6237)">
<path fill-rule="evenodd" clip-rule="evenodd" d="M38.1611 71.1615L41.2408 66.9909L42.7651 64.9212L43.5428 63.8864L43.9161 63.3533L44.0095 63.2279C43.9472 63.6355 43.9472 63.6355 43.9472 63.6983H43.9783L44.0406 63.6042L44.3516 63.3847L44.5694 63.1965L44.7872 63.0084L45.0049 62.8202L45.1916 62.6321L45.3782 62.4439L45.5649 62.2244L45.7204 62.0049L45.876 61.7854L46.0315 61.5659L46.1559 61.3464L46.2804 61.1269L46.4048 60.9074L46.4981 60.6565L46.5915 60.4057L46.6848 60.1548L46.747 59.9039L46.8092 59.6531L46.8714 59.4022V59.1513L46.9337 58.9005V58.6496V58.3988V58.1479L46.9025 57.897V57.6775L46.8092 57.458L46.747 57.2385L46.6848 57.019L46.5915 56.7995L46.4981 56.58L46.3737 56.3605L46.2493 56.1723L46.0937 55.9842L45.9382 55.796L45.7826 55.6392L45.596 55.4825L45.4093 55.3257L45.2227 55.2002L45.036 55.0748L44.8183 54.9494L44.6005 54.8553L44.3828 54.7612L44.165 54.6672L43.9472 54.6044L43.6984 54.5417H43.4495L43.2006 54.479H42.9518H42.7029H42.454H42.2052H41.9563L41.6763 54.5417L41.3963 54.6044L41.1164 54.6672L40.8364 54.7299L40.5564 54.8239L40.2764 54.918L40.0276 55.0434L39.7787 55.1689L39.5298 55.2943L39.281 55.4511L39.0321 55.6079L38.7832 55.796L37.4767 56.7681L36.1701 57.7716L34.8635 58.8064L33.5259 59.9039L31.0994 61.9736L29.8862 63.0084L29.2951 63.5101L29.1396 63.6355V63.6983L29.0774 63.761L28.8907 64.0118L28.7352 64.2L28.6107 64.3881L28.4863 64.6076L28.393 64.8271L28.2996 65.0467L28.2374 65.2662L28.1752 65.4857L28.113 65.7052V65.956L28.0508 66.2069V66.4578V66.7086V66.9595L28.0819 67.2104V67.4612L28.1752 67.7121L28.2374 67.963L28.2996 68.2138L28.393 68.4647L28.4863 68.7155L28.6107 68.9664L28.7352 69.2173L28.8596 69.4681L29.0151 69.6876L29.1707 69.9072L29.3262 70.1267L29.5129 70.3462L29.6995 70.5657L29.8862 70.7852L30.1039 70.9733L30.3217 71.1615L30.5395 71.3496L30.7883 71.5378L31.0372 71.6946L31.2861 71.8513L31.5349 72.0081L31.7838 72.1336L32.0327 72.259L32.3126 72.3531L32.5926 72.4472L32.8726 72.5412L33.1526 72.6039L33.4326 72.6667L33.7125 72.7294H33.9925L34.2414 72.7921H34.4902H34.7391H34.988L35.2369 72.7607H35.4857L35.7346 72.6667L35.9835 72.6039L36.2012 72.5412L36.419 72.4472L36.6367 72.3531L36.8545 72.259L37.0723 72.1336L37.2589 72.0081L37.4456 71.8513L37.6322 71.6946L37.7878 71.5378L37.9433 71.3496L38.0988 71.1615H38.1611Z" fill="#F15B87"/>
</g>
<mask id="mask7_174_6237" style="mask-type:luminance" maskUnits="userSpaceOnUse" x="29" y="56" width="21" height="19">
<path d="M49.0802 66.9283L47.2759 65.6426L46.3737 65.0154L46.156 64.8586L45.9382 64.7019L45.5027 64.3569L44.6317 63.6984L44.1961 63.3535L44.0717 63.2594C44.0095 63.667 44.0095 63.667 44.0095 63.7298L43.9784 63.667L43.854 63.4789L42.7652 62.0051L38.4411 56.1411L37.2589 57.0505L36.0768 57.9599L34.8947 58.9006L33.6815 59.9041L29.2952 63.667L32.8104 66.4265L33.6815 67.1164L34.5836 67.8063L36.3879 69.1861L40.0276 71.9456L40.4942 72.2905L40.712 72.4473L40.9298 72.6041L41.863 73.2626L43.7295 74.5796L49.1424 66.8969L49.0802 66.9283Z" fill="white"/>
</mask>
<g mask="url(#mask7_174_6237)">
<path fill-rule="evenodd" clip-rule="evenodd" d="M44.4761 63.5732L44.1651 63.3223L44.0717 63.2596H44.0406V63.2283C43.9784 63.8241 44.0095 63.5732 43.9784 63.6986L43.8851 63.5732L43.5118 63.0401L42.7341 62.0053L41.2098 59.9357L38.13 55.7964L37.9745 55.6083L37.8189 55.4201L37.6634 55.2633L37.4767 55.1065L37.2901 54.9497L37.1034 54.8243L36.8857 54.6989L36.6679 54.6048L36.4501 54.5107L36.2324 54.4167L35.9835 54.3539L35.7347 54.2912H35.4858L35.2369 54.2285H34.988H34.7392H34.4903H34.2103H33.9304L33.6504 54.2912L33.3704 54.3539L33.0904 54.4167L32.8104 54.5107L32.5305 54.6048L32.2505 54.6989L31.9705 54.8243L31.6905 54.9497L31.4106 55.1065L31.1306 55.2633L30.8506 55.4515L30.6951 55.5455L30.5395 55.671L30.2284 55.9218L30.0107 56.11L29.7929 56.3295L29.6063 56.549L29.4196 56.7685L29.233 56.988L29.0774 57.2075L28.9219 57.427L28.7663 57.6465L28.6419 57.8974L28.5175 58.1483L28.393 58.3991L28.2997 58.65L28.2064 58.9009L28.1442 59.1517L28.082 59.4026L28.0197 59.6535V59.9043L27.9575 60.1552V60.406V60.6569V60.9078V61.1586V61.4095L28.0508 61.629L28.1131 61.8485L28.1753 62.068L28.2686 62.2875L28.3619 62.507L28.4864 62.7265L28.6108 62.9147L28.7352 63.1028L28.8908 63.291L29.1085 63.5418L29.1708 63.6046V63.6359L29.3263 63.7614L29.9485 64.2631L31.1928 65.2352L33.7126 67.1794L38.8766 71.0991L39.1255 71.2873L39.3743 71.4441L39.6232 71.6009L39.8721 71.7576L40.121 71.8831L40.3698 72.0085L40.6187 72.1026L40.7431 72.1653H40.8676L41.1475 72.2907L41.4275 72.3535L41.7075 72.4162H41.9875L42.2363 72.4789H42.4852H42.7341H42.9829H43.2318H43.4807L43.7295 72.4162L43.9784 72.3535L44.2273 72.2907L44.445 72.1967L44.6628 72.1026L44.8806 72.0085L45.0983 71.8831L45.285 71.7576L45.4716 71.6322L45.6583 71.4754L45.8449 71.3186L46.0005 71.1618L46.156 70.9737L46.3115 70.7855L46.436 70.5974L46.5604 70.3779L46.6537 70.1584L46.7471 69.9389L46.8404 69.7194L46.9026 69.4999L46.9648 69.2804V69.0609L47.027 68.81V68.5591V68.3083V68.0574L46.9959 67.8065V67.5557L46.9026 67.3048L46.8404 67.0539L46.7782 66.8031L46.6849 66.5522L46.5915 66.3014L46.4982 66.0505L46.3738 65.831L46.2493 65.6115L46.1249 65.392L45.9694 65.1725L45.8138 64.953L45.6583 64.7334L45.4716 64.5139L45.285 64.2944L45.0983 64.1063L44.8806 63.9181L44.6628 63.73L44.445 63.5418L44.4761 63.5732Z" fill="#F15B87"/>
</g>
<path d="M1441 63.5105C1252.76 -79.3881 1080.27 63.5105 1080.27 63.5105C1268.5 206.409 1441 63.5105 1441 63.5105Z" fill="#F15B87"/>
<path d="M1367.49 63.5106C1253.26 -23.1943 1148.55 63.5106 1148.55 63.5106C1262.78 150.216 1367.49 63.5106 1367.49 63.5106Z" fill="#DE202A"/>
<path fill-rule="evenodd" clip-rule="evenodd" d="M1149.58 78.907C1148.14 78.0917 1146.78 77.2137 1145.38 76.3357C1143.98 75.4577 1142.58 74.611 1141.21 73.7016C1139.15 72.3219 1136.32 72.9804 1134.89 75.1127C1133.46 77.2764 1134.02 80.1614 1136.14 81.6038C1137.57 82.5446 1139.03 83.4226 1140.46 84.332C1141.89 85.2414 1143.32 86.1508 1144.82 86.9974C1147.02 88.2831 1149.86 87.4991 1151.13 85.2414C1152.41 82.9836 1151.69 80.13 1149.58 78.907Z" fill="#DE202A"/>
<path fill-rule="evenodd" clip-rule="evenodd" d="M1172.84 91.0428L1168.4 88.9732C1166.9 88.2833 1165.47 87.5307 1164.01 86.8095C1162.92 86.245 1161.68 86.2137 1160.56 86.6213C1159.47 86.9976 1158.47 87.7816 1157.88 88.9418C1157.29 90.1021 1157.2 91.3877 1157.54 92.5166C1157.91 93.6455 1158.69 94.649 1159.84 95.2134C1161.37 95.966 1162.89 96.75 1164.41 97.4712L1169.05 99.6035C1170.2 100.168 1171.51 100.105 1172.6 99.6663C1173.68 99.1959 1174.62 98.3179 1175.12 97.1263C1175.61 95.9346 1175.61 94.649 1175.18 93.5514C1174.77 92.4539 1173.93 91.5445 1172.84 91.0114V91.0428Z" fill="#DE202A"/>
<path fill-rule="evenodd" clip-rule="evenodd" d="M1197.33 100.262C1195.77 99.7601 1194.22 99.2898 1192.66 98.788L1188.03 97.1574C1186.87 96.7811 1185.66 96.8439 1184.6 97.3456C1183.55 97.8473 1182.68 98.7567 1182.21 99.9797C1181.74 101.203 1181.8 102.488 1182.3 103.586C1182.8 104.683 1183.7 105.593 1184.91 106.032L1189.74 107.725C1191.35 108.258 1193 108.76 1194.62 109.262C1197.08 110.077 1199.66 108.54 1200.34 106.032C1201.03 103.523 1199.66 101.014 1197.36 100.262H1197.33Z" fill="#DE202A"/>
<path fill-rule="evenodd" clip-rule="evenodd" d="M1222.74 106.283L1217.92 105.436L1213.13 104.433C1211.92 104.182 1210.73 104.433 1209.77 105.091C1208.81 105.718 1208.03 106.753 1207.72 108.007C1207.41 109.262 1207.62 110.547 1208.25 111.551C1208.87 112.586 1209.89 113.37 1211.14 113.62L1216.15 114.655L1221.19 115.565C1223.74 116.004 1226.1 114.185 1226.44 111.614C1226.79 109.011 1225.11 106.69 1222.71 106.283H1222.74Z" fill="#DE202A"/>
<path fill-rule="evenodd" clip-rule="evenodd" d="M1248.69 108.823C1247.07 108.823 1245.42 108.697 1243.8 108.603L1241.38 108.478L1238.95 108.289C1237.74 108.195 1236.59 108.634 1235.68 109.387C1234.81 110.171 1234.19 111.268 1234.04 112.554C1233.91 113.84 1234.28 115.094 1235.03 116.004C1235.78 116.913 1236.9 117.54 1238.17 117.666L1240.72 117.885L1243.27 118.01C1244.99 118.105 1246.7 118.23 1248.38 118.23C1250.96 118.293 1253.04 116.254 1253.07 113.62C1253.07 111.049 1251.11 108.885 1248.69 108.823Z" fill="#DE202A"/>
<path fill-rule="evenodd" clip-rule="evenodd" d="M1274.79 107.913L1269.9 108.352C1268.29 108.478 1266.64 108.572 1265.02 108.666C1262.59 108.822 1260.66 110.923 1260.73 113.558C1260.79 116.129 1262.93 118.23 1265.52 118.073C1267.23 117.979 1268.91 117.885 1270.62 117.76L1275.72 117.32C1278.27 117.038 1280.08 114.686 1279.76 112.115C1279.45 109.544 1277.21 107.662 1274.79 107.944V107.913Z" fill="#DE202A"/>
<path fill-rule="evenodd" clip-rule="evenodd" d="M1300.58 103.649L1295.79 104.683L1290.96 105.624C1288.57 106.063 1286.92 108.446 1287.32 111.018C1287.73 113.589 1290.09 115.345 1292.64 114.875L1297.65 113.903L1302.66 112.805C1305.15 112.209 1306.67 109.669 1306.05 107.161C1305.43 104.652 1302.97 103.053 1300.61 103.649H1300.58Z" fill="#DE202A"/>
<path fill-rule="evenodd" clip-rule="evenodd" d="M1325.71 96.2793C1324.19 96.8438 1322.63 97.3769 1321.08 97.8786C1319.52 98.4117 1317.97 98.882 1316.41 99.3838C1314.08 100.136 1312.71 102.676 1313.42 105.185C1314.11 107.662 1316.69 109.167 1319.15 108.384C1320.77 107.882 1322.41 107.38 1324 106.816C1325.62 106.283 1327.24 105.749 1328.82 105.154C1331.25 104.307 1332.46 101.579 1331.53 99.1643C1330.63 96.7183 1328.01 95.4954 1325.71 96.2793Z" fill="#DE202A"/>
<path fill-rule="evenodd" clip-rule="evenodd" d="M1349.95 86.1506C1348.48 86.8719 1346.99 87.5618 1345.5 88.2516C1344 88.9415 1342.51 89.6 1341.02 90.2585C1338.78 91.2306 1337.69 93.9274 1338.68 96.342C1339.65 98.7566 1342.36 99.9168 1344.72 98.882C1346.27 98.1921 1347.83 97.5336 1349.39 96.8124C1350.94 96.1225 1352.47 95.4013 1353.99 94.6487C1356.32 93.5511 1357.23 90.6976 1356.04 88.4084C1354.89 86.0879 1352.15 85.1158 1349.95 86.182V86.1506Z" fill="#DE202A"/>
<path fill-rule="evenodd" clip-rule="evenodd" d="M1372.97 73.5132C1370.17 75.2379 1367.37 76.8999 1364.5 78.5305C1362.36 79.7221 1361.61 82.5443 1362.82 84.8334C1364.04 87.1226 1366.84 88.0006 1369.11 86.7149C1372.06 85.0216 1374.99 83.2969 1377.88 81.5095C1380.06 80.1611 1380.68 77.2448 1379.28 75.0497C1377.88 72.8547 1375.08 72.1961 1373 73.4818L1372.97 73.5132Z" fill="#DE202A"/>
<path fill-rule="evenodd" clip-rule="evenodd" d="M1364.63 48.1446C1366.06 48.9599 1367.43 49.8379 1368.83 50.7159C1370.23 51.594 1371.63 52.4406 1373 53.35C1375.05 54.7298 1377.88 54.0712 1379.31 51.9389C1380.74 49.7752 1380.18 46.8903 1378.07 45.4478C1376.64 44.5071 1375.17 43.629 1373.74 42.7196C1372.31 41.8103 1370.88 40.9009 1369.39 40.0542C1367.18 38.7685 1364.35 39.5525 1363.07 41.8103C1361.8 44.068 1362.51 46.9216 1364.63 48.1446Z" fill="#DE202A"/>
<path fill-rule="evenodd" clip-rule="evenodd" d="M1341.36 36.0094L1345.81 38.079C1347.3 38.7689 1348.73 39.5215 1350.19 40.2427C1351.28 40.8072 1352.53 40.8385 1353.65 40.4309C1354.74 40.0546 1355.73 39.2706 1356.32 38.1104C1356.91 36.9501 1357.01 35.6645 1356.66 34.5356C1356.29 33.4067 1355.51 32.4032 1354.36 31.8388C1352.84 31.0862 1351.31 30.3023 1349.79 29.581L1345.15 27.4487C1344 26.8842 1342.7 26.9469 1341.61 27.386C1340.52 27.8563 1339.59 28.7343 1339.09 29.926C1338.59 31.1176 1338.59 32.4032 1339.03 33.5008C1339.43 34.5983 1340.27 35.5077 1341.36 36.0408V36.0094Z" fill="#DE202A"/>
<path fill-rule="evenodd" clip-rule="evenodd" d="M1316.88 26.7586C1318.43 27.2603 1319.99 27.7307 1321.54 28.2324L1326.18 29.863C1327.33 30.2393 1328.54 30.1766 1329.6 29.6749C1330.66 29.1732 1331.53 28.2638 1332 27.0408C1332.46 25.8179 1332.4 24.5322 1331.9 23.4346C1331.41 22.3371 1330.5 21.4277 1329.29 20.9887L1324.47 19.2954C1322.85 18.7623 1321.2 18.2606 1319.58 17.7588C1317.13 16.9435 1314.54 18.4801 1313.86 20.9887C1313.18 23.4974 1314.54 26.006 1316.85 26.7586H1316.88Z" fill="#DE202A"/>
<path fill-rule="evenodd" clip-rule="evenodd" d="M1291.46 20.7693L1296.28 21.616L1301.07 22.6195C1302.29 22.8703 1303.47 22.6195 1304.43 21.9609C1305.4 21.3338 1306.18 20.299 1306.49 19.0446C1306.8 17.7903 1306.58 16.5046 1305.96 15.5012C1305.34 14.4664 1304.31 13.6824 1303.06 13.4316L1298.06 12.3967L1293.02 11.4874C1290.47 11.0483 1288.1 12.8671 1287.76 15.4385C1287.42 18.0412 1289.1 20.3617 1291.49 20.7693H1291.46Z" fill="#DE202A"/>
<path fill-rule="evenodd" clip-rule="evenodd" d="M1265.52 18.1979C1267.13 18.1979 1268.78 18.3233 1270.4 18.4174L1272.83 18.5428L1275.25 18.731C1276.47 18.825 1277.62 18.386 1278.52 17.6334C1279.39 16.8495 1280.01 15.752 1280.17 14.4663C1280.29 13.1806 1279.92 11.9263 1279.17 11.0169C1278.43 10.1075 1277.31 9.48035 1276.03 9.35492L1273.48 9.13541L1270.93 9.00998C1269.22 8.9159 1267.51 8.79047 1265.83 8.79047C1263.25 8.72776 1261.16 10.766 1261.13 13.4001C1261.13 15.9715 1263.09 18.1352 1265.52 18.1979Z" fill="#DE202A"/>
<path fill-rule="evenodd" clip-rule="evenodd" d="M1239.42 19.1385L1244.3 18.6994C1245.92 18.574 1247.57 18.4799 1249.19 18.3859C1251.61 18.2291 1253.54 16.1281 1253.48 13.494C1253.42 10.9227 1251.27 8.82167 1248.69 8.97846C1246.98 9.07253 1245.3 9.16661 1243.59 9.29204L1238.48 9.73105C1235.93 10.0133 1234.13 12.3651 1234.44 14.9365C1234.75 17.5078 1236.99 19.3893 1239.42 19.1071V19.1385Z" fill="#DE202A"/>
<path fill-rule="evenodd" clip-rule="evenodd" d="M1213.63 23.4035L1218.42 22.3687L1223.24 21.428C1225.64 20.989 1227.28 18.6058 1226.88 16.0344C1226.48 13.463 1224.11 11.707 1221.56 12.1774L1216.55 13.1495L1211.54 14.247C1209.05 14.8428 1207.53 17.3828 1208.15 19.8914C1208.77 22.4001 1211.23 23.9993 1213.6 23.4035H1213.63Z" fill="#DE202A"/>
<path fill-rule="evenodd" clip-rule="evenodd" d="M1188.49 30.7409C1190.02 30.1765 1191.57 29.6434 1193.13 29.1417C1194.68 28.6086 1196.24 28.1382 1197.79 27.6365C1200.13 26.8839 1201.5 24.3439 1200.78 21.8353C1200.1 19.358 1197.51 17.8528 1195.06 18.6367C1193.44 19.1385 1191.79 19.6402 1190.2 20.2046C1188.59 20.7377 1186.97 21.2708 1185.38 21.8666C1182.95 22.7133 1181.74 25.4414 1182.68 27.856C1183.58 30.3019 1186.19 31.5249 1188.49 30.7409Z" fill="#DE202A"/>
<path fill-rule="evenodd" clip-rule="evenodd" d="M1164.26 40.8699C1165.72 40.1486 1167.21 39.4588 1168.71 38.7689C1170.2 38.079 1171.69 37.4205 1173.19 36.762C1175.43 35.7899 1176.52 33.0931 1175.52 30.6785C1174.56 28.2639 1171.85 27.1037 1169.48 28.1385C1167.93 28.8284 1166.37 29.4869 1164.82 30.2081C1163.26 30.898 1161.74 31.6193 1160.21 32.3719C1157.88 33.4694 1156.98 36.323 1158.16 38.6121C1159.31 40.9326 1162.05 41.9047 1164.26 40.8385V40.8699Z" fill="#DE202A"/>
<path fill-rule="evenodd" clip-rule="evenodd" d="M1141.24 53.5071C1144.04 51.7824 1146.84 50.1204 1149.7 48.4898C1151.85 47.2982 1152.59 44.476 1151.38 42.1868C1150.17 39.8977 1147.37 39.0197 1145.1 40.3054C1142.14 41.9987 1139.22 43.7234 1136.32 45.5108C1134.15 46.8592 1133.52 49.7755 1134.92 51.9705C1136.32 54.1656 1139.12 54.8241 1141.21 53.5384L1141.24 53.5071Z" fill="#DE202A"/>
<mask id="mask8_174_6237" style="mask-type:luminance" maskUnits="userSpaceOnUse" x="1382" y="56" width="21" height="19">
<path d="M1382.95 66.9598L1384.72 65.7055L1386.5 64.4198L1387.37 63.7613L1387.8 63.4477L1387.93 63.3536C1387.87 63.7613 1387.87 63.7613 1387.87 63.824L1387.9 63.7613L1388.02 63.5731L1389.11 62.0993L1393.44 56.2354L1398.1 59.7788L1402.64 63.3223L1399.22 66.2386L1398.38 66.9598L1397.45 67.7437L1396.55 68.4963L1395.64 69.2176L1393.81 70.6287L1391.97 72.0084L1390.11 73.3568L1388.24 74.6739L1382.92 66.9284L1382.95 66.9598Z" fill="white"/>
</mask>
<g mask="url(#mask8_174_6237)">
<path fill-rule="evenodd" clip-rule="evenodd" d="M1393.78 55.8591L1390.7 60.0297L1389.17 62.0994L1388.4 63.1342L1388.02 63.6673L1387.93 63.7927C1387.99 63.3851 1387.99 63.3851 1387.99 63.3223H1387.96L1387.9 63.4164L1387.59 63.6359L1387.37 63.8241L1387.15 64.0122L1386.93 64.2004L1386.75 64.3885L1386.56 64.5767L1386.37 64.7962L1386.22 65.0157L1386.06 65.2352L1385.91 65.4547L1385.78 65.6742L1385.66 65.8937L1385.53 66.1132L1385.44 66.3641L1385.35 66.6149L1385.25 66.8658L1385.19 67.1167L1385.13 67.3675L1385.07 67.6184V67.8693L1385 68.1201V68.371V68.6218V68.8727L1385.04 69.1236V69.3431L1385.13 69.5626L1385.19 69.7821L1385.25 70.0016L1385.35 70.2211L1385.44 70.4406L1385.56 70.6601L1385.69 70.8483L1385.84 71.0364L1386 71.2246L1386.16 71.3814L1386.34 71.5381L1386.53 71.6949L1386.72 71.8204L1386.9 71.9458L1387.12 72.0712L1387.34 72.1653L1387.56 72.2594L1387.77 72.3535L1387.99 72.4162L1388.24 72.4789H1388.49L1388.74 72.5416H1388.99H1389.24H1389.48H1389.73H1389.98L1390.26 72.4789L1390.54 72.4162L1390.82 72.3535L1391.1 72.2907L1391.38 72.1967L1391.66 72.1026L1391.91 71.9772L1392.16 71.8517L1392.41 71.7263L1392.66 71.5695L1392.91 71.4127L1393.15 71.2246L1394.46 70.2525L1395.77 69.249L1397.07 68.2142L1398.41 67.1167L1400.84 65.047L1402.05 64.0122L1402.64 63.5105L1402.8 63.3851V63.3223L1402.86 63.2596L1403.05 63.0088L1403.2 62.8206L1403.33 62.6325L1403.45 62.413L1403.55 62.1935L1403.64 61.9739L1403.7 61.7544L1403.76 61.5349L1403.83 61.3154V61.0646L1403.89 60.8137V60.5628V60.312V60.0611L1403.86 59.8102V59.5594L1403.76 59.3085L1403.7 59.0576L1403.64 58.8068L1403.55 58.5559L1403.45 58.3051L1403.33 58.0542L1403.2 57.8033L1403.08 57.5525L1402.92 57.333L1402.77 57.1134L1402.61 56.8939L1402.43 56.6744L1402.24 56.4549L1402.05 56.2354L1401.83 56.0473L1401.62 55.8591L1401.4 55.671L1401.15 55.4828L1400.9 55.326L1400.65 55.1693L1400.4 55.0125L1400.15 54.887L1399.91 54.7616L1399.63 54.6675L1399.35 54.5734L1399.07 54.4794L1398.79 54.4167L1398.51 54.3539L1398.23 54.2912H1397.95L1397.7 54.2285H1397.45H1397.2H1396.95L1396.7 54.2599H1396.45L1396.2 54.3539L1395.95 54.4167L1395.74 54.4794L1395.52 54.5734L1395.3 54.6675L1395.08 54.7616L1394.87 54.887L1394.68 55.0125L1394.49 55.1693L1394.31 55.326L1394.15 55.4828L1393.99 55.671L1393.84 55.8591H1393.78Z" fill="#DE202A"/>
</g>
<mask id="mask9_174_6237" style="mask-type:luminance" maskUnits="userSpaceOnUse" x="1382" y="52" width="21" height="19">
<path d="M1382.89 60.0923L1384.69 61.378L1385.6 62.0051L1385.81 62.1619L1386.03 62.3187L1386.47 62.6636L1387.34 63.3222L1387.77 63.6671L1387.9 63.7612C1387.96 63.3535 1387.96 63.3535 1387.96 63.2908L1387.99 63.3535L1388.12 63.5417L1389.2 65.0155L1393.53 70.8794L1394.71 69.9701L1395.89 69.0607L1397.07 68.1199L1398.29 67.1165L1402.67 63.3535L1399.16 60.594L1398.29 59.9041L1397.39 59.2143L1395.58 57.8345L1391.94 55.075L1391.48 54.7301L1391.26 54.5733L1391.04 54.4165L1390.11 53.758L1388.24 52.4409L1382.83 60.1236L1382.89 60.0923Z" fill="white"/>
</mask>
<g mask="url(#mask9_174_6237)">
<path fill-rule="evenodd" clip-rule="evenodd" d="M1387.46 63.4477L1387.77 63.6985L1387.87 63.7613H1387.9V63.7926C1387.96 63.1968 1387.93 63.4477 1387.96 63.3222L1388.05 63.4477L1388.43 63.9808L1389.2 65.0156L1390.73 67.0852L1393.81 71.2245L1393.96 71.4126L1394.12 71.6008L1394.27 71.7575L1394.46 71.9143L1394.65 72.0711L1394.83 72.1966L1395.05 72.322L1395.27 72.4161L1395.49 72.5101L1395.71 72.6042L1395.95 72.6669L1396.2 72.7297H1396.45L1396.7 72.7924H1396.95H1397.2H1397.45H1397.73H1398.01L1398.29 72.7297L1398.57 72.6669L1398.85 72.6042L1399.13 72.5101L1399.41 72.4161L1399.69 72.322L1399.97 72.1966L1400.25 72.0711L1400.53 71.9143L1400.81 71.7575L1401.09 71.5694L1401.24 71.4753L1401.4 71.3499L1401.71 71.099L1401.93 70.9109L1402.15 70.6914L1402.33 70.4719L1402.52 70.2524L1402.71 70.0329L1402.86 69.8134L1403.02 69.5938L1403.17 69.3743L1403.3 69.1235L1403.42 68.8726L1403.55 68.6217L1403.64 68.3709L1403.73 68.12L1403.79 67.8692L1403.86 67.6183L1403.92 67.3674V67.1166L1403.98 66.8657V66.6148V66.364V66.1131V65.8622V65.6114L1403.89 65.3919L1403.83 65.1724L1403.76 64.9529L1403.67 64.7334L1403.58 64.5138L1403.45 64.2943L1403.33 64.1062L1403.2 63.918L1403.05 63.7299L1402.83 63.479L1402.77 63.4163V63.385L1402.61 63.2595L1401.99 62.7578L1400.75 61.7857L1398.23 59.8415L1393.06 55.9217L1392.81 55.7336L1392.56 55.5768L1392.31 55.42L1392.07 55.2632L1391.82 55.1378L1391.57 55.0124L1391.32 54.9183L1391.2 54.8556H1391.07L1390.79 54.7301L1390.51 54.6674L1390.23 54.6047H1389.95L1389.7 54.542H1389.45H1389.2H1388.96H1388.71H1388.46L1388.21 54.6047L1387.96 54.6674L1387.71 54.7301L1387.49 54.8242L1387.28 54.9183L1387.06 55.0124L1386.84 55.1378L1386.65 55.2632L1386.47 55.3887L1386.28 55.5454L1386.09 55.7022L1385.94 55.859L1385.78 56.0472L1385.63 56.2353L1385.5 56.4235L1385.38 56.643L1385.28 56.8625L1385.19 57.082L1385.1 57.3015L1385.04 57.521L1384.97 57.7405V57.96L1384.91 58.2109V58.4617V58.7126V58.9635L1384.94 59.2143V59.4652L1385.04 59.7161L1385.1 59.9669L1385.16 60.2178L1385.25 60.4687L1385.35 60.7195L1385.44 60.9704L1385.56 61.1899L1385.69 61.4094L1385.81 61.6289L1385.97 61.8484L1386.12 62.0679L1386.28 62.2874L1386.47 62.5069L1386.65 62.7264L1386.84 62.9146L1387.06 63.1027L1387.28 63.2909L1387.49 63.479L1387.46 63.4477Z" fill="#DE202A"/>
</g>
<mask id="mask10_174_6237" style="mask-type:luminance" maskUnits="userSpaceOnUse" x="1111" y="52" width="21" height="19">
<path d="M1131.25 60.092L1129.48 61.3463L1127.71 62.632L1126.83 63.2905L1126.4 63.6041L1126.27 63.6982C1126.34 63.2905 1126.34 63.2905 1126.34 63.2278L1126.31 63.2905L1126.18 63.4787L1125.09 64.9525L1120.77 70.8164L1116.1 67.273L1111.56 63.7295L1114.98 60.8132L1115.82 60.092L1116.76 59.3081L1117.66 58.5555L1118.56 57.8342L1120.4 56.4231L1122.23 55.0434L1124.1 53.695L1125.96 52.3779L1131.28 60.1234L1131.25 60.092Z" fill="white"/>
</mask>
<g mask="url(#mask10_174_6237)">
<path fill-rule="evenodd" clip-rule="evenodd" d="M1120.43 71.1615L1123.51 66.9909L1125.03 64.9212L1125.81 63.8864L1126.18 63.3533L1126.27 63.2279C1126.21 63.6355 1126.21 63.6355 1126.21 63.6983H1126.24L1126.31 63.6042L1126.62 63.3847L1126.83 63.1965L1127.05 63.0084L1127.27 62.8202L1127.46 62.6321L1127.64 62.4439L1127.83 62.2244L1127.99 62.0049L1128.14 61.7854L1128.3 61.5659L1128.42 61.3464L1128.55 61.1269L1128.67 60.9074L1128.76 60.6565L1128.86 60.4057L1128.95 60.1548L1129.01 59.9039L1129.07 59.6531L1129.14 59.4022V59.1513L1129.2 58.9005V58.6496V58.3988V58.1479L1129.17 57.897V57.6775L1129.07 57.458L1129.01 57.2385L1128.95 57.019L1128.86 56.7995L1128.76 56.58L1128.64 56.3605L1128.51 56.1723L1128.36 55.9842L1128.2 55.796L1128.05 55.6392L1127.86 55.4825L1127.67 55.3257L1127.49 55.2002L1127.3 55.0748L1127.08 54.9494L1126.87 54.8553L1126.65 54.7612L1126.43 54.6672L1126.21 54.6044L1125.96 54.5417H1125.71L1125.47 54.479H1125.22H1124.97H1124.72H1124.47H1124.22L1123.94 54.5417L1123.66 54.6044L1123.38 54.6672L1123.1 54.7299L1122.82 54.8239L1122.54 54.918L1122.29 55.0434L1122.04 55.1689L1121.8 55.2943L1121.55 55.4511L1121.3 55.6079L1121.05 55.796L1119.74 56.7681L1118.44 57.7716L1117.13 58.8064L1115.79 59.9039L1113.36 61.9736L1112.15 63.0084L1111.56 63.5101L1111.4 63.6355V63.6983L1111.34 63.761L1111.16 64.0118L1111 64.2L1110.88 64.3881L1110.75 64.6076L1110.66 64.8271L1110.57 65.0467L1110.5 65.2662L1110.44 65.4857L1110.38 65.7052V65.956L1110.32 66.2069V66.4578V66.7086V66.9595L1110.35 67.2104V67.4612L1110.44 67.7121L1110.5 67.963L1110.57 68.2138L1110.66 68.4647L1110.75 68.7155L1110.88 68.9664L1111 69.2173L1111.13 69.4681L1111.28 69.6876L1111.44 69.9072L1111.59 70.1267L1111.78 70.3462L1111.96 70.5657L1112.15 70.7852L1112.37 70.9733L1112.59 71.1615L1112.8 71.3496L1113.05 71.5378L1113.3 71.6946L1113.55 71.8513L1113.8 72.0081L1114.05 72.1336L1114.3 72.259L1114.58 72.3531L1114.86 72.4472L1115.14 72.5412L1115.42 72.6039L1115.7 72.6667L1115.98 72.7294H1116.26L1116.51 72.7921H1116.76H1117H1117.25L1117.5 72.7607H1117.75L1118 72.6667L1118.25 72.6039L1118.47 72.5412L1118.68 72.4472L1118.9 72.3531L1119.12 72.259L1119.34 72.1336L1119.52 72.0081L1119.71 71.8513L1119.9 71.6946L1120.05 71.5378L1120.21 71.3496L1120.36 71.1615H1120.43Z" fill="#DE202A"/>
</g>
<mask id="mask11_174_6237" style="mask-type:luminance" maskUnits="userSpaceOnUse" x="1111" y="56" width="21" height="19">
<path d="M1131.31 66.9283L1129.51 65.6426L1128.61 65.0154L1128.39 64.8586L1128.17 64.7019L1127.74 64.3569L1126.87 63.6984L1126.43 63.3535L1126.31 63.2594C1126.24 63.667 1126.24 63.667 1126.24 63.7298L1126.21 63.667L1126.09 63.4789L1125 62.0051L1120.68 56.1411L1119.49 57.0505L1118.31 57.9599L1117.13 58.9006L1115.92 59.9041L1111.53 63.667L1115.04 66.4265L1115.92 67.1164L1116.82 67.8063L1118.62 69.1861L1122.26 71.9456L1122.73 72.2905L1122.95 72.4473L1123.16 72.6041L1124.1 73.2626L1125.96 74.5796L1131.38 66.8969L1131.31 66.9283Z" fill="white"/>
</mask>
<g mask="url(#mask11_174_6237)">
<path fill-rule="evenodd" clip-rule="evenodd" d="M1126.74 63.5732L1126.43 63.3223L1126.34 63.2596H1126.31V63.2283C1126.24 63.8241 1126.28 63.5732 1126.24 63.6986L1126.15 63.5732L1125.78 63.0401L1125 62.0053L1123.48 59.9357L1120.4 55.7964L1120.24 55.6083L1120.08 55.4201L1119.93 55.2633L1119.74 55.1065L1119.56 54.9497L1119.37 54.8243L1119.15 54.6989L1118.93 54.6048L1118.72 54.5107L1118.5 54.4167L1118.25 54.3539L1118 54.2912H1117.75L1117.5 54.2285H1117.25H1117H1116.76H1116.48H1116.2L1115.92 54.2912L1115.64 54.3539L1115.36 54.4167L1115.08 54.5107L1114.8 54.6048L1114.52 54.6989L1114.24 54.8243L1113.96 54.9497L1113.68 55.1065L1113.4 55.2633L1113.12 55.4515L1112.96 55.5455L1112.81 55.671L1112.49 55.9218L1112.28 56.11L1112.06 56.3295L1111.87 56.549L1111.69 56.7685L1111.5 56.988L1111.34 57.2075L1111.19 57.427L1111.03 57.6465L1110.91 57.8974L1110.78 58.1483L1110.66 58.3991L1110.57 58.65L1110.47 58.9009L1110.41 59.1517L1110.35 59.4026L1110.29 59.6535V59.9043L1110.22 60.1552V60.406V60.6569V60.9078V61.1586V61.4095L1110.32 61.629L1110.38 61.8485L1110.44 62.068L1110.53 62.2875L1110.63 62.507L1110.75 62.7265L1110.88 62.9147L1111 63.1028L1111.16 63.291L1111.37 63.5418L1111.44 63.6046V63.6359L1111.59 63.7614L1112.21 64.2631L1113.46 65.2352L1115.98 67.1794L1121.14 71.0991L1121.39 71.2873L1121.64 71.4441L1121.89 71.6009L1122.14 71.7576L1122.39 71.8831L1122.64 72.0085L1122.88 72.1026L1123.01 72.1653H1123.13L1123.41 72.2907L1123.69 72.3535L1123.97 72.4162H1124.25L1124.5 72.4789H1124.75H1125H1125.25H1125.5H1125.75L1126 72.4162L1126.24 72.3535L1126.49 72.2907L1126.71 72.1967L1126.93 72.1026L1127.15 72.0085L1127.36 71.8831L1127.55 71.7576L1127.74 71.6322L1127.92 71.4754L1128.11 71.3186L1128.27 71.1618L1128.42 70.9737L1128.58 70.7855L1128.7 70.5974L1128.83 70.3779L1128.92 70.1584L1129.01 69.9389L1129.11 69.7194L1129.17 69.4999L1129.23 69.2804V69.0609L1129.29 68.81V68.5591V68.3083V68.0574L1129.26 67.8065V67.5557L1129.17 67.3048L1129.11 67.0539L1129.04 66.8031L1128.95 66.5522L1128.86 66.3014L1128.76 66.0505L1128.64 65.831L1128.51 65.6115L1128.39 65.392L1128.24 65.1725L1128.08 64.953L1127.92 64.7334L1127.74 64.5139L1127.55 64.2944L1127.36 64.1063L1127.15 63.9181L1126.93 63.73L1126.71 63.5418L1126.74 63.5732Z" fill="#DE202A"/>
</g>
<path d="M1080.23 63.5105C891.997 -79.3881 719.5 63.5105 719.5 63.5105C907.738 206.409 1080.23 63.5105 1080.23 63.5105Z" fill="#6E160C"/>
<path d="M1006.73 63.5106C892.495 -23.1943 787.783 63.5106 787.783 63.5106C902.014 150.216 1006.73 63.5106 1006.73 63.5106Z" fill="#F5921C"/>
<path fill-rule="evenodd" clip-rule="evenodd" d="M788.841 78.907C787.41 78.0917 786.041 77.2137 784.641 76.3357C783.242 75.4577 781.842 74.611 780.473 73.7016C778.42 72.3219 775.589 72.9804 774.158 75.1127C772.727 77.2764 773.287 80.1614 775.402 81.6038C776.833 82.5446 778.295 83.4226 779.726 84.332C781.157 85.2414 782.588 86.1508 784.082 86.9974C786.29 88.2831 789.121 87.4991 790.397 85.2414C791.672 82.9836 790.957 80.13 788.841 78.907Z" fill="#F5921C"/>
<path fill-rule="evenodd" clip-rule="evenodd" d="M812.11 91.0428L807.662 88.9732C806.168 88.2833 804.737 87.5307 803.275 86.8095C802.186 86.245 800.942 86.2137 799.822 86.6213C798.733 86.9976 797.738 87.7816 797.147 88.9418C796.556 90.1021 796.463 91.3877 796.805 92.5166C797.178 93.6455 797.956 94.649 799.107 95.2134C800.631 95.966 802.155 96.75 803.68 97.4712L808.315 99.6035C809.466 100.168 810.772 100.105 811.861 99.6663C812.95 99.1959 813.883 98.3179 814.381 97.1263C814.879 95.9346 814.879 94.649 814.443 93.5514C814.039 92.4539 813.199 91.5445 812.11 91.0114V91.0428Z" fill="#F5921C"/>
<path fill-rule="evenodd" clip-rule="evenodd" d="M836.562 100.262C835.006 99.7601 833.451 99.2898 831.895 98.788L827.26 97.1574C826.109 96.7811 824.896 96.8439 823.838 97.3456C822.78 97.8473 821.909 98.7567 821.443 99.9797C820.976 101.203 821.038 102.488 821.536 103.586C822.034 104.683 822.936 105.593 824.149 106.032L828.971 107.725C830.589 108.258 832.237 108.76 833.855 109.262C836.313 110.077 838.895 108.54 839.579 106.032C840.263 103.523 838.895 101.014 836.593 100.262H836.562Z" fill="#F5921C"/>
<path fill-rule="evenodd" clip-rule="evenodd" d="M861.977 106.283L857.155 105.436L852.365 104.433C851.151 104.182 849.969 104.433 849.005 105.091C848.04 105.718 847.263 106.753 846.952 108.007C846.641 109.262 846.858 110.547 847.48 111.551C848.103 112.586 849.129 113.37 850.374 113.62L855.382 114.655L860.422 115.565C862.973 116.004 865.337 114.185 865.679 111.614C866.021 109.011 864.341 106.69 861.946 106.283H861.977Z" fill="#F5921C"/>
<path fill-rule="evenodd" clip-rule="evenodd" d="M887.953 108.823C886.335 108.823 884.686 108.697 883.069 108.603L880.642 108.478L878.216 108.289C877.002 108.195 875.851 108.634 874.949 109.387C874.078 110.171 873.456 111.268 873.3 112.554C873.176 113.84 873.549 115.094 874.296 116.004C875.043 116.913 876.162 117.54 877.438 117.666L879.989 117.885L882.54 118.01C884.251 118.105 885.962 118.23 887.642 118.23C890.224 118.293 892.308 116.254 892.339 113.62C892.339 111.049 890.379 108.885 887.953 108.823Z" fill="#F5921C"/>
<path fill-rule="evenodd" clip-rule="evenodd" d="M914.053 107.913L909.169 108.352C907.551 108.478 905.902 108.572 904.285 108.666C901.858 108.822 899.929 110.923 899.992 113.558C900.054 116.129 902.2 118.23 904.782 118.073C906.493 117.979 908.173 117.885 909.884 117.76L914.986 117.32C917.537 117.038 919.341 114.686 919.03 112.115C918.719 109.544 916.479 107.662 914.053 107.944V107.913Z" fill="#F5921C"/>
<path fill-rule="evenodd" clip-rule="evenodd" d="M939.842 103.649L935.051 104.683L930.229 105.624C927.834 106.063 926.185 108.446 926.589 111.018C926.994 113.589 929.358 115.345 931.909 114.875L936.917 113.903L941.926 112.805C944.415 112.209 945.939 109.669 945.317 107.161C944.694 104.652 942.237 103.053 939.873 103.649H939.842Z" fill="#F5921C"/>
<path fill-rule="evenodd" clip-rule="evenodd" d="M964.977 96.2793C963.453 96.8438 961.898 97.3769 960.342 97.8786C958.787 98.4117 957.231 98.882 955.676 99.3838C953.343 100.136 951.974 102.676 952.69 105.185C953.374 107.662 955.956 109.167 958.414 108.384C960.031 107.882 961.68 107.38 963.266 106.816C964.884 106.283 966.502 105.749 968.088 105.154C970.515 104.307 971.728 101.579 970.795 99.1643C969.893 96.7183 967.279 95.4954 964.977 96.2793Z" fill="#F5921C"/>
<path fill-rule="evenodd" clip-rule="evenodd" d="M989.211 86.1506C987.749 86.8719 986.256 87.5618 984.762 88.2516C983.269 88.9415 981.776 89.6 980.283 90.2585C978.043 91.2306 976.954 93.9274 977.95 96.342C978.914 98.7566 981.62 99.9168 983.985 98.882C985.54 98.1921 987.095 97.5336 988.651 96.8124C990.206 96.1225 991.731 95.4013 993.255 94.6487C995.588 93.5511 996.49 90.6976 995.308 88.4084C994.157 86.0879 991.42 85.1158 989.211 86.182V86.1506Z" fill="#F5921C"/>
<path fill-rule="evenodd" clip-rule="evenodd" d="M1012.23 73.5132C1009.43 75.2379 1006.63 76.8999 1003.77 78.5305C1001.62 79.7221 1000.88 82.5443 1002.09 84.8334C1003.3 87.1226 1006.1 88.0006 1008.37 86.7149C1011.33 85.0216 1014.25 83.2969 1017.15 81.5095C1019.32 80.1611 1019.95 77.2448 1018.55 75.0497C1017.15 72.8547 1014.35 72.1961 1012.26 73.4818L1012.23 73.5132Z" fill="#F5921C"/>
<path fill-rule="evenodd" clip-rule="evenodd" d="M1003.86 48.1446C1005.29 48.9599 1006.66 49.8379 1008.06 50.7159C1009.46 51.594 1010.86 52.4406 1012.23 53.35C1014.28 54.7298 1017.12 54.0712 1018.55 51.9389C1019.98 49.7752 1019.42 46.8903 1017.3 45.4478C1015.87 44.5071 1014.41 43.629 1012.98 42.7196C1011.55 41.8103 1010.12 40.9009 1008.62 40.0542C1006.41 38.7685 1003.58 39.5525 1002.31 41.8103C1001.03 44.068 1001.75 46.9216 1003.86 48.1446Z" fill="#F5921C"/>
<path fill-rule="evenodd" clip-rule="evenodd" d="M980.594 36.0094L985.042 38.079C986.536 38.7689 987.967 39.5215 989.429 40.2427C990.517 40.8072 991.762 40.8385 992.882 40.4309C993.97 40.0546 994.966 39.2706 995.557 38.1104C996.148 36.9501 996.241 35.6645 995.899 34.5356C995.526 33.4067 994.748 32.4032 993.597 31.8388C992.073 31.0862 990.549 30.3023 989.024 29.581L984.389 27.4487C983.238 26.8842 981.931 26.9469 980.843 27.386C979.754 27.8563 978.821 28.7343 978.323 29.926C977.825 31.1176 977.825 32.4032 978.261 33.5008C978.665 34.5983 979.505 35.5077 980.594 36.0408V36.0094Z" fill="#F5921C"/>
<path fill-rule="evenodd" clip-rule="evenodd" d="M956.142 26.7586C957.698 27.2603 959.253 27.7307 960.809 28.2324L965.444 29.863C966.595 30.2393 967.808 30.1766 968.866 29.6749C969.924 29.1732 970.795 28.2638 971.261 27.0408C971.728 25.8179 971.666 24.5322 971.168 23.4346C970.67 22.3371 969.768 21.4277 968.555 20.9887L963.733 19.2954C962.115 18.7623 960.467 18.2606 958.849 17.7588C956.391 16.9435 953.809 18.4801 953.125 20.9887C952.441 23.4974 953.809 26.006 956.111 26.7586H956.142Z" fill="#F5921C"/>
<path fill-rule="evenodd" clip-rule="evenodd" d="M930.727 20.7693L935.549 21.616L940.339 22.6195C941.553 22.8703 942.735 22.6195 943.699 21.9609C944.663 21.3338 945.441 20.299 945.752 19.0446C946.063 17.7903 945.846 16.5046 945.223 15.5012C944.601 14.4664 943.575 13.6824 942.33 13.4316L937.322 12.3967L932.282 11.4874C929.731 11.0483 927.367 12.8671 927.025 15.4385C926.683 18.0412 928.363 20.3617 930.758 20.7693H930.727Z" fill="#F5921C"/>
<path fill-rule="evenodd" clip-rule="evenodd" d="M904.751 18.1979C906.369 18.1979 908.018 18.3233 909.635 18.4174L912.062 18.5428L914.488 18.731C915.701 18.825 916.852 18.386 917.755 17.6334C918.626 16.8495 919.248 15.752 919.403 14.4663C919.528 13.1806 919.155 11.9263 918.408 11.0169C917.661 10.1075 916.541 9.48035 915.266 9.35492L912.715 9.13541L910.164 9.00998C908.453 8.9159 906.742 8.79047 905.062 8.79047C902.48 8.72776 900.396 10.766 900.365 13.4001C900.365 15.9715 902.325 18.1352 904.751 18.1979Z" fill="#F5921C"/>
<path fill-rule="evenodd" clip-rule="evenodd" d="M878.682 19.1385L883.566 18.6994C885.184 18.574 886.833 18.4799 888.45 18.3859C890.877 18.2291 892.806 16.1281 892.743 13.494C892.681 10.9227 890.535 8.82167 887.953 8.97846C886.242 9.07253 884.562 9.16661 882.851 9.29204L877.749 9.73105C875.198 10.0133 873.394 12.3651 873.705 14.9365C874.016 17.5078 876.256 19.3893 878.682 19.1071V19.1385Z" fill="#F5921C"/>
<path fill-rule="evenodd" clip-rule="evenodd" d="M852.862 23.4035L857.653 22.3687L862.475 21.428C864.87 20.989 866.519 18.6058 866.114 16.0344C865.71 13.463 863.346 11.707 860.795 12.1774L855.786 13.1495L850.778 14.247C848.289 14.8428 846.765 17.3828 847.387 19.8914C848.009 22.4001 850.467 23.9993 852.831 23.4035H852.862Z" fill="#F5921C"/>
<path fill-rule="evenodd" clip-rule="evenodd" d="M827.726 30.7409C829.251 30.1765 830.806 29.6434 832.362 29.1417C833.917 28.6086 835.472 28.1382 837.028 27.6365C839.361 26.8839 840.73 24.3439 840.014 21.8353C839.33 19.358 836.748 17.8528 834.29 18.6367C832.673 19.1385 831.024 19.6402 829.437 20.2046C827.82 20.7377 826.202 21.2708 824.616 21.8666C822.189 22.7133 820.976 25.4414 821.909 27.856C822.811 30.3019 825.424 31.5249 827.726 30.7409Z" fill="#F5921C"/>
<path fill-rule="evenodd" clip-rule="evenodd" d="M803.524 40.8699C804.986 40.1486 806.479 39.4588 807.973 38.7689C809.466 38.079 810.959 37.4205 812.452 36.762C814.692 35.7899 815.781 33.0931 814.785 30.6785C813.821 28.2639 811.114 27.1037 808.75 28.1385C807.195 28.8284 805.639 29.4869 804.084 30.2081C802.529 30.898 801.004 31.6193 799.48 32.3719C797.147 33.4694 796.245 36.323 797.427 38.6121C798.578 40.9326 801.315 41.9047 803.524 40.8385V40.8699Z" fill="#F5921C"/>
<path fill-rule="evenodd" clip-rule="evenodd" d="M780.473 53.5071C783.272 51.7824 786.072 50.1204 788.934 48.4898C791.081 47.2982 791.827 44.476 790.614 42.1868C789.401 39.8977 786.601 39.0197 784.33 40.3054C781.375 41.9987 778.451 43.7234 775.558 45.5108C773.38 46.8592 772.758 49.7755 774.158 51.9705C775.558 54.1656 778.357 54.8241 780.442 53.5384L780.473 53.5071Z" fill="#F5921C"/>
<mask id="mask12_174_6237" style="mask-type:luminance" maskUnits="userSpaceOnUse" x="1022" y="56" width="20" height="19">
<path d="M1022.22 66.9598L1023.99 65.7055L1025.76 64.4198L1026.63 63.7613L1027.07 63.4477L1027.19 63.3536C1027.13 63.7613 1027.13 63.7613 1027.13 63.824L1027.16 63.7613L1027.29 63.5731L1028.38 62.0993L1032.7 56.2354L1037.37 59.7788L1041.91 63.3223L1038.49 66.2386L1037.65 66.9598L1036.71 67.7437L1035.81 68.4963L1034.91 69.2176L1033.07 70.6287L1031.24 72.0084L1029.37 73.3568L1027.51 74.6739L1022.19 66.9284L1022.22 66.9598Z" fill="white"/>
</mask>
<g mask="url(#mask12_174_6237)">
<path fill-rule="evenodd" clip-rule="evenodd" d="M1033.04 55.8591L1029.96 60.0297L1028.44 62.0994L1027.66 63.1342L1027.29 63.6673L1027.19 63.7927C1027.26 63.3851 1027.26 63.3851 1027.26 63.3223H1027.23L1027.16 63.4164L1026.85 63.6359L1026.63 63.8241L1026.42 64.0122L1026.2 64.2004L1026.01 64.3885L1025.83 64.5767L1025.64 64.7962L1025.48 65.0157L1025.33 65.2352L1025.17 65.4547L1025.05 65.6742L1024.92 65.8937L1024.8 66.1132L1024.71 66.3641L1024.61 66.6149L1024.52 66.8658L1024.46 67.1167L1024.39 67.3675L1024.33 67.6184V67.8693L1024.27 68.1201V68.371V68.6218V68.8727L1024.3 69.1236V69.3431L1024.39 69.5626L1024.46 69.7821L1024.52 70.0016L1024.61 70.2211L1024.71 70.4406L1024.83 70.6601L1024.95 70.8483L1025.11 71.0364L1025.27 71.2246L1025.42 71.3814L1025.61 71.5381L1025.79 71.6949L1025.98 71.8204L1026.17 71.9458L1026.39 72.0712L1026.6 72.1653L1026.82 72.2594L1027.04 72.3535L1027.26 72.4162L1027.51 72.4789H1027.75L1028 72.5416H1028.25H1028.5H1028.75H1029H1029.25L1029.53 72.4789L1029.81 72.4162L1030.09 72.3535L1030.37 72.2907L1030.65 72.1967L1030.93 72.1026L1031.18 71.9772L1031.43 71.8517L1031.67 71.7263L1031.92 71.5695L1032.17 71.4127L1032.42 71.2246L1033.73 70.2525L1035.03 69.249L1036.34 68.2142L1037.68 67.1167L1040.1 65.047L1041.32 64.0122L1041.91 63.5105L1042.06 63.3851V63.3223L1042.13 63.2596L1042.31 63.0088L1042.47 62.8206L1042.59 62.6325L1042.72 62.413L1042.81 62.1935L1042.9 61.9739L1042.97 61.7544L1043.03 61.5349L1043.09 61.3154V61.0646L1043.15 60.8137V60.5628V60.312V60.0611L1043.12 59.8102V59.5594L1043.03 59.3085L1042.97 59.0576L1042.9 58.8068L1042.81 58.5559L1042.72 58.3051L1042.59 58.0542L1042.47 57.8033L1042.34 57.5525L1042.19 57.333L1042.03 57.1134L1041.88 56.8939L1041.69 56.6744L1041.5 56.4549L1041.32 56.2354L1041.1 56.0473L1040.88 55.8591L1040.66 55.671L1040.42 55.4828L1040.17 55.326L1039.92 55.1693L1039.67 55.0125L1039.42 54.887L1039.17 54.7616L1038.89 54.6675L1038.61 54.5734L1038.33 54.4794L1038.05 54.4167L1037.77 54.3539L1037.49 54.2912H1037.21L1036.96 54.2285H1036.71H1036.46H1036.22L1035.97 54.2599H1035.72L1035.47 54.3539L1035.22 54.4167L1035 54.4794L1034.78 54.5734L1034.57 54.6675L1034.35 54.7616L1034.13 54.887L1033.95 55.0125L1033.76 55.1693L1033.57 55.326L1033.42 55.4828L1033.26 55.671L1033.11 55.8591H1033.04Z" fill="#F5921C"/>
</g>
<mask id="mask13_174_6237" style="mask-type:luminance" maskUnits="userSpaceOnUse" x="1022" y="52" width="20" height="19">
<path d="M1022.12 60.0923L1023.93 61.378L1024.83 62.0051L1025.05 62.1619L1025.27 62.3187L1025.7 62.6636L1026.57 63.3222L1027.01 63.6671L1027.13 63.7612C1027.19 63.3535 1027.19 63.3535 1027.19 63.2908L1027.23 63.3535L1027.35 63.5417L1028.44 65.0155L1032.76 70.8794L1033.95 69.9701L1035.13 69.0607L1036.31 68.1199L1037.52 67.1165L1041.91 63.3535L1038.39 60.594L1037.52 59.9041L1036.62 59.2143L1034.82 57.8345L1031.18 55.075L1030.71 54.7301L1030.49 54.5733L1030.27 54.4165L1029.34 53.758L1027.47 52.4409L1022.06 60.1236L1022.12 60.0923Z" fill="white"/>
</mask>
<g mask="url(#mask13_174_6237)">
<path fill-rule="evenodd" clip-rule="evenodd" d="M1026.73 63.4477L1027.04 63.6985L1027.13 63.7613H1027.16V63.7926C1027.23 63.1968 1027.19 63.4477 1027.23 63.3222L1027.32 63.4477L1027.69 63.9808L1028.47 65.0156L1029.99 67.0852L1033.07 71.2245L1033.23 71.4126L1033.39 71.6008L1033.54 71.7575L1033.73 71.9143L1033.91 72.0711L1034.1 72.1966L1034.32 72.322L1034.54 72.4161L1034.75 72.5101L1034.97 72.6042L1035.22 72.6669L1035.47 72.7297H1035.72L1035.97 72.7924H1036.22H1036.46H1036.71H1036.99H1037.27L1037.55 72.7297L1037.83 72.6669L1038.11 72.6042L1038.39 72.5101L1038.67 72.4161L1038.95 72.322L1039.23 72.1966L1039.51 72.0711L1039.79 71.9143L1040.07 71.7575L1040.35 71.5694L1040.51 71.4753L1040.66 71.3499L1040.98 71.099L1041.19 70.9109L1041.41 70.6914L1041.6 70.4719L1041.78 70.2524L1041.97 70.0329L1042.13 69.8134L1042.28 69.5938L1042.44 69.3743L1042.56 69.1235L1042.69 68.8726L1042.81 68.6217L1042.9 68.3709L1043 68.12L1043.06 67.8692L1043.12 67.6183L1043.18 67.3674V67.1166L1043.25 66.8657V66.6148V66.364V66.1131V65.8622V65.6114L1043.15 65.3919L1043.09 65.1724L1043.03 64.9529L1042.94 64.7334L1042.84 64.5138L1042.72 64.2943L1042.59 64.1062L1042.47 63.918L1042.31 63.7299L1042.1 63.479L1042.03 63.4163V63.385L1041.88 63.2595L1041.26 62.7578L1040.01 61.7857L1037.49 59.8415L1032.33 55.9217L1032.08 55.7336L1031.83 55.5768L1031.58 55.42L1031.33 55.2632L1031.08 55.1378L1030.83 55.0124L1030.59 54.9183L1030.46 54.8556H1030.34L1030.06 54.7301L1029.78 54.6674L1029.5 54.6047H1029.22L1028.97 54.542H1028.72H1028.47H1028.22H1027.97H1027.72L1027.47 54.6047L1027.23 54.6674L1026.98 54.7301L1026.76 54.8242L1026.54 54.9183L1026.32 55.0124L1026.11 55.1378L1025.92 55.2632L1025.73 55.3887L1025.55 55.5454L1025.36 55.7022L1025.2 55.859L1025.05 56.0472L1024.89 56.2353L1024.77 56.4235L1024.64 56.643L1024.55 56.8625L1024.46 57.082L1024.36 57.3015L1024.3 57.521L1024.24 57.7405V57.96L1024.18 58.2109V58.4617V58.7126V58.9635L1024.21 59.2143V59.4652L1024.3 59.7161L1024.36 59.9669L1024.43 60.2178L1024.52 60.4687L1024.61 60.7195L1024.71 60.9704L1024.83 61.1899L1024.95 61.4094L1025.08 61.6289L1025.23 61.8484L1025.39 62.0679L1025.55 62.2874L1025.73 62.5069L1025.92 62.7264L1026.11 62.9146L1026.32 63.1027L1026.54 63.2909L1026.76 63.479L1026.73 63.4477Z" fill="#F5921C"/>
</g>
<mask id="mask14_174_6237" style="mask-type:luminance" maskUnits="userSpaceOnUse" x="750" y="52" width="21" height="19">
<path d="M770.487 60.092L768.714 61.3463L766.94 62.632L766.069 63.2905L765.634 63.6041L765.509 63.6982C765.572 63.2905 765.572 63.2905 765.572 63.2278L765.541 63.2905L765.416 63.4787L764.327 64.9525L760.003 70.8164L755.337 67.273L750.795 63.7295L754.217 60.8132L755.057 60.092L755.99 59.3081L756.892 58.5555L757.795 57.8342L759.63 56.4231L761.465 55.0434L763.332 53.695L765.198 52.3779L770.518 60.1234L770.487 60.092Z" fill="white"/>
</mask>
<g mask="url(#mask14_174_6237)">
<path fill-rule="evenodd" clip-rule="evenodd" d="M759.661 71.1615L762.741 66.9909L764.265 64.9212L765.043 63.8864L765.416 63.3533L765.509 63.2279C765.447 63.6355 765.447 63.6355 765.447 63.6983H765.478L765.541 63.6042L765.852 63.3847L766.069 63.1965L766.287 63.0084L766.505 62.8202L766.692 62.6321L766.878 62.4439L767.065 62.2244L767.22 62.0049L767.376 61.7854L767.532 61.5659L767.656 61.3464L767.78 61.1269L767.905 60.9074L767.998 60.6565L768.091 60.4057L768.185 60.1548L768.247 59.9039L768.309 59.6531L768.371 59.4022V59.1513L768.434 58.9005V58.6496V58.3988V58.1479L768.403 57.897V57.6775L768.309 57.458L768.247 57.2385L768.185 57.019L768.091 56.7995L767.998 56.58L767.874 56.3605L767.749 56.1723L767.594 55.9842L767.438 55.796L767.283 55.6392L767.096 55.4825L766.909 55.3257L766.723 55.2002L766.536 55.0748L766.318 54.9494L766.101 54.8553L765.883 54.7612L765.665 54.6672L765.447 54.6044L765.198 54.5417H764.949L764.701 54.479H764.452H764.203H763.954H763.705H763.456L763.176 54.5417L762.896 54.6044L762.616 54.6672L762.336 54.7299L762.056 54.8239L761.776 54.918L761.528 55.0434L761.279 55.1689L761.03 55.2943L760.781 55.4511L760.532 55.6079L760.283 55.796L758.977 56.7681L757.67 57.7716L756.364 58.8064L755.026 59.9039L752.599 61.9736L751.386 63.0084L750.795 63.5101L750.64 63.6355V63.6983L750.577 63.761L750.391 64.0118L750.235 64.2L750.111 64.3881L749.986 64.6076L749.893 64.8271L749.8 65.0467L749.737 65.2662L749.675 65.4857L749.613 65.7052V65.956L749.551 66.2069V66.4578V66.7086V66.9595L749.582 67.2104V67.4612L749.675 67.7121L749.737 67.963L749.8 68.2138L749.893 68.4647L749.986 68.7155L750.111 68.9664L750.235 69.2173L750.36 69.4681L750.515 69.6876L750.671 69.9072L750.826 70.1267L751.013 70.3462L751.2 70.5657L751.386 70.7852L751.604 70.9733L751.822 71.1615L752.039 71.3496L752.288 71.5378L752.537 71.6946L752.786 71.8513L753.035 72.0081L753.284 72.1336L753.533 72.259L753.813 72.3531L754.093 72.4472L754.373 72.5412L754.653 72.6039L754.933 72.6667L755.213 72.7294H755.493L755.741 72.7921H755.99H756.239H756.488L756.737 72.7607H756.986L757.235 72.6667L757.483 72.6039L757.701 72.5412L757.919 72.4472L758.137 72.3531L758.354 72.259L758.572 72.1336L758.759 72.0081L758.946 71.8513L759.132 71.6946L759.288 71.5378L759.443 71.3496L759.599 71.1615H759.661Z" fill="#F5921C"/>
</g>
<mask id="mask15_174_6237" style="mask-type:luminance" maskUnits="userSpaceOnUse" x="750" y="56" width="21" height="19">
<path d="M770.58 66.9283L768.776 65.6426L767.874 65.0154L767.656 64.8586L767.438 64.7019L767.003 64.3569L766.132 63.6984L765.696 63.3535L765.572 63.2594C765.509 63.667 765.509 63.667 765.509 63.7298L765.478 63.667L765.354 63.4789L764.265 62.0051L759.941 56.1411L758.759 57.0505L757.577 57.9599L756.395 58.9006L755.181 59.9041L750.795 63.667L754.31 66.4265L755.181 67.1164L756.084 67.8063L757.888 69.1861L761.528 71.9456L761.994 72.2905L762.212 72.4473L762.43 72.6041L763.363 73.2626L765.23 74.5796L770.642 66.8969L770.58 66.9283Z" fill="white"/>
</mask>
<g mask="url(#mask15_174_6237)">
<path fill-rule="evenodd" clip-rule="evenodd" d="M765.976 63.5732L765.665 63.3223L765.572 63.2596H765.541V63.2283C765.478 63.8241 765.51 63.5732 765.478 63.6986L765.385 63.5732L765.012 63.0401L764.234 62.0053L762.71 59.9357L759.63 55.7964L759.474 55.6083L759.319 55.4201L759.163 55.2633L758.977 55.1065L758.79 54.9497L758.603 54.8243L758.386 54.6989L758.168 54.6048L757.95 54.5107L757.732 54.4167L757.484 54.3539L757.235 54.2912H756.986L756.737 54.2285H756.488H756.239H755.99H755.71H755.43L755.15 54.2912L754.87 54.3539L754.59 54.4167L754.31 54.5107L754.03 54.6048L753.751 54.6989L753.471 54.8243L753.191 54.9497L752.911 55.1065L752.631 55.2633L752.351 55.4515L752.195 55.5455L752.04 55.671L751.728 55.9218L751.511 56.11L751.293 56.3295L751.106 56.549L750.92 56.7685L750.733 56.988L750.577 57.2075L750.422 57.427L750.266 57.6465L750.142 57.8974L750.017 58.1483L749.893 58.3991L749.8 58.65L749.706 58.9009L749.644 59.1517L749.582 59.4026L749.52 59.6535V59.9043L749.458 60.1552V60.406V60.6569V60.9078V61.1586V61.4095L749.551 61.629L749.613 61.8485L749.675 62.068L749.769 62.2875L749.862 62.507L749.986 62.7265L750.111 62.9147L750.235 63.1028L750.391 63.291L750.609 63.5418L750.671 63.6046V63.6359L750.826 63.7614L751.448 64.2631L752.693 65.2352L755.213 67.1794L760.377 71.0991L760.625 71.2873L760.874 71.4441L761.123 71.6009L761.372 71.7576L761.621 71.8831L761.87 72.0085L762.119 72.1026L762.243 72.1653H762.368L762.648 72.2907L762.928 72.3535L763.207 72.4162H763.487L763.736 72.4789H763.985H764.234H764.483H764.732H764.981L765.23 72.4162L765.478 72.3535L765.727 72.2907L765.945 72.1967L766.163 72.1026L766.381 72.0085L766.598 71.8831L766.785 71.7576L766.972 71.6322L767.158 71.4754L767.345 71.3186L767.5 71.1618L767.656 70.9737L767.812 70.7855L767.936 70.5974L768.06 70.3779L768.154 70.1584L768.247 69.9389L768.34 69.7194L768.403 69.4999L768.465 69.2804V69.0609L768.527 68.81V68.5591V68.3083V68.0574L768.496 67.8065V67.5557L768.403 67.3048L768.34 67.0539L768.278 66.8031L768.185 66.5522L768.092 66.3014L767.998 66.0505L767.874 65.831L767.749 65.6115L767.625 65.392L767.469 65.1725L767.314 64.953L767.158 64.7334L766.972 64.5139L766.785 64.2944L766.598 64.1063L766.381 63.9181L766.163 63.73L765.945 63.5418L765.976 63.5732Z" fill="#F5921C"/>
</g>
</svg>
