<svg width="196" height="70" viewBox="0 0 196 70" fill="none" xmlns="http://www.w3.org/2000/svg">
<path d="M100.952 60.4765C100.952 64.942 97.6499 67.5821 92.0622 67.5821H82V44.3143H92.8026C96.9391 44.3143 99.3454 46.1372 99.3454 49.2198C99.3454 52.1138 96.6281 53.8411 92.0301 53.8411V53.904H92.5558C97.835 53.904 100.952 56.3253 100.952 60.4765ZM91.0133 48.4956H87.3705V53.8411H91.0133C92.7409 53.8411 93.7899 52.8354 93.7899 51.1684C93.7899 49.5014 92.7409 48.4956 91.0133 48.4956ZM95.3966 60.4765C95.3966 58.6209 94.2242 57.5523 92.309 57.5523H87.3705V63.4007H92.309C94.2218 63.4007 95.3966 62.2994 95.3966 60.4765Z" fill="black"/>
<path d="M123.388 67.5821H117.43L112.955 58.4952H109.497V67.5821H104.127V44.3143H113.417C119.125 44.3143 122.492 46.8613 122.492 51.1055C122.492 55.7269 119.157 58.4323 113.478 58.4323V58.4952C116.628 58.4952 119.251 59.7524 120.391 61.955L123.385 67.5846L123.388 67.5821ZM113.696 54.5653C115.764 54.5653 116.968 53.4338 116.968 51.4827C116.968 49.5315 115.764 48.4956 113.666 48.4956H109.5V54.5653H113.698H113.696Z" fill="black"/>
<path d="M139.617 62.1737H130.727L129.337 67.5821H123.996L130.633 44.3143H140.046L146.621 67.5821H140.972L139.614 62.1737H139.617ZM138.568 58.0225L135.204 44.7543H135.142L131.778 58.0225H138.568Z" fill="black"/>
<path d="M147.361 59.3124H152.64C152.949 62.0153 154.677 63.6195 157.332 63.6195C159.988 63.6195 161.498 62.5509 161.498 60.7581C161.498 58.5883 159.092 58.2111 156.313 57.834C152.579 57.2984 148.01 56.6698 148.01 51.2941C148.01 46.5143 151.436 44 157.206 44C162.392 44 165.756 47.0499 166.281 52.2068H161.002C160.817 49.7227 159.304 48.2769 156.898 48.2769C154.736 48.2769 153.44 49.2198 153.44 50.8239C153.44 52.6795 155.693 53.0265 158.317 53.4012C162.175 53.9669 166.928 54.691 166.928 60.1296C166.928 65.0024 163.317 67.8964 157.206 67.8964C151.527 67.8964 147.885 64.7208 147.361 59.3124Z" fill="black"/>
<path d="M170.229 44.3143H175.599V67.5821H170.229V44.3143Z" fill="black"/>
<path d="M195.225 63.275V67.5821H180.162V44.3143H185.533V63.275H195.225Z" fill="black"/>
<path d="M18.581 19.5516V23.836H1.0332V0H18.233V4.28445H6.53448V9.50173H17.1273V13.7862H6.53448V19.5516H18.581Z" fill="black"/>
<path d="M40.3957 0L34.2922 23.836H24.5854L18.4844 0H24.3016L29.5807 23.386H29.6449L34.9586 0H40.3982H40.3957Z" fill="black"/>
<path d="M59.0495 19.5516V23.836H41.5017V0H58.7015V4.28445H47.003V9.50173H57.5958V13.7862H47.003V19.5516H59.0495Z" fill="black"/>
<path d="M77.0707 23.836H71.1573L68.0895 15.4934H68.0253L64.9896 23.836H59.0762L62.7116 15.2671L59.6142 7.50281H65.2734L68.0253 15.2018H68.0895L70.8414 7.50281H76.5327L73.4032 15.2671L77.0707 23.836Z" fill="black"/>
<path d="M17.0888 48.3685V52.4745H0V48.5219C6.81675 45.7737 10.8471 41.4843 10.8471 36.883C10.8471 34.8137 9.84751 33.5188 8.27043 33.5188C6.54279 33.5188 5.4223 35.1229 5.27175 37.7781H0.212252C0.575055 32.4678 3.63543 29.3198 8.45306 29.3198C13.5446 29.3198 16.5137 32.2214 16.5137 37.0992C16.5137 43.3348 10.7878 47.4709 0.999559 48.3057V48.3685H17.0888Z" fill="black"/>
<path d="M19.3323 41.0518C19.3323 33.6747 22.7258 29.3223 28.3925 29.3223C34.0591 29.3223 37.4527 33.6747 37.4527 41.0518C37.4527 48.4289 34.0887 52.7812 28.3925 52.7812C22.6962 52.7812 19.3323 48.4289 19.3323 41.0518ZM32.0279 41.0518C32.0279 36.3298 30.6952 33.5188 28.3925 33.5188C26.0898 33.5188 24.7867 36.3273 24.7867 41.0518C24.7867 45.7762 26.1194 48.5848 28.3925 48.5848C30.6655 48.5848 32.0279 45.7762 32.0279 41.0518Z" fill="black"/>
<path d="M56.7528 48.3685V52.4745H39.6641V48.5219C46.4808 45.7737 50.5111 41.4843 50.5111 36.883C50.5111 34.8137 49.5116 33.5188 47.9345 33.5188C46.2069 33.5188 45.0864 35.1229 44.9358 37.7781H39.8763C40.2391 32.4678 43.2995 29.3198 48.1171 29.3198C53.2087 29.3198 56.1778 32.2214 56.1778 37.0992C56.1778 43.3348 50.4519 47.4709 40.6636 48.3057V48.3685H56.7528Z" fill="black"/>
<path d="M76.9956 44.509C76.9956 49.6961 73.5724 52.7812 67.9354 52.7812C62.2983 52.7812 58.9961 48.615 58.9961 41.2353C58.9961 33.8557 62.5106 29.3198 68.4512 29.3198C73.0862 29.3198 76.0577 31.9121 76.4822 36.2645H71.3906C71.1488 34.5346 70.0579 33.5163 68.4512 33.5163C65.8153 33.5163 64.2999 36.3575 64.2999 41.1725V43.5184H64.3616C64.3616 39.9379 66.6939 37.8083 70.6329 37.8083C74.5719 37.8083 76.9956 40.3075 76.9956 44.5065V44.509ZM71.5708 45.0018C71.5708 42.9325 70.1764 41.7307 67.9033 41.7307C65.6302 41.7307 64.2358 42.9049 64.2358 44.9415C64.2358 47.1943 65.6894 48.5848 67.9033 48.5848C70.1171 48.5848 71.5708 47.2572 71.5708 45.0043V45.0018Z" fill="black"/>
<path d="M86.6413 6.88429V0H87.7396V6.80635C87.7396 8.66697 86.7055 9.76071 84.968 9.76071C83.3317 9.76071 82.2852 8.52365 82.1445 6.44177H83.1786C83.2946 7.92523 83.9832 8.81029 84.9927 8.81029C86.0021 8.81029 86.6413 8.09369 86.6413 6.88429Z" fill="black"/>
<path d="M88.9417 6.40402C88.9417 4.30957 90.1041 3.05994 92.0465 3.05994C93.9888 3.05994 95.1389 4.30957 95.1389 6.40402C95.1389 8.49848 93.9888 9.7632 92.0465 9.7632C90.1041 9.7632 88.9417 8.51356 88.9417 6.40402ZM94.0777 6.40402C94.0777 4.85518 93.3249 3.9299 92.0465 3.9299C90.768 3.9299 90.0153 4.85518 90.0153 6.40402C90.0153 7.95286 90.768 8.87815 92.0465 8.87815C93.3249 8.87815 94.0777 7.96795 94.0777 6.40402Z" fill="black"/>
<path d="M101.972 3.18819V9.62996H100.926V7.50785H100.901C100.901 8.91337 100.02 9.7607 98.5636 9.7607C96.8779 9.7607 95.8809 8.51107 95.8809 6.40153C95.8809 4.29199 96.8779 3.05744 98.5636 3.05744C100.02 3.05744 100.901 3.88969 100.901 5.29522H100.926V3.18568H101.972V3.18819ZM97.3469 1.91341H96.7718C96.7842 0.832244 97.2704 0.208685 98.0873 0.208685C98.9684 0.208685 99.3139 1.02836 99.926 1.02836C100.309 1.02836 100.553 0.704012 100.602 0.155884H101.177C101.165 1.22197 100.679 1.86061 99.8495 1.86061C99.0202 1.86061 98.6352 1.02836 98.0231 1.02836C97.6406 1.02836 97.3839 1.3678 97.3469 1.91341ZM101 6.40405C101 4.88035 100.259 3.92992 98.9684 3.92992C97.6776 3.92992 96.9495 4.85521 96.9495 6.40405C96.9495 7.95289 97.6899 8.87817 98.9684 8.87817C100.247 8.87817 101 7.92774 101 6.40405Z" fill="black"/>
<path d="M103.057 6.40402C103.057 4.30957 104.219 3.05994 106.161 3.05994C108.104 3.05994 109.254 4.30957 109.254 6.40402C109.254 8.49848 108.104 9.7632 106.161 9.7632C104.219 9.7632 103.057 8.51356 103.057 6.40402ZM108.193 6.40402C108.193 4.85518 107.44 3.9299 106.161 3.9299C104.883 3.9299 104.13 4.85518 104.13 6.40402C104.13 7.95286 104.883 8.87815 106.161 8.87815C107.44 8.87815 108.193 7.96795 108.193 6.40402Z" fill="black"/>
<path d="M119.526 2.90156C119.526 4.72447 118.351 5.81821 116.344 5.81821H114.197V9.63248H113.111V0H116.357C118.351 0 119.526 1.08117 119.526 2.90156ZM118.4 2.90156C118.4 1.65193 117.672 0.910195 116.421 0.910195H114.197V4.9055H116.408C117.66 4.9055 118.403 4.15119 118.403 2.90156H118.4Z" fill="black"/>
<path d="M125.708 6.5725H120.878C120.93 8.05596 121.631 8.91587 122.781 8.91587C123.803 8.91587 124.506 8.33003 124.672 7.36703H125.706C125.501 8.87564 124.415 9.76069 122.781 9.76069C120.943 9.76069 119.842 8.52363 119.842 6.41661C119.842 4.30958 120.94 3.05743 122.781 3.05743C124.622 3.05743 125.706 4.29449 125.706 6.41661V6.5725H125.708ZM120.891 6.03945H124.659C124.558 4.68673 123.867 3.90477 122.781 3.90477C121.695 3.90477 120.992 4.68673 120.891 6.03945Z" fill="black"/>
<path d="M126.332 7.54806H127.341C127.341 8.47335 127.954 9.00639 129.015 9.00639C130.076 9.00639 130.676 8.58901 130.676 7.90007C130.676 7.00245 129.782 6.84656 128.837 6.66301C127.739 6.46689 126.525 6.24563 126.525 4.89291C126.525 3.76145 127.457 3.05743 129.015 3.05743C130.572 3.05743 131.505 3.8394 131.505 5.19212H130.496C130.496 4.30707 129.96 3.79917 129.015 3.79917C128.07 3.79917 127.546 4.17632 127.546 4.82754C127.546 5.5567 128.351 5.71259 129.244 5.86848C130.382 6.07717 131.698 6.32358 131.698 7.80704C131.698 9.03153 130.7 9.75818 129.015 9.75818C127.329 9.75818 126.332 8.9385 126.332 7.54555V7.54806Z" fill="black"/>
<path d="M132.285 7.54806H133.295C133.295 8.47335 133.907 9.00639 134.968 9.00639C136.029 9.00639 136.629 8.58901 136.629 7.90007C136.629 7.00245 135.736 6.84656 134.79 6.66301C133.692 6.46689 132.478 6.24563 132.478 4.89291C132.478 3.76145 133.411 3.05743 134.968 3.05743C136.526 3.05743 137.458 3.8394 137.458 5.19212H136.449C136.449 4.30707 135.913 3.79917 134.968 3.79917C134.023 3.79917 133.5 4.17632 133.5 4.82754C133.5 5.5567 134.304 5.71259 135.198 5.86848C136.335 6.07717 137.651 6.32358 137.651 7.80704C137.651 9.03153 136.654 9.75818 134.968 9.75818C133.282 9.75818 132.285 8.9385 132.285 7.54555V7.54806Z" fill="black"/>
<path d="M138.316 6.40402C138.316 4.30957 139.479 3.05994 141.421 3.05994C143.364 3.05994 144.514 4.30957 144.514 6.40402C144.514 8.49848 143.364 9.7632 141.421 9.7632C139.479 9.7632 138.316 8.51356 138.316 6.40402ZM143.452 6.40402C143.452 4.85518 142.7 3.9299 141.421 3.9299C140.143 3.9299 139.39 4.85518 139.39 6.40402C139.39 7.95286 140.143 8.87815 141.421 8.87815C142.7 8.87815 143.452 7.96795 143.452 6.40402Z" fill="black"/>
<path d="M151.347 3.18818V9.62995H150.301V7.50784H150.276C150.276 8.91336 149.395 9.76069 147.939 9.76069C146.253 9.76069 145.256 8.51106 145.256 6.40152C145.256 4.29198 146.253 3.05743 147.939 3.05743C149.395 3.05743 150.276 3.88968 150.276 5.29521H150.301V3.18567H151.347V3.18818ZM150.377 6.40404C150.377 4.88034 149.637 3.92991 148.346 3.92991C147.055 3.92991 146.327 4.85519 146.327 6.40404C146.327 7.95288 147.067 8.87816 148.346 8.87816C149.624 8.87816 150.377 7.92773 150.377 6.40404Z" fill="black"/>
<path d="M89.2476 23.0893V23.9995H83.0256V14.367H89.1069V15.2772H84.1116V18.571H88.6602V19.4812H84.1116V23.0868H89.2476V23.0893Z" fill="black"/>
<path d="M95.7752 19.9916V23.9995H94.7288V20.0167C94.7288 18.9356 94.1414 18.2994 93.1196 18.2994C91.9818 18.2994 91.3179 19.1065 91.3179 20.4718V23.9995H90.2715V17.5577H91.3179V19.7703H91.3426C91.3426 18.2994 92.1472 17.4269 93.4898 17.4269C94.9336 17.4269 95.7777 18.3774 95.7777 19.9916H95.7752Z" fill="black"/>
<path d="M102.673 20.942H97.8432C97.8951 22.4255 98.596 23.2854 99.7461 23.2854C100.768 23.2854 101.471 22.6995 101.637 21.7365H102.671C102.466 23.2451 101.38 24.1302 99.7461 24.1302C97.9074 24.1302 96.8066 22.8931 96.8066 20.7861C96.8066 18.6791 97.9049 17.4269 99.7461 17.4269C101.587 17.4269 102.671 18.664 102.671 20.7861V20.942H102.673ZM97.858 20.409H101.627C101.526 19.0562 100.834 18.2743 99.7486 18.2743C98.6626 18.2743 97.9592 19.0562 97.858 20.409Z" fill="black"/>
<path d="M107.886 17.6231L107.567 18.6263C107.326 18.483 106.98 18.4051 106.635 18.4051C105.484 18.4051 104.808 19.3027 104.808 20.839V24.002H103.762V17.5602H104.808V20.0067H104.833C104.833 18.3799 105.6 17.4295 106.904 17.4295C107.274 17.4295 107.632 17.4949 107.888 17.6256L107.886 17.6231Z" fill="black"/>
<path d="M113.98 17.5577V24.1428C113.98 26.016 112.855 27.1223 110.964 27.1223C109.266 27.1223 108.18 26.2247 108.052 24.7287L109.049 24.6256C109.126 25.6414 109.841 26.2524 110.964 26.2524C112.203 26.2524 112.931 25.4981 112.931 24.2208V21.8522H112.907C112.907 23.2578 112.026 24.1051 110.569 24.1051C108.884 24.1051 107.887 22.8555 107.887 20.761C107.887 18.6666 108.884 17.4295 110.569 17.4295C112.026 17.4295 112.907 18.2618 112.907 19.6673H112.931V17.5577H113.978H113.98ZM113.01 20.761C113.01 19.2524 112.27 18.302 110.979 18.302C109.688 18.302 108.96 19.2122 108.96 20.761C108.96 22.3099 109.701 23.2201 110.979 23.2201C112.258 23.2201 113.01 22.2696 113.01 20.761Z" fill="black"/>
<path d="M120.866 17.5577L117.878 26.9941H116.752L117.71 23.9995H116.816L114.785 17.5577H115.911L117.813 23.9216H117.838L119.741 17.5577H120.866Z" fill="black"/>
<path d="M130.626 23.0893V23.9995H124.404V14.367H130.486V15.2772H125.49V18.571H130.039V19.4812H125.49V23.0868H130.626V23.0893Z" fill="black"/>
<path d="M137.282 24.002H136.043L134.089 20.7082H134.064L132.109 24.002H130.883L132.991 20.6303L131.1 17.5577H132.302L134.064 20.59H134.089L135.866 17.5577H137.068L135.165 20.6303L137.285 24.002H137.282Z" fill="black"/>
<path d="M144.077 20.7736C144.077 22.8831 143.068 24.1328 141.382 24.1328C139.926 24.1328 139.057 23.2879 139.057 21.8799H139.033V26.9941H137.986V17.5577H139.033V19.6673H139.057C139.057 18.2618 139.926 17.4295 141.382 17.4295C143.068 17.4295 144.077 18.6791 144.077 20.7736ZM143.006 20.7736C143.006 19.2248 142.254 18.2995 140.975 18.2995C139.697 18.2995 138.944 19.2499 138.944 20.7736C138.944 22.2973 139.697 23.2603 140.975 23.2603C142.254 23.2603 143.006 22.335 143.006 20.7736Z" fill="black"/>
<path d="M150.658 20.942H145.828C145.879 22.4255 146.58 23.2854 147.73 23.2854C148.752 23.2854 149.456 22.6995 149.621 21.7365H150.655C150.45 23.2451 149.364 24.1302 147.73 24.1302C145.892 24.1302 144.791 22.8931 144.791 20.7861C144.791 18.6791 145.889 17.4269 147.73 17.4269C149.572 17.4269 150.655 18.664 150.655 20.7861V20.942H150.658ZM145.842 20.409H149.611C149.51 19.0562 148.819 18.2743 147.733 18.2743C146.647 18.2743 145.944 19.0562 145.842 20.409Z" fill="black"/>
<path d="M155.87 17.6231L155.552 18.6263C155.31 18.483 154.964 18.4051 154.619 18.4051C153.469 18.4051 152.792 19.3027 152.792 20.839V24.002H151.746V17.5602H152.792V20.0067H152.817C152.817 18.3799 153.585 17.4295 154.888 17.4295C155.258 17.4295 155.616 17.4949 155.872 17.6256L155.87 17.6231Z" fill="black"/>
<path d="M156.471 14.7592H157.517V16.127H156.471V14.7592ZM156.471 17.5577H157.517V23.9995H156.471V17.5577Z" fill="black"/>
<path d="M164.468 20.942H159.638C159.69 22.4255 160.391 23.2854 161.541 23.2854C162.563 23.2854 163.266 22.6995 163.432 21.7365H164.466C164.261 23.2451 163.175 24.1302 161.541 24.1302C159.702 24.1302 158.602 22.8931 158.602 20.7861C158.602 18.6791 159.7 17.4269 161.541 17.4269C163.382 17.4269 164.466 18.664 164.466 20.7861V20.942H164.468ZM159.65 20.409H163.419C163.318 19.0562 162.627 18.2743 161.541 18.2743C160.455 18.2743 159.752 19.0562 159.65 20.409Z" fill="black"/>
<path d="M171.058 19.9916V23.9995H170.012V20.0167C170.012 18.9356 169.425 18.2994 168.403 18.2994C167.265 18.2994 166.601 19.1065 166.601 20.4718V23.9995H165.555V17.5577H166.601V19.7703H166.626C166.626 18.2994 167.43 17.4269 168.773 17.4269C170.217 17.4269 171.061 18.3774 171.061 19.9916H171.058Z" fill="black"/>
<path d="M172.093 20.7736C172.093 18.6791 173.243 17.4295 175.158 17.4295C176.703 17.4295 177.752 18.2492 178.058 19.6949H177.011C176.73 18.8099 176.091 18.302 175.158 18.302C173.907 18.302 173.164 19.2273 173.164 20.7761C173.164 22.3249 173.904 23.2502 175.158 23.2502C176.143 23.2502 176.807 22.6895 177.048 21.7265H178.095C177.813 23.2502 176.767 24.1353 175.155 24.1353C173.24 24.1353 172.09 22.8856 172.09 20.7761L172.093 20.7736Z" fill="black"/>
<path d="M184.536 20.942H179.707C179.758 22.4255 180.459 23.2854 181.609 23.2854C182.631 23.2854 183.335 22.6995 183.5 21.7365H184.534C184.329 23.2451 183.243 24.1302 181.609 24.1302C179.771 24.1302 178.67 22.8931 178.67 20.7861C178.67 18.6791 179.768 17.4269 181.609 17.4269C183.451 17.4269 184.534 18.664 184.534 20.7861V20.942H184.536ZM179.721 20.409H183.49C183.389 19.0562 182.698 18.2743 181.612 18.2743C180.526 18.2743 179.823 19.0562 179.721 20.409Z" fill="black"/>
</svg>
