<svg width="356" height="80" viewBox="0 0 356 80" fill="none" xmlns="http://www.w3.org/2000/svg">
<path d="M318.477 79.302C283.358 79.302 283.358 71.9117 248.226 71.9117C213.107 71.9117 213.107 79.302 177.988 79.302C142.869 79.302 142.869 71.9117 107.738 71.9117C72.6188 71.9117 72.6188 79.302 37.4872 79.302C32.8773 79.302 29.8251 71.233 25.8104 69.4684C21.6565 67.6435 14.1084 70.9917 10.9802 67.6887C7.85205 64.3857 11.0182 56.3922 9.29581 52.0033C7.57343 47.6144 0 44.5225 0 39.651C0 34.7795 7.62408 31.5368 9.29581 27.2987C10.9675 23.0606 7.85205 14.9163 10.9802 11.6133C14.1084 8.29519 21.6565 11.6585 25.8104 9.83357C29.8125 8.06896 32.8773 0 37.4872 0C72.6061 0 72.6061 7.39026 107.738 7.39026C142.869 7.39026 142.857 0 177.976 0C213.094 0 213.094 7.39026 248.226 7.39026C283.358 7.39026 283.345 0 318.477 0C323.086 0 326.139 8.06896 330.153 9.83357C334.307 11.6585 341.855 8.31027 344.984 11.6133C348.112 14.9313 344.946 22.9098 346.668 27.2987C348.327 31.5368 355.964 34.7795 355.964 39.651C355.964 44.5225 348.34 47.7652 346.668 52.0033C344.946 56.3922 348.112 64.3857 344.984 67.6887C341.855 70.9917 334.307 67.6435 330.153 69.4684C325.999 71.2934 323.086 79.302 318.477 79.302Z" fill="#DE212B"/>
<path d="M90.802 36.552C86.477 36.552 83.927 33.027 83.927 27.052C83.927 21.077 86.477 17.552 90.802 17.552C95.127 17.552 97.652 21.077 97.652 27.052C97.652 33.027 95.127 36.552 90.802 36.552ZM90.802 34.402C93.427 34.402 94.977 31.677 94.977 27.052C94.977 22.427 93.427 19.702 90.802 19.702C88.177 19.702 86.627 22.427 86.627 27.052C86.627 31.677 88.177 34.402 90.802 34.402ZM103.184 17.802H105.784V36.302H103.184V18.652H103.134C103.134 21.177 101.809 22.652 99.5844 22.652V20.377C101.859 20.377 103.184 19.402 103.184 17.802ZM126.728 30.077V30.427H117.378C117.478 33.052 118.778 34.602 120.853 34.602C122.678 34.602 123.953 33.602 124.278 31.902H126.728C126.303 34.827 124.128 36.552 120.853 36.552C117.128 36.552 114.953 34.152 114.953 30.077C114.953 26.002 117.128 23.602 120.853 23.602C124.553 23.602 126.728 26.002 126.728 30.077ZM120.853 25.552C118.853 25.552 117.603 26.952 117.403 29.377H124.253C124.053 26.952 122.828 25.552 120.853 25.552ZM141.754 36.552C137.429 36.552 134.879 33.027 134.879 27.052C134.879 21.077 137.429 17.552 141.754 17.552C146.079 17.552 148.604 21.077 148.604 27.052C148.604 33.027 146.079 36.552 141.754 36.552ZM141.754 34.402C144.379 34.402 145.929 31.677 145.929 27.052C145.929 22.427 144.379 19.702 141.754 19.702C139.129 19.702 137.579 22.427 137.579 27.052C137.579 31.677 139.129 34.402 141.754 34.402ZM151.937 34.227H164.037V36.302H150.962V34.352C157.137 32.452 160.787 28.527 160.787 23.702C160.787 21.202 159.512 19.702 157.387 19.702C155.212 19.702 153.837 21.402 153.687 24.277H151.162C151.387 20.052 153.712 17.552 157.462 17.552C161.312 17.552 163.562 19.877 163.562 23.777C163.562 29.327 159.262 33.177 151.937 34.177V34.227ZM181.759 17.052H184.259V36.302H181.759V32.152H181.709C181.709 34.902 180.034 36.552 177.184 36.552C173.934 36.552 172.009 34.152 172.009 30.077C172.009 26.002 173.934 23.602 177.184 23.602C180.034 23.602 181.709 25.252 181.709 28.002H181.759V17.052ZM178.259 34.527C180.584 34.527 181.934 32.777 181.934 30.077C181.934 27.377 180.584 25.627 178.259 25.627C175.934 25.627 174.584 27.277 174.584 30.077C174.584 32.877 175.934 34.527 178.259 34.527ZM199.018 30.077V30.427H189.668C189.768 33.052 191.068 34.602 193.143 34.602C194.968 34.602 196.243 33.602 196.568 31.902H199.018C198.593 34.827 196.418 36.552 193.143 36.552C189.418 36.552 187.243 34.152 187.243 30.077C187.243 26.002 189.418 23.602 193.143 23.602C196.843 23.602 199.018 26.002 199.018 30.077ZM193.143 25.552C191.143 25.552 189.893 26.952 189.693 29.377H196.543C196.343 26.952 195.118 25.552 193.143 25.552ZM214.461 30.927V17.802H217.086V30.777C217.086 34.402 214.986 36.552 211.461 36.552C208.161 36.552 206.036 34.127 205.786 30.052H208.236C208.461 32.777 209.686 34.402 211.536 34.402C213.361 34.402 214.461 33.102 214.461 30.927ZM229.202 23.852H231.702V36.302H229.202V31.977H229.152C229.152 34.852 227.652 36.552 225.102 36.552C222.377 36.552 220.777 34.677 220.777 31.527V23.852H223.277V31.452C223.277 33.402 224.302 34.527 226.052 34.527C228.027 34.527 229.202 33.077 229.202 30.627V23.852ZM235.355 36.302V17.052H237.855V36.302H235.355ZM248.233 23.602C251.033 23.602 252.683 25.477 252.683 28.627V36.302H250.183V28.702C250.183 26.752 249.108 25.627 247.283 25.627C245.233 25.627 244.008 27.077 244.008 29.527V36.302H241.508V17.052H244.008V28.177H244.058C244.058 25.302 245.608 23.602 248.233 23.602ZM261.73 36.552C257.83 36.552 255.505 34.152 255.505 30.077C255.505 26.002 257.83 23.602 261.73 23.602C265.655 23.602 267.955 26.002 267.955 30.077C267.955 34.152 265.655 36.552 261.73 36.552ZM261.73 34.527C264.055 34.527 265.405 32.877 265.405 30.077C265.405 27.277 264.055 25.627 261.73 25.627C259.405 25.627 258.055 27.277 258.055 30.077C258.055 32.877 259.405 34.527 261.73 34.527Z" fill="#FFEFC3"/>
<path d="M51.259 49.462C53.835 49.462 55.355 50.806 55.355 53.078C55.355 55.35 53.835 56.71 51.243 56.71H48.747V61.302H47.067V49.462H51.259ZM51.339 55.366C52.779 55.366 53.643 54.518 53.643 53.078C53.643 51.638 52.795 50.79 51.355 50.79H48.747V55.366H51.339ZM62.587 53.334H64.187V61.302H62.587V58.646H62.555C62.555 60.406 61.483 61.462 59.659 61.462C57.579 61.462 56.347 59.926 56.347 57.318C56.347 54.71 57.579 53.174 59.659 53.174C61.483 53.174 62.555 54.23 62.555 55.99H62.587V53.334ZM60.347 60.166C61.835 60.166 62.699 59.046 62.699 57.318C62.699 55.59 61.835 54.47 60.347 54.47C58.859 54.47 57.995 55.526 57.995 57.318C57.995 59.11 58.859 60.166 60.347 60.166ZM70.049 61.462C67.569 61.462 66.097 59.926 66.097 57.318C66.097 54.71 67.569 53.174 70.049 53.174C72.065 53.174 73.409 54.246 73.777 56.086H72.193C71.873 55.062 71.137 54.47 70.049 54.47C68.577 54.47 67.729 55.526 67.729 57.318C67.729 59.11 68.577 60.166 70.049 60.166C71.185 60.166 71.953 59.526 72.225 58.39H73.825C73.489 60.342 72.129 61.462 70.049 61.462ZM69.713 65.142C69.201 65.142 68.641 65.014 68.225 64.79V64.038C68.593 64.262 69.073 64.406 69.537 64.406C70.273 64.406 70.705 64.102 70.705 63.606C70.705 63.222 70.417 62.998 69.953 62.998C69.585 62.982 69.265 63.126 69.073 63.366L68.481 62.918C68.865 62.518 69.521 62.262 70.161 62.262C71.233 62.262 71.857 62.742 71.857 63.574C71.857 64.566 71.073 65.142 69.713 65.142ZM79.0966 61.462C76.6006 61.462 75.1126 59.926 75.1126 57.318C75.1126 54.71 76.6006 53.174 79.0966 53.174C81.6086 53.174 83.0806 54.71 83.0806 57.318C83.0806 59.926 81.6086 61.462 79.0966 61.462ZM79.0966 60.166C80.5846 60.166 81.4486 59.11 81.4486 57.318C81.4486 55.526 80.5846 54.47 79.0966 54.47C77.6086 54.47 76.7446 55.526 76.7446 57.318C76.7446 59.11 77.6086 60.166 79.0966 60.166ZM94.4463 48.982H96.0463V61.302H94.4463V58.646H94.4143C94.4143 60.406 93.3423 61.462 91.5183 61.462C89.4383 61.462 88.2063 59.926 88.2063 57.318C88.2063 54.71 89.4383 53.174 91.5183 53.174C93.3423 53.174 94.4143 54.23 94.4143 55.99H94.4463V48.982ZM92.2063 60.166C93.6943 60.166 94.5583 59.046 94.5583 57.318C94.5583 55.59 93.6943 54.47 92.2063 54.47C90.7183 54.47 89.8543 55.526 89.8543 57.318C89.8543 59.11 90.7183 60.166 92.2063 60.166ZM101.94 61.462C99.4443 61.462 97.9563 59.926 97.9563 57.318C97.9563 54.71 99.4443 53.174 101.94 53.174C104.452 53.174 105.924 54.71 105.924 57.318C105.924 59.926 104.452 61.462 101.94 61.462ZM101.94 60.166C103.428 60.166 104.292 59.11 104.292 57.318C104.292 55.526 103.428 54.47 101.94 54.47C100.452 54.47 99.5883 55.526 99.5883 57.318C99.5883 59.11 100.452 60.166 101.94 60.166ZM110.723 61.462C108.547 61.462 107.251 60.454 107.251 58.726H108.771C108.771 59.766 109.491 60.39 110.723 60.39C111.939 60.39 112.643 59.926 112.643 59.126C112.643 58.118 111.587 57.942 110.435 57.734C109.059 57.51 107.491 57.238 107.491 55.51C107.491 54.054 108.691 53.174 110.723 53.174C112.755 53.174 113.955 54.15 113.955 55.814H112.435C112.435 54.822 111.811 54.23 110.723 54.23C109.667 54.23 109.043 54.662 109.043 55.382C109.043 56.214 110.003 56.39 111.091 56.582C112.515 56.838 114.195 57.126 114.195 58.982C114.195 60.534 112.899 61.462 110.723 61.462ZM121.638 59.926H126.998V61.302H119.958V49.462H121.638V59.926ZM135.43 57.318V57.542H129.446C129.51 59.222 130.342 60.214 131.67 60.214C132.838 60.214 133.654 59.574 133.862 58.486H135.43C135.158 60.358 133.766 61.462 131.67 61.462C129.286 61.462 127.894 59.926 127.894 57.318C127.894 54.71 129.286 53.174 131.67 53.174C134.038 53.174 135.43 54.71 135.43 57.318ZM131.67 54.422C130.39 54.422 129.59 55.318 129.462 56.87H133.846C133.718 55.318 132.934 54.422 131.67 54.422ZM141.919 51.75C140.831 51.75 140.399 50.806 139.631 50.806C139.151 50.806 138.847 51.19 138.783 51.814H137.999C137.999 50.422 138.655 49.606 139.759 49.606C140.831 49.606 141.279 50.55 142.047 50.55C142.511 50.55 142.831 50.166 142.879 49.542H143.679C143.663 50.934 143.007 51.75 141.919 51.75ZM140.831 61.462C138.335 61.462 136.847 59.926 136.847 57.318C136.847 54.71 138.335 53.174 140.831 53.174C143.343 53.174 144.815 54.71 144.815 57.318C144.815 59.926 143.343 61.462 140.831 61.462ZM140.831 60.166C142.319 60.166 143.183 59.11 143.183 57.318C143.183 55.526 142.319 54.47 140.831 54.47C139.343 54.47 138.479 55.526 138.479 57.318C138.479 59.11 139.343 60.166 140.831 60.166ZM153.789 57.318V57.542H147.805C147.869 59.222 148.701 60.214 150.029 60.214C151.197 60.214 152.013 59.574 152.221 58.486H153.789C153.517 60.358 152.125 61.462 150.029 61.462C147.645 61.462 146.253 59.926 146.253 57.318C146.253 54.71 147.645 53.174 150.029 53.174C152.397 53.174 153.789 54.71 153.789 57.318ZM150.029 54.422C148.749 54.422 147.949 55.318 147.821 56.87H152.205C152.077 55.318 151.293 54.422 150.029 54.422ZM158.566 61.462C156.39 61.462 155.094 60.454 155.094 58.726H156.614C156.614 59.766 157.334 60.39 158.566 60.39C159.782 60.39 160.486 59.926 160.486 59.126C160.486 58.118 159.43 57.942 158.278 57.734C156.902 57.51 155.334 57.238 155.334 55.51C155.334 54.054 156.534 53.174 158.566 53.174C160.598 53.174 161.798 54.15 161.798 55.814H160.278C160.278 54.822 159.654 54.23 158.566 54.23C157.51 54.23 156.886 54.662 156.886 55.382C156.886 56.214 157.846 56.39 158.934 56.582C160.358 56.838 162.038 57.126 162.038 58.982C162.038 60.534 160.742 61.462 158.566 61.462ZM167.737 48.982H168.505V64.982H167.737V48.982ZM179.063 57.862V49.462H180.743V57.766C180.743 60.086 179.399 61.462 177.143 61.462C175.031 61.462 173.671 59.91 173.511 57.302H175.079C175.223 59.046 176.007 60.086 177.191 60.086C178.359 60.086 179.063 59.254 179.063 57.862ZM186.722 61.462C184.226 61.462 182.738 59.926 182.738 57.318C182.738 54.71 184.226 53.174 186.722 53.174C189.234 53.174 190.706 54.71 190.706 57.318C190.706 59.926 189.234 61.462 186.722 61.462ZM186.722 60.166C188.21 60.166 189.074 59.11 189.074 57.318C189.074 55.526 188.21 54.47 186.722 54.47C185.234 54.47 184.37 55.526 184.37 57.318C184.37 59.11 185.234 60.166 186.722 60.166ZM194.928 50.806C194.448 50.806 194.144 51.19 194.08 51.814H193.296C193.296 50.422 193.952 49.606 195.056 49.606C196.128 49.606 196.576 50.55 197.344 50.55C197.808 50.55 198.128 50.166 198.176 49.542H198.976C198.96 50.934 198.304 51.75 197.216 51.75C196.128 51.75 195.696 50.806 194.928 50.806ZM198.384 53.334H199.984V61.302H198.384V58.646H198.352C198.352 60.406 197.28 61.462 195.456 61.462C193.376 61.462 192.144 59.926 192.144 57.318C192.144 54.71 193.376 53.174 195.456 53.174C197.28 53.174 198.352 54.23 198.352 55.99H198.384V53.334ZM196.144 60.166C197.632 60.166 198.496 59.046 198.496 57.318C198.496 55.59 197.632 54.47 196.144 54.47C194.656 54.47 193.792 55.526 193.792 57.318C193.792 59.11 194.656 60.166 196.144 60.166ZM205.878 61.462C203.382 61.462 201.894 59.926 201.894 57.318C201.894 54.71 203.382 53.174 205.878 53.174C208.39 53.174 209.862 54.71 209.862 57.318C209.862 59.926 208.39 61.462 205.878 61.462ZM205.878 60.166C207.366 60.166 208.23 59.11 208.23 57.318C208.23 55.526 207.366 54.47 205.878 54.47C204.39 54.47 203.526 55.526 203.526 57.318C203.526 59.11 204.39 60.166 205.878 60.166ZM219.9 49.462C222.476 49.462 223.996 50.806 223.996 53.078C223.996 55.35 222.476 56.71 219.884 56.71H217.388V61.302H215.708V49.462H219.9ZM219.98 55.366C221.42 55.366 222.284 54.518 222.284 53.078C222.284 51.638 221.436 50.79 219.996 50.79H217.388V55.366H219.98ZM232.461 57.318V57.542H226.477C226.541 59.222 227.373 60.214 228.701 60.214C229.869 60.214 230.685 59.574 230.893 58.486H232.461C232.189 60.358 230.797 61.462 228.701 61.462C226.317 61.462 224.925 59.926 224.925 57.318C224.925 54.71 226.317 53.174 228.701 53.174C231.069 53.174 232.461 54.71 232.461 57.318ZM228.701 54.422C227.421 54.422 226.621 55.318 226.493 56.87H230.877C230.749 55.318 229.965 54.422 228.701 54.422ZM237.238 61.462C235.062 61.462 233.766 60.454 233.766 58.726H235.286C235.286 59.766 236.006 60.39 237.238 60.39C238.454 60.39 239.158 59.926 239.158 59.126C239.158 58.118 238.102 57.942 236.95 57.734C235.574 57.51 234.006 57.238 234.006 55.51C234.006 54.054 235.206 53.174 237.238 53.174C239.27 53.174 240.47 54.15 240.47 55.814H238.95C238.95 54.822 238.326 54.23 237.238 54.23C236.182 54.23 235.558 54.662 235.558 55.382C235.558 56.214 236.518 56.39 237.606 56.582C239.03 56.838 240.71 57.126 240.71 58.982C240.71 60.534 239.414 61.462 237.238 61.462ZM245.426 61.462C243.25 61.462 241.954 60.454 241.954 58.726H243.474C243.474 59.766 244.194 60.39 245.426 60.39C246.642 60.39 247.346 59.926 247.346 59.126C247.346 58.118 246.29 57.942 245.138 57.734C243.762 57.51 242.194 57.238 242.194 55.51C242.194 54.054 243.394 53.174 245.426 53.174C247.458 53.174 248.658 54.15 248.658 55.814H247.138C247.138 54.822 246.514 54.23 245.426 54.23C244.37 54.23 243.746 54.662 243.746 55.382C243.746 56.214 244.706 56.39 245.794 56.582C247.218 56.838 248.898 57.126 248.898 58.982C248.898 60.534 247.602 61.462 245.426 61.462ZM254.237 61.462C251.741 61.462 250.253 59.926 250.253 57.318C250.253 54.71 251.741 53.174 254.237 53.174C256.749 53.174 258.221 54.71 258.221 57.318C258.221 59.926 256.749 61.462 254.237 61.462ZM254.237 60.166C255.725 60.166 256.589 59.11 256.589 57.318C256.589 55.526 255.725 54.47 254.237 54.47C252.749 54.47 251.885 55.526 251.885 57.318C251.885 59.11 252.749 60.166 254.237 60.166ZM265.899 53.334H267.499V61.302H265.899V58.646H265.867C265.867 60.406 264.795 61.462 262.971 61.462C260.891 61.462 259.659 59.926 259.659 57.318C259.659 54.71 260.891 53.174 262.971 53.174C264.795 53.174 265.867 54.23 265.867 55.99H265.899V53.334ZM263.659 60.166C265.147 60.166 266.011 59.046 266.011 57.318C266.011 55.59 265.147 54.47 263.659 54.47C262.171 54.47 261.307 55.526 261.307 57.318C261.307 59.11 262.171 60.166 263.659 60.166ZM276.505 64.742L275.881 65.142C273.929 62.582 273.113 59.734 273.113 56.982C273.113 54.23 273.929 51.382 275.881 48.822L276.505 49.222C274.617 51.67 273.913 54.486 273.913 56.982C273.913 59.446 274.617 62.31 276.505 64.742ZM282.353 49.462C284.929 49.462 286.449 50.806 286.449 53.078C286.449 55.35 284.929 56.71 282.337 56.71H279.841V61.302H278.161V49.462H282.353ZM282.433 55.366C283.873 55.366 284.737 54.518 284.737 53.078C284.737 51.638 283.889 50.79 282.449 50.79H279.841V55.366H282.433ZM293.387 54.63C295.819 54.63 297.243 55.846 297.243 57.894C297.243 60.038 295.755 61.302 293.211 61.302H288.395V49.462H293.099C295.147 49.462 296.347 50.454 296.347 52.15C296.347 53.686 295.163 54.598 293.163 54.598V54.63H293.387ZM294.619 52.71C294.619 51.51 293.851 50.79 292.555 50.79H290.075V54.598H292.555C293.851 54.598 294.619 53.91 294.619 52.71ZM293.291 59.974C294.683 59.974 295.515 59.19 295.515 57.894C295.515 56.614 294.683 55.846 293.291 55.846H290.075V59.974H293.291ZM297.647 64.742C299.535 62.31 300.239 59.446 300.239 56.982C300.239 54.486 299.535 51.67 297.647 49.222L298.271 48.822C300.223 51.382 301.039 54.23 301.039 56.982C301.039 59.734 300.223 62.582 298.271 65.142L297.647 64.742Z" fill="#FFEFC3"/>
<path d="M63.1697 13.302L62.482 24.1425L52.627 26.9832L62.29 29.8258C62.29 29.8258 56.1732 40.0207 56.3436 39.5196C56.5141 39.0185 64.9447 33.3371 64.9447 33.3371L68.9161 40.1883C68.9161 40.1883 69.0866 32.1673 69.7665 32.1673C70.4463 32.1673 77.627 31.4581 77.627 31.4581L69.7665 26.987C69.7665 26.987 76.7512 21.6371 76.2418 21.4695C75.7324 21.3018 67.1685 23.0305 67.1685 23.0305L63.1697 13.302Z" fill="#FFEEC1"/>
<path d="M64.2944 20.3073L63.9163 25.9482L58.5088 27.4264L63.8105 28.9065C63.8105 28.9065 60.4543 34.2101 60.5464 33.9499C60.6405 33.6898 65.2662 30.7334 65.2662 30.7334L67.4449 34.2988C67.4449 34.2988 67.539 30.1245 67.9112 30.1245C68.2835 30.1245 72.2255 29.7544 72.2255 29.7544L67.9112 27.4283C67.9112 27.4283 71.7435 24.6435 71.4653 24.5568C71.1851 24.4701 66.4868 25.3701 66.4868 25.3701L64.2925 20.3073H64.2944Z" fill="#F2911D"/>
<path d="M287.17 13.302L286.482 24.1425L276.627 26.9832L286.29 29.8258C286.29 29.8258 280.173 40.0207 280.344 39.5196C280.514 39.0185 288.945 33.3371 288.945 33.3371L292.916 40.1883C292.916 40.1883 293.087 32.1673 293.766 32.1673C294.446 32.1673 301.627 31.4581 301.627 31.4581L293.766 26.987C293.766 26.987 300.751 21.6371 300.242 21.4695C299.732 21.3018 291.168 23.0305 291.168 23.0305L287.17 13.302Z" fill="#FFEEC1"/>
<path d="M288.294 20.3073L287.916 25.9482L282.509 27.4264L287.811 28.9065C287.811 28.9065 284.454 34.2101 284.546 33.9499C284.64 33.6898 289.266 30.7334 289.266 30.7334L291.445 34.2988C291.445 34.2988 291.539 30.1245 291.911 30.1245C292.283 30.1245 296.225 29.7544 296.225 29.7544L291.911 27.4283C291.911 27.4283 295.744 24.6435 295.465 24.5568C295.185 24.4701 290.487 25.3701 290.487 25.3701L288.292 20.3073H288.294Z" fill="#F2911D"/>
</svg>
