<svg width="32" height="32" viewBox="0 0 32 32" fill="none" xmlns="http://www.w3.org/2000/svg">
<path d="M14.5479 0L13.7294 12.9023L2 16.2833L13.5009 19.6665C13.5009 19.6665 6.22072 31.8004 6.42359 31.2041C6.62647 30.6077 16.6606 23.8457 16.6606 23.8457L21.3873 32C21.3873 32 21.5902 22.4534 22.3994 22.4534C23.2085 22.4534 31.7549 21.6093 31.7549 21.6093L22.3994 16.2879C22.3994 16.2879 30.7125 9.92043 30.1063 9.72088C29.5 9.52132 19.3073 11.5788 19.3073 11.5788L14.5479 0Z" fill="#FFEEC1"/>
<path d="M15.8866 8.33777L15.4365 15.0516L9.00049 16.8109L15.3106 18.5724C15.3106 18.5724 11.3161 24.8848 11.4257 24.5752C11.5376 24.2655 17.0432 20.7469 17.0432 20.7469L19.6362 24.9903C19.6362 24.9903 19.7482 20.0221 20.1912 20.0221C20.6343 20.0221 25.326 19.5817 25.326 19.5817L20.1912 16.8131C20.1912 16.8131 24.7524 13.4987 24.4213 13.3955C24.0878 13.2923 18.4959 14.3634 18.4959 14.3634L15.8842 8.33777H15.8866Z" fill="#F2911D"/>
</svg>
