<svg width="344" height="551" viewBox="0 0 344 551" fill="none" xmlns="http://www.w3.org/2000/svg">
<path d="M262.341 550.988C249.437 550.988 249.437 539.092 236.528 539.092C223.623 539.092 223.623 550.988 210.718 550.988C197.814 550.988 197.814 539.092 184.909 539.092C172.004 539.092 172.004 550.988 159.095 550.988C146.191 550.988 146.191 539.092 133.282 539.092C120.377 539.092 120.377 550.988 107.468 550.988C94.5633 550.988 94.5633 539.092 81.6542 539.092C75.7567 539.092 69.0149 549.935 63.4887 548.228C57.7946 546.468 55.2481 532.71 50.1022 529.349C44.8811 525.941 35.2877 531.758 30.7961 526.923C26.2823 522.069 28.3955 508.187 24.7836 502.114C21.1894 496.071 10.6544 495.785 8.12122 488.761C5.58803 481.736 11.9718 470.566 10.6632 462.899C9.35465 455.232 0 449.064 0 441.13C0 417.469 8.84182 417.469 8.84182 393.808C8.84182 370.147 0 370.147 0 346.486C0 322.825 8.84182 322.825 8.84182 299.164C8.84182 275.503 0 275.503 0 251.842C0 228.181 8.84182 228.181 8.84182 204.52C8.84182 180.859 0 180.859 0 157.192C0 133.531 8.84182 133.531 8.84182 109.865C8.84182 101.93 0.782501 92.8594 2.0513 85.4244C3.35989 77.7635 13.5855 74.3374 16.0833 67.414C18.5811 60.4906 14.2928 47.4825 17.887 41.4394C21.4945 35.3665 31.8129 38.2096 36.3266 33.3501C40.8183 28.5145 41.0305 14.3405 46.2516 10.9323C51.3975 7.57174 59.7752 16.113 65.4737 14.3524C71.0043 12.6453 75.7656 0 81.6631 0C94.5677 0 94.5677 11.8959 107.477 11.8959C120.386 11.8959 120.373 0 133.282 0C146.191 0 146.186 11.8959 159.091 11.8959C171.996 11.8959 171.996 0 184.9 0C197.805 0 197.805 11.8959 210.714 11.8959C223.623 11.8959 223.623 0 236.528 0C249.432 0 249.432 11.8959 262.341 11.8959C268.239 11.8959 274.981 1.05279 280.507 2.75985C286.201 4.52044 288.747 18.278 293.893 21.6386C299.115 25.0468 308.708 19.2297 313.2 24.0654C317.713 28.9189 315.6 42.8014 319.212 48.8743C322.806 54.9174 333.341 55.2029 335.874 62.2274C338.372 69.1508 332.024 80.4222 333.332 88.0891C334.601 95.53 344 101.936 344 109.87C344 133.531 335.158 133.531 335.158 157.192C335.158 180.853 344 180.853 344 204.514C344 228.175 335.158 228.175 335.158 251.836C335.158 275.497 344 275.497 344 299.158C344 322.819 335.158 322.819 335.158 346.48C335.158 370.141 344 370.141 344 393.808C344 417.469 335.158 417.469 335.158 441.135C335.158 449.07 343.217 458.141 341.949 465.576C340.64 473.237 330.415 476.663 327.917 483.586C325.384 490.611 329.707 503.518 326.113 509.561C322.506 515.634 312.187 512.79 307.673 517.65C303.182 522.486 302.97 536.659 297.748 540.068C292.602 543.428 284.225 534.887 278.526 536.648C272.996 538.355 268.234 551 262.337 551L262.341 550.988Z" fill="#FFEEC1"/>
</svg>
