<svg width="470" height="547" viewBox="0 0 470 547" fill="none" xmlns="http://www.w3.org/2000/svg">
<path d="M358.431 546.988C340.8 546.988 340.8 535.179 323.163 535.179C305.531 535.179 305.531 546.988 287.9 546.988C270.269 546.988 270.269 535.179 252.637 535.179C235.006 535.179 235.006 546.988 217.369 546.988C199.737 546.988 199.737 535.179 182.1 535.179C164.469 535.179 164.469 546.988 146.831 546.988C129.2 546.988 129.2 535.179 111.562 535.179C103.505 535.179 94.2936 545.943 86.7433 544.248C78.9635 542.501 75.4844 528.843 68.4536 525.507C61.3201 522.123 48.2129 527.898 42.076 523.098C35.909 518.279 38.7962 504.497 33.8614 498.469C28.9507 492.469 14.5569 492.186 11.0958 485.212C7.63481 478.239 16.3569 467.15 14.569 459.539C12.7811 451.927 0 445.804 0 437.927C0 414.438 12.0804 414.438 12.0804 390.949C12.0804 367.46 0 367.46 0 343.97C0 320.481 12.0804 320.481 12.0804 296.992C12.0804 273.503 0 273.503 0 250.014C0 226.525 12.0804 226.525 12.0804 203.035C12.0804 179.546 0 179.546 0 156.051C0 132.562 12.0804 132.562 12.0804 109.067C12.0804 101.19 1.06912 92.1852 2.80265 84.8043C4.59055 77.1989 18.5615 73.7978 21.9742 66.9246C25.387 60.0515 19.528 47.1378 24.4386 41.1385C29.3674 35.1097 43.4653 37.9322 49.6323 33.108C55.7692 28.3075 56.0591 14.2364 63.1926 10.853C70.2234 7.51677 81.6695 15.996 89.4554 14.2482C97.0117 12.5535 103.517 0 111.575 0C129.206 0 129.206 11.8095 146.843 11.8095C164.481 11.8095 164.463 0 182.1 0C199.737 0 199.731 11.8095 217.363 11.8095C234.994 11.8095 234.994 0 252.625 0C270.257 0 270.257 11.8095 287.894 11.8095C305.531 11.8095 305.531 0 323.163 0C340.794 0 340.794 11.8095 358.431 11.8095C366.489 11.8095 375.7 1.04514 383.251 2.73981C391.03 4.48762 394.51 18.1454 401.54 21.4815C408.674 24.865 421.781 19.0901 427.918 23.8907C434.085 28.709 431.198 42.4907 436.133 48.5195C441.043 54.5187 455.437 54.8022 458.898 61.7757C462.311 68.6488 453.637 79.8384 455.425 87.4496C457.159 94.8365 470 101.196 470 109.073C470 132.562 457.92 132.562 457.92 156.051C457.92 179.54 470 179.54 470 203.03C470 226.519 457.92 226.519 457.92 250.008C457.92 273.497 470 273.497 470 296.986C470 320.475 457.92 320.475 457.92 343.965C457.92 367.454 470 367.454 470 390.949C470 414.438 457.92 414.438 457.92 437.933C457.92 445.81 468.931 454.815 467.197 462.196C465.409 469.801 451.438 473.202 448.026 480.075C444.565 487.049 450.472 499.862 445.561 505.861C440.633 511.89 426.535 509.068 420.368 513.892C414.231 518.693 413.941 532.764 406.807 536.147C399.777 539.483 388.33 531.004 380.545 532.752C372.988 534.446 366.483 547 358.425 547L358.431 546.988Z" fill="#FFEEC1"/>
</svg>
