<svg width="230" height="64" viewBox="0 0 230 64" fill="none" xmlns="http://www.w3.org/2000/svg">
<path d="M229.603 43.7703C229.61 43.5832 229.59 43.3905 229.61 43.1979C229.864 40.3286 228.644 40.0748 226.193 40.9973C219.753 43.4109 213.325 45.9691 206.713 47.8177C201.488 49.2793 196.083 49.3756 191.631 44.3427C200.211 40.812 208.564 37.55 216.759 33.936C223.655 30.9018 227.678 25.7632 227.252 17.8406C226.831 10.1995 222.179 5.6556 215.676 2.86221C207.8 -0.509133 199.613 -0.496175 191.496 2.19349C178.491 6.50399 171.41 17.5646 171.616 32.9579C171.643 35.2475 172.774 37.8334 169.227 39.0189C160.874 41.7975 152.681 45.0392 144.3 47.7085C139.131 49.3571 133.939 49.0885 128.59 45.054C133.65 42.8533 138.005 41.0121 142.312 39.0671C146.675 37.1091 151.147 35.316 155.297 32.9783C166.596 26.6061 167.232 12.6761 156.712 5.1925C140.097 -6.62757 114.355 2.827 109.49 22.5012C108.372 27.0117 108.186 31.5427 108.605 36.1144C108.77 37.9149 109.013 39.4524 106.831 40.2934C99.8722 42.9756 93.225 46.5063 85.8936 48.1549C78.8533 49.735 73.6969 47.0101 71.5424 40.9417C66.0336 25.4187 73.0257 15.3436 89.3164 15.3362H90.4697C100.273 15.3362 100.106 15.3288 100.189 5.8538C100.217 2.44727 99.4995 1.04687 95.7911 1.30991C91.2076 1.64149 86.576 1.35066 81.9721 1.41364C65.9224 1.62111 53.8573 11.5647 54.4302 27.323C54.8511 38.9356 49.5148 42.9497 40.2458 45.5282C39.5079 45.7282 38.8107 46.0524 38.0858 46.3136C22.9465 51.7615 14.9883 45.6301 16.4791 29.6514C16.6033 28.3269 16.887 27.0099 17.1967 25.7206C18.8265 18.8594 22.6498 15.6381 29.7049 15.3899C33.7358 15.2454 37.7669 15.3769 41.8052 15.3214C43.2348 15.301 44.6699 15.7289 45.2076 13.3967C47.3065 4.27928 45.1464 1.384 35.7996 1.38956C33.6877 1.38956 31.5757 1.37659 29.462 1.38956C12.5297 1.5007 2.15379 10.0032 0.358953 26.6987C-2.76161 55.6496 14.751 70.4965 41.7218 59.3118C46.3201 57.402 50.848 55.3532 55.424 53.3953C56.798 52.8025 58.1089 52.0023 59.4754 53.6917C69.1394 65.7044 81.3157 64.4151 93.9555 59.8082C99.7053 57.7113 105.318 55.2421 110.93 52.7803C112.684 52.0078 113.823 51.6633 115.355 53.3934C124.149 63.3241 135.268 64.9727 147.348 61.2346C155.749 58.6338 163.902 55.2495 172.109 52.0634C174.642 51.0705 176.347 50.7334 178.302 53.4286C182.181 58.7672 187.854 61.4291 194.364 62.5461C203.27 64.0706 211.519 61.581 219.601 58.4634C232.239 53.6009 229.154 57.0704 229.603 43.7666V43.7703ZM124.907 29.1012C125.376 19.115 131.625 13.1707 140.998 13.7839C144.235 14.0043 147.383 14.7916 148.134 18.3352C148.852 21.6936 146.332 23.5626 143.592 24.7833C138.359 27.121 133.01 29.1902 127.805 31.5834C124.575 33.0653 124.692 31.2667 124.905 29.1012H124.907ZM187.91 29.3921C187.537 20.7859 193.977 13.882 203.275 13.7727C206.231 13.9598 210.11 13.8969 211.104 18.1666C212.125 22.5382 208.612 24.1387 205.354 25.4428C200.557 27.373 195.683 29.1124 190.838 30.911C189.347 31.463 188.029 32.1447 187.912 29.3939L187.91 29.3921Z" fill="white"/>
</svg>
