<svg width="172" height="43" viewBox="0 0 172 43" fill="none" xmlns="http://www.w3.org/2000/svg">
<path d="M51.3207 16.3604C48.5145 16.3604 46.2419 18.6123 46.2419 21.382C46.2419 24.1516 48.5053 26.4113 51.3115 26.4113H58.1969C61.0031 26.4113 63.2757 24.1501 63.2757 21.382C63.2757 18.6139 61.0046 16.3604 58.2062 16.3604H51.3207Z" fill="white"/>
<mask id="mask0_438_10440" style="mask-type:luminance" maskUnits="userSpaceOnUse" x="46" y="16" width="18" height="11">
<path d="M51.3207 16.3604C48.5145 16.3604 46.2419 18.6123 46.2419 21.382C46.2419 24.1516 48.5053 26.4113 51.3115 26.4113H58.1969C61.0031 26.4113 63.2757 24.1501 63.2757 21.382C63.2757 18.6139 61.0046 16.3604 58.2062 16.3604H51.3207Z" fill="white"/>
</mask>
<g mask="url(#mask0_438_10440)">
<path d="M63.2849 16.3604H46.2419V26.4113H63.2849V16.3604Z" fill="white"/>
</g>
<path d="M126.474 37.7067C126.474 40.4764 124.203 42.7192 121.404 42.7192C118.606 42.7192 116.344 40.4841 116.335 37.7067V5.03922C116.335 2.26188 118.606 0.0175781 121.404 0.0175781C124.203 0.0175781 126.474 2.26034 126.474 5.03V37.7067Z" fill="white"/>
<path d="M139.929 16.3522C139.174 17.8592 138.755 19.5597 138.755 21.3646C138.755 27.6121 143.859 32.6768 150.174 32.6768C154.657 32.6768 158.542 30.1175 160.401 26.3939H150.182C147.384 26.3939 145.103 24.142 145.103 21.3646C145.103 18.5873 147.384 16.343 150.182 16.343C161.176 16.343 166.672 16.3399 166.672 16.3338C169.478 16.343 171.75 18.595 171.75 21.3631C171.75 33.1668 162.093 42.7262 150.182 42.7262C138.272 42.7262 128.614 33.1652 128.614 21.3631C128.614 9.56093 138.272 0 150.182 0C154.085 0 157.735 1.0246 160.91 2.82189C162.454 3.68981 163.507 5.32733 163.507 7.22139C163.507 9.99873 161.236 12.2507 158.438 12.2507C157.455 12.2507 156.534 11.9788 155.762 11.4965C154.105 10.5763 152.21 10.0586 150.184 10.0586C145.692 10.0586 141.807 12.6255 139.948 16.3599" fill="white"/>
<path d="M32.9281 3.20746C34.4273 4.08306 35.3837 5.696 35.3837 7.5363C35.3837 10.3136 33.1034 12.5656 30.3049 12.5656C29.2962 12.5656 28.366 12.2415 27.568 11.733C25.8135 10.6731 23.77 10.051 21.5682 10.051C15.2532 10.051 10.1483 15.1156 10.1483 21.3554C10.1483 27.5952 15.2532 32.6675 21.5682 32.6675C26.7438 32.6675 31.0845 29.3295 32.4976 24.6673L38.9094 3.90794C39.5583 1.88331 41.5065 0.411684 43.7606 0.411684H63.2238C66.0223 0.411684 68.2933 2.65445 68.2933 5.441C68.2933 8.22756 66.0223 10.4703 63.2238 10.4703H49.0577C48.1367 10.4703 47.3387 11.0663 47.0573 11.8897L42.2245 27.5491C39.5491 36.3389 31.3136 42.7262 21.5774 42.7262C9.64855 42.7262 0 33.1652 0 21.3631C0 9.56093 9.64855 0 21.5682 0C25.7351 0 29.6207 1.16593 32.9266 3.20746" fill="white"/>
<path d="M62.487 30.7858V30.7689L70.8547 3.64832C71.4682 1.54534 73.4163 0.0199586 75.732 0.0199586C75.8904 0.0199586 76.0134 0.0107422 76.1964 0.0107422H76.8022C79.0732 0.0107422 81.0029 1.5008 81.6441 3.54232L87.4071 22.251L93.1255 3.70823C93.7221 1.58836 95.678 0.018421 98.0106 0.018421H99.0715C101.352 0.018421 103.272 1.49927 103.923 3.55001L113.957 36.13C114.123 36.62 114.211 37.1469 114.211 37.6892C114.211 40.4665 111.94 42.7108 109.132 42.7108C106.861 42.7108 104.931 41.23 104.281 39.1792L98.5272 20.5228L92.755 39.2483C92.0615 41.1931 90.141 42.7093 87.9315 42.7093H87.318C87.1334 42.7093 87.0104 42.6924 86.8536 42.6924C84.5825 42.6924 82.6697 41.2115 82.0116 39.17L76.2486 20.4967L70.644 38.6539C70.0305 40.7476 68.0824 42.273 65.7852 42.273H46.322C43.5235 42.273 41.2524 40.0471 41.2524 37.2698C41.2524 34.4925 43.5235 32.2482 46.3312 32.2482H60.4527C61.3999 32.2482 62.2071 31.6352 62.47 30.7765" fill="white"/>
</svg>
