<svg width="164" height="60" viewBox="0 0 164 60" fill="none" xmlns="http://www.w3.org/2000/svg">
<path d="M17.2772 0L23.1289 10.5864H14.6924L20.5423 21.0357H6.18924L0 10.5864H8.16205L2.58475 0H17.2772Z" fill="white"/>
<path d="M46.1207 0L40.2708 10.5864H48.5701L42.5162 21.0357H28.0259L34.013 10.5864H25.4412L31.4264 0H46.1207Z" fill="white"/>
<path d="M161.769 49.7437C161.203 50.4106 159.9 52.6279 159.08 52.7742C158.148 52.9409 156.397 50.6903 155.018 50.5014C152.22 50.1142 151.678 52.3019 149.589 53.3392C149.461 53.0169 149.767 52.476 149.904 52.1611C150.084 51.7443 151.287 49.5029 151.287 49.3325C151.274 49.125 150.762 49.0806 150.562 49.1491C150.303 49.2417 148.074 52.752 147.065 53.3985C146.198 53.9561 145.567 53.1892 145.565 52.3222C145.556 49.7734 149.628 47.4542 151.834 48.862C151.949 48.1599 151.801 47.8802 151.08 47.782C149.049 47.5005 146.995 48.4841 145.71 50.0105C145.358 50.4273 145.152 50.9589 144.829 51.3034C144.54 51.6146 142.167 53.4022 141.903 53.2021L144.327 48.0877L144.349 47.7765C144.126 47.8061 143.83 47.721 143.626 47.7691C143.511 47.795 142.786 49.4659 142.515 49.8123C141.386 51.2886 139.005 52.489 137.685 53.8801L139.589 49.6752C139.369 49.727 139.12 49.5696 138.942 49.5733C138.594 49.577 137.362 51.3868 137.005 51.7814C136.408 52.4408 134.394 54.7841 133.93 52.8057C133.393 50.4995 137.145 47.9691 139.185 48.5174C139.495 48.5989 140.259 49.377 140.394 48.6397C140.542 47.8321 138.388 47.7172 137.885 47.7728C135.497 48.0377 134.479 49.6492 133.252 51.296C132.972 51.6702 130.793 53.4448 130.474 53.2021C130.724 52.1592 132.432 49.5863 132.373 48.6656C132.301 47.5301 130.6 48.0395 130.474 47.9117C130.313 47.7413 130.789 46.741 129.729 46.9596C129.427 47.0244 129.273 47.2875 129.249 47.5857C129.21 48.0618 129.593 48.1822 129.465 48.5897C129.045 49.9308 125.012 53.2707 123.679 53.5504C122.167 53.8653 121.741 53.3244 121.899 51.848C123.616 52.1426 126.226 51.1256 126.601 49.2751C127.124 46.7095 124.072 47.9228 122.922 48.862C121.819 49.7641 121.648 50.7885 120.883 51.5813C120.33 52.1518 119.175 52.8835 118.429 53.2058C118.745 51.6961 120.1 50.0235 120.475 48.5934C120.905 46.9429 119.47 47.9247 118.78 48.3971C117.306 49.414 116.058 50.9663 114.688 52.1167L116.566 48.0877L116.592 47.7765C116.366 47.8061 116.069 47.721 115.867 47.7691C115.759 47.795 115.042 49.4418 114.823 49.74C113.955 50.9107 110.56 53.128 109.142 53.4411C108.35 53.6152 106.987 53.7949 106.45 53.0762C105.291 51.5276 108.039 49.7826 109.238 49.2547C108.958 48.46 108.356 47.7654 108.289 46.8892C108.139 44.8627 110.959 42.0341 112.978 42.3545C113.915 42.5027 113.57 42.9881 113.247 43.5549C112.952 44.0736 111.189 46.0612 111.159 46.2279C111.122 46.4372 111.5 46.6651 111.625 46.8188C112.472 45.7944 116.123 42.399 113.44 41.6192C111.298 40.9986 108.478 43.2104 107.779 45.1554C107.238 46.6614 107.484 47.6061 108.157 48.9898C106.292 49.5122 103.783 52.6409 106.122 54.0783C108.367 55.4565 112.194 52.8668 114.005 51.572C114.117 51.6943 112.077 54.5173 113.371 54.4025C113.755 54.3673 116.642 51.1089 117.269 50.5514C117.521 50.3291 119.266 48.8453 119.449 48.9935C119.002 50.4273 117.695 52.0814 117.334 53.4689C116.711 55.8677 120.286 52.8391 120.877 52.389C121.192 52.6483 121.027 53.0576 121.183 53.4392C121.455 54.1191 122.483 54.4895 123.176 54.4136C124.719 54.2487 127.958 51.622 128.976 50.4217C129.742 49.5233 130.014 48.0636 131.409 48.7361C131.659 49.1028 129.629 52.7483 129.445 53.4707C129.38 53.7171 129.278 54.1987 129.508 54.3654C130.133 54.8211 132.451 52.6538 133.12 52.3871C133.563 55.6214 135.914 54.3858 137.272 52.5242C136.99 53.3022 136.637 54.3654 136.211 55.0601C135.686 55.9103 134.911 56.5068 134.483 57.546C134.312 57.9665 133.758 59.6355 134.594 59.5595C135.477 59.478 136.179 56.931 136.567 56.2289C137.585 54.3858 140.058 53.0206 141.558 51.5702C141.746 51.5313 141.814 51.5794 141.759 51.7702C141.64 52.1666 140.073 54.3451 141.149 54.4284C141.992 54.4933 144.62 52.0852 144.751 52.25C144.968 55.2231 147.332 54.7693 148.699 52.7909C148.673 53.3318 147.868 54.258 148.775 54.4173C150.646 54.7544 152.263 51.5072 154.209 51.4257C156.195 51.3442 157.471 53.7968 158.962 53.7356C160.747 53.656 161.982 50.5069 163.26 49.5325V49.125C162.718 48.5045 162.153 49.2825 161.765 49.7382L161.769 49.7437ZM123.762 49.0195C126.18 47.2745 126.504 49.3121 124.452 50.6607C123.667 51.1756 122.967 51.2386 122.038 51.1701C122.353 50.3698 123.069 49.5196 123.762 49.0213V49.0195Z" fill="white"/>
<path d="M48.5699 34.4727H40.4061L46.2559 45.1961H31.5635L25.5764 34.4727H34.1482L28.1611 24.0215H42.6514L48.5699 34.4727Z" fill="white"/>
<path d="M20.407 24.4297L14.5571 34.7456H22.8563L17.0064 45.1968H2.72195L8.02856 34.7456H0.137207C1.95058 31.2261 4.07178 27.8603 6.05574 24.4297H20.4088H20.407Z" fill="white"/>
<path d="M94.1195 10.2179C86.2541 10.9199 84.0439 17.9924 84.9117 24.8851C85.683 31.0239 89.4081 34.147 95.601 34.1489C101.518 34.1489 105.209 31.1276 106.083 25.2722C107.377 16.6086 103.859 9.35098 94.1195 10.2179ZM101.492 23.9515C101.193 27.9971 99.1573 30.9332 94.7629 30.5349C89.549 30.0625 89.1188 23.5236 89.6769 19.4947C90.1201 16.316 91.5126 14.069 94.9372 13.7467C101.097 13.1669 101.844 19.215 101.492 23.9496V23.9515Z" fill="white"/>
<path d="M144.621 10.5868V14.0471C144.621 14.0619 144.432 14.2508 144.417 14.2508H134.01V19.9506H143.941V23.4794H134.214C134.199 23.4794 134.01 23.6684 134.01 23.6832V30.1294H144.894V33.6582H129.249V10.585H144.623L144.621 10.5868Z" fill="white"/>
<path d="M120.727 10.7366C117.298 10.2809 113.534 10.7625 110.063 10.5866V33.6599H114.825V25.0407C114.825 24.9463 115.051 24.8574 115.166 24.837C116.249 24.6369 118.046 24.9185 119.251 24.8444C123.202 24.5925 126.632 23.0328 126.938 18.6667C127.253 14.2173 125.205 11.3349 120.725 10.7366H120.727ZM121.075 20.419C120.484 20.8618 119.017 21.3082 118.298 21.3082H114.827V14.2506H119.384C119.942 14.2506 121.157 14.9175 121.528 15.3694C122.568 16.6494 122.434 19.3984 121.075 20.419Z" fill="white"/>
<path d="M81.6298 17.9149H76.8683C76.7811 13.3265 70.5548 12.3818 68.0276 15.5438C65.938 18.1575 66.1048 25.3707 67.7254 28.1882C69.4813 31.239 74.9473 31.441 76.5327 28.2345C76.9035 27.4824 76.8813 26.7396 77.2076 26.0579H81.7651C81.8004 30.2239 78.5982 33.1137 74.6915 33.8639C69.7371 34.816 64.6883 33.2045 62.7507 28.266C61.2636 24.476 61.3841 18.1038 63.5108 14.5676C67.5974 7.77307 81.6168 8.77148 81.6279 17.9149H81.6298Z" fill="white"/>
<path d="M152.785 10.5859V29.9267C152.785 29.9415 152.975 30.1305 152.989 30.1305H162.581V33.6593H148.024V10.5859H152.785Z" fill="white"/>
<path d="M88.1601 48.1824C88.2565 48.2825 90.0143 47.9546 90.0792 49.0642C90.1237 49.8125 88.0748 53.382 88.2973 53.6099C88.5272 53.6543 88.657 53.4969 88.8257 53.3932C90.3925 52.4373 90.8097 51.802 91.9 50.4886C92.9401 49.2346 94.8629 48.0602 96.5335 48.0435C96.8005 48.0398 98.1151 48.3176 98.2097 48.4714C98.3302 48.6659 98.104 49.0475 98.0891 49.2679C95.9161 47.6322 90.9988 50.6887 91.9722 53.2672C92.5767 54.8677 93.997 53.232 94.6219 52.5263C95.0687 52.0224 96.4594 49.7699 96.7301 49.6069C96.9618 49.468 97.2882 49.5532 97.544 49.5383L95.777 53.608C96.0551 53.8692 98.536 51.6741 98.9736 51.4389C99.1034 51.5797 99.0663 51.9891 99.0144 52.1595C98.9272 52.4466 96.07 54.412 95.6231 54.6102C95.3542 54.7287 95.002 54.9696 94.7498 54.701C94.4253 54.2082 95.0446 53.6784 94.8926 53.2024C94.1249 54.6491 91.7405 55.6698 91.1824 53.5099C91.1064 53.2172 91.3047 52.5874 90.945 52.6559C90.5964 52.7226 88.9704 54.1341 88.3845 54.4453C87.9728 54.6639 87.1496 55.1677 87.068 54.3508C86.9864 53.5191 89.0353 50.2682 89.2503 49.2031C87.7355 48.401 87.6558 49.6513 86.9308 50.5516C86.2744 51.3666 82.0265 55.014 81.1661 54.8121C80.9381 54.7584 80.8176 54.3379 80.838 54.1174C80.8862 53.5839 81.9968 51.6167 82.2861 50.9388C82.3398 50.8146 82.5827 50.5924 82.3769 50.4868C81.2644 51.5426 80.2557 52.73 79.0301 53.6618C76.0375 55.9383 76.3768 54.3175 77.684 51.9113L76.731 52.3836C76.4714 51.3926 77.545 51.1351 78.0901 50.5516C78.5054 50.1052 79.3138 48.325 79.4492 48.2435C79.5864 48.1602 80.3689 48.0249 80.2632 48.3769C79.6346 49.7532 78.7761 51.1814 78.2013 52.5652C78.1012 52.8078 77.8546 53.2227 78.0215 53.4728C80.1389 52.1224 81.8466 50.2145 83.4524 48.3047L84.3461 48.1787C84.5426 48.3658 82.3658 52.5299 82.1414 53.1023C82.0895 53.2357 81.919 53.5191 82.1044 53.608C83.4505 52.73 86.7657 50.572 87.1496 48.9919C87.2367 48.6325 86.5525 47.3452 87.5667 47.2581C88.3307 47.1933 88.1137 48.1324 88.1564 48.1787L88.1601 48.1824Z" fill="white"/>
<path d="M75.2273 41.9994C73.0171 42.5181 70.9349 48.3642 70.2007 50.3556C69.5369 49.948 68.6172 49.2738 67.8662 49.0885C65.3186 48.4754 62.7376 50.952 60.8816 52.3895C60.6851 52.8526 60.8223 53.3509 61.4008 53.1842C61.538 53.1453 63.0139 51.843 63.3587 51.6022C65.6449 49.9943 67.4083 49.0533 69.7816 51.2614C69.9058 51.6411 68.7136 54.6234 68.7136 55.4644C68.7136 55.7589 68.8508 56.0164 69.1642 56.0442C69.8632 55.922 70.718 52.5802 70.7495 51.8486C71.9454 52.4024 72.7168 52.4358 73.9516 51.9893C76.1192 51.2113 77.2743 49.0237 77.6525 46.8582C77.9548 45.1133 77.9807 41.3492 75.2291 41.9994H75.2273ZM76.833 46.5859C76.4677 48.5995 74.964 51.5503 72.5814 51.4485C71.899 51.4188 70.883 51.1335 71.048 50.3203C71.2149 49.4831 72.1345 47.4992 72.535 46.6434C72.9819 45.6913 74.2946 43.0257 75.333 42.7848C77.2965 42.3329 77.0462 45.4189 76.833 46.5878V46.5859Z" fill="white"/>
<path d="M144.577 45.2151C145.711 44.8298 145.435 46.7136 144.551 46.684C143.798 46.6581 144.084 45.3818 144.577 45.2151Z" fill="white"/>
</svg>
