<svg width="130" height="56" viewBox="0 0 130 56" fill="none" xmlns="http://www.w3.org/2000/svg">
<path d="M29.5733 32.3132V39.3941H0V0.00195312H28.9869V7.08142H9.27186V15.7047H27.1229V22.7857H9.27186V32.3146H29.5733V32.3132Z" fill="#FEF9FC"/>
<path d="M66.5006 0L56.216 39.3922H39.8579L29.5732 0H39.3777L48.2755 38.6479H48.3818L57.3335 0H66.4991H66.5006Z" fill="#FEF9FC"/>
<path d="M98.1158 32.3132V39.3941H68.5425V0.00195312H97.5294V7.08142H77.8143V15.7047H95.6655V22.7857H77.8143V32.3146H98.1158V32.3132Z" fill="#FEF9FC"/>
<path d="M129.356 39.3916H119.391L114.223 25.6048H114.117L109.002 39.3916H99.0376L105.165 25.2312L99.9427 12.4023H109.481L114.117 25.1251H114.223L118.859 12.4023H128.451L123.176 25.2312L129.357 39.3916H129.356Z" fill="#FEF9FC"/>
<path d="M5.41531 51.8649V52.6241H0.128662V44.5986H5.29712V45.3578H1.05165V48.1018H4.91715V48.861H1.05165V51.8649H5.41684H5.41531Z" fill="#FEF9FC"/>
<path d="M11.3975 49.2822V52.6224H10.5074V49.3031C10.5074 48.4034 10.0078 47.8714 9.14012 47.8714C8.17374 47.8714 7.60977 48.5439 7.60977 49.6827V52.6224H6.71973V47.2527H7.60977V49.0969H7.63219C7.63219 47.8714 8.31591 47.1436 9.45582 47.1436C10.6825 47.1436 11.399 47.9356 11.399 49.2807L11.3975 49.2822Z" fill="#FEF9FC"/>
<path d="M17.6942 50.0747H13.5908C13.6342 51.3107 14.2311 52.0281 15.2079 52.0281C16.077 52.0281 16.674 51.5393 16.8146 50.7368H17.6942C17.5207 51.9952 16.5976 52.732 15.2079 52.732C13.6446 52.732 12.7112 51.7023 12.7112 49.9447C12.7112 48.1872 13.6446 47.1455 15.2079 47.1455C16.7712 47.1455 17.6942 48.1767 17.6942 49.9447V50.0747ZM13.6013 49.6294H16.8041C16.7173 48.501 16.1309 47.8509 15.2079 47.8509C14.2849 47.8509 13.6881 48.501 13.6013 49.6294Z" fill="#FEF9FC"/>
<path d="M22.5585 47.3084L22.2877 48.1438C22.0813 48.0243 21.7881 47.96 21.4949 47.96C20.518 47.96 19.942 48.7088 19.942 49.9881V52.6229H19.052V47.2531H19.942V49.2931H19.9645C19.9645 47.9376 20.6152 47.1455 21.7237 47.1455C22.0394 47.1455 22.343 47.1993 22.5599 47.3084H22.5585Z" fill="#FEF9FC"/>
<path d="M28.1719 47.2546V52.7424C28.1719 54.3042 27.216 55.2263 25.6094 55.2263C24.1658 55.2263 23.2427 54.4775 23.1335 53.2296L23.9803 53.1429C24.0461 53.9888 24.6535 54.4985 25.6094 54.4985C26.6625 54.4985 27.2818 53.8693 27.2818 52.8067V50.8324H27.2594C27.2594 52.0041 26.5099 52.7095 25.2728 52.7095C23.8397 52.7095 22.9929 51.6679 22.9929 49.9223C22.9929 48.1767 23.8397 47.1455 25.2728 47.1455C26.5099 47.1455 27.2594 47.839 27.2594 49.0106H27.2818V47.2531H28.1719V47.2546ZM27.3461 49.9223C27.3461 48.6639 26.7163 47.8718 25.6198 47.8718C24.5233 47.8718 23.9039 48.631 23.9039 49.9223C23.9039 51.2135 24.5338 51.9728 25.6198 51.9728C26.7059 51.9728 27.3461 51.1807 27.3461 49.9223Z" fill="#FEF9FC"/>
<path d="M34.4578 47.2559L31.9177 55.1199H30.9618L31.7756 52.6256H31.0156L29.2893 47.2559H30.2452L31.8624 52.5599H31.8833L33.5005 47.2559H34.4563H34.4578Z" fill="#FEF9FC"/>
<path d="M43.9793 44.5986L41.4721 52.6241H39.7562L37.2595 44.5986H38.2693L40.6254 52.5374H40.6478L43.0144 44.5986H43.9808H43.9793Z" fill="#FEF9FC"/>
<path d="M45.0215 44.9219H45.9122V46.0607H45.0215V44.9219ZM45.0215 47.2548H45.9122V52.6246H45.0215V47.2548Z" fill="#FEF9FC"/>
<path d="M51.1017 47.3084L50.8309 48.1438C50.6245 48.0243 50.3313 47.96 50.0381 47.96C49.0613 47.96 48.4853 48.7088 48.4853 49.9881V52.6229H47.5952V47.2531H48.4853V49.2931H48.5078C48.5078 47.9376 49.1585 47.1455 50.267 47.1455C50.5826 47.1455 50.8863 47.1993 51.1032 47.3084H51.1017Z" fill="#FEF9FC"/>
<path d="M53.2078 47.9169V51.0523C53.2078 51.6486 53.5668 51.9954 54.1846 51.9954C54.4554 51.9954 54.7381 51.9311 54.955 51.822V52.5154C54.6723 52.6455 54.2819 52.7321 53.9019 52.7321C52.9026 52.7321 52.3162 52.1358 52.3162 51.1061V47.9169H51.447V47.2548H52.3805V45.3896H53.2706V45.8455C53.2706 46.4418 52.9445 46.9514 52.4239 47.2339V47.2548H55.0403V47.9169H53.2048H53.2078Z" fill="#FEF9FC"/>
<path d="M60.6334 47.2559V52.6256H59.7433V50.7814H59.7208C59.7208 52.0069 59.0581 52.7347 57.9511 52.7347C56.7574 52.7347 56.0618 51.9426 56.0618 50.5976V47.2574H56.9519V50.5662C56.9519 51.4778 57.4291 52.0084 58.2653 52.0084C59.1988 52.0084 59.7418 51.3359 59.7418 50.1866V47.2574H60.6318L60.6334 47.2559Z" fill="#FEF9FC"/>
<path d="M67.1914 47.2536V52.6233H66.3014V50.8553H66.2789C66.2789 52.027 65.5295 52.7324 64.2923 52.7324C62.8592 52.7324 62.0125 51.6908 62.0125 49.9347C62.0125 48.1787 62.8592 47.1475 64.2923 47.1475C65.5295 47.1475 66.2789 47.8409 66.2789 49.0126H66.3014V47.2551H67.1914V47.2536ZM66.3657 49.9332C66.3657 48.6644 65.7359 47.8723 64.6393 47.8723C63.5428 47.8723 62.9235 48.642 62.9235 49.9332C62.9235 51.2245 63.5533 51.9941 64.6393 51.9941C65.7254 51.9941 66.3657 51.2021 66.3657 49.9332Z" fill="#FEF9FC"/>
<path d="M68.875 44.2715H69.7657V52.6228H68.875V44.2715Z" fill="#FEF9FC"/>
<path d="M79.5033 51.8649V52.6241H74.2166V44.5986H79.3851V45.3578H75.1395V48.1018H79.0051V48.861H75.1395V51.8649H79.5047H79.5033Z" fill="#FEF9FC"/>
<path d="M85.595 52.6227H84.5418L82.8813 49.8788H82.8589L81.1984 52.6227H80.1558L81.9464 49.813L80.3398 47.2529H81.36L82.8589 49.7801H82.8813L84.3908 47.2529H85.411L83.7939 49.813L85.5965 52.6227H85.595Z" fill="#FEF9FC"/>
<path d="M91.8045 49.9343C91.8045 51.6918 90.9473 52.732 89.5142 52.732C88.277 52.732 87.538 52.0266 87.538 50.8549H87.5155V55.1172H86.6255V47.2531H87.5155V49.0106H87.538C87.538 47.839 88.2755 47.1455 89.5142 47.1455C90.9473 47.1455 91.8045 48.1872 91.8045 49.9328V49.9343ZM90.8934 49.9343C90.8934 48.643 90.2531 47.8733 89.1671 47.8733C88.081 47.8733 87.4407 48.6654 87.4407 49.9343C87.4407 51.2031 88.081 52.0056 89.1671 52.0056C90.2531 52.0056 90.8934 51.236 90.8934 49.9343Z" fill="#FEF9FC"/>
<path d="M97.8304 50.0747H93.727C93.7704 51.3107 94.3673 52.0281 95.3441 52.0281C96.2133 52.0281 96.8102 51.5393 96.9508 50.7368H97.8304C97.6569 51.9952 96.7339 52.732 95.3441 52.732C93.7809 52.732 92.8474 51.7023 92.8474 49.9447C92.8474 48.1872 93.7809 47.1455 95.3441 47.1455C96.9074 47.1455 97.8304 48.1767 97.8304 49.9447V50.0747ZM93.7375 49.6294H96.9403C96.8535 48.501 96.2671 47.8509 95.3441 47.8509C94.4211 47.8509 93.8243 48.501 93.7375 49.6294Z" fill="#FEF9FC"/>
<path d="M102.695 47.3084L102.424 48.1438C102.218 48.0243 101.925 47.96 101.631 47.96C100.655 47.96 100.079 48.7088 100.079 49.9881V52.6229H99.1885V47.2531H100.079V49.2931H100.101C100.101 47.9376 100.752 47.1455 101.86 47.1455C102.176 47.1455 102.48 47.1993 102.696 47.3084H102.695Z" fill="#FEF9FC"/>
<path d="M103.639 44.9219H104.53V46.0607H103.639V44.9219ZM103.639 47.2548H104.53V52.6246H103.639V47.2548Z" fill="#FEF9FC"/>
<path d="M110.87 50.0747H106.767C106.81 51.3107 107.407 52.0281 108.384 52.0281C109.253 52.0281 109.85 51.5393 109.99 50.7368H110.87C110.696 51.9952 109.773 52.732 108.384 52.732C106.82 52.732 105.887 51.7023 105.887 49.9447C105.887 48.1872 106.82 47.1455 108.384 47.1455C109.947 47.1455 110.87 48.1767 110.87 49.9447V50.0747ZM106.777 49.6294H109.98C109.893 48.501 109.307 47.8509 108.384 47.8509C107.461 47.8509 106.864 48.501 106.777 49.6294Z" fill="#FEF9FC"/>
<path d="M116.907 49.2822V52.6224H116.016V49.3031C116.016 48.4034 115.517 47.8714 114.649 47.8714C113.683 47.8714 113.119 48.5439 113.119 49.6827V52.6224H112.229V47.2527H113.119V49.0969H113.141C113.141 47.8714 113.825 47.1436 114.965 47.1436C116.192 47.1436 116.908 47.9356 116.908 49.2807L116.907 49.2822Z" fill="#FEF9FC"/>
<path d="M118.22 49.9347C118.22 48.1876 119.197 47.1475 120.826 47.1475C122.139 47.1475 123.029 47.8305 123.29 49.035H122.399C122.16 48.2967 121.617 47.8738 120.826 47.8738C119.762 47.8738 119.132 48.6435 119.132 49.9347C119.132 51.226 119.762 51.9956 120.826 51.9956C121.662 51.9956 122.226 51.5294 122.432 50.7268H123.322C123.083 51.9956 122.193 52.7339 120.826 52.7339C119.197 52.7339 118.22 51.6923 118.22 49.9362V49.9347Z" fill="#FEF9FC"/>
<path d="M129.229 50.0747H125.125C125.169 51.3107 125.765 52.0281 126.742 52.0281C127.611 52.0281 128.208 51.5393 128.349 50.7368H129.229C129.055 51.9952 128.132 52.732 126.742 52.732C125.179 52.732 124.246 51.7023 124.246 49.9447C124.246 48.1872 125.179 47.1455 126.742 47.1455C128.306 47.1455 129.229 48.1767 129.229 49.9447V50.0747ZM125.136 49.6294H128.338C128.252 48.501 127.665 47.8509 126.742 47.8509C125.819 47.8509 125.222 48.501 125.136 49.6294Z" fill="#FEF9FC"/>
</svg>
