<svg width="118" height="81" viewBox="0 0 118 81" fill="none" xmlns="http://www.w3.org/2000/svg">
<path d="M0.00181071 72.9881V64.5283L4.24793 64.5635V65.3359L0.934508 65.3489V68.1052L3.71015 68.1331V68.9036L0.934508 68.911V73.027C0.591487 73.1048 0.291104 73.0697 0 72.9863L0.00181071 72.9881Z" fill="white"/>
<path d="M64.0688 80.9604H63.4031L63.1158 80.5492C62.6986 79.5804 62.8839 78.0077 63.7777 78.0059C64.0447 78.0059 64.3506 78.1485 64.4655 78.4486C64.4971 78.5301 64.3785 78.5968 64.3229 78.6005C64.1337 78.6153 64.0002 78.2263 63.7184 78.2985C63.0453 78.4726 63.0712 80.5436 63.7035 80.6714C64.1485 80.7603 64.3061 80.0842 64.4952 80.4695C64.5731 80.6307 64.3135 80.74 64.0706 80.9604H64.0688Z" fill="white"/>
<path d="M78.8781 80.8641C78.8392 80.9141 78.7743 80.9456 78.6816 80.9623H78.4016L78.2143 80.8678C77.9047 80.8567 77.7211 80.4232 77.7897 80.2973C77.8138 80.2528 77.9269 80.2158 77.9751 80.2288C78.0345 80.2436 78.0752 80.3418 78.1049 80.414C78.2087 80.6678 78.4516 80.7326 78.7001 80.6585C78.8447 80.614 79.0023 80.3992 78.8948 80.1787C78.7112 79.8009 77.7433 79.8805 77.8416 79.1507C77.8842 78.8339 78.1327 78.6394 78.498 78.632C78.867 78.6246 79.2007 78.8932 79.1507 79.2359C79.1136 79.2748 78.9505 79.2988 78.9208 79.2766C78.8911 79.2525 78.8669 79.197 78.8354 79.134C78.726 78.9154 78.5073 78.8876 78.3108 78.9636C78.1791 79.0154 78.0585 79.234 78.2013 79.3933C78.4702 79.6934 79.2712 79.673 79.2359 80.351C79.2248 80.5566 79.1154 80.7956 78.8762 80.866L78.8781 80.8641Z" fill="white"/>
<path d="M83.6915 80.9608H83.074C82.9479 80.8404 82.7235 80.7088 82.7198 80.481L82.6938 78.9065C82.6938 78.8138 82.7309 78.699 82.7791 78.6749C82.8107 78.6601 82.8756 78.6601 82.9942 78.6749L83.0036 80.2105C83.0036 80.5199 83.1426 80.6922 83.404 80.694C83.6766 80.6959 83.8324 80.531 83.8305 80.218L83.8212 78.9065C83.8212 78.8138 83.8527 78.7008 83.9028 78.6749C83.9324 78.6582 84.0029 78.6601 84.1197 78.6749L84.1383 80.3124C84.142 80.6403 83.9566 80.8126 83.6952 80.9608H83.6915Z" fill="white"/>
<path d="M24.7718 80.8637C24.7514 80.91 24.6864 80.9433 24.577 80.9618H24.2971L24.1098 80.8674C23.611 80.8526 23.3106 79.7115 23.7742 78.9464C23.9207 78.7056 24.1969 78.6278 24.4306 78.6352C24.6697 78.6427 24.9127 78.7538 25.0554 79.0131C25.1092 79.1113 24.9942 79.2373 24.9052 79.2484C24.7977 79.2632 24.6846 78.902 24.349 78.9261C23.9355 78.9557 23.7556 79.6503 23.9318 80.2857C24.006 80.5524 24.2007 80.6803 24.4325 80.6896C24.6105 80.697 24.7773 80.445 24.9535 80.395C25.1741 80.3339 25.1723 80.6228 25.0239 80.7025C24.9535 80.7395 24.883 80.8526 24.7699 80.8637H24.7718Z" fill="white"/>
<path d="M34.5746 80.8674C34.5579 80.91 34.4967 80.9414 34.3891 80.9618H34.1092L33.9219 80.8636C33.4621 80.8303 33.1766 79.7503 33.5752 79.0353C33.7365 78.7445 34.035 78.6056 34.3298 78.6334C34.5579 78.6537 34.8379 78.8279 34.9306 79.1039C34.6321 79.4947 34.5931 78.8723 34.1759 78.9316C33.6753 79.0039 33.5566 79.9708 33.8904 80.5172C34.0091 80.7117 34.3317 80.747 34.4578 80.6395L34.8082 80.3413C35.014 80.4005 35.0233 80.6154 34.8583 80.7303C34.7878 80.7803 34.6988 80.8655 34.5765 80.8674H34.5746Z" fill="white"/>
<path d="M14.5755 80.9624H14.4384L13.6299 78.7526C13.6818 78.6636 13.8765 78.6136 13.9099 78.6562L14.5255 80.2252L15.1058 78.684C15.1484 78.571 15.4248 78.684 15.3895 78.7785L14.5737 80.9624H14.5755Z" fill="white"/>
<path d="M93.4129 80.9605H93.1182L93.0885 78.9303L92.6509 78.9525C92.5545 78.958 92.4303 78.8784 92.4878 78.6765L93.984 78.6709C94.0322 78.6709 94.0786 78.871 93.9915 78.9191L93.4185 78.9636L93.4111 80.9605H93.4129Z" fill="white"/>
<path d="M88.0565 78.7152C88.0287 78.8856 87.9916 78.9264 87.949 78.8375C87.9286 78.9227 87.9396 80.5195 87.9674 80.6047C87.9786 80.6436 88.1436 80.7565 88.164 80.764L89.182 80.7862L89.2413 80.8733C89.2301 80.8936 89.2376 80.9381 89.2413 80.964H87.7061L87.7654 78.6189C87.9285 78.58 88.0546 78.6578 88.0546 78.7152H88.0565Z" fill="white"/>
<path d="M54.6694 80.8715C54.6582 80.8918 54.6656 80.9363 54.6694 80.9622H53.2666V80.8678L53.3464 80.6807C53.7398 80.7696 54.1628 80.8029 54.6118 80.7844L54.6713 80.8715H54.6694Z" fill="white"/>
<path d="M39.6223 80.9618H38.6871L38.6704 80.8692C38.7613 80.797 38.8708 80.7321 38.9988 80.6729C39.2901 80.7469 39.4663 80.7488 39.5313 80.6766C39.6166 80.6895 39.6612 80.8803 39.6223 80.9618Z" fill="white"/>
<path d="M74.046 78.73L73.9959 80.4379L73.2246 78.7448C73.1727 78.63 72.8352 78.6262 72.8334 78.73L72.7944 80.964L73.0392 80.9603L73.117 79.1672L73.9181 80.8658H74.3222L74.3463 78.7337C74.3185 78.6318 74.0515 78.6374 74.0478 78.73H74.046Z" fill="white"/>
<path d="M78.8783 80.8643V80.9624H78.6816C78.7243 80.8828 78.8078 80.8846 78.8783 80.8643Z" fill="white"/>
<path d="M78.4016 80.9626H78.1753L78.2143 80.8682C78.2903 80.8719 78.3645 80.8867 78.4016 80.9626Z" fill="white"/>
<path d="M72.1735 15.6397C71.8731 15.7824 71.213 15.5453 71.5542 15.2026L72.8594 14.0615C74.81 12.0887 76.5159 9.95106 77.901 7.5411C78.6872 6.17219 79.0895 4.64213 78.9578 3.10836C78.8429 1.77094 77.7897 0.915142 76.4621 1.07815C74.9361 1.26524 73.5381 1.92838 72.2921 2.87125C69.1938 5.21451 65.7024 9.63801 63.6535 12.9241C63.3661 13.3076 62.6931 13.0445 62.8915 12.5814C64.0633 10.7068 65.3853 8.93039 66.7833 7.16877L68.454 5.27193C70.2562 3.22505 73.2377 1.0022 75.8818 0.19456C76.8126 -0.0907071 77.6989 -0.0554973 78.6056 0.255703C80.7416 0.987395 80.5209 3.48438 79.7867 5.50163C78.4313 9.21936 75.2384 13.2464 72.1735 15.6397Z" fill="white"/>
<path d="M38.9708 73.0002C38.6333 73.1169 38.2959 73.0947 37.964 73.0132L35.6463 68.0395L35.6908 73.0243C35.4293 73.0928 35.2142 73.0836 34.8916 73.0465V67.0003L35.8688 66.9911L38.205 71.9962L38.1698 67.0022L38.9652 66.9893L38.9708 73.0021V73.0002Z" fill="white"/>
<path d="M24.9886 73.0044C24.6419 73.1248 24.347 73.0748 23.9984 73.0452L21.6771 68.0326L21.703 73.0303C21.4193 73.097 21.1931 73.097 20.9224 73.0192V66.986L21.8829 66.9805L24.208 71.9597L24.2006 66.986H24.9775L24.9886 73.0063V73.0044Z" fill="white"/>
<path d="M10.5594 70.2165L8.10824 70.2202L8.0953 72.3375L11.0898 72.3523C11.112 72.6338 11.1287 72.8394 11.062 73.0691L7.29053 73.0543V66.9785H11.0916V67.6954L8.10824 67.7009L8.10082 69.4959H10.5539C10.5947 69.7145 10.6058 69.8979 10.5576 70.2183L10.5594 70.2165Z" fill="white"/>
<path d="M74.1056 70.2164L71.6581 70.2201L71.647 72.3374L74.6415 72.3559C74.6786 72.6041 74.6786 72.7894 74.6378 73.0561L70.859 73.0653L70.8516 66.9766H74.647V67.6953H71.6562V69.4866L74.0945 69.4939C74.1445 69.7088 74.1575 69.8959 74.1001 70.2127L74.1056 70.2164Z" fill="white"/>
<path d="M102.259 67.0191C102.547 66.9488 102.76 66.9691 103.072 66.9932L103.018 71.7742C103.007 72.7523 101.933 73.2024 101.06 73.1728C100.134 73.1431 99.2612 72.6041 99.2556 71.6186L99.2314 66.9858H100.019L100.057 71.5242C100.062 72.1595 100.55 72.4244 101.104 72.4262C101.749 72.4262 102.254 72.1206 102.254 71.4315L102.259 67.0173V67.0191Z" fill="white"/>
<path d="M75.1476 22.7748C76.427 22.7655 77.7546 22.8878 79.0099 23.299C79.3306 23.4046 79.5216 23.5509 79.8517 23.2638C79.9258 23.199 80.1706 23.2027 80.2688 23.2897C80.5136 23.5083 79.5865 26.1091 79.1804 27.0038C78.9487 27.3872 78.029 27.2668 78.2756 26.7648L78.995 24.742C78.5185 24.9032 78.1513 25.1514 77.6989 24.9661C77.7601 24.742 77.9325 24.6309 78.0234 24.4734C77.888 24.1622 77.6192 24.0529 77.3077 23.9622C76.236 23.6491 75.0808 23.6158 74.0221 23.5435C73.3676 23.5306 72.7334 23.4398 72.1178 23.2694C71.9306 23.1379 71.7248 22.9582 71.8843 22.7526C72.9745 22.7174 74.0629 22.7247 75.1457 22.7711L75.1476 22.7748Z" fill="white"/>
<path d="M91.9985 26.73L89.4805 29.4456L95.4027 27.3209C95.5399 27.4876 95.4509 27.621 95.1357 27.7228L95.9052 27.8377L95.9979 28.0415L88.4125 30.7663C88.064 30.7756 87.6375 30.6719 87.478 30.3421L87.9786 29.766L90.645 26.9967L91.2605 26.3262C91.5127 26.3892 91.7593 26.5244 91.9967 26.7318L91.9985 26.73Z" fill="white"/>
<path d="M95.2599 22.4289L95.119 22.6716C95.1172 22.6901 95.0856 22.7253 95.0504 22.7808C94.8743 23.042 94.6852 23.2439 94.4812 23.3866C94.1697 23.2421 93.9064 23.2161 93.9379 23.0068C93.9861 22.9327 94.0362 22.8827 94.0992 22.7975L94.2661 22.566C94.2661 22.5456 94.3328 22.477 94.3402 22.4567L94.4738 22.2196C94.7482 21.6324 95.0819 21.0563 95.1283 20.3672C95.1635 19.8392 94.9095 19.4799 94.394 19.391C93.1573 19.1779 91.4682 20.3431 90.3705 21.1137L89.3044 21.7694C89.0856 21.7046 88.8241 21.5916 88.8945 21.3508L89.7048 20.7062C91.2178 19.5058 94.7871 17.2404 96.0479 18.7538C96.8248 19.6855 95.946 21.3101 95.2581 22.427L95.2599 22.4289Z" fill="white"/>
<path d="M43.4786 47.1009C41.7097 49.372 39.9149 51.6078 37.1614 52.8137C36.4717 53.1157 35.7652 53.199 35.031 53.0638C34.3597 52.9397 33.6682 52.8581 33.0952 52.4525C33.1434 52.0468 33.7331 51.4615 34.1447 51.5985C35.2961 52.182 36.4754 52.308 37.6602 51.7115C39.6182 50.7279 41.782 48.2976 43.0502 46.4971C43.2301 46.6527 43.3748 46.8546 43.4805 47.1009H43.4786Z" fill="white"/>
<path d="M58.4287 21.6677L57.4645 23.4682L61.9553 23.1255C62.4096 23.3108 62.8732 23.4534 63.346 23.5571L63.4702 23.7479C63.2477 23.7739 63.1679 23.7813 62.9844 23.7942L57.0065 24.211L56.7784 24.7297L56.5059 25.2706C56.4966 25.291 56.2055 25.743 56.2148 25.7708L56.1388 25.6596C55.5139 25.5799 55.36 25.3262 55.6753 24.8982C55.6771 24.8797 55.6993 24.8353 55.7123 24.8205L55.7735 24.7186C55.7735 24.6982 55.7939 24.663 55.805 24.6445L55.8699 24.5352C55.8996 24.4555 55.9719 24.3592 55.9237 24.2685L53.1777 24.5667C53.0868 24.576 53.0127 24.4741 53.0127 24.4222C53.0127 24.2499 53.9991 23.7998 54.6758 23.7424L56.4039 23.5998L57.4441 21.664C57.5999 21.6306 57.7761 21.6492 57.9726 21.7196C58.1432 21.6103 58.2952 21.5936 58.4305 21.6658L58.4287 21.6677Z" fill="white"/>
<path d="M75.2382 22.8139L71.9731 22.7972C72.0194 23.2177 73.1097 23.5233 73.6492 23.4252C73.7994 23.3974 73.9366 23.4826 74.0201 23.5456C70.4916 23.4567 66.9761 23.5937 63.468 23.7493C63.0934 23.766 62.1385 23.4789 61.9531 23.127C66.2251 22.8009 70.4823 22.3137 74.7932 22.7324C74.9471 22.7472 75.166 22.7527 75.2364 22.8139H75.2382Z" fill="white"/>
<path d="M87.9805 29.7655L87.6764 30.2027C87.5002 30.4306 88.0787 30.4639 88.4143 30.764C88.2641 30.8177 87.9916 30.877 87.8432 31.003L85.6776 32.8572C85.4644 33.0406 85.2882 33.2462 85.049 33.3369L84.7598 33.6259L84.6911 33.6333C84.502 33.6537 84.2962 34.0168 84.0273 33.9149C83.892 33.863 83.7622 33.7778 83.7122 33.6426C84.0496 33.3962 84.0348 33.3536 84.287 33.1128C84.5688 32.772 84.6318 32.7256 84.7783 32.4515L83.6454 32.6571L83.2004 32.8035L82.7127 33.035C82.5941 33.098 82.531 33.1388 82.4235 33.1814L82.2752 33.2684C82.1918 33.3221 82.227 33.298 82.1639 33.3277L81.4668 33.0609L81.5854 32.8572L81.7486 32.7738L82.3586 32.4941C82.3771 32.4867 82.5552 32.3811 82.5756 32.3848L82.6961 32.2996L87.4483 30.2472L87.9805 29.7637V29.7655Z" fill="white"/>
<path d="M110.444 72.3378C110.67 72.512 110.648 72.8769 110.486 73.0732L106.615 73.0547V66.9863H107.401L107.41 72.3453L110.445 72.336L110.444 72.3378Z" fill="white"/>
<path d="M76.0859 34.2616L75.4072 35.0989L73.5549 38.4665L73.3324 38.9333C73.3324 38.95 73.2601 39.0593 73.2026 39.1667L73.0228 39.3464C72.0846 39.3075 72.2366 38.9852 72.6983 38.3757L72.5203 38.1923C72.1884 38.6777 71.7748 39.2797 71.2798 38.5628L71.7508 37.8886L74.5617 34.7377L75.0475 33.8818L75.1866 34.03L74.8101 34.8914C75.0308 35.0915 75.2273 35.0155 75.3961 34.6617C75.6204 34.345 75.8503 34.2097 76.0877 34.2597L76.0859 34.2616Z" fill="white"/>
<path d="M76.0857 34.2615C75.8095 34.532 75.5257 34.7358 75.2606 35.1303C75.1401 35.31 74.5709 35.071 74.6098 34.8802L75.0455 33.8818L76.3193 31.1643L76.5121 31.2811C76.8237 31.2996 77.0221 31.3977 77.1092 31.5774L76.8904 32.1072C76.8941 32.2369 76.9312 32.2739 77.0035 32.2146L78.1086 31.0773C78.2643 31.2551 78.1976 31.4718 77.9047 31.7275L78.1197 31.8145L79.6012 30.3975L79.8274 30.4401C79.7922 30.5938 79.6902 30.7198 79.5549 30.8513L76.0875 34.2615H76.0857Z" fill="white"/>
<path d="M101.219 25.3818C101.345 25.5967 101.608 25.7319 102.009 25.7856L102.076 26.0005L95.9995 28.0419L95.1411 27.9085C95.0335 27.8955 94.9741 27.8381 94.95 27.7714C94.8555 27.4917 95.2041 27.5991 95.4043 27.3213L101.219 25.3818Z" fill="white"/>
<path d="M72.1733 15.6402C70.5398 16.9146 68.083 18.5966 66.0972 17.6704C66.1231 17.2314 66.6386 16.6627 67.0539 16.7572C67.8865 16.9442 68.6151 16.9461 69.4069 16.5812C70.1856 16.2218 70.9255 15.7513 71.554 15.2012C71.4706 15.4531 71.7987 15.3771 72.1733 15.6383V15.6402Z" fill="white"/>
<path d="M102.075 26.0002L100.909 25.6445C101.035 25.4741 101.145 25.4667 101.219 25.3815L103.448 24.6498L107.288 23.4902C107.434 23.957 107.109 24.3923 106.677 24.5294L102.075 26.0002Z" fill="white"/>
<path d="M52.7175 32.2108C52.6822 32.4739 52.5098 32.6702 52.3707 32.9203L49.8231 37.4401C49.5227 37.9273 49.2112 38.2163 48.7773 37.6605L49.048 36.9548L51.4214 32.6258C51.5661 32.3609 51.6476 32.0904 51.8441 31.9033C51.9888 32.0608 51.961 32.2831 51.7589 32.5702C52.0537 32.8129 52.2984 32.6943 52.4931 32.2145L52.7175 32.2108Z" fill="white"/>
<path d="M73.2061 39.1502L70.588 43.807L70.2228 44.2831C69.5738 44.1127 69.1548 44.159 69.4885 43.5496C69.5164 43.4421 69.6498 43.2828 69.6721 43.2347C70.4508 41.6213 71.5522 39.7781 72.6109 38.3833C72.6721 38.298 72.6536 38.2999 72.6962 38.3777L72.3588 39.0334C72.661 39.0872 73.1264 38.5537 73.3303 38.6593C73.3767 38.9501 73.234 38.8612 73.208 39.1502H73.2061Z" fill="white"/>
<path d="M49.8233 37.4403C48.8851 39.1038 47.8875 40.7338 46.8492 42.3288C46.6527 42.5307 46.3968 42.5196 46.0815 42.2936C45.9888 42.2028 46.013 42.0398 46.1539 41.8045L49.0464 36.9531L48.9222 37.4533C48.8573 37.7144 49.3931 37.8904 49.5544 37.7071L49.8196 37.4385L49.8233 37.4403Z" fill="white"/>
<path d="M70.5879 43.8068L67.6955 48.5934C67.4118 48.9194 66.6738 48.6119 66.8981 48.1729C66.8388 48.1285 66.6553 48.21 66.6812 48.1655C67.5267 46.6595 68.63 44.8442 69.5774 43.3975H69.7962L69.6813 43.8717L70.2709 44.1254L70.5898 43.8068H70.5879Z" fill="white"/>
<path d="M67.6957 48.5939L64.881 52.8877C64.7049 52.9526 64.538 52.9637 64.3823 52.91C64.1857 52.8433 64.0337 52.6969 64.1004 52.471L64.3322 52.1135C65.2296 50.7371 65.784 49.5423 66.6814 48.166L66.8983 48.1734C66.9632 48.4809 67.3805 48.5736 67.6957 48.5939Z" fill="white"/>
<path d="M63.6535 12.9258L60.9464 17.2697C60.6645 17.8087 60.3438 17.9106 59.9878 17.5735C59.9692 17.3864 60.0267 17.1789 60.1583 16.951L62.8914 12.585C62.9674 12.8888 63.3865 13.0036 63.6535 12.9277V12.9258Z" fill="white"/>
<path d="M79.1803 27.0037L77.1073 31.5791C76.8589 31.555 76.6197 31.5272 76.3713 31.4272C76.3008 31.3994 76.31 31.2123 76.3193 31.166L78.2755 26.7666C78.1791 26.9796 78.663 27.0871 79.1803 27.0056V27.0037Z" fill="white"/>
<path d="M46.8494 42.3289C45.7888 43.959 44.6744 45.5669 43.4785 47.1007C43.3005 47.0673 43.1781 46.9729 43.104 46.8728C43.0205 46.758 43.0261 46.632 43.0484 46.4986L44.0626 45.0593L46.1541 41.8047C46.1764 41.9251 46.1319 42.0085 46.0614 42.0678C46.3432 42.2271 46.5565 42.3326 46.8494 42.3289Z" fill="white"/>
<path d="M85.7107 24.8477C85.5994 25.0885 85.3213 25.1997 85.1192 25.3886L83.7137 26.6964L81.2217 29.0748C81.1216 29.1601 81.0308 29.1842 80.951 29.1453C80.5468 28.9619 80.5598 28.6488 80.9937 28.2079L84.1532 25.27L85.2175 24.3457L85.3195 24.518C85.0376 24.8014 85.0079 24.9477 85.2323 24.957C85.414 24.7736 85.5734 24.7384 85.7107 24.8477Z" fill="white"/>
<path d="M64.438 47.7281L64.9313 47.2725C63.8744 48.5858 62.6172 49.9806 61.5604 51.294L61.1414 51.8238C60.9504 51.9627 60.8002 51.8997 60.6055 51.8071C60.4553 51.7349 60.3663 51.6478 60.3682 51.4459L63.6 47.5059L63.8021 47.4188C64.0135 47.5318 64.2248 47.6337 64.438 47.7263V47.7281Z" fill="white"/>
<path d="M60.9463 17.2697L58.4284 21.6691C58.2689 21.7932 58.0983 21.9266 57.9203 21.9043C57.733 21.8803 57.5476 21.8432 57.4419 21.6654L60.1582 16.9492C60.1026 17.0363 60.1583 17.2641 59.9988 17.3401C60.1768 17.4938 60.4123 17.6753 60.6329 17.5809L60.9463 17.2697Z" fill="white"/>
<path d="M54.4903 28.9822L52.6418 32.4777L52.2635 32.9167C51.9372 32.8556 51.7499 32.8334 51.4458 32.6722C51.6868 32.4388 51.5775 32.3036 51.7073 32.0628L53.528 28.7618C53.7264 28.6081 54.3605 28.7766 54.4903 28.9822Z" fill="white"/>
<path d="M89.7067 20.7061C89.4879 20.8802 89.3192 21.1136 88.9725 21.2747C89.0114 21.4544 89.2079 21.5434 89.358 21.6082C89.6084 21.7156 89.907 21.221 90.3742 21.1154C88.7388 22.2639 86.8958 23.9014 85.3846 25.1944L85.1251 25.2018C84.9489 25.3278 84.8969 25.0517 84.8228 24.8554L85.2159 24.346C86.6362 23.0586 88.1362 21.8323 89.7048 20.7098L89.7067 20.7061Z" fill="white"/>
<path d="M56.3517 25.5014L54.4901 28.9821C54.1638 29.0302 53.8189 28.9247 53.5278 28.7617L55.675 24.8994C55.6564 25.0402 55.5804 25.168 55.5359 25.2773C55.8882 25.3755 56.0958 25.4903 56.3535 25.5014H56.3517Z" fill="white"/>
<path d="M67.3951 44.2035C67.447 44.2572 67.5137 44.348 67.4822 44.3906C66.633 45.4928 65.3352 46.9061 64.397 47.9342L64.2875 47.8805C63.887 47.6989 63.8666 47.6971 63.5996 47.51C63.6126 47.4952 63.607 47.4859 63.6385 47.4544L63.8202 47.2432L66.7053 43.7793L67.3284 43.9942L67.3951 44.209V44.2035Z" fill="white"/>
<path d="M91.9984 26.7304C91.6831 26.8397 91.3883 26.6249 91.2622 26.3248L94.0639 22.8553L94.6387 23.2684C94.7593 23.0331 94.863 22.8627 95.0503 22.7793C94.1325 24.1667 93.1257 25.5116 91.9965 26.7286L91.9984 26.7304Z" fill="white"/>
<path d="M81.2235 29.0748L79.9218 30.4864L78.3569 32.059C78.2438 32.1665 77.6986 31.9145 77.6875 31.707C77.7784 31.5292 78.0565 31.3292 78.1066 31.0773L80.9935 28.2061L80.7877 28.6617C80.7821 28.9007 81.0695 28.9822 81.2216 29.073L81.2235 29.0748Z" fill="white"/>
<path d="M70.0988 41.0245L70.1859 41.2116C69.3274 42.2212 68.2242 43.5197 67.3657 44.5311L67.3972 44.2051L66.626 43.9772L66.7075 43.7753L69.244 40.793C69.3534 40.9745 69.7224 41.182 69.8782 40.9949L70.1006 41.0264L70.0988 41.0245Z" fill="white"/>
<path d="M72.5182 38.0314C72.6888 38.024 72.5739 38.0407 72.5276 38.0833C71.9213 38.5427 71.0553 39.0428 70.1839 39.4503L70.0967 39.3633C70.0058 39.4114 69.915 39.4615 69.8168 39.4707C69.6517 39.4874 69.1437 39.3873 69.1289 39.3688C69.1066 39.3392 69.2196 39.2799 69.24 39.254L71.7488 37.8906C71.7136 37.9981 71.5745 38.0777 71.4039 38.1518C71.5282 38.2444 71.8934 38.3463 72.0621 38.2667C72.2364 38.1852 72.3365 38.0962 72.5182 38.0333V38.0314Z" fill="white"/>
<path d="M54.6682 80.8717L53.2627 80.8679L53.2832 78.6729H54.6848C54.7238 78.8729 54.62 78.9507 54.4939 78.9507H53.5965C53.5483 79.186 53.539 79.3897 53.6076 79.6083L54.416 79.6231C54.4883 79.6231 54.5106 79.7639 54.4847 79.7991C54.4531 79.8436 54.4012 79.8899 54.2973 79.8899H53.5909L53.576 80.666L54.6459 80.7031C54.6774 80.7253 54.6849 80.8457 54.6682 80.8772V80.8717Z" fill="white"/>
<path d="M108.501 80.8556C108.48 80.8964 108.49 80.939 108.493 80.9631H107.558C107.56 80.939 107.569 80.8982 107.549 80.8575C107.898 80.6056 108.15 80.6093 108.502 80.8575L108.501 80.8556Z" fill="white"/>
<path d="M108.501 80.8553H107.547C107.493 80.7571 107.816 80.6756 107.833 80.5774L107.846 78.9677C107.651 78.9918 107.51 78.8306 107.549 78.6954L108.499 78.6787C108.518 78.8899 108.402 78.9621 108.196 78.9695L108.211 80.5737C108.211 80.6719 108.553 80.7552 108.499 80.8553H108.501Z" fill="white"/>
<path d="M39.5315 80.6773C39.5482 80.6773 39.5446 80.8421 39.5056 80.844L38.6707 80.8699C38.6428 80.7106 38.8803 80.6624 38.9564 80.5772L38.9471 78.9879C38.7578 78.9879 38.6149 78.8508 38.6539 78.6915C38.9434 78.6526 39.27 78.6526 39.5594 78.6897C39.6188 78.6971 39.6207 78.9045 39.5706 78.9175L39.2923 78.9842L39.2886 80.5624C39.2886 80.6902 39.4685 80.668 39.5315 80.6773Z" fill="white"/>
<path d="M88.0562 78.7158L88.097 80.6534L89.2187 80.6997C89.2502 80.7238 89.2558 80.8423 89.241 80.872L87.8374 80.8664V78.8102C87.8374 78.7102 87.9913 78.6843 88.0543 78.7158H88.0562Z" fill="white"/>
<path d="M82.5752 32.3877L82.6968 32.3018C82.6968 32.3634 82.6351 32.397 82.5752 32.3877Z" fill="white"/>
<path d="M84.7612 33.6274C84.8038 33.4869 84.9131 33.3907 85.0502 33.3389C84.9817 33.4572 84.8817 33.5627 84.7612 33.6274Z" fill="white"/>
<path d="M103.913 80.6858L103.463 79.9263C103.746 79.7652 103.88 79.5522 103.893 79.3188C103.908 79.0539 103.769 78.7742 103.461 78.7075C103.135 78.6371 102.801 78.6667 102.45 78.6778L102.417 80.9618L102.669 80.9581L102.74 80.0042C103.175 79.8134 103.442 80.3561 103.632 80.9618H103.88C103.969 80.8859 103.976 80.7951 103.911 80.6858H103.913ZM102.777 79.6707C102.727 79.4188 102.732 79.2428 102.762 78.9668C102.96 78.9279 103.222 78.9038 103.422 79.0205C103.615 79.1317 103.622 79.4392 103.453 79.604C103.207 79.717 103.012 79.7282 102.777 79.6689V79.6707Z" fill="white"/>
<path d="M5.53092 80.6675L4.87264 78.1446C4.83185 77.9909 4.51114 77.9909 4.4722 78.1446L3.81392 80.6675C3.78239 80.7879 3.77319 80.8806 3.78431 80.9621H4.07538C4.12544 80.6675 4.18478 80.3619 4.30715 80.0637C4.57415 80.0266 4.77435 80.0229 5.0395 80.0581C5.15631 80.3619 5.2194 80.6657 5.23424 80.9621H5.48828C5.57172 80.8787 5.56244 80.7879 5.53092 80.6675ZM4.37207 79.745L4.66685 78.5632L4.97648 79.7302C4.75213 79.8006 4.60384 79.7914 4.37207 79.745Z" fill="white"/>
<path d="M19.5595 78.6452C19.3073 78.61 19.0218 78.6674 18.8716 78.9082C18.4674 79.5547 18.5323 80.581 19.1164 80.9607H19.6801C19.7987 80.8662 19.9748 80.794 20.049 80.6477C20.4569 79.8474 20.2122 78.736 19.5577 78.6452H19.5595ZM19.4779 80.6847C18.9958 80.7329 18.79 79.8845 19.057 79.1861C19.1312 78.9916 19.3129 78.9138 19.4761 78.9286C19.6337 78.9416 19.7857 79.0528 19.845 79.251C20.0397 79.9067 19.8932 80.644 19.4779 80.6866V80.6847Z" fill="white"/>
<path d="M98.9293 79.3099C98.844 78.9172 98.5362 78.6282 98.1672 78.6319C97.7816 78.6356 97.5108 78.9375 97.4237 79.3321C97.2865 79.9526 97.3774 80.5547 97.7964 80.9622H98.4565C98.9942 80.5973 99.0628 79.9341 98.9293 79.3117V79.3099ZM98.171 80.6806C98.0393 80.6751 97.8705 80.6047 97.8056 80.4305C97.5572 79.7711 97.713 78.9375 98.1672 78.9264C98.3434 78.9227 98.5029 79.0172 98.5715 79.2154C98.7995 79.8823 98.6456 80.701 98.1728 80.6788L98.171 80.6806Z" fill="white"/>
<path d="M69.4183 79.3875C69.3534 78.9948 69.0827 78.6706 68.7211 78.6354C68.2965 78.5947 67.985 78.9059 67.8979 79.3301C67.7699 79.9525 67.8478 80.5545 68.2687 80.9602H68.9288C69.4498 80.6101 69.5184 79.9951 69.4201 79.3875H69.4183ZM69.0716 80.323C69.0178 80.5286 68.8861 80.6564 68.7211 80.6786C68.5153 80.7045 68.315 80.6027 68.2464 80.3656C68.0499 79.6894 68.2 78.9466 68.6376 78.9281C69.0919 78.9096 69.2532 79.6431 69.0734 80.323H69.0716Z" fill="white"/>
<path d="M44.8799 80.6641L44.2569 78.7488C44.2217 78.6395 44.053 78.6469 43.9862 78.6617C43.862 78.6895 43.8045 78.7877 43.76 78.9396L43.1333 80.9624H43.417L43.6655 80.3455C43.8935 80.3288 44.231 80.2566 44.4183 80.3807C44.5777 80.4844 44.5684 80.8216 44.5369 80.9624H44.8336C44.9151 80.8846 44.9189 80.7864 44.8799 80.666V80.6641ZM43.7433 80.025L44.0623 79.0785L44.3367 80.0269C44.079 80.0751 43.9417 80.0621 43.7433 80.025Z" fill="white"/>
<path d="M30.119 80.6637L29.4941 78.7484C29.4589 78.6391 29.2883 78.6483 29.2216 78.6631C29.0974 78.689 29.0398 78.7891 28.9953 78.9392L28.3687 80.9619H28.6523L28.8934 80.3414L29.6814 80.3451L29.8575 80.9619H30.0671C30.1505 80.8841 30.1598 80.7841 30.119 80.6637ZM28.9805 80.0228L29.2975 79.0744L29.5739 80.0116C29.3254 80.0839 29.1752 80.0617 28.9787 80.0228H28.9805Z" fill="white"/>
<path d="M113.774 80.6436L113.145 78.7356C113.116 78.6467 112.795 78.6152 112.765 78.7004L112.125 80.5824C112.075 80.7269 112.07 80.8566 112.088 80.9622H112.298L112.543 80.3472C112.811 80.3064 113.052 80.3009 113.327 80.3361L113.499 80.9603H113.705C113.787 80.8825 113.813 80.7696 113.772 80.6436H113.774ZM112.65 80.0267L112.93 79.0783L113.24 80.0249C113.054 80.0619 112.912 80.0767 112.65 80.0286V80.0267Z" fill="white"/>
<path d="M64.0985 52.4709C62.7042 54.6122 61.1838 56.6461 59.5521 58.6671C58.4656 60.0119 57.3661 61.2456 56.0682 62.3756C55.3581 62.9943 54.0731 63.9094 53.6967 63.4592C53.2202 62.8868 55.232 59.7322 55.9773 58.7356L61.1393 51.8281C60.8705 51.7244 60.6127 51.5984 60.3661 51.4502L56.0867 57.0778C54.9074 58.6282 53.9359 60.2361 53.0181 61.944C52.7325 62.4738 52.5285 62.9906 52.4748 63.5982C52.4266 64.1631 52.8104 64.5929 53.3982 64.5781C54.3234 64.5558 55.169 64.1131 55.9255 63.5481C57.3253 62.5015 58.4675 61.279 59.6004 59.9323C61.5083 57.6631 63.2754 55.3384 64.8792 52.8932L64.7383 52.7432C64.5009 52.7895 64.2877 52.7006 64.0985 52.4764V52.4709Z" fill="white"/>
<path d="M67.6122 66.3728C67.3711 65.2836 66.5479 64.5722 65.4706 64.5667L62.9118 64.5537L62.9081 65.3428L63.5849 65.3688L63.5794 72.2634L62.91 72.2856C62.8841 72.5468 62.8581 72.7616 62.9267 73.0673L65.415 73.0525C66.5219 73.0451 67.3952 72.33 67.64 71.213C67.9848 69.6385 67.9608 67.9473 67.6122 66.3728ZM65.5077 72.2652L64.4601 72.2689V65.3595C64.944 65.3447 65.4002 65.2743 65.8526 65.4151C66.3254 65.5633 66.635 66.0727 66.7389 66.5747C67.106 68.3585 67.271 72.2597 65.5077 72.2652Z" fill="white"/>
<path d="M88.9797 65.5341C88.6385 64.9395 88.0026 64.5894 87.3147 64.582L85.0674 64.5635V73.0474C85.4252 73.0808 85.6755 73.09 85.9444 73.0289L85.9481 69.2926L87.1551 69.2871C88.0544 69.2834 88.7813 68.798 89.0724 67.9941C89.3654 67.1883 89.3635 66.3066 88.9815 65.5341H88.9797ZM87.1923 68.4813L85.9407 68.4942L85.9444 65.3544L87.1885 65.36C87.6762 65.3619 88.1212 65.6805 88.2658 66.1565C88.5866 67.2161 88.1713 68.472 87.1923 68.4813Z" fill="white"/>
<path d="M44.4167 67.0119L41.8208 66.9805L41.8042 67.6862L42.4271 67.7084V72.3542L41.8079 72.3653C41.7912 72.6284 41.7429 72.8562 41.8635 73.0767L44.3814 73.0303C45.2844 73.0137 46.002 72.4506 46.193 71.5577C46.5935 69.6757 46.4192 67.0323 44.4167 67.0101V67.0119ZM44.196 72.3394L43.2374 72.345V67.7084L44.2869 67.7122C44.832 67.7122 45.2121 68.0937 45.3494 68.6254C45.7146 70.0313 45.6627 72.3301 44.196 72.3394Z" fill="white"/>
<path d="M16.8729 70.3722C17.4421 70.1221 17.8501 69.6923 18.0003 69.1811C18.169 68.6031 18.1096 68.0011 17.7314 67.5399C17.444 67.1898 16.9749 66.999 16.5206 66.9971L14.1992 66.9805V73.0211C14.4662 73.0989 14.6942 73.0989 14.9853 73.0303L14.9965 70.4815C15.4304 70.4611 15.7715 70.4351 16.1387 70.5166L17.6609 73.2137C17.9669 73.047 18.1523 72.9544 18.334 72.7729L16.8747 70.3722H16.8729ZM14.9928 69.7312L14.9872 67.7029L16.2666 67.6992C16.5095 67.6992 16.7932 67.7529 16.9934 67.9567C17.3068 68.2734 17.3123 68.7402 17.1603 69.1014C17.0194 69.433 16.6671 69.7368 16.2425 69.7349L14.9928 69.7312Z" fill="white"/>
<path d="M30.4509 66.9893H29.4329L27.5269 72.9113C27.8031 73.0669 28.0294 73.1317 28.3056 73.2077L28.8711 71.4164L31.0275 71.4368L31.5745 73.2132L32.3569 72.9076L30.4509 66.9893ZM29.0806 70.6866L29.9484 67.9525L30.7754 70.6662L29.0806 70.6848V70.6866Z" fill="white"/>
<path d="M115.624 66.9785L114.604 67.0026L112.698 72.9191C112.971 73.0599 113.221 73.1377 113.499 73.1951L114.067 71.4094H116.204L116.748 73.2062L117.521 72.9209L115.626 66.9785H115.624ZM114.271 70.6926L115.118 67.9899L115.967 70.6796L114.271 70.6907V70.6926Z" fill="white"/>
<path d="M94.6628 66.9883H93.6374L91.7388 72.9085L92.5212 73.2049L93.0886 71.4247H95.2468L95.7901 73.2123L96.5633 72.9066L94.6628 66.9883ZM93.3148 70.6875L94.1492 67.9515L94.9817 70.6282C94.4569 70.769 93.9285 70.6708 93.3129 70.6875H93.3148Z" fill="white"/>
<path d="M51.4163 66.9804L50.3928 66.9896L48.4941 72.9154L49.2562 73.2025L49.857 71.4076L52.0003 71.4113L52.5307 73.2044C52.8106 73.1358 53.0313 73.0654 53.3242 72.8987L51.4182 66.9785L51.4163 66.9804ZM50.0628 70.6907L50.8915 67.9584L51.7538 70.6851L50.0628 70.6907Z" fill="white"/>
<path d="M84.1646 33.7411C83.8995 33.767 84.0329 33.5836 84.5632 33.1946V32.9372C84.3871 32.9705 84.2722 33.1279 84.1127 33.2539C82.9205 34.1949 80.1985 36.3752 79.0934 35.914C78.8227 35.801 79.0508 35.3267 79.2176 35.1804C80.2041 34.3116 81.1608 33.9356 82.1677 33.3298C82.1194 33.1335 81.9266 32.9779 81.5891 32.8594C80.1039 33.5744 76.8276 35.4953 77.9624 36.8142C78.9933 38.0127 83.3487 34.7895 84.6949 33.6355C84.5706 33.4873 84.3945 33.5225 84.1646 33.7429V33.7411Z" fill="white"/>
<path d="M10.4538 79.2955C10.3259 78.6304 9.40439 78.5434 8.84629 78.7046C8.72762 78.7397 8.87783 78.9805 9.01133 78.9916L9.03723 80.5699C9.03723 80.6773 8.9223 80.6662 8.8815 80.681C8.86296 80.6829 8.86484 80.844 8.90006 80.844L9.8123 80.8663L10.0014 80.8626C10.426 80.8533 10.6003 80.0568 10.4538 79.2955ZM10.0311 80.4791C9.90133 80.7107 9.56009 80.6866 9.35057 80.6533V78.9546C9.56565 78.9342 9.88272 78.9083 10.007 79.0917C10.2517 79.4566 10.2628 80.0605 10.0292 80.4791H10.0311Z" fill="white"/>
</svg>
