<svg width="272" height="83" viewBox="0 0 272 83" fill="none" xmlns="http://www.w3.org/2000/svg">
<path d="M258.071 59.35C267.592 59.35 271.6 55.9175 271.6 45.9906V29.3173H261.901V48.2894C261.901 50.6308 260.882 52.5091 258.071 52.5091C255.26 52.5091 254.225 50.6327 254.225 48.2894V29.3173H244.541V45.9906C244.541 55.9157 248.557 59.35 258.071 59.35ZM183.783 52.0423H173.124L170.691 58.7054H160.701L170.341 33.085C171.375 30.3064 172.99 29.2432 176.107 29.2432H180.796C183.913 29.2432 185.545 30.3046 186.563 33.085L196.203 58.7054H186.212L183.78 52.0423H183.783ZM174.609 46.0332H182.298L179.356 36.3137C179.224 35.921 179.05 35.7173 178.453 35.7173C177.856 35.7173 177.681 35.921 177.564 36.3137L174.609 46.0332ZM164.109 29.3173V35.9229H155.837V58.7072H146.108V35.9229H137.837V29.3173H164.109ZM124.615 29.3173H134.344V58.7072H124.615V29.3173ZM231.361 39.7017C231.361 41.7153 230.647 43.7029 226.424 43.7029H223.379V35.545H226.424C230.647 35.545 231.361 37.5326 231.361 39.5461V39.7017ZM223.425 50.1492H228.595C237.113 50.1492 240.916 46.6963 240.916 39.7851C240.916 32.8738 237.115 29.3154 228.595 29.3154H213.697V58.7054H223.425V50.1492ZM198.682 29.3173H208.41V58.7072H198.682V29.3173Z" fill="white"/>
<path d="M89.8308 0H64.4602V23.3956H89.8308V0Z" fill="white"/>
<path fill-rule="evenodd" clip-rule="evenodd" d="M64.3376 29.2432H91.7831L121.047 58.4886H82.0246L64.3376 29.2432Z" fill="white"/>
<path d="M56.5874 0H31.2168V23.3956H56.5874V0Z" fill="white"/>
<path fill-rule="evenodd" clip-rule="evenodd" d="M56.7098 29.2432H29.2644L0 58.4886H39.021L56.7098 29.2432Z" fill="white"/>
<path d="M145.254 77.2052C145.254 80.4191 143.279 82.0288 139.324 82.0288H133.591V65.7648H139.32C142.767 65.7648 144.49 67.1634 144.49 69.9586C144.49 71.4998 143.872 72.5835 142.638 73.2059C142.498 73.28 142.296 73.33 142.031 73.3485C142.261 73.3485 142.461 73.3781 142.638 73.4393C144.379 74.0487 145.252 75.3028 145.252 77.2052M142.686 69.9568C142.686 68.9306 142.367 68.2155 141.725 67.821C141.217 67.5061 140.42 67.3468 139.324 67.3468H135.367V72.665H139.565C141.646 72.665 142.684 71.7629 142.684 69.9549L142.686 69.9568ZM143.479 77.2052C143.479 75.2472 142.174 74.2654 139.567 74.2654H135.369V80.4524H139.326C140.861 80.4524 141.937 80.2079 142.554 79.7189C143.172 79.2317 143.479 78.3926 143.479 77.2052ZM150.188 82.0269H148.423V65.763H150.188V82.0269ZM166.99 82.0269H165.316L155.515 68.5138C155.624 68.8676 155.68 69.1973 155.68 69.5067V82.0269H153.915V65.763H155.589L165.357 79.2317C165.27 78.826 165.225 78.5315 165.225 78.3481V65.763H166.99V82.0269ZM183.522 82.0269H181.647L179.775 76.9718H173.074L171.197 82.0269H169.391L175.423 65.763H177.514L183.524 82.0269H183.522ZM179.168 75.3287L176.906 69.1751C176.73 68.6823 176.571 68.1415 176.432 67.5431C176.293 68.1563 176.135 68.6972 175.957 69.1751L173.676 75.3287H179.165H179.168ZM197.482 79.1224C196.525 81.3027 194.675 82.3919 191.925 82.3919C189.405 82.3919 187.61 81.5694 186.537 79.9263C185.66 78.5796 185.224 76.5698 185.224 73.8894C185.224 71.0701 185.689 68.988 186.624 67.6469C187.666 66.1538 189.381 65.411 191.771 65.411C193.603 65.411 195.014 65.8815 196.004 66.8207C196.82 67.5913 197.269 68.5657 197.35 69.7382H195.717C195.468 67.9192 194.145 67.0096 191.747 67.0096C189.802 67.0096 188.489 67.6561 187.813 68.9491C187.305 69.9068 187.052 71.5573 187.052 73.8913C187.052 76.0789 187.319 77.6812 187.857 78.6908C188.599 80.0856 189.956 80.784 191.923 80.784C193.89 80.784 195.366 79.9504 196.104 78.2851L197.482 79.1224ZM202.527 82.0269H200.762V65.763H202.527V82.0269ZM219.241 73.7005C219.241 76.5124 218.79 78.6019 217.887 79.9671C216.819 81.5842 215.021 82.3919 212.484 82.3919C209.948 82.3919 208.181 81.5842 207.129 79.9671C206.245 78.6167 205.805 76.5272 205.805 73.7005C205.805 71.1108 206.245 69.1529 207.129 67.834C208.201 66.2168 209.985 65.4092 212.484 65.4092C214.983 65.4092 216.791 66.2168 217.887 67.834C218.79 69.1603 219.241 71.1182 219.241 73.7005ZM217.435 73.7005C217.435 71.435 217.097 69.7845 216.419 68.7583C215.655 67.5894 214.346 67.0059 212.484 67.0059C210.622 67.0059 209.33 67.5931 208.583 68.7694C207.936 69.7808 207.611 71.4276 207.611 73.7005C207.611 76.1808 207.94 77.9517 208.594 79.0075C209.326 80.1912 210.626 80.7821 212.484 80.7821C214.342 80.7821 215.664 80.1912 216.419 79.0075C217.095 77.9369 217.435 76.166 217.435 73.7005ZM235.596 82.0269H233.922L224.121 68.5138C224.23 68.8676 224.286 69.1973 224.286 69.5067V82.0269H222.521V65.763H224.195L233.963 79.2317C233.876 78.826 233.831 78.5315 233.831 78.3481V65.763H235.596V82.0269ZM252.128 82.0269H250.253L248.381 76.9718H241.68L239.803 82.0269H237.997L244.029 65.763H246.121L252.13 82.0269H252.128ZM247.774 75.3287L245.512 69.1751C245.336 68.6823 245.179 68.1415 245.038 67.5431C244.899 68.1563 244.741 68.6972 244.563 69.1751L242.282 75.3287H247.773H247.774ZM263.748 82.0269H254.533V65.763H256.298V80.4524H263.748V82.0269Z" fill="white"/>
</svg>
