<svg width="199" height="58" viewBox="0 0 199 58" fill="none" xmlns="http://www.w3.org/2000/svg">
<path d="M6.52114 35.6403C2.91849 35.6347 0 32.7098 0 29.1069C0 25.5263 2.96111 22.5736 6.54337 22.5791C10.1812 22.5847 13.083 25.5059 13.0737 29.1551C13.0645 32.7691 10.1572 35.644 6.52114 35.6403Z" fill="white"/>
<path d="M29.1976 51.8832C25.912 51.9536 22.6543 49.3733 22.6227 45.298C22.5949 41.7933 25.6247 38.8258 29.1717 38.8184C32.7651 38.8128 35.6872 41.7414 35.6928 45.3573C35.6983 49.0009 32.8429 51.8684 29.1958 51.8832H29.1976Z" fill="white"/>
<path d="M37.5172 16.4663C34.0684 16.5978 30.9942 13.6117 30.9645 9.99588C30.9404 6.96723 33.3249 3.47918 37.456 3.42916C41.0846 3.38656 44.0661 6.34853 44.0438 9.96253C44.0197 13.9674 40.6878 16.5792 37.5172 16.4663Z" fill="white"/>
<path d="M38.9227 22.7921C38.906 19.1744 41.8003 16.2458 45.4086 16.2402C48.8202 16.2365 51.9667 18.8225 51.9779 22.7792C51.989 26.6099 48.9037 29.2866 45.5087 29.2885C41.817 29.2885 38.9412 26.4617 38.9245 22.7921H38.9227Z" fill="white"/>
<path d="M16.5003 14.4316C16.6431 17.7233 13.8823 20.9779 9.97367 20.9853C6.36361 20.9927 3.48779 18.0715 3.48779 14.439C3.48779 10.8009 6.3525 7.93525 9.99594 7.9297C13.6412 7.92414 16.4966 10.7805 16.5003 14.4316Z" fill="white"/>
<path d="M16.3203 6.51855C16.1886 3.07681 19.1349 -0.00739622 22.7469 1.33233e-05C26.4737 0.00742286 29.3421 2.84897 29.3328 6.54448C29.3254 10.1659 26.4329 13.0482 22.8062 13.0482C19.0533 13.0482 16.1738 9.8584 16.3203 6.51855Z" fill="white"/>
<path d="M42.0248 30.9421C45.6757 30.9458 48.5125 33.7985 48.5088 37.4588C48.507 41.1246 45.6349 43.9532 41.9302 43.9421C38.3183 43.931 35.4109 41.0153 35.4536 37.3939C35.5018 33.4761 38.7596 30.8013 42.0229 30.9439L42.0248 30.9421Z" fill="white"/>
<path d="M25.3448 32.5703C25.2557 32.6037 25.1704 32.6203 25.0906 32.6222C25.1759 32.6055 25.2595 32.5888 25.3448 32.5703Z" fill="white"/>
<path d="M32.4758 26.8059C32.4647 26.9152 32.4184 27.019 32.3887 27.1282C32.2533 28.3193 31.7008 29.3141 30.9239 30.1995C30.3138 30.9719 29.498 31.4684 28.6266 31.887C27.5975 32.4261 26.4683 32.4909 25.3447 32.5724C25.2594 32.5891 25.1759 32.6058 25.0907 32.6243C24.4398 32.7521 23.7872 32.8632 23.1475 33.0337C22.0999 33.3152 21.2229 33.8672 20.6481 34.8249C20.2457 35.6918 20.1845 36.6125 20.2198 37.5516C20.4478 39.0335 20.9484 40.4673 20.9985 41.9807C21.0467 43.2718 20.6518 44.4295 19.9472 45.4965C19.3984 46.3819 18.6808 47.0877 17.7426 47.5582C16.6616 48.2529 15.4694 48.4974 14.1993 48.4325C11.3568 48.4825 8.49027 45.9948 8.06381 43.1032C8.02117 42.8087 8.00077 42.5086 7.96925 42.2104C7.92104 40.9489 8.16579 39.7615 8.85369 38.6834C9.32836 37.7702 9.99585 37.033 10.8896 36.5106C11.9316 35.7029 13.1646 35.5121 14.4273 35.4232C15.4249 35.2621 16.4168 35.075 17.3792 34.7582C18.1041 34.4544 18.7791 34.0747 19.3131 33.4819C20.344 31.9519 20.1419 30.2884 19.8267 28.6157C19.747 28.1915 19.6431 27.771 19.5504 27.3468C19.2667 25.952 19.4521 24.622 20.0918 23.3512C20.4571 22.4213 21.0412 21.6526 21.8088 21.0209C22.6487 20.2374 23.6333 19.7465 24.7662 19.5446C29.2737 18.7869 32.9616 22.2602 32.4777 26.8059H32.4758Z" fill="white"/>
<path d="M191.779 43.312C188.751 45.5293 185.493 46.3314 181.957 46.2388C172.974 46.0017 166.224 40.6983 164.092 31.9606C162.42 25.1123 162.789 18.4178 166.345 12.1512C170.181 5.39182 177.466 1.8908 185.224 2.73548C188.704 3.11522 192.088 3.85433 195.483 4.62122C196.451 4.8398 196.97 5.25103 196.859 6.30874C196.737 7.47019 197.38 9.17438 196.653 9.66712C195.83 10.2247 194.591 8.95395 193.542 8.46863C190.117 6.88299 186.47 6.29949 182.782 6.55327C177.138 6.94042 173.758 10.4636 172.154 15.5707C170.209 21.7632 170.189 28.0446 172.64 34.1649C176.239 43.1508 185.358 42.9471 191.167 40.1777C191.942 39.8091 191.832 39.1904 191.834 38.5643C191.834 34.1927 191.875 29.8211 191.808 25.4513C191.791 24.3287 192.12 23.9953 193.216 24.0731C194.536 24.1657 195.873 24.1509 197.195 24.0768C198.181 24.0231 198.439 24.3936 198.429 25.342C198.389 30.4009 198.411 35.4597 198.411 40.5186C198.411 45.6756 198.376 50.8327 198.437 55.9897C198.452 57.1678 198.098 57.5457 196.941 57.4605C195.669 57.3679 194.382 57.3846 193.108 57.4568C192.088 57.5142 191.771 57.2086 191.793 56.1379C191.871 52.309 191.832 48.4764 191.832 44.6457C191.832 44.2715 191.801 43.8992 191.777 43.3138L191.779 43.312Z" fill="white"/>
<path d="M128.095 30.4598C128.095 35.1759 128.066 39.8921 128.117 44.6083C128.129 45.6364 127.85 45.9976 126.803 45.9253C125.531 45.8383 124.24 45.829 122.97 45.9253C121.793 46.0161 121.489 45.5993 121.494 44.4471C121.539 35.4575 121.541 26.466 121.502 17.4745C121.494 15.6222 121.442 13.7512 120.769 11.9655C119.523 8.66089 117.143 6.85667 113.659 6.36394C111.378 6.04162 109.144 6.09719 106.997 6.93817C102.487 8.70535 101.347 12.4675 101.336 16.8114C101.312 25.9492 101.301 35.087 101.358 44.2248C101.367 45.566 101.026 46.0828 99.6541 45.9179C98.0614 45.7271 95.9736 46.5959 94.9798 45.5734C94.0657 44.6324 94.7313 42.5799 94.7276 41.0184C94.7054 33.2569 94.7091 25.4935 94.7221 17.732C94.7295 12.914 96.2443 8.76648 100.255 5.80451C102.437 4.19108 104.95 3.31119 107.614 3.01666C113.091 2.40908 118.45 2.61469 123.057 6.21203C126.519 8.91651 127.965 12.6491 128.071 16.8984C128.184 21.4146 128.097 25.9381 128.097 30.4579L128.095 30.4598Z" fill="white"/>
<path d="M133.029 18.4898C133.029 13.7255 133.057 8.96115 133.007 4.19867C132.996 3.12799 133.272 2.7538 134.401 2.75936C143.103 2.80197 151.806 2.8168 160.508 2.75011C161.969 2.739 161.732 3.55404 161.787 4.43578C161.849 5.43051 161.68 5.94363 160.463 5.92696C155.4 5.86027 150.336 5.89362 145.272 5.90473C144.636 5.90473 143.995 5.94733 143.366 6.03624C141.178 6.34559 140.21 7.21437 139.899 9.37795C139.357 13.1346 139.697 16.9246 139.61 20.6997C139.587 21.7037 140.342 21.4277 140.863 21.4296C145.189 21.4462 149.516 21.4555 153.842 21.4259C154.784 21.4184 155.383 21.4425 155.379 22.7077C155.376 23.9358 154.934 24.1618 153.833 24.1489C149.507 24.0952 145.179 24.1229 140.854 24.134C140.312 24.134 139.576 23.9118 139.61 24.8898C139.725 28.3686 139.263 31.8715 139.884 35.3243C140.683 39.7552 143.867 42.5153 148.38 42.6449C152.359 42.7598 156.345 42.7579 160.324 42.6653C161.732 42.632 161.778 43.2673 161.763 44.3306C161.748 45.3531 161.795 46.0663 160.347 46.0274C156.416 45.9218 152.481 46.02 148.549 45.9829C144.195 45.9422 140.194 44.89 136.975 41.7317C134.179 38.9865 133.05 35.5818 133.035 31.7529C133.016 27.3331 133.031 22.9133 133.031 18.4917L133.029 18.4898Z" fill="white"/>
<path d="M68.4801 19.2324C68.4801 23.9949 68.4189 28.7592 68.4949 33.5199C68.5913 39.4567 72.0623 42.8855 78.016 42.98C81.7503 43.0393 85.4883 43.0374 89.2226 42.967C90.3574 42.9466 90.6726 43.3078 90.6096 44.3915C90.5539 45.3399 90.6429 46.0549 89.2579 46.0216C84.7393 45.9142 80.2114 46.0735 75.6946 45.8975C68.7174 45.6252 63.5702 41.3888 62.1517 34.9295C61.8903 33.7421 61.7587 32.501 61.7531 31.2859C61.7197 22.2999 61.7587 13.314 61.7086 4.32812C61.7012 3.11296 62.0164 2.6554 63.2643 2.76099C64.4843 2.86287 65.7285 2.86843 66.9466 2.76099C68.2316 2.64799 68.4893 3.17777 68.4745 4.35589C68.4151 9.31472 68.4485 14.2736 68.4485 19.2343C68.4578 19.2343 68.4671 19.2343 68.4763 19.2343L68.4801 19.2324Z" fill="white"/>
</svg>
