<svg width="119" height="40" viewBox="0 0 119 40" fill="none" xmlns="http://www.w3.org/2000/svg">
<path d="M97.1492 9.92473H100.042V8.4502L97.1492 8.92071V9.92473Z" fill="white"/>
<path d="M56.4501 11.9997C55.1614 11.0106 53.259 10.54 50.5872 10.54C47.7577 10.54 45.809 10.6975 44.4573 10.9161V29.1806H49.3782V22.914C49.6768 22.9455 50.1163 22.9603 50.5891 22.9603C53.0885 22.9603 55.2578 22.3787 56.782 21.045C57.9297 19.9928 58.5731 18.3442 58.5731 16.4899C58.5731 14.6357 57.7239 12.9408 56.4501 11.9979V11.9997ZM50.5242 19.1759C50.005 19.1759 49.6749 19.1444 49.3931 19.1296V14.0726C49.3931 14.0726 49.9902 14.0262 50.5242 14.0262C52.4729 14.0262 53.6837 15.0154 53.6837 16.601C53.6837 18.1867 52.4729 19.1759 50.5242 19.1759Z" fill="white"/>
<path d="M70.5195 19.2072V19.1442C72.6888 18.3273 73.5381 16.8046 73.5381 15.2486C73.5381 13.4592 72.4682 12.1237 71.0387 11.4475C69.5776 10.7103 68.0201 10.5361 65.3797 10.5361C63.101 10.5361 60.6479 10.7251 59.5168 10.9122V29.0674C60.5385 29.2249 62.1572 29.3971 64.4212 29.3971C68.3817 29.3971 70.6937 28.7692 72.0918 27.717C73.3341 26.7908 74.1518 25.409 74.1518 23.6807C74.1518 21.5134 72.8001 19.8333 70.5214 19.2053L70.5195 19.2072ZM64.2931 17.8086V13.9612H65.2833C67.4064 13.9612 68.4113 14.6985 68.4113 15.8766C68.4113 17.0547 67.3897 17.792 65.2833 17.792H64.2931V17.8067V17.8086ZM65.8822 25.772C65.2537 25.772 64.8123 25.772 64.4508 25.7257V21.3281H65.6301C67.5009 21.3281 68.9305 21.9246 68.9305 23.4955C68.9305 25.1126 67.5305 25.772 65.8803 25.772H65.8822Z" fill="white"/>
<path d="M87.5741 27.4212V21.4065H83.8009V19.4911H89.8992V29.4014H84.2088C81.4108 29.4014 79.1005 28.6937 77.276 26.9506C75.6888 25.4113 74.6987 22.9458 74.6987 20.0561C74.7303 14.5286 78.5184 10.4922 84.728 10.4922C86.8658 10.4922 88.5475 10.9627 89.3504 11.3406L88.7681 13.2875C87.778 12.8484 86.5357 12.4872 84.6649 12.4872C80.1537 12.4872 77.213 15.2825 77.213 19.932C77.213 24.5815 80.0425 27.4082 84.3664 27.4082L87.5741 27.423V27.4212Z" fill="white"/>
<path d="M100.042 10.8848H97.1491L90.845 29.4012H93.3129L95.2301 23.5755H101.801L103.782 29.4012H106.344L100.04 10.8848H100.042ZM95.7493 21.7045L97.5571 16.3493C97.9187 15.2193 98.2172 14.1042 98.5008 13.0039H98.5472C98.8142 14.0727 99.0979 15.1712 99.5058 16.3808L101.314 21.7045H95.7493Z" fill="white"/>
<path d="M107.54 26.2909C108.61 26.9504 110.18 27.5005 111.832 27.5005C114.285 27.5005 115.715 26.2131 115.715 24.3441C115.715 22.6158 114.725 21.6267 112.225 20.669C109.207 19.6001 107.336 18.0312 107.336 15.423C107.336 12.5333 109.726 10.3975 113.325 10.3975C115.227 10.3975 116.594 10.8365 117.428 11.3089L116.768 13.2557C116.171 12.926 114.929 12.3758 113.247 12.3758C110.716 12.3758 109.758 13.8837 109.758 15.1563C109.758 16.8845 110.889 17.7311 113.436 18.7221C116.564 19.9317 118.168 21.4395 118.168 24.1551C118.168 27.0134 116.045 29.5104 111.677 29.5104C109.886 29.5104 107.935 28.9602 106.945 28.3008L107.542 26.2909H107.54Z" fill="white"/>
<path d="M46.6731 36.1844C46.5322 36.2474 46.2652 36.3252 45.9036 36.3252C45.0859 36.3252 44.4722 35.8065 44.4722 34.8488C44.4722 33.8911 45.0859 33.3262 45.9815 33.3262C46.343 33.3262 46.5785 33.404 46.6731 33.4522L46.5786 33.7504C46.4377 33.6874 46.2318 33.6244 45.9963 33.6244C45.3196 33.6244 44.8653 34.0634 44.8653 34.8174C44.8653 35.525 45.2732 35.9788 45.9815 35.9788C46.217 35.9788 46.4376 35.9325 46.5952 35.8529L46.6731 36.1826V36.1844Z" fill="white"/>
<path d="M48.8258 33.3262C48.0563 33.3262 47.4741 33.9226 47.4741 34.8488C47.4741 35.775 48.0081 36.3252 48.7795 36.3252C49.5508 36.3252 50.1312 35.7917 50.1312 34.8025C50.1312 33.9393 49.612 33.3262 48.8258 33.3262ZM48.811 36.0103C48.2139 36.0103 47.8839 35.4601 47.8839 34.8322C47.8839 34.2042 48.1991 33.6226 48.811 33.6226C49.4228 33.6226 49.7381 34.219 49.7381 34.8007C49.7381 35.4601 49.3913 36.0103 48.811 36.0103Z" fill="white"/>
<path d="M53.6671 34.9893C53.6522 34.5818 53.6207 34.0947 53.6207 33.7335H53.6058C53.5113 34.0799 53.3852 34.4411 53.2442 34.8319L52.7251 36.2453H52.4414L51.9704 34.8634C51.8295 34.4559 51.7183 34.078 51.6404 33.7335H51.6256C51.6107 34.0947 51.5941 34.5818 51.5626 35.0209L51.4847 36.2619H51.1379L51.3419 33.3574H51.8129L52.3005 34.7559C52.4266 35.1172 52.5211 35.4321 52.599 35.7303H52.6139C52.6917 35.4321 52.7863 35.1172 52.9123 34.7559L53.4316 33.3574H53.9025L54.0917 36.2619H53.7301L53.6671 34.9893Z" fill="white"/>
<path d="M56.8118 33.5927C56.6394 33.4352 56.3724 33.3574 55.9941 33.3574C55.6956 33.3574 55.4601 33.3889 55.271 33.4204V36.2786H55.6474V35.1172C55.7252 35.132 55.8365 35.1487 55.9459 35.1487C56.3075 35.1487 56.6375 35.0394 56.8414 34.8338C56.9823 34.6763 57.0621 34.4725 57.0621 34.2058C57.0621 33.939 56.9675 33.7353 56.8099 33.5927H56.8118ZM55.9626 34.8338C55.8365 34.8338 55.7419 34.8189 55.6474 34.8022V33.6723C55.7104 33.6575 55.8365 33.6408 55.9941 33.6408C56.402 33.6408 56.6709 33.8297 56.6709 34.2058C56.6857 34.6133 56.4187 34.8338 55.9626 34.8338Z" fill="white"/>
<path d="M59.0275 33.373H58.5714L57.5813 36.2628H57.9744L58.2729 35.3514H59.2945L59.6097 36.2628H60.0029L59.0275 33.373ZM58.3527 35.0699L58.6363 34.2381C58.6994 34.0659 58.7457 33.8917 58.7772 33.7195H58.792C58.8384 33.8917 58.8699 34.0658 58.9497 34.2529L59.2334 35.0846H58.3527V35.0699Z" fill="white"/>
<path d="M61.0559 36.2786V33.374H61.4639L62.3909 34.8337C62.6116 35.1801 62.7673 35.4783 62.9101 35.7766H62.9249C62.8934 35.3839 62.8786 35.0393 62.8786 34.5836V33.374H63.2253V36.2786H62.849L61.9219 34.8022C61.7179 34.4725 61.5287 34.1428 61.3878 33.8278H61.373C61.3878 34.1891 61.4046 34.5355 61.4046 35.0208V36.2619H61.0578V36.2767L61.0559 36.2786Z" fill="white"/>
<path d="M64.8607 33.373V34.5827H66.2587V33.373H66.637V36.2795H66.2587V34.9124H64.8607V36.2795H64.4824V33.373H64.8607Z" fill="white"/>
<path d="M68.2707 33.373H67.894V36.2776H68.2707V33.373Z" fill="white"/>
<path d="M70.7385 33.373H70.2823L69.2922 36.2628H69.6853L69.9838 35.3514H71.0054L71.3207 36.2628H71.7137L70.7385 33.373ZM70.0784 35.0699L70.3621 34.2381C70.4251 34.0659 70.4714 33.8917 70.503 33.7195H70.5178C70.5642 33.8917 70.5957 34.0658 70.6754 34.2529L70.9591 35.0846H70.0784V35.0699Z" fill="white"/>
<path d="M75.8001 33.5927C75.6277 33.4352 75.3607 33.3574 74.9825 33.3574C74.684 33.3574 74.4484 33.3889 74.2593 33.4204V36.2786H74.6357V35.1172C74.7303 35.132 74.8248 35.1487 74.9342 35.1487C75.2958 35.1487 75.6258 35.0394 75.8149 34.8338C75.9559 34.6763 76.0356 34.4725 76.0356 34.2058C76.0671 33.939 75.9725 33.7353 75.8001 33.5927ZM74.9528 34.8338C74.8267 34.8338 74.7321 34.8189 74.6375 34.8022V33.6723C74.7006 33.6575 74.8267 33.6408 74.9843 33.6408C75.3922 33.6408 75.6759 33.8297 75.6759 34.2058C75.6907 34.6133 75.4089 34.8338 74.9528 34.8338Z" fill="white"/>
<path d="M78.0177 33.373H77.5616L76.5715 36.2628H76.9646L77.2631 35.3514H78.2848L78.6 36.2628H78.9931L78.0177 33.373ZM77.3577 35.0699L77.6414 34.2381C77.6877 34.0659 77.7359 33.8917 77.7823 33.7195C77.8286 33.8917 77.8768 34.0658 77.9399 34.2529L78.2236 35.0846H77.3596V35.0699H77.3577Z" fill="white"/>
<path d="M81.7113 35.4765C81.6483 35.1783 81.5074 34.9745 81.2867 34.8949V34.8801C81.5852 34.7856 81.8373 34.5189 81.8373 34.1428C81.8373 33.9224 81.7595 33.7186 81.6167 33.5927C81.4443 33.4352 81.1773 33.3574 80.7842 33.3574C80.5321 33.3574 80.2502 33.3889 80.061 33.4204V36.2786H80.4375V35.0227H80.7842C81.131 35.0375 81.2718 35.1801 81.3664 35.5877C81.4443 35.9489 81.5073 36.2008 81.5555 36.2786H81.9486C81.8707 36.1527 81.8077 35.8859 81.7131 35.4784L81.7113 35.4765ZM80.799 34.7226H80.4226V33.6705C80.4857 33.6556 80.6117 33.639 80.799 33.639C81.1921 33.639 81.4591 33.8113 81.4591 34.1891C81.4591 34.5189 81.1921 34.7226 80.799 34.7226Z" fill="white"/>
<path d="M84.1958 33.373H83.7397L82.7495 36.2628H83.1426L83.4411 35.3514H84.4628L84.7781 36.2628H85.1711L84.1958 33.373ZM83.5357 35.0699L83.8194 34.2381C83.8657 34.0659 83.914 33.8917 83.9603 33.7195C84.0067 33.8917 84.0549 34.0658 84.118 34.2529L84.4016 35.0846H83.5375V35.0699H83.5357Z" fill="white"/>
<path d="M86.5991 33.373H86.2224V36.2776H86.5991V33.373Z" fill="white"/>
<path d="M89.0835 34.7225C89.382 34.5965 89.5711 34.3613 89.5711 34.0779C89.5711 33.8574 89.4765 33.6852 89.3356 33.5759C89.1465 33.4184 88.9111 33.3555 88.5347 33.3555C88.2677 33.3555 88.0155 33.3869 87.8579 33.4184V36.2619C87.984 36.2767 88.188 36.2933 88.4401 36.2933C88.9111 36.2933 89.2411 36.1989 89.4469 36.0266C89.5878 35.8858 89.699 35.6969 89.699 35.445C89.6842 35.0208 89.3524 34.7855 89.0854 34.7225H89.0835ZM88.2194 33.6704C88.2825 33.6555 88.3771 33.6389 88.5495 33.6389C88.9259 33.6389 89.1781 33.7796 89.1781 34.1094C89.1781 34.3928 88.9426 34.5966 88.5495 34.5966H88.2028V33.6704H88.2176H88.2194ZM88.5495 35.9951C88.4086 35.9951 88.2973 35.9951 88.2343 35.9803V34.8818H88.5495C88.9574 34.8818 89.3041 35.0393 89.3041 35.432C89.2893 35.871 88.9278 35.997 88.5495 35.997V35.9951Z" fill="white"/>
<path d="M92.0075 33.373H91.5514L90.5613 36.2628H90.9543L91.2529 35.3514H92.2745L92.5897 36.2628H92.9828L92.0075 33.373ZM91.3326 35.0699L91.6163 34.2381C91.6626 34.0659 91.7108 33.8917 91.7572 33.7195C91.8035 33.8917 91.8517 34.0658 91.9148 34.2529L92.1984 35.0846H91.3345V35.0699H91.3326Z" fill="white"/>
<path d="M94.0193 36.2786V33.374H94.4271L95.3542 34.8337C95.5749 35.1801 95.7307 35.4783 95.8735 35.7766H95.8883C95.8568 35.3839 95.8419 35.0393 95.8419 34.5836V33.374H96.1886V36.2786H95.8123L94.8852 34.8022C94.6812 34.4725 94.492 34.1428 94.3344 33.8278H94.3197C94.3345 34.1891 94.3512 34.5355 94.3512 35.0208V36.2619H94.0211V36.2767L94.0193 36.2786Z" fill="white"/>
<path d="M98.6734 33.373H98.2172L97.2271 36.2628H97.6202L97.9187 35.3514H98.9403L99.2555 36.2628H99.6486L98.6734 33.373ZM98.0133 35.0699L98.2969 34.2381C98.36 34.0659 98.4064 33.8917 98.4379 33.7195H98.4527C98.4991 33.8917 98.5305 34.0658 98.6103 34.2529L98.894 35.0846H98.0133V35.0699Z" fill="white"/>
<path d="M104.191 33.7186C103.939 33.4834 103.546 33.3574 103.012 33.3574C102.713 33.3574 102.446 33.3889 102.211 33.4204V36.2638C102.4 36.2786 102.619 36.2953 102.888 36.2953C103.453 36.2953 103.895 36.1545 104.176 35.8711C104.443 35.6043 104.601 35.2117 104.601 34.7411C104.601 34.2855 104.443 33.9557 104.193 33.7205L104.191 33.7186ZM102.964 35.9952C102.823 35.9952 102.68 35.9952 102.587 35.9804V33.6872C102.682 33.6723 102.84 33.6556 103.027 33.6556C103.813 33.6556 104.206 34.0946 104.206 34.7708C104.206 35.5562 103.767 35.9952 102.964 35.9952Z" fill="white"/>
<path d="M107.178 34.9124H106.062V35.9645H107.319V36.2795H105.684V33.373H107.239V33.688H106.062V34.5975H107.178V34.9124Z" fill="white"/>
<path d="M112.129 36.1362C111.956 36.1992 111.626 36.2936 111.233 36.2936C110.794 36.2936 110.432 36.1843 110.149 35.9176C109.896 35.6823 109.741 35.2896 109.741 34.834C109.741 33.9707 110.338 33.3428 111.313 33.3428C111.643 33.3428 111.91 33.4206 112.036 33.4836L111.942 33.7818C111.784 33.7188 111.595 33.6558 111.296 33.6558C110.588 33.6558 110.134 34.0948 110.134 34.8173C110.134 35.5397 110.573 35.9787 111.25 35.9787C111.502 35.9787 111.658 35.9472 111.753 35.9009V35.0377H111.17V34.7395H112.129V36.138V36.1362Z" fill="white"/>
<path d="M114.471 32.7129L114.078 33.2149H114.393L114.944 32.7129H114.473H114.471ZM114.519 33.3723H114.063L113.073 36.262H113.466L113.764 35.3507H114.786L115.101 36.262H115.494L114.519 33.3723ZM113.842 35.0691L114.126 34.2374C114.172 34.0651 114.22 33.891 114.267 33.7187C114.313 33.891 114.361 34.0651 114.424 34.2522L114.708 35.0839H113.844V35.0691H113.842Z" fill="white"/>
<path d="M116.484 35.823C116.657 35.9323 116.892 36.0119 117.161 36.0119C117.538 36.0119 117.775 35.8082 117.775 35.5248C117.775 35.258 117.617 35.1006 117.224 34.9431C116.753 34.7708 116.455 34.5356 116.455 34.1262C116.455 33.6705 116.831 33.3408 117.398 33.3408C117.697 33.3408 117.918 33.4038 118.044 33.4816L117.934 33.7799C117.84 33.7335 117.651 33.6391 117.384 33.6391C116.991 33.6391 116.833 33.8743 116.833 34.0781C116.833 34.3448 117.005 34.4856 117.415 34.6431C117.903 34.832 118.153 35.0673 118.153 35.4915C118.153 35.9157 117.823 36.3232 117.132 36.3232C116.848 36.3232 116.549 36.2454 116.394 36.1342L116.488 35.8193L116.484 35.823Z" fill="white"/>
<path d="M23.485 6.40742C23.485 9.94177 19.886 12.8148 19.886 12.8148C19.886 12.8148 16.2871 9.94177 16.2871 6.40742C16.2871 2.87307 19.886 0 19.886 0C19.886 0 23.485 2.87307 23.485 6.40742Z" fill="white"/>
<path d="M23.485 33.341C23.485 36.8754 19.886 39.7484 19.886 39.7484C19.886 39.7484 16.2871 36.8754 16.2871 33.341C16.2871 29.8067 19.886 26.9336 19.886 26.9336C19.886 26.9336 23.485 29.8067 23.485 33.341Z" fill="white"/>
<path d="M33.3584 23.4791C29.8206 23.4791 26.9448 19.8836 26.9448 19.8836C26.9448 19.8836 29.8206 16.2881 33.3584 16.2881C36.8961 16.2881 39.7719 19.8836 39.7719 19.8836C39.7719 19.8836 36.911 23.4791 33.3584 23.4791Z" fill="white"/>
<path d="M6.41359 23.4791C2.87583 23.4791 0 19.8836 0 19.8836C0 19.8836 2.87583 16.2881 6.41359 16.2881C9.95134 16.2881 12.8271 19.8836 12.8271 19.8836C12.8271 19.8836 9.95134 23.4791 6.41359 23.4791Z" fill="white"/>
<path d="M31.9584 12.8944C29.459 15.3914 24.868 14.8894 24.868 14.8894C24.868 14.8894 24.3489 10.3195 26.865 7.80584C29.3644 5.30882 33.9553 5.81081 33.9553 5.81081C33.9553 5.81081 34.4745 10.3974 31.9584 12.8944Z" fill="white"/>
<path d="M12.9069 31.9441C10.4075 34.4412 5.81652 33.9392 5.81652 33.9392C5.81652 33.9392 5.29736 29.3693 7.81346 26.8556C10.3129 24.3586 14.9038 24.8606 14.9038 24.8606C14.9038 24.8606 15.4063 29.4471 12.9069 31.9441Z" fill="white"/>
<path d="M26.8649 31.9442C24.3655 29.4472 24.868 24.8607 24.868 24.8607C24.868 24.8607 29.4423 24.342 31.9584 26.8557C34.4578 29.3527 33.9553 33.9392 33.9553 33.9392C33.9553 33.9392 29.3643 34.4412 26.8649 31.9442Z" fill="white"/>
<path d="M7.81341 12.8944C5.31399 10.3974 5.81647 5.81086 5.81647 5.81086C5.81647 5.81086 10.3907 5.2922 12.9069 7.80588C15.4211 10.3177 14.9038 14.8894 14.9038 14.8894C14.9038 14.8894 10.3128 15.4081 7.81341 12.8944Z" fill="white"/>
</svg>
