<svg width="216" height="50" viewBox="0 0 216 50" fill="none" xmlns="http://www.w3.org/2000/svg">
<path d="M46.9346 34.7087C46.7491 34.7087 46.5582 34.679 46.3728 34.6068L2.49391 18.4355C1.63913 18.1206 1.19783 17.1629 1.50933 16.2997C1.82083 15.4346 2.76458 14.9882 3.61935 15.3031L47.4982 31.4744C48.353 31.7893 48.7943 32.747 48.4828 33.6102C48.2418 34.2864 47.6095 34.7087 46.9365 34.7087H46.9346Z" fill="white"/>
<path d="M48.3455 26.6212H1.64838C0.739839 26.6212 0 25.8728 0 24.9522C0 24.0316 0.737984 23.2832 1.64838 23.2832H48.3455C49.2541 23.2832 49.9939 24.0316 49.9939 24.9522C49.9939 25.8728 49.2559 26.6212 48.3455 26.6212Z" fill="white"/>
<path d="M3.05568 34.7087C2.38262 34.7087 1.75037 34.2864 1.50933 33.6102C1.19783 32.7452 1.63913 31.7893 2.49391 31.4744L46.3728 15.3031C47.2276 14.9882 48.1713 15.4346 48.4828 16.2997C48.7943 17.1648 48.353 18.1206 47.4982 18.4355L3.61935 34.6068C3.43394 34.6735 3.24291 34.7087 3.05749 34.7087H3.05568Z" fill="white"/>
<path d="M7.1088 41.8196C6.63599 41.8196 6.17434 41.6158 5.848 41.225C5.2658 40.5174 5.35481 39.4652 6.04827 38.8743L41.8189 8.47486C42.5179 7.88024 43.5562 7.97654 44.1403 8.6786C44.7225 9.38065 44.6335 10.4384 43.94 11.0293L8.16943 41.4269C7.86349 41.6918 7.48705 41.8178 7.1088 41.8178V41.8196Z" fill="white"/>
<path d="M13.3241 47.0953C13.0423 47.0953 12.7623 47.0249 12.5008 46.8711C11.7128 46.408 11.4403 45.3911 11.8982 44.5927L35.2459 3.64386C35.7039 2.84548 36.707 2.57132 37.4969 3.03256C38.2849 3.49566 38.5575 4.51262 38.0995 5.311L14.7499 46.2598C14.444 46.7933 13.8915 47.0934 13.3241 47.0934V47.0953Z" fill="white"/>
<path d="M20.9429 49.9037C20.8484 49.9037 20.7519 49.8945 20.6574 49.8778C19.7637 49.7204 19.1648 48.8497 19.3205 47.9439L27.4288 1.37864C27.5846 0.472822 28.443 -0.136622 29.3386 0.0263883C30.2323 0.183841 30.8312 1.05445 30.6754 1.96027L22.5671 48.5256C22.4262 49.335 21.7328 49.9037 20.9447 49.9037H20.9429Z" fill="white"/>
<path d="M29.0454 49.9037C28.2611 49.9037 27.5676 49.3331 27.423 48.5255L19.3204 1.96021C19.1646 1.05439 19.7616 0.189339 20.6572 0.0263294C21.5509 -0.13668 22.4056 0.474616 22.567 1.37858L30.6752 47.9438C30.831 48.8496 30.2339 49.7147 29.3384 49.8777C29.2438 49.8926 29.1474 49.9037 29.0528 49.9037H29.0473H29.0454Z" fill="white"/>
<path d="M36.6718 47.0956C36.1044 47.0956 35.5463 46.7955 35.2459 46.2621L11.8982 5.31321C11.4403 4.51483 11.7128 3.49786 12.5008 3.03476C13.2889 2.57167 14.2939 2.84583 14.7518 3.64606L38.1013 44.5949C38.5593 45.3933 38.2867 46.4103 37.4987 46.8733C37.2373 47.0252 36.9555 47.0975 36.6755 47.0975L36.6718 47.0956Z" fill="white"/>
<path d="M61.1448 9.6416H64.3803C65.8878 9.6416 67.1374 9.74348 67.7752 10.8012C68.198 11.4773 68.122 12.2405 68.007 12.7851C67.7456 14.0207 67.0225 15.0636 66.0787 15.6082C65.2091 16.1065 64.1504 16.1065 63.5978 16.1065H62.0756L61.206 20.2373H58.9253L61.1448 9.6416ZM62.3666 14.4171H63.2659C63.9891 14.4171 65.3408 14.4171 65.6875 12.7999C65.9786 11.3606 64.7734 11.3606 64.1355 11.3606H63.0045L62.3666 14.4171Z" fill="white"/>
<path d="M72.2622 12.6426C74.9192 12.6426 75.6887 14.4635 75.2511 16.5344C74.7987 18.6202 73.2208 20.5022 70.5638 20.5022C68.4741 20.5022 67.0984 19.1944 67.6453 16.5955C68.0217 14.8043 69.3734 12.6426 72.2622 12.6426ZM70.9569 18.9907C71.9006 18.9907 72.6553 18.4165 73.0762 16.4474C73.2765 15.4601 73.3821 14.0967 71.9618 14.0967C70.395 14.0967 69.9871 15.9324 69.8573 16.6104C69.4957 18.2683 69.9018 18.9907 70.9569 18.9907Z" fill="white"/>
<path d="M78.3162 9.61621H80.4615L78.2254 20.2378H76.0801L78.3162 9.61621Z" fill="white"/>
<path d="M85.1616 12.6426C87.8186 12.6426 88.5881 14.4635 88.1506 16.5344C87.6981 18.6202 86.1203 20.5022 83.4633 20.5022C81.3736 20.5022 79.9978 19.1944 80.5448 16.5955C80.9211 14.8043 82.2728 12.6426 85.1616 12.6426ZM83.8563 18.9907C84.8 18.9907 85.5547 18.4165 85.9756 16.4474C86.1759 15.4601 86.2816 14.0967 84.8613 14.0967C83.2945 14.0967 82.8866 15.9324 82.7568 16.6104C82.3952 18.2683 82.8012 18.9907 83.8563 18.9907Z" fill="white"/>
<path d="M96.309 16.8588C96.2386 17.2867 96.0031 18.5018 97.7312 18.5018C97.9778 18.5018 99.2832 18.5018 99.5446 17.2959C99.6447 16.7976 99.5149 16.4568 98.8474 16.2679L96.4258 15.5918C95.7435 15.3991 93.9746 14.9008 94.4363 12.6817C94.7979 10.9627 96.411 9.36035 99.5446 9.36035C103.639 9.36035 103.347 11.6091 103.116 12.7372H100.173C100.244 12.4112 100.505 11.2664 99.1126 11.2664C98.2671 11.2664 97.631 11.7499 97.4994 12.3853C97.3232 13.1633 97.9222 13.3559 98.3282 13.4745L100.171 13.9876C101.493 14.3544 103.06 14.7971 102.576 17.044C102.085 19.4095 99.8635 20.4672 97.2361 20.4672C96.1459 20.4672 94.4233 20.2894 93.6946 19.2058C93.1013 18.3518 93.3034 17.3089 93.3887 16.8551H96.3072L96.309 16.8588Z" fill="white"/>
<path d="M105.77 9.65723H113.637L113.214 11.6874H108.221L107.759 13.8899H112.461L112.024 15.9202H107.322L106.86 18.1838H111.968L111.53 20.2381H103.548L105.77 9.65723Z" fill="white"/>
<path d="M115.333 9.625H119.527C120.849 9.625 122.195 9.62499 122.978 10.49C123.239 10.8013 123.586 11.3699 123.4 12.311C122.994 14.193 121.211 14.5894 120.656 14.7228L120.642 14.7524C121.279 14.8691 123.078 15.2099 122.616 17.3828C122.44 18.2071 121.932 19.174 120.656 19.7946C119.742 20.2373 118.683 20.2373 117.738 20.2373H113.11L115.331 9.63056V9.625H115.333ZM116.347 18.2942H117.959C118.29 18.2942 119.457 18.2941 119.716 17.0586C119.978 15.7823 118.787 15.7823 118.394 15.7823H116.872L116.349 18.296H116.345L116.347 18.2942ZM117.261 13.8985H118.628C119.09 13.8985 119.396 13.8984 119.672 13.7669C120.033 13.5743 120.339 13.1927 120.426 12.7389C120.497 12.4129 120.471 12.0312 120.226 11.7978C119.965 11.5478 119.644 11.5478 119.342 11.5478H117.76L117.269 13.8985H117.263H117.261Z" fill="white"/>
<path d="M125.866 9.62588H130.713C132.603 9.62588 133.296 9.74255 133.773 10.389C134.034 10.7151 134.31 11.3004 134.078 12.4433C133.832 13.6029 133.264 14.1012 132.703 14.4124C131.948 14.8403 131.295 14.9107 130.989 14.957L130.975 15.0181C133.005 15.0793 132.918 15.9888 132.818 17.617C132.756 18.3395 132.671 19.4843 132.756 20.2308H129.606C129.562 19.5843 129.667 18.7767 129.767 17.8357C129.899 16.5594 129.958 16.0851 128.653 16.0851H127.433L126.563 20.2308H123.645L125.866 9.62402V9.62588ZM127.841 14.1791H128.931C129.569 14.1791 129.89 14.179 130.151 14.092C130.834 13.8882 131.095 13.2269 131.166 12.886C131.442 11.5783 130.313 11.5783 129.467 11.5783H128.377L127.839 14.1772L127.841 14.1791Z" fill="white"/>
<path d="M139.65 9.625H143.192L145.105 20.2318H141.825L141.549 18.0997H137.355L136.194 20.2318H133.291L139.645 9.625H139.648H139.65ZM141.289 16.1528L140.867 11.7015H140.822L138.441 16.1528H141.291H141.289Z" fill="white"/>
<path d="M148.493 9.65723H156.361L155.938 11.6874H150.945L150.483 13.8899H155.185L154.747 15.9202H150.045L149.583 18.1838H154.692L154.254 20.2381H146.272L148.493 9.65723Z" fill="white"/>
<path d="M166.992 9.625H169.152L167.178 19.0314C167.092 19.4741 167.016 19.9576 166.987 20.2373H164.812L164.988 19.1648C164.788 19.4297 164.582 19.7094 164.059 20.0039C163.451 20.354 162.883 20.3855 162.563 20.3855C160.603 20.3855 159.735 19.0166 160.212 16.6974C160.735 14.2448 162.372 12.7148 164.291 12.7148C165.613 12.7148 166.004 13.4631 166.134 13.7262L166.989 9.62685H166.992V9.625ZM163.397 18.9703C164.02 18.9703 164.617 18.5887 164.934 18.1311C165.387 17.5161 165.572 16.7474 165.657 16.3806C165.963 14.9265 165.496 14.1319 164.526 14.1319C163.089 14.1319 162.568 15.8824 162.407 16.6289C162.145 17.8644 162.322 18.9629 163.392 18.9629L163.397 18.9684V18.9703Z" fill="white"/>
<path d="M171.188 17.0781C171.088 17.5615 170.765 19.062 172.263 19.062C172.801 19.062 173.378 18.8582 173.76 18.0339H175.718C175.618 18.3858 175.412 19.0212 174.689 19.651C174.021 20.2252 173.005 20.5161 171.931 20.5161C171.308 20.5161 170.148 20.3994 169.534 19.5899C169.026 18.8823 168.952 17.8857 169.202 16.6946C169.464 15.4887 170.046 14.0494 171.468 13.1843C172.121 12.8027 172.859 12.5693 173.658 12.5693C174.703 12.5693 175.864 12.9806 176.24 14.3606C176.517 15.372 176.272 16.4612 176.111 17.0762H171.188V17.0781ZM174.192 15.711C174.262 15.3757 174.512 14.0531 173.261 14.0531C172.317 14.0531 171.765 14.8459 171.533 15.711H174.19H174.192Z" fill="white"/>
<path d="M61.2062 27.292H69.0733L68.6506 29.3222H63.6573L63.1957 31.5247H67.8978L67.4603 33.5549H62.7581L62.2964 35.8185H67.4046L66.967 37.8728H58.9849L61.2043 27.292H61.2062Z" fill="white"/>
<path d="M69.8113 32.0687L70.0727 30.496H72.8002L72.5833 31.626C73.0357 31.0665 73.7736 30.333 75.2811 30.333C77.9492 30.333 77.5172 32.3873 77.3114 33.4061L76.3677 37.8722H73.6402L74.5246 33.6395C74.6396 33.1264 74.8565 32.0835 73.7403 32.0835C72.5203 32.0835 72.244 33.3764 72.1884 33.6395L71.3039 37.8722H68.5913L69.8113 32.0687Z" fill="white"/>
<path d="M81.0586 34.7398C80.9882 35.1362 80.6823 36.531 82.0729 36.531C82.796 36.531 83.3337 36.1494 83.5543 35.4585H86.0909C85.4975 37.3109 83.6396 38.0278 81.7502 38.0278C79.2082 38.0278 78.1087 36.7348 78.6315 34.2933C79.1396 31.8259 80.6767 30.2236 83.3634 30.2236C85.3937 30.2236 86.1521 31.0627 86.4228 32.1056C86.6137 32.7373 86.5526 33.4431 86.2763 34.7361H81.0512L81.0568 34.7416L81.0586 34.7398ZM84.0327 33.2393C84.0939 32.8114 84.233 31.6981 83.0481 31.6981C81.8633 31.6981 81.511 32.8892 81.4109 33.2393H84.0382H84.0327Z" fill="white"/>
<path d="M88.3975 32.0692L88.659 30.4965H91.3159L91.0397 32.0229C91.9983 30.3743 93.3203 30.4206 93.9433 30.4354L93.4353 32.8009C93.1293 32.7694 93.0589 32.7546 92.8679 32.7546C91.201 32.7546 90.7226 33.9457 90.5465 34.7385L89.8938 37.8672H87.1812L88.4012 32.0636L88.3956 32.0692H88.3975Z" fill="white"/>
<path d="M102.98 30.4514L101.543 37.3294C101.352 38.2093 100.961 39.2521 99.83 39.9598C99.1068 40.4173 98.1463 40.7841 96.65 40.7841C95.8212 40.7841 94.4751 40.6674 93.7928 39.919C93.2847 39.3448 93.4164 38.6575 93.472 38.2759H96.04C95.9955 38.5556 96.04 38.7891 96.2161 38.9521C96.3774 39.1151 96.6538 39.2169 97.045 39.2169C98.4115 39.2169 98.697 38.2204 98.8732 37.4257L99.0752 36.4532C98.0907 37.572 96.8855 37.6443 96.4628 37.6443C94.9256 37.6443 93.4294 36.6718 93.9967 33.9877C94.4195 31.9889 95.8101 30.3311 98.0314 30.3311C99.4387 30.3311 99.9448 30.9924 100.177 31.5833L100.407 30.4644H102.975L102.984 30.4533L102.98 30.4514ZM98.6692 31.8593C97.7551 31.8593 97.0876 32.7132 96.8262 33.9451C96.65 34.7231 96.5647 35.9993 97.7699 35.9993C99.0752 35.9993 99.4535 34.4433 99.5536 33.9135C99.6389 33.5319 99.9912 31.8593 98.6692 31.8593Z" fill="white"/>
<path d="M104.885 30.4927H107.612L106.06 37.8689H103.333L104.885 30.4927ZM105.523 27.2881H108.311L107.905 29.2572H105.117L105.523 27.2881Z" fill="white"/>
<path d="M112.676 37.8689C112.676 37.604 112.72 37.278 112.807 36.8112C112.37 37.3095 111.662 38.0171 110.165 38.0171C108.382 38.0171 107.799 37.0298 108.076 35.722C108.496 33.7085 110.497 32.9749 113.601 33.1083C113.777 32.3155 113.831 31.5819 113.008 31.5819C112.501 31.5819 111.964 31.8617 111.802 32.7008H109.19C109.275 32.3655 109.405 31.7301 110.074 31.1596C110.773 30.5687 111.973 30.2334 113.295 30.2334C113.948 30.2334 115.314 30.3204 115.922 31.0873C116.299 31.5449 116.328 32.2321 116.152 33.025L115.429 36.4629C115.329 36.9927 115.314 37.1391 115.285 37.8726H112.672L112.676 37.8671V37.8689ZM110.816 35.4719C110.699 36.0166 110.948 36.4685 111.6 36.4685C111.891 36.4685 112.429 36.3518 112.82 35.7609C113.141 35.2922 113.273 34.6884 113.312 34.3827C112.151 34.3975 111.037 34.4124 110.816 35.4719Z" fill="white"/>
<path d="M119.659 35.4778C119.629 35.6093 119.573 35.889 119.629 36.1391C119.688 36.3725 119.859 36.5966 120.326 36.5966C120.949 36.5966 121.257 36.1687 121.311 35.8483C121.426 35.3352 121.035 35.1869 120.456 35.0239L119.065 34.5961C118.643 34.4794 117.398 34.1126 117.714 32.5973C117.875 31.8656 118.396 31.2451 118.95 30.9246C119.674 30.4671 120.588 30.293 121.663 30.293C123.23 30.293 124.782 30.7209 124.461 32.7751H121.878C121.923 32.5566 121.978 32.2769 121.923 32.0527C121.863 31.8193 121.693 31.6563 121.255 31.6563C120.818 31.6563 120.4 31.8489 120.311 32.3028C120.211 32.7307 120.488 32.8937 120.894 33.0104L122.722 33.555C123.389 33.7476 124.32 34.1459 124.012 35.5852C123.489 38.0822 120.632 38.0822 119.994 38.0822C118.513 38.0822 116.423 37.8636 116.961 35.4833H119.659V35.4778Z" fill="white"/>
<path d="M132.091 27.2617H136.94C138.827 27.2617 139.523 27.3784 139.999 28.0249C140.261 28.3509 140.537 28.9363 140.307 30.0792C140.06 31.2388 139.493 31.7371 138.929 32.0483C138.175 32.4762 137.522 32.5466 137.216 32.5929L137.201 32.654C139.232 32.7152 139.146 33.6246 139.044 35.2529C138.985 35.9753 138.9 37.1201 138.985 37.8685H135.835C135.79 37.222 135.894 36.4144 135.996 35.4734C136.126 34.1971 136.187 33.7228 134.882 33.7228H133.662L132.792 37.8685H129.874L132.095 27.2617H132.091ZM134.066 31.8149H135.156C135.794 31.8149 136.115 31.8149 136.376 31.7278C137.058 31.5241 137.32 30.8628 137.39 30.5219C137.667 29.2142 136.537 29.2141 135.694 29.2141H134.604L134.068 31.813L134.066 31.8149Z" fill="white"/>
<path d="M143.124 34.7398C143.053 35.1362 142.747 36.531 144.138 36.531C144.861 36.531 145.399 36.1494 145.619 35.4585H148.156C147.563 37.3109 145.705 38.0278 143.815 38.0278C141.279 38.0278 140.174 36.7348 140.697 34.2933C141.205 31.8259 142.742 30.2236 145.428 30.2236C147.459 30.2236 148.217 31.0627 148.488 32.1056C148.679 32.7373 148.619 33.4431 148.343 34.7361H143.118L143.124 34.7416V34.7398ZM146.096 33.2393C146.155 32.8114 146.296 31.6981 145.111 31.6981C143.927 31.6981 143.574 32.8892 143.474 33.2393H146.101H146.096Z" fill="white"/>
<path d="M150.422 32.0687L150.683 30.496H153.411L153.194 31.626C153.646 31.0665 154.384 30.333 155.891 30.333C158.56 30.333 158.128 32.3873 157.922 33.4061L156.978 37.8722H154.251L155.135 33.6395C155.25 33.1264 155.467 32.0835 154.351 32.0835C153.131 32.0835 152.854 33.3764 152.799 33.6395L151.914 37.8722H149.202L150.424 32.0687H150.422Z" fill="white"/>
<path d="M164.364 30.2421C166.73 30.2421 168.329 31.448 167.776 34.0617C167.559 35.1342 167.021 36.2234 166.109 36.9866C165.371 37.5868 164.366 38.0443 162.874 38.0443C161.261 38.0443 160.306 37.6479 159.738 36.9551C159.071 36.1456 159.1 35.0471 159.286 34.1469C159.764 31.8833 161.476 30.2402 164.364 30.2402V30.2421ZM162.091 35.9141C162.292 36.4735 162.79 36.505 163.035 36.505C164.225 36.505 164.732 35.1972 164.948 34.171C165.21 32.8947 165.139 31.8203 164.049 31.8203C162.844 31.8203 162.351 33.0725 162.121 34.171C162.021 34.6545 161.904 35.3769 162.091 35.9215V35.9159V35.9141Z" fill="white"/>
<path d="M169.023 30.4922H171.952L172.314 35.6659L174.956 30.4922H177.524L173.213 37.8684H170.239L169.017 30.4922H169.023Z" fill="white"/>
<path d="M181.431 37.8691C181.431 37.6042 181.475 37.2782 181.562 36.8114C181.125 37.3097 180.416 38.0173 178.92 38.0173C177.136 38.0173 176.554 37.0299 176.83 35.7221C177.251 33.7086 179.252 32.9751 182.356 33.1085C182.532 32.3156 182.588 31.5821 181.763 31.5821C181.256 31.5821 180.719 31.8618 180.557 32.7009H177.945C178.03 32.3657 178.16 31.7303 178.829 31.1597C179.528 30.5688 180.728 30.2335 182.05 30.2335C182.703 30.2335 184.069 30.3206 184.677 31.0875C185.054 31.545 185.083 32.2323 184.907 33.0251L184.184 36.4631C184.084 36.9929 184.069 37.1392 184.039 37.8728H181.427L181.431 37.8672V37.8691ZM179.573 35.4721C179.458 36.0167 179.704 36.4687 180.357 36.4687C180.648 36.4687 181.186 36.3519 181.577 35.761C181.898 35.2924 182.03 34.6885 182.068 34.3829C180.908 34.3977 179.793 34.4125 179.573 35.4721ZM182.285 29.3333H180.372L182.432 27.2012H185.391L182.287 29.3333H182.285Z" fill="white"/>
<path d="M186.177 30.4922H189.107L189.468 35.6659L192.11 30.4922H194.676L190.366 37.8684H187.391L186.171 30.4922H186.175H186.177Z" fill="white"/>
<path d="M196.781 34.7398C196.71 35.1362 196.404 36.531 197.795 36.531C198.518 36.531 199.056 36.1494 199.277 35.4585H201.813C201.222 37.3109 199.362 38.0278 197.473 38.0278C194.936 38.0278 193.831 36.7348 194.354 34.2933C194.862 31.8259 196.399 30.2236 199.086 30.2236C201.114 30.2236 201.874 31.0627 202.145 32.1056C202.336 32.7373 202.277 33.4431 202 34.7361H196.775L196.781 34.7416V34.7398ZM199.755 33.2393C199.816 32.8114 199.957 31.6981 198.77 31.6981C197.584 31.6981 197.233 32.8892 197.133 33.2393H199.761H199.755Z" fill="white"/>
<path d="M204.487 30.4927H207.214L205.661 37.8689H202.933L204.485 30.4927H204.487ZM205.127 27.2881H207.913L207.507 29.2572H204.719L205.127 27.2881Z" fill="white"/>
<path d="M210.394 35.4778C210.364 35.6093 210.309 35.889 210.364 36.1391C210.424 36.3725 210.594 36.5966 211.062 36.5966C211.685 36.5966 211.992 36.1687 212.046 35.8483C212.161 35.3352 211.77 35.1869 211.191 35.0239L209.801 34.5961C209.378 34.4794 208.134 34.1126 208.449 32.5973C208.611 31.8656 209.132 31.2451 209.686 30.9246C210.409 30.4671 211.323 30.293 212.399 30.293C213.965 30.293 215.517 30.7209 215.196 32.7751H212.615C212.66 32.5566 212.716 32.2769 212.66 32.0527C212.601 31.8193 212.43 31.6563 211.992 31.6563C211.555 31.6563 211.138 31.8489 211.049 32.3028C210.949 32.7307 211.225 32.8937 211.631 33.0104L213.459 33.555C214.127 33.7476 215.057 34.1459 214.75 35.5852C214.227 38.0822 211.369 38.0822 210.732 38.0822C209.25 38.0822 207.16 37.8636 207.698 35.4833H210.396V35.4778H210.394Z" fill="white"/>
</svg>
