<svg width="71" height="44" viewBox="0 0 71 44" fill="none" xmlns="http://www.w3.org/2000/svg">
<path d="M33.5943 4.33325C33.687 4.35548 33.7222 4.32952 33.7556 4.3073C34.5844 3.73861 35.5189 3.58857 36.4924 3.65525C37.1914 3.70341 37.7977 4.00723 38.3261 4.46662C38.5227 4.63704 38.5208 4.63332 38.747 4.49439C40.0802 3.67934 41.506 3.39406 43.0227 3.83678C44.2984 4.20911 45.0456 5.07235 45.207 6.41162C45.2459 6.72838 45.2681 7.04512 45.2681 7.36559C45.2681 9.0883 45.2681 10.8092 45.2681 12.5319C45.2681 12.5949 45.2644 12.6597 45.2681 12.7227C45.2755 12.8338 45.2181 12.8727 45.1143 12.869C44.9863 12.8653 44.8584 12.869 44.7304 12.869C44.2298 12.869 43.731 12.869 43.2304 12.869C42.9745 12.869 42.9727 12.8653 42.9727 12.6041C42.9727 11.1167 42.9727 9.62734 42.9727 8.13987C42.9727 7.70456 42.9893 7.26929 42.9096 6.83583C42.7798 6.13563 42.2217 5.6447 41.506 5.63544C40.6123 5.62433 39.7186 5.63173 38.8249 5.63359C38.7637 5.63359 38.6933 5.61508 38.6599 5.69288C38.6766 5.77438 38.7545 5.76883 38.8082 5.7892C39.3237 5.98 39.5351 6.26713 39.5462 6.81543C39.5517 7.13404 39.5462 7.45264 39.5462 7.77125C39.5462 9.34392 39.5462 10.9184 39.5462 12.4911C39.5462 12.5652 39.5425 12.6393 39.5462 12.7134C39.5499 12.819 39.5072 12.869 39.3978 12.869C38.7378 12.8672 38.0777 12.8672 37.4195 12.869C37.2934 12.869 37.247 12.8153 37.2544 12.6968C37.2581 12.6227 37.2544 12.5486 37.2544 12.4745C37.2544 11.0389 37.2581 9.60514 37.2526 8.16954C37.2526 7.75645 37.2581 7.34149 37.1673 6.93397C37.0041 6.18931 36.4311 5.66323 35.6709 5.641C34.7142 5.61322 33.7556 5.63359 32.7988 5.63544C32.771 5.63544 32.7321 5.63547 32.7117 5.75402C32.7098 5.77625 32.7951 5.76697 32.8452 5.7855C33.3755 5.97814 33.5906 6.269 33.5943 6.83397C33.598 7.69533 33.5943 8.55668 33.5943 9.41619C33.5943 10.4795 33.5943 11.5427 33.5943 12.606C33.5943 12.8635 33.5906 12.8672 33.3329 12.8672C32.7469 12.8672 32.1629 12.8672 31.577 12.8672C31.2247 12.8672 31.2914 12.8283 31.2914 12.5634C31.2914 9.81075 31.2914 7.05623 31.2914 4.30359C31.2914 4.17577 31.2951 4.04794 31.2914 3.92013C31.2877 3.81269 31.3285 3.76827 31.4398 3.76827C32.111 3.77012 32.7803 3.77012 33.4515 3.76827C33.5609 3.76827 33.6036 3.81088 33.5998 3.91832C33.5943 4.05355 33.5998 4.19062 33.5998 4.32955L33.5943 4.33325Z" fill="white"/>
<path d="M11.1496 20.0253C11.1069 20.0308 11.068 20.0401 11.0291 20.0401C10.2633 20.0401 9.49755 20.0382 8.73178 20.0438C8.59828 20.0438 8.52225 20.0031 8.44994 19.8901C7.89369 19.0028 7.05746 18.6212 6.03952 18.5711C5.58896 18.5489 5.14764 18.5934 4.71748 18.7305C3.74404 19.0417 3.06172 19.6807 2.69274 20.6236C2.24403 21.7684 2.24031 22.9372 2.73167 24.069C3.26196 25.2916 4.24281 25.9196 5.55742 26.0381C6.02653 26.0807 6.49378 26.064 6.9499 25.9418C8.1032 25.6306 8.78737 24.8526 9.11742 23.7338C9.14337 23.6448 9.19159 23.5559 9.16934 23.4522C9.07107 23.3985 8.96539 23.4262 8.86156 23.4262C7.86216 23.4244 6.86088 23.4262 5.86148 23.4262C5.6019 23.4262 5.60006 23.4244 5.60006 23.1725C5.60006 22.7798 5.59821 22.3852 5.60006 21.9925C5.60006 21.6498 5.55744 21.6813 5.90046 21.6794C6.64584 21.6794 7.38932 21.6794 8.1347 21.6794C9.15634 21.6794 10.178 21.6794 11.1978 21.6794C11.4407 21.6794 11.4444 21.6832 11.4463 21.9184C11.4481 22.4612 11.4481 23.0021 11.4463 23.5448C11.4444 23.9579 11.3072 24.3413 11.1403 24.7081C10.2429 26.6883 8.71323 27.8275 6.54756 28.085C5.31454 28.2313 4.12973 28.0368 3.02464 27.457C1.59137 26.705 0.655013 25.5398 0.241533 23.9819C-0.145988 22.5186 -0.0755621 21.0663 0.578959 19.6881C1.44671 17.8598 2.92822 16.8243 4.9196 16.5298C6.18785 16.3427 7.42273 16.4854 8.589 17.0485C9.76084 17.6135 10.5915 18.4989 11.0587 19.7178C11.0958 19.8159 11.1477 19.9104 11.1477 20.0308L11.1496 20.0253Z" fill="white"/>
<path d="M7.76947 8.21828C7.8696 8.18679 7.91597 8.17937 7.97159 8.16456C8.03278 8.14047 8.09581 8.12564 8.14958 8.10341C9.50313 7.59401 10.2466 6.61224 10.3616 5.1822C10.4858 3.68362 9.77385 2.47771 8.44256 1.8442C7.8381 1.55893 7.19654 1.41999 6.5309 1.41999C4.72865 1.40517 2.9338 1.41262 1.13896 1.41262C0.758857 1.41262 0.797823 1.35887 0.797823 1.75343V12.5251C0.797823 12.5788 0.80524 12.6325 0.797823 12.6881C0.78299 12.827 0.844178 12.8733 0.98324 12.8733C1.61737 12.8659 2.25887 12.8659 2.89485 12.8733C3.05802 12.8733 3.09512 12.8122 3.09512 12.664C3.0877 12.3713 3.08769 12.0694 3.08769 11.7749V8.65356C3.09511 8.41461 3.09513 8.40723 3.33431 8.40723H5.12171C5.26819 8.39982 5.36092 8.44611 5.42396 8.57763C5.50184 8.73323 5.59456 8.87956 5.67058 9.0259C6.35848 10.2392 7.0482 11.4451 7.72868 12.6584C7.81398 12.8215 7.92152 12.8826 8.09952 12.8752C8.88012 12.8677 9.65331 12.8752 10.5136 12.8752C9.57729 11.2988 8.67986 9.76873 7.76761 8.22384L7.76947 8.21828ZM6.56983 6.6419C6.13595 6.69562 5.69651 6.67338 5.26263 6.68079H3.34359C3.10441 6.68079 3.09512 6.67337 3.09512 6.43441C3.09512 5.81571 3.08029 5.19702 3.10254 4.58759C3.11738 4.08559 2.87819 3.79108 2.46101 3.58361C2.29042 3.4984 2.09756 3.4669 1.91956 3.38354C2.01227 3.30574 2.09759 3.32239 2.18288 3.32239H6.10443C6.42149 3.32239 6.73857 3.33725 7.04822 3.45395C7.48024 3.6077 7.78246 3.90961 7.92152 4.35048C8.06059 4.80616 8.05318 5.26186 7.89002 5.70273C7.65825 6.30475 7.17799 6.56781 6.56797 6.64561L6.56983 6.6419Z" fill="white"/>
<path d="M39.8689 31.4708C39.8689 31.2467 39.8689 31.2393 39.6371 31.2393H37.8497C37.5549 31.2393 37.5475 31.2466 37.5475 31.5319V35.4812C37.4233 35.4516 37.3843 35.3645 37.3306 35.3108C36.943 34.9014 36.4943 34.5847 35.9696 34.3828C34.3305 33.7715 32.0629 34.2049 30.9726 36.3074C30.3311 37.5522 30.2532 38.8729 30.5628 40.2178C30.7872 41.1754 31.2581 41.9942 32.0239 42.6277C33.1142 43.5317 34.375 43.6799 35.7211 43.4076C36.4479 43.252 37.3454 42.5499 37.4306 41.4903C37.4381 41.4366 37.4233 41.3829 37.4696 41.344C37.477 41.3292 37.5011 41.3125 37.516 41.3125C37.5475 41.3125 37.5864 41.3125 37.5938 41.3514C37.6013 41.4292 37.6087 41.4977 37.6087 41.5755V43.1056C37.6087 43.3686 37.6161 43.376 37.8645 43.376H39.6204C39.867 43.376 39.8671 43.3687 39.8763 43.1297V31.7227C39.8763 31.6375 39.8763 31.5523 39.8689 31.4671V31.4708ZM37.2712 40.1955C36.8225 41.0606 36.0957 41.5089 35.1278 41.5015C34.1451 41.494 33.4331 40.992 33.0233 40.1103C32.645 39.299 32.6358 38.4562 32.9621 37.63C33.3645 36.6167 34.3008 36.0851 35.4059 36.1777C36.396 36.2555 37.223 37.0039 37.4715 38.0171C37.5327 38.2876 37.5568 38.5654 37.5493 38.8525C37.5734 39.3156 37.4881 39.7787 37.2712 40.1974V40.1955Z" fill="white"/>
<path d="M21.7146 34.2823C21.1194 34.2823 20.5242 34.2823 19.9272 34.2897C19.7727 34.2897 19.6954 34.3644 19.6954 34.5138C19.688 34.8306 19.6954 35.1473 19.6954 35.4566C19.6639 35.4715 19.6342 35.4881 19.6027 35.503C19.5786 35.4641 19.5637 35.4252 19.5415 35.3955C18.505 34.26 17.2127 33.9266 15.7442 34.2526C14.398 34.5453 13.4784 35.3881 12.9592 36.6403C12.364 38.0537 12.3788 39.5004 12.9277 40.9212C13.1669 41.5547 13.5544 42.1104 14.0643 42.5513C15.2324 43.5553 16.5859 43.7498 18.0174 43.3478C18.8833 43.1089 19.4321 42.4754 19.5638 41.5473C19.5712 41.4621 19.5489 41.3084 19.6713 41.3232C19.7881 41.338 19.7325 41.4862 19.7325 41.5714V43.133C19.7325 43.3719 19.7399 43.3719 19.9884 43.3793H21.6738C22.0446 43.3793 22.015 43.3941 22.015 43.0237V34.5768C22.015 34.2915 22.0075 34.2915 21.7127 34.2841L21.7146 34.2823ZM19.4951 39.9858C19.1391 40.9286 18.2566 41.5158 17.2757 41.5084C16.3097 41.5084 15.4271 40.8749 15.0711 39.9079C15.0173 39.7616 14.971 39.606 14.9395 39.4523C14.9005 39.2355 14.8709 39.0114 14.8857 38.8336C14.8783 38.2779 14.971 37.7981 15.2343 37.3572C15.7293 36.5144 16.4636 36.105 17.4315 36.168C18.4068 36.2291 19.0946 36.733 19.4655 37.6203C19.79 38.3927 19.7825 39.1966 19.497 39.9858H19.4951Z" fill="white"/>
<path d="M47.7824 18.9909C47.1483 18.9983 46.5067 18.9983 45.8726 18.9909C45.7094 18.9909 45.6408 19.0297 45.6482 19.2076C45.6631 19.5317 45.6557 19.8578 45.6557 20.2505C45.0067 19.5558 44.4949 19.2076 43.8849 19.0223C42.1364 18.4963 40.1098 19.0835 39.1197 20.9396C38.3929 22.3066 38.3224 23.7441 38.7489 25.2056C39.027 26.1633 39.561 26.9598 40.388 27.5322C41.4949 28.2973 42.7316 28.4121 43.9851 28.049C44.8676 27.8008 45.4091 27.1673 45.5314 26.217C45.5389 26.1781 45.5314 26.1318 45.5462 26.0929C45.5537 26.0466 45.5926 26.0244 45.639 26.0244C45.6927 26.0318 45.7094 26.0707 45.7094 26.1096C45.7169 26.1874 45.7169 26.2652 45.7169 26.3337V27.8323C45.7169 28.0805 45.6928 28.0805 45.9486 28.0805H47.6118C47.7286 28.0805 47.8436 28.112 47.9752 28.0416V19.3872C47.9752 19.3261 47.9678 19.2632 47.9752 19.1946C47.9901 19.0557 47.9437 18.9927 47.7824 18.9927V18.9909ZM45.5704 24.3461C45.3145 25.4205 44.4097 26.1688 43.3435 26.2077C42.2755 26.2466 41.3392 25.5594 40.9924 24.4998C40.8923 24.1757 40.8367 23.8422 40.8608 23.5107C40.8367 23.0161 40.9312 22.5678 41.1463 22.1436C41.6265 21.2248 42.5611 20.7376 43.5827 20.8766C44.558 21.0081 45.3534 21.7491 45.5778 22.7382C45.6946 23.2717 45.6946 23.8126 45.5704 24.3461Z" fill="white"/>
<path d="M11.1849 39.7623C11.1701 39.955 11.1015 40.0884 11.0421 40.2217C10.2615 42.0315 8.85791 43.0521 6.94255 43.3819C5.74847 43.5875 4.56368 43.5023 3.44005 43.0077C1.59886 42.2 0.493751 40.7886 0.122917 38.8213C-0.142229 37.4135 0.00982727 36.0446 0.694016 34.7701C1.61183 33.0567 3.06548 32.0879 4.9864 31.8341C6.3863 31.6489 7.71946 31.8656 8.94507 32.6029C9.99638 33.2345 10.7176 34.1403 11.1441 35.2851C11.1552 35.3147 11.1645 35.3462 11.1701 35.3759C11.1738 35.3962 11.1701 35.4166 11.1701 35.4389C11.1256 35.5018 11.057 35.4796 10.9995 35.4796C10.2652 35.4796 9.53097 35.4778 8.79672 35.4833C8.64468 35.4833 8.55383 35.45 8.47039 35.3055C7.85295 34.2126 6.86099 33.8106 5.66134 33.8495C3.6644 33.9162 2.56673 35.4148 2.40912 37.0319C2.32568 37.8821 2.38503 38.7139 2.74845 39.4937C3.31768 40.7126 4.29108 41.348 5.63536 41.4128C5.99877 41.4313 6.35664 41.4072 6.71078 41.3128C7.47841 41.1072 8.06987 40.67 8.45554 39.9735C8.54454 39.8142 8.641 39.7531 8.82456 39.7568C9.59961 39.7679 10.3765 39.7605 11.1831 39.7605L11.1849 39.7623Z" fill="white"/>
<path d="M70.6869 37.6226C70.3458 36.1462 69.4725 35.0885 68.0652 34.5161C66.7654 33.9826 65.4508 33.9993 64.1584 34.5309C63.0978 34.9718 62.3413 35.7369 61.8685 36.7797C61.583 37.4281 61.4587 38.1172 61.4587 38.8266C61.4662 39.036 61.4736 39.2527 61.4977 39.4601C61.5051 39.5991 61.5292 39.738 61.5514 39.8695C61.9074 41.57 62.8735 42.737 64.5367 43.2927C65.3266 43.5558 66.1461 43.5854 66.9656 43.4465C68.3117 43.2223 69.3872 42.5666 70.1214 41.3996C70.8482 40.2252 70.9799 38.9415 70.6869 37.6207V37.6226ZM68.219 40.1103C68.0559 40.5197 67.7555 40.8142 67.4292 41.0921C67.329 41.0921 67.2586 41.1236 67.2363 41.2162C66.4854 41.6108 65.7363 41.6719 64.9928 41.2385C64.4199 40.9069 64.0268 40.403 63.8859 39.7473C63.7079 38.9211 63.7468 38.1098 64.1028 37.328C64.1881 37.2891 64.2344 37.228 64.227 37.1354C64.3123 37.0965 64.3586 37.0354 64.3661 36.9502C64.659 36.6556 64.9687 36.3778 65.3784 36.2537C66.4539 35.9221 67.7926 36.3611 68.232 37.567C68.5417 38.4098 68.5565 39.2675 68.2172 40.1103H68.219Z" fill="white"/>
<path d="M50.9457 38.008C50.6972 36.4465 49.8869 35.2795 48.4388 34.5922C47.534 34.1588 46.5661 34.0439 45.576 34.1977C43.8127 34.4681 42.5667 35.411 41.9325 37.0948C41.6229 37.9136 41.5691 38.7712 41.7008 39.6381C41.8639 40.8051 42.3739 41.8017 43.3102 42.5427C44.1761 43.2373 45.1736 43.5244 46.3807 43.517C46.5661 43.5244 46.8442 43.493 47.1316 43.4559C48.9265 43.2003 50.3801 41.911 50.8363 40.1568C51.0217 39.4529 51.0606 38.7342 50.9438 38.008H50.9457ZM48.3943 40.1327C48.0068 41.0441 47.2726 41.4998 46.2898 41.5238C45.3702 41.5387 44.6804 41.1145 44.2632 40.2865C44.0389 39.8308 43.9684 39.3362 43.9851 38.8342C43.9777 38.4248 44.0241 38.0303 44.1631 37.645C44.4802 36.7336 45.2534 36.176 46.2361 36.1371C47.1798 36.0982 48.0625 36.6465 48.4092 37.5209C48.7411 38.3859 48.7578 39.2751 48.3943 40.1327Z" fill="white"/>
<path d="M19.9366 5.52067C18.9929 4.20733 17.6708 3.64976 16.2079 3.62012C15.7592 3.62753 15.4347 3.64419 15.1102 3.70532C13.6788 3.998 12.5645 4.7408 11.9229 6.06155C11.1887 7.5768 11.2109 9.12168 11.9377 10.6369C12.4013 11.5946 13.1596 12.2596 14.1498 12.6542C15.0694 13.0247 16.0225 13.1099 16.9959 12.9172C19.2228 12.4912 20.6542 10.8314 20.7543 8.56598C20.8081 7.46751 20.5837 6.43204 19.9348 5.52067H19.9366ZM18.2197 9.46996C17.8321 10.5369 16.8513 11.1167 15.6665 10.9852C14.7153 10.8778 13.9347 10.0498 13.7863 9.00687C13.7084 8.45856 13.7085 7.91024 13.8475 7.36934C14.1256 6.27273 15.0008 5.60033 16.13 5.62256C17.198 5.64479 18.0862 6.39499 18.3198 7.46196C18.381 7.74723 18.4051 8.02692 18.3884 8.31959C18.4125 8.71415 18.3495 9.09949 18.2178 9.47182L18.2197 9.46996Z" fill="white"/>
<path d="M21.9557 22.9161C21.7554 21.2545 20.9414 20.0097 19.4099 19.2835C18.505 18.8501 17.5372 18.7426 16.5471 18.8964C14.8913 19.152 13.6768 20.0171 13.0037 21.5694C12.594 22.5048 12.5328 23.4866 12.7108 24.4758C12.9963 26.0985 13.8789 27.2729 15.4327 27.899C16.1373 28.1843 16.8715 28.2472 17.6225 28.2083C18.6664 28.1472 19.6027 27.8064 20.3907 27.1339C21.4977 26.1837 21.9835 24.9629 21.9761 23.5255C21.9761 23.4255 21.9835 23.3328 21.9761 23.2402C21.9761 23.1328 21.9686 23.0235 21.9519 22.9161H21.9557ZM19.4025 24.7944C18.7683 26.3245 16.7492 26.7264 15.6274 25.552C15.3419 25.2501 15.1639 24.8944 15.0711 24.4924C14.9247 23.8737 14.9172 23.255 15.0637 22.6308C15.3029 21.549 16.154 20.8692 17.2442 20.8451C18.3122 20.8229 19.2486 21.5175 19.51 22.5771C19.6101 22.955 19.6343 23.3495 19.6176 23.7441C19.6102 24.1071 19.5397 24.4554 19.4006 24.7962L19.4025 24.7944Z" fill="white"/>
<path d="M32.2538 23.5664C32.2538 24.9798 32.2538 26.3932 32.2538 27.8065C32.2538 28.1066 32.2742 28.0788 31.9794 28.0788C31.3934 28.0788 30.8094 28.0788 30.2235 28.0788C29.9991 28.0788 29.9954 28.0751 29.9935 27.8565C29.9917 27.3786 29.9935 26.9007 29.9935 26.4228C29.9935 26.3598 29.9991 26.295 29.9935 26.232C29.9843 26.1561 30.0362 26.0356 29.9101 26.0282C29.7785 26.0208 29.823 26.1449 29.8118 26.219C29.6598 27.2582 28.907 28.0084 27.8575 28.1529C27.0844 28.2603 26.326 28.1918 25.6084 27.8732C24.5311 27.3971 23.9452 26.5265 23.6875 25.4077C23.5892 24.9816 23.5707 24.5445 23.5688 24.1092C23.5614 22.505 23.5652 20.9008 23.5652 19.2948C23.5652 19.2744 23.5652 19.2522 23.5652 19.2318C23.5689 19.0775 23.643 18.9972 23.7876 18.991C23.7988 18.991 23.808 18.991 23.8192 18.991C24.4255 18.991 25.0318 18.991 25.6381 18.991C25.8736 18.991 25.8773 18.9947 25.8773 19.2392C25.8773 20.8119 25.8773 22.3846 25.8773 23.9573C25.8773 24.2555 25.9051 24.55 25.9811 24.839C26.2036 25.6763 26.8822 26.2116 27.7481 26.2264C27.9502 26.2301 28.1523 26.2394 28.3526 26.2023C29.1777 26.0449 29.7265 25.4855 29.8767 24.6501C29.9231 24.3889 29.9416 24.124 29.9416 23.8572C29.9416 22.3587 29.9416 20.8601 29.9416 19.3615C29.9416 19.2874 29.9453 19.2133 29.9416 19.1392C29.9342 19.0318 29.9806 18.9873 30.09 18.9873C30.7593 18.9892 31.4305 18.991 32.0999 18.9873C32.2649 18.9873 32.2556 19.0855 32.2556 19.1948C32.2556 19.769 32.2556 20.3432 32.2556 20.9156C32.2556 21.7974 32.2556 22.6791 32.2556 23.5608L32.2538 23.5664Z" fill="white"/>
<path d="M59.8864 37.1039C59.8363 37.1428 59.7825 37.1409 59.7306 37.1409C59.1243 37.1409 58.518 37.1372 57.9117 37.1446C57.7763 37.1446 57.6966 37.1243 57.6669 36.9724C57.5612 36.4426 57.2052 36.1517 56.7028 36.0276C56.3152 35.9313 55.924 35.9406 55.5365 36.0462C55.4215 36.0777 55.3158 36.124 55.2194 36.1907C54.7614 36.4982 54.754 37.139 55.2101 37.4521C55.4401 37.6096 55.7052 37.6948 55.9667 37.7818C56.6101 37.9986 57.2812 38.1208 57.9228 38.3487C58.1935 38.445 58.4623 38.5413 58.7145 38.6803C60.4444 39.6342 60.2739 41.8034 59.0316 42.7444C58.5829 43.0852 58.0823 43.3057 57.5334 43.4131C56.4654 43.6206 55.4159 43.5743 54.4091 43.1278C53.5618 42.75 52.9147 42.1646 52.5846 41.2717C52.5809 41.2625 52.5754 41.2532 52.5717 41.2421C52.4011 40.7531 52.5723 40.5085 53.0853 40.5085C53.5748 40.5085 54.0643 40.5085 54.5538 40.5085C54.6539 40.5085 54.7355 40.5086 54.7688 40.6364C54.9505 41.3125 55.453 41.6015 56.0946 41.7052C56.4339 41.7608 56.7732 41.7237 57.1014 41.6145C57.2757 41.557 57.4314 41.4663 57.5594 41.3347C57.9154 40.968 57.8467 40.4252 57.4073 40.1659C57.1867 40.0362 56.9457 39.9491 56.7009 39.8787C56.039 39.6842 55.3733 39.5027 54.7132 39.3063C54.398 39.2119 54.0902 39.0933 53.8065 38.9211C52.5587 38.1672 52.2527 36.5833 53.1298 35.4145C53.5414 34.8662 54.1069 34.5327 54.7522 34.3456C55.7108 34.0659 56.686 34.0437 57.6465 34.3346C58.9426 34.7273 59.6935 35.6071 59.8864 36.9538C59.8938 37.0057 59.8864 37.0594 59.8864 37.1076V37.1039Z" fill="white"/>
<path d="M58.6776 21.1107C58.7073 21.2255 58.8037 21.1922 58.8649 21.2163C59.3322 21.3941 59.5658 21.722 59.5695 22.2425C59.5732 23.2205 59.5695 24.1968 59.5714 25.1748C59.5714 25.3026 59.5751 25.4304 59.5973 25.5545C59.6566 25.8731 59.8569 26.0491 60.1758 26.1084C60.504 26.1695 60.834 26.1362 61.1622 26.1418C61.6109 26.1473 61.6109 26.1418 61.6109 26.5993C61.6109 27.0142 61.6109 27.4273 61.6109 27.8422C61.6109 28.0738 61.6072 28.0831 61.394 28.0775C60.7561 28.0645 60.1183 28.1182 59.4842 28.0182C58.2772 27.8311 57.5466 27.0883 57.3927 25.8768C57.3612 25.6231 57.3445 25.3712 57.3445 25.1155C57.3482 23.8504 57.3445 22.587 57.3445 21.3219C57.3445 21.0514 57.3667 21.0606 57.0886 21.0606C56.8327 21.0606 56.5787 21.0569 56.3229 21.0606C56.219 21.0625 56.1689 21.0347 56.1689 20.918C56.1727 20.3234 56.1727 19.7288 56.1689 19.1323C56.1689 19.0193 56.2172 18.986 56.3229 18.9878C56.5787 18.9915 56.8327 18.9897 57.0886 18.9878C57.3408 18.986 57.3427 18.9841 57.3445 18.7211C57.3445 18.158 57.3445 17.5948 57.3445 17.0317C57.3445 16.7261 57.3167 16.7279 57.6301 16.7298C58.1937 16.7298 58.7574 16.7298 59.321 16.7298C59.5658 16.7298 59.5695 16.7335 59.5695 16.9706C59.5714 17.5652 59.5695 18.1598 59.5695 18.7563C59.5695 18.9823 59.5751 18.9878 59.7957 18.9897C60.3167 18.9934 60.8377 18.9897 61.3588 18.9897C61.6035 18.9897 61.6072 18.9952 61.6091 19.2324C61.6109 19.764 61.6109 20.2956 61.6091 20.8254C61.6091 21.0551 61.6054 21.0569 61.3569 21.0588C60.5596 21.0588 59.7623 21.0588 58.9632 21.0625C58.8686 21.0625 58.7555 21.0162 58.6758 21.1088L58.6776 21.1107Z" fill="white"/>
<path d="M24.6758 6.89875C24.6758 8.75855 24.6758 10.6184 24.6758 12.4782C24.6758 12.5523 24.6721 12.6263 24.6758 12.7004C24.6832 12.8208 24.6313 12.8708 24.5089 12.869C23.8599 12.8653 23.211 12.8634 22.562 12.869C22.4192 12.869 22.371 12.8116 22.3822 12.6782C22.3859 12.6263 22.3822 12.5726 22.3822 12.5189C22.3822 8.7456 22.3822 4.97412 22.3822 1.20081C22.3822 0.784026 22.3525 0.847021 22.74 0.845169C23.2925 0.843317 23.847 0.845169 24.3995 0.845169C24.6702 0.845169 24.6739 0.847025 24.6739 1.12674C24.6739 2.5716 24.6739 4.01644 24.6739 5.46315C24.6739 5.94107 24.6739 6.41898 24.6739 6.8969L24.6758 6.89875Z" fill="white"/>
<path d="M36.8003 28.0793C36.0623 28.0793 35.3614 28.0793 34.6624 28.0793C34.5586 28.0793 34.5011 28.0497 34.5085 27.9367C34.5122 27.8626 34.5085 27.7885 34.5085 27.7144C34.5085 23.9522 34.5085 20.1918 34.5085 16.4296C34.5085 16.0202 34.4714 16.074 34.8645 16.0721C35.4393 16.0703 36.0141 16.0777 36.5871 16.0684C36.7539 16.0666 36.8095 16.1147 36.8021 16.2815C36.791 16.589 36.7984 16.8983 36.7984 17.2058C36.7984 20.6901 36.7984 24.1763 36.7984 27.6607V28.0774L36.8003 28.0793Z" fill="white"/>
<path d="M26.6561 34.7755C26.9973 34.5717 27.3551 34.3995 27.7519 34.3068C28.221 34.1976 28.6939 34.1568 29.1741 34.1457C29.3391 34.142 29.3985 34.1883 29.3966 34.3587C29.3892 34.9533 29.3966 35.548 29.3929 36.1426C29.3929 36.363 29.3873 36.3667 29.163 36.3667C28.2174 36.3667 27.2699 36.3667 26.3242 36.3667H25.7476C25.7272 36.4871 25.7865 36.4853 25.8348 36.5019C26.3595 36.6742 26.6116 36.991 26.6135 37.5337C26.6191 39.4028 26.6172 41.2737 26.6135 43.1428C26.6135 43.3762 26.6079 43.3817 26.3929 43.3835C25.7662 43.3872 25.1376 43.3817 24.5109 43.3872C24.3644 43.3872 24.2865 43.3557 24.3069 43.1946C24.3143 43.1316 24.3069 43.0668 24.3069 43.0038C24.3069 40.2308 24.3069 37.4578 24.3069 34.6847C24.3069 34.631 24.3069 34.5792 24.3069 34.5255C24.3125 34.2902 24.3125 34.2883 24.5628 34.2865C25.1468 34.2846 25.7327 34.2865 26.3168 34.2865C26.6431 34.2865 26.6209 34.305 26.6154 34.5828C26.6154 34.6347 26.6209 34.6885 26.6264 34.7403C26.6264 34.7477 26.6376 34.7533 26.658 34.7755H26.6561Z" fill="white"/>
<path d="M52.3585 19.4799C53.115 18.9761 53.9605 18.8594 54.8301 18.8483C55.0934 18.8446 55.0971 18.8501 55.0971 19.1058C55.099 19.68 55.0971 20.2524 55.0971 20.8266C55.0971 21.0563 55.0934 21.06 54.8468 21.06C53.8048 21.06 52.7627 21.06 51.7207 21.06C51.6206 21.06 51.5168 21.0415 51.4241 21.0785C51.4203 21.2045 51.5056 21.1804 51.5575 21.1989C52.0619 21.3749 52.3048 21.688 52.3048 22.2196C52.3103 24.0998 52.3047 25.98 52.3103 27.8601C52.3103 28.0157 52.2807 28.0824 52.1027 28.0787C51.4648 28.0676 50.827 28.0694 50.1891 28.0787C50.0297 28.0806 49.9926 28.0231 49.9944 27.8749C50.0019 27.3118 49.9982 26.7487 49.9982 26.1856C49.9982 23.9016 49.9982 21.6176 49.9982 19.3336C49.9982 18.9816 49.937 18.9872 50.3356 18.9872C50.8993 18.9872 51.463 18.9872 52.0267 18.9872C52.3141 18.9872 52.3103 18.9612 52.3084 19.2595C52.3084 19.3188 52.2881 19.3855 52.3548 19.4762L52.3585 19.4799Z" fill="white"/>
<path d="M29.174 8.33289C29.174 9.71477 29.174 11.0967 29.174 12.4786C29.174 12.5526 29.1703 12.6267 29.174 12.7008C29.1832 12.8231 29.1313 12.8712 29.0071 12.8694C28.6882 12.8638 28.3693 12.8694 28.0503 12.8694C27.7203 12.8694 27.3902 12.8657 27.0602 12.8712C26.9248 12.8731 26.8618 12.8286 26.8766 12.6879C26.8822 12.6249 26.8766 12.56 26.8766 12.4971C26.8766 9.71292 26.8766 6.92696 26.8766 4.14282C26.8766 4.10022 26.8766 4.05758 26.8766 4.01497C26.8711 3.75749 26.8766 3.77234 27.1214 3.7742C27.7073 3.7742 28.2914 3.7742 28.8773 3.7742C29.1999 3.7742 29.1721 3.75008 29.1721 4.06128C29.1721 5.48577 29.1721 6.91026 29.1721 8.33475L29.174 8.33289Z" fill="white"/>
<path d="M27.9966 0.000633779C29.0312 -0.00121861 29.6894 0.873134 29.3761 1.78821C29.1795 2.3643 28.6159 2.71808 27.9484 2.68659C27.3087 2.65695 26.7988 2.24575 26.6597 1.64743C26.5225 1.06022 26.7747 0.480396 27.2994 0.18031C27.5256 0.0506428 27.7704 -0.00677576 27.9966 0.000633779Z" fill="white"/>
<path d="M64.1047 37.3284C64.1585 37.2673 64.1901 37.1969 64.229 37.1357C64.2365 37.2284 64.1901 37.2914 64.1047 37.3284Z" fill="white"/>
<path d="M64.2271 37.1354C64.2883 37.0817 64.3124 37.0039 64.3662 36.9502C64.3588 37.0354 64.3124 37.0965 64.2271 37.1354Z" fill="white"/>
<path d="M67.4293 41.0918C67.3681 41.1381 67.2901 41.1696 67.2363 41.2159C67.2605 41.1233 67.3291 41.0918 67.4293 41.0918Z" fill="white"/>
<path d="M64.3662 36.9502C64.3588 37.0354 64.3124 37.0965 64.2271 37.1354C64.2271 37.0354 64.266 36.965 64.3662 36.9502Z" fill="white"/>
<path d="M64.2272 37.1357C64.2347 37.2284 64.1883 37.2914 64.1029 37.3284C64.0955 37.2284 64.1345 37.1654 64.2272 37.1357Z" fill="white"/>
<path d="M67.4293 41.0918C67.3903 41.1696 67.3291 41.2233 67.2363 41.2159C67.2605 41.1233 67.3291 41.0918 67.4293 41.0918Z" fill="white"/>
</svg>
