<svg width="69" height="37" viewBox="0 0 69 37" fill="none" xmlns="http://www.w3.org/2000/svg">
<path fill-rule="evenodd" clip-rule="evenodd" d="M26.2049 0H47.7652C47.5038 1.32631 47.2368 2.6508 46.9661 3.97526C39.7793 3.99193 32.5925 3.99746 25.4058 3.9919C25.6709 2.66003 25.9361 1.33001 26.2049 0Z" fill="white"/>
<path fill-rule="evenodd" clip-rule="evenodd" d="M24.8905 6.16992H46.4507C46.193 7.49623 45.926 8.82253 45.6515 10.1451C38.4648 10.1618 31.2781 10.1674 24.0913 10.1618C24.3565 8.82996 24.6216 7.49993 24.8905 6.16992Z" fill="white"/>
<path fill-rule="evenodd" clip-rule="evenodd" d="M23.6073 12.5243C25.8045 12.5225 28.0036 12.5243 30.2008 12.5317C30.8423 12.5799 31.4301 12.7781 31.9659 13.13C32.6668 13.6728 32.9467 14.386 32.8058 15.2677C32.6464 16.2384 32.1494 16.9775 31.3151 17.4887C30.7922 17.7888 30.2359 18.0111 29.65 18.1537C30.2415 18.2463 30.7792 18.463 31.265 18.802C31.6433 19.1095 31.8676 19.506 31.9399 19.9913C32.0419 21.1138 31.7026 22.0789 30.9239 22.8847C30.1488 23.6516 29.2143 24.0758 28.1185 24.1573C27.7421 24.1999 27.3657 24.2277 26.9856 24.2407C25.0257 24.2481 23.0678 24.2518 21.1079 24.2481C21.9312 20.3377 22.7636 16.4291 23.6054 12.5225L23.6073 12.5243ZM26.3718 14.6212C27.0486 14.6194 27.7254 14.6212 28.4022 14.6286C29.1476 14.6731 29.4832 15.0639 29.409 15.8012C29.2162 16.7885 28.6135 17.2572 27.603 17.2072C27.0097 17.2201 26.4145 17.2183 25.8212 17.1997C26.0103 16.3421 26.1939 15.4826 26.37 14.6212H26.3718ZM25.3725 19.3114C26.0159 19.3077 26.6593 19.3114 27.3045 19.3189C28.5209 19.3985 28.9009 20.0061 28.4448 21.1398C28.1889 21.6381 27.781 21.9363 27.2211 22.0289C27.0838 22.0548 26.9448 22.0715 26.8058 22.0789C26.1346 22.0863 25.4633 22.0901 24.7921 22.0863C24.9886 21.1602 25.1833 20.2358 25.3743 19.3078L25.3725 19.3114Z" fill="white"/>
<path opacity="0.99" fill-rule="evenodd" clip-rule="evenodd" d="M0 21.74V21.075C0.033375 20.8601 0.0667573 20.6452 0.100132 20.4266H3.38015C3.1354 21.4621 3.54151 22.0364 4.59468 22.1475C5.09531 22.2012 5.58479 22.1475 6.05946 21.9808C6.64723 21.7233 6.96431 21.2713 7.00881 20.6249C6.99212 20.3211 6.84748 20.1025 6.57678 19.9673C6.46367 19.9135 6.34683 19.8691 6.22631 19.8339C5.22135 19.5709 4.21639 19.3041 3.21329 19.0355C1.36839 18.4539 0.784378 17.2535 1.45744 15.4345C1.72073 14.7954 2.12304 14.2601 2.66446 13.8303C3.47844 13.1987 4.39999 12.8078 5.42906 12.6578C6.29124 12.5336 7.1571 12.5077 8.0267 12.5837C8.55329 12.6263 9.06323 12.7374 9.55829 12.9171C10.7616 13.4043 11.2641 14.2953 11.0657 15.5864C11.0398 15.7642 11.0101 15.942 10.9749 16.118H7.67814C7.69483 16.0013 7.71338 15.8846 7.73563 15.7679C7.81721 15.1066 7.53165 14.7157 6.87898 14.5953C6.24857 14.4916 5.67748 14.6232 5.16388 14.9955C4.80417 15.2974 4.64655 15.6827 4.6892 16.1514C4.7337 16.3236 4.82455 16.4644 4.96361 16.5756C5.07486 16.6589 5.19723 16.7256 5.33073 16.7756C6.21146 17.022 7.0941 17.2609 7.97854 17.4906C8.52552 17.6333 9.04653 17.8389 9.54344 18.1056C10.1627 18.5132 10.4742 19.0892 10.4761 19.8357C10.3982 21.4344 9.66585 22.6199 8.27893 23.396C7.21835 23.9369 6.09287 24.2185 4.89879 24.2444C4.08666 24.2852 3.28195 24.2296 2.48466 24.0777C1.87464 23.9647 1.32392 23.7202 0.836277 23.346C0.348631 22.92 0.0723162 22.3846 0.00371196 21.7419L0 21.74Z" fill="white"/>
<path fill-rule="evenodd" clip-rule="evenodd" d="M13.3018 12.5575H22.2259C22.0739 13.3059 21.9182 14.0543 21.7605 14.8026H16.0997C15.9236 15.6121 15.7512 16.4197 15.5843 17.2311H20.8947C20.7352 17.9794 20.5757 18.7278 20.4126 19.4762C18.6363 19.4706 16.86 19.4762 15.0855 19.4929C14.9094 20.3172 14.7314 21.1396 14.5534 21.9621C16.4854 21.9658 18.4156 21.9732 20.3477 21.9862C20.1808 22.7345 20.0139 23.4829 19.8489 24.2313C16.8303 24.2535 13.8117 24.2535 10.7913 24.2313C11.6331 20.3394 12.4711 16.4475 13.3055 12.5557L13.3018 12.5575Z" fill="white"/>
<path fill-rule="evenodd" clip-rule="evenodd" d="M34.8455 12.5574C37.0371 12.5556 39.2307 12.5574 41.4223 12.5648C42.0156 12.5482 42.5867 12.6482 43.1374 12.8649C43.829 13.2132 44.2035 13.7744 44.2609 14.5524C44.3036 16.6438 43.3023 17.9053 41.2553 18.3369C41.0736 18.3758 40.8901 18.4091 40.7065 18.4369C40.6824 18.4424 40.6657 18.4573 40.6564 18.4776C41.0236 18.4943 41.3833 18.548 41.7393 18.6351C42.3679 18.8 42.7091 19.2075 42.7628 19.8577C42.7795 20.0244 42.7888 20.1893 42.7869 20.356C42.7498 21.1655 42.7072 21.9749 42.6627 22.7844C42.646 23.2568 42.6516 23.7273 42.6794 24.1978C45.0731 20.3412 47.4613 16.4826 49.8476 12.6204C51.1956 12.6037 52.5454 12.5982 53.8934 12.6037C54.6091 16.4863 55.3303 20.3671 56.0572 24.246C54.8149 24.2515 53.5708 24.246 52.3285 24.2293C52.2191 23.4587 52.1134 22.6881 52.0114 21.9175C50.4298 21.912 48.8482 21.9175 47.2666 21.9342C46.8309 22.7011 46.3989 23.468 45.9687 24.2386C43.677 24.246 41.3852 24.2497 39.0934 24.246C39.0897 23.9403 39.099 23.6366 39.1175 23.3309C39.1954 22.4436 39.2714 21.5563 39.3419 20.669C39.3511 20.4375 39.2992 20.2207 39.1842 20.0207C39.0767 19.891 38.9396 19.804 38.7764 19.7632C38.6336 19.7299 38.489 19.7076 38.3443 19.6965C38.0607 19.6928 37.7788 19.691 37.4951 19.6891C37.2059 19.6891 36.9203 19.7002 36.6385 19.7225C36.3103 21.2303 35.9858 22.7381 35.665 24.246C34.5544 24.2515 33.4456 24.246 32.335 24.2293C33.1786 20.3374 34.0167 16.4456 34.8492 12.5537L34.8455 12.5574ZM37.7102 14.721C38.3481 14.7155 38.9877 14.7229 39.6255 14.7451C39.8647 14.7581 40.0983 14.8007 40.3245 14.8785C40.7084 15.0415 40.9012 15.3323 40.9068 15.7509C40.827 16.9365 40.1948 17.5366 39.0082 17.5552C38.3759 17.5626 37.7436 17.5663 37.1094 17.5626C37.3097 16.6141 37.5099 15.6658 37.7083 14.7192L37.7102 14.721ZM51.1956 14.9026H51.2457C51.3996 16.5216 51.5534 18.1405 51.711 19.7595C50.6449 19.7632 49.5806 19.7595 48.5145 19.7521C49.4193 18.1424 50.313 16.5253 51.1956 14.9044V14.9026Z" fill="white"/>
<path fill-rule="evenodd" clip-rule="evenodd" d="M68.1944 12.5576V12.641C68.035 13.3579 67.8792 14.0803 67.7291 14.8027H62.0682C61.8958 15.6122 61.7234 16.4217 61.5528 17.2312H66.8632C66.7111 17.9758 66.5498 18.7187 66.3811 19.4596C64.6048 19.4763 62.8285 19.4819 61.054 19.4763C60.8779 20.308 60.7054 21.1379 60.5385 21.9715H66.3162C66.1548 22.7291 65.988 23.4867 65.8174 24.2425C62.7988 24.2536 59.7784 24.2536 56.7598 24.2425C57.6053 20.3488 58.4434 16.455 59.274 12.5576H68.1981H68.1944Z" fill="white"/>
<path fill-rule="evenodd" clip-rule="evenodd" d="M20.5776 26.6631H42.138C41.8765 27.9894 41.6095 29.3138 41.3388 30.6383C34.152 30.655 26.9653 30.6605 19.7786 30.655C20.0437 29.3231 20.3088 27.9931 20.5776 26.6631Z" fill="white"/>
<path fill-rule="evenodd" clip-rule="evenodd" d="M40.0242 36.8259H18.4639C18.729 35.494 18.9942 34.164 19.263 32.834H40.8233C40.5638 34.1658 40.2968 35.4959 40.0242 36.8259Z" fill="white"/>
</svg>
