<svg width="228" height="47" viewBox="0 0 228 47" fill="none" xmlns="http://www.w3.org/2000/svg">
<path d="M87.2796 11.2666H75.5427V35.983H82.0787V26.9118H87.2796C97.9985 26.9118 98.5622 20.9212 98.5622 18.8058C98.5622 16.5274 97.2587 11.2685 87.2796 11.2685V11.2666ZM86.0651 24.0221H82.0805V14.4008H86.0651C91.3069 14.4008 92.3656 17.2406 92.3656 19.0077C92.3656 20.7749 91.5442 24.0221 86.0651 24.0221Z" fill="white"/>
<path d="M138.729 15.0418C139.667 15.1344 140.325 15.1567 140.767 14.4398C140.982 14.0749 141.818 12.3873 141.818 12.3873C140.757 11.9076 139.567 11.55 138.219 11.3426C136.89 11.111 135.304 10.998 133.459 10.998C128.54 10.998 124.706 12.215 121.964 14.6417C119.214 17.0942 117.84 20.0784 117.84 23.6146C117.84 27.1508 119.192 30.2351 121.912 32.6284C124.613 35.042 128.448 36.2294 133.396 36.2294C137.043 36.2294 139.853 35.77 141.818 34.8382C141.818 34.8382 140.806 32.8562 140.498 32.3912C140.045 31.6818 139.146 31.9596 138.393 32.0893C136.294 32.4857 130.882 33.6027 127.448 30.1554C125.809 28.4975 124.939 26.2191 124.939 23.5739C124.939 20.9287 125.746 18.5484 127.391 16.909C131.192 13.1338 137.826 14.9473 138.727 15.0381H138.725L138.729 15.0418Z" fill="white"/>
<path d="M108.204 11.2422H104.722V35.9919H111.688V13.6947C111.688 12.2036 110.711 11.2422 108.204 11.2422Z" fill="white"/>
<path d="M61.5548 21.8398C58.7272 21.0488 56.797 20.3431 55.7569 19.7077C54.7204 19.0797 54.2142 18.2906 54.2475 17.3348C54.2828 16.2585 54.8298 15.4305 55.8829 14.8304C56.9417 14.2357 58.4101 13.9671 60.2829 14.0301C61.5177 14.0727 62.6711 14.2172 63.7428 14.4691C64.1933 14.5673 64.6216 14.6822 65.0295 14.8081C65.9752 15.0897 67.0005 14.7174 67.5327 13.9097L68.3522 12.6686C67.3324 12.2167 66.0753 11.8517 64.5901 11.5591C63.0956 11.2682 61.3546 11.0996 59.3632 11.0311C55.6604 10.9107 52.6548 11.4923 50.3612 12.7779C48.062 14.0709 46.8791 15.701 46.8198 17.6812C46.7679 19.0297 47.3704 20.2893 48.609 21.46C49.8495 22.6289 51.8093 23.5866 54.5034 24.3405C57.1957 25.0963 59.0202 25.7891 59.9732 26.4411C60.9337 27.0894 61.3954 27.8656 61.3676 28.7714C61.3323 29.8902 60.7093 30.5682 59.4893 31.2018C58.2711 31.839 56.6617 32.1242 54.6703 32.0594C53.2352 32.0112 51.9428 31.8649 50.7932 31.6167C50.3074 31.5111 49.8494 31.4037 49.4267 31.2814C48.4495 31.0035 47.4001 31.587 46.855 32.4262L45.8667 33.9692C47.0923 34.4712 48.4867 34.8584 50.0534 35.1325C51.6221 35.4067 53.6023 35.5826 55.9942 35.6586C59.8249 35.779 62.9937 35.1955 65.5079 33.8933C68.0296 32.6003 69.3257 30.885 69.3868 28.7381C69.4388 27.3191 68.851 26.0113 67.6347 24.8184C66.4128 23.6236 64.3936 22.6271 61.5623 21.8379H61.5604L61.5548 21.8398Z" fill="white"/>
<path d="M154.289 17.6865H158.22C160.92 17.6865 163.452 18.585 163.452 21.7525C163.452 23.855 162.483 25.1072 160.445 25.5092V25.5574C162.527 25.9352 163.947 27.306 163.947 29.4807C163.947 33.0725 161.01 34.1839 157.577 34.1839H154.285V17.6865H154.287H154.289ZM155.921 32.7668H157.625C159.829 32.7668 162.314 32.1759 162.314 29.5529C162.314 26.6224 159.779 26.3149 157.363 26.3149H155.919V32.7668H155.921ZM155.969 24.8979H157.793C159.523 24.8979 161.819 24.4477 161.819 21.8248C161.819 19.437 159.616 19.1073 158.22 19.1073H155.969V24.8979Z" fill="white"/>
<path d="M168.713 17.6865H172.976C175.911 17.6865 177.83 18.9388 177.83 21.9637C177.83 24.0902 176.196 25.5073 174.159 25.7685V25.8167C175.486 25.9815 175.768 26.691 176.291 27.8024L179.111 34.1839H177.311L174.919 28.6064C173.973 26.4798 173.261 26.4076 171.698 26.4076H170.348V34.1839H168.715V17.6865H168.717H168.713ZM170.346 24.9905H172.076C173.994 24.9905 176.198 24.257 176.198 21.9656C176.198 19.2703 174.281 19.1055 172.03 19.1055H170.348V24.9924L170.346 24.9905Z" fill="white"/>
<path d="M187.942 17.6865H189.789L196.351 34.1839H194.645L192.869 29.7641H184.533L182.756 34.1839H181.169L187.944 17.6865H187.942ZM188.747 19.2481L185.148 28.3489H192.326L188.749 19.2481H188.747Z" fill="white"/>
<path d="M199.31 32.0818C200.28 32.6968 201.418 33.0525 202.957 33.0525C204.993 33.0525 206.677 32.0133 206.677 29.6737C206.677 26.4357 199.099 26.0338 199.099 21.7085C199.099 19.0614 201.418 17.4072 204.331 17.4072C205.136 17.4072 206.44 17.5239 207.576 17.95L207.315 19.4393C206.58 19.0373 205.42 18.8243 204.307 18.8243C202.601 18.8243 200.731 19.5338 200.731 21.6603C200.731 24.9705 208.31 24.9909 208.31 29.8145C208.31 33.1451 205.444 34.4695 202.885 34.4695C201.274 34.4695 200.019 34.1398 199.142 33.76L199.307 32.0818H199.308H199.31Z" fill="white"/>
<path d="M212.453 17.6865H214.086V34.1839H212.453V17.6865Z" fill="white"/>
<path d="M218.848 17.6865H220.481V32.7668H227.114V34.1839H218.848V17.6865Z" fill="white"/>
<path d="M25.8603 36.7639C25.1613 36.7639 24.4382 36.788 23.7391 36.8102C23.4592 36.8195 23.181 36.8269 22.9066 36.8343C19.38 38.1328 15.6364 39.0238 12.1728 39.3202L11.7612 39.3554V35.495C8.34211 34.4151 5.37174 32.6627 2.64241 30.1602C1.7283 30.7881 0.586114 31.8736 0.0725098 33.5722V33.826C0.0836348 40.1167 11.0362 46.6242 29.3387 46.6242C30.1916 46.6242 31.065 46.6094 31.9401 46.5816C31.9475 45.5202 31.9642 42.4026 31.9642 40.6521C31.9642 37.4252 29.5241 36.7639 25.8622 36.7639" fill="white"/>
<path d="M11.1937 9.8621C11.8908 9.8621 12.614 9.83802 13.313 9.81579C13.593 9.80653 13.8711 9.79914 14.1455 9.79173C17.6722 8.49321 21.4157 7.60037 24.8793 7.30584L25.2909 7.27061V11.1273C28.7137 12.2091 31.6822 13.9615 34.4153 16.4659C35.3294 15.8453 36.4678 14.7672 36.9777 13.0742V12.7944C36.9666 6.50744 26.0159 0 7.71523 0C6.86046 0 5.98529 0.0148155 5.11197 0.0426012C5.10456 1.10217 5.08789 4.21973 5.08789 5.97023C5.08789 9.19709 7.52796 9.85843 11.1918 9.85843" fill="white"/>
<path d="M37.0371 23.7064V23.4952C37.0371 23.1303 37.0315 22.432 37.0297 21.5669C37.0186 19.5849 37.0019 16.7248 36.9889 14.8965C36.987 14.902 36.9815 14.9076 36.9796 14.9131C36.3826 15.8745 35.6242 16.5599 34.9512 17.0304C34.8418 17.1064 34.7361 17.1768 34.6322 17.2416C34.5173 17.3138 34.4079 17.3805 34.3022 17.4398C33.7701 17.7417 33.3825 17.8788 33.3362 17.8936C31.0463 18.642 27.9127 19.1125 25.4356 19.4422L25.2891 19.4607V19.7627C25.2891 26.0256 18.577 27.0278 12.5176 27.8261V38.5255C15.0726 38.2717 17.8057 37.6771 20.4831 36.8343C20.8595 36.7176 21.2322 36.5935 21.6067 36.4656C21.9701 36.3415 22.3317 36.2119 22.6914 36.0803C30.1767 33.3055 36.7182 28.7023 37.039 24.301C37.0464 24.1881 37.0445 24.0676 37.039 23.9417C37.039 23.862 37.0334 23.7842 37.0334 23.7046" fill="white"/>
<path d="M2.10635 29.6012C2.21389 29.5253 2.31957 29.4549 2.42155 29.3919C2.5365 29.3178 2.64591 29.253 2.75159 29.1937C3.28003 28.8918 3.66573 28.751 3.71209 28.7343C6.01311 27.9841 9.14292 27.5136 11.6145 27.1857L11.7573 27.1672L12.0781 27.1265C12.0966 27.1246 12.117 27.1209 12.1356 27.1172C12.2616 27.1005 12.3896 27.0839 12.5157 27.0672C18.4972 26.2762 24.527 25.3482 24.527 19.7688V8.10059C21.9719 8.35436 19.2389 8.949 16.5614 9.79184C16.185 9.91224 15.8124 10.0326 15.4378 10.1623C15.0744 10.2864 14.7128 10.4161 14.3531 10.5495C6.86415 13.3188 0.326374 17.9238 0.00374827 22.3251C-0.00366841 22.4381 0.0018941 22.5585 0.00374827 22.6808C0.00374827 22.7604 0.00931621 22.8382 0.00931621 22.9179V23.129C0.00931621 23.4939 0.0148425 24.1923 0.0185508 25.0573C0.0296758 27.0431 0.0463579 29.9162 0.0593371 31.7519C0.0648996 31.7463 0.0667647 31.7426 0.070473 31.7352C0.669369 30.7682 1.43143 30.0773 2.10635 29.6012Z" fill="white"/>
</svg>
