<svg width="964" height="237" viewBox="0 0 964 237" fill="none" xmlns="http://www.w3.org/2000/svg">
<path d="M482.507 107.575C485.721 107.575 488.701 108.426 491.385 109.906C490.957 73.1155 488.991 36.186 481.991 0C474.959 36.3687 473.006 73.4873 472.59 110.467C475.564 108.64 479.092 107.581 482.501 107.581L482.507 107.575Z" fill="#F7A81A"/>
<path d="M482.507 144.959C478.985 144.959 475.734 143.932 472.854 142.174C473.547 168.625 475.431 195.063 479.344 221.244C480.113 226.158 480.926 231.079 481.991 235.994C483.049 231.079 483.868 226.158 484.637 221.244C488.525 195.265 490.409 169.047 491.114 142.798C488.443 144.171 485.431 144.953 482.507 144.953V144.959Z" fill="#F7A81A"/>
<path d="M585.244 121.299C556.096 116.938 526.639 115.098 497.189 114.613C499.822 117.871 501.02 122.13 501.202 126.264C501.297 128.746 500.799 131.065 499.715 133.226C528.328 132.684 556.927 130.825 585.25 126.585C590.165 125.816 595.086 125.003 600 123.939C595.086 122.88 590.165 122.061 585.25 121.292L585.244 121.299Z" fill="#F7A81A"/>
<path d="M463.819 126.271C463.724 123.7 464.26 121.299 465.432 119.069C465.961 117.437 466.761 115.962 467.826 114.646C433.052 115.219 398.195 117.342 364 123.952C397.326 130.391 431.287 132.572 465.186 133.208C464.361 130.99 463.926 128.608 463.825 126.271H463.819Z" fill="#F7A81A"/>
<path d="M470.063 110.265C472.332 107.997 475.047 106.491 477.99 105.64C451.671 79.9265 424.168 55.2081 393.634 34.5664C414.376 65.2517 439.246 92.8811 465.098 119.32C465.911 115.923 467.656 112.678 470.063 110.265Z" fill="#F7A81A"/>
<path d="M496.502 136.697C494.013 139.186 490.988 140.761 487.706 141.555C506.898 159.771 526.922 177.13 548.207 192.876C552.227 195.806 556.278 198.711 560.506 201.433C557.778 197.205 554.879 193.153 551.949 189.133C536.33 168.019 519.122 148.14 501.063 129.086C500.144 131.947 498.568 134.631 496.502 136.691V136.697Z" fill="#F7A81A"/>
<path d="M552.416 47.3261C528.718 64.8552 506.589 84.3816 485.425 104.866C489.589 105.307 493.446 107.474 496.502 110.266C498.322 111.954 499.614 113.945 500.37 116.245C520.218 95.6287 539.127 74.086 556.158 51.0689C559.088 47.0489 561.993 42.9974 564.715 38.7695C560.487 41.4978 556.436 44.3962 552.416 47.3261Z" fill="#F7A81A"/>
<path d="M470.063 136.697C468.173 134.946 466.856 132.866 466.106 130.466C465.331 128.935 464.852 127.328 464.67 125.646C440.487 150.641 417.337 176.79 397.836 205.642C425.957 186.632 451.507 164.157 475.929 140.642C473.774 139.659 471.79 138.279 470.063 136.697Z" fill="#F7A81A"/>
<path d="M477.454 109.837C479.961 108.721 482.589 108.35 485.197 108.57C472.054 79.9831 457.656 51.8244 439.598 25.9971C446.768 56.8462 458.167 86.5234 470.718 115.545C472.407 113.082 474.795 111.028 477.454 109.837Z" fill="#F7A81A"/>
<path d="M490.472 139.036C487.718 140.264 484.826 140.592 481.965 140.226C491.719 160.648 502.393 180.634 514.566 199.726C516.879 203.298 519.229 206.852 521.768 210.324C520.886 206.115 519.808 201.988 518.7 197.88C512.688 176.236 505.033 155.103 496.445 134.36C494.832 136.364 492.752 138.021 490.472 139.036Z" fill="#F7A81A"/>
<path d="M562.472 84.7838C538.188 91.5258 514.541 100.347 491.373 110.221C494.567 111.846 496.981 114.757 498.562 117.92C499.501 119.823 499.917 121.814 499.822 123.875C521.976 113.491 543.67 102.08 564.312 88.9109C567.884 86.5985 571.438 84.2482 574.91 81.709C570.701 82.5911 566.574 83.6686 562.466 84.7775L562.472 84.7838Z" fill="#F7A81A"/>
<path d="M469.364 130.945C468.393 128.967 467.977 126.906 468.116 124.758C467.965 123.302 468.078 121.872 468.444 120.467C441.482 133.024 415 146.817 390.596 163.886C418.868 157.314 446.151 147.189 472.848 135.885C471.43 134.442 470.265 132.735 469.37 130.939L469.364 130.945Z" fill="#F7A81A"/>
<path d="M472.52 114.556C473.503 111.992 475.098 109.874 477.101 108.179C447.594 97.2601 417.501 87.5315 386.469 82.0371C413.355 98.7786 442.396 111.702 471.796 123.352C471.248 120.416 471.481 117.272 472.52 114.55V114.556Z" fill="#F7A81A"/>
<path d="M502.367 125.999C501.29 128.815 499.475 131.09 497.194 132.854C518.529 140.396 540.21 146.981 562.32 151.87C566.479 152.759 570.656 153.616 574.909 154.271C571.312 151.921 567.632 149.759 563.94 147.642C544.388 136.591 524.03 127.057 503.287 118.463C503.565 121.021 503.268 123.661 502.374 125.992L502.367 125.999Z" fill="#F7A81A"/>
<path d="M514.919 36.7277C502.519 58.6673 492.028 81.6215 482.633 104.991C486.042 103.883 489.81 104.235 493.162 105.351C495.172 106.037 496.873 107.14 498.266 108.671C506.589 85.6603 513.861 62.2525 519.147 38.347C520.035 34.1884 520.892 30.0109 521.548 25.7578C519.197 29.3556 517.036 33.0353 514.919 36.7277Z" fill="#F7A81A"/>
<path d="M481.72 135.205C479.634 134.493 477.882 133.333 476.465 131.714C475.324 130.794 474.392 129.698 473.661 128.45C463.479 156.395 454.5 184.875 449.314 214.199C464.657 189.563 476.792 163.111 487.674 136.238C485.651 136.219 483.616 135.835 481.72 135.205Z" fill="#F7A81A"/>
<path d="M428.849 87.6452C439.952 74.1865 446.139 56.752 446.013 39.3048C449.523 38.0572 453.026 36.816 456.535 35.5684C457.525 35.2155 458.564 34.8627 459.598 35.0391C462.187 35.4865 463.051 38.7251 463.277 41.3463C463.958 49.361 463.813 57.4514 462.843 65.4409C462.194 70.7966 463.233 74.7284 463.158 80.1283C463.095 84.5074 462.925 89.0944 460.719 92.875" fill="#FFEEC1"/>
<path d="M442.655 68.156C443.524 67.4125 444.564 66.7131 445.71 66.7698C446.958 66.8328 447.973 67.7843 448.804 68.7168C450.865 71.0229 452.604 73.6189 453.958 76.3976C454.425 77.3427 454.84 78.3257 455.042 79.359C455.597 82.2448 454.381 85.3385 455.351 88.1109C453.303 85.6725 451.01 83.0828 447.884 82.4905C446.366 82.2007 444.797 82.4275 443.297 82.7741C441.382 83.2214 439.51 83.8704 437.734 84.7148C434.035 86.4664 429.87 89.7618 425.554 89.1443C428.32 85.8552 431.464 82.9631 433.947 79.4157C436.669 75.5281 439 71.2687 442.661 68.1497L442.655 68.156Z" fill="black"/>
<path d="M466.699 100.719C459.824 98.7912 455.508 91.9106 453.36 85.0993C451.394 78.8551 450.701 72.0313 452.585 65.7556C454.469 59.4799 459.226 53.8721 465.514 52.0386C466.585 51.7298 465.779 51.9882 466.314 51.0115C466.85 50.0349 466.957 48.8881 467.051 47.7792C467.398 43.7151 467.745 39.6573 468.091 35.5933C468.16 34.7804 468.28 33.8731 468.91 33.3564C469.358 32.991 469.969 32.9091 470.548 32.8461C472.59 32.6129 474.631 32.3798 476.667 32.1467C476.893 32.1215 477.145 32.1026 477.328 32.2412C477.486 32.3609 477.549 32.5688 477.593 32.7642C478.664 36.9353 479.729 41.1002 480.8 45.2714C483.875 44.9123 487.391 45.0383 490.484 45.1328C492.847 40.886 494.675 36.3368 495.897 31.63C495.998 31.2393 496.13 30.8046 496.483 30.6093C496.741 30.4643 497.056 30.4895 497.352 30.5273C500.566 30.8865 503.735 31.6867 506.734 32.8965C507.213 38.101 507.276 43.3433 506.923 48.5605C508.77 48.8377 510.042 48.655 511.889 48.9322C514.359 44.9312 516.627 40.8041 518.675 36.5699C522.09 38.6681 525.618 40.571 529.248 42.2722C527.307 47.9997 524.761 53.5319 521.674 58.7301C524.566 61.1938 525.606 65.3271 525.19 69.1014C524.774 72.8819 523.104 76.3978 521.346 79.7625C519.513 83.2658 517.515 86.7691 514.629 89.4784" fill="#EA5B86"/>
<path d="M474.6 96.883C468.236 91.1618 465.23 81.9751 466.906 73.5823C468.582 65.1895 474.852 57.8868 482.86 54.8812C490.869 51.8757 500.358 53.2304 507.251 58.2963C509.683 60.0858 511.832 62.3352 513.18 65.0383C515.682 70.0286 515.247 75.9262 514.755 81.4899" fill="#FFEEC1"/>
<path d="M478.053 90.1405C472.905 85.2447 471.727 76.9275 474.644 70.4502C477.561 63.9729 484.083 59.4678 491.083 58.2391C492.91 57.9177 494.788 57.798 496.622 58.0816C501.076 58.781 504.995 61.9755 506.816 66.1026C508.637 70.2297 508.411 75.1444 506.464 79.2084" fill="black"/>
<path d="M472.59 103.146C465.615 100.935 459.566 95.9505 456.056 89.5362C454.538 86.7512 453.467 83.7079 451.583 81.156C449.699 78.6105 446.674 76.5564 443.536 76.9974C440.531 77.4133 438.326 79.8895 435.956 81.7861C431.376 85.4469 425.573 87.2049 420.633 90.3616C411.786 96.0135 406.153 106.366 406.204 116.863C406.254 127.36 411.988 137.656 420.885 143.226C423.405 144.808 426.329 146.049 429.284 145.69C432.775 145.261 435.578 142.722 438.13 140.309C443.946 134.808 449.762 129.307 455.577 123.807" fill="#B1CF6F"/>
<path d="M428.673 139.357C422.989 134.304 419.114 126.869 419.581 119.276C420.047 111.684 425.472 104.305 432.913 102.749C435.598 102.188 438.452 102.346 440.991 101.312C444.173 100.021 446.473 96.8008 446.668 93.3731C446.7 92.7809 446.693 92.1382 447.065 91.6782C447.916 90.6259 449.586 91.5333 450.556 92.4784C452.396 94.2679 454.166 96.1266 455.874 98.0484C458.035 100.481 460.171 103.221 460.499 106.454C460.927 110.663 458.224 114.475 455.653 117.839" fill="#EA5986"/>
<path d="M534.477 98.3379C541.887 98.3379 549.297 99.1192 556.543 100.657C556.89 100.732 557.261 100.82 557.476 101.098C557.665 101.331 557.696 101.652 557.715 101.948C557.872 104.154 557.759 106.378 557.375 108.552C551.351 108.659 545.321 108.211 539.379 107.222" fill="#DE212B"/>
<path d="M534.477 112.874C541.887 112.874 549.297 113.655 556.543 115.193C556.89 115.268 557.261 115.357 557.476 115.634C557.665 115.867 557.696 116.188 557.715 116.484C557.872 118.69 557.759 120.914 557.375 123.088C551.351 123.195 545.321 122.748 539.379 121.758" fill="#DE212B"/>
<path d="M464.033 95.3319L464.424 95.2059C464.739 95.1051 465.06 94.998 465.331 94.8027L465.501 94.6829C465.854 94.4939 466.144 94.2293 466.358 93.8953C466.629 93.5992 466.812 93.2526 466.906 92.8557C466.944 92.5847 466.982 92.3138 467.013 92.0429C467.032 91.6207 466.944 91.2301 466.749 90.8646C466.673 90.6063 466.547 90.3794 466.358 90.1904C466.144 89.8565 465.86 89.5981 465.501 89.4028C465.256 89.302 465.016 89.1949 464.77 89.094C464.229 88.9491 463.687 88.9491 463.151 89.094C462.773 89.2201 462.37 89.3272 462.042 89.554L461.702 89.7997C461.349 89.9888 461.065 90.2471 460.858 90.5748C460.593 90.8646 460.41 91.2111 460.316 91.6018C460.278 91.8664 460.246 92.1374 460.209 92.402C460.196 92.8179 460.278 93.2085 460.467 93.5677C460.536 93.826 460.668 94.0465 460.858 94.2356C461.072 94.5632 461.355 94.8215 461.702 95.0106C461.941 95.1114 462.181 95.2122 462.42 95.313C462.956 95.4579 463.491 95.4579 464.027 95.313L464.033 95.3319Z" fill="black"/>
<path d="M459.478 84.4263C460.309 84.4263 461.185 84.0609 461.778 83.4749C462.37 82.8889 462.767 81.9879 462.729 81.1751C462.647 79.4108 461.299 77.9238 459.478 77.9238C458.646 77.9238 457.77 78.2893 457.178 78.8753C456.611 79.4423 456.189 80.3623 456.226 81.1751C456.308 82.9393 457.657 84.4263 459.478 84.4263Z" fill="black"/>
<path d="M460.977 70.381C461.765 70.381 462.597 70.0345 463.157 69.48C463.693 68.9444 464.096 68.0686 464.059 67.2999C464.021 66.506 463.762 65.6743 463.157 65.1198C462.553 64.5653 461.815 64.2188 460.977 64.2188C460.19 64.2188 459.358 64.5653 458.797 65.1198C458.262 65.6554 457.858 66.5312 457.896 67.2999C457.934 68.0938 458.192 68.9255 458.797 69.48C459.402 70.0345 460.139 70.381 460.977 70.381Z" fill="black"/>
<path d="M468.854 60.4889C469.704 60.4889 470.599 60.1171 471.198 59.5185C471.796 58.92 472.206 58 472.168 57.1746C472.13 56.3177 471.847 55.4293 471.198 54.8307C470.549 54.2321 469.755 53.8604 468.854 53.8604C468.003 53.8604 467.108 54.2321 466.51 54.8307C465.936 55.4041 465.502 56.3492 465.539 57.1746C465.577 58.0315 465.861 58.92 466.51 59.5185C467.159 60.1108 467.953 60.4889 468.854 60.4889Z" fill="black"/>
<path d="M479.988 53.5074C480.328 53.5704 480.725 53.6775 481.046 53.6586C481.141 53.6523 481.241 53.646 481.336 53.6397C481.909 53.6397 482.445 53.4948 482.943 53.205C483.422 52.9214 483.8 52.5434 484.083 52.0645C484.19 51.8125 484.297 51.5541 484.404 51.3021C484.556 50.735 484.556 50.1742 484.404 49.6072C484.304 49.1913 484.115 48.8322 483.831 48.5234C483.604 48.1769 483.308 47.9059 482.936 47.7043C482.439 47.4145 481.903 47.2695 481.33 47.2695C480.756 47.2695 480.221 47.4145 479.723 47.7043C479.641 47.761 479.559 47.824 479.477 47.8807C479.219 48.0634 478.967 48.2147 478.771 48.4541L478.683 48.5612C478.318 48.933 478.059 49.3677 477.921 49.8655C477.782 50.3885 477.782 50.9177 477.921 51.4407C478.059 51.9448 478.318 52.3796 478.683 52.745C479.055 53.1105 479.49 53.3688 479.988 53.5074Z" fill="black"/>
<path d="M495.104 51.5223C495.866 51.5223 496.666 51.1883 497.208 50.6527C497.725 50.1361 498.109 49.2917 498.078 48.5482C498.008 46.9352 496.773 45.5742 495.104 45.5742C494.341 45.5742 493.541 45.9082 492.999 46.4437C492.482 46.9604 492.098 47.8047 492.129 48.5482C492.199 50.1613 493.434 51.5223 495.104 51.5223Z" fill="black"/>
<path d="M505.204 51.9255C505.216 52.0137 505.223 52.1082 505.235 52.1964C505.223 52.606 505.305 52.9903 505.494 53.3495C505.613 53.7212 505.821 54.0426 506.111 54.3135C506.382 54.6033 506.703 54.8113 507.075 54.931C507.434 55.12 507.812 55.2019 508.228 55.1893C508.493 55.1515 508.758 55.12 509.022 55.0822C509.526 54.9373 509.967 54.6853 510.339 54.3135C510.497 54.1119 510.648 53.9102 510.805 53.7086C511.076 53.2423 511.209 52.7383 511.215 52.2027C511.228 52.1145 511.234 52.02 511.246 51.9318C511.259 51.5159 511.177 51.1253 510.988 50.7661C510.868 50.3943 510.66 50.0667 510.364 49.7958C510.093 49.4996 509.766 49.2917 509.394 49.172C509.035 48.983 508.644 48.8947 508.228 48.9136C507.964 48.9514 507.693 48.983 507.428 49.0208C506.918 49.1657 506.47 49.424 506.099 49.7958C505.941 49.9974 505.784 50.2053 505.626 50.407C505.355 50.8795 505.216 51.3836 505.216 51.9318L505.204 51.9255Z" fill="black"/>
<path d="M516.848 64.6915C517.623 64.6915 518.435 64.3576 518.984 63.8094C519.506 63.2864 519.903 62.4295 519.866 61.6734C519.828 60.8921 519.576 60.0856 518.984 59.5374C518.391 58.9955 517.667 58.6553 516.848 58.6553C516.073 58.6553 515.26 58.9892 514.712 59.5374C514.189 60.0604 513.792 60.9173 513.829 61.6734C513.867 62.4547 514.119 63.2612 514.712 63.8094C515.304 64.3513 516.028 64.6915 516.848 64.6915Z" fill="black"/>
<path d="M455.804 115.313C456.793 110.235 457.701 105.049 457.127 99.9076C456.548 94.7661 454.286 89.5868 450.051 86.6064C452.187 96.3539 452.244 106.555 450.221 116.328C450.007 110.55 449.73 104.658 447.72 99.2397C445.71 93.8147 441.665 88.837 436.12 87.1798C442.182 97.9669 444.204 110.966 441.715 123.089C440.726 111.092 432.377 100.008 421.124 95.7427C428.742 106.171 433.322 118.791 434.173 131.683C432.232 121.476 424.35 112.623 414.439 109.51C420.626 116.819 425.824 124.954 429.851 133.643C426.19 128.64 420.607 125.073 414.527 123.857C421.458 129.654 426.051 138.173 427.072 147.152" fill="#2C5729"/>
<path d="M504.889 136.276C501.864 142.249 498.632 148.468 493.144 152.293C486.528 156.905 477.234 157.586 472.105 163.817C468.999 167.592 468.022 172.796 464.84 176.514C462.289 179.494 458.685 181.151 455.515 183.344C451.917 185.833 449.17 188.725 454.614 189.909C459.661 191.006 465.748 192.215 470.612 194.194C473.788 195.486 476.491 197.685 479.402 199.493C489.137 205.548 501.531 207.136 512.475 203.727C517.648 202.114 522.563 199.373 526.123 195.303C528.158 192.972 529.714 190.268 531.145 187.521C534.995 180.137 538.088 171.504 535.417 163.622C534.522 160.988 533.029 158.6 531.951 156.036C530.571 152.759 529.891 149.243 529.002 145.803C527.528 140.082 525.461 134.518 522.859 129.213" fill="#2C5729"/>
<path d="M501.246 123.573C503.565 129.747 505.909 136.433 504.183 142.803C503.162 146.565 500.805 149.816 499.388 153.439C496.987 159.582 497.409 166.589 499.615 172.808C501.057 176.891 503.225 180.892 505.878 184.294C508.461 187.608 512.04 188.913 515.285 191.446C518.127 193.664 520.855 197.23 524.377 196.48C526.645 196.001 528.107 193.846 529.323 191.868C534.918 182.782 540.507 173.69 546.102 164.604C547.949 161.605 549.807 158.58 551.005 155.272C553.878 147.352 552.674 138.317 548.906 130.787C545.138 123.251 539.008 117.108 532.178 112.181C527.351 108.702 521.579 107.713 516.123 110.095" fill="#FFEEC1"/>
<mask id="mask0_232_1271" style="mask-type:luminance" maskUnits="userSpaceOnUse" x="497" y="108" width="56" height="89">
<path d="M501.246 123.573C503.565 129.747 505.909 136.433 504.183 142.803C503.162 146.565 500.805 149.816 499.388 153.439C496.987 159.582 497.409 166.589 499.615 172.808C501.057 176.891 503.225 180.892 505.878 184.294C508.461 187.608 512.04 188.913 515.285 191.446C518.127 193.664 520.855 197.23 524.377 196.48C526.645 196.001 528.107 193.846 529.323 191.868C534.918 182.782 540.507 173.69 546.102 164.604C547.949 161.605 549.807 158.58 551.005 155.272C553.878 147.352 552.674 138.317 548.906 130.787C545.138 123.251 539.008 117.108 532.178 112.181C527.351 108.702 521.579 107.713 516.123 110.095" fill="white"/>
</mask>
<g mask="url(#mask0_232_1271)">
<path d="M541.476 195.432C538.394 199.767 534.603 203.578 530.306 206.669C530.881 203.02 531.821 199.43 533.106 195.976C528.88 196.553 524.66 197.13 520.434 197.706C522.825 194.758 525.223 191.809 527.614 188.86C522.448 189.061 517.256 188.394 512.301 186.897C515.396 184.441 518.036 181.395 520.044 177.973C515.702 175.161 511.361 172.354 507.013 169.542C510.466 168.019 513.925 166.49 517.378 164.967C514.475 161.422 511.578 157.877 508.676 154.332C512.748 153.347 516.828 152.362 520.901 151.377C518.855 146.484 516.815 141.585 514.769 136.692C519.513 137.885 524.334 138.798 529.181 139.42C529.2 134.755 528.644 130.089 527.518 125.559C531.956 126.939 536.195 129 540.031 131.65C540.677 127.509 541.316 123.362 541.962 119.221C547.122 125.351 552.051 131.676 556.738 138.183" fill="#DE212B"/>
<path d="M541.646 196.586C529.137 191.024 520.801 177.022 521.773 163.198C522.745 149.381 532.959 136.722 546.12 133.012C547.992 132.482 550.216 132.198 551.683 133.494C552.297 134.037 552.688 134.791 553.04 135.538C557.919 145.757 559.308 157.656 556.921 168.747" fill="#B1CF6F"/>
<path d="M554.886 153.084C556.144 149.639 556.301 145.789 555.336 142.244C555.238 141.9 555.12 141.53 554.846 141.305C554.52 141.034 554.057 141.027 553.633 141.047C542.859 141.516 532.971 148.977 531.36 160.082C529.684 171.663 535.554 183.999 545.533 189.879C546.048 190.183 546.687 190.467 547.202 190.176C547.542 189.984 547.718 189.594 547.874 189.23C551.474 180.665 554.67 171.921 557.429 163.045" fill="black"/>
</g>
<path d="M499.092 66.2037C495.33 66.9157 492.035 68.9067 489.382 72.4226C487.019 75.5479 485.564 79.2465 483.806 82.7498C480.429 89.4917 475.684 92.806 469.812 97.3994C456.252 108.004 439.618 117.033 429.454 131.279C423.122 140.151 419.883 151.984 423.84 162.135C425.1 165.367 427.029 168.297 429.102 171.076C435.264 179.342 443.228 186.752 453.095 189.745C452.465 188.63 453.732 187.628 454.809 186.929C458.653 184.44 463.523 183.507 466.737 180.243C470.637 176.274 471.028 169.973 474.317 165.487C476.875 161.996 480.668 160.314 484.461 158.537C489.905 155.985 495.387 153.981 499.489 149.413C503.647 144.782 506.275 138.746 506.653 132.521C507.201 123.416 503.351 113.693 507.327 105.483C508.297 103.486 509.677 101.728 510.963 99.9134C513.332 99.2266 514.403 97.8215 515.6 95.6666C516.57 93.915 517.043 91.7916 518.587 90.5251C520.193 89.2082 522.474 89.2208 524.554 89.2964C528.353 89.435 532.153 89.58 535.952 89.7186C536.74 89.7501 537.584 89.7627 538.264 89.3657C539.361 88.7167 539.632 87.2738 539.789 86.0137C540.287 82.0063 540.785 78.0052 541.283 73.9979C541.402 73.0464 541.509 72.0194 541.068 71.1688C540.678 70.4127 539.915 69.9212 539.147 69.5431C532.052 66.0209 523.514 69.3982 515.657 68.3712C512.525 67.9616 509.526 66.8464 506.42 66.2919C503.83 65.8319 501.379 65.7941 499.092 66.2226V66.2037Z" fill="#DE212B"/>
<path d="M505.607 94.3928C501.417 94.3928 496.987 95.653 494.291 98.8539C491.594 102.061 491.38 107.467 494.599 110.151C495.154 110.611 495.828 111.046 495.998 111.752C496.294 112.98 494.921 113.863 494.032 114.764C492.23 116.603 492.287 119.792 493.837 121.846C495.387 123.9 498.121 124.845 500.686 124.662C503.25 124.48 505.664 123.282 507.718 121.739C510.137 119.918 511.776 118.311 513.559 115.847C513.836 115.463 514.138 115.06 514.586 114.883C515.43 114.549 516.312 115.173 517.081 115.658C520.691 117.952 525.297 117.612 529.544 118.097C533.646 118.569 537.653 119.893 541.226 121.959C541.818 122.306 542.53 122.678 543.154 122.388C543.652 122.155 543.885 121.581 544.023 121.052C544.66 118.689 544.502 116.181 544.143 113.755C542.801 104.777 538.189 95.7349 530.073 91.6645C526.753 90.0011 523.06 89.2576 519.418 88.533C517.005 88.0541 514.598 87.5753 512.185 87.0901C511.246 86.9011 510.263 86.7184 509.337 86.9515C507.875 87.3232 506.829 88.6905 506.42 90.1397C506.004 91.5889 506.111 93.1327 506.218 94.6386" fill="#B1CF6F"/>
<path d="M487.202 157.062C486.546 165.165 483.131 174.812 476.982 180.47C474.6 182.663 471.405 184.055 468.173 183.904C470.227 186.645 473.712 187.81 476.994 186.821C480.277 185.838 482.923 183.362 484.933 180.59C483.446 185.296 483.497 190.469 485.066 195.145C488.638 191.988 490.529 187.035 489.974 182.304C492.154 187.527 497.8 191.087 503.452 190.803C497.686 186.758 494.757 179.582 494.234 172.556C493.711 165.531 495.273 158.537 496.893 151.688C494.189 153.849 490.403 155.752 487.202 157.056V157.062Z" fill="#EA5B86"/>
<path d="M470.586 105.924C467.896 107.979 465.174 110.064 463.101 112.748C461.96 114.223 461.041 115.861 459.932 117.361C455.105 123.888 447.034 127.492 442.484 134.215C439.328 138.878 438.175 144.618 437.778 150.232C437.595 152.797 437.563 155.43 438.345 157.882C439.151 160.402 440.771 162.576 442.365 164.686C444.564 167.616 446.769 170.54 448.968 173.47C449.453 174.113 449.982 174.793 450.745 175.051C452.723 175.719 454.242 173.338 455.174 171.473C459.642 162.538 468.728 156.999 477.448 152.123C479.899 150.749 482.445 149.319 484.089 147.038C485.179 145.532 485.803 143.749 486.408 141.991C487.34 139.313 488.267 136.629 489.199 133.951C489.407 133.346 489.615 132.672 489.357 132.086C489.023 131.323 488.078 131.084 487.259 130.926C480.964 129.704 476.2 124.581 478.922 117.852C479.975 115.25 482.098 113.183 483.062 110.549C483.806 108.527 483.812 106.321 483.806 104.166C483.806 101.627 483.988 98.9682 483.705 96.4668C478.507 98.0798 474.783 102.724 470.58 105.931L470.586 105.924Z" fill="#EA5B86"/>
<path d="M449.353 117.694C448.622 117.694 447.853 118.009 447.336 118.526C446.845 119.018 446.473 119.83 446.505 120.542C446.574 122.086 447.758 123.39 449.353 123.39C450.083 123.39 450.852 123.075 451.369 122.559C451.886 122.042 452.232 121.254 452.201 120.542C452.131 118.999 450.947 117.694 449.353 117.694Z" fill="black"/>
<path d="M461.627 111.917C461.564 110.55 460.518 109.396 459.106 109.396C457.789 109.396 456.523 110.556 456.586 111.917C456.649 113.284 457.695 114.437 459.106 114.437C460.423 114.437 461.69 113.278 461.627 111.917Z" fill="black"/>
<path d="M470.921 100.852C470.776 100.745 470.637 100.632 470.492 100.525C470.165 100.336 469.806 100.235 469.428 100.235C469.138 100.222 468.867 100.285 468.615 100.418C468.35 100.506 468.123 100.651 467.934 100.852C467.726 101.041 467.581 101.268 467.499 101.533C467.367 101.785 467.304 102.056 467.317 102.346C467.342 102.535 467.367 102.718 467.392 102.907C467.493 103.266 467.676 103.574 467.934 103.839C468.079 103.946 468.218 104.06 468.363 104.167C468.69 104.356 469.05 104.457 469.428 104.457C469.717 104.469 469.988 104.406 470.24 104.274C470.505 104.186 470.732 104.041 470.921 103.839C471.129 103.65 471.274 103.423 471.356 103.159C471.488 102.907 471.551 102.636 471.538 102.346C471.513 102.157 471.488 101.974 471.463 101.785C471.362 101.426 471.179 101.117 470.921 100.852Z" fill="black"/>
<path d="M480.032 93.6124C479.893 93.5053 479.761 93.4045 479.622 93.2974C479.307 93.1147 478.967 93.0201 478.601 93.0201C478.324 93.0075 478.066 93.0705 477.82 93.1966C477.568 93.2785 477.354 93.4171 477.171 93.6124C476.976 93.7951 476.837 94.0157 476.755 94.2614C476.629 94.5008 476.573 94.7655 476.579 95.0427C476.604 95.2191 476.629 95.4019 476.648 95.5783C476.743 95.9185 476.919 96.221 477.171 96.473C477.31 96.5801 477.442 96.6809 477.581 96.7881C477.896 96.9708 478.236 97.0653 478.601 97.0653C478.879 97.0779 479.137 97.0149 479.383 96.8889C479.635 96.807 479.849 96.6683 480.032 96.473C480.227 96.2903 480.366 96.0698 480.448 95.824C480.574 95.5846 480.63 95.32 480.624 95.0427C480.599 94.8663 480.574 94.6836 480.555 94.5071C480.46 94.1669 480.284 93.8645 480.032 93.6124Z" fill="black"/>
<path d="M485.35 90.2852C486.585 90.2852 487.776 89.1952 487.713 87.9224C487.656 86.6433 486.673 85.5596 485.35 85.5596C484.115 85.5596 482.924 86.6496 482.987 87.9224C483.044 89.2015 484.027 90.2852 485.35 90.2852Z" fill="black"/>
<path d="M524.642 74.5392C524.283 73.5185 523.394 72.712 522.273 72.6931C522.09 72.6931 521.913 72.712 521.737 72.7498C521.598 72.5544 521.447 72.3717 521.29 72.1953C520.805 71.6471 520.03 71.4644 519.336 71.5589C518.675 71.6471 517.931 72.0252 517.635 72.6679C516.961 74.1297 516.564 75.5789 516.407 77.1793C516.331 77.9354 516.451 78.7104 516.564 79.4539C516.652 80.0714 516.803 80.6826 517.005 81.2749C517.308 82.1822 518.133 82.7745 519.103 82.6485C519.507 82.5918 519.922 82.4279 520.2 82.1192C520.25 82.0688 520.294 82.0058 520.345 81.9491C520.527 81.8482 520.704 81.7222 520.88 81.5773C521.025 81.445 521.164 81.3064 521.302 81.1678C521.321 81.1426 521.346 81.1237 521.372 81.0984C522.31 80.147 523.136 79.0633 523.804 77.9102C524.377 76.9273 525.045 75.7112 524.635 74.5455L524.642 74.5392Z" fill="black"/>
<path d="M486.44 98.42C486.496 99.6613 487.448 100.707 488.727 100.707C489.924 100.707 491.071 99.655 491.014 98.42C490.957 97.1788 490.006 96.1328 488.727 96.1328C487.53 96.1328 486.383 97.1851 486.44 98.42Z" fill="black"/>
<path d="M489.219 108.293C488.834 108.073 488.419 107.959 487.977 107.959C487.637 107.947 487.322 108.016 487.032 108.174C486.73 108.275 486.465 108.445 486.238 108.684C485.999 108.905 485.829 109.169 485.728 109.478C485.577 109.774 485.501 110.089 485.514 110.423C485.545 110.644 485.571 110.858 485.602 111.078C485.722 111.494 485.93 111.86 486.232 112.162C486.396 112.288 486.566 112.42 486.73 112.547C487.114 112.767 487.53 112.88 487.971 112.88C488.311 112.893 488.626 112.824 488.916 112.666C489.219 112.565 489.483 112.395 489.71 112.156C489.95 111.935 490.12 111.671 490.221 111.362C490.372 111.066 490.447 110.751 490.435 110.417C490.403 110.196 490.378 109.982 490.347 109.762C490.227 109.346 490.019 108.98 489.716 108.678C489.553 108.552 489.383 108.419 489.219 108.293Z" fill="black"/>
<path d="M486.099 121.835C486.433 121.847 486.742 121.778 487.032 121.627C487.328 121.532 487.593 121.362 487.807 121.129C488.04 120.909 488.21 120.65 488.305 120.354C488.456 120.064 488.525 119.755 488.513 119.422C488.481 119.207 488.456 118.993 488.424 118.779C488.311 118.369 488.103 118.016 487.807 117.714C487.643 117.588 487.479 117.462 487.322 117.336C486.944 117.115 486.54 117.008 486.106 117.008C485.772 116.996 485.463 117.065 485.179 117.216C484.883 117.311 484.619 117.481 484.404 117.714C484.171 117.935 484.001 118.193 483.907 118.489C483.755 118.779 483.686 119.088 483.699 119.415C483.73 119.629 483.755 119.844 483.787 120.058C483.9 120.467 484.108 120.82 484.404 121.123C484.568 121.249 484.732 121.375 484.89 121.501C485.268 121.721 485.671 121.828 486.106 121.828L486.099 121.835Z" fill="black"/>
<path d="M494.341 129.15C494.517 128.809 494.605 128.438 494.587 128.047C494.555 127.795 494.517 127.537 494.486 127.284C494.347 126.799 494.101 126.377 493.748 126.018C493.553 125.867 493.364 125.722 493.169 125.571C492.721 125.312 492.243 125.18 491.726 125.18C491.329 125.167 490.964 125.249 490.623 125.426C490.27 125.539 489.962 125.741 489.703 126.018C489.426 126.276 489.224 126.585 489.111 126.938C488.935 127.278 488.846 127.65 488.865 128.041C488.897 128.293 488.935 128.551 488.966 128.803C489.105 129.288 489.35 129.71 489.703 130.069C489.899 130.221 490.088 130.366 490.283 130.517C490.73 130.775 491.209 130.907 491.726 130.907C492.123 130.92 492.488 130.838 492.829 130.662C493.181 130.548 493.49 130.347 493.748 130.069C494.026 129.811 494.227 129.502 494.341 129.15Z" fill="black"/>
<path d="M497.674 135.999C497.485 135.854 497.296 135.702 497.101 135.557C496.659 135.299 496.187 135.173 495.677 135.173C495.286 135.161 494.927 135.242 494.586 135.419C494.234 135.532 493.931 135.728 493.679 136.005C493.402 136.263 493.207 136.566 493.093 136.912C492.917 137.246 492.835 137.612 492.847 138.002C492.879 138.254 492.917 138.5 492.948 138.752C493.081 139.231 493.326 139.647 493.673 140C493.862 140.145 494.051 140.296 494.246 140.441C494.687 140.699 495.16 140.825 495.67 140.825C496.061 140.838 496.42 140.756 496.76 140.579C497.113 140.466 497.416 140.271 497.668 139.993C497.945 139.735 498.14 139.433 498.254 139.086C498.43 138.752 498.512 138.387 498.499 137.996C498.468 137.744 498.43 137.498 498.399 137.246C498.266 136.767 498.02 136.351 497.674 135.999Z" fill="black"/>
<path d="M489.471 146.244C489.275 146.093 489.08 145.942 488.885 145.791C488.431 145.526 487.946 145.4 487.423 145.394C487.026 145.381 486.654 145.463 486.308 145.646C485.948 145.766 485.64 145.961 485.375 146.244C485.092 146.509 484.896 146.818 484.776 147.177C484.594 147.524 484.512 147.895 484.524 148.292C484.556 148.551 484.594 148.803 484.625 149.061C484.764 149.552 485.01 149.975 485.369 150.34C485.564 150.491 485.759 150.642 485.955 150.794C486.408 151.058 486.894 151.184 487.417 151.191C487.814 151.203 488.185 151.121 488.532 150.939C488.891 150.819 489.2 150.624 489.464 150.34C489.748 150.075 489.943 149.767 490.063 149.407C490.246 149.061 490.328 148.689 490.315 148.292C490.283 148.034 490.246 147.782 490.214 147.524C490.076 147.032 489.83 146.61 489.471 146.244Z" fill="black"/>
<path d="M479.635 155.506C479.408 155.26 479.137 155.084 478.822 154.983C478.519 154.825 478.198 154.75 477.851 154.768C477.398 154.768 476.969 154.882 476.579 155.115C476.201 155.342 475.898 155.638 475.671 156.022C475.64 156.092 475.602 156.155 475.571 156.224C475.457 156.451 475.356 156.652 475.3 156.892C475.3 156.911 475.293 156.923 475.287 156.942C475.174 157.364 475.174 157.78 475.287 158.202C475.287 158.209 475.287 158.215 475.287 158.228C475.293 158.259 475.3 158.291 475.312 158.322C475.318 158.347 475.325 158.373 475.337 158.398C475.35 158.436 475.363 158.473 475.381 158.511C475.381 158.524 475.394 158.536 475.4 158.549C475.413 158.574 475.419 158.606 475.438 158.631C475.52 158.883 475.659 159.103 475.86 159.286C475.999 159.393 476.138 159.5 476.27 159.601C476.434 159.696 476.598 159.765 476.774 159.809C476.831 159.828 476.887 159.841 476.944 159.853C477.366 159.967 477.782 159.967 478.204 159.853C478.223 159.853 478.236 159.847 478.255 159.841C478.488 159.784 478.696 159.683 478.923 159.57C478.992 159.538 479.055 159.5 479.124 159.469C479.502 159.242 479.805 158.946 480.032 158.562C480.258 158.171 480.372 157.742 480.378 157.289C480.347 157.068 480.315 156.841 480.29 156.621C480.17 156.192 479.956 155.821 479.641 155.506H479.635Z" fill="black"/>
<path d="M470.7 163.742C470.511 163.597 470.316 163.446 470.127 163.301C469.686 163.042 469.207 162.916 468.696 162.916C468.306 162.904 467.94 162.986 467.606 163.162C467.253 163.275 466.951 163.471 466.693 163.748C466.415 164.006 466.22 164.309 466.107 164.662C465.93 165.002 465.848 165.361 465.861 165.752C465.892 166.004 465.93 166.256 465.962 166.508C466.094 166.987 466.34 167.403 466.693 167.755C466.882 167.9 467.077 168.052 467.266 168.196C467.707 168.455 468.186 168.581 468.696 168.581C469.087 168.593 469.452 168.511 469.786 168.335C470.139 168.222 470.442 168.026 470.7 167.749C470.977 167.491 471.173 167.188 471.286 166.835C471.462 166.495 471.544 166.136 471.532 165.745C471.5 165.493 471.462 165.241 471.431 164.989C471.299 164.51 471.053 164.095 470.7 163.742Z" fill="black"/>
<path d="M462.175 172.965C461.992 172.82 461.803 172.675 461.62 172.537C461.192 172.285 460.726 172.165 460.228 172.159C459.85 172.146 459.497 172.222 459.169 172.398C458.829 172.511 458.533 172.7 458.281 172.965C458.01 173.217 457.821 173.507 457.714 173.854C457.544 174.181 457.462 174.534 457.474 174.912C457.506 175.158 457.537 175.397 457.575 175.643C457.708 176.109 457.941 176.512 458.281 176.859C458.464 177.004 458.653 177.149 458.835 177.287C459.264 177.54 459.73 177.659 460.228 177.666C460.606 177.678 460.959 177.603 461.286 177.426C461.627 177.313 461.923 177.124 462.175 176.859C462.446 176.607 462.635 176.317 462.742 175.971C462.912 175.643 462.994 175.29 462.981 174.912C462.95 174.666 462.918 174.427 462.881 174.181C462.748 173.715 462.515 173.312 462.175 172.965Z" fill="black"/>
<path d="M450.342 180.804C450.191 180.52 449.976 180.294 449.712 180.117C449.561 179.966 449.378 179.859 449.17 179.802C448.88 179.651 448.565 179.582 448.231 179.594C448.017 179.626 447.796 179.651 447.582 179.682C447.387 179.764 447.191 179.846 446.996 179.928C446.631 180.142 446.335 180.439 446.12 180.804C446.101 180.829 446.089 180.848 446.07 180.873C445.862 181.232 445.755 181.623 445.755 182.039C445.755 182.455 445.862 182.845 446.07 183.205C446.089 183.23 446.101 183.249 446.12 183.274C446.272 183.557 446.486 183.784 446.75 183.961C446.902 184.112 447.084 184.219 447.292 184.276C447.582 184.427 447.897 184.496 448.231 184.484C448.445 184.452 448.666 184.427 448.88 184.396C449.075 184.314 449.271 184.232 449.466 184.15C449.75 183.999 449.976 183.784 450.153 183.52C450.304 183.368 450.411 183.186 450.468 182.978C450.619 182.688 450.688 182.373 450.676 182.039C450.644 181.825 450.619 181.604 450.588 181.39C450.506 181.195 450.424 180.999 450.342 180.804Z" fill="black"/>
<path d="M443.758 172.884C443.72 172.62 443.688 172.355 443.65 172.09C443.632 171.958 443.575 171.832 443.493 171.712C443.411 171.511 443.392 171.429 443.304 171.29C443.285 171.265 443.266 171.233 443.253 171.208C442.989 170.767 442.642 170.414 442.195 170.15C441.842 169.948 441.477 169.822 441.08 169.772C440.935 169.746 440.79 169.734 440.645 169.734C440.267 169.721 439.908 169.797 439.58 169.973C439.24 170.087 438.937 170.276 438.692 170.547C438.679 170.559 438.666 170.578 438.648 170.597C438.465 170.78 438.301 170.981 438.169 171.208C437.904 171.668 437.765 172.16 437.765 172.695C437.778 172.884 437.803 173.067 437.828 173.262C437.828 173.533 437.898 173.785 438.03 174.018C438.074 174.144 438.125 174.264 438.188 174.384C438.194 174.396 438.2 174.409 438.206 174.422C438.225 174.453 438.238 174.478 438.257 174.51C438.408 174.711 438.566 174.907 438.717 175.108C438.988 175.398 439.303 175.6 439.668 175.72C439.901 175.852 440.147 175.921 440.412 175.921C440.802 176.009 441.199 175.991 441.59 175.871C441.823 175.77 442.063 175.669 442.296 175.575C442.497 175.423 442.693 175.266 442.894 175.115C443.184 174.844 443.386 174.529 443.505 174.163C443.688 173.81 443.776 173.432 443.758 173.023C443.758 172.998 443.751 172.966 443.745 172.941C443.745 172.928 443.745 172.916 443.745 172.897L443.758 172.884Z" fill="black"/>
<path d="M435.295 161.946C435.106 161.801 434.911 161.65 434.722 161.505C434.281 161.247 433.802 161.121 433.291 161.115C432.901 161.102 432.535 161.184 432.195 161.36C431.842 161.474 431.54 161.669 431.281 161.946C431.004 162.205 430.809 162.507 430.695 162.86C430.519 163.2 430.437 163.566 430.45 163.956C430.481 164.208 430.519 164.46 430.551 164.712C430.683 165.191 430.929 165.613 431.281 165.966C431.47 166.111 431.666 166.262 431.855 166.407C432.296 166.666 432.775 166.792 433.285 166.798C433.676 166.811 434.041 166.729 434.381 166.552C434.734 166.439 435.037 166.243 435.295 165.966C435.572 165.708 435.768 165.405 435.881 165.053C436.058 164.712 436.139 164.347 436.127 163.956C436.095 163.704 436.058 163.452 436.026 163.2C435.894 162.721 435.648 162.299 435.295 161.946Z" fill="black"/>
<path d="M431.023 153.824C431.174 153.535 431.244 153.22 431.231 152.886C431.2 152.671 431.174 152.451 431.143 152.237C431.029 151.821 430.815 151.462 430.513 151.159C430.349 151.033 430.185 150.907 430.021 150.775C429.643 150.554 429.227 150.441 428.786 150.441C428.452 150.428 428.137 150.498 427.847 150.649C427.545 150.75 427.28 150.913 427.06 151.153C426.82 151.373 426.65 151.638 426.556 151.941C426.405 152.23 426.335 152.545 426.348 152.879C426.379 153.094 426.405 153.314 426.436 153.528C426.55 153.944 426.764 154.303 427.066 154.606L427.558 154.99C427.936 155.211 428.352 155.324 428.793 155.324C429.127 155.337 429.442 155.267 429.731 155.116C430.034 155.015 430.299 154.852 430.519 154.612C430.759 154.392 430.929 154.127 431.023 153.824Z" fill="black"/>
<path d="M431.382 143.018C431.559 143.156 431.735 143.288 431.912 143.427C432.321 143.667 432.762 143.78 433.229 143.786C433.588 143.799 433.922 143.723 434.237 143.559C434.558 143.452 434.842 143.276 435.081 143.018C435.333 142.778 435.516 142.501 435.623 142.173C435.787 141.864 435.862 141.524 435.85 141.165C435.818 140.932 435.787 140.699 435.755 140.472C435.629 140.031 435.409 139.647 435.081 139.319C434.905 139.18 434.728 139.048 434.552 138.909C434.142 138.67 433.701 138.556 433.235 138.55C432.876 138.538 432.542 138.613 432.227 138.777C431.905 138.884 431.622 139.061 431.382 139.319C431.13 139.558 430.948 139.836 430.84 140.163C430.677 140.472 430.601 140.812 430.614 141.171C430.645 141.404 430.677 141.638 430.708 141.864C430.834 142.306 431.055 142.69 431.382 143.018Z" fill="black"/>
<path d="M443.663 126.989C443.455 126.825 443.247 126.667 443.039 126.504C442.554 126.226 442.037 126.081 441.477 126.081C441.048 126.063 440.651 126.157 440.286 126.346C439.901 126.472 439.574 126.686 439.29 126.982C438.988 127.26 438.774 127.594 438.654 127.978C438.459 128.343 438.37 128.74 438.389 129.169C438.427 129.44 438.465 129.717 438.503 129.988C438.648 130.511 438.912 130.965 439.297 131.349C439.504 131.513 439.712 131.67 439.92 131.834C440.406 132.111 440.922 132.256 441.483 132.256C441.911 132.275 442.308 132.181 442.674 131.992C443.058 131.866 443.386 131.651 443.669 131.355C443.972 131.078 444.186 130.744 444.306 130.36C444.501 129.994 444.589 129.597 444.57 129.169L444.457 128.35C444.312 127.827 444.047 127.373 443.663 126.989Z" fill="black"/>
<path d="M508.436 71.692C507.258 71.2447 505.947 71.2384 504.719 71.4589C504.656 71.4337 504.593 71.4085 504.53 71.3896C501.915 70.6272 499.092 71.4778 497.044 73.1853C494.82 75.0378 493.787 77.9173 493.686 80.7464C493.635 82.1578 493.831 83.6259 494.278 84.968C494.82 86.6062 495.544 88.3642 497.082 89.3093C497.68 89.6748 498.399 89.8638 499.092 89.8827C499.829 89.9079 500.472 89.6937 501.121 89.3849C502.003 88.9691 502.633 88.1814 503.194 87.419C504.007 86.3038 504.719 85.094 505.475 83.9347C506.338 82.6052 507.182 81.2631 508.039 79.9273C508.449 79.2846 508.865 78.6419 509.268 77.9929C509.778 77.1612 510.175 76.3106 510.553 75.4095C510.818 74.7669 510.616 73.6516 510.251 73.0908C509.803 72.3977 509.224 72.0008 508.449 71.7046L508.436 71.692Z" fill="black"/>
<path d="M457.953 42.2482C459.616 41.5866 461.324 40.3768 461.513 38.6C461.633 37.4658 449.749 38.6504 448.609 40.4713C445.855 44.8693 456.082 42.998 457.953 42.2482Z" fill="black"/>
<path d="M470.492 35.0712C470.863 35.1468 471.241 35.1909 471.619 35.2035C471.928 35.2161 472.231 35.2035 472.539 35.1909C473.233 35.1468 473.926 35.0649 474.612 34.9641C474.776 34.9389 474.946 34.9137 475.11 34.8822C475.192 34.8696 475.28 34.8507 475.362 34.8381C475.406 34.8318 475.444 34.8192 475.488 34.8129C475.501 34.8129 475.52 34.8129 475.532 34.8066C475.74 34.7625 475.873 34.6554 476.03 34.523C476.156 34.397 476.244 34.2458 476.295 34.0694C476.345 33.8866 476.345 33.7039 476.295 33.5212C476.2 33.1683 475.923 32.91 475.576 32.8029H475.558C475.463 32.784 475.375 32.7714 475.28 32.7588C475.179 32.7588 475.072 32.784 474.972 32.8029C474.94 32.8092 474.909 32.8155 474.877 32.8218C474.808 32.8344 474.738 32.847 474.669 32.8659C474.537 32.8911 474.404 32.9163 474.266 32.9415C473.995 32.9856 473.73 33.0297 473.459 33.0675L473.73 33.0297C472.949 33.1368 472.161 33.1809 471.374 33.2377C471.078 33.2566 470.775 33.3133 470.485 33.3574L470.271 33.4456C470.164 33.5023 470.082 33.5779 470.019 33.6724C469.962 33.7291 469.925 33.7921 469.906 33.8677C469.849 33.9749 469.824 34.0883 469.83 34.2143C469.836 34.3718 469.88 34.523 469.95 34.6617C470.006 34.7688 470.082 34.8507 470.177 34.9137C470.265 34.9956 470.366 35.046 470.479 35.0712H470.492Z" fill="black"/>
<path d="M497.479 33.1555C497.592 33.2689 497.693 33.376 497.825 33.4705C497.926 33.5398 498.033 33.6155 498.14 33.6785C498.329 33.8045 498.531 33.9305 498.732 34.0376C498.991 34.1699 499.262 34.277 499.526 34.3779C499.753 34.4661 499.98 34.548 500.207 34.6236C501.158 34.9323 502.173 35.0836 503.175 35.1214C503.704 35.1403 504.239 35.1214 504.762 35.0647C504.888 35.0647 505.008 35.0458 505.115 34.9827C505.229 34.9449 505.329 34.8819 505.411 34.7937L505.556 34.6047C505.638 34.4598 505.682 34.3086 505.682 34.1384C505.726 33.6092 505.468 33.061 505.077 32.7144C504.699 32.3805 504.258 32.1663 503.779 32.015C503.351 31.8827 502.897 31.826 502.463 31.7504C501.927 31.6559 501.391 31.5677 500.862 31.4732C500.566 31.4227 500.276 31.3723 499.98 31.3219C499.602 31.2589 499.224 31.1833 498.846 31.1455C498.713 31.1455 498.594 31.1707 498.487 31.2274C498.373 31.2652 498.272 31.3282 498.184 31.4227C498.039 31.5803 497.951 31.7504 497.926 31.9646C497.901 32.1789 497.926 32.3868 498.039 32.5632C498.172 32.7648 498.361 32.935 498.6 32.9917C498.953 33.0799 499.318 33.124 499.678 33.187C500.037 33.25 500.396 33.313 500.755 33.3697C501.461 33.4894 502.173 33.6029 502.878 33.7289C503.149 33.7793 503.414 33.8486 503.666 33.9557L503.445 33.8612C503.616 33.9305 503.773 34.0187 503.918 34.1321L503.729 33.9872C503.811 34.0502 503.887 34.1258 503.95 34.2014L503.805 34.0124C503.855 34.0754 503.893 34.1447 503.924 34.2203L503.83 33.9998C503.855 34.0628 503.874 34.1321 503.88 34.1951L503.849 33.9494C503.855 34.0061 503.855 34.0691 503.849 34.1258C504.076 33.8297 504.296 33.5335 504.523 33.2374H504.491C504.573 33.2311 504.655 33.2185 504.737 33.2059C503.729 33.3382 502.708 33.3382 501.706 33.2059L501.94 33.2374C501.41 33.1681 500.887 33.0736 500.371 32.9476C500.112 32.8846 499.86 32.8089 499.608 32.7333C499.356 32.6577 499.104 32.5758 498.852 32.4939C498.713 32.4498 498.581 32.4057 498.449 32.3553C498.38 32.3301 498.31 32.2986 498.235 32.286C498.159 32.2734 498.09 32.2608 498.014 32.2419C497.794 32.1852 497.516 32.2797 497.403 32.4876C497.289 32.6955 497.315 32.9665 497.485 33.1429L497.479 33.1555Z" fill="black"/>
<path d="M518.694 39.9912C518.719 40.0479 518.744 40.1047 518.769 40.1614L518.706 40.0164C518.75 40.1992 518.889 40.3693 518.996 40.5205C519.109 40.6843 519.223 40.8482 519.355 40.9994C519.55 41.2325 519.758 41.453 519.973 41.6673C520.187 41.8815 520.407 42.0894 520.647 42.2785C520.937 42.5053 521.226 42.7258 521.529 42.9337C522.581 43.6583 523.753 44.2128 524.969 44.6098C525.618 44.824 526.286 44.9815 526.96 45.0824C527.08 45.1202 527.2 45.1265 527.319 45.1013C527.439 45.1013 527.553 45.0571 527.66 44.9941C527.849 44.8744 528.038 44.6791 528.076 44.4523C528.139 44.0805 528.151 43.7025 528.025 43.337C527.899 42.9716 527.723 42.688 527.483 42.3982C527.282 42.1524 527.03 41.9571 526.771 41.7681C526.57 41.6169 526.349 41.4908 526.129 41.3711C525.574 41.0813 524.988 40.8482 524.415 40.6024C523.722 40.3063 523.022 40.0164 522.323 39.7329C521.611 39.4494 520.899 39.1721 520.174 38.9075L519.928 38.876C519.802 38.876 519.683 38.8949 519.569 38.9579C519.393 39.0335 519.217 39.1595 519.128 39.3359C519.053 39.4809 519.009 39.6384 519.002 39.8022C518.99 40.0542 519.116 40.2748 519.273 40.4575C519.658 40.9049 520.067 41.327 520.502 41.7177C520.722 41.9193 520.949 42.1083 521.182 42.2911C521.466 42.5116 521.743 42.7258 522.058 42.9085C522.228 43.0094 522.417 43.0913 522.6 43.1669C522.827 43.2614 523.073 43.2362 523.312 43.2362C523.766 43.2362 524.037 42.7321 523.822 42.3478C523.791 42.2911 523.759 42.228 523.722 42.1713L523.791 42.3415C523.709 42.1209 523.621 41.913 523.444 41.7618C523.35 41.6799 523.255 41.5917 523.155 41.5097C522.903 41.3018 522.65 41.1065 522.392 40.9112L522.581 41.0561C521.85 40.489 521.182 39.8526 520.577 39.1532C520.275 39.6699 519.979 40.1866 519.676 40.7032C520.905 41.1569 522.115 41.6358 523.318 42.1398L523.098 42.0453C523.652 42.2785 524.207 42.5242 524.761 42.7699C525.171 42.9526 525.574 43.1669 525.927 43.4378L525.738 43.2929C525.927 43.4378 526.097 43.5953 526.242 43.7844L526.097 43.6016C526.185 43.7151 526.261 43.8348 526.318 43.9671C526.286 43.8915 526.255 43.8222 526.223 43.7466C526.267 43.8537 526.299 43.9671 526.318 44.0868C526.305 44.0049 526.299 43.923 526.286 43.8474C526.299 43.9608 526.299 44.0805 526.286 44.1939L526.318 43.9545V43.9797C526.689 43.7655 527.061 43.5575 527.433 43.3433C526.311 43.1921 525.221 42.8896 524.175 42.4486L524.383 42.5368C523.545 42.1839 522.732 41.7429 521.983 41.2325C521.768 41.0876 521.56 40.9364 521.353 40.7725L521.516 40.8986C521.308 40.7284 521.082 40.5772 520.867 40.4134L521.025 40.5331C520.697 40.2811 520.395 39.9975 520.067 39.7455L520.212 39.8526C520.099 39.7644 519.985 39.6699 519.872 39.5754C519.802 39.5187 519.733 39.4557 519.658 39.3989C519.582 39.3422 519.506 39.2981 519.431 39.2414C519.242 39.1091 518.927 39.1595 518.769 39.3296C518.706 39.3989 518.656 39.4809 518.631 39.5691C518.586 39.714 518.631 39.8589 518.687 39.9912H518.694Z" fill="black"/>
<path d="M533.179 84.0103C533.11 84.7223 533.066 85.4721 533.368 86.1211C533.671 86.7701 534.42 87.2679 535.101 87.041C535.448 86.9276 535.712 86.6504 535.945 86.3668C538.466 83.3172 539.455 78.056 539.329 74.2376C539.31 73.5949 539.247 72.9207 538.9 72.3789C536.506 68.5983 533.318 82.5989 533.179 84.004V84.0103Z" fill="black"/>
<path d="M555.201 106.617C555.245 106.869 555.308 107.134 555.516 107.317C555.724 107.5 556.102 107.563 556.379 107.392C556.518 107.304 556.606 107.172 556.675 107.046C557.45 105.647 557.318 103.713 556.845 102.421C556.763 102.207 556.662 101.98 556.455 101.841C554.986 100.884 555.112 106.12 555.201 106.624V106.617Z" fill="black"/>
<path d="M555.201 120.934C555.245 121.186 555.308 121.45 555.516 121.633C555.717 121.816 556.102 121.879 556.379 121.709C556.518 121.621 556.606 121.488 556.675 121.362C557.45 119.963 557.318 118.029 556.845 116.737C556.763 116.523 556.662 116.296 556.455 116.158C554.986 115.2 555.112 120.436 555.201 120.94V120.934Z" fill="black"/>
<path d="M505.071 100.316C502.865 102.062 502.008 105.42 503.369 107.884C504.85 110.574 508.309 111.538 511.372 111.349C514.434 111.16 517.389 110.089 520.445 109.818C526.311 109.289 531.994 111.696 537.388 114.052C538.913 111.557 537.193 108.356 535.252 106.164C531.83 102.301 527.622 99.2264 523.331 96.3532C520.974 94.7717 518.46 93.2028 515.631 92.9255C515.058 92.8688 514.472 92.8688 513.936 93.0831C512.814 93.5241 512.21 94.8032 512.191 96.0067C512.178 97.1786 512.701 98.3254 512.676 99.3903C510.055 98.7917 507.339 98.5144 505.064 100.316H505.071Z" fill="black"/>
<path d="M458.539 130.1C458.293 129.892 458.029 129.716 457.751 129.565C455.792 128.519 453.347 128.765 451.312 129.653C447.141 131.474 444.318 136.011 444.532 140.56C444.62 142.456 445.187 144.296 445.622 146.142C446.416 149.495 446.8 152.941 446.769 156.388C446.744 158.971 446.649 163.785 449.031 165.637C451.583 167.616 453.215 164.201 455.08 162.607C456.605 161.302 458.432 160.395 459.932 159.047C461.765 157.396 463.05 155.235 464.695 153.388C467.291 150.484 470.706 148.455 473.693 145.947C478.494 141.915 481.455 134.322 479.212 128.021C478.796 126.849 477.839 125.797 476.61 125.595C473.579 125.097 461.387 132.18 459.963 135.179C460.776 133.459 460.013 131.329 458.545 130.094L458.539 130.1Z" fill="black"/>
<path d="M463.592 127.069C465.268 121.247 469.906 108.589 469.332 108.564C470.404 108.608 471.298 109.477 471.695 110.473C472.098 111.468 472.105 112.565 472.105 113.636C473.207 111.342 474.997 109.383 477.183 108.072C476.339 110.215 475.28 112.269 474.033 114.197C475.904 113.17 478.166 112.124 480.063 113.1C478.198 115.06 476.257 117.076 473.756 118.091C472.955 118.418 472.098 118.639 471.361 119.093C470.378 119.697 469.685 120.668 469.017 121.613C467.159 124.234 465.306 127.7 463.013 129.773C462.981 129.401 463.214 128.418 463.599 127.076L463.592 127.069Z" fill="black"/>
<path d="M936.159 161.366L944.358 176.988L960.636 174.779L948.41 185.287C948.41 185.287 964.104 196.414 963.527 195.784C962.95 195.153 946.865 192.225 946.865 192.225L945.608 204.972C945.608 204.972 940.036 193.191 939.044 193.635C938.052 194.079 927.094 197.704 927.094 197.704L935.612 185.954C935.612 185.954 921.859 182.575 922.496 181.993C923.127 181.411 936.784 178.398 936.784 178.398L936.171 161.372L936.159 161.366Z" fill="#2E572A"/>
<path d="M793.559 136.197L801.205 120.299L789.699 108.591L805.449 112.095C805.449 112.095 805.004 92.8792 804.841 93.7254C804.679 94.5716 811.94 109.191 811.94 109.191L822.923 102.577C822.923 102.577 816.791 114.076 817.741 114.61C818.691 115.138 828.152 121.745 828.152 121.745L813.63 121.955C813.63 121.955 819.136 134.984 818.294 134.822C817.453 134.66 806.867 125.538 806.867 125.538L793.565 136.209L793.559 136.197Z" fill="#FFEEC1"/>
<path d="M871.552 90.7903C869.334 96.2395 866.707 102.049 861.562 104.911C860.708 103.897 861.027 102.385 861.394 101.113C861.772 99.7922 862.145 98.4719 862.524 97.1516C860.113 99.1501 857.246 100.602 854.198 101.353C855.353 97.6798 857.012 94.157 859.103 90.9223C856.11 91.2464 853.044 90.8803 850.207 89.8661C854.096 87.1835 858.07 84.4529 862.602 83.1146C865.126 82.3705 867.862 82.0284 870.002 80.498" fill="black"/>
<path d="M902.654 54.1768C899.42 55.6711 896.216 57.2134 893.03 58.8038C889.321 60.6582 885.612 62.5906 882.402 65.2131C879.192 67.8297 876.469 71.2024 875.273 75.1693C874.251 78.548 869.779 79.6763 866.81 81.3446C863.269 83.3371 859.789 85.4255 856.362 87.61C859.206 88.0781 862.169 87.766 864.856 86.7278C862.638 89.4344 860.72 92.387 859.145 95.5137C862.061 95.1116 864.429 93.0352 866.605 91.0607C865.205 93.4252 864.315 96.0838 863.996 98.8084C868.673 96.1198 871.42 91.1207 875.033 87.1179C875.375 86.7338 875.736 86.3557 876.187 86.1157C876.764 85.8036 877.443 85.7436 878.092 85.6716C891.587 84.2853 904.553 78.206 914.243 68.7179" fill="#F7A81A"/>
<path d="M937.734 44.1899C937.8 44.3399 937.662 44.496 937.542 44.61C935.492 46.4884 933.436 48.3668 931.386 50.2452C932.474 50.3352 933.574 50.2812 934.65 50.0892C933.887 50.5273 928.056 55.2083 928.05 55.7124C928.062 54.9262 927.635 54.212 927.227 53.5399C925.982 51.4935 924.738 49.447 923.488 47.4006C927.058 44.85 930.966 44.52 935.143 43.9138C935.943 43.7998 936.796 43.6858 937.53 44.0279C937.614 44.0639 937.698 44.1179 937.734 44.2019V44.1899Z" fill="#DE212B"/>
<path d="M919.316 45.5528C920.206 45.2288 921.132 44.9167 922.069 45.0247C923.716 45.2228 924.901 46.6391 925.91 47.9534C926.566 48.8055 927.407 49.8738 927.882 50.834C928.718 52.5203 929.565 54.4768 928.85 56.2171C928.531 56.9913 927.93 57.6154 927.335 58.2096C924.408 61.1082 921.198 63.7248 917.766 66.0173C914.381 68.2798 911.117 70.9203 907.619 72.9548C907.505 71.4604 907.961 69.9241 908.881 68.7359C908.016 69.1019 907.15 69.468 906.284 69.8281C906.086 69.9121 905.858 69.9901 905.671 69.8881C905.329 69.6961 905.515 69.1679 905.743 68.8499C906.332 68.0217 906.928 67.1875 907.517 66.3593C906.483 66.7014 905.341 66.7014 904.313 66.3473C904.06 66.2633 903.772 66.0953 903.778 65.8312C903.778 65.6572 903.904 65.5192 904.024 65.3931C904.812 64.5769 905.599 63.7548 906.387 62.9386C904.848 63.4427 902.978 63.8928 901.758 62.8306C901.644 62.7286 901.536 62.6085 901.53 62.4525C901.53 62.2785 901.668 62.1344 901.8 62.0144C902.726 61.1862 903.651 60.358 904.577 59.5299C903.044 59.962 901.295 59.5299 900.147 58.4256C901.235 57.5914 902.347 56.7993 903.495 56.0431C901.956 56.3312 900.303 55.9591 899.041 55.0349C905.821 51.8902 912.259 48.1154 919.304 45.5468L919.316 45.5528Z" fill="#F7A81A"/>
<path d="M912.824 41.1176C910.624 41.1356 908.454 41.5557 906.296 41.9757C909.236 41.8377 912.199 42.2278 915 43.128C911.688 43.158 908.388 43.9082 905.389 45.3005C908.238 45.3245 911.087 45.3485 913.936 45.3725C911.292 45.9426 908.472 46.6147 906.645 48.6072C908.526 48.2051 910.414 47.803 912.295 47.4069C914.027 47.0408 915.764 46.6688 917.531 46.6147C920.164 46.5367 923.698 47.797 926.133 46.8188C924.498 42.8939 916.551 41.0875 912.824 41.1176Z" fill="black"/>
<path d="M921.216 49.4115C922.28 49.1414 923.109 50.3117 923.584 51.3019C923.752 51.656 923.927 52.0641 923.782 52.4302C923.704 52.6282 923.536 52.7842 923.38 52.9283C922.562 53.6724 921.462 54.4766 920.452 54.0205C919.989 53.8164 919.671 53.3784 919.466 52.9223C919.07 52.0461 919.046 50.9538 919.623 50.1857C920.2 49.4175 921.456 49.1834 922.147 49.8496" fill="black"/>
<path d="M914.592 125.658C910.276 131.516 904.565 136.341 898.067 139.629C896.607 138.597 895.338 137.289 894.358 135.8C894.112 135.428 893.877 135.008 893.914 134.564C893.956 134.09 894.298 133.7 894.629 133.352C897.49 130.303 900.351 127.255 903.213 124.206C899.354 126.366 895.495 128.527 891.635 130.687C890.205 128.755 888.948 126.691 887.89 124.536C891.593 122.532 894.665 119.375 896.552 115.618C894.01 117.328 891.359 118.883 888.624 120.269C887.806 120.683 886.808 121.079 886.027 120.611C885.648 120.383 885.402 119.987 885.174 119.609C884.416 118.319 883.743 116.98 883.154 115.6C886.207 113.272 888.894 110.475 891.1 107.336C888.744 109.623 885.726 111.219 882.505 111.885C882.066 110.127 881.633 108.369 881.194 106.616C881.086 106.184 880.978 105.74 881.086 105.308C881.272 104.534 882.048 104.078 882.721 103.64C884.578 102.433 886.093 100.705 887.055 98.7125C884.957 100.423 882.655 101.881 880.214 103.057C879.625 100.999 879.03 98.9405 878.441 96.8821C880.371 94.9796 881.837 92.6091 882.685 90.0346C881.212 91.6549 879.403 92.9692 877.401 93.8634C876.638 92.075 875.874 90.2926 875.117 88.5043C878.267 84.9275 881.056 81.0266 883.418 76.8857C884.783 82.3049 886.316 88.0241 890.343 91.907" fill="#B1CF6F"/>
<path d="M909.446 129.013C903.91 120.623 898.614 112.071 893.571 103.369C891.004 98.9465 888.504 94.4816 886.069 89.9866C884.38 86.8719 880.96 82.8871 882.198 79.1423C882.811 77.2939 884.11 75.7575 885.372 74.2812C889.117 69.9063 892.177 65.7474 897.328 62.8367C899.119 61.8225 901.079 60.9223 903.135 60.9823C905.96 61.0663 908.485 63.0048 909.915 65.4413C911.592 68.2919 911.244 71.7066 913.101 74.3412C915.049 77.1018 918.307 78.3741 920.356 81.0087C922.514 83.7813 922.647 87.5741 922.629 91.0908C922.599 97.8843 922.364 104.72 920.861 111.345C919.359 117.971 916.515 124.416 911.833 129.337C911.526 129.661 911.16 129.997 910.715 129.997C910.156 129.997 909.759 129.481 909.452 129.013H909.446Z" fill="#F7A81A"/>
<path d="M917.916 95.1118C916.726 91.7031 915.89 88.1683 915.415 84.5916C915.223 83.1092 917.357 82.5871 918.523 83.1092C919.701 83.6373 919.893 84.7896 920.122 85.9539C920.735 89.1165 919.9 92.5853 917.916 95.1178V95.1118Z" fill="#DE212B"/>
<path d="M898.945 81.2546C899.913 77.7739 901.235 74.3951 902.894 71.1845C903.579 69.8522 905.635 70.6443 906.296 71.7306C906.964 72.8348 906.465 73.891 905.99 74.9773C904.691 77.9239 902.022 80.3004 898.951 81.2546H898.945Z" fill="#DE212B"/>
<path d="M888.654 76.8441C890.403 73.6814 892.477 70.7047 894.833 67.9682C895.813 66.8339 897.623 68.0762 898.013 69.2884C898.41 70.5187 897.677 71.4309 896.961 72.3731C895.014 74.9357 891.87 76.634 888.654 76.8441Z" fill="#DE212B"/>
<path d="M910.474 102.757C909.981 99.1807 909.855 95.5559 910.096 91.9491C910.198 90.4548 912.398 90.3648 913.432 91.103C914.466 91.8411 914.448 93.0174 914.442 94.2056C914.424 97.4223 912.921 100.663 910.474 102.757Z" fill="#DE212B"/>
<path d="M901.482 112.599C901.524 108.986 901.938 105.386 902.72 101.857C903.045 100.399 905.233 100.633 906.146 101.515C907.078 102.409 906.868 103.561 906.681 104.731C906.182 107.912 904.211 110.889 901.482 112.599Z" fill="#DE212B"/>
<path d="M898.885 98.4185C898.927 94.8057 899.342 91.2049 900.123 87.6762C900.448 86.2178 902.636 86.4519 903.549 87.3341C904.481 88.2283 904.271 89.3805 904.084 90.5508C903.585 93.7315 901.614 96.7081 898.885 98.4185Z" fill="#DE212B"/>
<path d="M889.321 90.575C890.331 87.1063 891.695 83.7456 893.397 80.5589C894.1 79.2386 896.144 80.0488 896.793 81.147C897.448 82.2572 896.937 83.3075 896.444 84.3877C895.11 87.3163 892.417 89.6628 889.327 90.575H889.321Z" fill="#DE212B"/>
<path d="M911.73 81.3209C911.791 81.1949 912.007 81.2429 912.061 81.3749C912.115 81.507 912.061 81.657 912.001 81.783C911.033 84.0275 909.675 86.11 908.016 87.9104C907.697 85.2278 907.703 82.5032 908.046 79.8266C908.178 78.8004 908.376 77.7322 909.007 76.91C909.218 76.6399 909.488 76.3939 909.819 76.3278C910.198 76.2498 910.582 76.4119 910.937 76.5679C911.424 76.784 911.905 76.994 912.392 77.21C912.734 77.3601 913.119 77.5521 913.221 77.9122C913.305 78.1882 913.197 78.4763 913.095 78.7464C912.602 80.0126 912.103 81.2789 911.61 82.5452" fill="#DE212B"/>
<path d="M915.511 110.577C915.571 110.451 915.788 110.499 915.842 110.631C915.896 110.763 915.842 110.913 915.782 111.039C914.814 113.283 913.455 115.366 911.796 117.166C911.478 114.484 911.484 111.759 911.826 109.082C911.959 108.056 912.157 106.988 912.788 106.166C912.999 105.896 913.269 105.65 913.6 105.584C913.978 105.506 914.363 105.668 914.718 105.824C915.205 106.04 915.686 106.25 916.172 106.466C916.515 106.616 916.9 106.808 917.002 107.168C917.086 107.444 916.978 107.732 916.876 108.002C916.383 109.269 915.884 110.535 915.391 111.801" fill="#DE212B"/>
<path d="M853.856 20.2988C846.618 21.085 839.567 23.5875 833.46 27.5424C833.623 29.3248 834.115 31.0712 834.915 32.6675C835.113 33.0696 835.36 33.4837 835.762 33.6697C836.195 33.8738 836.706 33.7717 837.169 33.6637C841.244 32.7275 845.326 31.7853 849.402 30.8491C845.591 33.0936 841.786 35.3381 837.975 37.5826C838.93 39.785 840.084 41.9095 841.419 43.9079C845.013 41.7175 849.287 40.6552 853.495 40.9073C850.736 42.2456 848.055 43.7459 845.482 45.4143C844.713 45.9124 843.871 46.5725 843.883 47.4847C843.883 47.9288 844.106 48.3369 844.322 48.727C845.062 50.0293 845.879 51.2835 846.781 52.4838C850.327 51.0195 854.102 50.1013 857.931 49.7712C854.769 50.6594 851.866 52.4598 849.678 54.9083C850.982 56.1686 852.281 57.4289 853.585 58.6831C853.904 58.9892 854.24 59.3073 854.661 59.4393C855.425 59.6673 856.212 59.2292 856.927 58.8692C858.905 57.8729 861.165 57.4288 863.371 57.6029C860.835 58.5571 858.418 59.8114 856.176 61.3237C857.661 62.866 859.151 64.4144 860.636 65.9567C863.257 65.2485 866.046 65.1705 868.697 65.7346C866.551 66.1907 864.507 67.0969 862.728 68.3692C863.894 69.9235 865.054 71.4779 866.221 73.0382C870.903 72.114 875.682 71.6699 880.455 71.7059C876.445 67.8051 872.262 63.6102 870.927 58.185" fill="#B1CF6F"/>
<path d="M848.368 23.0538C852.852 32.0498 857.601 40.9197 862.596 49.6396C865.138 54.0805 867.747 58.4795 870.416 62.8424C872.268 65.8671 873.999 70.8181 877.864 71.6283C879.775 72.0304 881.753 71.6823 883.671 71.3283C889.345 70.296 894.478 69.7379 899.588 66.7553C901.367 65.717 903.128 64.4808 904.108 62.6744C905.455 60.1959 905.04 57.0392 903.651 54.5846C902.022 51.704 898.891 50.2877 897.544 47.3651C896.132 44.2984 896.666 40.8417 895.416 37.751C894.1 34.4923 890.878 32.4759 887.83 30.7235C881.933 27.3388 875.892 24.1041 869.4 22.0756C862.908 20.0472 855.899 19.261 849.281 20.8334C848.848 20.9354 848.368 21.0794 848.145 21.4695C847.863 21.9496 848.115 22.5557 848.362 23.0538H848.368Z" fill="#F7A81A"/>
<path d="M881.981 32.7759C884.338 35.5185 886.971 38.015 889.838 40.2175C891.022 41.1297 892.549 39.5454 892.687 38.2791C892.825 36.9948 891.924 36.2506 891.028 35.4705C888.6 33.352 885.173 32.3318 881.981 32.7699V32.7759Z" fill="#DE212B"/>
<path d="M884.452 56.1145C887.95 57.0267 891.545 57.5789 895.158 57.7649C896.654 57.8429 897.003 55.6704 896.39 54.5542C895.771 53.42 894.605 53.3239 893.426 53.1919C890.223 52.8318 886.826 53.9421 884.452 56.1145Z" fill="#DE212B"/>
<path d="M883.1 67.2113C886.712 67.2893 890.337 66.9952 893.896 66.3351C895.368 66.059 895.206 63.8685 894.352 62.9263C893.487 61.9661 892.327 62.1402 891.148 62.2842C887.951 62.6743 884.897 64.5407 883.1 67.2113Z" fill="#DE212B"/>
<path d="M871.624 35.3561C874.474 37.5826 877.551 39.509 880.791 41.1114C882.138 41.7715 883.316 39.9231 883.202 38.6569C883.082 37.3726 882.054 36.8205 881.02 36.2263C878.225 34.63 874.66 34.2939 871.618 35.3561H871.624Z" fill="#DE212B"/>
<path d="M858.58 38.1767C861.73 39.9531 865.06 41.4054 868.505 42.5036C869.929 42.9597 870.825 40.9493 870.524 39.719C870.218 38.4648 869.112 38.0687 868.006 37.6426C865 36.4783 861.43 36.6764 858.58 38.1767Z" fill="#DE212B"/>
<path d="M869.557 47.539C872.706 49.3154 876.037 50.7677 879.481 51.866C880.906 52.3221 881.801 50.3116 881.501 49.0814C881.194 47.8271 880.088 47.431 878.982 47.0049C875.976 45.8407 872.406 46.0387 869.557 47.539Z" fill="#DE212B"/>
<path d="M871.546 59.7334C875.057 60.6036 878.657 61.1137 882.27 61.2517C883.767 61.3117 884.091 59.1333 883.466 58.029C882.835 56.9068 881.663 56.8168 880.485 56.7027C877.275 56.3847 873.89 57.5309 871.546 59.7394V59.7334Z" fill="#DE212B"/>
<path d="M890.818 45.049C890.962 45.061 891.022 44.845 890.938 44.737C890.854 44.629 890.698 44.599 890.553 44.5809C888.119 44.2869 885.636 44.4129 883.244 44.941C885.408 46.5674 887.77 47.9237 890.259 48.9799C891.215 49.382 892.236 49.7481 893.264 49.61C893.601 49.562 893.95 49.454 894.178 49.2019C894.437 48.9139 894.491 48.4998 894.533 48.1157C894.593 47.5876 894.647 47.0655 894.707 46.5374C894.749 46.1653 894.773 45.7392 894.515 45.4631C894.316 45.2531 894.01 45.1991 893.727 45.1571C892.381 44.947 891.034 44.737 889.688 44.5269" fill="#DE212B"/>
<path d="M867.381 27.0803C867.525 27.0923 867.585 26.8762 867.501 26.7682C867.417 26.6602 867.261 26.6302 867.116 26.6122C864.682 26.3181 862.199 26.4442 859.807 26.9723C861.971 28.5986 864.333 29.9549 866.822 31.0111C867.778 31.4132 868.799 31.7793 869.827 31.6413C870.164 31.5933 870.513 31.4852 870.741 31.2332C871 30.9451 871.054 30.531 871.096 30.147C871.156 29.6188 871.21 29.0967 871.27 28.5686C871.312 28.1965 871.336 27.7704 871.078 27.4944C870.879 27.2843 870.573 27.2303 870.29 27.1883C868.944 26.9783 867.597 26.7682 866.251 26.5582" fill="#DE212B"/>
<path d="M827.239 188.426C837.295 188.354 844.647 183.829 842.11 167.619C850.285 174.065 853.675 185.755 850.225 195.573C861.953 197.476 872.869 203.609 880.431 212.551C868.745 218.3 854.475 218.6 842.687 213.343C847.905 215.672 839.165 230.345 836.983 231.923C833.713 234.288 829.733 235.476 825.766 236.238C824.035 236.574 821.552 236.292 821.444 234.534C825.826 234.504 829.06 229.811 828.934 225.436C828.309 203.471 790.571 197.404 774.077 193.971C761.562 191.366 748.836 189.92 736.099 188.984C725.507 188.204 711.423 185.323 701 187.369C723.397 182.976 746.36 181.476 769.136 182.874C788.407 184.057 808.039 188.564 827.239 188.426Z" fill="#004D93"/>
<path d="M27.384 161.366L19.1849 176.988L2.90694 174.779L15.1334 185.287C15.1334 185.287 -0.561485 196.414 0.0155792 195.784C0.59264 195.153 16.6782 192.225 16.6782 192.225L17.9346 204.972C17.9346 204.972 23.5068 193.191 24.4986 193.635C25.4905 194.079 36.4486 197.704 36.4486 197.704L27.931 185.954C27.931 185.954 41.6843 182.575 41.0471 181.993C40.416 181.411 26.7588 178.398 26.7588 178.398L27.372 161.372L27.384 161.366Z" fill="#2E572A"/>
<path d="M169.984 136.197L162.338 120.299L173.844 108.591L158.094 112.095C158.094 112.095 158.539 92.8792 158.702 93.7254C158.864 94.5716 151.603 109.191 151.603 109.191L140.62 102.577C140.62 102.577 146.752 114.076 145.802 114.61C144.852 115.138 135.391 121.745 135.391 121.745L149.913 121.955C149.913 121.955 144.407 134.984 145.249 134.822C146.09 134.66 156.676 125.538 156.676 125.538L169.978 136.209L169.984 136.197Z" fill="#FFEEC1"/>
<path d="M91.9906 90.7903C94.2087 96.2395 96.8356 102.049 101.981 104.911C102.835 103.897 102.516 102.385 102.149 101.113C101.771 99.7922 101.398 98.4719 101.019 97.1516C103.43 99.1501 106.297 100.602 109.345 101.353C108.19 97.6798 106.531 94.157 104.44 90.9223C107.433 91.2464 110.499 90.8803 113.336 89.8661C109.447 87.1835 105.473 84.4529 100.941 83.1146C98.4165 82.3705 95.6814 82.0284 93.5415 80.498" fill="black"/>
<path d="M60.8894 54.1768C64.1234 55.6711 67.3273 57.2134 70.5132 58.8038C74.222 60.6582 77.9308 62.5906 81.1408 65.2131C84.3507 67.8297 87.0737 71.2024 88.2699 75.1693C89.2918 78.548 93.764 79.6763 96.7334 81.3446C100.274 83.3371 103.754 85.4255 107.181 87.61C104.337 88.0781 101.374 87.766 98.687 86.7278C100.905 89.4344 102.823 92.387 104.398 95.5137C101.482 95.1116 99.1138 93.0352 96.9378 91.0607C98.3384 93.4252 99.2281 96.0838 99.5466 98.8084C94.87 96.1198 92.1229 91.1207 88.5103 87.1179C88.1676 86.7338 87.807 86.3557 87.3562 86.1157C86.7791 85.8036 86.0998 85.7436 85.4506 85.6716C71.9558 84.2853 58.9899 78.206 49.3001 68.7179" fill="#F7A81A"/>
<path d="M25.809 44.1899C25.7429 44.3399 25.8811 44.496 26.0013 44.61C28.0511 46.4884 30.1069 48.3668 32.1566 50.2452C31.0686 50.3352 29.9686 50.2812 28.8927 50.0892C29.6561 50.5273 35.4868 55.2083 35.4928 55.7124C35.4808 54.9262 35.9076 54.212 36.3163 53.5399C37.5606 51.4935 38.8049 49.447 40.0552 47.4006C36.4846 44.85 32.5774 44.52 28.3997 43.9138C27.6002 43.7998 26.7467 43.6858 26.0133 44.0279C25.9292 44.0639 25.845 44.1179 25.809 44.2019V44.1899Z" fill="#DE212B"/>
<path d="M44.2266 45.5528C43.337 45.2288 42.4112 44.9167 41.4735 45.0247C39.8265 45.2228 38.6424 46.6391 37.6325 47.9534C36.9773 48.8055 36.1357 49.8738 35.6609 50.834C34.8253 52.5203 33.9778 54.4768 34.6931 56.2171C35.0117 56.9913 35.6128 57.6154 36.2079 58.2096C39.1353 61.1082 42.3451 63.7248 45.7775 66.0173C49.1617 68.2798 52.4257 70.9203 55.9241 72.9548C56.0384 71.4604 55.5815 69.9241 54.6618 68.7359C55.5274 69.1019 56.393 69.468 57.2586 69.8281C57.457 69.9121 57.6854 69.9901 57.8717 69.8881C58.2144 69.6961 58.028 69.1679 57.7996 68.8499C57.2105 68.0217 56.6154 67.1875 56.0264 66.3593C57.0603 66.7014 58.2023 66.7014 59.2302 66.3473C59.4827 66.2633 59.7712 66.0953 59.7652 65.8312C59.7652 65.6572 59.639 65.5192 59.5188 65.3931C58.7313 64.5769 57.9439 63.7548 57.1564 62.9386C58.6953 63.4427 60.5647 63.8928 61.7849 62.8306C61.8991 62.7286 62.0074 62.6085 62.0134 62.4525C62.0134 62.2785 61.8751 62.1344 61.7429 62.0144C60.8172 61.1862 59.8915 60.358 58.9658 59.5299C60.4986 59.962 62.2478 59.5299 63.3959 58.4256C62.3079 57.5914 61.1958 56.7993 60.0477 56.0431C61.5866 56.3312 63.2396 55.9591 64.502 55.0349C57.7215 51.8902 51.2836 48.1154 44.2387 45.5468L44.2266 45.5528Z" fill="#F7A81A"/>
<path d="M50.7186 41.1176C52.9187 41.1356 55.0887 41.5557 57.2467 41.9757C54.3073 41.8377 51.3438 42.2278 48.5426 43.128C51.8547 43.158 55.1548 43.9082 58.1543 45.3005C55.3051 45.3245 52.4558 45.3485 49.6066 45.3725C52.2514 45.9426 55.0706 46.6147 56.898 48.6072C55.0165 48.2051 53.1291 47.803 51.2476 47.4069C49.5164 47.0408 47.7792 46.6688 46.012 46.6147C43.3791 46.5367 39.8447 47.797 37.4102 46.8188C39.0452 42.8939 46.9917 41.0875 50.7186 41.1176Z" fill="black"/>
<path d="M42.3273 49.4115C41.2633 49.1414 40.4338 50.3117 39.9589 51.3019C39.7906 51.656 39.6163 52.0641 39.7605 52.4302C39.8387 52.6282 40.007 52.7842 40.1633 52.9283C40.9808 53.6724 42.0808 54.4766 43.0907 54.0205C43.5535 53.8164 43.8721 53.3784 44.0765 52.9223C44.4732 52.0461 44.4973 50.9538 43.9202 50.1857C43.3432 49.4175 42.0868 49.1834 41.3955 49.8496" fill="black"/>
<path d="M48.9513 125.658C53.2673 131.516 58.9778 136.341 65.4757 139.629C66.9364 138.597 68.2048 137.289 69.1846 135.8C69.431 135.428 69.6655 135.008 69.6294 134.564C69.5873 134.09 69.2447 133.7 68.9141 133.352C66.0528 130.303 63.1915 127.255 60.3302 124.206C64.1893 126.366 68.0484 128.527 71.9076 130.687C73.3382 128.755 74.5946 126.691 75.6525 124.536C71.9497 122.532 68.878 119.375 66.9905 115.618C69.5332 117.328 72.1841 118.883 74.9191 120.269C75.7366 120.683 76.7345 121.079 77.5159 120.611C77.8946 120.383 78.141 119.987 78.3694 119.609C79.1268 118.319 79.8001 116.98 80.3892 115.6C77.3356 113.272 74.6486 110.475 72.4425 107.336C74.7989 109.623 77.8165 111.219 81.0384 111.885C81.4772 110.127 81.91 108.369 82.3488 106.616C82.457 106.184 82.5652 105.74 82.457 105.308C82.2707 104.534 81.4953 104.078 80.822 103.64C78.9646 102.433 77.4498 100.705 76.488 98.7125C78.5858 100.423 80.8881 101.881 83.3286 103.057C83.9177 100.999 84.5128 98.9405 85.1019 96.8821C83.1723 94.9796 81.7056 92.6091 80.858 90.0346C82.3308 91.6549 84.1401 92.9692 86.1418 93.8634C86.9052 92.075 87.6686 90.2926 88.426 88.5043C85.2762 84.9275 82.4871 81.0266 80.1247 76.8857C78.7602 82.3049 77.2274 88.0241 73.1999 91.907" fill="#B1CF6F"/>
<path d="M54.0965 129.013C59.6327 120.623 64.9285 112.071 69.9718 103.369C72.5385 98.9465 75.0391 94.4816 77.4736 89.9866C79.1627 86.8719 82.583 82.8871 81.3447 79.1423C80.7316 77.2939 79.4332 75.7575 78.1709 74.2812C74.426 69.9063 71.3663 65.7474 66.2149 62.8367C64.4236 61.8225 62.4639 60.9223 60.4082 60.9823C57.583 61.0663 55.0584 63.0048 53.6277 65.4413C51.9506 68.2919 52.2993 71.7066 50.4418 74.3412C48.4942 77.1018 45.2363 78.3741 43.1865 81.0087C41.0285 83.7813 40.8963 87.5741 40.9143 91.0908C40.9444 97.8843 41.1788 104.72 42.6815 111.345C44.1843 117.971 47.0275 124.416 51.7102 129.337C52.0167 129.661 52.3834 129.997 52.8282 129.997C53.3872 129.997 53.784 129.481 54.0906 129.013H54.0965Z" fill="#F7A81A"/>
<path d="M45.6271 95.1118C46.8173 91.7031 47.6528 88.1683 48.1277 84.5916C48.3201 83.1092 46.1861 82.5871 45.02 83.1092C43.8418 83.6373 43.6495 84.7896 43.4211 85.9539C42.808 89.1165 43.6434 92.5853 45.6271 95.1178V95.1118Z" fill="#DE212B"/>
<path d="M64.5981 81.2546C63.6304 77.7739 62.3079 74.3951 60.6488 71.1845C59.9636 69.8522 57.9078 70.6443 57.2466 71.7306C56.5794 72.8348 57.0782 73.891 57.5531 74.9773C58.8515 77.9239 61.5205 80.3004 64.5921 81.2546H64.5981Z" fill="#DE212B"/>
<path d="M74.8889 76.8441C73.1397 73.6814 71.0659 70.7047 68.7095 67.9682C67.7297 66.8339 65.9204 68.0762 65.5296 69.2884C65.1329 70.5187 65.8663 71.4309 66.5816 72.3731C68.5292 74.9357 71.673 76.634 74.8889 76.8441Z" fill="#DE212B"/>
<path d="M53.0687 102.757C53.5616 99.1807 53.6879 95.5559 53.4474 91.9491C53.3452 90.4548 51.1452 90.3648 50.1113 91.103C49.0773 91.8411 49.0954 93.0174 49.1014 94.2056C49.1195 97.4223 50.6222 100.663 53.0687 102.757Z" fill="#DE212B"/>
<path d="M62.0613 112.599C62.0192 108.986 61.6045 105.386 60.823 101.857C60.4984 100.399 58.3104 100.633 57.3968 101.515C56.465 102.409 56.6754 103.561 56.8618 104.731C57.3607 107.912 59.3323 110.889 62.0613 112.599Z" fill="#DE212B"/>
<path d="M64.6582 98.4185C64.6161 94.8057 64.2013 91.2049 63.4199 87.6762C63.0953 86.2178 60.9073 86.4519 59.9936 87.3341C59.0619 88.2283 59.2723 89.3805 59.4586 90.5508C59.9575 93.7315 61.9292 96.7081 64.6582 98.4185Z" fill="#DE212B"/>
<path d="M74.2219 90.575C73.2121 87.1063 71.8475 83.7456 70.1464 80.5589C69.4431 79.2386 67.3993 80.0488 66.7501 81.147C66.0949 82.2572 66.6058 83.3075 67.0988 84.3877C68.4332 87.3163 71.1262 89.6628 74.2159 90.575H74.2219Z" fill="#DE212B"/>
<path d="M51.8126 81.3209C51.7525 81.1949 51.536 81.2429 51.4819 81.3749C51.4278 81.507 51.4819 81.657 51.542 81.783C52.5098 84.0275 53.8683 86.11 55.5274 87.9104C55.846 85.2278 55.84 82.5032 55.4974 79.8266C55.3651 78.8004 55.1668 77.7322 54.5356 76.91C54.3252 76.6399 54.0547 76.3939 53.724 76.3278C53.3453 76.2498 52.9606 76.4119 52.606 76.5679C52.1191 76.784 51.6383 76.994 51.1514 77.21C50.8087 77.3601 50.424 77.5521 50.3218 77.9122C50.2377 78.1882 50.3459 78.4763 50.448 78.7464C50.9409 80.0126 51.4398 81.2789 51.9328 82.5452" fill="#DE212B"/>
<path d="M48.0318 110.577C47.9717 110.451 47.7553 110.499 47.7012 110.631C47.6471 110.763 47.7012 110.913 47.7613 111.039C48.7291 113.283 50.0876 115.366 51.7466 117.166C52.0652 114.484 52.0592 111.759 51.7166 109.082C51.5843 108.056 51.386 106.988 50.7548 106.166C50.5444 105.896 50.2739 105.65 49.9433 105.584C49.5646 105.506 49.1799 105.668 48.8253 105.824C48.3384 106.04 47.8575 106.25 47.3706 106.466C47.0279 106.616 46.6432 106.808 46.541 107.168C46.4569 107.444 46.5651 107.732 46.6672 108.002C47.1601 109.269 47.6591 110.535 48.152 111.801" fill="#DE212B"/>
<path d="M109.687 20.2988C116.925 21.085 123.976 23.5875 130.083 27.5424C129.92 29.3248 129.428 31.0712 128.628 32.6675C128.43 33.0696 128.183 33.4837 127.781 33.6697C127.348 33.8738 126.837 33.7717 126.374 33.6637C122.298 32.7275 118.217 31.7853 114.141 30.8491C117.952 33.0936 121.757 35.3381 125.568 37.5826C124.613 39.785 123.459 41.9095 122.124 43.9079C118.529 41.7175 114.256 40.6552 110.048 40.9073C112.807 42.2456 115.488 43.7459 118.061 45.4143C118.83 45.9124 119.672 46.5725 119.66 47.4847C119.66 47.9288 119.437 48.3369 119.221 48.727C118.481 50.0293 117.664 51.2835 116.762 52.4838C113.216 51.0195 109.441 50.1013 105.612 49.7712C108.774 50.6594 111.677 52.4598 113.865 54.9083C112.561 56.1686 111.262 57.4289 109.958 58.6831C109.639 58.9892 109.302 59.3073 108.882 59.4393C108.118 59.6673 107.331 59.2292 106.616 58.8692C104.638 57.8729 102.378 57.4288 100.172 57.6029C102.708 58.5571 105.125 59.8114 107.367 61.3237C105.882 62.866 104.391 64.4144 102.907 65.9567C100.286 65.2485 97.4968 65.1705 94.8459 65.7346C96.9918 66.1907 99.0356 67.0969 100.815 68.3692C99.6488 69.9235 98.4886 71.4779 97.3224 73.0382C92.6398 72.114 87.8611 71.6699 83.0883 71.7059C87.0977 67.8051 91.2814 63.6102 92.6158 58.185" fill="#B1CF6F"/>
<path d="M115.175 23.0538C110.691 32.0498 105.942 40.9197 100.947 49.6396C98.4045 54.0805 95.7957 58.4795 93.1268 62.8424C91.2754 65.8671 89.5442 70.8181 85.6791 71.6283C83.7676 72.0304 81.7899 71.6823 79.8724 71.3283C74.1979 70.296 69.0645 69.7379 63.9551 66.7553C62.1758 65.717 60.4146 64.4808 59.4347 62.6744C58.0883 60.1959 58.503 57.0392 59.8916 54.5846C61.5206 51.704 64.6524 50.2877 65.9989 47.3651C67.4115 44.2984 66.8765 40.8417 68.1268 37.751C69.4432 34.4923 72.6651 32.4759 75.7128 30.7235C81.6096 27.3388 87.6507 24.1041 94.1426 22.0756C100.635 20.0472 107.644 19.261 114.262 20.8334C114.695 20.9354 115.175 21.0794 115.398 21.4695C115.68 21.9496 115.428 22.5557 115.181 23.0538H115.175Z" fill="#F7A81A"/>
<path d="M81.5615 32.7759C79.2052 35.5185 76.5723 38.015 73.705 40.2175C72.5208 41.1297 70.994 39.5454 70.8558 38.2791C70.7175 36.9948 71.6192 36.2506 72.5148 35.4705C74.9433 33.352 78.3696 32.3318 81.5615 32.7699V32.7759Z" fill="#DE212B"/>
<path d="M79.0911 56.1145C75.5926 57.0267 71.998 57.5789 68.3853 57.7649C66.8886 57.8429 66.54 55.6704 67.1531 54.5542C67.7722 53.42 68.9383 53.3239 70.1165 53.1919C73.3204 52.8318 76.7167 53.9421 79.0911 56.1145Z" fill="#DE212B"/>
<path d="M80.4434 67.2113C76.8307 67.2893 73.206 66.9952 69.6474 66.3351C68.1747 66.059 68.3371 63.8685 69.1907 62.9263C70.0563 61.9661 71.2164 62.1402 72.3945 62.2842C75.5924 62.6743 78.6461 64.5407 80.4434 67.2113Z" fill="#DE212B"/>
<path d="M91.9185 35.3561C89.0693 37.5826 85.9916 39.509 82.7517 41.1114C81.4052 41.7715 80.227 39.9231 80.3412 38.6569C80.4614 37.3726 81.4893 36.8205 82.5232 36.2263C85.3184 34.63 88.883 34.2939 91.9246 35.3561H91.9185Z" fill="#DE212B"/>
<path d="M104.963 38.1767C101.813 39.9531 98.4828 41.4054 95.0384 42.5036C93.6138 42.9597 92.7181 40.9493 93.0187 39.719C93.3252 38.4648 94.4313 38.0687 95.5373 37.6426C98.5429 36.4783 102.113 36.6764 104.963 38.1767Z" fill="#DE212B"/>
<path d="M93.9863 47.539C90.8365 49.3154 87.5064 50.7677 84.0621 51.866C82.6374 52.3221 81.7418 50.3116 82.0423 49.0814C82.3489 47.8271 83.4549 47.431 84.5609 47.0049C87.5665 45.8407 91.1371 46.0387 93.9863 47.539Z" fill="#DE212B"/>
<path d="M91.9968 59.7334C88.4864 60.6036 84.8858 61.1137 81.2731 61.2517C79.7763 61.3117 79.4518 59.1333 80.0769 58.029C80.7081 56.9068 81.8802 56.8168 83.0584 56.7027C86.2683 56.3847 89.6525 57.5309 91.9968 59.7394V59.7334Z" fill="#DE212B"/>
<path d="M72.7251 45.049C72.5809 45.061 72.5207 44.845 72.6049 44.737C72.689 44.629 72.8453 44.599 72.9896 44.5809C75.4241 44.2869 77.9067 44.4129 80.2991 44.941C78.1351 46.5674 75.7727 47.9237 73.2841 48.9799C72.3284 49.382 71.3065 49.7481 70.2786 49.61C69.942 49.562 69.5933 49.454 69.3649 49.2019C69.1064 48.9139 69.0523 48.4998 69.0103 48.1157C68.9502 47.5876 68.896 47.0655 68.8359 46.5374C68.7938 46.1653 68.7698 45.7392 69.0283 45.4631C69.2267 45.2531 69.5332 45.1991 69.8157 45.1571C71.1622 44.947 72.5087 44.737 73.8552 44.5269" fill="#DE212B"/>
<path d="M96.1622 27.0803C96.0179 27.0923 95.9577 26.8762 96.0419 26.7682C96.126 26.6602 96.2823 26.6302 96.4266 26.6122C98.8611 26.3181 101.344 26.4442 103.736 26.9723C101.572 28.5986 99.2097 29.9549 96.7211 31.0111C95.7654 31.4132 94.7435 31.7793 93.7156 31.6413C93.379 31.5933 93.0303 31.4852 92.8019 31.2332C92.5434 30.9451 92.4894 30.531 92.4473 30.147C92.3872 29.6188 92.333 29.0967 92.2729 28.5686C92.2309 28.1965 92.2069 27.7704 92.4653 27.4944C92.6637 27.2843 92.9702 27.2303 93.2527 27.1883C94.5992 26.9783 95.9458 26.7682 97.2922 26.5582" fill="#DE212B"/>
<path d="M136.304 188.426C126.248 188.354 118.896 183.829 121.433 167.619C113.258 174.065 109.868 185.755 113.318 195.573C101.59 197.476 90.6743 203.609 83.1124 212.551C94.7979 218.3 109.068 218.6 120.856 213.343C115.638 215.672 124.378 230.345 126.56 231.923C129.83 234.288 133.81 235.476 137.777 236.238C139.508 236.574 141.991 236.292 142.099 234.534C137.717 234.504 134.483 229.811 134.609 225.436C135.234 203.471 172.972 197.404 189.466 193.971C201.981 191.366 214.707 189.92 227.444 188.984C238.036 188.204 252.12 185.323 262.543 187.369C240.145 182.976 217.183 181.476 194.407 182.874C175.136 184.057 155.504 188.564 136.304 188.426Z" fill="#004D93"/>
</svg>
